<?xml version="1.0" standalone="no"?>
<!DOCTYPE svg PUBLIC "-//W3C//DTD SVG 1.1//EN" "http://www.w3.org/Graphics/SVG/1.1/DTD/svg11.dtd" >
<svg xmlns="http://www.w3.org/2000/svg" xmlns:xlink="http://www.w3.org/1999/xlink" version="1.1">
<metadata>
Created by FontForge 20170731 at Thu Mar 21 20:32:01 2019
 By Aleksey,,,
Copyright (c) 2013 by Jonas Hecksher, Playtype, e-Types AS. All rights reserved.
</metadata>
<defs>
<font id="BerlingskeSerif-BlkItalic" horiz-adv-x="1269" >
  <font-face 
    font-family="BerlingskeSerif-BlkItalic"
    font-weight="900"
    font-style="italic"
    font-stretch="normal"
    units-per-em="2048"
    panose-1="2 0 10 3 8 0 0 9 0 4"
    ascent="1638"
    descent="-410"
    x-height="1044"
    cap-height="1413"
    bbox="-760 -709 4323 2167"
    underline-thickness="102"
    underline-position="-510"
    slope="-11"
    unicode-range="U+0020-FB06"
  />
<missing-glyph horiz-adv-x="1345" 
d="M1260 1413v-1413h-1117v1413h1117zM1067 662q-61 0 -61 61v297h100v51h-100v119h-9q-71 -91 -151 -141l-35 -21v-8h43v-289q0 -143 127 -143q80 0 137 78l-4 8q-20 -12 -47 -12zM279 596h276v8q-43 17 -53.5 42t-12.5 79v143h64q105 0 169 46t64 147q0 178 -225 178h-282
v-8q31 -12 39 -35q9 -26 10 -80v-397q0 -63 -7 -81q-8 -21 -42 -34v-8zM522 903h-33v299h41q94 0 94 -150q0 -75 -25.5 -112.5t-76.5 -36.5z" />
    <glyph glyph-name="f_f" unicode="ff" horiz-adv-x="1349" 
d="M1737 1274q2 -84 -53 -131t-125 -47q-71 0 -119 45t-47 109q0 64 45 110t112 65q-23 5 -49 7q-47 0 -84 -20.5t-61 -56t-38.5 -74t-23.5 -83.5l-26 -154h209l-23 -104h-203l-143 -872q-49 -314 -309 -451q-139 -72 -307 -109l-5 13q62 37 113 113t79 154.5t40 156.5
l160 995h-295l-144 -872q-49 -314 -309 -451q-139 -72 -307 -109l-4 13q90 54 150.5 177t80.5 247l160 995h-162l47 104h131l4 23q34 214 190 311q154 95 374 97q76 0 149 -31.5t108 -90.5q18 15 37 25q154 95 373 97q120 -2 197 -59q78 -58 78 -142zM907 1106h-8
q-62 0 -107.5 42.5t-45.5 104.5q0 63 37.5 110t99.5 62q-23 5 -49 7q-47 0 -84 -20.5t-61 -56t-38.5 -74t-23.5 -83.5l-27 -154h295l4 23q2 13 8 39z" />
    <glyph glyph-name="f_f_i" unicode="ffi" horiz-adv-x="1982" 
d="M907 1106h-8q-62 0 -107.5 42.5t-45.5 104.5q0 63 37.5 110t99.5 62q-23 5 -49 7q-47 0 -84 -20.5t-61 -56t-38.5 -74t-23.5 -83.5l-27 -154h295zM1602 -27q-74 0 -124 47q-50 46 -51 156q0 34 11 103l104 542q8 56 8 64q0 55 -47 55h-252l-143 -872q-20 -128 -73.5 -225
t-138 -161.5t-181 -104.5t-223.5 -69l-5 13q62 37 113 113t79 154.5t40 156.5l160 995h-295l-144 -872q-49 -314 -309 -451q-139 -72 -307 -109l-4 13q90 54 150.5 177t80.5 247l160 995h-162l47 104h131l4 23q34 214 190 311q154 95 374 97q78 0 148 -30.5t108 -90.5
q149 121 504 121q168 0 269 -53q101 -54 103 -138q0 -79 -50.5 -125.5t-130.5 -46.5q-66 0 -119.5 33.5t-53.5 95.5q0 125 143 172q-44 17 -131 19q-244 0 -289 -234l-28 -154h209q61 0 147 12q78 11 107 13q169 0 172 -201q0 -52 -11 -104l-82 -442q-8 -56 -8 -72
q0 -62 46 -62t126 39v-8q-58 -93 -156 -169q-100 -77 -216 -77z" />
    <glyph glyph-name="f_f_l" unicode="ffl" horiz-adv-x="1968" 
d="M907 1106h-8q-62 0 -107.5 42.5t-45.5 104.5q0 63 37.5 110t99.5 62q-23 5 -49 7q-47 0 -84 -20.5t-61 -56t-38.5 -74t-23.5 -83.5l-27 -154h295zM1579 -27q-205 0 -145 306l155 817q-68 0 -117 43.5t-49 110.5q0 65 45.5 111t112.5 64q-24 7 -95 7q-42 0 -76.5 -22.5
t-57 -59t-37 -74.5t-21.5 -78l-26 -154h209l-23 -104h-203l-143 -872q-20 -128 -73.5 -225t-138 -161.5t-181 -104.5t-223.5 -69l-5 13q62 37 113 113t79 154.5t40 156.5l160 995h-295l-144 -872q-49 -314 -309 -451q-139 -72 -307 -109l-4 13q90 54 150.5 177t80.5 247
l160 995h-162l47 104h131l4 23q34 214 190 311q154 95 374 97q78 0 149 -31.5t107 -93.5q151 125 411 125q78 0 155 -30.5t120 -86.5q148 39 272 117h8l-211 -1156q-18 -101 12 -123q9 -7 28 -6q38 0 124 37v-8q-55 -88 -164 -167t-227 -79z" />
    <glyph glyph-name="f_b" unicode="fb" horiz-adv-x="1906" 
d="M1155 49q141 0 240 172q98 173 98 428q0 256 -180 256q-36 0 -74 -20l-154 -813q40 -23 70 -23zM756 1250q0 64 45 110t112 65q-24 7 -94 7q-42 0 -76.5 -22.5t-57 -59t-37 -74.5t-21.5 -78l-27 -154h209l-23 -104h-202l-144 -872q-49 -314 -309 -451q-139 -72 -307 -109
l-4 13q90 54 150.5 177t80.5 247l160 995h-162l47 104h131l4 23q34 214 190 311q154 95 374 97q76 0 153.5 -30.5t120.5 -86.5q148 39 272 117h9l-101 -533q140 127 312 127q134 -2 219 -109q86 -109 86 -296q0 -182 -109.5 -348t-276.5 -255q-161 -86 -298 -86
q-115 1 -243 22t-216 62l199 1037q-68 0 -117 43.5t-49 110.5z" />
    <glyph glyph-name="f_h" unicode="fh" horiz-adv-x="1925" 
d="M1562 -27q-105 0 -157 70t-21 236l82 413q34 178 -65 178q-88 0 -189 -137l-133 -733h-366l209 1096q-68 0 -117 43.5t-49 110.5q0 64 45 110t112 65q-24 7 -94 7q-42 0 -76.5 -22.5t-57 -59t-37 -74.5t-21.5 -78l-27 -154h209l-23 -104h-202l-144 -872
q-49 -314 -309 -451q-139 -72 -307 -109l-4 13q90 54 150.5 177t80.5 247l160 995h-162l47 104h131l4 23q34 214 190 311q154 95 374 97q76 0 153.5 -30.5t120.5 -86.5q148 39 272 117h9l-121 -654q63 102 158.5 175t199.5 73q307 0 225 -432l-59 -318q-17 -101 13 -123
q9 -7 28 -6q38 0 123 37v-8q-61 -100 -157 -173t-198 -73z" />
    <glyph glyph-name="f_i" unicode="fi" horiz-adv-x="1314" 
d="M934 -27q-74 0 -124 47t-50 156q0 40 10 103l104 542q2 15 4 29.5t3.5 23.5t1.5 11q0 55 -47 55h-252l-144 -872q-49 -314 -309 -451q-139 -72 -307 -109l-4 13q90 54 150.5 177t80.5 247l160 995h-162l47 104h131l9 43q26 140 111.5 232.5t223.5 125.5q126 30 311 30
q175 0 275 -53q103 -54 103 -138q0 -79 -51 -125.5t-131 -46.5q-66 0 -119.5 33.5t-53.5 95.5q0 126 144 172q-44 17 -131 19q-244 0 -289 -234l-29 -154h209q61 0 147 12q78 11 107 13q89 0 130.5 -54.5t41.5 -146.5q0 -57 -10 -104l-82 -442q-8 -56 -8 -72q0 -62 46 -62
q47 0 126 39v-8q-64 -104 -164 -175t-209 -71z" />
    <glyph glyph-name="f_j" unicode="fj" horiz-adv-x="1290" 
d="M836 940h-252l-144 -872q-49 -314 -309 -451q-139 -72 -307 -109l-4 13q90 54 150.5 177t80.5 247l160 995h-162l47 104h131l9 43q26 140 111.5 232.5t223.5 125.5q126 30 311 30q175 0 275 -53q103 -54 103 -138q0 -79 -51 -125.5t-131 -46.5q-66 0 -119.5 33.5
t-53.5 95.5q0 126 144 172q-44 17 -131 19q-244 0 -289 -234l-29 -154h209q61 0 147 12q78 11 107 13q89 0 130.5 -54.5t41.5 -146.5q0 -57 -10 -104l-103 -563q-33 -172 -111.5 -297.5t-218.5 -205.5t-323 -128l-4 12q88 49 167 173q80 125 105 282l137 784q2 15 4 29.5
t3.5 23.5t1.5 11q0 55 -47 55z" />
    <glyph glyph-name="f_k" unicode="fk" horiz-adv-x="1871" 
d="M1518 -27q-60 1 -102 19t-69.5 54.5t-43.5 76t-31 100.5l-82 314q254 65 403 149q-60 24 -97.5 79t-37.5 119q0 76 64.5 130.5t141.5 54.5q82 0 140 -54.5t58 -135.5q0 -80 -56 -139q-53 -56 -107 -83q-55 -26 -167 -63l94 -270q47 -132 160 -132q52 2 108 29v-8
q-71 -90 -177.5 -165t-198.5 -75zM922 1096h-4q-66 0 -114 44.5t-48 109.5q0 64 45 110t112 65q-24 7 -94 7q-42 0 -76.5 -22.5t-57 -59t-37 -74.5t-21.5 -78l-27 -154h209l-23 -104h-202l-144 -872q-49 -314 -309 -451q-139 -72 -307 -109l-4 13q90 54 150.5 177t80.5 247
l160 995h-162l47 104h131l4 23q34 214 190 311q154 95 374 97q76 0 153.5 -30.5t120.5 -86.5q148 39 272 117h9l-271 -1475h-366z" />
    <glyph glyph-name="f_l" unicode="fl" horiz-adv-x="1300" 
d="M911 -27q-205 0 -145 306l156 817q-68 0 -117 43.5t-49 110.5q0 64 45 110t112 65q-24 7 -94 7q-42 0 -76.5 -22.5t-57 -59t-37 -74.5t-21.5 -78l-27 -154h209l-23 -104h-202l-144 -872q-49 -314 -309 -451q-139 -72 -307 -109l-4 13q90 54 150.5 177t80.5 247l160 995
h-162l47 104h131l4 23q34 214 190 311q154 95 374 97q76 0 153.5 -30.5t120.5 -86.5q148 39 272 117h9l-211 -1156q-17 -101 13 -123q9 -7 28 -6q38 0 123 37v-8q-55 -88 -164 -167t-228 -79z" />
    <glyph glyph-name="f_t" unicode="ft" horiz-adv-x="1406" 
d="M964 -27q-106 0 -166 70t-30 236l123 628l-232 33h-75l-144 -872q-49 -314 -309 -451q-139 -72 -307 -109l-4 13q90 54 150.5 177t80.5 247l160 995h-162l47 104h131l4 23q34 214 190 311q154 95 374 97q120 -2 197 -59q78 -59 77 -142q0 -78 -49.5 -128t-127.5 -50
q-68 0 -117.5 43.5t-49.5 110.5q0 65 45.5 111t112.5 64q-23 5 -49 7q-47 0 -84 -20.5t-61 -56t-38.5 -74t-23.5 -83.5l-27 -154h188q96 0 195 20t156 66q37 30 100 99h78l-45 -185h207l-23 -157h-209l-106 -568q-18 -101 33 -125q14 -7 36 -7q52 0 136 40v-8
q-60 -95 -170 -170.5t-212 -75.5z" />
    <glyph glyph-name="f_f_b" unicode="ffb" horiz-adv-x="2574" 
d="M907 1106h-8q-62 0 -107.5 42.5t-45.5 104.5q0 63 37.5 110t99.5 62q-23 5 -49 7q-47 0 -84 -20.5t-61 -56t-38.5 -74t-23.5 -83.5l-27 -154h295zM1823 49q142 0 239 172q98 173 98 428q0 256 -180 256q-35 0 -73 -20l-154 -813q40 -23 70 -23zM1589 1096h-4
q-66 0 -114 44.5t-48 109.5t45.5 111t112.5 64q-24 7 -95 7q-42 0 -76.5 -22.5t-57 -59t-37 -74.5t-21.5 -78l-26 -154h209l-23 -104h-203l-143 -872q-20 -128 -73.5 -225t-138 -161.5t-181 -104.5t-223.5 -69l-5 13q62 37 113 113t79 154.5t40 156.5l160 995h-295
l-144 -872q-49 -314 -309 -451q-139 -72 -307 -109l-4 13q90 54 150.5 177t80.5 247l160 995h-162l47 104h131l4 23q34 214 190 311q154 95 374 97q78 0 149 -31.5t107 -93.5q151 125 411 125q78 0 155 -30.5t120 -86.5q148 39 272 117h8l-100 -533q140 127 311 127
q134 -2 219 -109q86 -109 86 -296q-2 -190 -113 -352q-114 -167 -272 -251q-161 -86 -298 -86q-115 1 -243 22t-216 62z" />
    <glyph glyph-name="f_f_f" unicode="fff" horiz-adv-x="2017" 
d="M2227 1096q-68 0 -117.5 43.5t-49.5 110.5q0 65 45.5 111t112.5 64q-23 5 -49 7q-47 0 -84 -20.5t-61 -56t-38.5 -74t-23.5 -83.5l-27 -154h209l-22 -104h-203l-143 -872q-49 -316 -310 -451q-139 -72 -307 -109l-4 13q90 54 150.5 177t80.5 247l160 995h-295l-143 -872
q-20 -128 -73.5 -225t-138 -161.5t-181 -104.5t-223.5 -69l-5 13q62 37 113 113t79 154.5t40 156.5l160 995h-295l-144 -872q-49 -314 -309 -451q-139 -72 -307 -109l-4 13q90 54 150.5 177t80.5 247l160 995h-162l47 104h131l4 23q34 214 190 311q154 95 374 97
q76 0 149 -31.5t108 -90.5q18 15 37 25q154 95 373 97q79 0 150 -31t106 -93q76 63 187 93t225 31q120 -2 197 -59q77 -59 77 -142q0 -78 -49.5 -128t-127.5 -50zM1393 1250q0 64 45 110t112 65q-23 5 -49 7q-47 0 -84 -20.5t-61 -56t-38.5 -74t-23.5 -83.5l-26 -154h295
l4 23q1 12 5 29h-9q-75 0 -123 45t-47 109zM907 1106h-8q-62 0 -107.5 42.5t-45.5 104.5q0 63 37.5 110t99.5 62q-23 5 -49 7q-47 0 -84 -20.5t-61 -56t-38.5 -74t-23.5 -83.5l-27 -154h295l4 23q2 13 8 39z" />
    <glyph glyph-name="f_f_h" unicode="ffh" horiz-adv-x="2592" 
d="M907 1106h-8q-62 0 -107.5 42.5t-45.5 104.5q0 63 37.5 110t99.5 62q-23 5 -49 7q-47 0 -84 -20.5t-61 -56t-38.5 -74t-23.5 -83.5l-27 -154h295zM2230 -27q-105 0 -157 70t-21 236l82 413q34 178 -66 178q-87 0 -188 -137l-133 -733h-367l209 1096q-68 0 -117 43.5
t-49 110.5q0 65 45.5 111t112.5 64q-24 7 -95 7q-42 0 -76.5 -22.5t-57 -59t-37 -74.5t-21.5 -78l-26 -154h209l-23 -104h-203l-143 -872q-20 -128 -73.5 -225t-138 -161.5t-181 -104.5t-223.5 -69l-5 13q62 37 113 113t79 154.5t40 156.5l160 995h-295l-144 -872
q-49 -314 -309 -451q-139 -72 -307 -109l-4 13q90 54 150.5 177t80.5 247l160 995h-162l47 104h131l4 23q34 214 190 311q154 95 374 97q78 0 149 -31.5t107 -93.5q151 125 411 125q78 0 155 -30.5t120 -86.5q148 39 272 117h8l-121 -654q63 102 159 175t200 73
q307 0 225 -432l-59 -318q-17 -101 13 -123q9 -7 28 -6q38 0 123 37v-8q-61 -100 -157 -173t-198 -73z" />
    <glyph glyph-name="f_f_j" unicode="ffj" horiz-adv-x="1957" 
d="M907 1106h-8q-62 0 -107.5 42.5t-45.5 104.5q0 63 37.5 110t99.5 62q-23 5 -49 7q-47 0 -84 -20.5t-61 -56t-38.5 -74t-23.5 -83.5l-27 -154h295zM1550 885q0 55 -47 55h-252l-143 -872q-20 -128 -73.5 -225t-138 -161.5t-181 -104.5t-223.5 -69l-5 13q62 37 113 113
t79 154.5t40 156.5l160 995h-295l-144 -872q-49 -314 -309 -451q-139 -72 -307 -109l-4 13q90 54 150.5 177t80.5 247l160 995h-162l47 104h131l4 23q34 214 190 311q154 95 374 97q78 0 148 -30.5t108 -90.5q149 121 504 121q168 0 269 -53q101 -54 103 -138
q0 -79 -50.5 -125.5t-130.5 -46.5q-66 0 -119.5 33.5t-53.5 95.5q0 125 143 172q-44 17 -131 19q-244 0 -289 -234l-28 -154h209q61 0 147 12q78 11 107 13q169 0 172 -201q0 -52 -11 -104l-102 -563q-68 -356 -330 -503q-148 -84 -323 -128l-4 12q89 50 166 173
q79 123 106 282l137 784q8 56 8 64z" />
    <glyph glyph-name="f_f_k" unicode="ffk" horiz-adv-x="2539" 
d="M907 1106h-8q-62 0 -107.5 42.5t-45.5 104.5q0 63 37.5 110t99.5 62q-23 5 -49 7q-47 0 -84 -20.5t-61 -56t-38.5 -74t-23.5 -83.5l-27 -154h295l4 23q5 32 8 39zM1589 1096h-4q-66 0 -114 44.5t-48 109.5t45.5 111t112.5 64q-24 7 -95 7q-42 0 -76.5 -22.5t-57 -59
t-37 -74.5t-21.5 -78l-26 -154h209l-23 -104h-203l-143 -872q-20 -128 -73.5 -225t-138 -161.5t-181 -104.5t-223.5 -69l-5 13q62 37 113 113t79 154.5t40 156.5l160 995h-295l-144 -872q-49 -314 -309 -451q-139 -72 -307 -109l-4 13q90 54 150.5 177t80.5 247l160 995
h-162l47 104h131l4 23q34 214 190 311q154 95 374 97q78 0 149 -31.5t107 -93.5q151 125 411 125q78 0 155 -30.5t120 -86.5q148 39 272 117h8l-270 -1475h-367zM2186 -27q-48 1 -85.5 14t-61.5 33t-43.5 54.5t-31.5 67t-25 81.5l-81 314q254 65 403 149q-60 24 -97.5 79
t-37.5 119q0 78 63.5 131.5t142.5 53.5q82 0 139.5 -54t57.5 -136q0 -81 -55 -139t-107 -83q-55 -26 -167 -63l94 -270q47 -132 160 -132q52 2 108 29v-8q-71 -91 -177 -165.5t-199 -74.5z" />
    <glyph glyph-name=".notdef" horiz-adv-x="1345" 
d="M1260 1413v-1413h-1117v1413h1117zM1067 662q-61 0 -61 61v297h100v51h-100v119h-9q-71 -91 -151 -141l-35 -21v-8h43v-289q0 -143 127 -143q80 0 137 78l-4 8q-20 -12 -47 -12zM279 596h276v8q-43 17 -53.5 42t-12.5 79v143h64q105 0 169 46t64 147q0 178 -225 178h-282
v-8q31 -12 39 -35q9 -26 10 -80v-397q0 -63 -7 -81q-8 -21 -42 -34v-8zM522 903h-33v299h41q94 0 94 -150q0 -75 -25.5 -112.5t-76.5 -36.5z" />
    <glyph glyph-name=".null" horiz-adv-x="0" 
 />
    <glyph glyph-name="nonmarkingreturn" horiz-adv-x="682" 
 />
    <glyph glyph-name="space" unicode=" " horiz-adv-x="430" 
 />
    <glyph glyph-name="exclam" unicode="!" horiz-adv-x="612" 
d="M465 179q1 -85 -63 -144t-150 -59q-87 0 -148.5 58t-62.5 145q0 86 62 145t149 61q87 -2 150.5 -61t62.5 -145zM315 455h-26q4 55 4 135q0 72 -38 268t-38 306q-1 112 63 195q65 83 189 83q81 0 132.5 -55t51.5 -137q0 -84 -42.5 -187.5t-100.5 -184.5
q-67 -96 -120.5 -209t-74.5 -214z" />
    <glyph glyph-name="quotedbl" unicode="&#x22;" horiz-adv-x="917" 
d="M285 807h-25q2 22 2 81q0 63 -38 198t-38 193q0 64 52 111.5t116 47.5q65 0 112.5 -47.5t47.5 -112.5q0 -63 -46 -133q-14 -21 -48.5 -74t-55.5 -85q-58 -87 -79 -179zM735 807h-24q2 22 2 81q0 63 -38 198t-38 193q0 64 51 111.5t116 47.5q66 0 113.5 -47t47.5 -113
q0 -63 -46 -133q-47 -71 -105 -159q-60 -91 -79 -179z" />
    <glyph glyph-name="numbersign" unicode="#" 
d="M453 567h340l98 279h-340zM852 479l-168 -479h-88l168 479h-340l-168 -479h-88l168 479h-213l14 88h228l98 279h-277l17 88h293l168 479h88l-168 -479h340l168 479h88l-168 -479h215l-17 -88h-231l-98 -279h280l-14 -88h-295z" />
    <glyph glyph-name="dollar" unicode="$" 
d="M836 256q0 96 -166 229l-78 -454q101 6 172.5 66.5t71.5 158.5zM731 1360h-6q-100 0 -171 -56.5t-71 -153.5q0 -96 172 -228zM1077 1297q109 -99 109 -191q0 -84 -47.5 -136t-130.5 -52q-74 0 -122 40t-48 112q0 70 52.5 118.5t125.5 62.5q-94 70 -197 97l-84 -486
q245 -168 303 -252q82 -108 80 -211q0 -197 -154 -315q-153 -117 -356 -119h-28l-23 -139h-92l24 147q-191 27 -300 126t-109 193q0 89 52 146.5t140 57.5q79 0 134.5 -51.5t56.5 -130.5q0 -68 -43 -124.5t-109 -87.5q102 -53 191 -65l88 510q-199 150 -262 217
q-121 130 -121 262q0 75 27.5 141t75 113t109 81t131 50.5t140.5 15.5l55 -2l21 119h88l-20 -123h-46q180 -26 289 -124z" />
    <glyph glyph-name="percent" unicode="%" horiz-adv-x="1722" 
d="M1405 731q-44 1 -87.5 -48t-87.5 -147q-88 -195 -88 -330q0 -134 67 -134q51 0 102.5 57t86.5 136.5t57 161t22 133.5q0 170 -72 171zM1125 -25q-122 0 -191.5 71.5t-69.5 193.5q0 207 161 389t351 182q104 0 159.5 -68.5t57.5 -175.5q0 -127 -65.5 -259t-164.5 -225
q-114 -108 -238 -108zM460 836q0 -134 67 -134q39 0 79 33.5t70.5 83.5t51.5 97t33 86q36 114 36 192q0 168 -72 168q-88 0 -176 -196q-89 -198 -89 -330zM1317 1315l-6 4q-157 -94 -267 -94q-65 0 -137 32l2 -28q0 -233 -174 -455q-134 -170 -291 -170q-120 0 -190 74.5
t-70 195.5q0 198 159 382t345 186q114 0 182 -71t195 -71q202 0 414 199h82l-1272 -1595h-99z" />
    <glyph glyph-name="ampersand" unicode="&#x26;" horiz-adv-x="1591" 
d="M1141 1208q0 32 -5.5 59.5t-17.5 53.5t-36 41.5t-58 15.5q-88 0 -158 -93q-70 -92 -70 -201q0 -110 52 -242q143 66 218 174t75 192zM549 702q-190 -78 -191 -262q0 -142 100 -249q101 -108 255 -107q112 0 190 22q-188 225 -354 596zM1489 8v-8h-490q-56 56 -77 82
q-220 -113 -424 -113q-204 -1 -336 97q-131 98 -131 245q0 148 82 234q37 38 86.5 69t113.5 56t108 39t114 34q-39 127 -39 237q0 105 51 200t139 152q172 110 361 110q135 0 226 -73t91 -179q0 -150 -172 -250q-141 -81 -330 -137q103 -249 324 -512q102 133 102 313
q0 118 -94 203l2 8q71 49 162 49q85 0 140.5 -51t55.5 -135q0 -199 -335 -426q164 -189 270 -244z" />
    <glyph glyph-name="quotesingle" unicode="'" horiz-adv-x="466" 
d="M289 807h-25q2 22 2 81q0 63 -38 198t-38 193q0 64 52 111.5t116 47.5q65 0 112.5 -47.5t47.5 -112.5q0 -63 -46 -133q-14 -21 -48.5 -74t-55.5 -85q-58 -87 -79 -179z" />
    <glyph glyph-name="parenleft" unicode="(" horiz-adv-x="753" 
d="M143 532q-1 138 61 284q61 144 150.5 253.5t229.5 233.5q141 124 342 245h8q-216 -294 -332 -588q-117 -296 -117 -671q0 -272 125 -576h-8q-69 50 -142 126q-317 326 -317 693z" />
    <glyph glyph-name="parenright" unicode=")" horiz-adv-x="753" 
d="M299 954q0 270 -123 594h8q136 -102 283 -301q82 -112 131 -250.5t49 -271.5q0 -134 -57 -274t-148 -254q-213 -263 -579 -484h-8q163 216 262.5 421t140.5 444q41 235 41 376z" />
    <glyph glyph-name="asterisk" unicode="*" horiz-adv-x="808" 
d="M512 1030l264 -178l-213 -154l-100 297l-103 -297l-210 152l266 180l-328 19l86 241l262 -203l-96 326h258l-106 -326l268 203l80 -241z" />
    <glyph glyph-name="plus" unicode="+" 
d="M1155 651l-27 -147h-417l-74 -418h-148l74 418h-416l27 147h416l72 416h147l-72 -416h418z" />
    <glyph glyph-name="comma" unicode="," horiz-adv-x="546" 
d="M145 43q0 33 -28 88q-29 56 -29 109q0 54 49 103q49 48 123 48q79 0 133.5 -57.5t54.5 -136.5q0 -45 -24.5 -95t-64.5 -95t-79.5 -80.5t-79.5 -64.5q-86 -61 -184 -116l-8 6q137 157 137 291z" />
    <glyph glyph-name="hyphen" unicode="-" horiz-adv-x="567" 
d="M557 696l-39 -231h-485l39 231h485z" />
    <glyph glyph-name="period" unicode="." horiz-adv-x="546" 
d="M473 179q0 -86 -61.5 -144.5t-147.5 -58.5q-87 0 -146.5 58.5t-59.5 145.5q0 86 60 146t146 59q87 0 148 -59.5t61 -146.5z" />
    <glyph glyph-name="slash" unicode="/" horiz-adv-x="823" 
d="M987 1413l-932 -1413h-139l932 1413h139z" />
    <glyph glyph-name="zero" unicode="0" 
d="M571 -31q-125 -1 -217 55q-128 79 -190 240t-62 334q0 168 87 358q132 288 347 415q121 71 242 71q114 0 207 -50t153 -146q115 -180 113 -400q0 -169 -83 -359q-134 -308 -345 -440q-125 -78 -252 -78zM553 27q63 0 120 95.5t94 236.5t65 301.5t40.5 290.5t12.5 204
q0 229 -90 229q-163 0 -287 -690q-49 -269 -49 -444q0 -223 94 -223z" />
    <glyph glyph-name="one" unicode="1" 
d="M909 8v-8h-669v8q52 22 86 47t54.5 62t31 72.5t22.5 97.5l141 800q-135 -36 -272 -47l-2 19q148 34 348.5 147t358.5 232h8l-203 -1151q-25 -108 -7 -172t103 -107z" />
    <glyph glyph-name="two" unicode="2" 
d="M852 1098q0 105 -51.5 173t-153.5 68q-57 0 -123 -20.5t-100 -56.5v-7q93 -11 154 -69q62 -59 61 -146q1 -87 -62 -145.5t-150 -58.5q-86 0 -144 58t-60 144q0 149 170 277q169 127 367 127q85 0 166 -20t152.5 -60t115.5 -110t45 -160q0 -65 -27 -127.5t-64.5 -108.5
t-99 -95t-106.5 -78t-112 -68q-112 -65 -201 -121q-104 -64 -152 -115l-59 -62h698l-110 -317h-963l8 55l496 502q305 308 305 541z" />
    <glyph glyph-name="three" unicode="3" 
d="M338 23q158 -2 295 117t137 304q0 129 -75.5 201t-205.5 72l-45 -2l-10 24l385 385h-534l51 289h905l-2 -8l-469 -453q167 -37 271.5 -153t105.5 -283q0 -154 -92 -270.5t-243 -184.5q-198 -89 -390 -91q-191 -2 -296 66q-104 67 -106 177q0 83 59 141t142 58
q81 0 135.5 -52.5t55.5 -132.5q0 -111 -133 -190v-6q30 -8 59 -8z" />
    <glyph glyph-name="four" unicode="4" 
d="M1094 8v-8h-660v8q100 42 136 100q37 60 59 179l14 82h-586l2 8l787 1036h350l-152 -858h140l-33 -186h-139l-15 -82q-14 -82 -14 -127q0 -96 111 -152zM309 555h367l115 643z" />
    <glyph glyph-name="five" unicode="5" 
d="M381 12q143 0 263 126t120 319q0 122 -66.5 194t-187.5 72q-109 0 -240 -86l-37 18l234 758h737l-51 -289h-700l-127 -403h10q173 160 393 160q179 2 294.5 -103t115.5 -282q0 -99 -38.5 -183t-106 -144t-149 -101t-177.5 -67q-123 -32 -268 -32t-249 68
q-103 67 -103 165t64 153q66 57 146 57q77 0 130.5 -52t53.5 -129q0 -68 -40 -121t-105 -83v-7q43 -8 84 -8z" />
    <glyph glyph-name="six" unicode="6" 
d="M467 367q0 -173 33 -259t100 -85q66 -2 116 81q95 155 95 381q0 144 -58 227q-59 84 -147 83q-24 -1 -74 -9q-65 -240 -65 -419zM811 901q167 0 276.5 -104t108.5 -271q0 -95 -41 -194q-71 -171 -217.5 -267t-331.5 -96q-162 0 -278 73.5t-172 197.5t-56 284
q0 159 63 307t178 258q333 312 853 353l-2 -17q-110 -11 -214 -65.5t-184.5 -137.5t-142 -180t-100.5 -202q129 61 260 61z" />
    <glyph glyph-name="seven" unicode="7" 
d="M274 1413h1010v-8q-115 -149 -223.5 -314.5t-209.5 -350t-176.5 -377.5t-107.5 -363h-358q49 139 156 299.5t226 293.5q336 372 427 511h-797z" />
    <glyph glyph-name="eight" unicode="8" 
d="M940 1171q0 90 -48.5 145.5t-136.5 55.5q-94 0 -150 -65.5t-56 -161.5q0 -199 233 -297l11 -4q147 166 147 327zM346 287q0 -111 60.5 -180t169.5 -70q111 0 183 86t70 199q2 176 -286 313q-197 -152 -197 -348zM553 -31q-195 0 -351 90q-157 90 -155 254q0 164 149 244
q137 75 304 102v5q-302 152 -300 396q0 120 90 212q164 170 474 170q217 0 356 -91q140 -92 140 -215q0 -59 -31 -108.5t-76.5 -81.5t-108.5 -56t-116 -36t-109 -20v-5q68 -33 127.5 -72.5t115 -92.5t88 -120.5t32.5 -139.5q0 -70 -30.5 -134t-81 -112.5t-111 -84
t-126.5 -57.5q-136 -45 -280 -47z" />
    <glyph glyph-name="nine" unicode="9" 
d="M879 1088q0 34 -2 66t-10 77t-21.5 77t-39.5 55t-62 23q-72 0 -135 -112q-93 -170 -93 -365q0 -49 10 -96t31 -91t60.5 -70.5t92.5 -26.5q42 0 93 24q76 203 76 439zM133 891q0 230 214 408q172 143 401 143q233 0 365 -147.5t132 -383.5q0 -239 -154 -460
q-77 -109 -188 -197t-238.5 -145.5t-262 -92.5t-271.5 -47l4 31q111 11 215.5 66.5t185.5 140t143 182t103 203.5q-157 -62 -302 -62q-153 0 -249 103t-98 258z" />
    <glyph glyph-name="colon" unicode=":" horiz-adv-x="546" 
d="M545 863q1 -85 -61 -144t-148 -59q-88 0 -146.5 58t-60.5 146q0 87 60 146t147 59q87 -2 148 -61q62 -61 61 -145zM213 385q86 -2 147.5 -61.5t61.5 -144.5t-61.5 -144t-147.5 -59q-87 0 -147 58.5t-60 145.5q0 86 60 146t147 59z" />
    <glyph glyph-name="semicolon" unicode=";" horiz-adv-x="546" 
d="M535 863q1 -85 -61 -144t-148 -59q-88 0 -146.5 58t-60.5 146q0 87 60 146t147 59q87 -2 148 -61q62 -61 61 -145zM84 43q0 32 -29 88t-29 109t50 103q50 48 123 48q79 0 133.5 -57.5t54.5 -136.5q0 -44 -25 -94.5t-65 -95.5t-79.5 -80.5t-79.5 -64.5q-83 -60 -183 -116
l-8 6q137 157 137 291z" />
    <glyph glyph-name="less" unicode="&#x3c;" 
d="M1096 322l-29 -164l-924 323l35 197l1039 323l-33 -176l-867 -252z" />
    <glyph glyph-name="equal" unicode="=" 
d="M1118 446l-26 -147h-981l26 147h981zM1190 856l-25 -147h-981l25 147h981z" />
    <glyph glyph-name="greater" unicode="&#x3e;" 
d="M1159 678l-35 -197l-1038 -323l33 176l864 252l-776 252l29 163z" />
    <glyph glyph-name="question" unicode="?" horiz-adv-x="976" 
d="M602 179q0 -86 -61 -144.5t-147 -58.5q-88 0 -148 58.5t-60 145.5q0 86 60 146t147 59q87 0 148 -59.5t61 -146.5zM622 985q44 100 44 193q0 85 -47.5 139.5t-131.5 54.5q-124 0 -204 -59v-8q88 -2 150.5 -53t62.5 -137q0 -80 -54.5 -132.5t-134.5 -52.5
q-79 0 -133.5 51.5t-54.5 130.5q0 142 144 236q143 94 334 94q77 0 147 -16.5t131.5 -51t98 -96t36.5 -143.5q0 -78 -34.5 -149t-96.5 -120q-84 -66 -254 -179q-149 -99 -168 -232h-29q27 164 88 297q12 26 50.5 110.5t55.5 122.5z" />
    <glyph glyph-name="at" unicode="@" horiz-adv-x="1656" 
d="M721 382q0 -165 86 -165q55 0 94 33q4 23 8 43l119 588q-45 27 -72 27q-28 0 -57 -25t-53.5 -65.5t-39 -69.5t-27.5 -60q-58 -141 -58 -306zM707 -229q-137 0 -259.5 45t-213 125t-143.5 198t-52 258q0 229 135.5 424t348.5 303q211 107 440 109q288 0 481 -169
q194 -170 194 -412q0 -244 -175 -428q-176 -185 -396 -185q-87 0 -124.5 40t-41.5 128h-6q-96 -170 -242 -170q-103 0 -174 78t-69 225q0 237 166 428t372 193q46 -2 124 -13q82 -12 126 -12t115 25h16l-135 -730q-6 -35 -6 -57q0 -51 33 -51q43 0 98 76q64 86 101.5 216
t37.5 244q0 231 -135 371t-343 141t-375 -125q-168 -127 -254.5 -314.5t-86.5 -404.5q0 -136 52 -249t156 -183.5t242 -70.5q200 0 339 63l32 -26q-161 -90 -378 -90z" />
    <glyph glyph-name="A" unicode="A" horiz-adv-x="1638" 
d="M524 610h424l-98 637h-4zM1536 8v-8h-694v8q87 17 121 54q67 71 8 403l-10 57h-480q-150 -298 -149 -399q0 -57 36 -80.5t103 -34.5v-8h-547v8q82 17 130 52q106 76 329 503l446 850h336l170 -948q63 -357 123 -418q27 -27 78 -39z" />
    <glyph glyph-name="B" unicode="B" horiz-adv-x="1386" 
d="M623 764h32q139 0 231.5 95.5t92.5 234.5q0 125 -51 187.5t-152 61.5h-51zM502 72h39q141 0 242 100.5t101 241.5q0 124 -57.5 201t-177.5 77h-39zM539 0h-594v8q52 22 86 47t54.5 62t31 72.5t22.5 97.5l150 848q12 69 12 119q0 54 -28 87.5t-83 63.5l3 8h626
q557 0 557 -295q0 -156 -128 -242t-306 -114l-2 -10q93 -8 175 -46.5t138.5 -112.5t55.5 -169q0 -129 -72.5 -215t-200.5 -130q-230 -79 -497 -79z" />
    <glyph glyph-name="C" unicode="C" horiz-adv-x="1472" 
d="M1380 430l-100 -369q-198 -92 -415 -92q-446 0 -658 291q-107 148 -107 362q0 223 140 415.5t351 296.5q221 108 469 108q247 0 433 -86l-47 -346h-8q-30 76 -62.5 133.5t-80 111t-111.5 82.5t-142 29q-135 0 -239.5 -82.5t-164.5 -214.5q-122 -270 -122 -516
q0 -248 88 -378t230 -130q251 0 534 385h12z" />
    <glyph glyph-name="D" unicode="D" horiz-adv-x="1628" 
d="M666 0h-721v8q52 22 86 47t54.5 62t31 72.5t22.5 97.5l150 848q12 69 12 119q0 54 -28 87.5t-83 63.5l3 8h659q121 0 228 -20.5t202 -66.5t163.5 -115t108.5 -171.5t39 -230.5q-1 -149 -52.5 -280t-140.5 -226.5t-206 -164.5t-252 -103.5t-276 -34.5zM483 76h148
q108 0 203 46t164 130q198 244 198 596q0 101 -22.5 186.5t-68 154.5t-124.5 108.5t-184 39.5h-90z" />
    <glyph glyph-name="E" unicode="E" horiz-adv-x="1277" 
d="M1065 0h-1120v8q52 22 86 47t54.5 62t31 72.5t22.5 97.5l150 848q25 109 7 168t-106 102l3 8h1060l-67 -389h-15q-71 190 -132 252q-61 61 -197 61h-135l-103 -573h94q125 0 204.5 39.5t162.5 138.5h14l-75 -424h-15q-48 99 -116.5 134.5t-186.5 35.5h-94l-109 -612h146
q134 0 248 90q72 56 288 258h15z" />
    <glyph glyph-name="F" unicode="F" horiz-adv-x="1230" 
d="M657 8v-8h-712v8q52 22 86 47t54.5 62t31 72.5t22.5 97.5l150 848q25 109 7 168t-106 102l3 8h1101l-67 -389h-15q-10 20 -20 40.5t-16 33t-8 17.5q-10 19 -36 69q-26 51 -38 61q-21 21 -38 39q-26 27 -48 33q-77 20 -125 20h-176l-105 -594h135q129 0 205.5 38
t159.5 141h14l-76 -424h-14q-52 102 -117 136t-186 34h-135l-68 -381q-20 -117 8 -174q28 -59 129 -105z" />
    <glyph glyph-name="G" unicode="G" horiz-adv-x="1589" 
d="M795 -31q-282 0 -479 170t-195 455q0 185 88 350.5t241 275.5q145 104 312.5 162.5t339.5 59.5q283 0 463 -86l-49 -346h-9q-176 356 -415 356q-240 0 -404 -245t-164 -625q0 -93 18.5 -169t59 -137t111 -95t166.5 -34q82 0 137 13l63 358q6 38 6 70q0 98 -102 155l2 9
h612l-2 -9q-37 -18 -60.5 -33.5t-39 -30.5t-25.5 -40.5t-15 -48t-13 -68.5l-66 -375q-342 -92 -581 -92z" />
    <glyph glyph-name="H" unicode="H" horiz-adv-x="1642" 
d="M1530 8v-8h-672v8q100 42 136 100q37 60 59 179l69 391h-532l-70 -391q-26 -110 -8 -172q18 -63 104 -107v-8h-671v8q52 22 86 47t54.5 62t31 72.5t22.5 97.5l150 848q25 109 7 168t-106 102l3 8h671l-2 -8q-100 -43 -136.5 -98.5t-55.5 -171.5l-64 -365h533l63 365
q24 109 6 168q-18 58 -104 102l2 8h672l-2 -8q-100 -44 -136 -98.5t-57 -171.5l-149 -848q-25 -107 -8 -172q17 -63 104 -107z" />
    <glyph glyph-name="I" unicode="I" horiz-adv-x="729" 
d="M616 8v-8h-671v8q100 43 136.5 98.5t55.5 172.5l152 856q25 109 7 168t-106 102l3 8h671l-2 -8q-100 -43 -136.5 -98.5t-55.5 -171.5l-152 -856q-24 -109 -6 -168t104 -103z" />
    <glyph glyph-name="J" unicode="J" horiz-adv-x="770" 
d="M-156 -428l-6 6q99 49 162.5 169t87.5 251l201 1137q25 109 7 168t-106 102l3 8h671l-2 -8q-100 -43 -136.5 -98.5t-55.5 -171.5l-172 -975q-80 -441 -654 -588z" />
    <glyph glyph-name="K" unicode="K" horiz-adv-x="1593" 
d="M1507 8v-8h-741v8q80 34 113 64q35 32 34 86q0 54 -30 131l-150 379l-174 -160l-41 -229q-14 -82 -14 -124q0 -86 112 -147v-8h-671v8q100 43 136.5 98.5t55.5 172.5l152 856q12 67 12 117q0 55 -28 90t-83 63l3 8h671l-2 -8q-100 -43 -136.5 -98.5t-55.5 -171.5
l-92 -521l458 453q129 125 129 211q0 87 -139 127l2 8h670l-2 -8q-150 -52 -254 -121t-250 -199l-188 -172l301 -661q37 -87 81.5 -141t120.5 -103z" />
    <glyph glyph-name="L" unicode="L" horiz-adv-x="1187" 
d="M1024 0h-1079v8q100 43 136.5 98.5t55.5 172.5l152 856q25 109 7 168t-106 102l3 8h671l-2 -8q-100 -43 -136.5 -98.5t-55.5 -171.5l-187 -1059h84q163 0 266 81t291 267h15z" />
    <glyph glyph-name="M" unicode="M" horiz-adv-x="2082" 
d="M1964 8v-8h-707l3 10q115 48 152 106q38 60 56 224l84 766l-641 -1106h-174l-250 1145l-153 -645q-62 -240 -48 -339q14 -100 122 -153v-8h-490v8q133 54 186 146q54 94 115 344l117 481q50 209 33 283q-17 75 -125 143v8h577l217 -989l570 989h528v-8
q-114 -56 -155 -102q-39 -44 -50 -146l-86 -819q-19 -168 3 -226t116 -104z" />
    <glyph glyph-name="N" unicode="N" horiz-adv-x="1701" 
d="M442 8v-8h-493v8q115 49 171 142t101 342l113 643q18 106 -12 164q-32 59 -125 106l2 8h510l655 -936l80 453q45 256 15 348q-16 49 -42.5 75.5t-77.5 51.5l2 8h494l-2 -8q-76 -34 -121 -74q-91 -82 -147 -401l-164 -930h-156l-792 1126l-111 -634q-46 -257 -17 -352
q14 -50 40.5 -78.5t76.5 -53.5z" />
    <glyph glyph-name="O" unicode="O" horiz-adv-x="1724" 
d="M772 -31q-277 0 -483 175q-207 175 -207 458q0 139 53 273.5t147 239.5q151 169 335 247q189 80 369 80q110 0 214 -28.5t191 -84t152 -131.5t101.5 -176.5t36.5 -212.5q0 -244 -152.5 -452.5t-383.5 -308.5q-185 -79 -373 -79zM766 45q87 0 163.5 44t130 117.5t95.5 165
t67 191.5t37.5 192t12.5 171q0 60 -6.5 116t-25.5 117t-48.5 105t-81 73t-117.5 29q-86 0 -160.5 -44.5t-125.5 -111.5t-92 -156.5t-64 -169.5t-37 -159q-23 -134 -22 -238q0 -49 4.5 -95.5t15.5 -98.5t31.5 -95t49.5 -78.5t73.5 -55t99.5 -19.5z" />
    <glyph glyph-name="P" unicode="P" horiz-adv-x="1366" 
d="M588 666h96q80 0 144 40t102 104.5t58 138.5t22 149q0 117 -60 178t-176 61h-67zM657 8v-8h-712v8q52 22 86 47t54.5 62t31 72.5t22.5 97.5l150 848q12 67 12 117q0 55 -28 90t-83 63l3 8h671q55 0 102.5 -3t102.5 -12t99.5 -24t87.5 -40.5t71.5 -60t46 -84t17.5 -110.5
q0 -95 -24 -171t-69.5 -129t-103.5 -91t-133 -59.5t-151.5 -31t-164.5 -9.5h-172l-53 -301q-10 -54 -10 -107q0 -108 147 -172z" />
    <glyph glyph-name="Q" unicode="Q" horiz-adv-x="1724" 
d="M766 45q87 0 163.5 44t130 117.5t95.5 165t67 191.5t37.5 192t12.5 171q0 60 -6.5 116t-25.5 117t-48.5 105t-81 73t-117.5 29q-86 0 -160.5 -44.5t-125.5 -111.5t-92 -156.5t-64 -169.5t-37 -159q-23 -134 -22 -238q0 -49 4.5 -95.5t15.5 -98.5t31.5 -95t49.5 -78.5
t73.5 -55t99.5 -19.5zM1036 10q636 -243 1050 -243q191 0 339 53l-8 -45q-55 -85 -148 -160.5t-187 -112.5q-84 -34 -181 -34q-334 0 -875 370l-197 133l-57 -2q-277 0 -483 175q-207 175 -207 458q0 139 53 273.5t147 239.5q151 169 335 247q189 80 369 80q110 0 214 -28.5
t191 -84t152 -131.5t101.5 -176.5t36.5 -212.5q0 -142 -50.5 -272.5t-138.5 -232t-204.5 -177t-251.5 -117.5z" />
    <glyph glyph-name="R" unicode="R" horiz-adv-x="1449" 
d="M592 686h63q121 0 215 81q64 55 96.5 138t32.5 174q0 106 -53.5 182t-154.5 76h-84zM1384 8v-8h-356q-110 0 -142 30t-93 183l-162 405h-51l-60 -331q-14 -81 -14 -126q0 -97 110 -153v-8h-671v8q52 22 86 47t54.5 62t31 72.5t22.5 97.5l150 848q14 82 14 123
q0 51 -29.5 84.5t-83.5 62.5l3 8h630q567 0 570 -344q-1 -109 -45 -174t-80 -95q-80 -68 -295 -134l262 -480q52 -96 82 -132q33 -39 67 -46z" />
    <glyph glyph-name="S" unicode="S" horiz-adv-x="1171" 
d="M748 1366q-87 0 -155.5 -54.5t-68.5 -139.5t58 -150q60 -66 143 -120q70 -46 168 -118q89 -66 144.5 -158t56.5 -196q0 -200 -169 -330q-170 -131 -425 -131q-110 0 -260 25.5t-222 68.5l72 404h10q96 -206 190 -313q97 -110 208 -109q114 -1 186 63t72 140
q0 136 -148 245q-177 130 -255 199q-167 147 -167 333q0 185 168 301q169 116 404 116q95 0 213.5 -22t197.5 -58l-63 -354h-8q-156 358 -350 358z" />
    <glyph glyph-name="T" unicode="T" horiz-adv-x="1413" 
d="M963 8v-8h-680v8q52 22 86 47t54.5 62t31 72.5t22.5 97.5l187 1056h-35q-118 0 -204 -61q-88 -62 -282 -268h-10l94 399h1286l-45 -399h-10q-122 213 -178 270q-57 59 -172 59h-55l-187 -1056q-26 -110 -8 -172q18 -64 105 -107z" />
    <glyph glyph-name="U" unicode="U" horiz-adv-x="1634" 
d="M160 397l129 738q14 82 14 123q0 51 -29.5 84.5t-83.5 62.5l3 8h671l-2 -8q-100 -43 -136.5 -98.5t-55.5 -171.5l-135 -766q-3 -13 -5 -52q0 -50 18.5 -90t48.5 -64.5t71 -41t83.5 -23t88.5 -6.5q357 0 413 311l95 527q43 261 3 358q-23 51 -47 69q-26 19 -81 48l2 8h524
l-2 -8q-96 -42 -134 -76t-79 -123q-44 -96 -76 -276l-94 -533q-22 -121 -75.5 -206t-135.5 -132.5t-178 -68t-219 -20.5q-55 0 -107 3.5t-114 14t-114.5 26.5t-103.5 44t-86 64t-56.5 88.5t-20.5 115.5q0 35 6 71z" />
    <glyph glyph-name="V" unicode="V" horiz-adv-x="1556" 
d="M1266 850l-426 -850h-318l-149 948q-57 356 -122 419q-29 26 -81 38l2 8h664l-2 -8q-48 -11 -72 -30.5t-40 -63.5q-30 -83 5 -363l98 -762h4l330 676q82 168 121 276q64 182 -15 234q-31 19 -104 33l2 8h541l-2 -8q-80 -17 -125 -52q-101 -77 -311 -503z" />
    <glyph glyph-name="W" unicode="W" horiz-adv-x="2326" 
d="M2015 850l-426 -850h-315l-94 928l-465 -928h-312l-108 1067q-18 190 -46 256q-29 69 -95 82l2 8h624l-2 -8q-84 -9 -112 -67q-28 -57 -17 -214l64 -929l329 667q254 516 -38 543l2 8h645l-2 -8q-84 -9 -112 -67q-28 -57 -17 -214l63 -929l330 667q253 516 -39 543l2 8
h618l-2 -8q-214 -27 -477 -555z" />
    <glyph glyph-name="X" unicode="X" horiz-adv-x="1599" 
d="M1528 8v-8h-746v8q164 59 164 156q0 30 -24 80l-181 344l-223 -250q-113 -129 -112 -195q0 -23 11 -44t33.5 -39t37.5 -27.5t42 -24.5v-8h-610v8q212 95 361 244l417 418l-245 467q-108 205 -230 268l2 8h756l-2 -8q-85 -37 -126 -72q-40 -34 -40 -80q0 -45 39 -123
l131 -251l217 256q76 88 76 148t-113 122l2 8h568l-2 -8q-214 -96 -359 -244l-348 -358l291 -553q47 -91 94 -148.5t119 -93.5z" />
    <glyph glyph-name="Y" unicode="Y" horiz-adv-x="1441" 
d="M961 8v-8h-672v8q52 22 86 47t54.5 62t31 72.5t22.5 97.5l60 340l-154 424q-25 70 -42 109.5t-44 87.5t-63 85t-86 72l2 8h727l-2 -8q-140 -57 -152 -98q-23 -76 -8 -132q11 -45 37 -124l114 -336l213 334q122 193 94 263q-16 40 -48.5 59t-86.5 34l3 8h559l-2 -8
q-107 -38 -188 -110q-75 -66 -206 -253l-286 -415l-60 -340q-26 -110 -8 -172q18 -64 105 -107z" />
    <glyph glyph-name="Z" unicode="Z" horiz-adv-x="1261" 
d="M1100 0h-1143v8l950 1329h-200q-120 0 -221 -62q-99 -60 -312 -251h-8l108 389h1094l-2 -8l-938 -1329h199q103 0 158 15q123 33 429 339h11z" />
    <glyph glyph-name="bracketleft" unicode="[" horiz-adv-x="747" 
d="M530 -219l-12 -68h-538l323 1835h539l-13 -67h-176l-299 -1700h176z" />
    <glyph glyph-name="backslash" unicode="\" horiz-adv-x="823" 
d="M246 1413l452 -1413h-123l-452 1413h123z" />
    <glyph glyph-name="bracketright" unicode="]" horiz-adv-x="747" 
d="M739 1548l-323 -1835h-539l12 68h177l299 1700h-177l13 67h538z" />
    <glyph glyph-name="asciicircum" unicode="^" horiz-adv-x="874" 
d="M657 1413l125 -485h-34l-199 270l-295 -270h-47l293 485h157z" />
    <glyph glyph-name="underscore" unicode="_" horiz-adv-x="913" 
d="M737 -168l-26 -147h-791l27 147h790z" />
    <glyph glyph-name="grave" unicode="`" horiz-adv-x="542" 
d="M623 1163h-23q-137 44 -227.5 98t-161.5 152h299q20 -133 113 -250z" />
    <glyph glyph-name="a" unicode="a" horiz-adv-x="1177" 
d="M655 279l144 696q-49 31 -82 31q-34 0 -69 -29t-63.5 -76.5t-46 -83t-32.5 -72.5q-66 -167 -66 -376q0 -180 109 -181q53 0 98 39q5 39 8 52zM821 -23q-72 -1 -120 47q-49 49 -50 154h-6q-111 -203 -276 -203q-124 -1 -209 91q-84 92 -84 260q0 290 193 516
q194 227 438 227q41 0 141 -14q96 -15 147 -15q49 0 138 29h20l-129 -750q-6 -41 -6 -67q0 -64 45 -64t125 39v-8q-60 -93 -154 -167q-96 -75 -213 -75z" />
    <glyph glyph-name="b" unicode="b" horiz-adv-x="1224" 
d="M473 49q141 0 240 172q98 173 98 428q0 256 -180 256q-36 0 -74 -20l-154 -813q40 -23 70 -23zM41 59l197 1037q12 62 12 118q0 62 -35 97t-102 63v8q105 7 289 37q172 28 257 56h9l-107 -547h4q159 141 303 141q83 -1 145.5 -35.5t99 -92.5t54 -128t17.5 -149
q0 -182 -109.5 -348t-276.5 -255q-161 -86 -298 -86q-115 1 -243 22t-216 62z" />
    <glyph glyph-name="c" unicode="c" horiz-adv-x="948" 
d="M707 1069q122 0 183 -59q60 -58 60 -136t-49 -135t-126 -57q-69 0 -122 46t-53 114q0 58 35.5 109.5t89.5 80.5h-20q-125 -20 -212 -186t-87 -375q0 -69 18 -127t65.5 -99.5t118.5 -41.5q135 0 252 139l14 -10q-151 -355 -454 -357q-175 0 -272 112t-99 290
q0 270 214 481t444 211z" />
    <glyph glyph-name="d" unicode="d" horiz-adv-x="1226" 
d="M719 1004q-86 0 -182 -195q-95 -194 -97 -440q0 -180 109 -181q71 2 129 54l133 719q-50 43 -92 43zM829 -27q-71 -2 -113 57q-42 58 -36 177h-4q-127 -231 -307 -232q-124 -1 -209 91q-84 92 -84 260q0 291 196 517t455 226q48 0 102 -10l9 37q14 61 14 116
q0 62 -35.5 98t-103.5 64v8q105 7 289 37q171 28 258 56h8l-211 -1153q-8 -56 -8 -72q0 -62 46 -62q47 0 126 39v-8q-55 -88 -164 -167t-228 -79z" />
    <glyph glyph-name="e" unicode="e" horiz-adv-x="1011" 
d="M624 655q81 105 81 227t-70 122q-86 0 -153 -136q-69 -139 -76 -348q137 29 218 135zM698 1069q59 0 109.5 -10.5t96 -34t72 -68t25.5 -106.5q0 -133 -142 -236q-143 -104 -453 -135q0 -139 66 -208q60 -61 142 -67q8 -1 25 -1q166 0 283 139l14 -10q-200 -356 -500 -357
q-179 0 -282.5 113t-103.5 294t97 341q89 146 240 246t311 100z" />
    <glyph glyph-name="f" unicode="f" horiz-adv-x="681" 
d="M1069 1274q0 -78 -49.5 -128t-127.5 -50q-68 0 -117.5 43t-49.5 110q0 64 46 110t112 62v4q-23 5 -49 7q-47 0 -84 -20.5t-61 -56t-38.5 -74t-23.5 -83.5l-27 -154h209l-23 -104h-202l-133 -811q-14 -98 -58 -191.5t-112 -159.5q-144 -141 -447 -208l-4 12
q90 54 150.5 177t80.5 247l150 934h-162l47 104h131l4 23q34 214 190 311q154 95 374 97q120 -2 197 -59q78 -59 77 -142z" />
    <glyph glyph-name="g" unicode="g" horiz-adv-x="1003" 
d="M442 848q-43 -148 -43 -300q0 -151 71 -149q43 0 76 56.5t48 138t22 147.5t7 109q0 75 -17.5 112.5t-52.5 36.5q-68 -2 -111 -151zM678 -240q0 60 -54 95t-175 69l-240 70q-63 -58 -63 -154q0 -67 48 -119.5t113.5 -76.5t130.5 -24q36 0 74 6.5t77 21t64 43.5t25 69z
M340 -430q-62 0 -141.5 12.5t-167 38.5t-146.5 77.5t-59 119.5q0 52 36 91t93.5 59t108 29.5t100.5 12.5v4q-94 49 -94 132q0 85 62.5 144t150.5 75v4q-207 94 -207 290q0 167 143 289q142 121 356 121q91 0 168 -31h33q63 0 133.5 44t104.5 100q131 -39 131 -138
q0 -50 -32.5 -82t-82.5 -32q-98 0 -190 53l-4 -6q58 -53 87 -105t27 -129q0 -191 -154 -300q-156 -110 -345 -109q-71 0 -132 18q-33 -30 -11 -60q23 -30 91 -48l230 -60q187 -50 254 -114t67 -166t-88 -183q-66 -61 -159 -96.5t-175 -45t-188 -9.5z" />
    <glyph glyph-name="h" unicode="h" horiz-adv-x="1243" 
d="M868 -27q-74 0 -126 46t-52 153q0 45 12 107l82 413q7 40 9 80q0 98 -74 98q-88 0 -189 -137l-133 -733h-366l207 1096q12 62 12 118q0 62 -35 97t-102 63v8q105 7 289 37q172 28 257 56h9l-129 -668h8q67 105 162 183.5t196 78.5q242 0 242 -274q0 -64 -17 -158
l-59 -315q-8 -56 -8 -72q0 -62 46 -62q47 0 126 39v-8q-56 -93 -153 -170q-95 -76 -214 -76z" />
    <glyph glyph-name="i" unicode="i" horiz-adv-x="632" 
d="M453 1098q-77 0 -130 54.5t-55 131.5q0 77 54 130.5t131 53.5t131.5 -54t54.5 -130t-54.5 -131t-131.5 -55zM252 -27q-74 0 -124 47t-50 156q0 40 10 103l86 444q8 56 8 63q0 54 -47 56q-36 0 -129 -35v8q56 84 168.5 169t197.5 85q181 0 181 -201q0 -57 -10 -104
l-82 -442q-8 -56 -8 -72q0 -62 46 -62q47 0 126 39v-8q-64 -104 -164 -175t-209 -71z" />
    <glyph glyph-name="j" unicode="j" horiz-adv-x="608" 
d="M180 784q0 58 -41 58q-40 0 -133 -35v8q56 84 168.5 169t197.5 85q181 0 181 -201q0 -57 -10 -104l-103 -563q-33 -172 -111.5 -297.5t-218.5 -205.5t-323 -128l-4 12q88 49 167 173q80 125 105 282l119 686q6 37 6 61zM453 1098q-77 0 -130 54.5t-55 131.5
q0 77 54 130.5t131 53.5t131.5 -54t54.5 -130t-54.5 -131t-131.5 -55z" />
    <glyph glyph-name="k" unicode="k" horiz-adv-x="1189" 
d="M836 -27q-60 1 -102 19t-69.5 54.5t-43.5 76t-31 100.5l-82 314q240 63 403 145v4q-60 24 -97.5 79t-37.5 119q0 76 64.5 130.5t141.5 54.5q82 0 140 -54.5t58 -135.5q0 -80 -56 -139q-53 -56 -107 -83q-55 -26 -167 -63l94 -270q46 -131 159 -131q49 0 109 28v-8
q-71 -90 -177.5 -165t-198.5 -75zM31 0l207 1096q12 62 12 118q0 62 -35 97t-102 63v8q105 7 289 37q172 28 257 56h9l-271 -1475h-366z" />
    <glyph glyph-name="l" unicode="l" horiz-adv-x="618" 
d="M229 -27q-159 0 -157 191q0 48 12 115l154 817q12 60 12 116q0 61 -36 97.5t-101 64.5v8q105 7 289 37q172 28 257 56h9l-211 -1153q-8 -56 -8 -72q0 -62 46 -62q47 0 126 39v-8q-55 -88 -164 -167t-228 -79z" />
    <glyph glyph-name="m" unicode="m" horiz-adv-x="1847" 
d="M1486 -27q-104 0 -159 70q-53 71 -20 236l82 413q34 178 -66 178q-74 0 -170 -131l-127 -739h-360l127 692q33 178 -66 178q-76 0 -178 -141l-125 -729h-365l127 723q16 97 -15 114q-7 4 -22 4q-41 0 -131 -34v8q57 87 169.5 170.5t200.5 83.5q87 0 137 -59t36 -199
q40 67 89.5 121.5t120 95t142.5 41.5q236 0 242 -260l2 2q40 67 89.5 121.5t120 95t142.5 41.5q307 0 226 -432l-60 -318q-17 -101 13 -123q9 -7 28 -6q38 0 123 37v-8q-60 -100 -155.5 -173t-197.5 -73z" />
    <glyph glyph-name="n" unicode="n" horiz-adv-x="1263" 
d="M893 -27q-76 1 -128 49t-52 154q0 56 10 103l82 413q8 43 8 80q0 98 -74 98q-88 0 -190 -141l-125 -729h-365l127 723q5 33 7 61q1 58 -41 58q-41 0 -134 -35v8q60 87 170 170.5t197 83.5q174 0 174 -199q0 -23 -4 -59h8q157 258 377 258q118 0 172.5 -77t54.5 -201
q0 -68 -16 -154l-59 -315q-8 -52 -9 -72q0 -62 46 -62q47 0 126 39v-8q-62 -103 -158.5 -174.5t-203.5 -71.5z" />
    <glyph glyph-name="o" unicode="o" horiz-adv-x="1183" 
d="M520 45q39 0 73.5 36.5t58 87t43 116t29 111.5t15.5 85q23 159 23 273q0 33 -3 66.5t-12.5 79t-32.5 73t-57 26.5q-91 0 -165 -213q-74 -214 -74 -477q0 -264 102 -264zM504 -25q-185 0 -319 122q-132 121 -132 329q2 258 191 450q191 194 430 193q189 0 322 -124
q134 -125 134 -327q0 -249 -190 -446q-191 -198 -436 -197z" />
    <glyph glyph-name="p" unicode="p" horiz-adv-x="1247" 
d="M653 905q-37 0 -90 -24q4 -52 -8 -117l-121 -696q31 -18 62 -19q142 0 239 172q99 172 99 428t-181 256zM393 1069q142 0 168 -149q146 150 340 149q134 -2 219 -109q86 -109 86 -296q0 -189 -112 -352q-113 -166 -273 -251q-161 -86 -317 -86q-23 0 -86 5l-19 -111
q-14 -81 -14 -123q0 -88 113 -147l-2 -9h-629l2 9q81 42 114.5 103t51.5 167l151 854q5 33 7 61q1 58 -41 58q-41 0 -134 -35v8q58 89 171 171.5t204 82.5z" />
    <glyph glyph-name="q" unicode="q" horiz-adv-x="1226" 
d="M680 244l139 710q-56 48 -100 50q-86 0 -182 -195q-95 -194 -97 -440q0 -180 109 -181q71 2 131 56zM76 326q0 291 196 517t455 226q42 0 149 -14q104 -15 154 -15t137 29h21l-211 -1200q-16 -80 -16 -127q0 -92 81 -143l-2 -9h-628l2 9q52 23 85 46.5t53.5 58.5t31 69
t22.5 96l68 330h-6q-122 -222 -299 -224q-124 -1 -209 91q-84 92 -84 260z" />
    <glyph glyph-name="r" unicode="r" horiz-adv-x="993" 
d="M382 1069q175 0 175 -207q0 -36 -6 -76h8q100 283 285 283q78 0 125 -52.5t47 -131.5q0 -76 -49.5 -128t-124.5 -52q-72 0 -118 45.5t-65 119.5h-4q-109 -121 -163 -469l-68 -401h-365l127 723q5 33 7 61q1 58 -41 58q-41 0 -134 -35v8q55 83 167.5 168.5t196.5 85.5z
" />
    <glyph glyph-name="s" unicode="s" horiz-adv-x="882" 
d="M530 192q0 119 -154 210q-24 14 -130 79q-70 43 -113 107.5t-43 140.5q0 154 139 247t300 93q162 0 262 -64t100 -155q0 -71 -50.5 -121.5t-121.5 -50.5q-68 0 -121 45.5t-53 112.5q0 59 42.5 105.5t100.5 57.5v5q-54 14 -119 14q-64 0 -118.5 -41t-54.5 -103
q0 -32 13.5 -61.5t39.5 -54.5t49 -42t55 -37q80 -50 131 -85q158 -109 158 -286q0 -100 -84 -182q-157 -152 -408 -151q-150 0 -258 72t-106 182q0 78 51.5 132.5t128.5 54.5q74 0 128 -48.5t54 -121.5q0 -64 -46 -120t-109 -67v-4q57 -27 140 -27q77 0 137 45t60 119z" />
    <glyph glyph-name="t" unicode="t" horiz-adv-x="724" 
d="M282 -27q-106 0 -166 70t-30 236l121 620l-160 16l-4 19l121 55q168 78 244 301h231l-49 -246h207l-23 -157h-209l-106 -568q-18 -101 33 -125q14 -7 36 -7q52 0 136 40v-8q-60 -95 -170 -170.5t-212 -75.5z" />
    <glyph glyph-name="u" unicode="u" horiz-adv-x="1263" 
d="M890 -27q-81 -1 -128 49t-47 160q0 28 2 54h-4q-64 -104 -163 -183.5t-202 -79.5q-242 0 -242 275q0 79 17 158l65 315q8 35 9 72q1 61 -49 61t-130 -39v8q58 93 154 170q95 76 213 76q74 0 126 -46t52 -153q0 -44 -12 -106l-82 -414q-8 -43 -8 -80q0 -98 74 -98
q88 0 190 141l125 731h364l-127 -725q-6 -38 -6 -61q0 -57 45 -57q36 0 129 35v-9q-56 -84 -168.5 -169t-196.5 -85z" />
    <glyph glyph-name="v" unicode="v" horiz-adv-x="1077" 
d="M801 692q-79 0 -132.5 51.5t-54.5 130.5q0 90 58 142.5t148 52.5q69 0 120.5 -51t73.5 -118t22 -134q0 -245 -160 -504q-79 -127 -206.5 -208t-269.5 -81q-148 0 -229 76t-81 223q0 78 21 162l65 289q8 37 8 63q0 54 -45 54t-131 -33v8q56 84 168.5 169t196.5 85
q90 0 139 -48.5t49 -139.5q0 -47 -16 -117l-76 -315q-16 -68 -16 -137q0 -65 38.5 -106.5t102.5 -41.5q75 0 148 60t122.5 146.5t79.5 182t29 168.5l-2 53h-4q-63 -82 -166 -82z" />
    <glyph glyph-name="w" unicode="w" horiz-adv-x="1693" 
d="M1206 164q79 0 152.5 59t122.5 145.5t78.5 181.5t29.5 171q0 15 -1 27t-1 26q-73 -82 -155 -82q-84 0 -142.5 51t-58.5 133q0 87 56.5 140t144.5 53q91 0 156 -86t65 -254q0 -104 -47 -229t-114 -234q-75 -124 -199.5 -208.5t-257.5 -84.5q-124 2 -206.5 59.5
t-107.5 174.5q-53 -103 -135.5 -168.5t-188.5 -65.5q-179 0 -259 116q-80 115 -27 345l65 289q20 97 -13 113q-8 4 -22 4q-42 1 -133 -33v8q58 89 171 171.5t204 82.5t147 -71q56 -70 15 -234l-76 -315q-67 -285 86 -285q63 0 102 66q38 65 70 204l121 557h328l-91 -542
q-47 -285 121 -285z" />
    <glyph glyph-name="x" unicode="x" horiz-adv-x="1140" 
d="M762 -29q-104 2 -152 51t-96 199l-80 236q-176 -95 -213 -123q77 -2 135 -56t58 -130q0 -69 -56.5 -123t-126.5 -56q-105 2 -160 59q-57 58 -57 122q0 65 19 103q29 62 147 134q49 29 238 121l-74 219q-20 60 -53 93.5t-88 33.5t-129 -29l2 9q65 95 164 164.5t200 70.5
q102 0 150 -50q47 -50 98 -200l64 -192q16 9 80 39q52 24 96 49q-70 11 -115 61t-45 120q0 69 58.5 121t127.5 52q106 0 158 -51q53 -50 51 -112q0 -62 -18.5 -101.5t-67.5 -73.5q-49 -35 -156 -84q-99 -46 -151 -72l88 -262q21 -61 54 -93.5t89 -32.5q53 0 127 28l-2 -8
q-62 -89 -162 -163q-97 -73 -202 -73z" />
    <glyph glyph-name="y" unicode="y" horiz-adv-x="1060" 
d="M88 842q-46 0 -104 -29v8q55 84 157 166q101 82 201 82q60 0 105.5 -35.5t70.5 -93.5q43 -103 84 -326q40 -222 51 -399h4q245 369 283 549h-4q-50 -45 -120 -45q-73 0 -122 48.5t-49 121.5q0 84 54 132t139 48q90 0 146 -57.5t56 -147.5q0 -156 -134 -376
q-131 -213 -290 -432q-155 -211 -306 -350q-148 -136 -294 -136q-113 0 -169 56t-56 133q0 82 54 133.5t136 51.5q85 0 139 -76q54 -78 27 -187h5q76 28 241 200q-39 458 -167 785q-69 176 -138 176z" />
    <glyph glyph-name="z" unicode="z" horiz-adv-x="925" 
d="M586 741h-281q-101 0 -138 -9t-87 -56h-17l97 368h801v-8l-676 -739h29q315 0 414 21q104 23 167 108l16 -2q-8 -19 -52 -153q-43 -130 -85 -210q-44 -81 -90 -81q-61 0 -335 10t-437 10l-2 8z" />
    <glyph glyph-name="braceleft" unicode="{" horiz-adv-x="620" 
d="M92 31q0 40 8 82l33 178q23 138 23 184q0 125 -97 141l2 17q124 22 173 253q11 46 28 142l31 178q24 141 112 213q86 71 188 94q99 22 214 31v-10q-72 -20 -104 -85q-32 -66 -62 -239l-37 -200q-14 -80 -61 -147t-115.5 -113t-142 -76.5t-154.5 -48.5q169 -41 267 -141
q97 -100 71 -244l-35 -201q-25 -133 -24 -199q-2 -98 75 -125l-2 -10q-167 17 -279 93t-112 233z" />
    <glyph glyph-name="bar" unicode="|" horiz-adv-x="417" 
d="M434 1544l-313 -1780h-78l313 1780h78z" />
    <glyph glyph-name="braceright" unicode="}" horiz-adv-x="620" 
d="M518 774q0 -125 94 -141l-2 -17q-84 -13 -126 -112q-40 -99 -72 -275l-33 -178q-24 -141 -113 -215q-91 -75 -188 -97q-108 -24 -213 -34l2 10q69 20 101 85q31 64 63 239l35 201q12 64 46 120.5t80.5 97.5t106 75t118.5 55.5t122 36.5q-168 43 -267 141q-98 98 -71 244
l37 200q24 148 24 200q0 49 -16.5 79.5t-59.5 44.5v10q393 -37 394 -319q0 -7 -11 -82l-28 -176q-23 -143 -23 -193z" />
    <glyph glyph-name="asciitilde" unicode="~" horiz-adv-x="1138" 
d="M754 473q-63 0 -213 57q-149 58 -209 58q-52 0 -107 -29t-84 -72l-18 13q155 225 301 225q78 0 232 -57q153 -58 202 -58q45 0 98 31t80 70l21 -13q-161 -225 -303 -225z" />
    <glyph glyph-name="exclamdown" unicode="&#xa1;" horiz-adv-x="612" 
d="M152 865q0 87 62.5 145.5t149.5 58.5t149 -58.5t62 -144.5t-61.5 -146t-148.5 -60q-86 0 -149.5 60t-63.5 145zM301 590h27q-4 -55 -4 -135q0 -71 38 -269q38 -200 37 -306q0 -112 -63 -194q-63 -83 -189 -83q-81 0 -132.5 55t-51.5 137q0 83 42.5 186.5t100.5 185.5
q155 223 195 423z" />
    <glyph glyph-name="cent" unicode="&#xa2;" 
d="M508 635q0 -186 125 -270l131 741q-256 -112 -256 -471zM166 590q0 240 180 406t434 210l37 207h113l-35 -194h29q49 0 101.5 -13t102 -37t81.5 -67t32 -96q0 -82 -48.5 -136.5t-128.5 -54.5q-65 0 -118 43t-53 106q0 59 38.5 107.5t96.5 77.5q-27 4 -66 4q-33 0 -79 -8
l-146 -826q35 -8 101 -8q64 0 158 26.5t149 59.5l10 -8q-217 -239 -453 -262l-51 -299h-112l53 299q-188 20 -307 147.5t-119 315.5z" />
    <glyph glyph-name="sterling" unicode="&#xa3;" 
d="M774 0h-684v8q99 73 192 226q92 153 91 282q0 33 -8 137h-209l22 125h174q-14 129 -14 201q0 95 32.5 173.5t88 131.5t130.5 89t157.5 52.5t171.5 16.5q52 0 106.5 -12.5t105 -37.5t83 -69.5t32.5 -101.5q0 -88 -53.5 -143.5t-141.5 -55.5q-74 0 -125.5 43t-52.5 116
q0 72 57 122.5t132 62.5q-46 23 -111 23q-118 0 -190 -117t-72 -318q0 -4 6 -176h350l-22 -125h-328q-41 -236 -313 -356h604q53 0 80 17.5t45 66.5h14l2 -27q0 -14 -4 -37q-29 -158 -111 -237.5t-237 -79.5z" />
    <glyph glyph-name="currency" unicode="&#xa4;" 
d="M1047 715q0 168 -113 287.5t-280 119.5q-111 0 -201.5 -55.5t-141.5 -149t-51 -203.5t51 -203t141.5 -148.5t201.5 -55.5q166 0 279.5 120.5t113.5 287.5zM1071 195l-110 116q-122 -104 -307 -104t-304 104l-112 -116l-105 104l115 117q-102 120 -102 306t102 296
l-115 110l105 107l112 -113q122 100 302 100q179 0 309 -100l110 113l103 -107l-111 -110q98 -112 98 -298t-98 -304l111 -117z" />
    <glyph glyph-name="yen" unicode="&#xa5;" 
d="M889 8v-8h-676v8q104 35 145.5 95t63.5 180l10 61h-227l18 105h228l22 131h-227l18 104h199l-94 342q-58 204 -97 274q-38 68 -108 105l2 8h665l-2 -8q-60 -20 -86 -37q-29 -18 -44 -59q-25 -67 20 -279l67 -311l172 311q111 211 105 278t-119 97l2 8h486l-2 -8
q-88 -25 -158 -101t-193 -280l-207 -340h201l-18 -104h-226l-22 -131h225l-18 -105h-226l-10 -61q-26 -117 -3 -179t114 -96z" />
    <glyph glyph-name="brokenbar" unicode="&#xa6;" horiz-adv-x="417" 
d="M434 1544l-133 -756h-78l133 756h78zM254 520l-133 -756h-78l133 756h78z" />
    <glyph glyph-name="section" unicode="&#xa7;" 
d="M375 942q-53 -32 -53 -89q0 -58 61 -101l465 -314q58 -49 96 -88q52 30 52 88t-70 107l-418 289q-88 59 -133 108zM293 1128q0 127 110 219q110 91 293 91q181 0 324 -92t141 -199q0 -75 -42 -123.5t-115 -48.5q-65 0 -110.5 39t-45.5 102q0 121 133 182q-100 82 -227 82
q-75 0 -133.5 -37t-59.5 -108q0 -90 109 -162l346 -225q168 -111 168 -270q0 -90 -61 -162t-150 -105q55 -76 55 -164q0 -132 -128 -230q-127 -97 -313 -97q-185 0 -331 90q-145 90 -145 207q0 80 49.5 132t128.5 52q75 0 126.5 -50.5t51.5 -125.5q0 -113 -129 -182
q102 -78 200 -78q91 0 156.5 43.5t65.5 130.5q0 82 -129 172l-367 256q-151 104 -149 256q0 100 65.5 165.5t167.5 86.5q-55 70 -55 153z" />
    <glyph glyph-name="dieresis" unicode="&#xa8;" horiz-adv-x="763" 
d="M494 1288q0 -65 -44.5 -110t-109.5 -45q-66 0 -112 44.5t-46 110.5q0 65 46 109.5t111 44.5t110 -44.5t45 -109.5zM709 1442q66 0 110.5 -44t44.5 -110q0 -65 -44.5 -110t-109.5 -45t-111 45t-46 110q0 66 45 110t111 44z" />
    <glyph glyph-name="copyright" unicode="&#xa9;" horiz-adv-x="1630" 
d="M395 258q170 -188 420 -188q168 0 305 89t211 233.5t74 311.5q0 124 -44 240t-120.5 203t-187.5 139.5t-238 52.5q-168 0 -305 -89t-211 -233.5t-74 -311.5q0 -259 170 -447zM815 -25q-299 0 -503 213q-204 212 -204 516t204 517t503 213t503 -213t204 -516t-204 -517
q-204 -215 -503 -213zM1155 618l-18 -223q-106 -55 -271 -55t-307 100q-141 101 -141 277q0 126 79 217q146 170 390 170q114 0 246 -53v-211h-7q-73 108 -128 161q-58 56 -115 58q-56 0 -96 -33.5t-59 -88t-26.5 -105t-7.5 -103.5q0 -161 58 -252q59 -92 136 -92
q79 0 143 76q35 39 116 157h8z" />
    <glyph glyph-name="ordfeminine" unicode="&#xaa;" horiz-adv-x="796" 
d="M506 909l100 447q-33 18 -55 18q-21 0 -47 -14q-56 -47 -102 -152t-46 -231q0 -125 76 -125q34 0 68 25q0 20 6 32zM638 717q-134 0 -134 129h-6q-80 -129 -195 -129q-96 0 -149.5 62.5t-55.5 160.5q0 186 135 330t310 145l202 -18q23 0 97 18h14l-92 -477
q-12 -68 10 -81q8 -4 17 -4q29 0 90 24v-5q-41 -61 -109.5 -108t-133.5 -47zM743 602l-16 -100h-664l17 100h663z" />
    <glyph glyph-name="guillemotleft" unicode="&#xab;" horiz-adv-x="948" 
d="M733 535l98 -304h-8l-325 312l434 313h10zM350 535l162 -371h-16l-424 379l557 381h16z" />
    <glyph glyph-name="logicalnot" unicode="&#xac;" 
d="M1155 651l-100 -565h-148l74 418h-834l27 147h981z" />
    <glyph glyph-name="uni00AD" unicode="&#xad;" horiz-adv-x="622" 
d="M725 1372l-23 -129h-552l22 129h553z" />
    <glyph glyph-name="registered" unicode="&#xae;" horiz-adv-x="1630" 
d="M395 258q170 -188 420 -188q168 0 305 89t211 233.5t74 311.5q0 124 -44 240t-120.5 203t-187.5 139.5t-238 52.5q-168 0 -305 -89t-211 -233.5t-74 -311.5q0 -259 170 -447zM815 -25q-299 0 -503 213q-204 212 -204 516t204 517t503 213t503 -213t204 -516t-204 -517
q-204 -215 -503 -213zM803 1040h-15v-325q121 13 121 166q-1 38 -9 71t-33 60.5t-64 27.5zM1284 365v-9h-176q-98 0 -134 18q-35 18 -73 93l-104 207h-9v-123q0 -82 14 -121q13 -36 66 -65v-9h-417v9q22 13 37.5 29.5t23 30.5t11.5 38.5t4.5 40t0.5 47.5v340q0 32 -0.5 47.5
t-4.5 40t-11.5 39t-23 31.5t-37.5 30v8h362q359 0 361 -200q0 -111 -158 -182l176 -250q51 -73 92 -90z" />
    <glyph glyph-name="macron" unicode="&#xaf;" horiz-adv-x="593" 
d="M707 1352l-29 -164h-553l29 164h553z" />
    <glyph glyph-name="degree" unicode="&#xb0;" horiz-adv-x="806" 
d="M502 926q73 0 123.5 53t50.5 127t-50.5 127t-123.5 53q-72 0 -124 -53.5t-52 -126.5t52 -126.5t124 -53.5zM504 776q-139 0 -234.5 95.5t-95.5 234.5q0 138 96 234t234 96t234 -96t96 -234q0 -139 -95.5 -234.5t-234.5 -95.5z" />
    <glyph glyph-name="plusminus" unicode="&#xb1;" 
d="M1217 651l-27 -147h-418l-53 -295h-148l54 295h-416l27 147h415l72 416h147l-71 -416h418zM1126 147l-24 -147h-981l24 147h981z" />
    <glyph glyph-name="twosuperior" unicode="&#xb2;" horiz-adv-x="950" 
d="M645 1214q0 58 -43 94q-45 37 -109 36q-41 0 -96 -19q52 -12 82.5 -53.5t30.5 -95.5q0 -61 -46 -96.5t-108 -35.5q-59 0 -100 36.5t-41 95.5q0 98 117 174q116 76 288 76t264 -61q93 -61 93 -149q0 -82 -36.5 -135.5t-112.5 -87.5q-62 -29 -142 -55q-206 -68 -301 -164
h510l-90 -242h-713l8 39l340 330q73 71 103 104q102 110 102 209z" />
    <glyph glyph-name="threesuperior" unicode="&#xb3;" horiz-adv-x="950" 
d="M387 578q93 0 163.5 59.5t70.5 150.5q1 88 -47 138q-47 49 -117 61l-2 6l225 213h-393l37 207h669l-2 -8l-274 -266q88 -35 146.5 -107t58.5 -162q0 -89 -46.5 -162t-127.5 -113q-150 -74 -306 -74q-149 0 -231 49q-84 50 -84 120q0 68 44 115t111 47q56 0 96 -34t40 -88
q0 -47 -26.5 -85t-69.5 -57q14 -10 65 -10z" />
    <glyph glyph-name="acute" unicode="&#xb4;" horiz-adv-x="542" 
d="M281 1163h-23q93 117 113 250h299q-68 -93 -152 -143q-86 -51 -237 -107z" />
    <glyph glyph-name="mu" unicode="&#xb5;" horiz-adv-x="1263" 
d="M886 -27q-86 2 -138 59q-51 59 -35 197q-60 -101 -157.5 -178t-199.5 -78q-93 0 -151 37q10 -26 63 -136q54 -108 54 -168q0 -57 -44 -96.5t-101 -39.5q-163 0 -167 129q0 12 4 37l168 987q18 102 -12 124q-9 8 -28 6q-40 0 -124 -38v8q62 100 157.5 173t196.5 73
q104 0 158 -70q52 -70 21 -235l-82 -414q-34 -178 66 -178q88 0 190 141l125 731h364l-127 -725q-17 -98 15 -113q10 -4 22 -4q38 0 131 34v-9q-57 -86 -169.5 -170t-199.5 -84z" />
    <glyph glyph-name="paragraph" unicode="&#xb6;" horiz-adv-x="1077" 
d="M139 1065q2 125 97 237q96 112 264 111h639l-2 -8q-97 -41 -113 -135l-307 -1741h-92l317 1796h-340l-317 -1796h-92l225 1276q-134 0 -206.5 64t-72.5 196z" />
    <glyph glyph-name="periodcentered" unicode="&#xb7;" horiz-adv-x="546" 
d="M500 730q0 -85 -62 -144.5t-147 -59.5q-87 0 -147 59t-60 146q0 86 60 145.5t146 59.5q87 0 148.5 -60t61.5 -146z" />
    <glyph glyph-name="cedilla" unicode="&#xb8;" horiz-adv-x="489" 
d="M209 -286q0 42 -44.5 71t-88.5 31l176 184h57l-86 -104q64 -6 114.5 -48.5t51.5 -104.5q0 -43 -22.5 -77t-58.5 -54t-76.5 -30t-80.5 -10q-118 0 -180 53l27 23q45 -20 98 -20t84 23q30 26 29 63z" />
    <glyph glyph-name="onesuperior" unicode="&#xb9;" horiz-adv-x="950" 
d="M752 545l-2 -13h-525l2 13q69 17 96.5 51.5t38.5 108.5l89 501q-9 -2 -40.5 -8t-54.5 -11q-66 -13 -84 -18l2 33q114 29 276.5 103.5t252.5 140.5h10l-131 -741q-12 -69 2 -104q13 -33 68 -56z" />
    <glyph glyph-name="ordmasculine" unicode="&#xba;" horiz-adv-x="890" 
d="M836 602l-17 -100h-756l17 100h756zM498 780q47 0 84 31.5t58.5 78t35.5 105t19 106.5t5 89q0 155 -106 156q-90 0 -146 -122q-55 -121 -57 -302q1 -142 107 -142zM969 1118q0 -164 -154 -284q-154 -119 -317 -121q-162 0 -267 87q-104 87 -104 216q0 166 153 282
q154 116 313 115q160 0 268 -84t108 -211z" />
    <glyph glyph-name="guillemotright" unicode="&#xbb;" horiz-adv-x="948" 
d="M209 856l323 -313l-436 -312h-8l209 320l-98 305h10zM537 924l421 -381l-555 -379h-16l293 387l-160 373h17z" />
    <glyph glyph-name="onequarter" unicode="&#xbc;" horiz-adv-x="2068" 
d="M1882 8l-2 -8h-510l2 8q68 18 94 55t39 113l6 35h-413l2 14l575 660h269l-99 -555h97l-21 -119h-96l-6 -35q-14 -69 -2 -106q12 -38 65 -62zM1296 330h236l59 338zM1681 1499l-1208 -1595h-158l1211 1595h155zM629 545l-2 -13h-525l2 13q69 17 96.5 52t39.5 108l88 501
q-9 -2 -40.5 -8t-54.5 -11q-68 -14 -83 -18l2 33q113 28 276 103t252 141h10l-131 -741q-12 -69 2 -104q13 -33 68 -56z" />
    <glyph glyph-name="onehalf" unicode="&#xbd;" horiz-adv-x="2068" 
d="M1657 682q0 58 -42 93.5t-101 35.5q-56 0 -105 -18q52 -12 82.5 -54t30.5 -97q0 -60 -46 -95t-108 -35q-59 0 -100 36.5t-41 94.5q0 97 116 174q116 76 289 76q172 0 264 -60q92 -62 92 -149q0 -82 -36 -135t-112 -88q-62 -29 -142 -55q-206 -68 -301 -164h510l-90 -242
h-713l8 39l340 330q72 70 102 103q103 112 103 210zM1620 1499l-1208 -1595h-158l1210 1595h156zM629 545l-2 -13h-525l2 13q69 17 96.5 52t39.5 108l88 501q-9 -2 -40.5 -8t-54.5 -11q-68 -14 -83 -18l2 33q113 28 276 103t252 141h10l-131 -741q-12 -69 2 -104
q13 -33 68 -56z" />
    <glyph glyph-name="threequarters" unicode="&#xbe;" horiz-adv-x="2068" 
d="M1743 1499l-1208 -1595h-158l1210 1595h156zM1923 8l-2 -8h-510l2 8q66 18 93 55.5t40 112.5l6 35h-413l2 14l575 660h269l-99 -555h96l-20 -119h-96l-6 -35q-14 -69 -2 -106q12 -38 65 -62zM1337 330h236l59 338zM305 578q93 0 163.5 59.5t70.5 150.5q0 80 -42.5 133
t-121.5 66l-2 6l225 213h-393l37 207h669l-2 -8l-274 -266q88 -35 146.5 -107t58.5 -162q0 -89 -46.5 -162t-127.5 -113q-151 -74 -306 -74q-149 0 -231 49q-84 50 -84 120q0 68 44 115t111 47q56 0 96 -34t40 -88q0 -47 -26.5 -85t-69.5 -57q14 -10 65 -10z" />
    <glyph glyph-name="questiondown" unicode="&#xbf;" horiz-adv-x="976" 
d="M406 865q0 86 60.5 145t147.5 59t146 -59t61 -146q0 -87 -60 -145.5t-147 -58.5q-86 0 -147 59.5t-61 145.5zM386 60q-44 -99 -44 -193q0 -86 47 -140.5t131 -54.5q126 0 205 60v8q-88 0 -150.5 51.5t-62.5 137.5q0 80 54 132.5t134 52.5q79 0 134 -52t55 -130
q-2 -143 -145 -236q-144 -93 -334 -93q-77 0 -147 16.5t-131 51t-97.5 96t-36.5 143.5q0 78 34.5 149.5t96.5 118.5q84 66 254 179q65 43 111.5 104t56.5 129h29q-27 -164 -88 -297q-99 -218 -106 -233z" />
    <glyph glyph-name="Agrave" unicode="&#xc0;" horiz-adv-x="1638" 
d="M1153 1532h-23q-137 44 -227.5 98t-161.5 152h299q20 -133 113 -250zM524 610h424l-98 637h-4zM1536 8v-8h-694v8q87 17 121 54q67 71 8 403l-10 57h-480q-150 -298 -149 -399q0 -57 36 -80.5t103 -34.5v-8h-547v8q82 17 130 52q106 76 329 503l446 850h336l170 -948
q63 -357 123 -418q27 -27 78 -39z" />
    <glyph glyph-name="Aacute" unicode="&#xc1;" horiz-adv-x="1638" 
d="M868 1532h-22q94 118 112 250h299q-38 -50 -80 -88t-97.5 -68t-95.5 -47.5t-116 -46.5zM524 610h424l-98 637h-4zM1536 8v-8h-694v8q87 17 121 54q67 71 8 403l-10 57h-480q-150 -298 -149 -399q0 -57 36 -80.5t103 -34.5v-8h-547v8q82 17 130 52q106 76 329 503l446 850
h336l170 -948q63 -357 123 -418q27 -27 78 -39z" />
    <glyph glyph-name="Acircumflex" unicode="&#xc2;" horiz-adv-x="1638" 
d="M1098 1782l147 -250h-20l-244 106l-291 -106h-20l229 250h199zM524 610h424l-98 637h-4zM1536 8v-8h-694v8q87 17 121 54q67 71 8 403l-10 57h-480q-150 -298 -149 -399q0 -57 36 -80.5t103 -34.5v-8h-547v8q82 17 130 52q106 76 329 503l446 850h336l170 -948
q63 -357 123 -418q27 -27 78 -39z" />
    <glyph glyph-name="Atilde" unicode="&#xc3;" horiz-adv-x="1638" 
d="M823 1606q-65 0 -118 -62l-11 4q38 93 106 161q71 71 126 71q58 0 158 -28q102 -28 135 -28q65 2 120 62l9 -4q-38 -93 -106 -161q-71 -71 -126 -71q-57 0 -165 28q-106 28 -128 28zM524 610h424l-98 637h-4zM1536 8v-8h-694v8q87 17 121 54q67 71 8 403l-10 57h-480
q-150 -298 -149 -399q0 -57 36 -80.5t103 -34.5v-8h-547v8q82 17 130 52q106 76 329 503l446 850h336l170 -948q63 -357 123 -418q27 -27 78 -39z" />
    <glyph glyph-name="Adieresis" unicode="&#xc4;" horiz-adv-x="1638" 
d="M649 1656q0 66 45.5 110t111.5 44t110.5 -44t44.5 -110q1 -64 -45 -110q-45 -45 -110 -45q-66 0 -111.5 44.5t-45.5 110.5zM1176 1810q66 0 109.5 -44t45.5 -110q0 -65 -44.5 -110t-109.5 -45q-66 0 -111.5 44.5t-45.5 110.5t45 110t111 44zM524 610h424l-98 637h-4z
M1536 8v-8h-694v8q87 17 121 54q67 71 8 403l-10 57h-480q-150 -298 -149 -399q0 -57 36 -80.5t103 -34.5v-8h-547v8q82 17 130 52q106 76 329 503l446 850h336l170 -948q63 -357 123 -418q27 -27 78 -39z" />
    <glyph glyph-name="Aring" unicode="&#xc5;" horiz-adv-x="1638" 
d="M991 1331q62 0 107 47t45 110t-44.5 110.5t-106.5 47.5t-107 -48t-45 -110t45 -110t106 -47zM524 610h424l-100 633zM1536 8v-8h-694v8q62 12 94 30q72 41 62 200q-4 81 -27 227l-10 57h-480q-159 -314 -146 -409q8 -54 38 -73q33 -20 98 -32v-8h-547v8q82 17 130 52
q106 76 329 503l405 772q-53 64 -53 161q0 101 77.5 173t178.5 72q103 0 179.5 -73t76.5 -175q0 -99 -65 -172l153 -856q63 -357 123 -418q27 -27 78 -39z" />
    <glyph glyph-name="AE" unicode="&#xc6;" horiz-adv-x="2076" 
d="M602 610h393l125 705zM1862 0h-1119v8q100 42 136.5 100t58.5 179l41 235h-442q-164 -233 -199 -342q-34 -107 34 -145q30 -17 81 -27v-8h-545l2 8q102 20 192 114q92 97 347 441l423 572q147 202 -98 270l2 8h1274l-68 -389h-14q-74 190 -129 252q-54 61 -184 61h-152
l-102 -573h145q98 0 169.5 44.5t146.5 133.5h14l-76 -424h-14q-45 88 -102 129t-150 41h-145l-109 -612h145q87 0 166 29q76 28 268 217q50 49 103 102h14z" />
    <glyph glyph-name="Ccedilla" unicode="&#xc7;" horiz-adv-x="1472" 
d="M850 -31h-35l-59 -73q64 -6 115 -49t51 -104q0 -43 -22.5 -77t-58.5 -54t-76.5 -30t-80.5 -10q-118 0 -180 53l26 23q45 -20 98 -20t84 23q30 25 30 63q0 42 -44.5 71t-89.5 31l150 157q-283 25 -470 193q-186 167 -188 442q0 231 137 425t354 301q221 108 469 108
q247 0 433 -86l-47 -346h-8q-30 76 -62.5 133.5t-80 111t-111.5 82.5t-142 29q-135 0 -239.5 -82.5t-164.5 -214.5q-122 -270 -122 -516q0 -248 88 -378t230 -130q251 0 534 385h12l-100 -369q-198 -92 -430 -92z" />
    <glyph glyph-name="Egrave" unicode="&#xc8;" horiz-adv-x="1277" 
d="M961 1532h-23q-137 44 -227.5 98t-161.5 152h299q20 -133 113 -250zM1065 0h-1120v8q52 22 86 47t54.5 62t31 72.5t22.5 97.5l150 848q25 109 7 168t-106 102l3 8h1060l-67 -389h-15q-71 190 -132 252q-61 61 -197 61h-135l-103 -573h94q125 0 204.5 39.5t162.5 138.5h14
l-75 -424h-15q-48 99 -116.5 134.5t-186.5 35.5h-94l-109 -612h146q134 0 248 90q72 56 288 258h15z" />
    <glyph glyph-name="Eacute" unicode="&#xc9;" horiz-adv-x="1277" 
d="M686 1532h-22q94 118 112 250h299q-38 -50 -80 -88t-97.5 -68t-95.5 -47.5t-116 -46.5zM1065 0h-1120v8q52 22 86 47t54.5 62t31 72.5t22.5 97.5l150 848q25 109 7 168t-106 102l3 8h1060l-67 -389h-15q-71 190 -132 252q-61 61 -197 61h-135l-103 -573h94
q125 0 204.5 39.5t162.5 138.5h14l-75 -424h-15q-48 99 -116.5 134.5t-186.5 35.5h-94l-109 -612h146q134 0 248 90q72 56 288 258h15z" />
    <glyph glyph-name="Ecircumflex" unicode="&#xca;" horiz-adv-x="1277" 
d="M907 1782l148 -250h-21l-243 106l-291 -106h-21l230 250h198zM1065 0h-1120v8q52 22 86 47t54.5 62t31 72.5t22.5 97.5l150 848q25 109 7 168t-106 102l3 8h1060l-67 -389h-15q-71 190 -132 252q-61 61 -197 61h-135l-103 -573h94q125 0 204.5 39.5t162.5 138.5h14
l-75 -424h-15q-48 99 -116.5 134.5t-186.5 35.5h-94l-109 -612h146q134 0 248 90q72 56 288 258h15z" />
    <glyph glyph-name="Edieresis" unicode="&#xcb;" horiz-adv-x="1277" 
d="M451 1656q0 66 44.5 110t110.5 44t111 -44t45 -110q0 -65 -44.5 -110t-109.5 -45q-66 0 -111.5 44.5t-45.5 110.5zM821 1656q0 66 45.5 110t111.5 44t110.5 -44t44.5 -110q1 -64 -45 -110q-45 -45 -110 -45q-66 0 -111.5 44.5t-45.5 110.5zM1065 0h-1120v8q52 22 86 47
t54.5 62t31 72.5t22.5 97.5l150 848q25 109 7 168t-106 102l3 8h1060l-67 -389h-15q-71 190 -132 252q-61 61 -197 61h-135l-103 -573h94q125 0 204.5 39.5t162.5 138.5h14l-75 -424h-15q-48 99 -116.5 134.5t-186.5 35.5h-94l-109 -612h146q134 0 248 90q72 56 288 258h15z
" />
    <glyph glyph-name="Igrave" unicode="&#xcc;" horiz-adv-x="729" 
d="M735 1532h-22q-138 44 -229.5 98.5t-159.5 151.5h299q18 -132 112 -250zM616 8v-8h-671v8q100 43 136.5 98.5t55.5 172.5l152 856q25 109 7 168t-106 102l3 8h671l-2 -8q-100 -43 -136.5 -98.5t-55.5 -171.5l-152 -856q-24 -109 -6 -168t104 -103z" />
    <glyph glyph-name="Iacute" unicode="&#xcd;" horiz-adv-x="729" 
d="M418 1532h-23q93 117 113 250h299q-38 -50 -80 -88t-97.5 -68t-95.5 -47.5t-116 -46.5zM616 8v-8h-671v8q100 43 136.5 98.5t55.5 172.5l152 856q25 109 7 168t-106 102l3 8h671l-2 -8q-100 -43 -136.5 -98.5t-55.5 -171.5l-152 -856q-24 -109 -6 -168t104 -103z" />
    <glyph glyph-name="Icircumflex" unicode="&#xce;" horiz-adv-x="729" 
d="M688 1782l148 -250h-21l-244 106l-290 -106h-21l229 250h199zM616 8v-8h-671v8q100 43 136.5 98.5t55.5 172.5l152 856q25 109 7 168t-106 102l3 8h671l-2 -8q-100 -43 -136.5 -98.5t-55.5 -171.5l-152 -856q-24 -109 -6 -168t104 -103z" />
    <glyph glyph-name="Idieresis" unicode="&#xcf;" horiz-adv-x="729" 
d="M365 1810q67 0 111 -43.5t44 -110.5q0 -65 -44.5 -110t-109.5 -45q-66 0 -111.5 44.5t-45.5 110.5t45 110t111 44zM580 1656q0 65 45.5 109.5t110.5 44.5q66 0 110.5 -44t44.5 -110q0 -65 -45 -110t-110 -45t-110.5 45t-45.5 110zM616 8v-8h-671v8q100 43 136.5 98.5
t55.5 172.5l152 856q25 109 7 168t-106 102l3 8h671l-2 -8q-100 -43 -136.5 -98.5t-55.5 -171.5l-152 -856q-24 -109 -6 -168t104 -103z" />
    <glyph glyph-name="Eth" unicode="&#xd0;" horiz-adv-x="1628" 
d="M483 76h148q108 0 203 46t164 130q198 244 198 596q0 101 -22.5 186.5t-68 154.5t-124.5 108.5t-184 39.5h-90l-101 -567h189l-17 -92h-188zM666 0h-721v8q52 22 86 47t54.5 62t31 72.5t22.5 97.5l68 391h-105l17 92h104l66 365q12 69 12 119q0 54 -28 87.5t-83 63.5l3 8
h659q121 0 228 -20.5t202 -66.5t163.5 -115t108.5 -171.5t39 -230.5q-1 -149 -52.5 -280t-140.5 -226.5t-206 -164.5t-252 -103.5t-276 -34.5z" />
    <glyph glyph-name="Ntilde" unicode="&#xd1;" horiz-adv-x="1701" 
d="M870 1606q-65 0 -118 -62l-11 4q38 93 106 161q69 71 125 71q58 0 160 -28t134 -28q65 2 120 62l9 -4q-38 -93 -106 -161q-71 -71 -127 -71q-58 0 -164 28t-128 28zM442 8v-8h-493v8q115 49 171 142t101 342l113 643q18 106 -12 164q-32 59 -125 106l2 8h510l655 -936
l80 453q45 256 15 348q-16 49 -42.5 75.5t-77.5 51.5l2 8h494l-2 -8q-76 -34 -121 -74q-91 -82 -147 -401l-164 -930h-156l-792 1126l-111 -634q-46 -257 -17 -352q14 -50 40.5 -78.5t76.5 -53.5z" />
    <glyph glyph-name="Ograve" unicode="&#xd2;" horiz-adv-x="1724" 
d="M1196 1532h-22q-138 44 -228.5 98t-161.5 152h299q20 -133 113 -250zM772 -31q-277 0 -483 175q-207 175 -207 458q0 139 53 273.5t147 239.5q151 169 335 247q189 80 369 80q110 0 214 -28.5t191 -84t152 -131.5t101.5 -176.5t36.5 -212.5q0 -244 -152.5 -452.5
t-383.5 -308.5q-185 -79 -373 -79zM766 45q87 0 163.5 44t130 117.5t95.5 165t67 191.5t37.5 192t12.5 171q0 60 -6.5 116t-25.5 117t-48.5 105t-81 73t-117.5 29q-86 0 -160.5 -44.5t-125.5 -111.5t-92 -156.5t-64 -169.5t-37 -159q-23 -134 -22 -238q0 -49 4.5 -95.5
t15.5 -98.5t31.5 -95t49.5 -78.5t73.5 -55t99.5 -19.5z" />
    <glyph glyph-name="Oacute" unicode="&#xd3;" horiz-adv-x="1724" 
d="M915 1532h-22q93 117 113 250h299q-69 -93 -153 -142q-86 -50 -237 -108zM772 -31q-277 0 -483 175q-207 175 -207 458q0 139 53 273.5t147 239.5q151 169 335 247q189 80 369 80q110 0 214 -28.5t191 -84t152 -131.5t101.5 -176.5t36.5 -212.5q0 -244 -152.5 -452.5
t-383.5 -308.5q-185 -79 -373 -79zM766 45q87 0 163.5 44t130 117.5t95.5 165t67 191.5t37.5 192t12.5 171q0 60 -6.5 116t-25.5 117t-48.5 105t-81 73t-117.5 29q-86 0 -160.5 -44.5t-125.5 -111.5t-92 -156.5t-64 -169.5t-37 -159q-23 -134 -22 -238q0 -49 4.5 -95.5
t15.5 -98.5t31.5 -95t49.5 -78.5t73.5 -55t99.5 -19.5z" />
    <glyph glyph-name="Ocircumflex" unicode="&#xd4;" horiz-adv-x="1724" 
d="M1143 1782l147 -250h-20l-244 106l-291 -106h-20l229 250h199zM772 -31q-277 0 -483 175q-207 175 -207 458q0 139 53 273.5t147 239.5q151 169 335 247q189 80 369 80q110 0 214 -28.5t191 -84t152 -131.5t101.5 -176.5t36.5 -212.5q0 -244 -152.5 -452.5t-383.5 -308.5
q-185 -79 -373 -79zM766 45q87 0 163.5 44t130 117.5t95.5 165t67 191.5t37.5 192t12.5 171q0 60 -6.5 116t-25.5 117t-48.5 105t-81 73t-117.5 29q-86 0 -160.5 -44.5t-125.5 -111.5t-92 -156.5t-64 -169.5t-37 -159q-23 -134 -22 -238q0 -49 4.5 -95.5t15.5 -98.5
t31.5 -95t49.5 -78.5t73.5 -55t99.5 -19.5z" />
    <glyph glyph-name="Otilde" unicode="&#xd5;" horiz-adv-x="1724" 
d="M844 1606q-66 0 -119 -62l-10 4q38 93 106 161q71 71 125 71q56 0 158 -28t135 -28q66 2 121 62l8 -4q-38 -93 -106 -161q-71 -71 -126 -71q-58 0 -164 28t-128 28zM772 -31q-277 0 -483 175q-207 175 -207 458q0 139 53 273.5t147 239.5q151 169 335 247q189 80 369 80
q110 0 214 -28.5t191 -84t152 -131.5t101.5 -176.5t36.5 -212.5q0 -244 -152.5 -452.5t-383.5 -308.5q-185 -79 -373 -79zM766 45q87 0 163.5 44t130 117.5t95.5 165t67 191.5t37.5 192t12.5 171q0 60 -6.5 116t-25.5 117t-48.5 105t-81 73t-117.5 29q-86 0 -160.5 -44.5
t-125.5 -111.5t-92 -156.5t-64 -169.5t-37 -159q-23 -134 -22 -238q0 -49 4.5 -95.5t15.5 -98.5t31.5 -95t49.5 -78.5t73.5 -55t99.5 -19.5z" />
    <glyph glyph-name="Odieresis" unicode="&#xd6;" horiz-adv-x="1724" 
d="M852 1810q66 0 111 -44t45 -110q0 -65 -44.5 -110t-109.5 -45q-66 0 -112 44.5t-46 110.5t45 110t111 44zM1067 1656q0 66 45.5 110t111.5 44t110 -44t44 -110q0 -65 -44.5 -110t-109.5 -45q-66 0 -111.5 44.5t-45.5 110.5zM772 -31q-277 0 -483 175q-207 175 -207 458
q0 139 53 273.5t147 239.5q151 169 335 247q189 80 369 80q110 0 214 -28.5t191 -84t152 -131.5t101.5 -176.5t36.5 -212.5q0 -244 -152.5 -452.5t-383.5 -308.5q-185 -79 -373 -79zM766 45q87 0 163.5 44t130 117.5t95.5 165t67 191.5t37.5 192t12.5 171q0 60 -6.5 116
t-25.5 117t-48.5 105t-81 73t-117.5 29q-86 0 -160.5 -44.5t-125.5 -111.5t-92 -156.5t-64 -169.5t-37 -159q-23 -134 -22 -238q0 -49 4.5 -95.5t15.5 -98.5t31.5 -95t49.5 -78.5t73.5 -55t99.5 -19.5z" />
    <glyph glyph-name="multiply" unicode="&#xd7;" 
d="M1069 252l-102 -105l-326 326l-324 -323l-104 106l324 322l-324 323l104 105l322 -324l326 326l104 -107l-324 -323z" />
    <glyph glyph-name="Oslash" unicode="&#xd8;" horiz-adv-x="1724" 
d="M766 45q84 0 157.5 41.5t125.5 106t93.5 149t65 163t37.5 155.5q45 252 10 440l-706 -914q71 -141 217 -141zM993 1366q-83 0 -156.5 -42.5t-125 -108t-92.5 -151.5t-64.5 -164.5t-37.5 -155.5q-47 -262 -9 -435l709 912q-73 145 -224 145zM82 602q0 139 53 273.5
t147 239.5q151 169 335 247q189 80 367 80q180 0 343 -78l86 111l86 -62l-80 -104q126 -89 194.5 -218.5t67.5 -281.5q0 -138 -50 -268t-138 -232t-201 -179.5t-246.5 -119t-267.5 -41.5q-184 0 -340 76l-88 -113l-84 68l78 100q-262 181 -262 502z" />
    <glyph glyph-name="Ugrave" unicode="&#xd9;" horiz-adv-x="1634" 
d="M1217 1532h-23q-137 44 -227.5 98t-161.5 152h299q20 -133 113 -250zM160 397l129 738q14 82 14 123q0 51 -29.5 84.5t-83.5 62.5l3 8h671l-2 -8q-100 -43 -136.5 -98.5t-55.5 -171.5l-135 -766q-3 -13 -5 -52q0 -50 18.5 -90t48.5 -64.5t71 -41t83.5 -23t88.5 -6.5
q357 0 413 311l95 527q43 261 3 358q-23 51 -47 69q-26 19 -81 48l2 8h524l-2 -8q-96 -42 -134 -76t-79 -123q-44 -96 -76 -276l-94 -533q-22 -121 -75.5 -206t-135.5 -132.5t-178 -68t-219 -20.5q-55 0 -107 3.5t-114 14t-114.5 26.5t-103.5 44t-86 64t-56.5 88.5
t-20.5 115.5q0 35 6 71z" />
    <glyph glyph-name="Uacute" unicode="&#xda;" horiz-adv-x="1634" 
d="M965 1532h-23q93 117 113 250h299q-68 -93 -152 -142q-84 -50 -237 -108zM160 397l129 738q14 82 14 123q0 51 -29.5 84.5t-83.5 62.5l3 8h671l-2 -8q-100 -43 -136.5 -98.5t-55.5 -171.5l-135 -766q-3 -13 -5 -52q0 -50 18.5 -90t48.5 -64.5t71 -41t83.5 -23t88.5 -6.5
q357 0 413 311l95 527q43 261 3 358q-23 51 -47 69q-26 19 -81 48l2 8h524l-2 -8q-96 -42 -134 -76t-79 -123q-44 -96 -76 -276l-94 -533q-22 -121 -75.5 -206t-135.5 -132.5t-178 -68t-219 -20.5q-55 0 -107 3.5t-114 14t-114.5 26.5t-103.5 44t-86 64t-56.5 88.5
t-20.5 115.5q0 35 6 71z" />
    <glyph glyph-name="Ucircumflex" unicode="&#xdb;" horiz-adv-x="1634" 
d="M1182 1782l147 -250h-20l-244 106l-291 -106h-20l229 250h199zM160 397l129 738q14 82 14 123q0 51 -29.5 84.5t-83.5 62.5l3 8h671l-2 -8q-100 -43 -136.5 -98.5t-55.5 -171.5l-135 -766q-3 -13 -5 -52q0 -50 18.5 -90t48.5 -64.5t71 -41t83.5 -23t88.5 -6.5
q357 0 413 311l95 527q43 261 3 358q-23 51 -47 69q-26 19 -81 48l2 8h524l-2 -8q-96 -42 -134 -76t-79 -123q-44 -96 -76 -276l-94 -533q-22 -121 -75.5 -206t-135.5 -132.5t-178 -68t-219 -20.5q-55 0 -107 3.5t-114 14t-114.5 26.5t-103.5 44t-86 64t-56.5 88.5
t-20.5 115.5q0 35 6 71z" />
    <glyph glyph-name="Udieresis" unicode="&#xdc;" horiz-adv-x="1634" 
d="M848 1810q66 0 111 -44t45 -110q0 -64 -45 -109.5t-110 -45.5q-66 0 -111.5 44.5t-45.5 110.5t45 110t111 44zM1063 1656q0 66 45.5 110t111.5 44t110 -44t44 -110q0 -65 -44.5 -110t-109.5 -45q-66 0 -111.5 44.5t-45.5 110.5zM160 397l129 738q14 82 14 123
q0 51 -29.5 84.5t-83.5 62.5l3 8h671l-2 -8q-100 -43 -136.5 -98.5t-55.5 -171.5l-135 -766q-3 -13 -5 -52q0 -50 18.5 -90t48.5 -64.5t71 -41t83.5 -23t88.5 -6.5q357 0 413 311l95 527q43 261 3 358q-23 51 -47 69q-26 19 -81 48l2 8h524l-2 -8q-96 -42 -134 -76t-79 -123
q-44 -96 -76 -276l-94 -533q-22 -121 -75.5 -206t-135.5 -132.5t-178 -68t-219 -20.5q-55 0 -107 3.5t-114 14t-114.5 26.5t-103.5 44t-86 64t-56.5 88.5t-20.5 115.5q0 35 6 71z" />
    <glyph glyph-name="Yacute" unicode="&#xdd;" horiz-adv-x="1441" 
d="M811 1532h-23q93 117 113 250h299q-68 -93 -152 -142q-84 -50 -237 -108zM961 8v-8h-672v8q52 22 86 47t54.5 62t31 72.5t22.5 97.5l60 340l-154 424q-25 70 -42 109.5t-44 87.5t-63 85t-86 72l2 8h727l-2 -8q-140 -57 -152 -98q-23 -76 -8 -132q11 -45 37 -124l114 -336
l213 334q122 193 94 263q-16 40 -48.5 59t-86.5 34l3 8h559l-2 -8q-107 -38 -188 -110q-75 -66 -206 -253l-286 -415l-60 -340q-26 -110 -8 -172q18 -64 105 -107z" />
    <glyph glyph-name="Thorn" unicode="&#xde;" horiz-adv-x="1366" 
d="M539 385h96q77 0 141 39.5t103 102.5t60 136t22 146q2 104 -45 176t-148 72h-113zM510 183q0 -111 147 -175v-8h-712v8q52 22 86 47t54.5 62t31 72.5t22.5 97.5l150 848q12 67 12 117q0 55 -28 90t-83 63l3 8h671l-2 -8q-100 -44 -136.5 -99.5t-55.5 -172.5h190
q475 0 475 -334q0 -492 -639 -492h-172q-14 -73 -14 -124z" />
    <glyph glyph-name="germandbls" unicode="&#xdf;" horiz-adv-x="1271" 
d="M868 388q0 122 -69 218.5t-185 141.5l-4 16q319 199 320 569q0 60 -32.5 104t-90.5 44q-102 -2 -151 -95q-50 -96 -89 -342l-155 -976q-46 -280 -240 -408q-154 -100 -377 -152l-4 13q61 36 111.5 113.5t78 154.5t42.5 156l194 1069q46 254 203.5 392t413.5 138
q166 0 260 -82t94 -200t-71 -186q-33 -33 -42 -43q-34 -38 -139 -89q-47 -23 -59 -35l-3 -8q116 -50 224 -167q106 -115 106 -273q0 -97 -38 -179t-100.5 -137.5t-145 -94.5t-170 -57t-177.5 -18l7 31q79 9 147 72t104.5 147t36.5 163z" />
    <glyph glyph-name="agrave" unicode="&#xe0;" horiz-adv-x="1169" 
d="M920 1163h-23q-137 44 -227.5 98t-161.5 152h299q20 -133 113 -250zM655 279l144 696q-49 31 -82 31q-34 0 -69 -29t-63.5 -76.5t-46 -83t-32.5 -72.5q-66 -167 -66 -376q0 -180 109 -181q53 0 98 39q5 39 8 52zM821 -23q-72 -1 -120 47q-49 49 -50 154h-6
q-111 -203 -276 -203q-124 -1 -209 91q-84 92 -84 260q0 290 193 516q194 227 438 227q41 0 141 -14q96 -15 147 -15q49 0 138 29h20l-129 -750q-6 -41 -6 -67q0 -64 45 -64t125 39v-8q-60 -93 -154 -167q-96 -75 -213 -75z" />
    <glyph glyph-name="aacute" unicode="&#xe1;" horiz-adv-x="1169" 
d="M662 1163h-23q93 117 113 250h299q-70 -94 -153 -143q-85 -50 -236 -107zM655 279l144 696q-49 31 -82 31q-34 0 -69 -29t-63.5 -76.5t-46 -83t-32.5 -72.5q-66 -167 -66 -376q0 -180 109 -181q53 0 98 39q5 39 8 52zM821 -23q-72 -1 -120 47q-49 49 -50 154h-6
q-111 -203 -276 -203q-124 -1 -209 91q-84 92 -84 260q0 290 193 516q194 227 438 227q41 0 141 -14q96 -15 147 -15q49 0 138 29h20l-129 -750q-6 -41 -6 -67q0 -64 45 -64t125 39v-8q-60 -93 -154 -167q-96 -75 -213 -75z" />
    <glyph glyph-name="acircumflex" unicode="&#xe2;" horiz-adv-x="1169" 
d="M870 1413l148 -250h-21l-243 107l-291 -107h-21l230 250h198zM655 279l144 696q-49 31 -82 31q-34 0 -69 -29t-63.5 -76.5t-46 -83t-32.5 -72.5q-66 -167 -66 -376q0 -180 109 -181q53 0 98 39q5 39 8 52zM821 -23q-72 -1 -120 47q-49 49 -50 154h-6q-111 -203 -276 -203
q-124 -1 -209 91q-84 92 -84 260q0 290 193 516q194 227 438 227q41 0 141 -14q96 -15 147 -15q49 0 138 29h20l-129 -750q-6 -41 -6 -67q0 -64 45 -64t125 39v-8q-60 -93 -154 -167q-96 -75 -213 -75z" />
    <glyph glyph-name="atilde" unicode="&#xe3;" horiz-adv-x="1169" 
d="M896 1182q-58 0 -164 28q-108 29 -128 27q-67 0 -119 -61l-10 4q31 75 98.5 153t132.5 78q56 0 158 -28q101 -27 133 -27q69 0 123 61l8 -4q-29 -75 -97.5 -153t-134.5 -78zM655 279l144 696q-49 31 -82 31q-34 0 -69 -29t-63.5 -76.5t-46 -83t-32.5 -72.5
q-66 -167 -66 -376q0 -180 109 -181q53 0 98 39q5 39 8 52zM821 -23q-72 -1 -120 47q-49 49 -50 154h-6q-111 -203 -276 -203q-124 -1 -209 91q-84 92 -84 260q0 290 193 516q194 227 438 227q41 0 141 -14q96 -15 147 -15q49 0 138 29h20l-129 -750q-6 -41 -6 -67
q0 -64 45 -64t125 39v-8q-60 -93 -154 -167q-96 -75 -213 -75z" />
    <glyph glyph-name="adieresis" unicode="&#xe4;" horiz-adv-x="1169" 
d="M548 1442q65 0 109.5 -44.5t44.5 -109.5t-44.5 -110t-109.5 -45t-111 45t-46 110t46 109.5t111 44.5zM918 1442q66 0 109.5 -44t45.5 -110q0 -65 -44.5 -110t-109.5 -45t-111 45t-46 110q0 66 45 110t111 44zM655 279l144 696q-49 31 -82 31q-34 0 -69 -29t-63.5 -76.5
t-46 -83t-32.5 -72.5q-66 -167 -66 -376q0 -180 109 -181q53 0 98 39q5 39 8 52zM821 -23q-72 -1 -120 47q-49 49 -50 154h-6q-111 -203 -276 -203q-124 -1 -209 91q-84 92 -84 260q0 290 193 516q194 227 438 227q41 0 141 -14q96 -15 147 -15q49 0 138 29h20l-129 -750
q-6 -41 -6 -67q0 -64 45 -64t125 39v-8q-60 -93 -154 -167q-96 -75 -213 -75z" />
    <glyph glyph-name="aring" unicode="&#xe5;" horiz-adv-x="1169" 
d="M778 1243q49 0 84 37t35 86t-35 86t-84 37t-84 -37t-35 -86t35 -86t84 -37zM991 1366q0 -87 -63 -147.5t-150 -60.5q-88 0 -150 60t-63 148q-1 86 62.5 147t150.5 61q86 0 150 -60q65 -62 63 -148zM655 279l144 696q-49 31 -82 31q-34 0 -69 -29t-63.5 -76.5t-46 -83
t-32.5 -72.5q-66 -167 -66 -376q0 -180 109 -181q53 0 98 39q5 39 8 52zM821 -23q-72 -1 -120 47q-49 49 -50 154h-6q-111 -203 -276 -203q-124 -1 -209 91q-84 92 -84 260q0 290 193 516q194 227 438 227q41 0 141 -14q96 -15 147 -15q49 0 138 29h20l-129 -750
q-6 -41 -6 -67q0 -64 45 -64t125 39v-8q-60 -93 -154 -167q-96 -75 -213 -75z" />
    <glyph glyph-name="ae" unicode="&#xe6;" horiz-adv-x="1646" 
d="M1258 655q81 105 81 227t-69 122q-84 0 -153 -136q-70 -138 -77 -348q137 29 218 135zM668 330l131 645q-49 31 -82 31q-34 0 -69 -29t-63.5 -76.5t-46 -83t-32.5 -72.5q-66 -167 -66 -376q0 -180 109 -181q49 0 78.5 42.5t40.5 99.5zM362 -25q-117 -1 -202 91
q-84 92 -84 260q0 290 193 516q194 227 438 227q46 0 119 -14q70 -15 94 -15q23 0 110 29h21l-17 -96q156 96 300 96q59 0 109 -10.5t95.5 -34t71.5 -68t26 -106.5q0 -133 -142 -236q-143 -104 -454 -135q0 -140 67 -208q60 -61 143 -67q8 -1 24 -1q165 0 282 139l15 -10
q-200 -356 -500 -357q-140 0 -232.5 72.5t-125.5 208.5h-6q-29 -52 -49 -85t-53.5 -74.5t-65.5 -65t-78 -40t-99 -16.5z" />
    <glyph glyph-name="ccedilla" unicode="&#xe7;" horiz-adv-x="948" 
d="M549 -257q0 -43 -22.5 -77t-58.5 -54t-76.5 -30t-80.5 -10q-118 0 -180 53l27 23q45 -20 97 -20q53 0 84 23q30 25 30 63q0 42 -44.5 71t-88.5 31l153 161q-164 11 -252 121t-88 279q0 270 214 481t444 211q122 0 183 -59q60 -58 60 -136t-49 -135t-126 -57
q-69 0 -122 46t-53 114q0 58 35.5 109.5t89.5 80.5h-20q-125 -20 -212 -186t-87 -375q0 -69 18 -127t65.5 -99.5t118.5 -41.5q135 0 252 139l14 -10q-143 -338 -425 -355l-66 -81q64 -6 114.5 -48.5t51.5 -104.5z" />
    <glyph glyph-name="egrave" unicode="&#xe8;" horiz-adv-x="1011" 
d="M891 1163h-23q-137 44 -227.5 98t-161.5 152h299q20 -133 113 -250zM624 655q81 105 81 227t-70 122q-86 0 -153 -136q-69 -139 -76 -348q137 29 218 135zM698 1069q59 0 109.5 -10.5t96 -34t72 -68t25.5 -106.5q0 -133 -142 -236q-143 -104 -453 -135q0 -139 66 -208
q60 -61 142 -67q8 -1 25 -1q166 0 283 139l14 -10q-200 -356 -500 -357q-179 0 -282.5 113t-103.5 294t97 341q89 146 240 246t311 100z" />
    <glyph glyph-name="eacute" unicode="&#xe9;" horiz-adv-x="1011" 
d="M559 1163h-22q94 118 112 250h299q-68 -93 -152 -143q-86 -51 -237 -107zM624 655q81 105 81 227t-70 122q-86 0 -153 -136q-69 -139 -76 -348q137 29 218 135zM698 1069q59 0 109.5 -10.5t96 -34t72 -68t25.5 -106.5q0 -133 -142 -236q-143 -104 -453 -135
q0 -139 66 -208q60 -61 142 -67q8 -1 25 -1q166 0 283 139l14 -10q-200 -356 -500 -357q-179 0 -282.5 113t-103.5 294t97 341q89 146 240 246t311 100z" />
    <glyph glyph-name="ecircumflex" unicode="&#xea;" horiz-adv-x="1011" 
d="M821 1413l148 -250h-21l-243 107l-291 -107h-21l230 250h198zM624 655q81 105 81 227t-70 122q-86 0 -153 -136q-69 -139 -76 -348q137 29 218 135zM698 1069q59 0 109.5 -10.5t96 -34t72 -68t25.5 -106.5q0 -133 -142 -236q-143 -104 -453 -135q0 -139 66 -208
q60 -61 142 -67q8 -1 25 -1q166 0 283 139l14 -10q-200 -356 -500 -357q-179 0 -282.5 113t-103.5 294t97 341q89 146 240 246t311 100z" />
    <glyph glyph-name="edieresis" unicode="&#xeb;" horiz-adv-x="1011" 
d="M508 1442q66 0 111 -44t45 -110q0 -64 -45 -109.5t-110 -45.5t-111 45t-46 110q0 66 45 110t111 44zM880 1442q65 0 109.5 -44.5t44.5 -109.5t-44.5 -110t-109.5 -45t-111 45t-46 110t46 109.5t111 44.5zM624 655q81 105 81 227t-70 122q-86 0 -153 -136
q-69 -139 -76 -348q137 29 218 135zM698 1069q59 0 109.5 -10.5t96 -34t72 -68t25.5 -106.5q0 -133 -142 -236q-143 -104 -453 -135q0 -139 66 -208q60 -61 142 -67q8 -1 25 -1q166 0 283 139l14 -10q-200 -356 -500 -357q-179 0 -282.5 113t-103.5 294t97 341
q89 146 240 246t311 100z" />
    <glyph glyph-name="igrave" unicode="&#xec;" horiz-adv-x="632" 
d="M600 1163h-22q-138 44 -228.5 98t-161.5 152h299q20 -133 113 -250zM252 -27q-74 0 -124 47t-50 156q0 40 10 103l86 444q8 56 8 63q0 54 -47 56q-36 0 -129 -35v8q56 84 168.5 169t197.5 85q181 0 181 -201q0 -57 -10 -104l-82 -442q-8 -56 -8 -72q0 -62 46 -62
q47 0 126 39v-8q-64 -104 -164 -175t-209 -71z" />
    <glyph glyph-name="iacute" unicode="&#xed;" horiz-adv-x="632" 
d="M276 1163h-22q93 117 113 250h299q-68 -94 -153 -143q-88 -51 -237 -107zM252 -27q-74 0 -124 47t-50 156q0 40 10 103l86 444q8 56 8 63q0 54 -47 56q-36 0 -129 -35v8q56 84 168.5 169t197.5 85q181 0 181 -201q0 -57 -10 -104l-82 -442q-8 -56 -8 -72q0 -62 46 -62
q47 0 126 39v-8q-64 -104 -164 -175t-209 -71z" />
    <glyph glyph-name="icircumflex" unicode="&#xee;" horiz-adv-x="632" 
d="M530 1413l148 -250h-21l-243 107l-291 -107h-21l230 250h198zM252 -27q-74 0 -124 47t-50 156q0 40 10 103l86 444q8 56 8 63q0 54 -47 56q-36 0 -129 -35v8q56 84 168.5 169t197.5 85q181 0 181 -201q0 -57 -10 -104l-82 -442q-8 -56 -8 -72q0 -62 46 -62q47 0 126 39
v-8q-64 -104 -164 -175t-209 -71z" />
    <glyph glyph-name="idieresis" unicode="&#xef;" horiz-adv-x="632" 
d="M381 1288q0 -65 -45 -110t-110 -45t-110.5 45t-45.5 110q0 66 45 110t111 44q65 0 110 -44.5t45 -109.5zM752 1288q0 -65 -44.5 -110t-109.5 -45q-66 0 -112 44.5t-46 110.5q0 65 46 109.5t111 44.5t110 -44.5t45 -109.5zM252 -27q-74 0 -124 47t-50 156q0 40 10 103
l86 444q8 56 8 63q0 54 -47 56q-36 0 -129 -35v8q56 84 168.5 169t197.5 85q181 0 181 -201q0 -57 -10 -104l-82 -442q-8 -56 -8 -72q0 -62 46 -62q47 0 126 39v-8q-64 -104 -164 -175t-209 -71z" />
    <glyph glyph-name="eth" unicode="&#xf0;" horiz-adv-x="1183" 
d="M520 45q39 0 73.5 36.5t58 87t43 116t29 111.5t15.5 85q23 159 23 273q0 33 -3 66.5t-12.5 79t-32.5 73t-57 26.5q-91 0 -165 -213q-74 -214 -74 -477q0 -264 102 -264zM504 -25q-185 0 -319 122q-132 121 -132 329q2 258 191 450q191 194 430 193q54 0 106 -27
q-44 155 -139 295l-176 -69l-31 57l168 68q-66 89 -127 151h12q80 -45 183 -125l207 84l30 -57l-180 -74q181 -158 292.5 -350.5t110.5 -403.5q0 -249 -190 -446q-191 -198 -436 -197z" />
    <glyph glyph-name="ntilde" unicode="&#xf1;" horiz-adv-x="1263" 
d="M818 1182q-58 0 -164 28q-108 29 -128 27q-66 0 -118 -61l-11 4q36 88 122 177q53 54 109 54q57 0 159 -28q99 -27 133 -27q66 0 122 61l9 -4q-32 -77 -99 -154t-134 -77zM893 -27q-76 1 -128 49t-52 154q0 56 10 103l82 413q8 43 8 80q0 98 -74 98q-88 0 -190 -141
l-125 -729h-365l127 723q5 33 7 61q1 58 -41 58q-41 0 -134 -35v8q60 87 170 170.5t197 83.5q174 0 174 -199q0 -23 -4 -59h8q157 258 377 258q118 0 172.5 -77t54.5 -201q0 -68 -16 -154l-59 -315q-8 -52 -9 -72q0 -62 46 -62q47 0 126 39v-8q-62 -103 -158.5 -174.5
t-203.5 -71.5z" />
    <glyph glyph-name="ograve" unicode="&#xf2;" horiz-adv-x="1183" 
d="M813 1163h-22q-137 44 -229 98t-161 152h299q20 -133 113 -250zM520 45q39 0 73.5 36.5t58 87t43 116t29 111.5t15.5 85q23 159 23 273q0 33 -3 66.5t-12.5 79t-32.5 73t-57 26.5q-91 0 -165 -213q-74 -214 -74 -477q0 -264 102 -264zM504 -25q-185 0 -319 122
q-132 121 -132 329q2 258 191 450q191 194 430 193q189 0 322 -124q134 -125 134 -327q0 -249 -190 -446q-191 -198 -436 -197z" />
    <glyph glyph-name="oacute" unicode="&#xf3;" horiz-adv-x="1183" 
d="M596 1163h-23q93 117 113 250h299q-70 -94 -153 -143q-85 -50 -236 -107zM520 45q39 0 73.5 36.5t58 87t43 116t29 111.5t15.5 85q23 159 23 273q0 33 -3 66.5t-12.5 79t-32.5 73t-57 26.5q-91 0 -165 -213q-74 -214 -74 -477q0 -264 102 -264zM504 -25q-185 0 -319 122
q-132 121 -132 329q2 258 191 450q191 194 430 193q189 0 322 -124q134 -125 134 -327q0 -249 -190 -446q-191 -198 -436 -197z" />
    <glyph glyph-name="ocircumflex" unicode="&#xf4;" horiz-adv-x="1183" 
d="M811 1413l147 -250h-20l-244 107l-291 -107h-20l229 250h199zM520 45q39 0 73.5 36.5t58 87t43 116t29 111.5t15.5 85q23 159 23 273q0 33 -3 66.5t-12.5 79t-32.5 73t-57 26.5q-91 0 -165 -213q-74 -214 -74 -477q0 -264 102 -264zM504 -25q-185 0 -319 122
q-132 121 -132 329q2 258 191 450q191 194 430 193q189 0 322 -124q134 -125 134 -327q0 -249 -190 -446q-191 -198 -436 -197z" />
    <glyph glyph-name="otilde" unicode="&#xf5;" horiz-adv-x="1183" 
d="M794 1182q-58 0 -164 28q-108 29 -128 27q-67 0 -119 -61l-10 4q31 75 98.5 153t132.5 78q56 0 158 -28q100 -27 133 -27q69 0 123 61l8 -4q-32 -77 -99 -154t-133 -77zM520 45q39 0 73.5 36.5t58 87t43 116t29 111.5t15.5 85q23 159 23 273q0 33 -3 66.5t-12.5 79
t-32.5 73t-57 26.5q-91 0 -165 -213q-74 -214 -74 -477q0 -264 102 -264zM504 -25q-185 0 -319 122q-132 121 -132 329q2 258 191 450q191 194 430 193q189 0 322 -124q134 -125 134 -327q0 -249 -190 -446q-191 -198 -436 -197z" />
    <glyph glyph-name="odieresis" unicode="&#xf6;" horiz-adv-x="1183" 
d="M641 1288q0 -65 -45 -110t-110 -45t-110.5 45t-45.5 110q0 64 45.5 109t110.5 45t110 -44.5t45 -109.5zM1012 1288q0 -65 -44.5 -110t-109.5 -45q-66 0 -112 44.5t-46 110.5t45 110t111 44t111 -44t45 -110zM520 45q39 0 73.5 36.5t58 87t43 116t29 111.5t15.5 85
q23 159 23 273q0 33 -3 66.5t-12.5 79t-32.5 73t-57 26.5q-91 0 -165 -213q-74 -214 -74 -477q0 -264 102 -264zM504 -25q-185 0 -319 122q-132 121 -132 329q2 258 191 450q191 194 430 193q189 0 322 -124q134 -125 134 -327q0 -249 -190 -446q-191 -198 -436 -197z" />
    <glyph glyph-name="divide" unicode="&#xf7;" horiz-adv-x="1267" 
d="M720 852q-55 0 -93.5 38.5t-38.5 93.5t38.5 93.5t93.5 38.5t93.5 -38.5t38.5 -93.5t-38.5 -93.5t-93.5 -38.5zM574 23q-55 2 -93.5 39.5t-38.5 91.5q0 55 38.5 94t93.5 39q54 0 94 -39t39 -93q0 -53 -39 -94q-41 -38 -94 -38zM1155 651l-27 -147h-981l27 147h981z" />
    <glyph glyph-name="oslash" unicode="&#xf8;" horiz-adv-x="1183" 
d="M420 379l338 444q-17 176 -102 176t-156 -188q-69 -184 -80 -432zM760 680l-340 -444q12 -190 100 -191q71 0 127 116q93 196 113 519zM504 -25q-132 0 -238 60l-63 -84l-72 49l66 86q-143 123 -144 340q2 258 191 450q191 194 430 193q124 0 227 -57l68 88l67 -56
l-61 -81q156 -129 155 -345q0 -249 -190 -446q-191 -198 -436 -197z" />
    <glyph glyph-name="ugrave" unicode="&#xf9;" horiz-adv-x="1263" 
d="M879 1163h-23q-137 44 -227.5 98t-161.5 152h299q20 -133 113 -250zM890 -27q-81 -1 -128 49t-47 160q0 28 2 54h-4q-64 -104 -163 -183.5t-202 -79.5q-242 0 -242 275q0 79 17 158l65 315q8 35 9 72q1 61 -49 61t-130 -39v8q58 93 154 170q95 76 213 76q74 0 126 -46
t52 -153q0 -44 -12 -106l-82 -414q-8 -43 -8 -80q0 -98 74 -98q88 0 190 141l125 731h364l-127 -725q-6 -38 -6 -61q0 -57 45 -57q36 0 129 35v-9q-56 -84 -168.5 -169t-196.5 -85z" />
    <glyph glyph-name="uacute" unicode="&#xfa;" horiz-adv-x="1263" 
d="M614 1163h-22q93 117 113 250h299q-68 -94 -153 -143q-88 -51 -237 -107zM890 -27q-81 -1 -128 49t-47 160q0 28 2 54h-4q-64 -104 -163 -183.5t-202 -79.5q-242 0 -242 275q0 79 17 158l65 315q8 35 9 72q1 61 -49 61t-130 -39v8q58 93 154 170q95 76 213 76
q74 0 126 -46t52 -153q0 -44 -12 -106l-82 -414q-8 -43 -8 -80q0 -98 74 -98q88 0 190 141l125 731h364l-127 -725q-6 -38 -6 -61q0 -57 45 -57q36 0 129 35v-9q-56 -84 -168.5 -169t-196.5 -85z" />
    <glyph glyph-name="ucircumflex" unicode="&#xfb;" horiz-adv-x="1263" 
d="M866 1413l148 -250h-21l-243 107l-291 -107h-21l230 250h198zM890 -27q-81 -1 -128 49t-47 160q0 28 2 54h-4q-64 -104 -163 -183.5t-202 -79.5q-242 0 -242 275q0 79 17 158l65 315q8 35 9 72q1 61 -49 61t-130 -39v8q58 93 154 170q95 76 213 76q74 0 126 -46t52 -153
q0 -44 -12 -106l-82 -414q-8 -43 -8 -80q0 -98 74 -98q88 0 190 141l125 731h364l-127 -725q-6 -38 -6 -61q0 -57 45 -57q36 0 129 35v-9q-56 -84 -168.5 -169t-196.5 -85z" />
    <glyph glyph-name="udieresis" unicode="&#xfc;" horiz-adv-x="1263" 
d="M549 1442q66 0 111 -44t45 -110q1 -64 -45 -110q-46 -45 -110 -45q-65 0 -111 45t-46 110q0 66 45 110t111 44zM921 1442q65 0 108.5 -44.5t45.5 -109.5q0 -65 -44.5 -110t-109.5 -45t-111 45t-46 110t46 109.5t111 44.5zM890 -27q-81 -1 -128 49t-47 160q0 28 2 54h-4
q-64 -104 -163 -183.5t-202 -79.5q-242 0 -242 275q0 79 17 158l65 315q8 35 9 72q1 61 -49 61t-130 -39v8q58 93 154 170q95 76 213 76q74 0 126 -46t52 -153q0 -44 -12 -106l-82 -414q-8 -43 -8 -80q0 -98 74 -98q88 0 190 141l125 731h364l-127 -725q-6 -38 -6 -61
q0 -57 45 -57q36 0 129 35v-9q-56 -84 -168.5 -169t-196.5 -85z" />
    <glyph glyph-name="yacute" unicode="&#xfd;" horiz-adv-x="1060" 
d="M479 1163h-22q94 118 112 250h299q-68 -93 -152 -143q-86 -51 -237 -107zM88 842q-46 0 -104 -29v8q55 84 157 166q101 82 201 82q60 0 105.5 -35.5t70.5 -93.5q43 -103 84 -326q40 -222 51 -399h4q245 369 283 549h-4q-50 -45 -120 -45q-73 0 -122 48.5t-49 121.5
q0 84 54 132t139 48q90 0 146 -57.5t56 -147.5q0 -156 -134 -376q-131 -213 -290 -432q-155 -211 -306 -350q-148 -136 -294 -136q-113 0 -169 56t-56 133q0 82 54 133.5t136 51.5q85 0 139 -76q54 -78 27 -187h5q76 28 241 200q-39 458 -167 785q-69 176 -138 176z" />
    <glyph glyph-name="thorn" unicode="&#xfe;" horiz-adv-x="1247" 
d="M715 221q98 173 98 428q0 256 -180 256q-23 0 -78 -18l-141 -819q31 -17 61 -19q141 0 240 172zM881 1069q134 -2 219 -109q86 -109 86 -296q0 -131 -60 -258t-157.5 -221t-226 -152t-259.5 -58q-23 0 -86 5l-18 -111q-25 -109 -7 -168t105 -102l-2 -9h-629l2 9
q81 42 114.5 103t51.5 167l224 1227q25 129 -2 182q-27 52 -123 96v8q105 7 289 37q172 28 257 56h9l-99 -529q135 123 312 123z" />
    <glyph glyph-name="ydieresis" unicode="&#xff;" horiz-adv-x="1060" 
d="M641 1288q0 -65 -45 -110t-110 -45t-110.5 45t-45.5 110q0 64 45.5 109t110.5 45t110 -44.5t45 -109.5zM1012 1288q0 -65 -44.5 -110t-109.5 -45q-66 0 -112 44.5t-46 110.5t45 110t111 44t111 -44t45 -110zM88 842q-46 0 -104 -29v8q55 84 157 166q101 82 201 82
q60 0 105.5 -35.5t70.5 -93.5q43 -103 84 -326q40 -222 51 -399h4q245 369 283 549h-4q-50 -45 -120 -45q-73 0 -122 48.5t-49 121.5q0 84 54 132t139 48q90 0 146 -57.5t56 -147.5q0 -156 -134 -376q-131 -213 -290 -432q-155 -211 -306 -350q-148 -136 -294 -136
q-113 0 -169 56t-56 133q0 82 54 133.5t136 51.5q85 0 139 -76q54 -78 27 -187h5q76 28 241 200q-39 458 -167 785q-69 176 -138 176z" />
    <glyph glyph-name="Amacron" unicode="&#x100;" horiz-adv-x="1638" 
d="M1303 1720l-29 -164h-553l29 164h553zM524 610h424l-98 637h-4zM1536 8v-8h-694v8q87 17 121 54q67 71 8 403l-10 57h-480q-150 -298 -149 -399q0 -57 36 -80.5t103 -34.5v-8h-547v8q82 17 130 52q106 76 329 503l446 850h336l170 -948q63 -357 123 -418q27 -27 78 -39z
" />
    <glyph glyph-name="amacron" unicode="&#x101;" horiz-adv-x="1169" 
d="M1051 1352l-29 -164h-553l29 164h553zM655 279l144 696q-49 31 -82 31q-34 0 -69 -29t-63.5 -76.5t-46 -83t-32.5 -72.5q-66 -167 -66 -376q0 -180 109 -181q53 0 98 39q5 39 8 52zM821 -23q-72 -1 -120 47q-49 49 -50 154h-6q-111 -203 -276 -203q-124 -1 -209 91
q-84 92 -84 260q0 290 193 516q194 227 438 227q41 0 141 -14q96 -15 147 -15q49 0 138 29h20l-129 -750q-6 -41 -6 -67q0 -64 45 -64t125 39v-8q-60 -93 -154 -167q-96 -75 -213 -75z" />
    <glyph glyph-name="Abreve" unicode="&#x102;" horiz-adv-x="1638" 
d="M1000 1528q-102 0 -168 88q-64 88 -60 194h8q26 -123 230 -123q203 0 274 123h8q-17 -51 -43 -98.5t-61.5 -90t-84.5 -68t-103 -25.5zM524 610h424l-98 637h-4zM1536 8v-8h-694v8q87 17 121 54q67 71 8 403l-10 57h-480q-150 -298 -149 -399q0 -57 36 -80.5t103 -34.5v-8
h-547v8q82 17 130 52q106 76 329 503l446 850h336l170 -948q63 -357 123 -418q27 -27 78 -39z" />
    <glyph glyph-name="abreve" unicode="&#x103;" horiz-adv-x="1169" 
d="M754 1159q-103 0 -167 88q-65 90 -61 195h9q27 -123 230 -123t273 123h9q-17 -52 -43 -99t-62 -90t-85 -68.5t-103 -25.5zM655 279l144 696q-49 31 -82 31q-34 0 -69 -29t-63.5 -76.5t-46 -83t-32.5 -72.5q-66 -167 -66 -376q0 -180 109 -181q53 0 98 39q5 39 8 52z
M821 -23q-72 -1 -120 47q-49 49 -50 154h-6q-111 -203 -276 -203q-124 -1 -209 91q-84 92 -84 260q0 290 193 516q194 227 438 227q41 0 141 -14q96 -15 147 -15q49 0 138 29h20l-129 -750q-6 -41 -6 -67q0 -64 45 -64t125 39v-8q-60 -93 -154 -167q-96 -75 -213 -75z" />
    <glyph glyph-name="Aogonek" unicode="&#x104;" horiz-adv-x="1638" 
d="M524 610h424l-98 637h-4zM1282 -428q-56 0 -92 37q-36 38 -35 87q0 96 131 183q97 64 217 121h-661v8q87 17 121 54q67 71 8 403l-10 57h-480q-150 -298 -149 -399q0 -57 36 -80.5t103 -34.5v-8h-547v8q82 17 130 52q106 76 329 503l446 850h336l170 -948
q63 -357 123 -418q27 -27 78 -39v-8q-170 -137 -170 -268q0 -26 19 -43t45 -17q18 0 40 6l-2 -8q-30 -41 -83.5 -69.5t-102.5 -28.5z" />
    <glyph glyph-name="aogonek" unicode="&#x105;" horiz-adv-x="1169" 
d="M657 279l142 696q-49 31 -82 31q-34 0 -69 -29t-63.5 -76.5t-46 -83t-32.5 -72.5q-66 -167 -66 -376q0 -180 109 -181q55 0 100 39q5 39 8 52zM868 -428q-55 0 -91 36t-36 91q0 97 162 236q10 9 29 26.5t28 25.5q37 33 76 66q-109 -76 -198 -76q-182 0 -187 201h-6
q-111 -203 -276 -203q-124 -1 -209 91q-84 92 -84 260q0 290 193 516q194 227 438 227q41 0 141 -14q96 -15 147 -15q49 0 138 29h20l-129 -750q-6 -41 -6 -67q0 -64 45 -64t125 39v-8q-24 -53 -92 -154q-44 -65 -68.5 -105.5t-50 -106.5t-25.5 -121q0 -26 20 -43t46 -17
q16 0 39 6l-2 -8q-30 -41 -83.5 -69.5t-103.5 -28.5z" />
    <glyph glyph-name="Cacute" unicode="&#x106;" horiz-adv-x="1472" 
d="M928 1532h-23q93 117 113 250h299q-38 -50 -80 -88t-97.5 -68t-95.5 -47.5t-116 -46.5zM1380 430l-100 -369q-198 -92 -415 -92q-446 0 -658 291q-107 148 -107 362q0 223 140 415.5t351 296.5q221 108 469 108q247 0 433 -86l-47 -346h-8q-30 76 -62.5 133.5t-80 111
t-111.5 82.5t-142 29q-135 0 -239.5 -82.5t-164.5 -214.5q-122 -270 -122 -516q0 -248 88 -378t230 -130q251 0 534 385h12z" />
    <glyph glyph-name="cacute" unicode="&#x107;" horiz-adv-x="948" 
d="M567 1163h-22q94 118 112 250h299q-68 -93 -152 -143q-86 -51 -237 -107zM707 1069q122 0 183 -59q60 -58 60 -136t-49 -135t-126 -57q-69 0 -122 46t-53 114q0 58 35.5 109.5t89.5 80.5h-20q-125 -20 -212 -186t-87 -375q0 -69 18 -127t65.5 -99.5t118.5 -41.5
q135 0 252 139l14 -10q-151 -355 -454 -357q-175 0 -272 112t-99 290q0 270 214 481t444 211z" />
    <glyph glyph-name="Ccircumflex" unicode="&#x108;" horiz-adv-x="1472" 
d="M1135 1782l147 -250h-20l-244 106l-291 -106h-20l229 250h199zM1380 430l-100 -369q-198 -92 -415 -92q-446 0 -658 291q-107 148 -107 362q0 223 140 415.5t351 296.5q221 108 469 108q247 0 433 -86l-47 -346h-8q-30 76 -62.5 133.5t-80 111t-111.5 82.5t-142 29
q-135 0 -239.5 -82.5t-164.5 -214.5q-122 -270 -122 -516q0 -248 88 -378t230 -130q251 0 534 385h12z" />
    <glyph glyph-name="ccircumflex" unicode="&#x109;" horiz-adv-x="948" 
d="M786 1413l148 -250h-21l-243 107l-291 -107h-21l230 250h198zM707 1069q122 0 183 -59q60 -58 60 -136t-49 -135t-126 -57q-69 0 -122 46t-53 114q0 58 35.5 109.5t89.5 80.5h-20q-125 -20 -212 -186t-87 -375q0 -69 18 -127t65.5 -99.5t118.5 -41.5q135 0 252 139
l14 -10q-151 -355 -454 -357q-175 0 -272 112t-99 290q0 270 214 481t444 211z" />
    <glyph glyph-name="Cdotaccent" unicode="&#x10a;" horiz-adv-x="1472" 
d="M1062 1505q-69 0 -118 49.5t-49 118.5q0 70 48 118t118 48q69 0 118.5 -48.5t49.5 -117.5t-49 -118.5t-118 -49.5zM1380 430l-100 -369q-198 -92 -415 -92q-446 0 -658 291q-107 148 -107 362q0 223 140 415.5t351 296.5q221 108 469 108q247 0 433 -86l-47 -346h-8
q-30 76 -62.5 133.5t-80 111t-111.5 82.5t-142 29q-135 0 -239.5 -82.5t-164.5 -214.5q-122 -270 -122 -516q0 -248 88 -378t230 -130q251 0 534 385h12z" />
    <glyph glyph-name="cdotaccent" unicode="&#x10b;" horiz-adv-x="948" 
d="M689 1137q-69 0 -118 49.5t-49 118.5q0 70 48 117.5t118 47.5q69 0 118.5 -48.5t49.5 -117.5q0 -68 -49.5 -117.5t-117.5 -49.5zM707 1069q122 0 183 -59q60 -58 60 -136t-49 -135t-126 -57q-69 0 -122 46t-53 114q0 58 35.5 109.5t89.5 80.5h-20q-125 -20 -212 -186
t-87 -375q0 -69 18 -127t65.5 -99.5t118.5 -41.5q135 0 252 139l14 -10q-151 -355 -454 -357q-175 0 -272 112t-99 290q0 270 214 481t444 211z" />
    <glyph glyph-name="Ccaron" unicode="&#x10c;" horiz-adv-x="1472" 
d="M1368 1782l-233 -250h-199l-143 250h20l242 -107l293 107h20zM1380 430l-100 -369q-198 -92 -415 -92q-446 0 -658 291q-107 148 -107 362q0 223 140 415.5t351 296.5q221 108 469 108q247 0 433 -86l-47 -346h-8q-30 76 -62.5 133.5t-80 111t-111.5 82.5t-142 29
q-135 0 -239.5 -82.5t-164.5 -214.5q-122 -270 -122 -516q0 -248 88 -378t230 -130q251 0 534 385h12z" />
    <glyph glyph-name="ccaron" unicode="&#x10d;" horiz-adv-x="948" 
d="M961 1413l-234 -250h-199l-143 250h21l241 -106l293 106h21zM707 1069q122 0 183 -59q60 -58 60 -136t-49 -135t-126 -57q-69 0 -122 46t-53 114q0 58 35.5 109.5t89.5 80.5h-20q-125 -20 -212 -186t-87 -375q0 -69 18 -127t65.5 -99.5t118.5 -41.5q135 0 252 139l14 -10
q-151 -355 -454 -357q-175 0 -272 112t-99 290q0 270 214 481t444 211z" />
    <glyph glyph-name="Dcaron" unicode="&#x10e;" horiz-adv-x="1628" 
d="M1264 1782l-234 -250h-199l-143 250h21l241 -107l293 107h21zM666 0h-721v8q52 22 86 47t54.5 62t31 72.5t22.5 97.5l150 848q12 69 12 119q0 54 -28 87.5t-83 63.5l3 8h659q121 0 228 -20.5t202 -66.5t163.5 -115t108.5 -171.5t39 -230.5q-1 -149 -52.5 -280
t-140.5 -226.5t-206 -164.5t-252 -103.5t-276 -34.5zM483 76h148q108 0 203 46t164 130q198 244 198 596q0 101 -22.5 186.5t-68 154.5t-124.5 108.5t-184 39.5h-90z" />
    <glyph glyph-name="dcaron" unicode="&#x10f;" horiz-adv-x="1441" 
d="M1356 982q0 51 -32 162t-32 158q0 52 44 93t96 41q57 0 95 -41.5t38 -98.5q1 -55 -85 -173q-87 -120 -106 -210h-20q2 22 2 69zM719 1004q-86 0 -182 -195q-95 -194 -97 -440q0 -180 109 -181q71 2 129 54l133 719q-50 43 -92 43zM829 -27q-71 -2 -113 57q-42 58 -36 177
h-4q-127 -231 -307 -232q-124 -1 -209 91q-84 92 -84 260q0 291 196 517t455 226q48 0 102 -10l9 37q14 61 14 116q0 62 -35.5 98t-103.5 64v8q105 7 289 37q171 28 258 56h8l-211 -1153q-8 -56 -8 -72q0 -62 46 -62q47 0 126 39v-8q-55 -88 -164 -167t-228 -79z" />
    <glyph glyph-name="Dcroat" unicode="&#x110;" horiz-adv-x="1628" 
d="M483 76h148q108 0 203 46t164 130q198 244 198 596q0 101 -22.5 186.5t-68 154.5t-124.5 108.5t-184 39.5h-90l-101 -567h189l-17 -92h-188zM666 0h-721v8q52 22 86 47t54.5 62t31 72.5t22.5 97.5l68 391h-105l17 92h104l66 365q12 69 12 119q0 54 -28 87.5t-83 63.5l3 8
h659q121 0 228 -20.5t202 -66.5t163.5 -115t108.5 -171.5t39 -230.5q-1 -149 -52.5 -280t-140.5 -226.5t-206 -164.5t-252 -103.5t-276 -34.5z" />
    <glyph glyph-name="dcroat" unicode="&#x111;" horiz-adv-x="1226" 
d="M719 1004q-86 0 -182 -195q-95 -194 -97 -440q0 -180 109 -181q71 2 129 54l133 719q-50 43 -92 43zM829 -27q-172 0 -155 224q-123 -220 -305 -222q-124 -1 -209 91q-84 92 -84 260q0 291 196 517t455 226q48 0 102 -10l9 37q9 56 10 65h-213l16 88h195q-17 74 -133 125
v8q105 7 289 37q171 28 258 56h8l-41 -226h121l-17 -88h-121l-153 -842q-17 -101 13 -123q9 -7 28 -6q38 0 123 37v-8q-55 -88 -164 -167t-228 -79z" />
    <glyph glyph-name="Emacron" unicode="&#x112;" horiz-adv-x="1277" 
d="M1092 1720l-29 -164h-553l29 164h553zM1065 0h-1120v8q52 22 86 47t54.5 62t31 72.5t22.5 97.5l150 848q25 109 7 168t-106 102l3 8h1060l-67 -389h-15q-71 190 -132 252q-61 61 -197 61h-135l-103 -573h94q125 0 204.5 39.5t162.5 138.5h14l-75 -424h-15
q-48 99 -116.5 134.5t-186.5 35.5h-94l-109 -612h146q134 0 248 90q72 56 288 258h15z" />
    <glyph glyph-name="emacron" unicode="&#x113;" horiz-adv-x="1011" 
d="M979 1352l-29 -164h-553l29 164h553zM624 655q81 105 81 227t-70 122q-86 0 -153 -136q-69 -139 -76 -348q137 29 218 135zM698 1069q59 0 109.5 -10.5t96 -34t72 -68t25.5 -106.5q0 -133 -142 -236q-143 -104 -453 -135q0 -139 66 -208q60 -61 142 -67q8 -1 25 -1
q166 0 283 139l14 -10q-200 -356 -500 -357q-179 0 -282.5 113t-103.5 294t97 341q89 146 240 246t311 100z" />
    <glyph glyph-name="Ebreve" unicode="&#x114;" horiz-adv-x="1277" 
d="M801 1528q-103 0 -167 88q-65 90 -61 194h9q27 -123 230 -123q202 0 273 123h9q-18 -52 -43.5 -99t-61.5 -89.5t-85 -68t-103 -25.5zM1065 0h-1120v8q52 22 86 47t54.5 62t31 72.5t22.5 97.5l150 848q25 109 7 168t-106 102l3 8h1060l-67 -389h-15q-71 190 -132 252
q-61 61 -197 61h-135l-103 -573h94q125 0 204.5 39.5t162.5 138.5h14l-75 -424h-15q-48 99 -116.5 134.5t-186.5 35.5h-94l-109 -612h146q134 0 248 90q72 56 288 258h15z" />
    <glyph glyph-name="ebreve" unicode="&#x115;" horiz-adv-x="1011" 
d="M676 1159q-103 0 -167 88q-65 89 -60 195h8q27 -123 231 -123t273 123h8q-17 -52 -43 -99t-62 -90t-85 -68.5t-103 -25.5zM624 655q81 105 81 227t-70 122q-86 0 -153 -136q-69 -139 -76 -348q137 29 218 135zM698 1069q59 0 109.5 -10.5t96 -34t72 -68t25.5 -106.5
q0 -133 -142 -236q-143 -104 -453 -135q0 -139 66 -208q60 -61 142 -67q8 -1 25 -1q166 0 283 139l14 -10q-200 -356 -500 -357q-179 0 -282.5 113t-103.5 294t97 341q89 146 240 246t311 100z" />
    <glyph glyph-name="Edotaccent" unicode="&#x116;" horiz-adv-x="1277" 
d="M804 1505q-69 0 -118 49.5t-49 118.5q0 70 48 118t118 48q69 0 118.5 -48.5t49.5 -117.5t-49 -118.5t-118 -49.5zM1065 0h-1120v8q52 22 86 47t54.5 62t31 72.5t22.5 97.5l150 848q25 109 7 168t-106 102l3 8h1060l-67 -389h-15q-71 190 -132 252q-61 61 -197 61h-135
l-103 -573h94q125 0 204.5 39.5t162.5 138.5h14l-75 -424h-15q-48 99 -116.5 134.5t-186.5 35.5h-94l-109 -612h146q134 0 248 90q72 56 288 258h15z" />
    <glyph glyph-name="edotaccent" unicode="&#x117;" horiz-adv-x="1011" 
d="M693 1137q-69 0 -118 49.5t-49 118.5q0 70 48 117.5t118 47.5q69 0 118.5 -48.5t49.5 -117.5q0 -68 -49.5 -117.5t-117.5 -49.5zM624 655q81 105 81 227t-70 122q-86 0 -153 -136q-69 -139 -76 -348q137 29 218 135zM698 1069q59 0 109.5 -10.5t96 -34t72 -68
t25.5 -106.5q0 -133 -142 -236q-143 -104 -453 -135q0 -139 66 -208q60 -61 142 -67q8 -1 25 -1q166 0 283 139l14 -10q-200 -356 -500 -357q-179 0 -282.5 113t-103.5 294t97 341q89 146 240 246t311 100z" />
    <glyph glyph-name="Eogonek" unicode="&#x118;" horiz-adv-x="1277" 
d="M811 -428q-53 0 -90 35.5t-37 88.5q0 96 131 183q97 64 217 121h-1087v8q52 22 86 47t54.5 62t31 72.5t22.5 97.5l150 848q25 109 7 168t-106 102l3 8h1060l-67 -389h-15q-71 190 -132 252q-61 61 -197 61h-135l-103 -573h94q125 0 204.5 39.5t162.5 138.5h14l-75 -424
h-15q-48 99 -116.5 134.5t-186.5 35.5h-94l-109 -612h146q134 0 248 90q72 56 288 258h15l-115 -424q-170 -137 -170 -268q0 -26 19 -43t45 -17q17 0 40 6l-2 -8q-31 -41 -83.5 -69.5t-102.5 -28.5z" />
    <glyph glyph-name="eogonek" unicode="&#x119;" horiz-adv-x="1011" 
d="M624 655q81 105 81 227t-70 122q-86 0 -153 -136q-69 -139 -76 -348q137 29 218 135zM586 -428q-56 0 -92 37q-36 38 -35 89q0 52 79 143q74 85 190 209q112 118 159 198q-181 -271 -451 -273q-179 0 -282.5 113t-103.5 294q0 179 96 339t253 255q155 93 299 93
q59 0 109.5 -10.5t96 -34t72 -68t25.5 -106.5q0 -133 -142 -236q-143 -104 -453 -135q0 -139 66 -208q60 -61 142 -67q8 -1 25 -1q166 0 283 139l14 -10q-29 -66 -94 -194q-172 -343 -172 -406q0 -26 19 -43t45 -17q18 0 40 6l-2 -8q-30 -41 -83.5 -69.5t-102.5 -28.5z" />
    <glyph glyph-name="Ecaron" unicode="&#x11a;" horiz-adv-x="1277" 
d="M1106 1782l-234 -250h-198l-144 250h21l242 -107l292 107h21zM1065 0h-1120v8q52 22 86 47t54.5 62t31 72.5t22.5 97.5l150 848q25 109 7 168t-106 102l3 8h1060l-67 -389h-15q-71 190 -132 252q-61 61 -197 61h-135l-103 -573h94q125 0 204.5 39.5t162.5 138.5h14
l-75 -424h-15q-48 99 -116.5 134.5t-186.5 35.5h-94l-109 -612h146q134 0 248 90q72 56 288 258h15z" />
    <glyph glyph-name="ecaron" unicode="&#x11b;" horiz-adv-x="1011" 
d="M987 1413l-233 -250h-199l-143 250h20l242 -106l293 106h20zM624 655q81 105 81 227t-70 122q-86 0 -153 -136q-69 -139 -76 -348q137 29 218 135zM698 1069q59 0 109.5 -10.5t96 -34t72 -68t25.5 -106.5q0 -133 -142 -236q-143 -104 -453 -135q0 -139 66 -208
q60 -61 142 -67q8 -1 25 -1q166 0 283 139l14 -10q-200 -356 -500 -357q-179 0 -282.5 113t-103.5 294t97 341q89 146 240 246t311 100z" />
    <glyph glyph-name="Gcircumflex" unicode="&#x11c;" horiz-adv-x="1589" 
d="M1196 1782l147 -250h-20l-244 106l-291 -106h-20l229 250h199zM795 -31q-282 0 -479 170t-195 455q0 185 88 350.5t241 275.5q145 104 312.5 162.5t339.5 59.5q283 0 463 -86l-49 -346h-9q-176 356 -415 356q-240 0 -404 -245t-164 -625q0 -93 18.5 -169t59 -137t111 -95
t166.5 -34q82 0 137 13l63 358q6 38 6 70q0 98 -102 155l2 9h612l-2 -9q-37 -18 -60.5 -33.5t-39 -30.5t-25.5 -40.5t-15 -48t-13 -68.5l-66 -375q-342 -92 -581 -92z" />
    <glyph glyph-name="gcircumflex" unicode="&#x11d;" horiz-adv-x="1003" 
d="M737 1413l148 -250h-21l-243 107l-291 -107h-21l230 250h198zM442 848q-43 -148 -43 -300q0 -151 71 -149q43 0 76 56.5t48 138t22 147.5t7 109q0 75 -17.5 112.5t-52.5 36.5q-68 -2 -111 -151zM678 -240q0 60 -54 95t-175 69l-240 70q-63 -58 -63 -154q0 -67 48 -119.5
t113.5 -76.5t130.5 -24q36 0 74 6.5t77 21t64 43.5t25 69zM340 -430q-62 0 -141.5 12.5t-167 38.5t-146.5 77.5t-59 119.5q0 52 36 91t93.5 59t108 29.5t100.5 12.5v4q-94 49 -94 132q0 85 62.5 144t150.5 75v4q-207 94 -207 290q0 167 143 289q142 121 356 121
q91 0 168 -31h33q63 0 133.5 44t104.5 100q131 -39 131 -138q0 -50 -32.5 -82t-82.5 -32q-98 0 -190 53l-4 -6q58 -53 87 -105t27 -129q0 -191 -154 -300q-156 -110 -345 -109q-71 0 -132 18q-33 -30 -11 -60q23 -30 91 -48l230 -60q187 -50 254 -114t67 -166t-88 -183
q-66 -61 -159 -96.5t-175 -45t-188 -9.5z" />
    <glyph glyph-name="Gbreve" unicode="&#x11e;" horiz-adv-x="1589" 
d="M1100 1528q-103 0 -167 88q-65 90 -61 194h9q27 -123 230 -123t273 123h9q-18 -52 -43.5 -99t-61.5 -89.5t-85 -68t-103 -25.5zM795 -31q-282 0 -479 170t-195 455q0 185 88 350.5t241 275.5q145 104 312.5 162.5t339.5 59.5q283 0 463 -86l-49 -346h-9
q-176 356 -415 356q-240 0 -404 -245t-164 -625q0 -93 18.5 -169t59 -137t111 -95t166.5 -34q82 0 137 13l63 358q6 38 6 70q0 98 -102 155l2 9h612l-2 -9q-37 -18 -60.5 -33.5t-39 -30.5t-25.5 -40.5t-15 -48t-13 -68.5l-66 -375q-342 -92 -581 -92z" />
    <glyph glyph-name="gbreve" unicode="&#x11f;" horiz-adv-x="1003" 
d="M588 1159q-103 0 -167 88q-65 90 -61 195h9q27 -123 230 -123t273 123h9q-17 -52 -43 -99t-62 -90t-85 -68.5t-103 -25.5zM442 848q-43 -148 -43 -300q0 -151 71 -149q43 0 76 56.5t48 138t22 147.5t7 109q0 75 -17.5 112.5t-52.5 36.5q-68 -2 -111 -151zM678 -240
q0 60 -54 95t-175 69l-240 70q-63 -58 -63 -154q0 -67 48 -119.5t113.5 -76.5t130.5 -24q36 0 74 6.5t77 21t64 43.5t25 69zM340 -430q-62 0 -141.5 12.5t-167 38.5t-146.5 77.5t-59 119.5q0 52 36 91t93.5 59t108 29.5t100.5 12.5v4q-94 49 -94 132q0 85 62.5 144t150.5 75
v4q-207 94 -207 290q0 167 143 289q142 121 356 121q91 0 168 -31h33q63 0 133.5 44t104.5 100q131 -39 131 -138q0 -50 -32.5 -82t-82.5 -32q-98 0 -190 53l-4 -6q58 -53 87 -105t27 -129q0 -191 -154 -300q-156 -110 -345 -109q-71 0 -132 18q-33 -30 -11 -60
q23 -30 91 -48l230 -60q187 -50 254 -114t67 -166t-88 -183q-66 -61 -159 -96.5t-175 -45t-188 -9.5z" />
    <glyph glyph-name="Gdotaccent" unicode="&#x120;" horiz-adv-x="1589" 
d="M1094 1839q69 0 117.5 -48.5t50.5 -117.5q0 -69 -49 -118.5t-118 -49.5t-118 49.5t-49 118.5q0 70 48 118t118 48zM795 -31q-282 0 -479 170t-195 455q0 185 88 350.5t241 275.5q145 104 312.5 162.5t339.5 59.5q283 0 463 -86l-49 -346h-9q-176 356 -415 356
q-240 0 -404 -245t-164 -625q0 -93 18.5 -169t59 -137t111 -95t166.5 -34q82 0 137 13l63 358q6 38 6 70q0 98 -102 155l2 9h612l-2 -9q-37 -18 -60.5 -33.5t-39 -30.5t-25.5 -40.5t-15 -48t-13 -68.5l-66 -375q-342 -92 -581 -92z" />
    <glyph glyph-name="gdotaccent" unicode="&#x121;" horiz-adv-x="1003" 
d="M613 1137q-68 0 -116.5 49.5t-50.5 118.5q0 70 48 117.5t118 47.5q69 0 118.5 -48.5t49.5 -117.5q0 -68 -49.5 -117.5t-117.5 -49.5zM442 848q-43 -148 -43 -300q0 -151 71 -149q43 0 76 56.5t48 138t22 147.5t7 109q0 75 -17.5 112.5t-52.5 36.5q-68 -2 -111 -151z
M678 -240q0 60 -54 95t-175 69l-240 70q-63 -58 -63 -154q0 -67 48 -119.5t113.5 -76.5t130.5 -24q36 0 74 6.5t77 21t64 43.5t25 69zM340 -430q-62 0 -141.5 12.5t-167 38.5t-146.5 77.5t-59 119.5q0 52 36 91t93.5 59t108 29.5t100.5 12.5v4q-94 49 -94 132q0 85 62.5 144
t150.5 75v4q-207 94 -207 290q0 167 143 289q142 121 356 121q91 0 168 -31h33q63 0 133.5 44t104.5 100q131 -39 131 -138q0 -50 -32.5 -82t-82.5 -32q-98 0 -190 53l-4 -6q58 -53 87 -105t27 -129q0 -191 -154 -300q-156 -110 -345 -109q-71 0 -132 18q-33 -30 -11 -60
q23 -30 91 -48l230 -60q187 -50 254 -114t67 -166t-88 -183q-66 -61 -159 -96.5t-175 -45t-188 -9.5z" />
    <glyph glyph-name="Gcommaaccent" unicode="&#x122;" horiz-adv-x="1589" 
d="M717 -399q-1 25 -21 67q-20 43 -20 91q0 55 44.5 95t99.5 40q66 0 110.5 -45t44.5 -111q0 -113 -114 -197q-113 -83 -255 -127l-6 4q117 102 117 183zM795 -31q-282 0 -479 170t-195 455q0 185 88 350.5t241 275.5q145 104 312.5 162.5t339.5 59.5q283 0 463 -86
l-49 -346h-9q-176 356 -415 356q-240 0 -404 -245t-164 -625q0 -93 18.5 -169t59 -137t111 -95t166.5 -34q82 0 137 13l63 358q6 38 6 70q0 98 -102 155l2 9h612l-2 -9q-37 -18 -60.5 -33.5t-39 -30.5t-25.5 -40.5t-15 -48t-13 -68.5l-66 -375q-342 -92 -581 -92z" />
    <glyph glyph-name="gcommaaccent" unicode="&#x123;" horiz-adv-x="1003" 
d="M737 1427q1 -25 21 -67q20 -43 20 -91q0 -54 -44 -94t-100 -40q-67 0 -111 44.5t-44 110.5q0 113 114 197q113 83 255 127l6 -4q-117 -102 -117 -183zM442 848q-43 -148 -43 -300q0 -151 71 -149q43 0 76 56.5t48 138t22 147.5t7 109q0 75 -17.5 112.5t-52.5 36.5
q-68 -2 -111 -151zM678 -240q0 60 -54 95t-175 69l-240 70q-63 -58 -63 -154q0 -67 48 -119.5t113.5 -76.5t130.5 -24q36 0 74 6.5t77 21t64 43.5t25 69zM340 -430q-62 0 -141.5 12.5t-167 38.5t-146.5 77.5t-59 119.5q0 52 36 91t93.5 59t108 29.5t100.5 12.5v4
q-94 49 -94 132q0 85 62.5 144t150.5 75v4q-207 94 -207 290q0 167 143 289q142 121 356 121q91 0 168 -31h33q63 0 133.5 44t104.5 100q131 -39 131 -138q0 -50 -32.5 -82t-82.5 -32q-98 0 -190 53l-4 -6q58 -53 87 -105t27 -129q0 -191 -154 -300q-156 -110 -345 -109
q-71 0 -132 18q-33 -30 -11 -60q23 -30 91 -48l230 -60q187 -50 254 -114t67 -166t-88 -183q-66 -61 -159 -96.5t-175 -45t-188 -9.5z" />
    <glyph glyph-name="Hcircumflex" unicode="&#x124;" horiz-adv-x="1642" 
d="M1143 1782l147 -250h-20l-244 106l-291 -106h-20l229 250h199zM1530 8v-8h-672v8q100 42 136 100q37 60 59 179l69 391h-532l-70 -391q-26 -110 -8 -172q18 -63 104 -107v-8h-671v8q52 22 86 47t54.5 62t31 72.5t22.5 97.5l150 848q25 109 7 168t-106 102l3 8h671l-2 -8
q-100 -43 -136.5 -98.5t-55.5 -171.5l-64 -365h533l63 365q24 109 6 168q-18 58 -104 102l2 8h672l-2 -8q-100 -44 -136 -98.5t-57 -171.5l-149 -848q-25 -107 -8 -172q17 -63 104 -107z" />
    <glyph glyph-name="hcircumflex" unicode="&#x125;" horiz-adv-x="1243" 
d="M606 1753l148 -250h-21l-244 107l-290 -107h-21l230 250h198zM868 -27q-74 0 -126 46t-52 153q0 45 12 107l82 413q7 40 9 80q0 98 -74 98q-88 0 -189 -137l-133 -733h-366l207 1096q12 62 12 118q0 62 -35 97t-102 63v8q105 7 289 37q172 28 257 56h9l-129 -668h8
q67 105 162 183.5t196 78.5q242 0 242 -274q0 -64 -17 -158l-59 -315q-8 -56 -8 -72q0 -62 46 -62q47 0 126 39v-8q-56 -93 -153 -170q-95 -76 -214 -76z" />
    <glyph glyph-name="Hbar" unicode="&#x126;" horiz-adv-x="1642" 
d="M606 770h533l37 215h-533zM1530 8v-8h-672v8q100 42 136 100q37 60 59 179l69 391h-532l-70 -391q-26 -110 -8 -172q18 -63 104 -107v-8h-671v8q52 22 86 47t54.5 62t31 72.5t22.5 97.5l123 698h-92l16 92h93l10 58q25 109 7 168t-106 102l3 8h671l-2 -8
q-100 -43 -136.5 -98.5t-55.5 -171.5l-11 -58h533l10 58q24 109 6 168q-18 58 -104 102l2 8h672l-2 -8q-100 -44 -136 -98.5t-57 -171.5l-10 -58h108l-16 -92h-109l-122 -698q-25 -107 -8 -172q17 -63 104 -107z" />
    <glyph glyph-name="hbar" unicode="&#x127;" horiz-adv-x="1243" 
d="M880 -27q-105 0 -157 70t-21 236l82 413q34 178 -65 178q-88 0 -189 -137l-133 -733h-366l207 1096q2 12 8 65h-103l17 88h84q-8 46 -42.5 74.5t-88.5 50.5v8q105 7 289 37q172 28 257 56h9l-43 -226h231l-16 -88h-232l-61 -340q63 102 158.5 175t199.5 73
q307 0 225 -432l-59 -318q-17 -101 13 -123q9 -7 28 -6q38 0 123 37v-8q-61 -100 -157 -173t-198 -73z" />
    <glyph glyph-name="Itilde" unicode="&#x128;" horiz-adv-x="729" 
d="M369 1606q-66 0 -119 -62l-10 4q18 45 51 95.5t83.5 93.5t95.5 43q58 0 160 -28t134 -28q66 2 121 62l8 -4q-38 -93 -106 -161q-71 -71 -126 -71q-58 0 -164 28t-128 28zM616 8v-8h-671v8q100 43 136.5 98.5t55.5 172.5l152 856q25 109 7 168t-106 102l3 8h671l-2 -8
q-100 -43 -136.5 -98.5t-55.5 -171.5l-152 -856q-24 -109 -6 -168t104 -103z" />
    <glyph glyph-name="itilde" unicode="&#x129;" horiz-adv-x="632" 
d="M495 1182q-58 0 -164 28q-108 29 -128 27q-67 0 -119 -61l-10 4q31 75 98.5 153t132.5 78q57 0 159 -28q100 -27 132 -27q69 0 123 61l8 -4q-32 -77 -99 -154t-133 -77zM252 -27q-74 0 -124 47t-50 156q0 40 10 103l86 444q8 56 8 63q0 54 -47 56q-36 0 -129 -35v8
q56 84 168.5 169t197.5 85q181 0 181 -201q0 -57 -10 -104l-82 -442q-8 -56 -8 -72q0 -62 46 -62q47 0 126 39v-8q-64 -104 -164 -175t-209 -71z" />
    <glyph glyph-name="Imacron" unicode="&#x12a;" horiz-adv-x="729" 
d="M844 1720l-29 -164h-553l29 164h553zM616 8v-8h-671v8q100 43 136.5 98.5t55.5 172.5l152 856q25 109 7 168t-106 102l3 8h671l-2 -8q-100 -43 -136.5 -98.5t-55.5 -171.5l-152 -856q-24 -109 -6 -168t104 -103z" />
    <glyph glyph-name="imacron" unicode="&#x12b;" horiz-adv-x="632" 
d="M696 1352l-28 -164h-553l28 164h553zM252 -27q-74 0 -124 47t-50 156q0 40 10 103l86 444q8 56 8 63q0 54 -47 56q-36 0 -129 -35v8q56 84 168.5 169t197.5 85q181 0 181 -201q0 -57 -10 -104l-82 -442q-8 -56 -8 -72q0 -62 46 -62q47 0 126 39v-8q-64 -104 -164 -175
t-209 -71z" />
    <glyph glyph-name="Ibreve" unicode="&#x12c;" horiz-adv-x="729" 
d="M528 1528q-103 0 -167 88t-60 194h8q27 -123 231 -123t273 123h8q-18 -52 -43.5 -99t-61.5 -89.5t-85 -68t-103 -25.5zM616 8v-8h-671v8q100 43 136.5 98.5t55.5 172.5l152 856q25 109 7 168t-106 102l3 8h671l-2 -8q-100 -43 -136.5 -98.5t-55.5 -171.5l-152 -856
q-24 -109 -6 -168t104 -103z" />
    <glyph glyph-name="ibreve" unicode="&#x12d;" horiz-adv-x="632" 
d="M410 1159q-103 0 -167 88q-65 90 -61 195h8q26 -123 230 -123t274 123h8q-17 -52 -43 -99.5t-61.5 -90t-84.5 -68t-103 -25.5zM252 -27q-74 0 -124 47t-50 156q0 40 10 103l86 444q8 56 8 63q0 54 -47 56q-36 0 -129 -35v8q56 84 168.5 169t197.5 85q181 0 181 -201
q0 -57 -10 -104l-82 -442q-8 -56 -8 -72q0 -62 46 -62q47 0 126 39v-8q-64 -104 -164 -175t-209 -71z" />
    <glyph glyph-name="Iogonek" unicode="&#x12e;" horiz-adv-x="729" 
d="M356 -428q-53 0 -90 35.5t-37 88.5q0 96 131 183q96 63 218 121h-633v8q100 43 136.5 98.5t55.5 172.5l152 856q25 109 7 168t-106 102l3 8h671l-2 -8q-100 -43 -136.5 -98.5t-55.5 -171.5l-152 -856q-24 -109 -6 -168t104 -103v-8q-176 -135 -176 -268q0 -26 20 -43
t46 -17q16 0 39 6l-2 -8q-30 -41 -83.5 -69.5t-103.5 -28.5z" />
    <glyph glyph-name="iogonek" unicode="&#x12f;" horiz-adv-x="632" 
d="M453 1098q-77 0 -130 54.5t-55 131.5q0 77 54 130.5t131 53.5t131.5 -54t54.5 -130t-54.5 -131t-131.5 -55zM305 -428q-53 0 -90 36t-37 89q0 50 38 103q54 80 204 207q45 40 55 48q-110 -82 -223 -82q-74 0 -124 47t-50 156q0 40 10 103l86 444q8 56 8 63q0 54 -47 56
q-36 0 -129 -35v8q56 84 168.5 169t197.5 85q181 0 181 -201q0 -57 -10 -104l-82 -442q-8 -56 -8 -72q0 -62 46 -62q47 0 126 39v-8q-26 -55 -93 -154q-44 -65 -68 -105.5t-49 -106t-26 -121.5q0 -26 19 -43t45 -17q18 0 41 6l-2 -8q-30 -41 -83.5 -69.5t-103.5 -28.5z" />
    <glyph glyph-name="Idotaccent" unicode="&#x130;" horiz-adv-x="729" 
d="M550 1505q-69 0 -118 49.5t-49 118.5q0 70 48 118t118 48q69 0 118.5 -48.5t49.5 -117.5t-49 -118.5t-118 -49.5zM616 8v-8h-671v8q100 43 136.5 98.5t55.5 172.5l152 856q25 109 7 168t-106 102l3 8h671l-2 -8q-100 -43 -136.5 -98.5t-55.5 -171.5l-152 -856
q-24 -109 -6 -168t104 -103z" />
    <glyph glyph-name="dotlessi" unicode="&#x131;" horiz-adv-x="632" 
d="M252 -27q-74 0 -124 47t-50 156q0 40 10 103l86 444q8 56 8 63q0 54 -47 56q-36 0 -129 -35v8q56 84 168.5 169t197.5 85q181 0 181 -201q0 -57 -10 -104l-82 -442q-8 -56 -8 -72q0 -62 46 -62q47 0 126 39v-8q-64 -104 -164 -175t-209 -71z" />
    <glyph glyph-name="IJ" unicode="&#x132;" horiz-adv-x="1499" 
d="M573 -428l-6 6q99 49 162.5 169t87.5 251l201 1137q24 109 6 168q-18 58 -104 102l2 8h671l-2 -8q-100 -43 -136.5 -98.5t-55.5 -171.5l-172 -975q-79 -441 -654 -588zM616 8v-8h-671v8q100 43 136.5 98.5t55.5 172.5l152 856q25 109 7 168t-106 102l3 8h671l-2 -8
q-100 -43 -136.5 -98.5t-55.5 -171.5l-152 -856q-24 -109 -6 -168t104 -103z" />
    <glyph glyph-name="ij" unicode="&#x133;" horiz-adv-x="1241" 
d="M813 784q0 58 -41 58q-40 0 -133 -35v8q56 84 168.5 169t197.5 85q181 0 181 -201q0 -57 -10 -104l-103 -563q-67 -355 -331 -503q-149 -83 -322 -128l-4 12q88 49 167 173q79 125 105 282l119 686q6 38 6 61zM1085 1098q-76 0 -130 54.5t-54 131.5q0 76 53.5 130
t130.5 54q76 0 131.5 -54t55.5 -130t-55.5 -131t-131.5 -55zM453 1098q-77 0 -130 54.5t-55 131.5q0 77 54 130.5t131 53.5t131.5 -54t54.5 -130t-54.5 -131t-131.5 -55zM252 -27q-74 0 -124 47t-50 156q0 40 10 103l86 444q8 56 8 63q0 54 -47 56q-36 0 -129 -35v8
q56 84 168.5 169t197.5 85q181 0 181 -201q0 -57 -10 -104l-82 -442q-8 -56 -8 -72q0 -62 46 -62q47 0 126 39v-8q-64 -104 -164 -175t-209 -71z" />
    <glyph glyph-name="Jcircumflex" unicode="&#x134;" horiz-adv-x="770" 
d="M676 1782l147 -250h-20l-244 106l-291 -106h-20l229 250h199zM-156 -428l-6 6q99 49 162.5 169t87.5 251l201 1137q25 109 7 168t-106 102l3 8h671l-2 -8q-100 -43 -136.5 -98.5t-55.5 -171.5l-172 -975q-80 -441 -654 -588z" />
    <glyph glyph-name="jcircumflex" unicode="&#x135;" horiz-adv-x="608" 
d="M545 1413l147 -250h-20l-244 107l-291 -107h-20l229 250h199zM180 784q0 58 -41 58q-40 0 -133 -35v8q56 84 168.5 169t197.5 85q181 0 181 -201q0 -57 -10 -104l-103 -563q-33 -172 -111.5 -297.5t-218.5 -205.5t-323 -128l-4 12q88 49 167 173q80 125 105 282l119 686
q6 37 6 61z" />
    <glyph glyph-name="Kcommaaccent" unicode="&#x136;" horiz-adv-x="1593" 
d="M633 -399q-1 25 -21 67q-20 43 -20 91q0 55 44.5 95t99.5 40q66 0 110.5 -45t44.5 -111q0 -113 -114 -197q-113 -83 -255 -127l-6 4q117 102 117 183zM1507 8v-8h-741v8q80 34 113 64q35 32 34 86q0 54 -30 131l-150 379l-174 -160l-41 -229q-14 -82 -14 -124
q0 -86 112 -147v-8h-671v8q100 43 136.5 98.5t55.5 172.5l152 856q12 67 12 117q0 55 -28 90t-83 63l3 8h671l-2 -8q-100 -43 -136.5 -98.5t-55.5 -171.5l-92 -521l458 453q129 125 129 211q0 87 -139 127l2 8h670l-2 -8q-150 -52 -254 -121t-250 -199l-188 -172l301 -661
q37 -87 81.5 -141t120.5 -103z" />
    <glyph glyph-name="kcommaaccent" unicode="&#x137;" horiz-adv-x="1189" 
d="M696 -262q0 -113 -114 -197q-112 -83 -254 -127l-6 4q117 102 116 183q0 24 -20 67t-20 91q0 56 44 95.5t100 39.5q66 0 110 -45t44 -111zM836 -27q-60 1 -102 19t-69.5 54.5t-43.5 76t-31 100.5l-82 314q240 63 403 145v4q-60 24 -97.5 79t-37.5 119q0 76 64.5 130.5
t141.5 54.5q82 0 140 -54.5t58 -135.5q0 -80 -56 -139q-53 -56 -107 -83q-55 -26 -167 -63l94 -270q46 -131 159 -131q49 0 109 28v-8q-71 -90 -177.5 -165t-198.5 -75zM31 0l207 1096q12 62 12 118q0 62 -35 97t-102 63v8q105 7 289 37q172 28 257 56h9l-271 -1475h-366z
" />
    <glyph glyph-name="kgreenlandic" unicode="&#x138;" horiz-adv-x="1210" 
d="M392 1069q92 0 142 -69t21 -236l-131 -764h-365l127 723q16 97 -15 114q-7 4 -22 4q-41 0 -131 -34v8q59 88 171.5 171t202.5 83zM857 -27q-48 1 -85.5 14t-61.5 33t-43.5 54.5t-31.5 67t-25 81.5l-82 314q253 65 404 149q-60 24 -97.5 79t-37.5 119q0 77 63.5 131
t141.5 54q83 0 140.5 -54t57.5 -136q0 -81 -55 -139q-53 -55 -119 -88t-156 -58l95 -270q45 -132 159 -132q51 2 109 29v-8q-71 -91 -177 -165.5t-199 -74.5z" />
    <glyph glyph-name="Lacute" unicode="&#x139;" horiz-adv-x="1187" 
d="M446 1532h-22q93 117 113 250h299q-69 -93 -153 -142q-85 -50 -237 -108zM1024 0h-1079v8q100 43 136.5 98.5t55.5 172.5l152 856q25 109 7 168t-106 102l3 8h671l-2 -8q-100 -43 -136.5 -98.5t-55.5 -171.5l-187 -1059h84q163 0 266 81t291 267h15z" />
    <glyph glyph-name="lacute" unicode="&#x13a;" horiz-adv-x="618" 
d="M350 1479h-22q94 118 112 250h299q-70 -94 -153 -143q-85 -50 -236 -107zM229 -27q-159 0 -157 191q0 48 12 115l154 817q12 60 12 116q0 61 -36 97.5t-101 64.5v8q105 7 289 37q172 28 257 56h9l-211 -1153q-8 -56 -8 -72q0 -62 46 -62q47 0 126 39v-8
q-55 -88 -164 -167t-228 -79z" />
    <glyph glyph-name="Lcommaaccent" unicode="&#x13b;" horiz-adv-x="1187" 
d="M414 -399q0 24 -20 67q-20 42 -21 91q0 55 45 95t100 40q66 0 110 -45t44 -111q0 -113 -114 -197q-113 -83 -255 -127l-6 4q117 102 117 183zM1024 0h-1079v8q100 43 136.5 98.5t55.5 172.5l152 856q25 109 7 168t-106 102l3 8h671l-2 -8q-100 -43 -136.5 -98.5
t-55.5 -171.5l-187 -1059h84q163 0 266 81t291 267h15z" />
    <glyph glyph-name="lcommaaccent" unicode="&#x13c;" horiz-adv-x="618" 
d="M164 -399q0 24 -20 67q-20 42 -21 91q0 55 45 95t100 40q66 0 110 -45t44 -111q0 -113 -114 -197q-113 -83 -255 -127l-6 4q117 102 117 183zM229 -27q-159 0 -157 191q0 48 12 115l154 817q12 60 12 116q0 61 -36 97.5t-101 64.5v8q105 7 289 37q172 28 257 56h9
l-211 -1153q-8 -56 -8 -72q0 -62 46 -62q47 0 126 39v-8q-55 -88 -164 -167t-228 -79z" />
    <glyph glyph-name="Lcaron" unicode="&#x13d;" horiz-adv-x="1187" 
d="M922 982q0 51 -32 162t-32 158q0 52 44 93t96 41q56 0 94 -41.5t38 -98.5t-85 -173q-85 -119 -105 -210h-20q2 22 2 69zM1024 0h-1079v8q100 43 136.5 98.5t55.5 172.5l152 856q25 109 7 168t-106 102l3 8h671l-2 -8q-100 -43 -136.5 -98.5t-55.5 -171.5l-187 -1059h84
q163 0 266 81t291 267h15z" />
    <glyph glyph-name="lcaron" unicode="&#x13e;" horiz-adv-x="854" 
d="M768 982q0 51 -32 162t-32 158q0 52 43.5 93t96.5 41q57 0 95 -41.5t38 -98.5q1 -55 -85 -173q-87 -120 -106 -210h-20q2 22 2 69zM229 -27q-159 0 -157 191q0 48 12 115l154 817q12 60 12 116q0 61 -36 97.5t-101 64.5v8q105 7 289 37q172 28 257 56h9l-211 -1153
q-8 -56 -8 -72q0 -62 46 -62q47 0 126 39v-8q-55 -88 -164 -167t-228 -79z" />
    <glyph glyph-name="Ldot" unicode="&#x13f;" horiz-adv-x="1187" 
d="M1024 0h-1079v8q100 43 136.5 98.5t55.5 172.5l152 856q25 109 7 168t-106 102l3 8h671l-2 -8q-100 -43 -136.5 -98.5t-55.5 -171.5l-187 -1059h84q163 0 266 81t291 267h15zM864 862q57 0 97 -39.5t40 -96.5q2 -56 -39 -95q-40 -39 -98 -39q-57 0 -96 38.5t-39 95.5
t39 96.5t96 39.5z" />
    <glyph glyph-name="ldot" unicode="&#x140;" horiz-adv-x="813" 
d="M229 -27q-159 0 -157 191q0 48 12 115l154 817q12 60 12 116q0 61 -36 97.5t-101 64.5v8q105 7 289 37q172 28 257 56h9l-211 -1153q-8 -56 -8 -72q0 -62 46 -62q47 0 126 39v-8q-55 -88 -164 -167t-228 -79zM735 870q59 0 101 -40.5t43 -99.5q0 -59 -42 -98.5
t-101 -39.5t-100.5 39.5t-41.5 98.5t41 99.5t100 40.5z" />
    <glyph glyph-name="Lslash" unicode="&#x141;" horiz-adv-x="1187" 
d="M1024 0h-1079v8q100 43 136.5 98.5t55.5 172.5l41 239l-117 -31l19 105l117 31l92 512q25 109 7 168t-106 102l3 8h671l-2 -8q-100 -43 -136.5 -98.5t-55.5 -171.5l-72 -410l276 72l-18 -105l-276 -71l-97 -545h84q163 0 266 81t291 267h15z" />
    <glyph glyph-name="lslash" unicode="&#x142;" horiz-adv-x="618" 
d="M229 -27q-201 0 -145 306l96 514l-125 -39l19 104l125 39l39 199q24 130 -4 183q-29 55 -121 95v8q105 7 289 37q172 28 257 56h9l-84 -457l141 45l-18 -105l-142 -45l-108 -594q-17 -101 13 -123q9 -7 28 -6q38 0 123 37v-8q-55 -88 -164 -167t-228 -79z" />
    <glyph glyph-name="Nacute" unicode="&#x143;" horiz-adv-x="1701" 
d="M913 1532h-22q93 117 113 250h299q-69 -93 -153 -142q-86 -50 -237 -108zM442 8v-8h-493v8q115 49 171 142t101 342l113 643q18 106 -12 164q-32 59 -125 106l2 8h510l655 -936l80 453q45 256 15 348q-16 49 -42.5 75.5t-77.5 51.5l2 8h494l-2 -8q-76 -34 -121 -74
q-91 -82 -147 -401l-164 -930h-156l-792 1126l-111 -634q-46 -257 -17 -352q14 -50 40.5 -78.5t76.5 -53.5z" />
    <glyph glyph-name="nacute" unicode="&#x144;" horiz-adv-x="1263" 
d="M610 1163h-22q94 118 112 250h299q-70 -94 -153 -143q-85 -50 -236 -107zM893 -27q-76 1 -128 49t-52 154q0 56 10 103l82 413q8 43 8 80q0 98 -74 98q-88 0 -190 -141l-125 -729h-365l127 723q5 33 7 61q1 58 -41 58q-41 0 -134 -35v8q60 87 170 170.5t197 83.5
q174 0 174 -199q0 -23 -4 -59h8q157 258 377 258q118 0 172.5 -77t54.5 -201q0 -68 -16 -154l-59 -315q-8 -52 -9 -72q0 -62 46 -62q47 0 126 39v-8q-62 -103 -158.5 -174.5t-203.5 -71.5z" />
    <glyph glyph-name="Ncommaaccent" unicode="&#x145;" horiz-adv-x="1701" 
d="M647 -399q0 24 -20 67q-21 42 -21 91q0 55 45 95t100 40q62 0 109 -44t45 -112q2 -113 -113 -197q-113 -83 -255 -127l-7 4q117 102 117 183zM442 8v-8h-493v8q115 49 171 142t101 342l113 643q18 106 -12 164q-32 59 -125 106l2 8h510l655 -936l80 453q45 256 15 348
q-16 49 -42.5 75.5t-77.5 51.5l2 8h494l-2 -8q-76 -34 -121 -74q-91 -82 -147 -401l-164 -930h-156l-792 1126l-111 -634q-46 -257 -17 -352q14 -50 40.5 -78.5t76.5 -53.5z" />
    <glyph glyph-name="ncommaaccent" unicode="&#x146;" horiz-adv-x="1263" 
d="M449 -241q0 56 44 95.5t100 39.5q66 0 110.5 -45t44.5 -111q0 -113 -114 -197q-113 -83 -255 -127l-6 4q117 102 116 183q0 24 -20 67t-20 91zM893 -27q-76 1 -128 49t-52 154q0 56 10 103l82 413q8 43 8 80q0 98 -74 98q-88 0 -190 -141l-125 -729h-365l127 723
q5 33 7 61q1 58 -41 58q-41 0 -134 -35v8q60 87 170 170.5t197 83.5q174 0 174 -199q0 -23 -4 -59h8q157 258 377 258q118 0 172.5 -77t54.5 -201q0 -68 -16 -154l-59 -315q-8 -52 -9 -72q0 -62 46 -62q47 0 126 39v-8q-62 -103 -158.5 -174.5t-203.5 -71.5z" />
    <glyph glyph-name="Ncaron" unicode="&#x147;" horiz-adv-x="1701" 
d="M1346 1782l-234 -250h-199l-143 250h21l241 -107l293 107h21zM442 8v-8h-493v8q115 49 171 142t101 342l113 643q18 106 -12 164q-32 59 -125 106l2 8h510l655 -936l80 453q45 256 15 348q-16 49 -42.5 75.5t-77.5 51.5l2 8h494l-2 -8q-76 -34 -121 -74
q-91 -82 -147 -401l-164 -930h-156l-792 1126l-111 -634q-46 -257 -17 -352q14 -50 40.5 -78.5t76.5 -53.5z" />
    <glyph glyph-name="ncaron" unicode="&#x148;" horiz-adv-x="1263" 
d="M1034 1413l-233 -250h-199l-143 250h20l242 -106l293 106h20zM893 -27q-76 1 -128 49t-52 154q0 56 10 103l82 413q8 43 8 80q0 98 -74 98q-88 0 -190 -141l-125 -729h-365l127 723q5 33 7 61q1 58 -41 58q-41 0 -134 -35v8q60 87 170 170.5t197 83.5q174 0 174 -199
q0 -23 -4 -59h8q157 258 377 258q118 0 172.5 -77t54.5 -201q0 -68 -16 -154l-59 -315q-8 -52 -9 -72q0 -62 46 -62q47 0 126 39v-8q-62 -103 -158.5 -174.5t-203.5 -71.5z" />
    <glyph glyph-name="napostrophe" unicode="&#x149;" horiz-adv-x="1263" 
d="M383 1323q0 25 -21 68q-20 45 -20 91q0 54 44.5 94t99.5 40q67 0 111 -44.5t44 -111.5q0 -112 -114 -196q-113 -83 -255 -127l-6 4q117 102 117 182zM893 -27q-76 1 -128 49t-52 154q0 56 10 103l82 413q8 43 8 80q0 98 -74 98q-88 0 -190 -141l-125 -729h-365l127 723
q5 33 7 61q1 58 -41 58q-41 0 -134 -35v8q60 87 170 170.5t197 83.5q174 0 174 -199q0 -23 -4 -59h8q157 258 377 258q118 0 172.5 -77t54.5 -201q0 -68 -16 -154l-59 -315q-8 -52 -9 -72q0 -62 46 -62q47 0 126 39v-8q-62 -103 -158.5 -174.5t-203.5 -71.5z" />
    <glyph glyph-name="Eng" unicode="&#x14a;" horiz-adv-x="1701" 
d="M442 8v-8h-493v8q115 49 171 142t101 342l113 643q18 106 -12 164q-32 59 -125 106l2 8h510l655 -936l80 453q45 256 15 348q-16 49 -42.5 75.5t-77.5 51.5l2 8h494l-2 -8q-76 -34 -121 -74q-91 -82 -147 -401l-148 -836q-45 -251 -182 -388q-136 -136 -311 -136
q-69 0 -103 32q-33 31 -25 77q7 45 35 77q79 -41 171 -41q96 0 167.5 72t102.5 172l-819 1167l-111 -634q-37 -165 -29 -268q6 -88 31.5 -133.5t97.5 -82.5z" />
    <glyph glyph-name="eng" unicode="&#x14b;" horiz-adv-x="1220" 
d="M739 870q-88 0 -190 -141l-125 -729h-365l127 723q16 97 -15 114q-7 4 -22 4q-41 0 -131 -34v8q61 89 171.5 171.5t200.5 82.5q88 0 134 -60q47 -61 31 -198h8q157 258 377 258q142 0 194 -115q52 -114 17 -317l-76 -436q-29 -166 -111 -297.5t-218 -207.5
q-54 -30 -110.5 -54t-97 -37t-116.5 -35l-4 12q88 49 167 173q79 125 105 282l115 655q33 178 -66 178z" />
    <glyph glyph-name="Omacron" unicode="&#x14c;" horiz-adv-x="1724" 
d="M1317 1720l-29 -164h-553l29 164h553zM772 -31q-277 0 -483 175q-207 175 -207 458q0 139 53 273.5t147 239.5q151 169 335 247q189 80 369 80q110 0 214 -28.5t191 -84t152 -131.5t101.5 -176.5t36.5 -212.5q0 -244 -152.5 -452.5t-383.5 -308.5q-185 -79 -373 -79z
M766 45q87 0 163.5 44t130 117.5t95.5 165t67 191.5t37.5 192t12.5 171q0 60 -6.5 116t-25.5 117t-48.5 105t-81 73t-117.5 29q-86 0 -160.5 -44.5t-125.5 -111.5t-92 -156.5t-64 -169.5t-37 -159q-23 -134 -22 -238q0 -49 4.5 -95.5t15.5 -98.5t31.5 -95t49.5 -78.5
t73.5 -55t99.5 -19.5z" />
    <glyph glyph-name="omacron" unicode="&#x14d;" horiz-adv-x="1183" 
d="M979 1352l-29 -164h-553l29 164h553zM520 45q39 0 73.5 36.5t58 87t43 116t29 111.5t15.5 85q23 159 23 273q0 33 -3 66.5t-12.5 79t-32.5 73t-57 26.5q-91 0 -165 -213q-74 -214 -74 -477q0 -264 102 -264zM504 -25q-185 0 -319 122q-132 121 -132 329q2 258 191 450
q191 194 430 193q189 0 322 -124q134 -125 134 -327q0 -249 -190 -446q-191 -198 -436 -197z" />
    <glyph glyph-name="Obreve" unicode="&#x14e;" horiz-adv-x="1724" 
d="M998 1528q-102 0 -168 88q-64 88 -60 194h8q25 -123 230 -123q204 0 274 123h8q-17 -51 -43 -98.5t-61.5 -90t-84.5 -68t-103 -25.5zM772 -31q-277 0 -483 175q-207 175 -207 458q0 139 53 273.5t147 239.5q151 169 335 247q189 80 369 80q110 0 214 -28.5t191 -84
t152 -131.5t101.5 -176.5t36.5 -212.5q0 -244 -152.5 -452.5t-383.5 -308.5q-185 -79 -373 -79zM766 45q87 0 163.5 44t130 117.5t95.5 165t67 191.5t37.5 192t12.5 171q0 60 -6.5 116t-25.5 117t-48.5 105t-81 73t-117.5 29q-86 0 -160.5 -44.5t-125.5 -111.5t-92 -156.5
t-64 -169.5t-37 -159q-23 -134 -22 -238q0 -49 4.5 -95.5t15.5 -98.5t31.5 -95t49.5 -78.5t73.5 -55t99.5 -19.5z" />
    <glyph glyph-name="obreve" unicode="&#x14f;" horiz-adv-x="1183" 
d="M674 1159q-103 0 -167 88q-65 90 -61 195h9q27 -123 230 -123t273 123h9q-17 -52 -43 -99t-62 -90t-85 -68.5t-103 -25.5zM520 45q39 0 73.5 36.5t58 87t43 116t29 111.5t15.5 85q23 159 23 273q0 33 -3 66.5t-12.5 79t-32.5 73t-57 26.5q-91 0 -165 -213
q-74 -214 -74 -477q0 -264 102 -264zM504 -25q-185 0 -319 122q-132 121 -132 329q2 258 191 450q191 194 430 193q189 0 322 -124q134 -125 134 -327q0 -249 -190 -446q-191 -198 -436 -197z" />
    <glyph glyph-name="Ohungarumlaut" unicode="&#x150;" horiz-adv-x="1724" 
d="M1079 1532h-18q81 110 110 250h203q-84 -132 -295 -250zM836 1532h-19q82 112 111 250h202q-85 -133 -294 -250zM772 -31q-277 0 -483 175q-207 175 -207 458q0 139 53 273.5t147 239.5q151 169 335 247q189 80 369 80q110 0 214 -28.5t191 -84t152 -131.5t101.5 -176.5
t36.5 -212.5q0 -244 -152.5 -452.5t-383.5 -308.5q-185 -79 -373 -79zM766 45q87 0 163.5 44t130 117.5t95.5 165t67 191.5t37.5 192t12.5 171q0 60 -6.5 116t-25.5 117t-48.5 105t-81 73t-117.5 29q-86 0 -160.5 -44.5t-125.5 -111.5t-92 -156.5t-64 -169.5t-37 -159
q-23 -134 -22 -238q0 -49 4.5 -95.5t15.5 -98.5t31.5 -95t49.5 -78.5t73.5 -55t99.5 -19.5z" />
    <glyph glyph-name="ohungarumlaut" unicode="&#x151;" horiz-adv-x="1183" 
d="M760 1163h-19q82 112 111 250h203q-84 -132 -295 -250zM516 1163h-18q81 110 110 250h203q-84 -132 -295 -250zM520 45q39 0 73.5 36.5t58 87t43 116t29 111.5t15.5 85q23 159 23 273q0 33 -3 66.5t-12.5 79t-32.5 73t-57 26.5q-91 0 -165 -213q-74 -214 -74 -477
q0 -264 102 -264zM504 -25q-185 0 -319 122q-132 121 -132 329q2 258 191 450q191 194 430 193q189 0 322 -124q134 -125 134 -327q0 -249 -190 -446q-191 -198 -436 -197z" />
    <glyph glyph-name="OE" unicode="&#x152;" horiz-adv-x="2306" 
d="M766 45q87 0 163.5 44t130 117.5t95.5 165t67 191.5t37.5 192t12.5 171q0 60 -6.5 116t-25.5 117t-48.5 105t-81 73t-117.5 29q-86 0 -160.5 -44.5t-125.5 -111.5t-92 -156.5t-64 -169.5t-37 -159q-23 -134 -22 -238q0 -49 4.5 -95.5t15.5 -98.5t31.5 -95t49.5 -78.5
t73.5 -55t99.5 -19.5zM772 -31q-277 0 -483 175q-207 175 -207 458q0 139 53 273.5t147 239.5q140 156 323.5 241.5t389.5 85.5q190 0 351 -146l20 117h915l-67 -389h-14q-70 190 -132 252q-61 61 -198 61h-135l-103 -573h94q125 0 204.5 39.5t162.5 138.5h14l-75 -424h-15
q-48 99 -116.5 134.5t-186.5 35.5h-94l-109 -612h146q134 0 248 90q72 56 288 258h15l-115 -424h-975l19 106q-188 -137 -365 -137z" />
    <glyph glyph-name="oe" unicode="&#x153;" horiz-adv-x="1677" 
d="M1289 655q81 105 81 227t-70 122q-85 0 -152 -136q-68 -138 -77 -348q137 29 218 135zM520 45q39 0 73.5 36.5t58 87t43 116t29 111.5t15.5 85q23 159 23 273q0 33 -3 66.5t-12.5 79t-32.5 73t-57 26.5q-91 0 -165 -213q-74 -214 -74 -477q0 -264 102 -264zM817 102
q-140 -127 -320 -127q-178 0 -312 122q-132 121 -132 329q2 258 191 450q191 194 430 193q198 0 301 -168q185 168 407 168q55 0 104 -12t90.5 -36.5t66 -68.5t24.5 -102q0 -133 -142 -236q-143 -104 -454 -135q0 -140 67 -208q60 -61 143 -67q8 -1 24 -1q165 0 282 139
l15 -10q-200 -356 -500 -357q-186 0 -285 127z" />
    <glyph glyph-name="Racute" unicode="&#x154;" horiz-adv-x="1449" 
d="M735 1532h-22q94 118 112 250h299q-68 -93 -152 -142q-84 -50 -237 -108zM592 686h63q121 0 215 81q64 55 96.5 138t32.5 174q0 106 -53.5 182t-154.5 76h-84zM1384 8v-8h-356q-110 0 -142 30t-93 183l-162 405h-51l-60 -331q-14 -81 -14 -126q0 -97 110 -153v-8h-671v8
q52 22 86 47t54.5 62t31 72.5t22.5 97.5l150 848q14 82 14 123q0 51 -29.5 84.5t-83.5 62.5l3 8h630q567 0 570 -344q-1 -109 -45 -174t-80 -95q-80 -68 -295 -134l262 -480q52 -96 82 -132q33 -39 67 -46z" />
    <glyph glyph-name="racute" unicode="&#x155;" horiz-adv-x="993" 
d="M504 1163h-23q93 117 113 250h299q-70 -94 -153 -143q-85 -50 -236 -107zM382 1069q175 0 175 -207q0 -36 -6 -76h8q100 283 285 283q78 0 125 -52.5t47 -131.5q0 -76 -49.5 -128t-124.5 -52q-72 0 -118 45.5t-65 119.5h-4q-109 -121 -163 -469l-68 -401h-365l127 723
q5 33 7 61q1 58 -41 58q-41 0 -134 -35v8q55 83 167.5 168.5t196.5 85.5z" />
    <glyph glyph-name="Rcommaaccent" unicode="&#x156;" horiz-adv-x="1449" 
d="M580 -399q0 24 -20 67q-20 42 -21 91q0 55 45 95t100 40q66 0 110 -45t44 -111q0 -113 -114 -197q-113 -83 -255 -127l-6 4q117 102 117 183zM592 686h63q121 0 215 81q64 55 96.5 138t32.5 174q0 106 -53.5 182t-154.5 76h-84zM1384 8v-8h-356q-110 0 -142 30t-93 183
l-162 405h-51l-60 -331q-14 -81 -14 -126q0 -97 110 -153v-8h-671v8q52 22 86 47t54.5 62t31 72.5t22.5 97.5l150 848q14 82 14 123q0 51 -29.5 84.5t-83.5 62.5l3 8h630q567 0 570 -344q-1 -109 -45 -174t-80 -95q-80 -68 -295 -134l262 -480q52 -96 82 -132q33 -39 67 -46
z" />
    <glyph glyph-name="rcommaaccent" unicode="&#x157;" horiz-adv-x="993" 
d="M360 -262q0 -113 -114 -197q-112 -83 -254 -127l-6 4q117 102 116 183q0 24 -20 67t-20 91q0 56 44 95.5t100 39.5q66 0 110 -45t44 -111zM382 1069q175 0 175 -207q0 -36 -6 -76h8q100 283 285 283q78 0 125 -52.5t47 -131.5q0 -76 -49.5 -128t-124.5 -52
q-72 0 -118 45.5t-65 119.5h-4q-109 -121 -163 -469l-68 -401h-365l127 723q5 33 7 61q1 58 -41 58q-41 0 -134 -35v8q55 83 167.5 168.5t196.5 85.5z" />
    <glyph glyph-name="Rcaron" unicode="&#x158;" horiz-adv-x="1449" 
d="M1139 1782l-234 -250h-198l-144 250h21l241 -107l293 107h21zM592 686h63q121 0 215 81q64 55 96.5 138t32.5 174q0 106 -53.5 182t-154.5 76h-84zM1384 8v-8h-356q-110 0 -142 30t-93 183l-162 405h-51l-60 -331q-14 -81 -14 -126q0 -97 110 -153v-8h-671v8q52 22 86 47
t54.5 62t31 72.5t22.5 97.5l150 848q14 82 14 123q0 51 -29.5 84.5t-83.5 62.5l3 8h630q567 0 570 -344q-1 -109 -45 -174t-80 -95q-80 -68 -295 -134l262 -480q52 -96 82 -132q33 -39 67 -46z" />
    <glyph glyph-name="rcaron" unicode="&#x159;" horiz-adv-x="993" 
d="M881 1413l-234 -250h-198l-144 250h21l241 -106l293 106h21zM382 1069q175 0 175 -207q0 -36 -6 -76h8q100 283 285 283q78 0 125 -52.5t47 -131.5q0 -76 -49.5 -128t-124.5 -52q-72 0 -118 45.5t-65 119.5h-4q-109 -121 -163 -469l-68 -401h-365l127 723q5 33 7 61
q1 58 -41 58q-41 0 -134 -35v8q55 83 167.5 168.5t196.5 85.5z" />
    <glyph glyph-name="Sacute" unicode="&#x15a;" horiz-adv-x="1171" 
d="M645 1532h-22q94 118 112 250h299q-68 -93 -152 -142q-84 -50 -237 -108zM748 1366q-87 0 -155.5 -54.5t-68.5 -139.5t58 -150q60 -66 143 -120q70 -46 168 -118q89 -66 144.5 -158t56.5 -196q0 -200 -169 -330q-170 -131 -425 -131q-110 0 -260 25.5t-222 68.5l72 404
h10q96 -206 190 -313q97 -110 208 -109q114 -1 186 63t72 140q0 136 -148 245q-177 130 -255 199q-167 147 -167 333q0 185 168 301q169 116 404 116q95 0 213.5 -22t197.5 -58l-63 -354h-8q-156 358 -350 358z" />
    <glyph glyph-name="sacute" unicode="&#x15b;" horiz-adv-x="882" 
d="M475 1163h-22q94 118 112 250h299q-68 -93 -152 -143q-86 -51 -237 -107zM530 192q0 119 -154 210q-24 14 -130 79q-70 43 -113 107.5t-43 140.5q0 154 139 247t300 93q162 0 262 -64t100 -155q0 -71 -50.5 -121.5t-121.5 -50.5q-68 0 -121 45.5t-53 112.5
q0 59 42.5 105.5t100.5 57.5v5q-54 14 -119 14q-64 0 -118.5 -41t-54.5 -103q0 -32 13.5 -61.5t39.5 -54.5t49 -42t55 -37q80 -50 131 -85q158 -109 158 -286q0 -100 -84 -182q-157 -152 -408 -151q-150 0 -258 72t-106 182q0 78 51.5 132.5t128.5 54.5q74 0 128 -48.5
t54 -121.5q0 -64 -46 -120t-109 -67v-4q57 -27 140 -27q77 0 137 45t60 119z" />
    <glyph glyph-name="Scircumflex" unicode="&#x15c;" horiz-adv-x="1171" 
d="M879 1782l147 -250h-20l-244 106l-291 -106h-20l229 250h199zM748 1366q-87 0 -155.5 -54.5t-68.5 -139.5t58 -150q60 -66 143 -120q70 -46 168 -118q89 -66 144.5 -158t56.5 -196q0 -200 -169 -330q-170 -131 -425 -131q-110 0 -260 25.5t-222 68.5l72 404h10
q96 -206 190 -313q97 -110 208 -109q114 -1 186 63t72 140q0 136 -148 245q-177 130 -255 199q-167 147 -167 333q0 185 168 301q169 116 404 116q95 0 213.5 -22t197.5 -58l-63 -354h-8q-156 358 -350 358z" />
    <glyph glyph-name="scircumflex" unicode="&#x15d;" horiz-adv-x="882" 
d="M676 1413l147 -250h-20l-244 107l-291 -107h-20l229 250h199zM530 192q0 119 -154 210q-24 14 -130 79q-70 43 -113 107.5t-43 140.5q0 154 139 247t300 93q162 0 262 -64t100 -155q0 -71 -50.5 -121.5t-121.5 -50.5q-68 0 -121 45.5t-53 112.5q0 59 42.5 105.5
t100.5 57.5v5q-54 14 -119 14q-64 0 -118.5 -41t-54.5 -103q0 -32 13.5 -61.5t39.5 -54.5t49 -42t55 -37q80 -50 131 -85q158 -109 158 -286q0 -100 -84 -182q-157 -152 -408 -151q-150 0 -258 72t-106 182q0 78 51.5 132.5t128.5 54.5q74 0 128 -48.5t54 -121.5
q0 -64 -46 -120t-109 -67v-4q57 -27 140 -27q77 0 137 45t60 119z" />
    <glyph glyph-name="Scedilla" unicode="&#x15e;" horiz-adv-x="1171" 
d="M423 -349q30 25 30 63q0 42 -44.5 71t-89.5 31l148 153q-109 4 -244.5 28.5t-204.5 65.5l72 404h10q96 -206 190 -313q97 -110 208 -109q114 -1 186 63t72 140q0 136 -148 245q-177 130 -255 199q-167 147 -167 333q0 185 168 301q169 116 404 116q95 0 213.5 -22
t197.5 -58l-63 -354h-8q-156 358 -350 358q-87 0 -155.5 -54.5t-68.5 -139.5t58 -150q60 -66 143 -120q70 -46 168 -118q89 -66 144.5 -158t56.5 -196q0 -191 -161 -322q-160 -130 -407 -139l-59 -73q64 -6 114.5 -48.5t51.5 -104.5q0 -43 -22.5 -77t-58.5 -54t-76.5 -30
t-80.5 -10q-118 0 -180 53l27 23q45 -20 97 -20q53 0 84 23z" />
    <glyph glyph-name="scedilla" unicode="&#x15f;" horiz-adv-x="882" 
d="M302 -349q30 25 30 63q0 42 -44.5 71t-88.5 31l151 159q-150 0 -258 72t-106 182q0 78 51.5 132.5t128.5 54.5q74 0 128 -48.5t54 -121.5q0 -64 -46 -120t-109 -67v-4q57 -27 140 -27q77 0 137 45t60 119q0 119 -154 210q-24 14 -130 79q-70 43 -113 107.5t-43 140.5
q0 154 139 247t300 93q162 0 262 -64t100 -155q0 -71 -50.5 -121.5t-121.5 -50.5q-68 0 -121 45.5t-53 112.5q0 59 42.5 105.5t100.5 57.5v5q-54 14 -119 14q-64 0 -118.5 -41t-54.5 -103q0 -32 13.5 -61.5t39.5 -54.5t49 -42t55 -37q80 -50 131 -85q72 -49 115 -120.5
t43 -154.5q0 -78 -40 -142t-105 -103.5t-137 -63t-146 -30.5l-68 -84q65 -6 115.5 -48.5t50.5 -104.5q0 -43 -22.5 -77t-58.5 -54t-76.5 -30t-80.5 -10q-118 0 -180 53l27 23q45 -20 97 -20q53 0 84 23z" />
    <glyph glyph-name="Scaron" unicode="&#x160;" horiz-adv-x="1171" 
d="M1081 1782l-233 -250h-199l-143 250h20l242 -107l293 107h20zM748 1366q-87 0 -155.5 -54.5t-68.5 -139.5t58 -150q60 -66 143 -120q70 -46 168 -118q89 -66 144.5 -158t56.5 -196q0 -200 -169 -330q-170 -131 -425 -131q-110 0 -260 25.5t-222 68.5l72 404h10
q96 -206 190 -313q97 -110 208 -109q114 -1 186 63t72 140q0 136 -148 245q-177 130 -255 199q-167 147 -167 333q0 185 168 301q169 116 404 116q95 0 213.5 -22t197.5 -58l-63 -354h-8q-156 358 -350 358z" />
    <glyph glyph-name="scaron" unicode="&#x161;" horiz-adv-x="882" 
d="M897 1413l-233 -250h-199l-143 250h20l242 -106l293 106h20zM530 192q0 119 -154 210q-24 14 -130 79q-70 43 -113 107.5t-43 140.5q0 154 139 247t300 93q162 0 262 -64t100 -155q0 -71 -50.5 -121.5t-121.5 -50.5q-68 0 -121 45.5t-53 112.5q0 59 42.5 105.5
t100.5 57.5v5q-54 14 -119 14q-64 0 -118.5 -41t-54.5 -103q0 -32 13.5 -61.5t39.5 -54.5t49 -42t55 -37q80 -50 131 -85q158 -109 158 -286q0 -100 -84 -182q-157 -152 -408 -151q-150 0 -258 72t-106 182q0 78 51.5 132.5t128.5 54.5q74 0 128 -48.5t54 -121.5
q0 -64 -46 -120t-109 -67v-4q57 -27 140 -27q77 0 137 45t60 119z" />
    <glyph glyph-name="Tcommaaccent" unicode="&#x162;" horiz-adv-x="1413" 
d="M496 -399q0 24 -20 67q-20 42 -21 91q0 55 45 95t100 40q66 0 110 -45t44 -111q0 -113 -114 -197q-113 -83 -255 -127l-6 4q117 102 117 183zM963 8v-8h-680v8q52 22 86 47t54.5 62t31 72.5t22.5 97.5l187 1056h-35q-118 0 -204 -61q-88 -62 -282 -268h-10l94 399h1286
l-45 -399h-10q-122 213 -178 270q-57 59 -172 59h-55l-187 -1056q-26 -110 -8 -172q18 -64 105 -107z" />
    <glyph glyph-name="tcommaaccent" unicode="&#x163;" horiz-adv-x="724" 
d="M156 -399q0 24 -20 67q-20 42 -21 91q0 55 45 95t100 40q66 0 110 -45t44 -111q0 -113 -114 -197q-113 -83 -255 -127l-6 4q117 102 117 183zM282 -27q-106 0 -166 70t-30 236l121 620l-160 16l-4 19l121 55q168 78 244 301h231l-49 -246h207l-23 -157h-209l-106 -568
q-18 -101 33 -125q14 -7 36 -7q52 0 136 40v-8q-60 -95 -170 -170.5t-212 -75.5z" />
    <glyph glyph-name="Tcaron" unicode="&#x164;" horiz-adv-x="1413" 
d="M1214 1782l-233 -250h-199l-143 250h20l242 -107l293 107h20zM963 8v-8h-680v8q52 22 86 47t54.5 62t31 72.5t22.5 97.5l187 1056h-35q-118 0 -204 -61q-88 -62 -282 -268h-10l94 399h1286l-45 -399h-10q-122 213 -178 270q-57 59 -172 59h-55l-187 -1056
q-26 -110 -8 -172q18 -64 105 -107z" />
    <glyph glyph-name="tcaron" unicode="&#x165;" horiz-adv-x="724" 
d="M739 1170q1 49 -31 162q-32 111 -32 158q0 52 43.5 93t96.5 41q55 0 93.5 -41.5t38.5 -97.5q0 -55 -85 -173t-105 -210h-21q2 22 2 68zM282 -27q-106 0 -166 70t-30 236l121 620l-160 16l-4 19l121 55q168 78 244 301h231l-49 -246h207l-23 -157h-209l-106 -568
q-18 -101 33 -125q14 -7 36 -7q52 0 136 40v-8q-60 -95 -170 -170.5t-212 -75.5z" />
    <glyph glyph-name="Tbar" unicode="&#x166;" horiz-adv-x="1413" 
d="M963 8v-8h-680v8q52 22 86 47t54.5 62t31 72.5t22.5 97.5l68 391h-183l17 92h182l103 573h-35q-118 0 -204 -61q-88 -62 -282 -268h-10l94 399h1286l-45 -399h-10q-122 213 -178 270q-57 59 -172 59h-55l-103 -573h187l-17 -92h-186l-68 -391q-26 -110 -8 -172
q18 -64 105 -107z" />
    <glyph glyph-name="tbar" unicode="&#x167;" horiz-adv-x="724" 
d="M270 -27q-78 2 -136 49q-58 48 -58 162q0 39 10 95l45 235h-127l21 123h131l51 262l-160 16l-4 19l121 55q168 78 244 301h231l-49 -246h207l-23 -157h-209l-47 -250h223l-20 -123h-225l-37 -195q-26 -131 69 -131q56 0 136 39v-8q-54 -87 -165 -167q-109 -79 -229 -79z
" />
    <glyph glyph-name="Utilde" unicode="&#x168;" horiz-adv-x="1634" 
d="M872 1606q-65 0 -118 -62l-11 4q38 93 106 161q69 71 125 71q58 0 160 -28t134 -28q66 2 121 62l8 -4q-38 -93 -106 -161q-71 -71 -127 -71q-58 0 -164 28t-128 28zM160 397l129 738q14 82 14 123q0 51 -29.5 84.5t-83.5 62.5l3 8h671l-2 -8q-100 -43 -136.5 -98.5
t-55.5 -171.5l-135 -766q-3 -13 -5 -52q0 -50 18.5 -90t48.5 -64.5t71 -41t83.5 -23t88.5 -6.5q357 0 413 311l95 527q43 261 3 358q-23 51 -47 69q-26 19 -81 48l2 8h524l-2 -8q-96 -42 -134 -76t-79 -123q-44 -96 -76 -276l-94 -533q-22 -121 -75.5 -206t-135.5 -132.5
t-178 -68t-219 -20.5q-55 0 -107 3.5t-114 14t-114.5 26.5t-103.5 44t-86 64t-56.5 88.5t-20.5 115.5q0 35 6 71z" />
    <glyph glyph-name="utilde" unicode="&#x169;" horiz-adv-x="1263" 
d="M826 1182q-58 0 -164 28q-108 28 -127 27q-67 0 -119 -61l-10 4q17 45 50.5 95.5t84 93t95.5 42.5q58 0 160 -28q100 -27 132 -27q69 0 123 61l8 -4q-32 -77 -99 -154t-134 -77zM890 -27q-81 -1 -128 49t-47 160q0 28 2 54h-4q-64 -104 -163 -183.5t-202 -79.5
q-242 0 -242 275q0 79 17 158l65 315q8 35 9 72q1 61 -49 61t-130 -39v8q58 93 154 170q95 76 213 76q74 0 126 -46t52 -153q0 -44 -12 -106l-82 -414q-8 -43 -8 -80q0 -98 74 -98q88 0 190 141l125 731h364l-127 -725q-6 -38 -6 -61q0 -57 45 -57q36 0 129 35v-9
q-56 -84 -168.5 -169t-196.5 -85z" />
    <glyph glyph-name="Umacron" unicode="&#x16a;" horiz-adv-x="1634" 
d="M1309 1720l-29 -164h-553l29 164h553zM160 397l129 738q14 82 14 123q0 51 -29.5 84.5t-83.5 62.5l3 8h671l-2 -8q-100 -43 -136.5 -98.5t-55.5 -171.5l-135 -766q-3 -13 -5 -52q0 -50 18.5 -90t48.5 -64.5t71 -41t83.5 -23t88.5 -6.5q357 0 413 311l95 527q43 261 3 358
q-23 51 -47 69q-26 19 -81 48l2 8h524l-2 -8q-96 -42 -134 -76t-79 -123q-44 -96 -76 -276l-94 -533q-22 -121 -75.5 -206t-135.5 -132.5t-178 -68t-219 -20.5q-55 0 -107 3.5t-114 14t-114.5 26.5t-103.5 44t-86 64t-56.5 88.5t-20.5 115.5q0 35 6 71z" />
    <glyph glyph-name="umacron" unicode="&#x16b;" horiz-adv-x="1263" 
d="M1016 1352l-29 -164h-553l29 164h553zM890 -27q-81 -1 -128 49t-47 160q0 28 2 54h-4q-64 -104 -163 -183.5t-202 -79.5q-242 0 -242 275q0 79 17 158l65 315q8 35 9 72q1 61 -49 61t-130 -39v8q58 93 154 170q95 76 213 76q74 0 126 -46t52 -153q0 -44 -12 -106
l-82 -414q-8 -43 -8 -80q0 -98 74 -98q88 0 190 141l125 731h364l-127 -725q-6 -38 -6 -61q0 -57 45 -57q36 0 129 35v-9q-56 -84 -168.5 -169t-196.5 -85z" />
    <glyph glyph-name="Ubreve" unicode="&#x16c;" horiz-adv-x="1634" 
d="M1053 1528q-103 0 -167 88q-65 90 -61 194h9q27 -123 230 -123q202 0 273 123h9q-18 -52 -43.5 -99t-61.5 -89.5t-85 -68t-103 -25.5zM160 397l129 738q14 82 14 123q0 51 -29.5 84.5t-83.5 62.5l3 8h671l-2 -8q-100 -43 -136.5 -98.5t-55.5 -171.5l-135 -766
q-3 -13 -5 -52q0 -50 18.5 -90t48.5 -64.5t71 -41t83.5 -23t88.5 -6.5q357 0 413 311l95 527q43 261 3 358q-23 51 -47 69q-26 19 -81 48l2 8h524l-2 -8q-96 -42 -134 -76t-79 -123q-44 -96 -76 -276l-94 -533q-22 -121 -75.5 -206t-135.5 -132.5t-178 -68t-219 -20.5
q-55 0 -107 3.5t-114 14t-114.5 26.5t-103.5 44t-86 64t-56.5 88.5t-20.5 115.5q0 35 6 71z" />
    <glyph glyph-name="ubreve" unicode="&#x16d;" horiz-adv-x="1263" 
d="M711 1159q-103 0 -167 88q-65 90 -61 195h9q27 -123 230 -123q202 0 273 123h9q-17 -52 -43 -99t-62 -90t-85 -68.5t-103 -25.5zM890 -27q-81 -1 -128 49t-47 160q0 28 2 54h-4q-64 -104 -163 -183.5t-202 -79.5q-242 0 -242 275q0 79 17 158l65 315q8 35 9 72
q1 61 -49 61t-130 -39v8q58 93 154 170q95 76 213 76q74 0 126 -46t52 -153q0 -44 -12 -106l-82 -414q-8 -43 -8 -80q0 -98 74 -98q88 0 190 141l125 731h364l-127 -725q-6 -38 -6 -61q0 -57 45 -57q36 0 129 35v-9q-56 -84 -168.5 -169t-196.5 -85z" />
    <glyph glyph-name="Uring" unicode="&#x16e;" horiz-adv-x="1634" 
d="M1047 1612q49 0 82.5 36.5t35.5 86.5q0 49 -35 86t-84 37t-83.5 -37t-34.5 -86t35 -86t84 -37zM1260 1735q0 -86 -63.5 -147.5t-149.5 -61.5q-87 0 -150 60.5t-63 147.5t62.5 148.5t149.5 61.5q86 0 150 -61.5t64 -147.5zM160 397l129 738q14 82 14 123q0 51 -29.5 84.5
t-83.5 62.5l3 8h671l-2 -8q-100 -43 -136.5 -98.5t-55.5 -171.5l-135 -766q-3 -13 -5 -52q0 -50 18.5 -90t48.5 -64.5t71 -41t83.5 -23t88.5 -6.5q357 0 413 311l95 527q43 261 3 358q-23 51 -47 69q-26 19 -81 48l2 8h524l-2 -8q-96 -42 -134 -76t-79 -123
q-44 -96 -76 -276l-94 -533q-22 -121 -75.5 -206t-135.5 -132.5t-178 -68t-219 -20.5q-55 0 -107 3.5t-114 14t-114.5 26.5t-103.5 44t-86 64t-56.5 88.5t-20.5 115.5q0 35 6 71z" />
    <glyph glyph-name="uring" unicode="&#x16f;" horiz-adv-x="1263" 
d="M715 1243q49 0 84 37t35 86t-35 86t-84 37t-84 -37t-35 -86t35 -86t84 -37zM928 1366q0 -86 -63.5 -147t-149.5 -61q-87 0 -150 60.5t-63 147.5q0 86 62.5 147t149.5 61q88 0 151 -60.5t63 -147.5zM890 -27q-81 -1 -128 49t-47 160q0 28 2 54h-4q-64 -104 -163 -183.5
t-202 -79.5q-242 0 -242 275q0 79 17 158l65 315q8 35 9 72q1 61 -49 61t-130 -39v8q58 93 154 170q95 76 213 76q74 0 126 -46t52 -153q0 -44 -12 -106l-82 -414q-8 -43 -8 -80q0 -98 74 -98q88 0 190 141l125 731h364l-127 -725q-6 -38 -6 -61q0 -57 45 -57q36 0 129 35
v-9q-56 -84 -168.5 -169t-196.5 -85z" />
    <glyph glyph-name="Uhungarumlaut" unicode="&#x170;" horiz-adv-x="1634" 
d="M1057 1532h-19q82 112 111 250h203q-84 -132 -295 -250zM813 1532h-18q81 110 110 250h203q-84 -132 -295 -250zM160 397l129 738q14 82 14 123q0 51 -29.5 84.5t-83.5 62.5l3 8h671l-2 -8q-100 -43 -136.5 -98.5t-55.5 -171.5l-135 -766q-3 -13 -5 -52q0 -50 18.5 -90
t48.5 -64.5t71 -41t83.5 -23t88.5 -6.5q357 0 413 311l95 527q43 261 3 358q-23 51 -47 69q-26 19 -81 48l2 8h524l-2 -8q-96 -42 -134 -76t-79 -123q-44 -96 -76 -276l-94 -533q-22 -121 -75.5 -206t-135.5 -132.5t-178 -68t-219 -20.5q-55 0 -107 3.5t-114 14t-114.5 26.5
t-103.5 44t-86 64t-56.5 88.5t-20.5 115.5q0 35 6 71z" />
    <glyph glyph-name="uhungarumlaut" unicode="&#x171;" horiz-adv-x="1263" 
d="M741 1163h-18q82 112 111 250h202q-84 -132 -295 -250zM498 1163h-19q82 112 111 250h203q-84 -132 -295 -250zM890 -27q-81 -1 -128 49t-47 160q0 28 2 54h-4q-64 -104 -163 -183.5t-202 -79.5q-242 0 -242 275q0 79 17 158l65 315q8 35 9 72q1 61 -49 61t-130 -39v8
q58 93 154 170q95 76 213 76q74 0 126 -46t52 -153q0 -44 -12 -106l-82 -414q-8 -43 -8 -80q0 -98 74 -98q88 0 190 141l125 731h364l-127 -725q-6 -38 -6 -61q0 -57 45 -57q36 0 129 35v-9q-56 -84 -168.5 -169t-196.5 -85z" />
    <glyph glyph-name="Uogonek" unicode="&#x172;" horiz-adv-x="1634" 
d="M616 -428q-55 0 -91 36t-36 91q0 133 285 270h-14q-55 0 -107.5 3.5t-114.5 14t-115.5 26.5t-104.5 44t-86.5 64t-57 89t-20.5 116q0 35 6 71l129 738q14 82 14 123q0 51 -29.5 84.5t-83.5 62.5l3 8h671l-2 -8q-100 -43 -136.5 -98.5t-55.5 -171.5l-135 -766
q-3 -13 -5 -52q0 -50 18.5 -90t48.5 -64.5t71 -41t83.5 -23t88.5 -6.5q357 0 413 311l95 527q43 261 3 358q-23 51 -47 69q-26 19 -81 48l2 8h524l-2 -8q-96 -42 -134 -76t-79 -123q-44 -96 -76 -276l-94 -533q-39 -216 -176.5 -316t-366.5 -110q-121 -134 -121 -239
q0 -26 19 -43t45 -17q18 0 41 6l-2 -8q-30 -41 -83.5 -69.5t-103.5 -28.5z" />
    <glyph glyph-name="uogonek" unicode="&#x173;" horiz-adv-x="1263" 
d="M936 -428q-56 0 -92 37q-36 38 -35 97q0 60 81 150q90 96 190 184q106 93 141 142q-65 -76 -161 -142t-176 -67q-75 -1 -122 49t-47 160q0 28 2 54h-4q-64 -104 -163 -183.5t-202 -79.5q-242 0 -242 275q0 79 17 158l65 315q8 35 9 72q1 61 -49 61t-130 -39v8
q58 93 154 170q95 76 213 76q74 0 126 -46t52 -153q0 -44 -12 -106l-82 -414q-8 -43 -8 -80q0 -98 74 -98q88 0 190 141l125 731h364l-127 -725q-6 -38 -6 -61q0 -57 45 -57q36 0 129 35v-9q-25 -52 -93 -155q-142 -212 -142 -340q0 -26 19 -43t45 -17q18 0 40 6l-2 -8
q-30 -41 -83.5 -69.5t-102.5 -28.5z" />
    <glyph glyph-name="Wcircumflex" unicode="&#x174;" horiz-adv-x="2326" 
d="M1470 1782l148 -250h-21l-243 106l-291 -106h-21l230 250h198zM2015 850l-426 -850h-315l-94 928l-465 -928h-312l-108 1067q-18 190 -46 256q-29 69 -95 82l2 8h624l-2 -8q-84 -9 -112 -67q-28 -57 -17 -214l64 -929l329 667q254 516 -38 543l2 8h645l-2 -8
q-84 -9 -112 -67q-28 -57 -17 -214l63 -929l330 667q253 516 -39 543l2 8h618l-2 -8q-214 -27 -477 -555z" />
    <glyph glyph-name="wcircumflex" unicode="&#x175;" horiz-adv-x="1693" 
d="M1137 1413l147 -250h-20l-244 107l-291 -107h-20l229 250h199zM1206 164q79 0 152.5 59t122.5 145.5t78.5 181.5t29.5 171q0 15 -1 27t-1 26q-73 -82 -155 -82q-84 0 -142.5 51t-58.5 133q0 87 56.5 140t144.5 53q91 0 156 -86t65 -254q0 -104 -47 -229t-114 -234
q-75 -124 -199.5 -208.5t-257.5 -84.5q-124 2 -206.5 59.5t-107.5 174.5q-53 -103 -135.5 -168.5t-188.5 -65.5q-179 0 -259 116q-80 115 -27 345l65 289q20 97 -13 113q-8 4 -22 4q-42 1 -133 -33v8q58 89 171 171.5t204 82.5t147 -71q56 -70 15 -234l-76 -315
q-67 -285 86 -285q63 0 102 66q38 65 70 204l121 557h328l-91 -542q-47 -285 121 -285z" />
    <glyph glyph-name="Ycircumflex" unicode="&#x176;" horiz-adv-x="1441" 
d="M1032 1782l148 -250h-21l-244 106l-290 -106h-21l230 250h198zM961 8v-8h-672v8q52 22 86 47t54.5 62t31 72.5t22.5 97.5l60 340l-154 424q-25 70 -42 109.5t-44 87.5t-63 85t-86 72l2 8h727l-2 -8q-140 -57 -152 -98q-23 -76 -8 -132q11 -45 37 -124l114 -336l213 334
q122 193 94 263q-16 40 -48.5 59t-86.5 34l3 8h559l-2 -8q-107 -38 -188 -110q-75 -66 -206 -253l-286 -415l-60 -340q-26 -110 -8 -172q18 -64 105 -107z" />
    <glyph glyph-name="ycircumflex" unicode="&#x177;" horiz-adv-x="1060" 
d="M754 1413l147 -250h-20l-244 107l-291 -107h-20l229 250h199zM88 842q-46 0 -104 -29v8q55 84 157 166q101 82 201 82q60 0 105.5 -35.5t70.5 -93.5q43 -103 84 -326q40 -222 51 -399h4q245 369 283 549h-4q-50 -45 -120 -45q-73 0 -122 48.5t-49 121.5q0 84 54 132
t139 48q90 0 146 -57.5t56 -147.5q0 -156 -134 -376q-131 -213 -290 -432q-155 -211 -306 -350q-148 -136 -294 -136q-113 0 -169 56t-56 133q0 82 54 133.5t136 51.5q85 0 139 -76q54 -78 27 -187h5q76 28 241 200q-39 458 -167 785q-69 176 -138 176z" />
    <glyph glyph-name="Ydieresis" unicode="&#x178;" horiz-adv-x="1441" 
d="M750 1810q66 0 109.5 -44t45.5 -110q0 -65 -44.5 -110t-109.5 -45q-66 0 -111.5 44.5t-45.5 110.5t45 110t111 44zM965 1656q0 66 45.5 110t111.5 44q65 0 109.5 -44.5t44.5 -109.5t-44.5 -110t-109.5 -45q-66 0 -111.5 44.5t-45.5 110.5zM961 8v-8h-672v8q52 22 86 47
t54.5 62t31 72.5t22.5 97.5l60 340l-154 424q-25 70 -42 109.5t-44 87.5t-63 85t-86 72l2 8h727l-2 -8q-140 -57 -152 -98q-23 -76 -8 -132q11 -45 37 -124l114 -336l213 334q122 193 94 263q-16 40 -48.5 59t-86.5 34l3 8h559l-2 -8q-107 -38 -188 -110q-75 -66 -206 -253
l-286 -415l-60 -340q-26 -110 -8 -172q18 -64 105 -107z" />
    <glyph glyph-name="Zacute" unicode="&#x179;" horiz-adv-x="1261" 
d="M635 1532h-23q93 117 113 250h299q-68 -93 -152 -142q-84 -50 -237 -108zM1100 0h-1143v8l950 1329h-200q-120 0 -221 -62q-99 -60 -312 -251h-8l108 389h1094l-2 -8l-938 -1329h199q103 0 158 15q123 33 429 339h11z" />
    <glyph glyph-name="zacute" unicode="&#x17a;" horiz-adv-x="925" 
d="M412 1163h-23q93 117 113 250h299q-70 -94 -153 -143q-85 -50 -236 -107zM586 741h-281q-101 0 -138 -9t-87 -56h-17l97 368h801v-8l-676 -739h29q315 0 414 21q104 23 167 108l16 -2q-8 -19 -52 -153q-43 -130 -85 -210q-44 -81 -90 -81q-61 0 -335 10t-437 10l-2 8z
" />
    <glyph glyph-name="Zdotaccent" unicode="&#x17b;" horiz-adv-x="1261" 
d="M769 1505q-69 0 -118 49.5t-49 118.5q0 70 48 118t118 48q69 0 118.5 -48.5t49.5 -117.5t-49 -118.5t-118 -49.5zM1100 0h-1143v8l950 1329h-200q-120 0 -221 -62q-99 -60 -312 -251h-8l108 389h1094l-2 -8l-938 -1329h199q103 0 158 15q123 33 429 339h11z" />
    <glyph glyph-name="zdotaccent" unicode="&#x17c;" horiz-adv-x="925" 
d="M527 1137q-68 0 -116.5 49.5t-50.5 118.5q0 70 48 117.5t118 47.5q69 0 118.5 -48.5t49.5 -117.5q0 -68 -49.5 -117.5t-117.5 -49.5zM586 741h-281q-101 0 -138 -9t-87 -56h-17l97 368h801v-8l-676 -739h29q315 0 414 21q104 23 167 108l16 -2q-8 -19 -52 -153
q-43 -130 -85 -210q-44 -81 -90 -81q-61 0 -335 10t-437 10l-2 8z" />
    <glyph glyph-name="Zcaron" unicode="&#x17d;" horiz-adv-x="1261" 
d="M1110 1782l-233 -250h-199l-143 250h20l242 -107l293 107h20zM1100 0h-1143v8l950 1329h-200q-120 0 -221 -62q-99 -60 -312 -251h-8l108 389h1094l-2 -8l-938 -1329h199q103 0 158 15q123 33 429 339h11z" />
    <glyph glyph-name="zcaron" unicode="&#x17e;" horiz-adv-x="925" 
d="M831 1413l-233 -250h-199l-143 250h20l242 -106l293 106h20zM586 741h-281q-101 0 -138 -9t-87 -56h-17l97 368h801v-8l-676 -739h29q315 0 414 21q104 23 167 108l16 -2q-8 -19 -52 -153q-43 -130 -85 -210q-44 -81 -90 -81q-61 0 -335 10t-437 10l-2 8z" />
    <glyph glyph-name="longs" unicode="&#x17f;" horiz-adv-x="667" 
d="M1069 1274q0 -78 -49.5 -128t-127.5 -50q-68 0 -117.5 43.5t-49.5 110.5q0 65 45.5 111t112.5 64q-23 5 -49 7q-47 0 -84 -20.5t-61 -56t-38.5 -74t-23.5 -83.5l-187 -1130q-49 -314 -309 -451q-139 -72 -307 -109l-4 13q90 54 150.5 177t80.5 247l160 995h-162l47 104
h131l4 23q34 214 190 311q154 95 374 97q120 -2 197 -59q78 -59 77 -142z" />
    <glyph glyph-name="uni0180" unicode="&#x180;" horiz-adv-x="1224" 
d="M473 49q141 0 240 172q98 173 98 428q0 256 -180 256q-36 0 -74 -20l-154 -813q40 -23 70 -23zM868 1069q83 -1 145.5 -35.5t99 -92.5t54 -128t17.5 -149q0 -182 -109.5 -348t-276.5 -255q-161 -86 -298 -86q-115 1 -243 22t-216 62l197 1037q2 16 4.5 30.5t4 23.5
t1.5 11h-105l17 88h86q-8 32 -30.5 57.5t-43.5 37.5t-59 30v8q105 7 289 37q172 28 257 56h9l-45 -226h233l-16 -88h-234l-45 -233h4q159 141 303 141z" />
    <glyph glyph-name="uni0181" unicode="&#x181;" horiz-adv-x="1560" 
d="M797 764h32q139 0 231.5 95.5t92.5 234.5q0 125 -51 187.5t-152 61.5h-51zM676 72h39q141 0 242 100.5t101 241.5q0 124 -57.5 201t-177.5 77h-39zM713 0h-594v8q52 22 86 47t54.5 62t31 72.5t22.5 97.5l150 850q25 136 -17 185q-42 48 -159 48q-25 0 -51 -6
q47 -22 76 -74q28 -48 17 -114t-62 -104t-120 -38q-71 0 -117 54t-31 138q9 50 43 88t81.5 58.5t97 30.5t98.5 10h674q557 0 557 -295q0 -156 -128 -242t-306 -114l-2 -10q93 -8 175 -46.5t138.5 -112.5t55.5 -169q0 -129 -72.5 -215t-200.5 -130q-230 -79 -497 -79z" />
    <glyph glyph-name="uni0182" unicode="&#x182;" horiz-adv-x="1355" 
d="M483 76h92q259 0 324 344q8 50 8 96q0 227 -225 227h-80zM621 0h-676v8q52 22 86 47t54.5 62t31 72.5t22.5 97.5l150 848q14 82 14 123q0 51 -29.5 84.5t-83.5 62.5l3 8h1101l-67 -389h-15q-10 20 -20 40.5t-16 33t-8 17.5q-10 19 -36 69q-26 51 -38 61q-21 21 -38 39
q-26 27 -48 33q-77 20 -125 20h-178l-89 -512h172q73 0 139 -8t135 -31t118.5 -59t81.5 -97t32 -141q0 -119 -52.5 -223.5t-149.5 -165.5q-160 -100 -471 -100z" />
    <glyph glyph-name="uni0183" unicode="&#x183;" horiz-adv-x="1224" 
d="M473 49q141 0 240 172q98 173 98 428q0 256 -180 256q-36 0 -74 -20l-154 -813q40 -23 70 -23zM819 1337h-178l-80 -409h4q159 141 303 141q83 -1 145.5 -35.5t99 -92.5t54 -128t17.5 -149q0 -182 -109.5 -348t-276.5 -255q-161 -86 -298 -86q-113 0 -239.5 21.5
t-219.5 62.5l205 1076q14 82 14 123q0 85 -113 147l3 8h1081l-68 -389h-14q-10 20 -20 40.5t-16 33t-8 17.5q-11 24 -37.5 72.5t-37.5 57.5q-21 21 -38 39q-26 27 -48 33q-78 20 -125 20z" />
    <glyph glyph-name="uni0184" unicode="&#x184;" horiz-adv-x="1355" 
d="M483 76h92q259 0 324 344q8 50 8 96q0 227 -225 227h-80zM621 0h-676v8q52 22 86 47t54.5 62t31 72.5t22.5 97.5l123 698l-166 199l6 37l586 221h39l-111 -617h172q73 0 139 -8t135 -31t118.5 -59t81.5 -97t32 -141q0 -119 -52.5 -223.5t-149.5 -165.5
q-160 -100 -471 -100z" />
    <glyph glyph-name="uni0185" unicode="&#x185;" horiz-adv-x="1224" 
d="M473 49q141 0 240 172q98 173 98 428q0 256 -180 256q-36 0 -74 -20l-154 -813q40 -23 70 -23zM868 1069q83 -1 145.5 -35.5t99 -92.5t54 -128t17.5 -149q0 -182 -109.5 -348t-276.5 -255q-161 -86 -298 -86q-115 1 -243 22t-216 62l182 959l-166 199l6 36l566 222h39
l-107 -547h4q159 141 303 141z" />
    <glyph glyph-name="uni0186" unicode="&#x186;" horiz-adv-x="1472" 
d="M1016 932q0 66 -9 125t-31.5 117t-57.5 99.5t-91 67t-127 25.5q-241 0 -507 -356h-9l74 346q220 86 448 86q111 0 215 -23t196.5 -72t162 -119t110 -170t40.5 -218q0 -235 -116.5 -420.5t-328.5 -307.5q-250 -143 -524 -143q-275 0 -445 92l31 369h12q25 -68 59.5 -129.5
t82.5 -121.5t112.5 -96.5t135.5 -37.5q217 0 392 240q175 239 175 647z" />
    <glyph glyph-name="uni0187" unicode="&#x187;" horiz-adv-x="1472" 
d="M1380 430l-100 -369q-198 -92 -415 -92q-446 0 -658 291q-107 148 -107 362q0 223 140 415.5t351 296.5q221 108 470 108q122 0 235 -25q77 287 353 287q39 0 76 -9t69 -27.5t51 -51t19 -74.5q0 -67 -44.5 -115.5t-111.5 -48.5q-59 0 -98 33t-39 90q0 103 135 162
q-33 4 -45 4q-41 0 -70.5 -18t-46 -51.5t-24.5 -64.5t-13 -73l-61 -450h-8q-143 356 -396 356q-135 0 -239 -82.5t-165 -214.5q-122 -270 -122 -516q0 -248 88 -378t230 -130q251 0 534 385h12z" />
    <glyph glyph-name="uni0188" unicode="&#x188;" horiz-adv-x="948" 
d="M707 1067h18q57 238 266 238q54 0 101 -15t80.5 -53t33.5 -94q0 -68 -45.5 -116t-112.5 -48q-58 0 -96.5 33.5t-38.5 91.5q0 100 136 160q-33 4 -45 4q-32 0 -57.5 -13.5t-41 -32.5t-27.5 -50t-17 -54.5t-11 -56.5l-4 -23q104 -51 104 -170q0 -76 -50 -131t-125 -55
q-69 0 -122 46t-53 114q0 58 35.5 109.5t89.5 80.5h-20q-125 -20 -212 -186t-87 -375q0 -69 18 -127t65.5 -99.5t118.5 -41.5q135 0 252 139l14 -10q-151 -355 -454 -357q-175 0 -272 112t-99 290q0 270 214 480q215 210 444 210z" />
    <glyph glyph-name="uni0189" unicode="&#x189;" horiz-adv-x="1628" 
d="M483 76h148q108 0 203 46t164 130q198 244 198 596q0 101 -22.5 186.5t-68 154.5t-124.5 108.5t-184 39.5h-90l-101 -567h189l-17 -92h-188zM666 0h-721v8q52 22 86 47t54.5 62t31 72.5t22.5 97.5l68 391h-105l17 92h104l66 365q12 69 12 119q0 54 -28 87.5t-83 63.5l3 8
h659q121 0 228 -20.5t202 -66.5t163.5 -115t108.5 -171.5t39 -230.5q-1 -149 -52.5 -280t-140.5 -226.5t-206 -164.5t-252 -103.5t-276 -34.5z" />
    <glyph glyph-name="uni018A" unicode="&#x18a;" horiz-adv-x="1802" 
d="M657 76h148q108 0 203 46t164 130q198 244 198 596q0 101 -22.5 186.5t-68 154.5t-124.5 108.5t-184 39.5h-90zM840 0h-721v8q52 22 86 47t54.5 62t31 72.5t22.5 97.5l150 850q25 136 -17 185q-42 48 -159 48q-25 0 -51 -6q47 -22 76 -74q28 -48 17 -114t-62 -104
t-120 -38q-71 0 -117 54t-31 138q9 50 43 88t81.5 58.5t97 30.5t98.5 10h707q121 0 228 -20.5t202 -66.5t163.5 -115t108.5 -171.5t39 -230.5q-1 -149 -52.5 -280t-140.5 -226.5t-206 -164.5t-252 -103.5t-276 -34.5z" />
    <glyph glyph-name="uni018B" unicode="&#x18b;" horiz-adv-x="1366" 
d="M1231 8v-8h-684q-56 0 -102.5 2.5t-103.5 10.5t-101 22t-88 38.5t-73 58t-47 83t-18 111.5q0 40 11 104q14 77 47.5 139.5t83 104.5t107.5 72.5t128 47t137.5 24t141.5 7.5h172l90 512h-156q-59 0 -105.5 -12t-87 -39.5t-71 -57.5t-73.5 -81q-14 -16 -103 -123h-14
l67 389h1090v-8q-101 -44 -137 -101t-58 -178l-149 -847q-15 -78 -15 -122q-2 -89 111 -149zM827 743h-79q-73 0 -132 -26.5t-99 -74t-65.5 -106.5t-37.5 -130q-11 -59 -13 -113q0 -217 215 -217h93z" />
    <glyph glyph-name="uni018C" unicode="&#x18c;" horiz-adv-x="1226" 
d="M719 1004q-86 0 -182 -195q-95 -194 -97 -440q0 -180 109 -181q71 2 129 54l133 719q-50 43 -92 43zM829 -27q-71 -2 -113 57q-42 58 -36 177h-4q-127 -231 -307 -232q-124 -1 -209 91q-84 92 -84 260q0 291 196 517t455 226q48 0 102 -10l56 278h-156q-59 0 -105.5 -12
t-87 -39.5t-71 -57.5t-73.5 -81q-14 -16 -103 -123h-15l68 389h1057v-8q-100 -43 -136 -100q-37 -58 -59 -179l-147 -804q-8 -56 -8 -72q0 -62 46 -62q47 0 126 39v-8q-55 -88 -164 -167t-228 -79z" />
    <glyph glyph-name="uni018D" unicode="&#x18d;" horiz-adv-x="1243" 
d="M715 1006q-90 0 -149 -104q-41 -72 -73 -203.5t-32 -221.5q-1 -186 149 -336q43 34 75 82t52 108.5t31 107t23 113.5q27 160 26 253q0 201 -102 201zM889 -168q0 -73 -44 -127t-113.5 -82t-138.5 -40.5t-137 -12.5q-53 0 -106 5t-125.5 19t-118.5 48.5t-47 85.5
q0 55 39 94t94 39q50 0 94.5 -34t65.5 -82q22 -49 63 -82.5t90 -33.5q52 0 86 29t34 80q1 50 -57 99q-62 52 -139 98q-82 50 -163 109q-196 142 -196 406q0 142 62 271q108 221 372 310q112 38 221 38q195 0 333 -102t138 -308q0 -205 -156 -357q-154 -150 -374 -212
q20 -19 83 -68q61 -48 102 -92q38 -43 38 -98z" />
    <glyph glyph-name="uni018E" unicode="&#x18e;" horiz-adv-x="1277" 
d="M1124 8v-8h-1126l31 424h14q3 -6 90 -140q71 -110 119 -145q56 -39 96 -51t109 -12h145l109 612h-95q-125 0 -203.5 -37t-160.5 -133h-14l75 424h15q50 -104 116 -141t185 -37h94l102 573h-135q-59 0 -105.5 -12t-87 -39.5t-71 -57.5t-73.5 -81q-14 -16 -103 -123h-14
l67 389h1069v-8q-101 -43 -138 -98t-56 -172l-150 -848q-24 -109 -6 -172q18 -64 102 -107z" />
    <glyph glyph-name="uni018F" unicode="&#x18f;" horiz-adv-x="1595" 
d="M84 444q0 117 31 226h1009q9 63 11 118q0 195 -127 285q-128 90 -318 90q-292 0 -530 -125l-10 11q338 393 763 393q267 0 455 -174t188 -447q0 -63 -12 -135q-63 -358 -311 -538q-248 -181 -586 -179q-255 0 -409 114t-154 361zM1114 606l-620 -20q-25 -131 -25 -264
q0 -50 9.5 -96.5t30.5 -90t61 -69.5t94 -25q333 0 450 565z" />
    <glyph glyph-name="uni0190" unicode="&#x190;" horiz-adv-x="1351" 
d="M1104 1290q-76 76 -192 76t-203 -96q-88 -95 -88 -277q0 -211 217 -211h88l-13 -67h-125q-144 0 -231 -82.5t-105 -225.5q-6 -41 -8 -106q0 -256 269 -256q357 0 467 201q-80 -72 -153 -72q-74 0 -117.5 49.5t-43.5 125.5q0 83 67.5 142t152.5 59q89 0 144.5 -51
t55.5 -139q0 -150 -164 -270q-163 -119 -448 -121q-283 -1 -466 97q-183 97 -183 266q0 103 60 187t157 134q193 100 383 107l2 12q-198 32 -309 91q-112 60 -112 183q0 69 41 131t106.5 105t131.5 72t133 46q163 42 310 42q111 0 228 -19t194 -61l-58 -322h-8
q-103 173 -180 250z" />
    <glyph glyph-name="uni0191" unicode="&#x191;" horiz-adv-x="1230" 
d="M723 668h-135l-125 -711q-22 -131 -118 -224q-169 -163 -431 -163q-138 0 -214 56q-75 56 -75 142q0 79 48 130t127 51q69 0 118 -44t49 -112q0 -110 -157 -174q26 -6 49 -6q46 1 83 21t61 55t39.5 73.5t23.5 83.5l223 1289q25 109 7 168t-106 102l3 8h1101l-67 -389h-15
q-10 20 -20 40.5t-16 33t-8 17.5q-10 19 -36 69q-26 51 -38 61q-21 21 -38 39q-26 27 -48 33q-77 20 -125 20h-176l-105 -594h135q129 0 205.5 38t159.5 141h14l-76 -424h-14q-52 102 -117 136t-186 34z" />
    <glyph glyph-name="florin" unicode="&#x192;" 
d="M1090 1438q38 0 75.5 -6.5t73.5 -21.5t63.5 -37.5t44.5 -56.5t17 -76q0 -79 -48.5 -130t-127.5 -51q-69 0 -118.5 43.5t-49.5 111.5q0 110 158 175q-27 6 -50 6q-87 0 -139 -69t-69 -165l-64 -370h182l-22 -119h-182l-125 -715q-22 -131 -118 -224q-169 -163 -431 -163
q-138 0 -214 56q-75 56 -75 142q0 79 48 130t127 51q69 0 118 -44t49 -112q0 -109 -158 -174q25 -6 49 -6q61 0 106.5 36.5t68 86t32.5 110.5l144 826h-183l66 119h139l45 260q22 132 119 224q171 163 449 163z" />
    <glyph glyph-name="uni0193" unicode="&#x193;" horiz-adv-x="1589" 
d="M795 -31q-282 0 -479 170t-195 455q0 185 88 350.5t241 275.5q141 101 310.5 161.5t333.5 60.5q161 0 274 -25q77 287 352 287q40 0 76.5 -9t68 -27.5t50.5 -51t20 -74.5q0 -67 -44.5 -115.5t-111.5 -48.5q-59 0 -98 33t-39 90q0 104 136 162q-33 4 -45 4
q-41 0 -70.5 -18t-46 -51.5t-24.5 -64.5t-13 -73l-61 -450h-9q-28 69 -65.5 129t-88.5 113t-117.5 83.5t-139.5 30.5q-246 0 -410 -245t-164 -625q0 -93 18.5 -169t59 -137t111 -95t166.5 -34q82 0 137 13l63 358q6 38 6 70q0 98 -102 155l2 9h612l-2 -9
q-37 -18 -60.5 -33.5t-39 -30.5t-25.5 -40.5t-15 -48t-13 -68.5l-66 -375q-342 -92 -581 -92z" />
    <glyph glyph-name="uni0194" unicode="&#x194;" horiz-adv-x="1560" 
d="M606 -154l-24 111q-94 -155 -94 -221q0 -64 47 -66q75 0 73 146q0 20 -2 30zM839 -328q-82 -100 -267 -100q-183 0 -185 143q0 124 172 351l-190 882q-73 350 -144 417q-28 28 -80 40l2 8h672l-2 -8q-74 -20 -98.5 -62t-24.5 -126q0 -100 37 -269l113 -547l256 461
q188 343 188 441q0 50 -32.5 71.5t-90.5 30.5l2 8h541l-2 -8q-82 -16 -136 -51q-128 -83 -364 -504l-332 -596l27 -123q20 -107 21 -188q0 -170 -83 -271z" />
    <glyph glyph-name="uni0195" unicode="&#x195;" horiz-adv-x="1878" 
d="M1346 1036v8h483l-131 -747q-32 -170 -153 -245t-389 -75q-266 0 -369 77q-101 76 -72 243l69 395q7 40 9 80q0 98 -74 98q-88 0 -189 -137l-133 -733h-366l207 1096q12 62 12 118q0 62 -35 97t-102 63v8q105 7 289 37q172 28 257 56h9l-129 -668h8q67 105 162 183.5
t196 78.5q242 0 242 -274q0 -64 -17 -158l-61 -336q-23 -117 -1 -162q23 -47 98 -47q34 0 59.5 10t41.5 25t27.5 40.5t17 48.5t11.5 58l86 492q23 110 11 169q-11 60 -74 101z" />
    <glyph glyph-name="uni0196" unicode="&#x196;" horiz-adv-x="618" 
d="M229 -27q-159 0 -157 191q0 48 12 115l154 817q12 60 12 116q0 61 -36 97.5t-101 64.5v8q105 7 289 37q172 28 257 56h9l-211 -1153q-8 -56 -8 -72q0 -62 46 -62q47 0 126 39v-8q-55 -88 -164 -167t-228 -79z" />
    <glyph glyph-name="uni0197" unicode="&#x197;" horiz-adv-x="729" 
d="M616 8v-8h-671v8q100 43 136.5 98.5t55.5 172.5l70 399h-133l14 92h135l66 365q25 109 7 168t-106 102l3 8h671l-2 -8q-100 -43 -136.5 -98.5t-55.5 -171.5l-66 -365h133l-14 -92h-135l-70 -399q-24 -109 -6 -168t104 -103z" />
    <glyph glyph-name="uni0198" unicode="&#x198;" horiz-adv-x="1593" 
d="M1507 8v-8h-741v8q80 34 113 64q35 32 34 86q0 54 -30 131l-150 379l-174 -160l-41 -229q-14 -82 -14 -124q0 -86 112 -147v-8h-671v8q100 43 136.5 98.5t55.5 172.5l146 808q48 266 376 336q87 18 155 18q54 0 102.5 -14.5t86 -53t37.5 -93.5q0 -65 -40 -107.5
t-104 -42.5q-58 0 -96 36.5t-38 93.5q0 85 125 141q-17 4 -39 4q-125 0 -164 -207l-106 -584l458 453q129 125 129 211q0 87 -139 127l2 8h670l-2 -8q-150 -52 -254 -121t-250 -199l-188 -172l301 -661q37 -87 81.5 -141t120.5 -103z" />
    <glyph glyph-name="uni0199" unicode="&#x199;" horiz-adv-x="1189" 
d="M836 -27q-60 1 -102 19t-69.5 54.5t-43.5 76t-31 100.5l-82 314q240 63 403 145v4q-60 24 -97.5 79t-37.5 119q0 76 64.5 130.5t141.5 54.5q82 0 140 -54.5t58 -135.5q0 -80 -56 -139q-53 -56 -107 -83q-55 -26 -167 -63l94 -270q46 -131 159 -131q49 0 109 28v-8
q-71 -90 -177.5 -165t-198.5 -75zM786 1475q48 0 94.5 -11t88 -33.5t67 -62t25.5 -91.5q0 -79 -48.5 -130t-127.5 -51q-69 0 -118.5 43.5t-49.5 111.5q0 111 157 174q-24 5 -49 7q-60 0 -106 -37t-68.5 -86.5t-34.5 -110.5l-219 -1198h-366l205 1087q19 96 71.5 172t128 122
t164.5 70t186 24z" />
    <glyph glyph-name="uni019A" unicode="&#x19a;" horiz-adv-x="618" 
d="M229 -27q-159 0 -157 191q0 48 12 115l74 399h-140l15 92h143l62 326q12 60 12 116q0 61 -36 97.5t-101 64.5v8q105 7 289 37q172 28 257 56h9l-129 -705h143l-14 -92h-146l-65 -356q-8 -56 -8 -72q0 -62 46 -62q47 0 126 39v-8q-55 -88 -164 -167t-228 -79z" />
    <glyph glyph-name="uni019B" unicode="&#x19b;" horiz-adv-x="1089" 
d="M901 -23q-100 -1 -147 55t-47 177q0 65 13 218t13 235v36l-293 -532q-49 -75 -82 -166h-446l750 1120l-7 27l-336 -221v86l310 205l-21 34q-16 -13 -59 -46q-62 -45 -173 -45q-72 0 -112.5 46t-40.5 119q0 79 71 150q72 69 174 69q197 -2 245 -270v-2l227 149v-86
l-215 -141l133 -745q9 -53 24 -101.5t41 -101.5t68.5 -85t95.5 -32h23l-2 -10q-28 -59 -86.5 -100.5t-120.5 -41.5z" />
    <glyph glyph-name="uni019C" unicode="&#x19c;" horiz-adv-x="1910" 
d="M174 1405v8h596v-8q-82 -43 -113 -102t-49 -168l-143 -822q-17 -84 29 -128q44 -44 116 -44t111 15q-12 72 4 157l143 822q22 109 12 169q-11 61 -75 101v8h596v-8q-82 -43 -113 -102t-49 -168l-143 -822q-16 -85 22 -129q37 -43 98 -43q63 0 111 13l172 981
q23 110 11 169q-11 60 -74 101v8h596v-8q-82 -43 -113 -102t-49 -168l-137 -781q-23 -137 -7 -187q16 -52 91 -91v-8q-210 -18 -512 -93h-9l27 158q-73 -70 -172.5 -113.5t-198.5 -44.5q-199 0 -231 170q-70 -76 -185 -122.5t-222 -46.5q-117 0 -184 79q-68 79 -36 258
l144 822q23 110 11 169q-11 61 -75 101z" />
    <glyph glyph-name="uni019D" unicode="&#x19d;" horiz-adv-x="1701" 
d="M-78 -430q-254 0 -254 205q0 75 50 124.5t125 49.5q69 0 118 -44t49 -112q0 -110 -157 -174q26 -6 49 -6q46 1 83 21t61 55t39.5 73.5t23.5 83.5l225 1289q18 106 -12 164q-32 59 -125 106l2 8h510l655 -936l80 453q45 256 15 348q-16 49 -42.5 75.5t-77.5 51.5l2 8h494
l-2 -8q-76 -34 -121 -74q-91 -82 -147 -401l-164 -930h-156l-792 1126l-205 -1169q-39 -220 -106 -303q-68 -84 -220 -84z" />
    <glyph glyph-name="uni019E" unicode="&#x19e;" horiz-adv-x="1234" 
d="M739 870q-88 0 -190 -141l-125 -729h-365l127 723q16 97 -15 114q-7 4 -22 4q-41 0 -131 -34v8q61 89 171.5 171.5t200.5 82.5q88 0 134 -60q47 -61 31 -198h8q157 258 377 258q143 0 196 -116t15 -316l-190 -1047h-365l209 1102q34 178 -66 178z" />
    <glyph glyph-name="uni019F" unicode="&#x19f;" horiz-adv-x="1724" 
d="M1272 926q0 60 -6.5 116t-25.5 117t-48.5 105t-81 73t-117.5 29q-81 0 -153 -41t-121.5 -102.5t-91 -144.5t-65.5 -157.5t-40 -150.5h740q10 81 10 156zM492 487q0 -49 4.5 -95.5t15.5 -98.5t31.5 -95t49.5 -78.5t73.5 -55t99.5 -19.5q72 -1 136.5 28.5t112.5 81.5
t87.5 114.5t67.5 136.5t46.5 139.5t30.5 130.5h-741q-14 -95 -14 -189zM772 -31q-277 0 -483 175q-207 175 -207 458q0 139 53 273.5t147 239.5q151 169 335 247q189 80 369 80q110 0 214 -28.5t191 -84t152 -131.5t101.5 -176.5t36.5 -212.5q0 -244 -152.5 -452.5
t-383.5 -308.5q-185 -79 -373 -79z" />
    <glyph glyph-name="Ohorn" unicode="&#x1a0;" horiz-adv-x="1724" 
d="M766 45q87 0 163.5 44t130 117.5t95.5 165t67 191.5t37.5 192t12.5 171q0 60 -6.5 116t-25.5 117t-48.5 105t-81 73t-117.5 29q-86 0 -160.5 -44.5t-125.5 -111.5t-92 -156.5t-64 -169.5t-37 -159q-23 -134 -22 -238q0 -49 4.5 -95.5t15.5 -98.5t31.5 -95t49.5 -78.5
t73.5 -55t99.5 -19.5zM1681 809q0 -244 -152.5 -452.5t-383.5 -308.5q-185 -79 -373 -79q-277 0 -483 175q-207 175 -207 458q0 139 53 273.5t147 239.5q139 156 322.5 241.5t388.5 85.5q94 0 273 -14q173 -14 238 -15q66 0 94 9q26 9 26 36t-35 80t-35 96q0 73 48 114.5
t123 41.5q74 0 122.5 -49t48.5 -123q0 -62 -18.5 -110t-50.5 -79t-77.5 -51t-95 -28.5t-108.5 -8.5q-118 2 -215 17q162 -85 256 -228t94 -321z" />
    <glyph glyph-name="ohorn" unicode="&#x1a1;" horiz-adv-x="1183" 
d="M520 45q39 0 73.5 36.5t58 87t43 116t29 111.5t15.5 85q23 159 23 273q0 33 -3 66.5t-12.5 79t-32.5 73t-57 26.5q-91 0 -165 -213q-74 -214 -74 -477q0 -264 102 -264zM1049 1118q-2 15 -21 58q-20 45 -20 73q0 65 44.5 101.5t111.5 38.5q70 0 113.5 -38t43.5 -106
q0 -239 -342 -237q-42 0 -72 2q108 -58 165.5 -162t57.5 -230q0 -249 -190 -446q-191 -198 -436 -197q-185 0 -319 122q-132 121 -132 329q2 258 191 450q191 194 430 193l252 -20q123 0 123 69z" />
    <glyph glyph-name="uni01A2" unicode="&#x1a2;" horiz-adv-x="2099" 
d="M991 1360q-190 0 -315 -188q-125 -189 -176 -477q-52 -289 22 -469q74 -179 266 -179q71 1 114.5 14t107.5 50l213 1210q-168 39 -232 39zM1690 1243q0 78 -64 78h-45l-221 -1258q-224 -73 -451 -88q-68 -4 -209 -4q-175 0 -318.5 79.5t-226.5 221t-83 316.5
q0 171 80 330.5t208 273t294.5 182t334.5 68.5q84 0 264 -27q179 -27 269 -27q89 0 274 15q184 13 270 39h31l-276 -1573q-15 -77 -17 -129q0 -90 82 -141l-2 -9h-629l2 9q101 44 137.5 99t55.5 171l236 1335q4 25 4 39z" />
    <glyph glyph-name="uni01A3" unicode="&#x1a3;" horiz-adv-x="1759" 
d="M1321 831q0 76 -64 76h-38l-74 -422q-29 -167 -129 -285q-188 -224 -498 -225q-191 0 -328 130q-137 131 -137 339t114.5 361t315.5 224q111 40 203 40t288 -43q197 -43 278 -43q95 0 244 25t210 61h31l-211 -1200q-15 -77 -17 -129q0 -90 82 -141l-2 -9h-628l2 9
q100 43 136.5 98.5t55.5 171.5l162 922q4 25 4 40zM416 223q0 -184 104 -184q93 0 152 107q58 110 98 337l82 471q-71 52 -156 52q-160 0 -241 -454q-39 -214 -39 -329z" />
    <glyph glyph-name="uni01A4" unicode="&#x1a4;" horiz-adv-x="1540" 
d="M762 666h96q129 0 210 98q116 140 116 334q0 117 -60 178t-176 61h-67zM831 8v-8h-712v8q52 22 86 47t54.5 62t31 72.5t22.5 97.5l150 850q25 136 -17 185q-42 48 -159 48q-25 0 -51 -6q47 -22 76 -74q28 -48 17 -114t-62 -104t-120 -38q-71 0 -117 54t-31 138
q9 50 43 88t81.5 58.5t97 30.5t98.5 10h719q55 0 102.5 -3t102.5 -12t99.5 -24t87.5 -40.5t71.5 -60t46 -84t17.5 -110.5q0 -113 -35.5 -200t-94.5 -141t-144 -88.5t-175 -48t-196 -13.5h-172l-54 -301q-10 -54 -10 -107q0 -108 147 -172z" />
    <glyph glyph-name="uni01A5" unicode="&#x1a5;" horiz-adv-x="1247" 
d="M653 905q-23 0 -78 -18l-141 -819q31 -18 62 -19q142 0 239 172q99 172 99 428t-181 256zM805 1475q48 0 94.5 -11t88 -33.5t67 -62t25.5 -91.5q0 -79 -49.5 -130t-127.5 -51q-69 0 -118.5 43.5t-49.5 111.5q0 111 158 174q-24 5 -49 7q-60 0 -106 -37t-68.5 -86.5
t-34.5 -110.5l-45 -252q141 123 311 123q134 -2 219 -109q86 -109 86 -296q0 -189 -112 -352q-113 -166 -273 -251q-161 -86 -317 -86q-23 0 -86 5l-19 -111q-14 -81 -14 -123q0 -88 113 -147l-2 -9h-629l2 9q81 42 114.5 103t51.5 167l219 1218q26 133 117 225
q88 88 194 125.5t240 37.5z" />
    <glyph glyph-name="uni01A6" unicode="&#x1a6;" horiz-adv-x="1466" 
d="M559 502h64q121 0 215 79q121 102 127 302q-1 102 -59 154.5t-161 54.5h-83zM1384 -319h-354q-64 0 -89 3q-33 2 -61.5 27.5t-42.5 59.5q-23 57 -46 123l-183 540h-61l-27 -147q-14 -86 -14 -128q0 -95 110 -151l-2 -8h-669l2 8q52 22 85 47.5t53.5 62t31 72.5t22.5 97
l148 839q14 81 14 117q0 103 -111 162l3 8h671l-2 -8q-89 -38 -128.5 -89t-57.5 -149h104q586 0 586 -303q0 -87 -38.5 -162.5t-109.5 -121.5q-126 -80 -270 -99l287 -614q73 -160 151 -178z" />
    <glyph glyph-name="uni01A7" unicode="&#x1a7;" horiz-adv-x="1171" 
d="M496 -31q-207 -1 -339 99t-132 262t93 278q72 88 158 140q179 109 372 209q81 43 137.5 104t56.5 136q0 69 -41 119t-109 50q-50 0 -106.5 -26.5t-101 -61.5t-97.5 -91t-82 -92t-69 -87h-9l62 354q207 80 403 80q199 0 332 -97q134 -98 135 -253q0 -126 -77.5 -233
t-197.5 -180q-116 -71 -234 -132q-289 -150 -310 -273q-4 -29 -4 -45q0 -80 51 -132t131 -52q112 0 234 108q116 103 290 314h11l-72 -404q-194 -94 -485 -94z" />
    <glyph glyph-name="uni01A8" unicode="&#x1a8;" horiz-adv-x="854" 
d="M139 733l49 285q154 51 308 51q153 0 259 -86q105 -85 105 -201q0 -99 -38.5 -178t-119.5 -124q-120 -68 -294 -132q-66 -23 -112 -68.5t-46 -107.5q0 -61 36.5 -91t98.5 -30q147 0 399 320h11l-74 -346q-162 -47 -334 -47q-56 0 -111 10t-108 33t-93.5 56t-65.5 83.5
t-25 111.5q0 130 66 216q67 87 158 130q96 46 185 80q223 84 223 188q-1 110 -118 109q-68 0 -142 -59t-209 -203h-8z" />
    <glyph glyph-name="uni01A9" unicode="&#x1a9;" horiz-adv-x="1251" 
d="M1055 0h-1116v8l628 596l-381 799l2 10h1094l-68 -389h-8q-61 158 -124 234q-62 74 -162 75h-326l250 -567l-2 -14l-529 -492h492q112 0 173 26q59 25 200 148h8z" />
    <glyph glyph-name="uni01AA" unicode="&#x1aa;" horiz-adv-x="1050" 
d="M330 1477q-50 0 -96 -43.5t-46 -93.5q0 -49 28.5 -77t77.5 -30q48 0 95 39q47 38 47 118q0 28 -27 58q-29 29 -79 29zM188 -43l220 1249q-58 -43 -130 -43q-75 0 -118 46t-43 122q0 79 69 147q69 66 168 66q139 0 259 -117t120 -325q0 -73 -10 -123l-201 -1133
q-6 -40 -6 -73q0 -160 131 -160q23 0 53 6q-48 21 -72 66.5t-24 101.5q0 69 53 115.5t123 46.5t115 -43.5t45 -112.5q0 -64 -33 -110t-87 -69.5t-109.5 -33.5t-115.5 -10q-163 0 -288 78t-125 237q0 33 6 72z" />
    <glyph glyph-name="uni01AB" unicode="&#x1ab;" horiz-adv-x="724" 
d="M193 -430q-51 0 -98.5 10t-92 31.5t-71.5 61.5t-27 95q0 79 48 130t127 51q69 0 118 -44t49 -112q0 -109 -158 -174q25 -6 49 -6q46 1 83 21.5t61.5 54.5t39.5 73.5t23 83.5l25 144q-49 -15 -99 -17q-94 0 -154 70t-30 236l121 620l-160 16l-4 19l121 55q168 78 244 301
h231l-49 -246h207l-23 -157h-209l-106 -568q-18 -101 33 -125q14 -7 36 -7q52 0 136 40l-46 -270q-68 -387 -425 -387z" />
    <glyph glyph-name="uni01AC" unicode="&#x1ac;" horiz-adv-x="1413" 
d="M963 8v-8h-680v8q52 22 86 47t54.5 62t31 72.5t22.5 97.5l187 1056h-377q-25 0 -51 -6q57 -25 90.5 -71.5t33.5 -106.5q0 -67 -49 -109t-117 -42q-80 0 -124.5 53.5t-44.5 134.5q0 90 75 154q76 63 211 63h1202l-45 -399h-10q-122 213 -178 270q-57 59 -172 59h-55
l-187 -1056q-26 -110 -8 -172q18 -64 105 -107z" />
    <glyph glyph-name="uni01AD" unicode="&#x1ad;" horiz-adv-x="724" 
d="M282 -27q-106 0 -166 70t-30 236l121 620l-160 16l-4 19l121 55q35 14 65 39l13 59q24 124 106 213.5t193 132t239 42.5q140 -1 213 -57q74 -56 74 -141q0 -79 -48.5 -130t-127.5 -51q-69 0 -118.5 43.5t-49.5 111.5q0 111 158 174q-25 5 -50 7q-88 0 -139.5 -69
t-68.5 -165l-29 -154h203l-23 -157h-209l-106 -568q-18 -101 33 -125q14 -7 36 -7q52 0 136 40v-8q-60 -95 -170 -170.5t-212 -75.5z" />
    <glyph glyph-name="uni01AE" unicode="&#x1ae;" horiz-adv-x="1413" 
d="M664 1343h-35q-118 0 -204 -61q-88 -62 -282 -268h-10l94 399h1286l-45 -399h-10q-122 213 -178 270q-57 59 -172 59h-55l-265 -1497q-6 -40 -6 -73q0 -160 131 -160q23 0 54 6q-49 21 -73 66.5t-24 101.5q0 69 53 115.5t123 46.5t115 -43.5t45 -112.5q0 -64 -33 -110
t-87.5 -69.5t-110 -33.5t-115.5 -10q-164 0 -306 79q-140 80 -140 236q0 33 6 72z" />
    <glyph glyph-name="Uhorn" unicode="&#x1af;" horiz-adv-x="1634" 
d="M1225 1413h274q199 0 199 82q0 13 -23 57q-23 45 -22 72q0 60 49 99.5t110 39.5q66 -2 110 -37t44 -99q0 -132 -124 -184q-103 -45 -251 -61q-52 -6 -78 -149l-149 -836q-22 -121 -75.5 -206t-135.5 -132.5t-178 -68t-219 -20.5q-55 0 -107 3.5t-114 14t-114.5 26.5
t-103.5 44t-86 64t-56.5 88.5t-20.5 115.5q0 35 6 71l129 738q14 82 14 123q0 51 -29.5 84.5t-83.5 62.5l3 8h671l-2 -8q-100 -43 -136.5 -98.5t-55.5 -171.5l-135 -766q-3 -13 -5 -52q0 -50 18.5 -90t48.5 -64.5t71 -41t83.5 -23t88.5 -6.5q357 0 413 311l95 527
q43 261 3 358q-23 51 -47 69q-26 19 -81 48z" />
    <glyph glyph-name="uhorn" unicode="&#x1b0;" horiz-adv-x="1263" 
d="M890 -27q-81 -1 -128 49t-47 160q0 28 2 54h-4q-64 -104 -163 -183.5t-202 -79.5q-242 0 -242 275q0 79 17 158l65 315q8 35 9 72q1 61 -49 61t-130 -39v8q58 93 154 170q95 76 213 76q74 0 126 -46t52 -153q0 -44 -12 -106l-82 -414q-8 -43 -8 -80q0 -98 74 -98
q88 0 190 141l117 682q358 45 358 133q0 14 -24 52q-23 37 -25 67q0 60 46.5 101t106.5 41q66 0 113 -38t47 -102q0 -180 -250 -207l-127 -723q-6 -38 -6 -61q0 -57 45 -57q36 0 129 35v-9q-56 -84 -168.5 -169t-196.5 -85z" />
    <glyph glyph-name="uni01B1" unicode="&#x1b1;" horiz-adv-x="1683" 
d="M350 1413h660v-8q-218 -244 -346 -472q-131 -233 -132 -482q0 -168 77 -287t198 -119q70 -1 135.5 34t115 92.5t85.5 120.5t59 129q60 165 60 317q0 182 -46.5 331.5t-144.5 335.5v8h660l-25 -375h-8q-47 63 -86 76q-40 14 -137 14h-197q38 -41 121 -116q95 -86 130 -120
q58 -57 95 -133t37 -151q0 -96 -35.5 -184.5t-97.5 -158t-139.5 -123.5t-166.5 -90q-197 -80 -415 -81q-288 0 -487 158q-198 158 -197 381q0 187 134 306q105 89 243 175q152 95 205 137h-197q-98 0 -142.5 -15t-113.5 -75h-8z" />
    <glyph glyph-name="uni01B2" unicode="&#x1b2;" horiz-adv-x="1540" 
d="M160 397l131 738q12 67 12 117q0 56 -27.5 90.5t-82.5 62.5l2 8h669l-2 -8q-53 -23 -86 -46t-53.5 -57.5t-31 -69.5t-21.5 -97l-135 -766q-5 -28 -7 -62q0 -56 23 -99t63 -67.5t87 -36.5t101 -12q227 -2 359 191q158 226 248 766q12 83 12 120q0 197 -188 205
q90 -40 90 -124q0 -78 -55 -133.5t-133 -55.5q-68 0 -110 36t-42 103q0 74 46.5 130.5t113.5 83t139 26.5q117 0 180.5 -68t65.5 -186q0 -116 -43 -325q-84 -412 -169 -547q-39 -62 -82 -122q-38 -52 -86 -88.5t-118 -73.5q-112 -58 -299 -61q-79 0 -150 7t-153 29.5
t-140.5 59t-97.5 101.5t-38 151q0 38 8 80z" />
    <glyph glyph-name="uni01B3" unicode="&#x1b3;" horiz-adv-x="1601" 
d="M1120 8v-8h-671v8q52 22 86 47t54.5 62t31 72.5t22.5 97.5l59 340l-153 424q-85 236 -172 313q25 -54 25 -118q0 -62 -48 -111q-46 -49 -125 -49q-81 0 -130.5 47.5t-49.5 128.5q0 50 26.5 87t69.5 56t87.5 28t91.5 9q461 0 594 -391l114 -336l213 334q123 193 93 263
q-15 39 -48 58.5t-86 34.5l2 8h559l-2 -8q-108 -38 -187 -110q-77 -70 -206 -253l-287 -415l-59 -340q-26 -110 -8 -172q18 -63 104 -107z" />
    <glyph glyph-name="uni01B4" unicode="&#x1b4;" horiz-adv-x="1400" 
d="M88 842q-46 0 -104 -29v8q55 84 157 166q101 82 201 82q60 0 105.5 -35.5t70.5 -93.5q41 -98 83 -316q39 -203 50 -388h4q87 161 167 368q81 209 125 295q87 170 233 170q79 0 138.5 -49.5t59.5 -126.5q0 -74 -50.5 -125t-123.5 -51q-74 0 -129 60t-39 132
q-13 -6 -68 -148q-187 -474 -348 -697q-162 -222 -310 -358t-294 -136q-113 0 -169 56t-56 133q0 78 52 131.5t130 53.5q82 0 131.5 -58t51.5 -142q-2 -18 -9 -63h5q76 28 241 200q-39 458 -167 785q-69 176 -138 176z" />
    <glyph glyph-name="uni01B5" unicode="&#x1b5;" horiz-adv-x="1261" 
d="M1100 0h-1143v8l479 670h-350l14 92h402l405 567h-200q-120 0 -221 -62q-99 -60 -312 -251h-8l108 389h1094l-2 -8l-448 -635h313l-14 -92h-365l-424 -602h199q103 0 158 15q123 33 429 339h11z" />
    <glyph glyph-name="uni01B6" unicode="&#x1b6;" horiz-adv-x="925" 
d="M586 741h-281q-101 0 -138 -9t-87 -56h-17l97 368h801v-8l-408 -444h352l-14 -92h-422l-184 -203h29q315 0 414 21q104 23 167 108l16 -2q-8 -19 -52 -153q-43 -130 -85 -210q-44 -81 -90 -81q-61 0 -335 10t-437 10l-2 8l452 492h-362l14 92h432z" />
    <glyph glyph-name="uni01B7" unicode="&#x1b7;" 
d="M1182 1413l-2 -8l-469 -453q190 -39 298 -169q107 -131 77 -298t-156 -287q-117 -111 -266.5 -169t-313.5 -60q-218 0 -319 84t-78 209q14 82 77 136t146 54q82 0 128 -54q46 -55 32 -138q-18 -111 -131 -188q123 -62 293 39t207 303q29 167 -67 240q-82 63 -210 63
q-13 0 -43 -2l-10 24l385 385h-576l52 289h946z" />
    <glyph glyph-name="uni01B8" unicode="&#x1b8;" 
d="M604 -31q-156 2 -286.5 57.5t-213.5 171.5q-84 120 -54 288q16 91 70 172t130 139t163.5 98t178.5 57l-309 453l2 8h946l-51 -289h-576l250 -385l-18 -24q-26 2 -38 2q-130 0 -237 -64q-122 -73 -151 -239q-40 -239 154 -337q46 -24 104 -26q55 -1 118 21q-86 77 -65 188
q13 81 79.5 136.5t149.5 55.5q82 0 128 -54q46 -53 32 -136q-22 -124 -154 -209q-130 -84 -352 -84z" />
    <glyph glyph-name="uni01B9" unicode="&#x1b9;" horiz-adv-x="1120" 
d="M868 84q82 0 128 -54q46 -53 32 -136q-22 -124 -154 -209q-130 -84 -345 -84q-102 0 -199.5 30t-180 96.5t-120.5 158.5q-40 99 -21 220q34 188 172 315.5t330 162.5l-309 452l2 8h946l-51 -288h-576l250 -385l-18 -25q-28 2 -41 2q-144 0 -232 -79t-112 -224
q-15 -92 9 -173q43 -145 194 -184q22 -6 46 -6q44 0 87 21q-85 76 -66 188q13 81 80 137t149 56z" />
    <glyph glyph-name="uni01BA" unicode="&#x1ba;" horiz-adv-x="1005" 
d="M320 -428q-364 0 -365 285q0 225 110 306q110 82 381 113q185 22 187 164q0 62 -69 88q-68 25 -228 25l6 41l248 207h-449l43 243h846l-8 -43l-449 -387l50 -5t54.5 -8t58 -13t52 -20.5t45.5 -30t28.5 -41t10.5 -54.5q0 -109 -94 -169q-94 -59 -340 -85q-95 -11 -139 -68
q-45 -58 -45 -130q0 -146 176 -146q270 0 393 201h15q-49 -214 -196 -344q-146 -129 -322 -129z" />
    <glyph glyph-name="uni01BB" unicode="&#x1bb;" 
d="M852 1098q0 105 -51.5 173t-153.5 68q-57 0 -123 -20.5t-100 -56.5v-7q93 -11 154 -69q62 -59 61 -146q1 -87 -62 -145.5t-150 -58.5q-86 0 -144 58t-60 144q0 149 170 277q169 127 367 127q68 0 133.5 -12t128.5 -39t110.5 -67t76.5 -100.5t30 -133.5q0 -165 -182 -320
h211l-15 -92h-321q-55 -38 -217 -130q-161 -92 -238 -169l-59 -62h698l-110 -317h-963l8 55l496 502q52 52 110 121h-477l15 92h534q123 174 123 328z" />
    <glyph glyph-name="uni01BC" unicode="&#x1bc;" 
d="M399 -31q-178 -1 -274 61q-94 61 -94 162q0 93 56.5 156.5t148.5 63.5q80 0 133 -49.5t53 -129.5q0 -109 -133 -202q48 -8 67 -8q142 0 264 120q120 122 119 328q0 211 -239 211h-260l79 453q13 65 13 117q0 55 -28 90t-83 63l2 8h963l-51 -289h-725l-54 -303
q174 19 362 19q77 0 147 -17t130.5 -52t96.5 -97t36 -144q0 -106 -39 -195.5t-108.5 -153t-155.5 -108t-189 -71.5q-122 -33 -237 -33z" />
    <glyph glyph-name="uni01BD" unicode="&#x1bd;" horiz-adv-x="966" 
d="M311 772l-35 -197q121 37 282 37q65 0 122.5 -14t107 -43t78.5 -80.5t29 -119.5q0 -107 -47 -190.5t-141 -124.5q-155 -68 -337 -70q-181 -2 -275 52q-95 54 -95 143q0 83 47.5 137t129.5 54q65 0 121 -39.5t56 -102.5q0 -68 -38 -112.5t-107 -83.5q336 0 336 312
q0 150 -174 149h-224l52 287q12 68 12 118q0 55 -28 90t-83 62l2 8h842l-49 -272h-584z" />
    <glyph glyph-name="uni01BE" unicode="&#x1be;" horiz-adv-x="1005" 
d="M653 192q0 123 -180 236q-49 31 -145 97q-71 49 -114 119q-42 68 -28 149l21 106l-160 16l-4 19l121 55q168 78 244 301h231l-49 -246h207l-23 -157h-209l-8 -39q-16 -91 126 -179q34 -21 125 -80q154 -101 157 -281q0 -100 -84 -182q-155 -151 -408 -151q-149 0 -257 72
q-109 72 -107 182q0 78 51.5 132.5t128.5 54.5q74 0 128 -48.5t54 -121.5q-2 -65 -47.5 -120.5t-108.5 -66.5v-4q57 -27 141 -27q77 0 137 45t60 119z" />
    <glyph glyph-name="uni01BF" unicode="&#x1bf;" horiz-adv-x="1247" 
d="M856 698q0 209 -184 209q-46 0 -107 -45q-6 -82 -10 -98l-143 -819q83 33 143 71q220 143 281 512q20 117 20 170zM387 1069q160 0 174 -176q212 173 381 176q146 0 223.5 -84.5t77.5 -232.5q0 -180 -56.5 -306.5t-185.5 -255.5q-66 -66 -195 -138t-231 -103
q-10 -4 -24.5 -9t-36.5 -13t-37 -13q-70 -25 -76 -27l-36 -202l-498 -95l2 9q81 42 114.5 103t51.5 167l151 854q5 33 7 61q1 58 -41 58q-41 0 -134 -35v8q57 86 169.5 170t199.5 84z" />
    <glyph glyph-name="clickdental" unicode="&#x1c0;" horiz-adv-x="409" 
d="M434 1544l-313 -1780h-78l313 1780h78z" />
    <glyph glyph-name="clicklateral" unicode="&#x1c1;" horiz-adv-x="819" 
d="M844 1544l-314 -1780h-77l313 1780h78zM434 1544l-313 -1780h-78l313 1780h78z" />
    <glyph glyph-name="uni01C2" unicode="&#x1c2;" horiz-adv-x="571" 
d="M317 467l-81 -467h-109l82 467h-209l18 111h211l33 196h-211l21 109h211l88 503h108l-88 -503h213l-20 -109h-213l-33 -196h213l-21 -111h-213z" />
    <glyph glyph-name="uni01C3" unicode="&#x1c3;" horiz-adv-x="612" 
d="M465 179q1 -85 -63 -144t-150 -59q-87 0 -148.5 58t-62.5 145q0 86 62 145t149 61q87 -2 150.5 -61t62.5 -145zM315 455h-26q4 55 4 135q0 72 -38 268t-38 306q-1 112 63 195q65 83 189 83q81 0 132.5 -55t51.5 -137q0 -84 -42.5 -187.5t-100.5 -184.5
q-67 -96 -120.5 -209t-74.5 -214z" />
    <glyph glyph-name="uni01C4" unicode="&#x1c4;" horiz-adv-x="2764" 
d="M2617 1782l-233 -250h-199l-143 250h20l242 -107l293 107h20zM2603 0h-1143v8l950 1329h-200q-120 0 -220 -62q-95 -59 -313 -251h-8l109 389h1093l-2 -8l-938 -1329h199q102 0 158 15q121 31 430 339h10zM666 0h-721v8q52 22 86 47t54.5 62t31 72.5t22.5 97.5l150 848
q12 69 12 119q0 54 -28 87.5t-83 63.5l3 8h659q121 0 228 -20.5t202 -66.5t163.5 -115t108.5 -171.5t39 -230.5q-1 -149 -52.5 -280t-140.5 -226.5t-206 -164.5t-252 -103.5t-276 -34.5zM483 76h148q108 0 203 46t164 130q198 244 198 596q0 101 -22.5 186.5t-68 154.5
t-124.5 108.5t-184 39.5h-90z" />
    <glyph glyph-name="uni01C5" unicode="&#x1c5;" horiz-adv-x="2553" 
d="M2458 1413l-234 -250h-199l-143 250h21l241 -106l293 106h21zM2214 741h-281q-101 0 -139 -9q-35 -9 -86 -56h-16l96 368h801v-8l-676 -739h29q315 0 414 21q104 23 167 108l17 -2q-8 -19 -52 -153q-41 -125 -86 -210q-44 -81 -90 -81q-61 0 -335 10t-437 10l-2 8zM666 0
h-721v8q52 22 86 47t54.5 62t31 72.5t22.5 97.5l150 848q12 69 12 119q0 54 -28 87.5t-83 63.5l3 8h659q121 0 228 -20.5t202 -66.5t163.5 -115t108.5 -171.5t39 -230.5q-1 -149 -52.5 -280t-140.5 -226.5t-206 -164.5t-252 -103.5t-276 -34.5zM483 76h148q108 0 203 46
t164 130q198 244 198 596q0 101 -22.5 186.5t-68 154.5t-124.5 108.5t-184 39.5h-90z" />
    <glyph glyph-name="uni01C6" unicode="&#x1c6;" horiz-adv-x="2131" 
d="M2068 1413l-233 -250h-199l-143 250h20l242 -106l293 106h20zM1792 741h-281q-101 0 -139 -9q-35 -9 -86 -56h-16l96 368h801v-8l-676 -739h29q315 0 414 21q104 23 167 108l17 -2q-8 -19 -52 -153q-41 -125 -86 -210q-44 -81 -90 -81q-61 0 -335 10t-437 10l-2 8z
M719 1004q-86 0 -182 -195q-95 -194 -97 -440q0 -180 109 -181q71 2 129 54l133 719q-50 43 -92 43zM829 -27q-71 -2 -113 57q-42 58 -36 177h-4q-127 -231 -307 -232q-124 -1 -209 91q-84 92 -84 260q0 291 196 517t455 226q48 0 102 -10l9 37q14 61 14 116q0 62 -35.5 98
t-103.5 64v8q105 7 289 37q171 28 258 56h8l-211 -1153q-8 -56 -8 -72q0 -62 46 -62q47 0 126 39v-8q-55 -88 -164 -167t-228 -79z" />
    <glyph glyph-name="uni01C7" unicode="&#x1c7;" horiz-adv-x="1855" 
d="M930 -428l-6 6q98 49 161.5 168.5t88.5 251.5l200 1137q24 109 6 168q-18 58 -104 102l2 8h672l-2 -8q-100 -44 -136 -98.5t-57 -171.5l-172 -975q-78 -441 -653 -588zM1024 0h-1079v8q100 43 136.5 98.5t55.5 172.5l152 856q25 109 7 168t-106 102l3 8h671l-2 -8
q-100 -43 -136.5 -98.5t-55.5 -171.5l-187 -1059h84q163 0 266 81t291 267h15z" />
    <glyph glyph-name="uni01C8" unicode="&#x1c8;" horiz-adv-x="1755" 
d="M1327 784q0 58 -41 58q-40 0 -133 -35v8q56 84 168.5 169t197.5 85q181 0 181 -201q0 -57 -10 -104l-103 -563q-67 -355 -331 -503q-149 -83 -322 -128l-4 12q88 49 167 173q79 125 105 282l119 686q6 38 6 61zM1599 1098q-76 0 -130 54.5t-54 131.5q0 76 53.5 130
t130.5 54q76 0 131.5 -54t55.5 -130t-55.5 -131t-131.5 -55zM1024 0h-1079v8q100 43 136.5 98.5t55.5 172.5l152 856q25 109 7 168t-106 102l3 8h671l-2 -8q-100 -43 -136.5 -98.5t-55.5 -171.5l-187 -1059h84q163 0 266 81t291 267h15z" />
    <glyph glyph-name="uni01C9" unicode="&#x1c9;" horiz-adv-x="1226" 
d="M799 784q0 58 -41 58q-40 0 -133 -35v8q56 84 168.5 169t196.5 85q180 0 181 -201q0 -57 -10 -104l-102 -563q-27 -141 -82.5 -246.5t-141.5 -179t-188.5 -121.5t-240.5 -84l-5 12q88 49 167 173q79 123 106 282l119 686q6 38 6 61zM1071 1098q-76 0 -130 54.5t-54 131.5
q0 76 53.5 130t130.5 54t131.5 -54t54.5 -130t-54.5 -131t-131.5 -55zM229 -27q-159 0 -157 191q0 48 12 115l154 817q12 60 12 116q0 61 -36 97.5t-101 64.5v8q105 7 289 37q172 28 257 56h9l-211 -1153q-8 -56 -8 -72q0 -62 46 -62q47 0 126 39v-8q-55 -88 -164 -167
t-228 -79z" />
    <glyph glyph-name="uni01CA" unicode="&#x1ca;" horiz-adv-x="2430" 
d="M1505 -428l-6 6q99 49 162.5 169t87.5 251l201 1137q24 109 6 168t-105 102l2 8h672l-2 -8q-100 -43 -136.5 -98.5t-55.5 -171.5l-172 -975q-79 -441 -654 -588zM442 8v-8h-493v8q115 49 171 142t101 342l113 643q18 106 -12 164q-32 59 -125 106l2 8h510l655 -936
l80 453q45 256 15 348q-16 49 -42.5 75.5t-77.5 51.5l2 8h494l-2 -8q-76 -34 -121 -74q-91 -82 -147 -401l-164 -930h-156l-792 1126l-111 -634q-46 -257 -17 -352q14 -50 40.5 -78.5t76.5 -53.5z" />
    <glyph glyph-name="uni01CB" unicode="&#x1cb;" horiz-adv-x="2289" 
d="M2054 1069q180 0 180 -201q0 -57 -10 -104l-102 -563q-67 -352 -331 -504q-139 -79 -323 -127l-4 12q88 49 167 173q79 123 106 282l118 686q5 33 7 61q0 58 -41 58q-40 0 -133 -35v8q56 84 168.5 169t197.5 85zM2134 1098q-76 0 -130 54.5t-54 131.5q0 76 54 130t130 54
q77 0 131.5 -54t54.5 -130t-55 -131t-131 -55zM442 8v-8h-493v8q115 49 171 142t101 342l113 643q18 106 -12 164q-32 59 -125 106l2 8h510l655 -936l80 453q45 256 15 348q-16 49 -42.5 75.5t-77.5 51.5l2 8h494l-2 -8q-76 -34 -121 -74q-91 -82 -147 -401l-164 -930h-156
l-792 1126l-111 -634q-46 -257 -17 -352q14 -50 40.5 -78.5t76.5 -53.5z" />
    <glyph glyph-name="uni01CC" unicode="&#x1cc;" horiz-adv-x="1871" 
d="M1444 784q0 58 -41 58q-40 0 -133 -35v8q56 84 168.5 169t197.5 85q180 0 181 -201q0 -52 -11 -104l-102 -563q-68 -356 -330 -503q-148 -84 -323 -128l-4 12q89 50 166 173q79 123 106 282l119 686q6 38 6 61zM1716 1098q-76 0 -130 54.5t-54 131.5q0 76 54 130t130 54
q77 0 131.5 -54t54.5 -130q0 -77 -54.5 -131.5t-131.5 -54.5zM893 -27q-76 1 -128 49t-52 154q0 56 10 103l82 413q8 43 8 80q0 98 -74 98q-88 0 -190 -141l-125 -729h-365l127 723q5 33 7 61q1 58 -41 58q-41 0 -134 -35v8q60 87 170 170.5t197 83.5q174 0 174 -199
q0 -23 -4 -59h8q157 258 377 258q118 0 172.5 -77t54.5 -201q0 -68 -16 -154l-59 -315q-8 -52 -9 -72q0 -62 46 -62q47 0 126 39v-8q-62 -103 -158.5 -174.5t-203.5 -71.5z" />
    <glyph glyph-name="uni01CD" unicode="&#x1cd;" horiz-adv-x="1638" 
d="M1323 1782l-233 -250h-199l-143 250h20l242 -107l293 107h20zM524 610h424l-98 637h-4zM1536 8v-8h-694v8q87 17 121 54q67 71 8 403l-10 57h-480q-150 -298 -149 -399q0 -57 36 -80.5t103 -34.5v-8h-547v8q82 17 130 52q106 76 329 503l446 850h336l170 -948
q63 -357 123 -418q27 -27 78 -39z" />
    <glyph glyph-name="uni01CE" unicode="&#x1ce;" horiz-adv-x="1177" 
d="M1100 1413l-234 -250h-198l-144 250h21l241 -106l293 106h21zM655 279l144 696q-49 31 -82 31q-34 0 -69 -29t-63.5 -76.5t-46 -83t-32.5 -72.5q-66 -167 -66 -376q0 -180 109 -181q53 0 98 39q5 39 8 52zM821 -23q-72 -1 -120 47q-49 49 -50 154h-6q-111 -203 -276 -203
q-124 -1 -209 91q-84 92 -84 260q0 290 193 516q194 227 438 227q41 0 141 -14q96 -15 147 -15q49 0 138 29h20l-129 -750q-6 -41 -6 -67q0 -64 45 -64t125 39v-8q-60 -93 -154 -167q-96 -75 -213 -75z" />
    <glyph glyph-name="uni01CF" unicode="&#x1cf;" horiz-adv-x="729" 
d="M862 1782l-233 -250h-199l-143 250h20l242 -107l293 107h20zM616 8v-8h-671v8q100 43 136.5 98.5t55.5 172.5l152 856q25 109 7 168t-106 102l3 8h671l-2 -8q-100 -43 -136.5 -98.5t-55.5 -171.5l-152 -856q-24 -109 -6 -168t104 -103z" />
    <glyph glyph-name="uni01D0" unicode="&#x1d0;" horiz-adv-x="632" 
d="M723 1413l-234 -250h-198l-144 250h21l242 -106l292 106h21zM252 -27q-74 0 -124 47t-50 156q0 40 10 103l86 444q8 56 8 63q0 54 -47 56q-36 0 -129 -35v8q56 84 168.5 169t197.5 85q181 0 181 -201q0 -57 -10 -104l-82 -442q-8 -56 -8 -72q0 -62 46 -62q47 0 126 39v-8
q-64 -104 -164 -175t-209 -71z" />
    <glyph glyph-name="uni01D1" unicode="&#x1d1;" horiz-adv-x="1724" 
d="M1333 1782l-233 -250h-199l-143 250h20l242 -107l293 107h20zM772 -31q-277 0 -483 175q-207 175 -207 458q0 139 53 273.5t147 239.5q151 169 335 247q189 80 369 80q110 0 214 -28.5t191 -84t152 -131.5t101.5 -176.5t36.5 -212.5q0 -244 -152.5 -452.5t-383.5 -308.5
q-185 -79 -373 -79zM766 45q87 0 163.5 44t130 117.5t95.5 165t67 191.5t37.5 192t12.5 171q0 60 -6.5 116t-25.5 117t-48.5 105t-81 73t-117.5 29q-86 0 -160.5 -44.5t-125.5 -111.5t-92 -156.5t-64 -169.5t-37 -159q-23 -134 -22 -238q0 -49 4.5 -95.5t15.5 -98.5
t31.5 -95t49.5 -78.5t73.5 -55t99.5 -19.5z" />
    <glyph glyph-name="uni01D2" unicode="&#x1d2;" horiz-adv-x="1183" 
d="M1016 1413l-234 -250h-198l-144 250h21l241 -106l293 106h21zM520 45q39 0 73.5 36.5t58 87t43 116t29 111.5t15.5 85q23 159 23 273q0 33 -3 66.5t-12.5 79t-32.5 73t-57 26.5q-91 0 -165 -213q-74 -214 -74 -477q0 -264 102 -264zM504 -25q-185 0 -319 122
q-132 121 -132 329q2 258 191 450q191 194 430 193q189 0 322 -124q134 -125 134 -327q0 -249 -190 -446q-191 -198 -436 -197z" />
    <glyph glyph-name="uni01D3" unicode="&#x1d3;" horiz-adv-x="1634" 
d="M1331 1782l-233 -250h-199l-143 250h20l242 -107l293 107h20zM160 397l129 738q14 82 14 123q0 51 -29.5 84.5t-83.5 62.5l3 8h671l-2 -8q-100 -43 -136.5 -98.5t-55.5 -171.5l-135 -766q-3 -13 -5 -52q0 -50 18.5 -90t48.5 -64.5t71 -41t83.5 -23t88.5 -6.5
q357 0 413 311l95 527q43 261 3 358q-23 51 -47 69q-26 19 -81 48l2 8h524l-2 -8q-96 -42 -134 -76t-79 -123q-44 -96 -76 -276l-94 -533q-22 -121 -75.5 -206t-135.5 -132.5t-178 -68t-219 -20.5q-55 0 -107 3.5t-114 14t-114.5 26.5t-103.5 44t-86 64t-56.5 88.5
t-20.5 115.5q0 35 6 71z" />
    <glyph glyph-name="uni01D4" unicode="&#x1d4;" horiz-adv-x="1263" 
d="M1038 1413l-233 -250h-199l-143 250h20l242 -106l293 106h20zM890 -27q-81 -1 -128 49t-47 160q0 28 2 54h-4q-64 -104 -163 -183.5t-202 -79.5q-242 0 -242 275q0 79 17 158l65 315q8 35 9 72q1 61 -49 61t-130 -39v8q58 93 154 170q95 76 213 76q74 0 126 -46t52 -153
q0 -44 -12 -106l-82 -414q-8 -43 -8 -80q0 -98 74 -98q88 0 190 141l125 731h364l-127 -725q-6 -38 -6 -61q0 -57 45 -57q36 0 129 35v-9q-56 -84 -168.5 -169t-196.5 -85z" />
    <glyph glyph-name="uni01D5" unicode="&#x1d5;" horiz-adv-x="1634" 
d="M1372 2028l-29 -164h-552l28 164h553zM848 1810q66 0 111 -44t45 -110q0 -64 -45 -109.5t-110 -45.5q-66 0 -111.5 44.5t-45.5 110.5t45 110t111 44zM1063 1656q0 66 45.5 110t111.5 44t110 -44t44 -110q0 -65 -44.5 -110t-109.5 -45q-66 0 -111.5 44.5t-45.5 110.5z
M160 397l129 738q14 82 14 123q0 51 -29.5 84.5t-83.5 62.5l3 8h671l-2 -8q-100 -43 -136.5 -98.5t-55.5 -171.5l-135 -766q-3 -13 -5 -52q0 -50 18.5 -90t48.5 -64.5t71 -41t83.5 -23t88.5 -6.5q357 0 413 311l95 527q43 261 3 358q-23 51 -47 69q-26 19 -81 48l2 8h524
l-2 -8q-96 -42 -134 -76t-79 -123q-44 -96 -76 -276l-94 -533q-22 -121 -75.5 -206t-135.5 -132.5t-178 -68t-219 -20.5q-55 0 -107 3.5t-114 14t-114.5 26.5t-103.5 44t-86 64t-56.5 88.5t-20.5 115.5q0 35 6 71z" />
    <glyph glyph-name="uni01D6" unicode="&#x1d6;" horiz-adv-x="1263" 
d="M1063 1679l-29 -163h-553l29 163h553zM549 1442q66 0 111 -44t45 -110q1 -64 -45 -110q-46 -45 -110 -45q-65 0 -111 45t-46 110q0 66 45 110t111 44zM921 1442q65 0 108.5 -44.5t45.5 -109.5q0 -65 -44.5 -110t-109.5 -45t-111 45t-46 110t46 109.5t111 44.5zM890 -27
q-81 -1 -128 49t-47 160q0 28 2 54h-4q-64 -104 -163 -183.5t-202 -79.5q-242 0 -242 275q0 79 17 158l65 315q8 35 9 72q1 61 -49 61t-130 -39v8q58 93 154 170q95 76 213 76q74 0 126 -46t52 -153q0 -44 -12 -106l-82 -414q-8 -43 -8 -80q0 -98 74 -98q88 0 190 141
l125 731h364l-127 -725q-6 -38 -6 -61q0 -57 45 -57q36 0 129 35v-9q-56 -84 -168.5 -169t-196.5 -85z" />
    <glyph glyph-name="uni01D7" unicode="&#x1d7;" horiz-adv-x="1634" 
d="M938 1839h-23q93 117 113 250h299q-70 -94 -153 -143q-85 -50 -236 -107zM848 1810q66 0 111 -44t45 -110q0 -64 -45 -109.5t-110 -45.5q-66 0 -111.5 44.5t-45.5 110.5t45 110t111 44zM1063 1656q0 66 45.5 110t111.5 44t110 -44t44 -110q0 -65 -44.5 -110t-109.5 -45
q-66 0 -111.5 44.5t-45.5 110.5zM160 397l129 738q14 82 14 123q0 51 -29.5 84.5t-83.5 62.5l3 8h671l-2 -8q-100 -43 -136.5 -98.5t-55.5 -171.5l-135 -766q-3 -13 -5 -52q0 -50 18.5 -90t48.5 -64.5t71 -41t83.5 -23t88.5 -6.5q357 0 413 311l95 527q43 261 3 358
q-23 51 -47 69q-26 19 -81 48l2 8h524l-2 -8q-96 -42 -134 -76t-79 -123q-44 -96 -76 -276l-94 -533q-22 -121 -75.5 -206t-135.5 -132.5t-178 -68t-219 -20.5q-55 0 -107 3.5t-114 14t-114.5 26.5t-103.5 44t-86 64t-56.5 88.5t-20.5 115.5q0 35 6 71z" />
    <glyph glyph-name="uni01D8" unicode="&#x1d8;" horiz-adv-x="1263" 
d="M651 1470h-22q94 118 112 250h299q-68 -93 -152 -142q-84 -50 -237 -108zM549 1442q66 0 111 -44t45 -110q1 -64 -45 -110q-46 -45 -110 -45q-65 0 -111 45t-46 110q0 66 45 110t111 44zM921 1442q65 0 108.5 -44.5t45.5 -109.5q0 -65 -44.5 -110t-109.5 -45t-111 45
t-46 110t46 109.5t111 44.5zM890 -27q-81 -1 -128 49t-47 160q0 28 2 54h-4q-64 -104 -163 -183.5t-202 -79.5q-242 0 -242 275q0 79 17 158l65 315q8 35 9 72q1 61 -49 61t-130 -39v8q58 93 154 170q95 76 213 76q74 0 126 -46t52 -153q0 -44 -12 -106l-82 -414
q-8 -43 -8 -80q0 -98 74 -98q88 0 190 141l125 731h364l-127 -725q-6 -38 -6 -61q0 -57 45 -57q36 0 129 35v-9q-56 -84 -168.5 -169t-196.5 -85z" />
    <glyph glyph-name="uni01D9" unicode="&#x1d9;" horiz-adv-x="1634" 
d="M1374 2089l-233 -250h-199l-143 250h20l242 -107l293 107h20zM848 1810q66 0 111 -44t45 -110q0 -64 -45 -109.5t-110 -45.5q-66 0 -111.5 44.5t-45.5 110.5t45 110t111 44zM1063 1656q0 66 45.5 110t111.5 44t110 -44t44 -110q0 -65 -44.5 -110t-109.5 -45
q-66 0 -111.5 44.5t-45.5 110.5zM160 397l129 738q14 82 14 123q0 51 -29.5 84.5t-83.5 62.5l3 8h671l-2 -8q-100 -43 -136.5 -98.5t-55.5 -171.5l-135 -766q-3 -13 -5 -52q0 -50 18.5 -90t48.5 -64.5t71 -41t83.5 -23t88.5 -6.5q357 0 413 311l95 527q43 261 3 358
q-23 51 -47 69q-26 19 -81 48l2 8h524l-2 -8q-96 -42 -134 -76t-79 -123q-44 -96 -76 -276l-94 -533q-22 -121 -75.5 -206t-135.5 -132.5t-178 -68t-219 -20.5q-55 0 -107 3.5t-114 14t-114.5 26.5t-103.5 44t-86 64t-56.5 88.5t-20.5 115.5q0 35 6 71z" />
    <glyph glyph-name="uni01DA" unicode="&#x1da;" horiz-adv-x="1263" 
d="M1067 1720l-233 -250h-199l-143 250h20l242 -106l293 106h20zM549 1442q66 0 111 -44t45 -110q1 -64 -45 -110q-46 -45 -110 -45q-65 0 -111 45t-46 110q0 66 45 110t111 44zM921 1442q65 0 108.5 -44.5t45.5 -109.5q0 -65 -44.5 -110t-109.5 -45t-111 45t-46 110
t46 109.5t111 44.5zM890 -27q-81 -1 -128 49t-47 160q0 28 2 54h-4q-64 -104 -163 -183.5t-202 -79.5q-242 0 -242 275q0 79 17 158l65 315q8 35 9 72q1 61 -49 61t-130 -39v8q58 93 154 170q95 76 213 76q74 0 126 -46t52 -153q0 -44 -12 -106l-82 -414q-8 -43 -8 -80
q0 -98 74 -98q88 0 190 141l125 731h364l-127 -725q-6 -38 -6 -61q0 -57 45 -57q36 0 129 35v-9q-56 -84 -168.5 -169t-196.5 -85z" />
    <glyph glyph-name="uni01DB" unicode="&#x1db;" horiz-adv-x="1634" 
d="M1225 1839h-23q-137 44 -227.5 98t-161.5 152h299q20 -133 113 -250zM848 1810q66 0 111 -44t45 -110q0 -64 -45 -109.5t-110 -45.5q-66 0 -111.5 44.5t-45.5 110.5t45 110t111 44zM1063 1656q0 66 45.5 110t111.5 44t110 -44t44 -110q0 -65 -44.5 -110t-109.5 -45
q-66 0 -111.5 44.5t-45.5 110.5zM160 397l129 738q14 82 14 123q0 51 -29.5 84.5t-83.5 62.5l3 8h671l-2 -8q-100 -43 -136.5 -98.5t-55.5 -171.5l-135 -766q-3 -13 -5 -52q0 -50 18.5 -90t48.5 -64.5t71 -41t83.5 -23t88.5 -6.5q357 0 413 311l95 527q43 261 3 358
q-23 51 -47 69q-26 19 -81 48l2 8h524l-2 -8q-96 -42 -134 -76t-79 -123q-44 -96 -76 -276l-94 -533q-22 -121 -75.5 -206t-135.5 -132.5t-178 -68t-219 -20.5q-55 0 -107 3.5t-114 14t-114.5 26.5t-103.5 44t-86 64t-56.5 88.5t-20.5 115.5q0 35 6 71z" />
    <glyph glyph-name="uni01DC" unicode="&#x1dc;" horiz-adv-x="1263" 
d="M979 1470h-23q-139 46 -228 99t-161 151h299q20 -133 113 -250zM549 1442q66 0 111 -44t45 -110q1 -64 -45 -110q-46 -45 -110 -45q-65 0 -111 45t-46 110q0 66 45 110t111 44zM921 1442q65 0 108.5 -44.5t45.5 -109.5q0 -65 -44.5 -110t-109.5 -45t-111 45t-46 110
t46 109.5t111 44.5zM890 -27q-81 -1 -128 49t-47 160q0 28 2 54h-4q-64 -104 -163 -183.5t-202 -79.5q-242 0 -242 275q0 79 17 158l65 315q8 35 9 72q1 61 -49 61t-130 -39v8q58 93 154 170q95 76 213 76q74 0 126 -46t52 -153q0 -44 -12 -106l-82 -414q-8 -43 -8 -80
q0 -98 74 -98q88 0 190 141l125 731h364l-127 -725q-6 -38 -6 -61q0 -57 45 -57q36 0 129 35v-9q-56 -84 -168.5 -169t-196.5 -85z" />
    <glyph glyph-name="uni01DD" unicode="&#x1dd;" horiz-adv-x="1011" 
d="M393 41q84 0 153 136q70 138 77 347q-129 -27 -214.5 -129t-84.5 -233q0 -121 69 -121zM592 1069q179 0 282.5 -113t103.5 -294q0 -179 -96 -338.5t-253 -254.5q-155 -93 -299 -93q-59 0 -109.5 10.5t-96 34t-72 68t-25.5 106.5q0 133 142 236q141 102 454 134
q0 140 -67 208q-68 69 -167 69q-167 -2 -283 -140l-14 11q200 356 500 356z" />
    <glyph glyph-name="uni01DE" unicode="&#x1de;" horiz-adv-x="1638" 
d="M1333 2028l-28 -164h-553l28 164h553zM649 1656q0 66 45.5 110t111.5 44t110.5 -44t44.5 -110q1 -64 -45 -110q-45 -45 -110 -45q-66 0 -111.5 44.5t-45.5 110.5zM1176 1810q66 0 109.5 -44t45.5 -110q0 -65 -44.5 -110t-109.5 -45q-66 0 -111.5 44.5t-45.5 110.5t45 110
t111 44zM524 610h424l-98 637h-4zM1536 8v-8h-694v8q87 17 121 54q67 71 8 403l-10 57h-480q-150 -298 -149 -399q0 -57 36 -80.5t103 -34.5v-8h-547v8q82 17 130 52q106 76 329 503l446 850h336l170 -948q63 -357 123 -418q27 -27 78 -39z" />
    <glyph glyph-name="uni01DF" unicode="&#x1df;" horiz-adv-x="1169" 
d="M1077 1638l-28 -163h-553l28 163h553zM548 1442q65 0 109.5 -44.5t44.5 -109.5t-44.5 -110t-109.5 -45t-111 45t-46 110t46 109.5t111 44.5zM918 1442q66 0 109.5 -44t45.5 -110q0 -65 -44.5 -110t-109.5 -45t-111 45t-46 110q0 66 45 110t111 44zM655 279l144 696
q-49 31 -82 31q-34 0 -69 -29t-63.5 -76.5t-46 -83t-32.5 -72.5q-66 -167 -66 -376q0 -180 109 -181q53 0 98 39q5 39 8 52zM821 -23q-72 -1 -120 47q-49 49 -50 154h-6q-111 -203 -276 -203q-124 -1 -209 91q-84 92 -84 260q0 290 193 516q194 227 438 227q41 0 141 -14
q96 -15 147 -15q49 0 138 29h20l-129 -750q-6 -41 -6 -67q0 -64 45 -64t125 39v-8q-60 -93 -154 -167q-96 -75 -213 -75z" />
    <glyph glyph-name="uni01E0" unicode="&#x1e0;" horiz-adv-x="1638" 
d="M1313 2048l-29 -164h-553l29 164h553zM1000 1505q-69 0 -117.5 49.5t-48.5 118.5q0 70 48 118t118 48q69 0 118 -48.5t49 -117.5t-49 -118.5t-118 -49.5zM524 610h424l-98 637h-4zM1536 8v-8h-694v8q87 17 121 54q67 71 8 403l-10 57h-480q-150 -298 -149 -399
q0 -57 36 -80.5t103 -34.5v-8h-547v8q82 17 130 52q106 76 329 503l446 850h336l170 -948q63 -357 123 -418q27 -27 78 -39z" />
    </font>
</defs>
</svg>
