<?xml version="1.0" standalone="no"?>
<!DOCTYPE svg PUBLIC "-//W3C//DTD SVG 1.1//EN" "http://www.w3.org/Graphics/SVG/1.1/DTD/svg11.dtd" >
<svg xmlns="http://www.w3.org/2000/svg" xmlns:xlink="http://www.w3.org/1999/xlink" version="1.1">
<metadata>
Created by FontForge 20170731 at Thu Mar 21 20:31:13 2019
 By Aleksey,,,
Copyright (c) 2013 by Jonas Hecksher, Playtype, e-Types AS. All rights reserved.
</metadata>
<defs>
<font id="BerlingskeSerif-Bold" horiz-adv-x="1167" >
  <font-face 
    font-family="Berlingske Serif"
    font-weight="700"
    font-stretch="normal"
    units-per-em="2048"
    panose-1="2 0 8 3 8 0 0 2 0 4"
    ascent="1638"
    descent="-410"
    x-height="1044"
    cap-height="1413"
    bbox="-737 -844 3930 2378"
    underline-thickness="102"
    underline-position="-510"
    unicode-range="U+0020-FB06"
  />
<missing-glyph horiz-adv-x="1116" 
d="M1116 1413v-1413h-1116v1413h1116zM924 662q-61 0 -62 61v297h101v51h-101v119h-8q-71 -91 -152 -141l-34 -21v-8h43v-289q0 -143 127 -143q80 0 137 78l-4 8q-19 -12 -47 -12zM135 596h277v8q-43 17 -54.5 42.5t-11.5 78.5v143h64q105 0 169 46t64 147q0 178 -225 178
h-283v-8q31 -12 40 -35q9 -22 9 -80v-397q0 -63 -7 -81q-8 -21 -42 -34v-8zM379 903h-33v299h41q94 0 94 -150q0 -75 -25.5 -112.5t-76.5 -36.5z" />
    <glyph glyph-name="f_f" unicode="ff" horiz-adv-x="1345" 
d="M1294 8v-8h-583v8q79 34 105 91t26 180v661h-373v-661q0 -118 29 -176t129 -95v-8h-584v8q79 34 105 91t26 180v661h-151l24 104h127v97q0 197 127 300t311 103q95 0 163 -55q69 -55 69 -123q0 -63 -35.5 -105.5t-96.5 -42.5q-57 0 -95 34q-38 35 -37 91q0 103 96 152
q-29 8 -58 8q-88 -1 -118 -80q-29 -77 -31 -252v-127h373v97q0 196 134 300q133 103 320 103q95 0 166 -55q72 -55 72 -121q0 -63 -39 -106t-102 -43q-56 0 -92.5 34.5t-36.5 89.5q0 103 96 152q-29 8 -57 8q-91 -2 -128 -84q-38 -84 -38 -248v-127h209v-104h-209v-661
q0 -122 29 -180q31 -57 128 -91z" />
    <glyph glyph-name="f_f_i" unicode="ffi" horiz-adv-x="1968" 
d="M1927 8v-8h-549v8q80 35 106 91q26 58 25 180v411q0 133 -29 193q-30 57 -98 57h-245v-661q0 -122 29 -180q31 -57 128 -91v-8h-583v8q79 34 105 91t26 180v661h-373v-661q0 -118 29 -176t129 -95v-8h-584v8q79 34 105 91t26 180v661h-151l24 104h127v97q0 197 127 300
t311 103q95 0 163 -55q69 -55 69 -123q0 -63 -35.5 -105.5t-96.5 -42.5q-57 0 -95 34q-38 35 -37 91q0 103 96 152q-29 8 -58 8q-88 -1 -118 -80q-29 -77 -31 -252v-127h373v15q0 253 164 369t446 116q143 0 247 -68q103 -69 103 -165q0 -61 -46 -104.5t-107 -43.5
q-62 0 -104 41t-42 103q0 106 123 145q-90 43 -180 43q-158 0 -234 -91t-75 -314v-46h280q190 0 371 25h8v-790q0 -122 26 -179q26 -56 105 -92z" />
    <glyph glyph-name="f_f_l" unicode="ffl" horiz-adv-x="1957" 
d="M1935 8v-8h-557v8q80 35 106 91q26 58 25 180v888q-48 10 -79 49q-31 38 -29 91q0 106 123 145q-46 43 -140 43q-131 0 -189 -85t-58 -320v-46h209v-104h-209v-661q0 -122 29 -180q31 -57 128 -91v-8h-583v8q79 34 105 91t26 180v661h-373v-661q0 -118 29 -176t129 -95
v-8h-584v8q79 34 105 91t26 180v661h-151l24 104h127v97q0 197 127 300t311 103q95 0 163 -55q69 -55 69 -123q0 -63 -35.5 -105.5t-96.5 -42.5q-57 0 -95 34q-38 35 -37 91q0 103 96 152q-29 8 -58 8q-88 -1 -118 -80q-29 -77 -31 -252v-127h373v15q0 262 142 374t407 111
q154 0 256 -78l149 64h8v-1251q0 -122 26 -179q26 -56 105 -92z" />
    <glyph glyph-name="f_i" unicode="fi" horiz-adv-x="1300" 
d="M1260 8v-8h-549v8q79 34 105 91t26 180v411q0 30 -1 50.5t-4 53.5t-11.5 55.5t-22 45t-36 34t-52.5 11.5h-246v-661q0 -118 29 -176t129 -95v-8h-584v8q79 34 105 91t26 180v661h-151l24 104h127v15q0 253 164 369t446 116q143 0 247 -68q102 -68 104 -165
q1 -61 -47 -105q-46 -43 -107 -43q-62 0 -103.5 41t-41.5 103q0 106 122 145q-90 43 -180 43q-158 0 -234 -91t-75 -314v-46h281q189 0 370 25h8v-790q0 -122 26 -179q26 -56 106 -92z" />
    <glyph glyph-name="f_l" unicode="fl" horiz-adv-x="1290" 
d="M1268 8v-8h-557v8q79 34 105 91t26 180v888q-50 10 -79.5 49t-29.5 91q0 106 123 145q-46 43 -139 43q-131 0 -189 -85q-57 -84 -59 -320v-46h209v-104h-209v-661q0 -118 29 -176t129 -95v-8h-584v8q79 34 105 91t26 180v661h-151l24 104h127v15q0 262 142 374t407 111
q149 0 250 -74l155 74h9v-1265q0 -124 25 -180q26 -56 106 -91z" />
    <glyph glyph-name="f_b" unicode="fb" horiz-adv-x="1970" 
d="M1276 37q141 0 241 124q99 123 99 329t-93 318t-218 112q-92 -2 -168 -50v-798q72 -35 139 -35zM733 1307q0 106 123 145q-46 43 -139 43q-131 0 -189 -85q-57 -84 -59 -320v-46h209v-104h-209v-661q0 -118 29 -176t129 -95v-8h-584v8q79 34 105 91t26 180v661h-151
l24 104h127v15q0 262 142 374t407 111q149 0 250 -74l155 74h9v-647q163 172 348 172q184 0 304 -133q120 -134 120 -356q0 -203 -117.5 -351t-317.5 -217q-107 -37 -206 -37q-95 -1 -227 23q-124 23 -199 47v1122q-50 10 -79.5 49t-29.5 91z" />
    <glyph glyph-name="f_h" unicode="fh" horiz-adv-x="1953" 
d="M1913 8v-8h-549v8q80 35 106 91q26 58 25 180v448q0 89 -48 143t-136 54q-83 0 -174 -47v-598q0 -124 25 -180q26 -56 106 -91v-8h-557v8q79 34 105 91t26 180v888q-50 10 -79.5 49t-29.5 91q0 106 123 145q-46 43 -139 43q-131 0 -189 -85q-57 -84 -59 -320v-46h209
v-104h-209v-661q0 -118 29 -176t129 -95v-8h-584v8q79 34 105 91t26 180v661h-151l24 104h127v15q0 262 142 374t407 111q149 0 250 -74l155 74h9v-633q187 158 346 158q131 0 215 -87t84 -269v-434q0 -124 25 -180q26 -56 106 -91z" />
    <glyph glyph-name="f_j" unicode="fj" horiz-adv-x="1288" 
d="M836 -55v745q0 138 -27 194t-94 56h-246v-661q0 -118 29 -176t129 -95v-8h-584v8q79 34 105 91t26 180v661h-151l24 104h127v15q0 253 164 369t446 116q143 0 247 -68q102 -68 104 -165q1 -61 -47 -105q-46 -43 -107 -43q-62 0 -103.5 41t-41.5 103q0 106 122 145
q-90 43 -180 43q-158 0 -234 -91t-75 -314v-46h281q189 0 370 25h8v-1001q0 -89 -31.5 -177.5t-88.5 -155.5q-117 -139 -336 -227l-6 13q46 28 80.5 79t53 111.5t27.5 119t9 114.5z" />
    <glyph glyph-name="f_k" unicode="fk" horiz-adv-x="1933" 
d="M1974 8v-8h-223q-163 0 -210 28q-48 29 -163 191l-213 301l209 215q94 94 94 162q0 82 -151 133v14h592v-10q-119 -30 -184.5 -71t-149.5 -136l-172 -190l311 -406q47 -62 76 -95t78 -70t106 -58zM1268 8v-8h-557v8q79 34 105 91t26 180v888q-50 10 -79.5 49t-29.5 91
q0 106 123 145q-46 43 -139 43q-131 0 -189 -85q-57 -84 -59 -320v-46h209v-104h-209v-661q0 -118 29 -176t129 -95v-8h-584v8q79 34 105 91t26 180v661h-151l24 104h127v15q0 262 142 374t407 111q149 0 250 -74l155 74h9v-1265q0 -124 25 -180q26 -56 106 -91z" />
    <glyph glyph-name="f_f_b" unicode="ffb" horiz-adv-x="2637" 
d="M1944 37q141 0 240 124t100 353q0 182 -94 294t-218 112q-92 -2 -168 -50v-798q72 -35 140 -35zM1401 1307q0 106 123 145q-46 43 -140 43q-131 0 -189 -85t-58 -320v-46h209v-104h-209v-661q0 -122 29 -180q31 -57 128 -91v-8h-583v8q79 34 105 91t26 180v661h-373v-661
q0 -118 29 -176t129 -95v-8h-584v8q79 34 105 91t26 180v661h-151l24 104h127v97q0 197 127 300t311 103q95 0 163 -55q69 -55 69 -123q0 -63 -35.5 -105.5t-96.5 -42.5q-57 0 -95 34q-38 35 -37 91q0 103 96 152q-29 8 -58 8q-88 -1 -118 -80q-29 -77 -31 -252v-127h373v15
q0 262 142 374t407 111q154 0 256 -78l149 78h8v-647q163 172 348 172q184 0 304 -133q120 -134 120 -356q0 -138 -59 -260.5t-169 -199.5q-202 -145 -415 -145q-94 -1 -225 23q-124 23 -199 47v1122q-48 10 -79 49q-31 38 -29 91z" />
    <glyph glyph-name="f_f_j" unicode="ffj" horiz-adv-x="1961" 
d="M1509 -55v745q0 136 -26 194q-27 56 -94 56h-252v-661q0 -122 29 -180q31 -57 128 -91v-8h-583v8q79 34 105 91t26 180v661h-373v-661q0 -118 29 -176t129 -95v-8h-584v8q79 34 105 91t26 180v661h-151l24 104h127v97q0 197 127 300t311 103q95 0 163 -55q69 -55 69 -123
q0 -63 -35.5 -105.5t-96.5 -42.5q-57 0 -95 34q-38 35 -37 91q0 103 96 152q-29 8 -58 8q-88 -1 -118 -80q-29 -77 -31 -252v-127h373v15q0 253 164 369t446 116q143 0 247 -68q103 -69 103 -165q0 -61 -46 -104.5t-107 -43.5q-62 0 -104 41t-42 103q0 106 123 145
q-90 43 -180 43q-158 0 -234 -91t-75 -314v-46h286q190 0 371 25h8v-1001q0 -89 -32 -178t-89 -155q-120 -142 -335 -227l-7 13q61 37 101 114.5t54.5 154.5t14.5 155z" />
    <glyph glyph-name="f_f_h" unicode="ffh" horiz-adv-x="2621" 
d="M2580 8v-8h-548v8q80 35 106 91q26 58 25 180v448q0 89 -48 143t-136 54q-83 0 -175 -47v-598q0 -122 26 -179q26 -56 105 -92v-8h-557v8q80 35 106 91q26 58 25 180v888q-48 10 -79 49q-31 38 -29 91q0 106 123 145q-46 43 -140 43q-131 0 -189 -85t-58 -320v-46h209
v-104h-209v-661q0 -122 29 -180q31 -57 128 -91v-8h-583v8q79 34 105 91t26 180v661h-373v-661q0 -118 29 -176t129 -95v-8h-584v8q79 34 105 91t26 180v661h-151l24 104h127v97q0 197 127 300t311 103q95 0 163 -55q69 -55 69 -123q0 -63 -35.5 -105.5t-96.5 -42.5
q-57 0 -95 34q-38 35 -37 91q0 103 96 152q-29 8 -58 8q-88 -1 -118 -80q-29 -77 -31 -252v-127h373v15q0 262 142 374t407 111q154 0 256 -78l149 78h8v-633q187 158 346 158q131 0 215 -87t84 -269v-434q0 -122 26 -179q26 -56 105 -92z" />
    <glyph glyph-name="f_f_f" unicode="fff" horiz-adv-x="2013" 
d="M1962 8v-8h-584v8q80 35 106 91q26 58 25 180v661h-372v-661q0 -122 29 -180q31 -57 128 -91v-8h-583v8q79 34 105 91t26 180v661h-373v-661q0 -118 29 -176t129 -95v-8h-584v8q79 34 105 91t26 180v661h-151l24 104h127v97q0 197 127 300t311 103q95 0 163 -55
q69 -55 69 -123q0 -63 -35.5 -105.5t-96.5 -42.5q-57 0 -95 34q-38 35 -37 91q0 103 96 152q-29 8 -58 8q-88 -1 -118 -80q-29 -77 -31 -252v-127h373v97q0 197 127 300t311 103q95 0 163 -55q69 -55 69 -123q0 -63 -35.5 -105.5t-96.5 -42.5q-58 0 -95.5 34t-37.5 91
q0 103 96 152q-29 8 -57 8q-87 -1 -119 -80q-31 -78 -30 -252v-127h372v97q1 197 135 300q133 103 320 103q95 0 166 -55q72 -55 72 -121q0 -63 -39 -106t-102 -43q-57 0 -93.5 34t-36.5 90q0 103 97 152q-29 8 -58 8q-91 -2 -128 -84q-38 -84 -38 -248v-127h209v-104h-209
v-661q0 -118 29 -176t129 -95z" />
    <glyph glyph-name="f_f_k" unicode="ffk" horiz-adv-x="2600" 
d="M2642 8v-8h-223q-163 0 -210 28q-48 29 -163 191l-213 301l209 215q94 94 94 162q0 82 -151 133v14h591v-10q-120 -31 -184.5 -71.5t-148.5 -135.5l-172 -190l311 -406q47 -62 76 -95t78 -70t106 -58zM1935 8v-8h-557v8q80 35 106 91q26 58 25 180v888q-48 10 -79 49
q-31 38 -29 91q0 106 123 145q-46 43 -140 43q-131 0 -189 -85t-58 -320v-46h209v-104h-209v-661q0 -122 29 -180q31 -57 128 -91v-8h-583v8q79 34 105 91t26 180v661h-373v-661q0 -118 29 -176t129 -95v-8h-584v8q79 34 105 91t26 180v661h-151l24 104h127v97
q0 197 127 300t311 103q95 0 163 -55q69 -55 69 -123q0 -63 -35.5 -105.5t-96.5 -42.5q-57 0 -95 34q-38 35 -37 91q0 103 96 152q-29 8 -58 8q-88 -1 -118 -80q-29 -77 -31 -252v-127h373v15q0 262 142 374t407 111q154 0 256 -78l149 64h8v-1251q0 -122 26 -179
q26 -56 105 -92z" />
    <glyph glyph-name="f_t" unicode="ft" horiz-adv-x="1423" 
d="M1139 -16q-297 0 -297 315v641h-373v-661q0 -118 29 -176t129 -95v-8h-584v8q79 34 105 91t26 180v661h-151l24 104h127v97q0 196 134 300q133 103 321 103q95 0 166 -55q71 -56 71 -121q0 -63 -39 -106t-102 -43q-56 0 -92.5 34.5t-36.5 89.5q0 103 96 152q-29 8 -57 8
q-91 -2 -128 -84q-38 -84 -38 -248v-127h293q51 0 95.5 16t83 46.5t67 62.5t61.5 77q41 56 45 63h14v-265h267v-124h-267v-607q0 -81 45.5 -134.5t125.5 -53.5q76 0 131 37l8 -10q-51 -71 -134 -119.5t-165 -48.5z" />
    <glyph glyph-name=".notdef" horiz-adv-x="1116" 
d="M1116 1413v-1413h-1116v1413h1116zM924 662q-61 0 -62 61v297h101v51h-101v119h-8q-71 -91 -152 -141l-34 -21v-8h43v-289q0 -143 127 -143q80 0 137 78l-4 8q-19 -12 -47 -12zM135 596h277v8q-43 17 -54.5 42.5t-11.5 78.5v143h64q105 0 169 46t64 147q0 178 -225 178
h-283v-8q31 -12 40 -35q9 -22 9 -80v-397q0 -63 -7 -81q-8 -21 -42 -34v-8zM379 903h-33v299h41q94 0 94 -150q0 -75 -25.5 -112.5t-76.5 -36.5z" />
    <glyph glyph-name=".null" horiz-adv-x="0" 
 />
    <glyph glyph-name="nonmarkingreturn" horiz-adv-x="682" 
 />
    <glyph glyph-name="space" unicode=" " horiz-adv-x="430" 
 />
    <glyph glyph-name="exclam" unicode="!" horiz-adv-x="542" 
d="M442 143q0 -72 -49 -119.5t-121 -47.5t-120 48t-50 120q0 70 50 118.5t120 48.5q72 0 121 -48t49 -120zM174 892q-76 297 -76 374q0 75 48 125.5t123 50.5q74 0 124.5 -48.5t50.5 -122.5q0 -70 -74 -374q-75 -308 -91 -487h-15q-13 183 -90 482z" />
    <glyph glyph-name="quotedbl" unicode="&#x22;" horiz-adv-x="860" 
d="M230 1442q48 0 88 -35t40 -82q0 -41 -56 -203q-56 -161 -60 -256h-21q-5 97 -61 256q-58 159 -58 203q0 47 40 82t88 35zM557 1122q-57 160 -57 203q0 47 40 82t88 35t88 -35t40 -82q0 -41 -56 -203q-57 -164 -61 -256h-21q-5 97 -61 256z" />
    <glyph glyph-name="numbersign" unicode="#" 
d="M438 567h238l49 279h-238zM336 479h-213v88h227l49 279h-276v88h293l84 479h88l-84 -479h237l84 479h88l-84 -479h215v-88h-231l-49 -279h280v-88h-294l-84 -479h-88l84 479h-238l-84 -479h-88z" />
    <glyph glyph-name="dollar" unicode="$" 
d="M801 276q0 121 -168 232v-440q70 26 119 82t49 126zM541 883v432q-76 -15 -129 -69.5t-54 -129.5q1 -126 183 -233zM633 -23v-149h-92v141h-9q-98 0 -214 24.5t-197 65.5v371h8q201 -377 412 -377v510l-39 21q-228 120 -307 217q-79 96 -78 213q0 84 36.5 154.5
t97.5 116.5t135 74.5t155 37.5v147h92v-143q148 -6 336 -82v-318h-8q-155 272 -328 312v-482q111 -59 119 -64q29 -17 104 -69q188 -134 186 -319q0 -113 -58 -201t-148.5 -136.5t-202.5 -64.5z" />
    <glyph glyph-name="percent" unicode="%" horiz-adv-x="1722" 
d="M1124 246q0 -70 34 -128t104 -57q53 0 102 38.5t79 87.5t47 102q30 91 30 174q0 47 -15 95t-50.5 85t-84.5 37q-52 0 -95 -32t-70.5 -80.5t-46 -108.5t-26.5 -114t-8 -99zM1215 -25q-130 -1 -216 91t-84 223q0 177 122 329t296 152q122 0 194.5 -81t72.5 -205
q0 -123 -43 -235t-128 -191q-89 -83 -214 -83zM697 961q30 91 30 174q0 47 -14.5 94.5t-50 85t-84.5 37.5q-112 0 -179 -138q-68 -140 -67 -296q0 -73 34 -129t102 -56q78 0 139.5 71t89.5 157zM926 1225q-64 0 -142 32q17 -45 19 -122q-2 -169 -105 -329
q-104 -161 -252 -161q-152 0 -237.5 93t-85.5 246q0 154 122 306t287 152q95 0 196 -71t208 -71q202 0 377 199h82l-989 -1595h-99l877 1411l-6 4q-12 -5 -48 -27q-104 -64 -204 -67z" />
    <glyph glyph-name="ampersand" unicode="&#x26;" horiz-adv-x="1511" 
d="M662 1183q0 -99 120 -288q90 53 130 123.5t40 175.5q0 38 -7 71t-23 63.5t-45 48t-69 17.5q-53 0 -87.5 -35t-46.5 -79.5t-12 -96.5zM358 559q0 -120 104 -259q104 -138 216 -138t209 71l-256 342q-63 80 -121 168q-77 -35 -114.5 -74t-37.5 -110zM1004 850h542v-8
q-92 -24 -170 -108q-75 -79 -148 -176q-59 -80 -95 -124l104 -131q138 -176 193 -230q53 -51 120 -65v-8h-487l-143 190q-113 -115 -215 -167.5t-247 -52.5q-148 0 -270 140q-120 140 -120 281t84 217q82 75 331 176q-88 142 -88 248q0 194 130 302q131 108 293 108
q65 0 125.5 -14t115.5 -43t88 -81.5t33 -121.5q0 -118 -92 -193q-92 -74 -277 -137q29 -41 125 -166l164 -209q104 177 32 291q-38 59 -128 74v8z" />
    <glyph glyph-name="quotesingle" unicode="'" horiz-adv-x="460" 
d="M230 1442q48 0 88 -35t40 -82q0 -41 -56 -203q-56 -161 -60 -256h-21q-5 97 -61 256q-58 159 -58 203q0 47 40 82t88 35z" />
    <glyph glyph-name="parenleft" unicode="(" horiz-adv-x="712" 
d="M657 1548h37q-254 -386 -254 -926q0 -539 254 -909h-37q-503 476 -503 929q0 454 503 906z" />
    <glyph glyph-name="parenright" unicode=")" horiz-adv-x="712" 
d="M55 -287h-37q254 370 254 910t-254 925h37q504 -452 504 -906t-504 -929z" />
    <glyph glyph-name="asterisk" unicode="*" horiz-adv-x="808" 
d="M446 1038l248 -188l-176 -127l-115 287l-114 -287l-176 125l249 190l-321 35l72 201l272 -184l-84 323h213l-88 -323l274 184l68 -201z" />
    <glyph glyph-name="plus" unicode="+" 
d="M657 504v-352h-147v352h-352v147h352v353h147v-353h353v-147h-353z" />
    <glyph glyph-name="comma" unicode="," horiz-adv-x="501" 
d="M178 -20q0 36 -39 88t-39 108q0 60 44 97.5t105 37.5q65 0 109 -48q44 -49 43 -133q-1 -63 -57 -150t-121.5 -154t-124.5 -111l-8 4q88 127 88 261z" />
    <glyph glyph-name="hyphen" unicode="-" horiz-adv-x="581" 
d="M532 680v-199h-485v199h485z" />
    <glyph glyph-name="period" unicode="." horiz-adv-x="501" 
d="M420 143q0 -72 -49 -119.5t-121 -47.5t-121 48t-49 120q0 71 49.5 119t120.5 48q72 0 121 -48t49 -120z" />
    <glyph glyph-name="slash" unicode="/" horiz-adv-x="827" 
d="M698 1427h121l-692 -1441h-121z" />
    <glyph glyph-name="zero" unicode="0" 
d="M592 33q122 0 159 213q27 162 27 397q0 737 -192 737q-197 0 -197 -702q0 -645 203 -645zM584 -31q-158 2 -276 103q-230 200 -230 618q0 307 140 530q140 222 368 222q229 0 365 -222q137 -221 139 -530q0 -418 -231 -618q-116 -103 -275 -103z" />
    <glyph glyph-name="one" unicode="1" 
d="M905 8v-8h-631v8q112 34 146.5 92t34.5 183v841q-104 -40 -265 -71l-6 20q135 40 287.5 144t265.5 221h8v-1155q0 -119 30 -178.5t130 -96.5z" />
    <glyph glyph-name="two" unicode="2" 
d="M1006 0h-912v53l428 527q203 248 203 475q0 113 -80 199.5t-192 86.5q-67 -2 -132.5 -26t-103.5 -70h16q82 0 142.5 -48.5t60.5 -128.5q0 -74 -47 -122.5t-121 -48.5q-79 0 -127.5 56.5t-48.5 136.5q0 127 140 240q139 112 337 112q86 0 166 -22.5t146 -65.5t105.5 -115
t39.5 -162q0 -86 -54 -173.5t-132 -155.5q-274 -240 -369 -355l-127 -151h690z" />
    <glyph glyph-name="three" unicode="3" 
d="M672 1176h-543v237h834v-8l-349 -451q180 -40 305 -171t125 -308q0 -223 -179 -364q-178 -140 -406 -142q-170 0 -272 69q-101 69 -101 179q0 71 49 117.5t120 46.5q68 0 117.5 -44t49.5 -111q0 -58 -30 -104.5t-83 -72.5q53 -23 105 -22q147 0 240 81q94 81 94 250
q0 168 -122 260q-121 91 -280 103l-10 16z" />
    <glyph glyph-name="four" unicode="4" 
d="M1092 8v-8h-623v8q112 34 147 92q34 57 33 183v106h-610v8l670 1026h223v-884h149v-150h-149v-106q0 -60 5 -97t21 -73.5t48.5 -61t85.5 -43.5zM227 539h422v637z" />
    <glyph glyph-name="five" unicode="5" 
d="M954 1413v-237h-630l-58 -412q155 119 339 119q188 0 318.5 -122.5t129.5 -309.5q-2 -112 -52.5 -209.5t-142.5 -157.5q-180 -116 -363 -115q-51 0 -100 6t-102 22.5t-92 42.5t-64.5 70t-25.5 101q0 71 50 118.5t121 47.5q70 0 116 -45.5t46 -116.5q0 -109 -106 -172
q53 -18 106 -18q133 0 223 107q89 109 89 274q0 152 -77.5 247.5t-225.5 96.5q-134 0 -252 -95l-25 11l98 747h680z" />
    <glyph glyph-name="six" unicode="6" 
d="M397 752q-12 -82 -12 -174q0 -42 3 -90.5t11 -115t25.5 -125t41.5 -111t63.5 -83t88.5 -30.5q59 0 103 42.5t65.5 108t31 126.5t9.5 116q0 148 -76 263q-77 116 -194 116q-71 0 -160 -43zM406 801q112 84 290 84q177 0 299 -108q121 -106 121 -301q0 -194 -141 -350
q-141 -155 -372 -157q-96 0 -180 32t-146 88t-107 130.5t-67.5 161.5t-22.5 179q0 184 72 342.5t194.5 269t281 181t335.5 89.5v-29q-198 -37 -353 -198q-154 -161 -204 -414z" />
    <glyph glyph-name="seven" unicode="7" 
d="M905 1165h-817v248h981v-8q-176 -298 -315.5 -680.5t-196.5 -724.5h-289q44 166 151 362t266 446q155 241 220 357z" />
    <glyph glyph-name="eight" unicode="8" 
d="M795 1104q1 118 -63 198q-64 78 -162 78q-101 0 -160.5 -67t-59.5 -169q0 -104 76 -168t252 -147q117 109 117 275zM309 342q0 -122 74 -215.5t193 -93.5q115 0 190.5 75t75.5 190q0 110 -75 180q-73 69 -239 145l-65 30q-154 -129 -154 -311zM1057 1132q2 -120 -99 -200
q-100 -80 -237 -117q175 -83 279 -181q105 -99 106 -247q0 -98 -49.5 -179.5t-128.5 -132t-171.5 -78.5t-184.5 -28q-67 0 -135.5 11.5t-137 39t-121 67.5t-85.5 101t-32 136q2 239 361 356l-14 10q-316 150 -318 381q0 166 143 268q142 103 349 103q206 0 340 -95
q135 -95 135 -215z" />
    <glyph glyph-name="nine" unicode="9" 
d="M766 651q10 59 10 159q0 56 -5 120t-22 148.5t-43 150t-74.5 111.5t-111.5 46q-68 0 -116 -61q-82 -103 -82 -292q0 -63 10.5 -120.5t34.5 -110.5t60 -91.5t91 -61.5t123 -22q74 0 125 24zM161 648q-126 110 -126 302t138 342q139 150 367 150t385 -178t156 -445
q0 -338 -253 -573q-255 -237 -609 -277l-2 31q193 31 343 196t198 412q-140 -69 -287 -69q-183 -1 -310 109z" />
    <glyph glyph-name="colon" unicode=":" horiz-adv-x="501" 
d="M420 900q0 -71 -49.5 -120t-120.5 -49t-120.5 49t-49.5 120t49.5 120t120.5 49t120.5 -49t49.5 -120zM420 143q0 -72 -49 -119.5t-121 -47.5t-121 48t-49 120q0 71 49.5 119t120.5 48q72 0 121 -48t49 -120z" />
    <glyph glyph-name="semicolon" unicode=";" horiz-adv-x="501" 
d="M420 900q0 -71 -49.5 -120t-120.5 -49t-120.5 49t-49.5 120t49.5 120t120.5 49t120.5 -49t49.5 -120zM178 -20q0 36 -39 88t-39 108q0 60 44 97.5t105 37.5q65 0 109 -48q44 -49 43 -133q-1 -63 -57 -150t-121.5 -154t-124.5 -111l-8 4q88 127 88 261z" />
    <glyph glyph-name="less" unicode="&#x3c;" horiz-adv-x="884" 
d="M1008 162v-17l-850 420v25l850 420v-17l-576 -415z" />
    <glyph glyph-name="equal" unicode="=" 
d="M1010 799v-148h-852v148h852zM1010 504v-148h-852v148h852z" />
    <glyph glyph-name="greater" unicode="&#x3e;" horiz-adv-x="1257" 
d="M1008 590v-25l-850 -420v17l575 416l-575 415v17z" />
    <glyph glyph-name="question" unicode="?" horiz-adv-x="970" 
d="M653 143q0 -71 -49.5 -119t-121.5 -48t-120.5 48t-48.5 120q0 71 49 119t120 48t121 -48.5t50 -119.5zM496 408h-29q0 144 42 266t84 225t42 215q0 107 -67 179.5t-173 72.5q-100 0 -178 -80q74 -10 128 -56t54 -117q0 -69 -46 -114t-115 -45q-75 0 -119.5 50t-44.5 126
q0 120 120 216t304 96q84 0 157.5 -20.5t133.5 -61t94.5 -108.5t34.5 -155q0 -163 -147 -305q-61 -58 -123 -114q-149 -132 -152 -270z" />
    <glyph glyph-name="at" unicode="@" horiz-adv-x="1638" 
d="M670 365q0 -183 69 -185q82 0 228 254l22 39l58 399q-15 3 -41 5q-71 0 -134.5 -45t-102 -106t-61.5 -131q-38 -117 -38 -230zM1276 -66l10 -14q-202 -147 -412 -147t-388 82t-297 245q-120 163 -119 367q0 312 235 538t563 226q292 0 509 -180q218 -180 218 -451
q0 -183 -104 -320.5t-281 -202.5q-94 -36 -187 -36t-93 55q0 29 8 72l35 184q-164 -311 -305 -311q-99 0 -163 82q-65 83 -65 225q0 242 159 423t396 181q65 0 158 -26l113 14l8 -4l-78 -444l-29 -279q-8 -74 17 -74q84 0 172 120q88 119 88 316q0 247 -160.5 403.5
t-407.5 156.5q-246 0 -414 -199q-169 -199 -169 -469q0 -279 164 -449t446 -170q89 0 196 23.5t177 62.5z" />
    <glyph glyph-name="A" unicode="A" horiz-adv-x="1521" 
d="M461 598h432l-215 655zM1518 8v-8h-613v8q65 15 88 46t23 100q0 77 -94 356h-490q-78 -241 -78 -329q0 -82 31.5 -117.5t114.5 -55.5v-8h-496v8q68 22 110 65q79 84 218 484l295 856h291l344 -997q76 -218 129 -298q51 -78 127 -110z" />
    <glyph glyph-name="B" unicode="B" horiz-adv-x="1333" 
d="M643 0h-600v8q105 27 139 84q35 58 35 187v856q0 128 -35 186q-34 57 -139 84v8h592q241 0 395 -72q174 -79 174 -270q0 -131 -102 -209q-103 -79 -230 -98v-8q71 -6 143.5 -32.5t135.5 -69.5t103 -108t40 -140q0 -140 -105 -236q-187 -170 -546 -170zM524 1331v-563h78
q145 0 219 76t76 221q0 266 -307 266h-66zM524 686v-604h113q153 0 244.5 72t91.5 220q-1 99 -48.5 171t-125.5 106.5t-176 34.5h-99z" />
    <glyph glyph-name="C" unicode="C" horiz-adv-x="1486" 
d="M944 -31q-367 0 -612 196q-246 197 -246 525q0 255 149 435t403 267q153 50 287 50q259 0 457 -84v-320h-8q-169 322 -456 322q-219 0 -362 -170q-142 -169 -142 -480q0 -309 149 -485q150 -174 389 -174q165 0 276 90.5t191 253.5h11l-29 -338q-82 -44 -209 -65
t-248 -23z" />
    <glyph glyph-name="D" unicode="D" horiz-adv-x="1683" 
d="M729 0h-672v8q53 19 85.5 43.5t48.5 61t21 73.5t5 97v852q0 59 -5 96t-21 72t-48.5 59t-85.5 43v8h697q130 0 251 -24.5t230 -78t189.5 -130.5t127 -190t45.5 -249q1 -333 -251 -537t-617 -204zM524 1331v-1249h201q256 0 400 181q145 181 145 455t-146 444
q-145 169 -374 169h-226z" />
    <glyph glyph-name="E" unicode="E" horiz-adv-x="1236" 
d="M1128 0h-1071v8q53 19 85.5 43.5t48.5 61t21 73.5t5 97v852q0 59 -5 96t-21 72t-48.5 59t-85.5 43v8h1012v-340h-10q-100 161 -161 210q-60 48 -181 48h-193v-563h201q88 0 139.5 33t102.5 112h10v-370h-10q-51 79 -102 110t-140 31h-201v-602h174q85 0 138 8
q48 8 103 46.5t94 83.5q37 44 126 153h10z" />
    <glyph glyph-name="F" unicode="F" horiz-adv-x="1189" 
d="M719 8v-8h-662v8q53 19 85.5 43.5t48.5 61t21 73.5t5 97v852q0 59 -5 96t-21 72t-48.5 59t-85.5 43v8h1043v-340h-10q-103 173 -164 216q-60 42 -217 42h-185v-583h242q89 0 138 32.5t104 114.5h10v-375h-10q-55 79 -105 111.5t-137 32.5h-242v-381q0 -121 41 -179.5
t154 -95.5z" />
    <glyph glyph-name="G" unicode="G" horiz-adv-x="1607" 
d="M1174 100v332q0 104 -32 158.5t-124 89.5v8h565v-8q-80 -34 -103 -79q-22 -43 -22 -167v-368q-316 -93 -579 -95q-162 0 -307 52.5t-252.5 146t-170.5 231.5t-63 300q0 129 43 241.5t120.5 198.5t179 150t224.5 105q147 48 287 48q113 0 249 -22t230 -60v-320h-8
q-197 316 -477 318q-224 0 -372 -174q-148 -173 -148 -475q0 -300 152 -473q80 -91 178 -131.5t224 -40.5q110 2 206 34z" />
    <glyph glyph-name="H" unicode="H" horiz-adv-x="1679" 
d="M1626 8v-8h-627v8q53 19 85.5 43.5t48.5 61t21 73.5t5 97v395h-635v-395q0 -119 30 -178.5t130 -96.5v-8h-627v8q53 19 85.5 43.5t48.5 61t21 73.5t5 97v852q0 59 -5 96t-21 72t-48.5 59t-85.5 43v8h627v-8q-53 -19 -85.5 -43t-48.5 -59t-21 -72t-5 -96v-365h635v365
q0 59 -5 96t-21 72t-48.5 59t-85.5 43v8h627v-8q-53 -19 -85.5 -43t-48.5 -59t-21 -72t-5 -96v-852q0 -119 30 -178.5t130 -96.5z" />
    <glyph glyph-name="I" unicode="I" horiz-adv-x="741" 
d="M684 8v-8h-627v8q53 19 85.5 43t48.5 59t21 72t5 97v856q0 59 -5 96t-21 72t-48.5 59t-85.5 43v8h627v-8q-53 -19 -85.5 -43t-48.5 -59t-21 -72t-5 -96v-856q0 -118 29.5 -176t130.5 -95z" />
    <glyph glyph-name="J" unicode="J" horiz-adv-x="741" 
d="M217 -12v1147q0 59 -5 96t-21 72t-48.5 59t-85.5 43v8h627v-8q-53 -19 -85.5 -43t-48.5 -59t-21 -72t-5 -96v-1026q0 -80 -28.5 -153t-73.5 -128.5t-109.5 -105t-128.5 -84.5t-139 -66l-4 6q176 107 176 410z" />
    <glyph glyph-name="K" unicode="K" horiz-adv-x="1544" 
d="M1579 8v-8h-670v8q56 18 84 38q27 20 27 70q0 51 -98 206l-234 366l-164 -174v-235q0 -118 29.5 -176t130.5 -95v-8h-627v8q53 19 85.5 43t48.5 59t21 72t5 97v856q0 59 -5 96t-21 72t-48.5 59t-85.5 43v8h627v-8q-53 -19 -85.5 -43t-48.5 -59t-21 -72t-5 -96v-510
l389 440q113 128 113 213q0 87 -135 127v8h612v-8q-75 -27 -132.5 -57.5t-115 -78.5t-92 -82t-106.5 -110l-170 -182l389 -592q38 -58 63.5 -93t63.5 -77.5t81 -72.5t95 -52z" />
    <glyph glyph-name="L" unicode="L" horiz-adv-x="1169" 
d="M1098 0h-1041v8q53 19 85.5 43t48.5 59t21 72t5 97v856q0 59 -5 96t-21 72t-48.5 59t-85.5 43v8h627v-8q-53 -19 -85.5 -43t-48.5 -59t-21 -72t-5 -96v-1053h162q146 0 217 46q74 47 225 245h11z" />
    <glyph glyph-name="M" unicode="M" horiz-adv-x="2015" 
d="M1985 6v-6h-619v8q93 39 121.5 86.5t28.5 151.5q0 19 -5 127l-51 796l-489 -1169h-131l-467 1190h-4l-54 -803q-6 -72 -6 -154q0 -91 38.5 -141t125.5 -84v-8h-461v8q110 40 142 111t45 268l47 641q10 150 10 172q0 78 -30 117t-130 88v8h504l412 -1046l434 1046h471v-8
q-81 -37 -120.5 -76.5t-39.5 -112.5q0 -56 8 -190l43 -641q13 -202 43 -271q28 -66 134 -108z" />
    <glyph glyph-name="N" unicode="N" horiz-adv-x="1677" 
d="M1456 958v-968h-133l-987 1175v-706q0 -304 70 -383q35 -41 104 -68v-8h-463v8q71 27 105 67q69 79 69 384v710q0 171 -194 236v8h465l849 -991v536q0 237 -35 322q-36 85 -139 125v8h463v-8q-71 -28 -106 -68q-66 -77 -68 -379z" />
    <glyph glyph-name="O" unicode="O" horiz-adv-x="1775" 
d="M1690 705q0 -163 -72 -305q-70 -139 -192 -237.5t-266.5 -145.5t-302.5 -47q-172 0 -353 86q-181 87 -299 258q-119 172 -119 391q0 160 72 301q106 208 310 322t444 114q169 0 352 -89q182 -89 304 -262t122 -386zM544 238q130 -183 343 -185t344 185t131 470
q0 284 -129 468t-346 184q-218 0 -345 -184q-128 -185 -128 -469q0 -285 130 -469z" />
    <glyph glyph-name="P" unicode="P" horiz-adv-x="1312" 
d="M524 1341v-655h103q151 0 236 93.5t83 248.5q0 130 -70 221q-71 92 -233 92h-119zM719 8v-8h-662v8q53 19 85.5 43.5t48.5 61t21 73.5t5 97v852q0 59 -5 96t-21 72t-48.5 59t-85.5 43v8h643q62 0 115.5 -4t110.5 -15t102.5 -29t87.5 -48t70 -69t44.5 -94.5t16.5 -123.5
q0 -416 -565 -416h-158v-331q0 -121 41 -179.5t154 -95.5z" />
    <glyph glyph-name="Q" unicode="Q" horiz-adv-x="1775" 
d="M544 238q130 -183 343 -185t344 185t131 470q0 284 -129 468t-346 184q-218 0 -345 -184q-128 -185 -128 -469q0 -285 130 -469zM86 705q0 160 72 301q106 208 310 322t444 114q169 0 352 -89q182 -89 304 -262t122 -386q0 -262 -168 -449q-169 -189 -414 -256
q328 -133 600 -203.5t557 -70.5q146 -1 289 38v-8q-82 -122 -215 -195t-279 -73q-132 0 -376 87q-240 85 -533 263l-217 133l-47 -2q-157 0 -303 54.5t-256 149.5t-176 234t-66 298z" />
    <glyph glyph-name="R" unicode="R" horiz-adv-x="1398" 
d="M524 1341v-647h76q141 0 242 80q100 79 100 236q0 156 -78 244q-78 87 -192 87h-148zM1458 8v-8h-186q-148 0 -206 12q-57 12 -97 47q-39 35 -101 140l-258 430h-86v-346q0 -119 30 -178.5t130 -96.5v-8h-627v8q53 19 85.5 43.5t48.5 61t21 73.5t5 97v852q0 59 -5 96
t-21 72t-48.5 59t-85.5 43v8h613q291 0 436.5 -94t144.5 -281q2 -143 -109 -232q-111 -90 -259 -124l340 -471q84 -115 124 -151q40 -35 111 -52z" />
    <glyph glyph-name="S" unicode="S" horiz-adv-x="1112" 
d="M111 59v371h8q201 -377 411 -377q95 0 167.5 63t72.5 156q0 149 -234 296q-119 74 -194 124q-104 68 -170 159.5t-66 199.5q0 171 146 281t324 110q181 0 382 -82v-318h-8q-175 316 -379 318q-84 0 -143 -56.5t-59 -140.5q0 -76 49 -139.5t123 -107.5q177 -105 319 -210
q80 -58 126 -142.5t46 -180.5q0 -180 -141 -297t-369 -117q-100 -1 -220 25q-115 25 -191 65z" />
    <glyph glyph-name="T" unicode="T" horiz-adv-x="1380" 
d="M1006 8v-8h-627v8q53 19 85.5 43.5t48.5 61t21 73.5t5 97v1048h-76q-133 0 -187 -39q-53 -38 -210 -239h-9l33 360h1206l33 -360h-10q-154 199 -209 239q-55 39 -188 39h-76v-1048q0 -119 30 -178.5t130 -96.5z" />
    <glyph glyph-name="U" unicode="U" horiz-adv-x="1605" 
d="M1274 395v563q0 302 -76 381q-34 37 -108 66v8h483v-8q-74 -29 -109 -65q-75 -76 -75 -382v-569q0 -93 -34 -167t-89 -121t-131 -77.5t-155 -43t-165 -11.5q-86 0 -166.5 12t-160.5 42.5t-139 77t-95.5 120.5t-36.5 168v746q0 59 -5 96t-21 72t-48.5 59t-85.5 43v8h627
v-8q-53 -19 -85.5 -43t-48.5 -59t-21 -72t-5 -96v-775q0 -127 89 -204q88 -76 269 -76q81 0 149 17t124 53t87.5 98.5t31.5 146.5z" />
    <glyph glyph-name="V" unicode="V" horiz-adv-x="1521" 
d="M4 1405v8h612v-8q-60 -14 -85 -42q-26 -30 -25 -85q0 -92 92 -371l246 -747l233 706q90 272 90 362q0 84 -30.5 120t-114.5 57v8h496v-8q-68 -22 -110 -65q-79 -84 -218 -484l-295 -856h-291l-344 997q-76 218 -129 298q-51 78 -127 110z" />
    <glyph glyph-name="W" unicode="W" horiz-adv-x="2265" 
d="M4 1405v8h604v-8q-57 -16 -82 -46q-24 -31 -24 -99t69 -342l189 -750l211 698q61 202 61 314q0 97 -34 148t-124 77v8h570v-8q-60 -18 -84.5 -49t-24.5 -92q0 -62 23 -154l244 -924l217 680q117 365 26 472q-39 46 -112 67v8h528v-8q-32 -11 -59 -28t-45 -33.5
t-37.5 -45.5t-31 -49t-30.5 -58q-64 -125 -133 -335l-287 -856h-266l-268 961l-303 -961h-289l-244 874q-106 385 -181 473q-34 40 -83 58z" />
    <glyph glyph-name="X" unicode="X" horiz-adv-x="1503" 
d="M1497 8v-8h-668v8q108 42 125 104q16 62 -39 132l-233 354l-190 -264q-125 -173 -68 -249q29 -38 111 -77v-8h-519v8q97 48 164 110q61 57 178 206l275 348l-322 491q-103 162 -262 242v8h666v-10q-193 -70 -86 -234l205 -313l163 231q91 135 81 202t-128 114v10h512v-8
q-108 -54 -176 -120t-162 -189l-239 -316l350 -530q115 -171 262 -242z" />
    <glyph glyph-name="Y" unicode="Y" horiz-adv-x="1384" 
d="M1006 8v-8h-627v8q101 36 130.5 96t29.5 179v340l-220 403q-101 185 -166 265q-61 74 -145 114v8h633v-8q-73 -25 -97 -57q-51 -67 77 -318l165 -328l156 328q90 202 76 274q-14 71 -131 101v8h489v-8q-87 -26 -154 -105q-68 -80 -171 -276l-205 -399v-342q0 -60 5 -97
t21 -73.5t48.5 -61t85.5 -43.5z" />
    <glyph glyph-name="Z" unicode="Z" horiz-adv-x="1210" 
d="M1128 0h-1083v8l750 1323h-254q-140 0 -219 -41q-76 -40 -240 -217h-8l41 340h1034v-8l-739 -1323h278q175 0 233 34q57 33 209 222q4 8 15 18q8 9 14 19h10z" />
    <glyph glyph-name="bracketleft" unicode="[" horiz-adv-x="776" 
d="M688 -211v-76h-477v1835h477v-75h-213v-1684h213z" />
    <glyph glyph-name="backslash" unicode="\" horiz-adv-x="827" 
d="M819 -14h-121q-134 279 -371 775q-241 503 -321 666h121q90 -183 321 -667q162 -339 371 -774z" />
    <glyph glyph-name="bracketright" unicode="]" horiz-adv-x="776" 
d="M565 1548v-1835h-477v76h213v1684h-213v75h477z" />
    <glyph glyph-name="asciicircum" unicode="^" horiz-adv-x="874" 
d="M514 1413l211 -485h-41l-248 311l-246 -311h-40l206 485h158z" />
    <glyph glyph-name="underscore" unicode="_" horiz-adv-x="942" 
d="M866 -168v-147h-790v147h790z" />
    <glyph glyph-name="grave" unicode="`" horiz-adv-x="514" 
d="M473 1188l-10 -2q-291 53 -422 227l225 25q29 -57 91.5 -132t115.5 -118z" />
    <glyph glyph-name="a" unicode="a" horiz-adv-x="1071" 
d="M809 -20q-70 0 -117.5 36t-54.5 103q-162 -143 -315 -144q-113 0 -190 67.5t-77 178.5q-2 135 147 239t433 134v119q0 122 -69 201.5t-189 80.5q-76 0 -148 -45q61 -12 99 -51q38 -40 37 -93q0 -55 -41.5 -93.5t-97.5 -38.5t-97 38.5t-41 94.5q0 109 135 185
q133 75 309 77q389 0 390 -367v-426q0 -103 34.5 -143t135.5 -51v-8q-155 -94 -283 -94zM580 526q-100 0 -168 -50t-68 -169q0 -82 59 -133q58 -51 121 -51q62 0 111 27v370q-28 6 -55 6z" />
    <glyph glyph-name="b" unicode="b" horiz-adv-x="1292" 
d="M598 37q141 0 241 124q99 123 99 329t-93 318t-218 112q-92 -2 -168 -50v-753q68 -80 139 -80zM164 45v1120q0 137 -28 189q-29 53 -124 90v8q192 13 439 92h8v-647q163 172 348 172q184 0 304 -133q120 -134 120 -356q0 -203 -117.5 -351t-317.5 -217q-107 -37 -206 -37
q-95 -1 -227 23q-124 23 -199 47z" />
    <glyph glyph-name="c" unicode="c" horiz-adv-x="958" 
d="M624 1069q110 0 202 -57q92 -56 92 -136q0 -73 -41 -123t-113 -51q-61 0 -108.5 38.5t-47.5 97.5q0 50 25.5 98t68.5 70q-25 4 -40 4q-71 0 -126 -24.5t-89 -64t-55.5 -96t-29.5 -114t-8 -124.5q0 -210 96 -318q96 -107 242 -107q145 0 260 82l13 -8q-86 -128 -183 -194
t-235 -67q-202 -1 -345 145q-141 144 -143 374q0 127 47 245t138 193q166 137 380 137z" />
    <glyph glyph-name="d" unicode="d" horiz-adv-x="1267" 
d="M645 1008q-117 0 -208 -129q-91 -128 -91 -323q0 -194 102 -304t244 -111q72 0 133 31v725q-85 111 -180 111zM834 -25h-9v175q-163 -173 -362 -175q-157 -1 -285 135q-127 136 -127 357q0 181 94 321q89 133 225 207t294 74q66 0 161 -16v112q0 137 -28 189
q-29 51 -135 90v8q207 13 450 92h8v-1190q0 -138 28 -188q28 -51 126 -90v-8q-215 -20 -440 -93z" />
    <glyph glyph-name="e" unicode="e" horiz-adv-x="1021" 
d="M552 1008q-57 0 -98 -43.5t-60.5 -110.5t-27.5 -126t-8 -112l363 33q0 32 -0.5 56.5t-4 64t-10 69t-19 63.5t-30 55.5t-44.5 36t-61 14.5zM535 -25q-225 -1 -349.5 147.5t-126.5 378.5q0 235 150 401q149 165 346 167q202 0 311 -107t109 -309v-84h-617q0 -196 98 -291
q97 -94 250 -96q152 0 273 90l10 -8q-180 -289 -454 -289z" />
    <glyph glyph-name="f" unicode="f" horiz-adv-x="677" 
d="M627 8v-8h-584v8q79 34 105 91t26 180v661h-151l24 104h127v97q0 196 134 300q133 103 321 103q95 0 166 -55q71 -56 71 -121q0 -63 -39 -106t-102 -43q-56 0 -92.5 34.5t-36.5 89.5q0 103 96 152q-29 8 -57 8q-91 -2 -128 -84q-38 -84 -38 -248v-127h209v-104h-209v-661
q0 -118 29 -176t129 -95z" />
    <glyph glyph-name="g" unicode="g" horiz-adv-x="1064" 
d="M370 712q0 -296 151 -296t151 296t-151 296t-151 -296zM205 -217q0 -95 84 -159q83 -64 233 -64q148 0 258 74q109 73 109 171q0 68 -55 93q-54 23 -195 28l-270 15q-56 6 -68 8q-96 -70 -96 -166zM1065 -82q0 -89 -48.5 -165t-119 -124t-157.5 -76q-133 -45 -296 -45
q-162 0 -313 69t-149 167q0 158 266 221q-111 46 -111 160q0 77 52 148t126 118q-229 88 -229 314q0 90 36 161t98 114.5t139 66t163 22.5q102 0 205 -45l365 45h10l-29 -149l-223 22q106 -94 106 -244t-125 -246q-123 -96 -309 -98q-80 0 -166 23q-48 -32 -64 -72
q-17 -42 11 -73q28 -30 105 -35l311 -15q57 -3 104 -10.5t93.5 -26.5t78 -47t51 -74t19.5 -106z" />
    <glyph glyph-name="h" unicode="h" horiz-adv-x="1298" 
d="M1257 8v-8h-548v8q79 34 105 91t26 180v448q0 89 -48 143t-136 54q-83 0 -175 -47v-598q0 -122 26 -179q26 -56 105 -92v-8h-557v8q80 35 106 91q26 58 25 180v886q0 137 -27 189q-29 51 -126 90v8q212 17 440 92h8v-633q187 158 346 158q131 0 215 -87t84 -269v-434
q0 -122 26 -179q26 -56 105 -92z" />
    <glyph glyph-name="i" unicode="i" horiz-adv-x="653" 
d="M612 8v-8h-549v8q80 35 106 91q26 57 26 180v411q0 136 -28 188t-126 91v8q184 12 432 92h8v-790q0 -122 26 -179q26 -56 105 -92zM487 1309q0 -64 -45.5 -109t-109.5 -45t-109 44.5t-45 108.5t45 109t109 45t109.5 -44.5t45.5 -108.5z" />
    <glyph glyph-name="j" unicode="j" horiz-adv-x="641" 
d="M188 -55v745q0 136 -27 189q-29 51 -126 90v8q191 13 438 92h8v-1001q0 -89 -32 -178t-89 -155q-120 -142 -335 -227l-7 13q61 37 101 114.5t54.5 154.5t14.5 155zM487 1309q0 -64 -45.5 -109t-109.5 -45t-109 44.5t-45 108.5t45 109t109 45t109.5 -44.5t45.5 -108.5z
" />
    <glyph glyph-name="k" unicode="k" horiz-adv-x="1234" 
d="M1288 8v-8h-203q-177 0 -230 31q-54 32 -142 188l-193 342l189 187q92 92 92 149q0 83 -150 133v14h629v-10q-101 -27 -181 -80t-169 -139l-160 -156l279 -428q102 -156 169 -192q30 -16 70 -31zM602 8v-8h-557v8q80 35 106 91q26 58 25 180v886q0 137 -28 189
q-29 53 -125 90v8q195 13 440 92h8v-1265q0 -122 26 -179q26 -56 105 -92z" />
    <glyph glyph-name="l" unicode="l" horiz-adv-x="624" 
d="M602 8v-8h-557v8q80 35 106 91q26 58 25 180v886q0 137 -28 189q-29 53 -125 90v8q195 13 440 92h8v-1265q0 -122 26 -179q26 -56 105 -92z" />
    <glyph glyph-name="m" unicode="m" horiz-adv-x="1925" 
d="M1884 8v-8h-549v8q80 35 106 91q26 58 25 180v448q0 90 -47.5 143.5t-136.5 53.5q-87 0 -188 -52q23 -75 22 -159v-434q0 -122 26 -179q26 -56 105 -92v-8h-549v8q80 35 106 91q26 58 25 180v448q0 90 -42.5 143.5t-130.5 53.5q-83 0 -175 -47v-598q0 -122 26 -179
q26 -56 105 -92v-8h-549v8q80 35 106 91q26 57 26 180v411q0 136 -28 188t-126 91v8q179 12 428 92h8v-166q68 68 162 116t180 48q205 0 271 -176q57 60 166 119q106 57 222 59q114 0 195 -87q80 -88 80 -269v-434q0 -122 26 -179q26 -56 105 -92z" />
    <glyph glyph-name="n" unicode="n" horiz-adv-x="1312" 
d="M1272 8v-8h-549v8q79 34 105 91t26 180v448q0 89 -54.5 143t-143.5 54q-83 0 -175 -47v-598q0 -122 26 -179q26 -56 105 -92v-8h-549v8q80 35 106 91q26 57 26 180v411q0 136 -28 188t-126 91v8q179 12 428 92h8v-166q67 67 167.5 115t189.5 49q136 0 221 -85
q86 -86 86 -269v-434q0 -124 25 -180q26 -56 106 -91z" />
    <glyph glyph-name="o" unicode="o" horiz-adv-x="1247" 
d="M623 37q63 0 110.5 36.5t73.5 89t42 123.5t20.5 127.5t4.5 113.5q0 54 -5.5 110.5t-22.5 125.5t-43 121.5t-73 88t-108 35.5q-121 0 -185 -136q-65 -139 -64 -350q0 -281 103 -411q59 -74 147 -74zM227 134q-166 157 -166 392q0 234 168 388q168 153 395 155
q227 -2 394 -155q168 -154 168 -388t-167 -392q-167 -159 -396 -159t-396 159z" />
    <glyph glyph-name="p" unicode="p" horiz-adv-x="1312" 
d="M649 33q115 0 208 127q93 126 93 328q0 203 -91 316q-91 114 -220 114q-87 -2 -168 -56v-731q92 -98 178 -98zM629 -463v-8h-584v8q80 35 106 91q26 58 25 179v883q0 136 -28 188t-125 91v8q213 19 440 92h8v-176q170 176 355 176q100 0 181 -41t132 -110t78 -156.5
t26 -183.5q0 -136 -57.5 -260.5t-163.5 -199.5q-198 -141 -383 -143q-119 0 -168 9v-177q0 -47 3 -78t12 -63t26 -53.5t46 -41t71 -34.5z" />
    <glyph glyph-name="q" unicode="q" horiz-adv-x="1292" 
d="M1268 -463v-8h-584v8q42 15 71 34.5t46 41t26 53.5t12 63t3 78v355q-39 -46 -56.5 -64t-48 -41t-73.5 -45q-71 -37 -152 -37q-174 0 -308 131t-134 351q0 264 179 438t433 174q50 0 145 -14q93 -15 141 -15q46 0 150 29h19v-1262q-1 -121 25 -179q26 -56 106 -91z
M842 186v719q-82 102 -170 103q-129 0 -219 -128q-91 -127 -91 -328q0 -200 102 -298q101 -100 241 -100q84 -1 137 32z" />
    <glyph glyph-name="r" unicode="r" horiz-adv-x="847" 
d="M689 1069q65 0 111 -46t46 -111q0 -66 -45 -110t-111 -44t-110 44t-43 110q0 65 43.5 111t108.5 46zM629 8v-8h-576v8q80 35 106 91q26 58 25 180v411q0 136 -27 189q-29 51 -126 90v8q184 12 432 92h8v-790q0 -118 29 -176t129 -95z" />
    <glyph glyph-name="s" unicode="s" horiz-adv-x="868" 
d="M430 37q75 0 124.5 42.5t49.5 116.5q0 70 -54 115q-53 44 -132 79q-93 41 -155 74q-85 45 -135 118.5t-50 165.5q0 74 33 136t87 101.5t121.5 61.5t138.5 22q156 0 302 -55v-266h-8q-173 260 -303 260q-66 0 -111 -38.5t-45 -103.5q0 -35 17.5 -65.5t50.5 -54t60 -38.5
t64 -31q79 -35 159 -75q86 -44 138.5 -120.5t53.5 -170.5q0 -68 -24.5 -125t-65.5 -95t-96.5 -64.5t-115.5 -38.5t-124 -12q-183 0 -328 65l-10 309h10q178 -313 348 -313z" />
    <glyph glyph-name="t" unicode="t" horiz-adv-x="733" 
d="M467 -16q-297 0 -297 315v635h-174v12q259 107 446 363h15v-265h266v-124h-266v-607q0 -82 45 -135t125 -53q76 0 131 37l8 -10q-51 -71 -134 -119.5t-165 -48.5z" />
    <glyph glyph-name="u" unicode="u" horiz-adv-x="1257" 
d="M821 -25h-8v170q-88 -76 -171 -123t-171 -47q-126 0 -209 78q-82 78 -82 258v379q0 136 -27 189q-29 51 -126 90v8q184 12 432 92h8v-721q0 -106 60 -156q62 -50 139 -51q78 0 143 33v516q0 136 -28 188t-126 91v8q184 12 432 92h9v-715q0 -138 28 -188q29 -52 125 -90
v-8q-198 -18 -428 -93z" />
    <glyph glyph-name="v" unicode="v" horiz-adv-x="1206" 
d="M8 1036v8h580v-8q-58 -13 -85.5 -41t-27.5 -85t27 -146l180 -584l121 348q78 224 78 354q0 132 -123 154v8h440v-8q-70 -19 -126 -97q-56 -77 -128 -269l-248 -670h-227l-266 743q-58 160 -94 215q-38 57 -101 78z" />
    <glyph glyph-name="w" unicode="w" horiz-adv-x="1792" 
d="M8 1036v8h580v-8q-59 -11 -83 -41t-24 -91q0 -64 62 -292l110 -419l183 559q-5 51 -12.5 88t-23.5 80t-45.5 73.5t-72.5 46.5v4h489v-4q-69 -32 -69 -96t33 -192l149 -559l113 335q73 213 73 350q0 135 -122 158v8h440v-8q-72 -19 -128 -97q-57 -79 -124 -269l-238 -670
h-219l-200 629l-213 -629h-228l-209 670q-62 200 -105 272q-42 70 -116 94z" />
    <glyph glyph-name="x" unicode="x" horiz-adv-x="1196" 
d="M1200 8v-8h-594v10q104 45 105 103q0 37 -66 131l-129 190q-147 -221 -146 -308q2 -88 136 -116v-10h-510v8q202 89 305 238l174 248l-207 309q-95 144 -250 233v8h603v-10q-101 -52 -103 -106q0 -34 68 -135l82 -123l69 114q50 83 57 134q8 52 -14 74q-19 22 -67 42v10
h461v-10q-78 -26 -123 -51.5t-109 -78.5q-73 -61 -137 -154l-96 -140l254 -379q102 -153 237 -223z" />
    <glyph glyph-name="y" unicode="y" horiz-adv-x="1169" 
d="M8 1036v8h567v-10q-113 -23 -113 -110q0 -46 52 -215l168 -535l104 322q80 243 80 380q0 138 -114 158v10h419v-8q-72 -27 -130 -133q-57 -104 -154 -381l-217 -618q-13 -37 -23 -63t-29 -70.5t-36.5 -76.5t-43.5 -69.5t-52 -61t-59.5 -39.5t-68.5 -16q-77 0 -131.5 35
t-54.5 107q0 60 37.5 101.5t96.5 41.5q62 0 99 -44.5t37 -108.5q42 30 73 87q31 59 87 201l27 72h-164l-246 702q-70 198 -105 256q-36 57 -106 78z" />
    <glyph glyph-name="z" unicode="z" horiz-adv-x="1064" 
d="M971 0h-914v8l582 963h-193q-72 0 -100 -19q-60 -36 -126 -96q-4 -4 -21 -20t-31 -29q-61 -56 -62 -57h-10l41 294h844v-10l-569 -962h235q84 0 143 41q53 37 214 190h8z" />
    <glyph glyph-name="braceleft" unicode="{" horiz-adv-x="649" 
d="M221 78v178q0 274 -61 326q-31 26 -82 34v17q50 7 82 35q61 52 61 325v178q0 203 95 280q94 76 307 93v-8q-93 -20 -115 -96q-23 -78 -23 -271v-159q1 -166 -75.5 -253t-243.5 -132q167 -45 243.5 -132t75.5 -253v-160q0 -234 32 -293t106 -74v-8q-211 16 -307 93
q-95 77 -95 280z" />
    <glyph glyph-name="bar" unicode="|" horiz-adv-x="417" 
d="M248 1544v-1780h-78v1780h78z" />
    <glyph glyph-name="braceright" unicode="}" horiz-adv-x="647" 
d="M164 80v160q0 167 76.5 253.5t242.5 131.5q-166 45 -242.5 131.5t-76.5 253.5v159q0 239 -31 294t-106 73v8q211 -16 306 -93t95 -280v-178q0 -273 61 -325q32 -28 82 -35v-17q-49 -7 -82 -34q-47 -40 -58 -189q-3 -45 -3 -137v-178q0 -203 -95 -280q-95 -76 -306 -93v8
q93 21 115 97q22 75 22 270z" />
    <glyph glyph-name="asciitilde" unicode="~" 
d="M395 725q79 0 233 -57q153 -58 194 -58q39 0 91.5 30.5t69.5 64.5l49 -41q-100 -189 -258 -191q-70 0 -222 57q-150 58 -201 58q-43 0 -93.5 -27t-69.5 -63l-55 43q96 184 262 184z" />
    <glyph glyph-name="exclamdown" unicode="&#xa1;" horiz-adv-x="542" 
d="M442 901q0 -72 -49 -120t-121 -48q-71 0 -119.5 48.5t-50.5 119.5q0 70 49.5 119t120.5 49q72 0 121 -48t49 -120zM269 -397q-75 0 -123 50.5t-48 125.5q0 77 76 374q77 299 90 482h15q17 -189 91 -487q74 -304 74 -374q0 -74 -50.5 -122.5t-124.5 -48.5z" />
    <glyph glyph-name="cent" unicode="&#xa2;" 
d="M600 358v756q-193 -100 -193 -374t193 -382zM692 129v-301h-92v297q-199 15 -343 159t-144 359q0 342 313 498q86 42 174 61v211h92v-199q18 2 58 5q127 0 218 -57q91 -58 91 -137q0 -73 -41.5 -123t-112.5 -50q-60 0 -107.5 38t-47.5 97q0 51 25 98t69 70q-27 4 -64 4
q-34 0 -88 -12v-825q54 -12 106 -12q70 0 137 21q115 36 159 66l12 -8q-62 -85 -168 -165q-105 -78 -246 -95z" />
    <glyph glyph-name="sterling" unicode="&#xa3;" horiz-adv-x="1110" 
d="M549 774h309v-76h-291q25 -145 15 -190q-10 -46 -28 -74q-15 -24 -28 -46q-10 -16 -42 -45q-50 -45 -91 -77q-10 -8 -22 -17t-17 -13t-6 -5h469q105 1 140 21t51 84h8q2 -22 2 -66q0 -144 -61.5 -207t-204.5 -63h-660v8q98 77 164 188.5t66 223.5q0 110 -54 278h-157v76
h135q-41 138 -41 236q0 96 48.5 181t130.5 141q164 110 302 110t224 -56q85 -55 85 -137q0 -73 -41 -123.5t-112 -50.5q-60 0 -108 38t-48 97q0 51 25.5 99t68.5 69q-44 6 -73 6q-220 0 -222 -284q0 -135 64 -326z" />
    <glyph glyph-name="currency" unicode="&#xa4;" 
d="M585 307q166 0 280 120.5t112 287.5q0 167 -113 287t-280 120t-280.5 -120t-113.5 -288t114 -287.5t281 -119.5zM1001 195l-110 116q-122 -104 -307 -104t-303 104l-113 -116l-105 104l115 117q-102 120 -102 306t102 296l-115 110l105 107l113 -113q122 100 302 100
t308 -100l110 113l103 -107l-111 -110q99 -111 99 -298t-99 -304l111 -117z" />
    <glyph glyph-name="yen" unicode="&#xa5;" 
d="M891 8v-8h-615v8q99 35 130 93t30 182v90h-227v76h227v159h-227v76h199l-156 342q-97 212 -143 274q-50 68 -127 105v8h612v-8q-73 -26 -96 -55q-53 -65 51 -320l127 -321l121 321q73 210 55 278q-18 67 -135 97v8h469v-8q-86 -26 -140 -101q-59 -81 -145 -280l-145 -340
h200v-76h-225v-159h225v-76h-225v-90q0 -60 5 -97t21 -73.5t48.5 -61t85.5 -43.5z" />
    <glyph glyph-name="brokenbar" unicode="&#xa6;" horiz-adv-x="417" 
d="M248 1544v-756h-78v756h78zM248 520v-756h-78v756h78z" />
    <glyph glyph-name="section" unicode="&#xa7;" horiz-adv-x="1052" 
d="M238 780q0 -92 94 -141l356 -190q47 -27 57 -37q59 64 59 135t-95 121l-340 174q-56 28 -84 53q-47 -50 -47 -115zM74 651q0 83 54 154t134 113q-92 92 -92 215t99 216t245 93q52 0 101 -7.5t102 -26t85 -57.5t32 -94q0 -59 -39.5 -101t-98.5 -42q-54 0 -96.5 34.5
t-42.5 87.5q0 45 23 87.5t61 62.5q-36 16 -115 16q-71 0 -129.5 -47.5t-58.5 -117.5q0 -105 139 -172l338 -168q152 -77 152 -213q1 -79 -53 -161q-54 -81 -140 -134q117 -102 117 -233q0 -132 -114 -234t-284 -102q-44 0 -88 4.5t-94.5 18.5t-88.5 36t-63.5 60t-25.5 88
q0 65 43 108t108 43q60 0 106 -40t46 -100q0 -51 -27.5 -93t-74.5 -66q46 -18 143 -18q96 0 161 59q66 59 64 133q1 91 -108 154l-356 203q-164 92 -164 241z" />
    <glyph glyph-name="dieresis" unicode="&#xa8;" horiz-adv-x="743" 
d="M682 1309q0 -58 -40.5 -97t-98.5 -41q-59 0 -98 39.5t-39 97.5q0 59 39 98.5t97 39.5t99 -39.5t41 -97.5zM338 1309q0 -58 -40.5 -97t-98.5 -41q-58 0 -98 39.5t-40 97.5t39.5 98t97.5 40t99 -39.5t41 -97.5z" />
    <glyph glyph-name="copyright" unicode="&#xa9;" horiz-adv-x="1630" 
d="M815 63q249 -1 422 191q172 191 172 450t-172 450q-173 192 -422 192t-422 -192q-172 -191 -172 -449q0 -259 172 -450q173 -192 422 -192zM815 -31q-299 0 -505 216q-206 215 -206 519q0 303 206 520q206 216 505 216t505 -216q206 -217 206 -519t-206 -519
q-205 -215 -505 -217zM1120 383l19 -23q-141 -129 -313 -129t-292 127q-120 128 -120 346t131 346t299 128q125 0 239 -52v-165h-8q-26 36 -45 58.5t-47 48t-60.5 38t-70.5 12.5q-57 0 -102.5 -28.5t-72.5 -72t-44.5 -101t-24 -109.5t-6.5 -103q0 -57 10 -111t33 -104.5
t56.5 -88.5t84 -60.5t112.5 -22.5q136 0 222 66z" />
    <glyph glyph-name="ordfeminine" unicode="&#xaa;" horiz-adv-x="790" 
d="M723 602v-80h-664v80h664zM664 1178v-269q0 -68 27.5 -92t99.5 -35q-121 -66 -219 -66t-117 81q-113 -84 -204 -84q-81 0 -141.5 40t-60.5 117q-1 90 103 158t299 86v70q-2 72 -44.5 123t-112.5 51q-63 0 -101 -23q86 -27 86 -92q0 -39 -30.5 -61.5t-71.5 -24.5
q-42 0 -73 25q-32 26 -30 63q0 69 97 118q98 50 226 50q267 1 267 -235zM420 1075q-63 0 -108.5 -38.5t-45.5 -100.5q0 -61 39 -94t78 -33q38 0 68 14v250q-14 2 -31 2z" />
    <glyph glyph-name="guillemotleft" unicode="&#xab;" horiz-adv-x="907" 
d="M684 543l152 -312h-9l-381 312l379 313h11zM342 543l225 -379h-16l-490 379l490 381h16z" />
    <glyph glyph-name="logicalnot" unicode="&#xac;" 
d="M1010 651v-499h-148v352h-704v147h852z" />
    <glyph glyph-name="registered" unicode="&#xae;" horiz-adv-x="1630" 
d="M395 258q170 -188 420 -188q168 0 305 89t211 233.5t74 311.5q0 124 -44 240t-120.5 203t-187.5 139.5t-238 52.5q-168 0 -305 -89t-211 -233.5t-74 -311.5q0 -259 170 -447zM815 -25q-299 0 -503 213q-204 212 -204 516t204 517t503 213t503 -213t204 -516t-204 -517
q-204 -215 -503 -213zM707 1100v-389h110q83 0 132.5 53t49.5 137q0 83 -48 140.5t-130 58.5h-114zM1190 262v-8h-172l-223 397h-88v-231q0 -80 10 -101q11 -23 55 -57v-8h-274v8q44 30 55 54q10 23 10 104v571q0 34 -1.5 51t-7 39t-19.5 38.5t-37 31.5v8h327
q59 0 113.5 -13t102.5 -39.5t77 -74.5t29 -110q1 -105 -61 -167q-61 -60 -148 -87z" />
    <glyph glyph-name="macron" unicode="&#xaf;" horiz-adv-x="581" 
d="M547 1352v-109h-512v109h512z" />
    <glyph glyph-name="degree" unicode="&#xb0;" horiz-adv-x="835" 
d="M422 881q90 1 144.5 67t56.5 158q-2 94 -58.5 160t-148.5 66t-148.5 -66t-56.5 -160q0 -97 57.5 -161t153.5 -64zM752 1106q0 -139 -97.5 -234.5t-236.5 -95.5t-236.5 96t-97.5 234t97.5 234t236.5 96t236.5 -95.5t97.5 -234.5z" />
    <glyph glyph-name="plusminus" unicode="&#xb1;" 
d="M657 565v-352h-147v352h-352v148h352v352h147v-352h353v-148h-353zM1010 147v-147h-852v147h852z" />
    <glyph glyph-name="twosuperior" unicode="&#xb2;" horiz-adv-x="806" 
d="M698 532h-635v33l281 320q131 151 131 293q0 79 -43.5 130.5t-121.5 51.5q-69 0 -122 -49q52 -2 95 -39.5t43 -88.5q0 -50 -37 -85t-87 -35q-53 0 -90.5 38t-37.5 91q0 84 91 160t228 76q56 0 111.5 -13.5t105.5 -40t81 -74t30 -108.5q0 -65 -42 -127t-102 -103
q-180 -122 -231 -176l-63 -69h434z" />
    <glyph glyph-name="threesuperior" unicode="&#xb3;" horiz-adv-x="806" 
d="M268 973h-20l-10 14l211 256h-332v170h567v-8l-246 -283q117 -19 205 -95t88 -187q0 -134 -130 -228t-288 -94q-111 0 -181 48q-71 48 -69 104q0 56 34.5 92.5t89.5 36.5q54 0 91 -35q64 -62 15 -144q-19 -34 -53 -51q35 -8 57 -8q78 0 143 56q64 55 64 157t-75 150
q-74 47 -161 49z" />
    <glyph glyph-name="acute" unicode="&#xb4;" horiz-adv-x="514" 
d="M51 1186l-10 2q52 40 114.5 115.5t92.5 134.5l225 -25q-131 -174 -422 -227z" />
    <glyph glyph-name="mu" unicode="&#xb5;" horiz-adv-x="1257" 
d="M821 -25h-8v170q-96 -83 -178.5 -126.5t-184.5 -43.5q-89 0 -163 56q18 -91 71 -227q56 -144 56 -186q0 -41 -31 -75.5t-71 -34.5q-43 0 -64.5 7.5t-43.5 36.5q-26 31 -26 81l2 1057q0 136 -27 189q-29 51 -126 90v8q184 12 432 92h8v-721q0 -106 60 -156q62 -50 139 -51
q78 0 143 33v516q0 136 -28 188t-126 91v8q184 12 432 92h9v-715q0 -138 28 -188q29 -52 125 -90v-8q-198 -18 -428 -93z" />
    <glyph glyph-name="paragraph" unicode="&#xb6;" horiz-adv-x="1077" 
d="M885 1270v-1741h-92v1796h-340v-1796h-93v1276q-162 0 -244 88q-82 89 -81 216q0 127 77 216q76 88 224 88h639v-8q-90 -41 -90 -135z" />
    <glyph glyph-name="periodcentered" unicode="&#xb7;" horiz-adv-x="501" 
d="M420 731q0 -72 -49 -120t-121 -48t-121 48t-49 120t49 120t121 48t121 -48t49 -120z" />
    <glyph glyph-name="cedilla" unicode="&#xb8;" horiz-adv-x="489" 
d="M59 -375l25 23q60 -27 114 -27q48 0 79 22t31 69q0 46 -62 74.5t-115 29.5l143 184h58l-68 -104q71 -7 133 -50q61 -42 61 -118q0 -56 -39.5 -93t-88.5 -50t-104 -13q-94 0 -167 53z" />
    <glyph glyph-name="onesuperior" unicode="&#xb9;" horiz-adv-x="806" 
d="M528 1446h11v-741q0 -68 19.5 -102.5t78.5 -57.5v-13h-442v13q65 18 85.5 52.5t20.5 107.5v505q-39 -8 -172 -36l-4 28q174 45 403 244z" />
    <glyph glyph-name="ordmasculine" unicode="&#xba;" horiz-adv-x="890" 
d="M815 602v-80h-756v80h756zM320 848q40 -88 124 -88q41 0 71.5 22.5t47.5 54.5t28 76t14 80t3 73q0 46 -7 91.5t-23.5 96t-51 81.5t-83.5 31q-79 0 -121 -84q-42 -85 -41 -215q-1 -131 39 -219zM444 1413q100 1 190.5 -40.5t149 -123t58.5 -183.5q0 -103 -58.5 -185
t-149 -125t-191.5 -43q-102 0 -191 43.5t-145.5 125.5t-57.5 185q0 103 57.5 183.5t147 121.5t190.5 41z" />
    <glyph glyph-name="guillemotright" unicode="&#xbb;" horiz-adv-x="907" 
d="M82 856l379 -313l-381 -312h-8l151 312l-151 313h10zM356 924l490 -381l-490 -379h-16l225 379l-225 381h16z" />
    <glyph glyph-name="onequarter" unicode="&#xbc;" horiz-adv-x="1986" 
d="M1880 8v-8h-428v8q65 18 83.5 55t18.5 113v55h-393v15l438 639h187v-555h96v-99h-96v-55q0 -71 17.5 -108t76.5 -60zM1311 330h243v354zM1536 1499l-967 -1595h-118l968 1595h117zM522 1446h10v-741q0 -69 19.5 -103t79.5 -57v-13h-443v13q66 18 85.5 52t21.5 108v505
q-39 -8 -172 -36l-4 28q174 45 403 244z" />
    <glyph glyph-name="onehalf" unicode="&#xbd;" horiz-adv-x="1986" 
d="M1833 0h-635v33l281 319q131 151 131 293q0 80 -44 131t-122 51q-69 0 -121 -49q53 -2 95 -39t42 -89q0 -50 -37 -85t-87 -35q-53 0 -90.5 38t-37.5 91q0 84 91 160t233 76q57 0 112 -13.5t103 -40.5t78 -74.5t30 -107.5q0 -65 -42 -127t-102 -103q-179 -121 -230 -175
l-64 -70h434zM1536 1499l-967 -1595h-118l968 1595h117zM522 1446h10v-741q0 -69 19.5 -103t79.5 -57v-13h-443v13q66 18 85.5 52t21.5 108v505q-39 -8 -172 -36l-4 28q174 45 403 244z" />
    <glyph glyph-name="threequarters" unicode="&#xbe;" horiz-adv-x="2007" 
d="M1556 1499l-966 -1595h-119l969 1595h116zM1901 8v-8h-428v8q44 12 67 37t28.5 52.5t6.5 78.5v55h-393v15l438 639h186v-555h97v-99h-97v-55q0 -72 17.5 -108.5t77.5 -59.5zM1331 330h244v354zM268 973h-20l-10 14l211 256h-332v170h567v-8l-246 -283q117 -19 205 -95
t88 -187q0 -134 -130 -228t-288 -94q-111 0 -181 48q-71 48 -69 104q0 56 34.5 92.5t89.5 36.5q54 0 91 -35q64 -62 15 -144q-19 -34 -53 -51q35 -8 57 -8q78 0 143 56q64 55 64 157t-75 150q-74 47 -161 49z" />
    <glyph glyph-name="questiondown" unicode="&#xbf;" horiz-adv-x="970" 
d="M389 901q0 71 50 119.5t121 48.5t120 -48.5t49 -119.5t-49 -119.5t-120 -48.5t-121 48.5t-50 119.5zM547 637h28q1 -143 -41 -266q-42 -121 -84 -225t-42 -216q0 -106 67 -179t172 -73q100 0 178 80q-75 10 -128.5 56t-53.5 118q0 69 46 113.5t115 44.5q76 0 120.5 -49.5
t44.5 -126.5q0 -119 -120 -215q-121 -96 -305 -96q-66 0 -126.5 12.5t-114.5 40t-93.5 67t-62.5 97.5t-22 128q0 162 146 305q82 76 123 113q150 134 153 271z" />
    <glyph glyph-name="Agrave" unicode="&#xc0;" horiz-adv-x="1521" 
d="M987 1556l-10 -2q-292 53 -422 228l225 24q29 -57 91.5 -132t115.5 -118zM461 598h432l-215 655zM1518 8v-8h-613v8q65 15 88 46t23 100q0 77 -94 356h-490q-78 -241 -78 -329q0 -82 31.5 -117.5t114.5 -55.5v-8h-496v8q68 22 110 65q79 84 218 484l295 856h291l344 -997
q76 -218 129 -298q51 -78 127 -110z" />
    <glyph glyph-name="Aacute" unicode="&#xc1;" horiz-adv-x="1521" 
d="M565 1554l-10 2q53 43 114 116.5t93 133.5l225 -24q-130 -175 -422 -228zM461 598h432l-215 655zM1518 8v-8h-613v8q65 15 88 46t23 100q0 77 -94 356h-490q-78 -241 -78 -329q0 -82 31.5 -117.5t114.5 -55.5v-8h-496v8q68 22 110 65q79 84 218 484l295 856h291l344 -997
q76 -218 129 -298q51 -78 127 -110z" />
    <glyph glyph-name="Acircumflex" unicode="&#xc2;" horiz-adv-x="1521" 
d="M827 1810l201 -278h-16l-242 108l-240 -108h-16l197 278h116zM461 598h432l-215 655zM1518 8v-8h-613v8q65 15 88 46t23 100q0 77 -94 356h-490q-78 -241 -78 -329q0 -82 31.5 -117.5t114.5 -55.5v-8h-496v8q68 22 110 65q79 84 218 484l295 856h291l344 -997
q76 -218 129 -298q51 -78 127 -110z" />
    <glyph glyph-name="Atilde" unicode="&#xc3;" horiz-adv-x="1521" 
d="M604 1616q-78 0 -129 -72l-10 4q13 47 36 94.5t65 89.5t88 42q54 0 148 -30t136 -30q78 0 129 72l10 -4q-19 -62 -36.5 -98.5t-52.5 -75.5q-46 -54 -101 -54q-57 0 -153 31t-130 31zM461 598h432l-215 655zM1518 8v-8h-613v8q65 15 88 46t23 100q0 77 -94 356h-490
q-78 -241 -78 -329q0 -82 31.5 -117.5t114.5 -55.5v-8h-496v8q68 22 110 65q79 84 218 484l295 856h291l344 -997q76 -218 129 -298q51 -78 127 -110z" />
    <glyph glyph-name="Adieresis" unicode="&#xc4;" horiz-adv-x="1521" 
d="M1081 1677q0 -57 -41 -97t-98 -40q-58 0 -97.5 39.5t-39.5 97.5q0 57 39.5 96.5t97.5 41.5q58 -2 98.5 -41t40.5 -97zM737 1677q0 -57 -41 -97t-98 -40q-58 0 -97.5 39.5t-39.5 97.5q0 57 39.5 96.5t97.5 41.5q58 -2 98.5 -41t40.5 -97zM461 598h432l-215 655zM1518 8v-8
h-613v8q65 15 88 46t23 100q0 77 -94 356h-490q-78 -241 -78 -329q0 -82 31.5 -117.5t114.5 -55.5v-8h-496v8q68 22 110 65q79 84 218 484l295 856h291l344 -997q76 -218 129 -298q51 -78 127 -110z" />
    <glyph glyph-name="Aring" unicode="&#xc5;" horiz-adv-x="1521" 
d="M770 1360q55 0 93 40t38 95t-38 95t-93 40t-93 -40t-38 -95t38 -95t93 -40zM461 598h432l-215 655zM1518 8v-8h-613v8q65 15 88 46t23 100q0 77 -94 356h-490q-78 -241 -78 -329q0 -82 31.5 -117.5t114.5 -55.5v-8h-496v8q68 22 110 65q79 84 218 484l268 780
q-63 67 -63 160q0 95 69 161t164 66q93 0 163.5 -66t70.5 -159q0 -90 -62 -158l320 -925q76 -218 129 -298q51 -78 127 -110z" />
    <glyph glyph-name="AE" unicode="&#xc6;" horiz-adv-x="2068" 
d="M608 598h441v743h-9zM1954 0h-1065v8q53 19 85.5 43.5t48.5 61t21 73.5t5 97v227h-492q-122 -211 -151 -296q-32 -92 -4 -130q28 -39 133 -76v-8h-527v8q97 33 189 142q94 112 270 407l344 578q69 113 6 177q-49 49 -166 93v8h1243v-340h-10q-101 163 -160 210
q-60 48 -182 48h-192v-563h200q89 0 139.5 32.5t102.5 112.5h10v-370h-10q-51 78 -102.5 109.5t-139.5 31.5h-200v-602h174q84 0 137 8q48 8 103 46.5t95 83.5q37 44 126 153h10z" />
    <glyph glyph-name="Ccedilla" unicode="&#xc7;" horiz-adv-x="1486" 
d="M688 -375l25 23q61 -27 115 -27q55 0 80 25q28 24 28 66q0 32 -33.5 57t-72 35.5t-70.5 11.5l121 155q-343 18 -569 211t-226 508q0 255 149 435t403 267q153 50 287 50q259 0 457 -84v-320h-8q-169 322 -456 322q-219 0 -362 -170q-142 -169 -142 -480q0 -309 149 -485
q150 -174 389 -174q165 0 276 90.5t191 253.5h11l-29 -338q-172 -88 -461 -88l-47 -73q71 -7 133 -50q61 -42 61 -118q-1 -56 -40 -93t-88 -50t-104 -13q-94 0 -167 53z" />
    <glyph glyph-name="Egrave" unicode="&#xc8;" horiz-adv-x="1236" 
d="M834 1556l-11 -2q-292 53 -422 228l226 24q31 -58 93.5 -133.5t113.5 -116.5zM1128 0h-1071v8q53 19 85.5 43.5t48.5 61t21 73.5t5 97v852q0 59 -5 96t-21 72t-48.5 59t-85.5 43v8h1012v-340h-10q-100 161 -161 210q-60 48 -181 48h-193v-563h201q88 0 139.5 33
t102.5 112h10v-370h-10q-51 79 -102 110t-140 31h-201v-602h174q85 0 138 8q48 8 103 46.5t94 83.5q37 44 126 153h10z" />
    <glyph glyph-name="Eacute" unicode="&#xc9;" horiz-adv-x="1236" 
d="M412 1554l-11 2q53 43 114 116.5t93 133.5l226 -24q-130 -175 -422 -228zM1128 0h-1071v8q53 19 85.5 43.5t48.5 61t21 73.5t5 97v852q0 59 -5 96t-21 72t-48.5 59t-85.5 43v8h1012v-340h-10q-100 161 -161 210q-60 48 -181 48h-193v-563h201q88 0 139.5 33t102.5 112h10
v-370h-10q-51 79 -102 110t-140 31h-201v-602h174q85 0 138 8q48 8 103 46.5t94 83.5q37 44 126 153h10z" />
    <glyph glyph-name="Ecircumflex" unicode="&#xca;" horiz-adv-x="1236" 
d="M674 1810l200 -278h-16l-242 108l-239 -108h-17l197 278h117zM1128 0h-1071v8q53 19 85.5 43.5t48.5 61t21 73.5t5 97v852q0 59 -5 96t-21 72t-48.5 59t-85.5 43v8h1012v-340h-10q-100 161 -161 210q-60 48 -181 48h-193v-563h201q88 0 139.5 33t102.5 112h10v-370h-10
q-51 79 -102 110t-140 31h-201v-602h174q85 0 138 8q48 8 103 46.5t94 83.5q37 44 126 153h10z" />
    <glyph glyph-name="Edieresis" unicode="&#xcb;" horiz-adv-x="1236" 
d="M928 1677q0 -58 -41 -97.5t-99 -39.5t-97.5 39.5t-39.5 97.5q0 57 39.5 96.5t97.5 41.5q58 0 99 -40t41 -98zM584 1677q0 -58 -41 -97.5t-99 -39.5t-97.5 39.5t-39.5 97.5q0 57 39.5 96.5t97.5 41.5q58 0 99 -40t41 -98zM1128 0h-1071v8q53 19 85.5 43.5t48.5 61t21 73.5
t5 97v852q0 59 -5 96t-21 72t-48.5 59t-85.5 43v8h1012v-340h-10q-100 161 -161 210q-60 48 -181 48h-193v-563h201q88 0 139.5 33t102.5 112h10v-370h-10q-51 79 -102 110t-140 31h-201v-602h174q85 0 138 8q48 8 103 46.5t94 83.5q37 44 126 153h10z" />
    <glyph glyph-name="Igrave" unicode="&#xcc;" horiz-adv-x="741" 
d="M586 1556l-11 -2q-290 52 -421 228l225 24q31 -58 93.5 -133.5t113.5 -116.5zM684 8v-8h-627v8q53 19 85.5 43t48.5 59t21 72t5 97v856q0 59 -5 96t-21 72t-48.5 59t-85.5 43v8h627v-8q-53 -19 -85.5 -43t-48.5 -59t-21 -72t-5 -96v-856q0 -118 29.5 -176t130.5 -95z" />
    <glyph glyph-name="Iacute" unicode="&#xcd;" horiz-adv-x="741" 
d="M164 1554l-10 2q52 42 113 116t93 134l226 -24q-130 -175 -422 -228zM684 8v-8h-627v8q53 19 85.5 43t48.5 59t21 72t5 97v856q0 59 -5 96t-21 72t-48.5 59t-85.5 43v8h627v-8q-53 -19 -85.5 -43t-48.5 -59t-21 -72t-5 -96v-856q0 -118 29.5 -176t130.5 -95z" />
    <glyph glyph-name="Icircumflex" unicode="&#xce;" horiz-adv-x="741" 
d="M426 1810l201 -278h-17l-241 108l-240 -108h-16l196 278h117zM684 8v-8h-627v8q53 19 85.5 43t48.5 59t21 72t5 97v856q0 59 -5 96t-21 72t-48.5 59t-85.5 43v8h627v-8q-53 -19 -85.5 -43t-48.5 -59t-21 -72t-5 -96v-856q0 -118 29.5 -176t130.5 -95z" />
    <glyph glyph-name="Idieresis" unicode="&#xcf;" horiz-adv-x="741" 
d="M682 1677q0 -57 -41 -97t-98 -40q-58 0 -98 40t-39 97q0 59 39 98.5t97 39.5q59 -2 99.5 -41t40.5 -97zM338 1677q0 -57 -41 -97t-98 -40q-58 0 -98 39.5t-40 97.5t39.5 97t97.5 41q59 -2 99.5 -41t40.5 -97zM684 8v-8h-627v8q53 19 85.5 43t48.5 59t21 72t5 97v856
q0 59 -5 96t-21 72t-48.5 59t-85.5 43v8h627v-8q-53 -19 -85.5 -43t-48.5 -59t-21 -72t-5 -96v-856q0 -118 29.5 -176t130.5 -95z" />
    <glyph glyph-name="Eth" unicode="&#xd0;" horiz-adv-x="1683" 
d="M524 678v-596h201q256 0 400 181q145 181 145 455t-146 444q-145 169 -374 169h-226v-545h219v-108h-219zM729 0h-672v8q53 19 85.5 43.5t48.5 61t21 73.5t5 97v395h-129v108h129v349q0 59 -5 96t-21 72t-48.5 59t-85.5 43v8h697q130 0 251 -24.5t230 -78t189.5 -130.5
t127 -190t45.5 -249q1 -333 -251 -537t-617 -204z" />
    <glyph glyph-name="Ntilde" unicode="&#xd1;" horiz-adv-x="1677" 
d="M672 1616q-78 0 -129 -72l-11 4q14 48 37 95t65 89t88 42q54 0 147 -30t137 -30q78 0 129 72l10 -4q-14 -49 -37 -96.5t-65 -89.5t-89 -42q-58 0 -152 31q-96 31 -130 31zM1456 958v-968h-133l-987 1175v-706q0 -304 70 -383q35 -41 104 -68v-8h-463v8q71 27 105 67
q69 79 69 384v710q0 171 -194 236v8h465l849 -991v536q0 237 -35 322q-36 85 -139 125v8h463v-8q-71 -28 -106 -68q-66 -77 -68 -379z" />
    <glyph glyph-name="Ograve" unicode="&#xd2;" horiz-adv-x="1775" 
d="M1104 1556l-10 -2q-292 53 -422 228l225 24q31 -58 93.5 -133.5t113.5 -116.5zM1690 705q0 -163 -72 -305q-70 -139 -192 -237.5t-266.5 -145.5t-302.5 -47q-172 0 -353 86q-181 87 -299 258q-119 172 -119 391q0 160 72 301q106 208 310 322t444 114q169 0 352 -89
q182 -89 304 -262t122 -386zM544 238q130 -183 343 -185t344 185t131 470q0 284 -129 468t-346 184q-218 0 -345 -184q-128 -185 -128 -469q0 -285 130 -469z" />
    <glyph glyph-name="Oacute" unicode="&#xd3;" horiz-adv-x="1775" 
d="M682 1554l-10 2q52 42 112 115t95 135l225 -24q-130 -175 -422 -228zM1690 705q0 -163 -72 -305q-70 -139 -192 -237.5t-266.5 -145.5t-302.5 -47q-172 0 -353 86q-181 87 -299 258q-119 172 -119 391q0 160 72 301q106 208 310 322t444 114q169 0 352 -89
q182 -89 304 -262t122 -386zM544 238q130 -183 343 -185t344 185t131 470q0 284 -129 468t-346 184q-218 0 -345 -184q-128 -185 -128 -469q0 -285 130 -469z" />
    <glyph glyph-name="Ocircumflex" unicode="&#xd4;" horiz-adv-x="1775" 
d="M944 1810l201 -278h-17l-241 108l-240 -108h-16l196 278h117zM1690 705q0 -163 -72 -305q-70 -139 -192 -237.5t-266.5 -145.5t-302.5 -47q-172 0 -353 86q-181 87 -299 258q-119 172 -119 391q0 160 72 301q106 208 310 322t444 114q169 0 352 -89q182 -89 304 -262
t122 -386zM544 238q130 -183 343 -185t344 185t131 470q0 284 -129 468t-346 184q-218 0 -345 -184q-128 -185 -128 -469q0 -285 130 -469z" />
    <glyph glyph-name="Otilde" unicode="&#xd5;" horiz-adv-x="1775" 
d="M721 1616q-78 0 -129 -72l-10 4q18 60 35.5 96t54.5 77q47 53 99 53q53 0 147 -30t137 -30q78 0 129 72l10 -4q-9 -34 -25.5 -70t-40 -73.5t-56.5 -61t-68 -23.5q-56 0 -152 31t-131 31zM1690 705q0 -163 -72 -305q-70 -139 -192 -237.5t-266.5 -145.5t-302.5 -47
q-172 0 -353 86q-181 87 -299 258q-119 172 -119 391q0 160 72 301q106 208 310 322t444 114q169 0 352 -89q182 -89 304 -262t122 -386zM544 238q130 -183 343 -185t344 185t131 470q0 284 -129 468t-346 184q-218 0 -345 -184q-128 -185 -128 -469q0 -285 130 -469z" />
    <glyph glyph-name="Odieresis" unicode="&#xd6;" horiz-adv-x="1775" 
d="M1198 1677q0 -57 -41 -97t-98 -40q-58 0 -97.5 39.5t-39.5 97.5q0 57 39.5 96.5t97.5 41.5q58 -2 98.5 -41t40.5 -97zM854 1677q0 -57 -41 -97t-98 -40q-58 0 -98 40t-39 97q0 59 39 98.5t97 39.5q59 -2 99.5 -41t40.5 -97zM1690 705q0 -163 -72 -305
q-70 -139 -192 -237.5t-266.5 -145.5t-302.5 -47q-172 0 -353 86q-181 87 -299 258q-119 172 -119 391q0 160 72 301q106 208 310 322t444 114q169 0 352 -89q182 -89 304 -262t122 -386zM544 238q130 -183 343 -185t344 185t131 470q0 284 -129 468t-346 184
q-218 0 -345 -184q-128 -185 -128 -469q0 -285 130 -469z" />
    <glyph glyph-name="multiply" unicode="&#xd7;" 
d="M967 299l-105 -104l-278 278l-279 -278l-104 104l278 279l-278 278l104 105l279 -279l278 279l105 -105l-279 -278z" />
    <glyph glyph-name="Oslash" unicode="&#xd8;" horiz-adv-x="1691" 
d="M846 1376q-200 0 -318 -196t-118 -466q0 -269 104 -456l610 975q-117 143 -278 143zM846 35q196 -1 316 197t120 466q0 269 -106 457l-611 -975q115 -145 281 -145zM78 713q0 206 118 378q112 163 282 257t364 94q182 0 358 -90l82 131l72 -45l-80 -129
q163 -106 250.5 -264.5t87.5 -352.5q0 -199 -110.5 -371.5t-290.5 -264.5q-173 -87 -361 -87q-187 0 -365 86l-79 -129l-70 49l76 121q-163 103 -248.5 262.5t-85.5 354.5z" />
    <glyph glyph-name="Ugrave" unicode="&#xd9;" horiz-adv-x="1605" 
d="M1018 1556l-10 -2q-292 53 -422 228l225 24q31 -58 93.5 -133.5t113.5 -116.5zM1274 395v563q0 302 -76 381q-34 37 -108 66v8h483v-8q-74 -29 -109 -65q-75 -76 -75 -382v-569q0 -93 -34 -167t-89 -121t-131 -77.5t-155 -43t-165 -11.5q-86 0 -166.5 12t-160.5 42.5
t-139 77t-95.5 120.5t-36.5 168v746q0 59 -5 96t-21 72t-48.5 59t-85.5 43v8h627v-8q-53 -19 -85.5 -43t-48.5 -59t-21 -72t-5 -96v-775q0 -127 89 -204q88 -76 269 -76q81 0 149 17t124 53t87.5 98.5t31.5 146.5z" />
    <glyph glyph-name="Uacute" unicode="&#xda;" horiz-adv-x="1605" 
d="M596 1554l-10 2q52 42 112 115t95 135l225 -24q-130 -175 -422 -228zM1274 395v563q0 302 -76 381q-34 37 -108 66v8h483v-8q-74 -29 -109 -65q-75 -76 -75 -382v-569q0 -93 -34 -167t-89 -121t-131 -77.5t-155 -43t-165 -11.5q-86 0 -166.5 12t-160.5 42.5t-139 77
t-95.5 120.5t-36.5 168v746q0 59 -5 96t-21 72t-48.5 59t-85.5 43v8h627v-8q-53 -19 -85.5 -43t-48.5 -59t-21 -72t-5 -96v-775q0 -127 89 -204q88 -76 269 -76q81 0 149 17t124 53t87.5 98.5t31.5 146.5z" />
    <glyph glyph-name="Ucircumflex" unicode="&#xdb;" horiz-adv-x="1605" 
d="M858 1810l201 -278h-17l-241 108l-240 -108h-16l196 278h117zM1274 395v563q0 302 -76 381q-34 37 -108 66v8h483v-8q-74 -29 -109 -65q-75 -76 -75 -382v-569q0 -93 -34 -167t-89 -121t-131 -77.5t-155 -43t-165 -11.5q-86 0 -166.5 12t-160.5 42.5t-139 77t-95.5 120.5
t-36.5 168v746q0 59 -5 96t-21 72t-48.5 59t-85.5 43v8h627v-8q-53 -19 -85.5 -43t-48.5 -59t-21 -72t-5 -96v-775q0 -127 89 -204q88 -76 269 -76q81 0 149 17t124 53t87.5 98.5t31.5 146.5z" />
    <glyph glyph-name="Udieresis" unicode="&#xdc;" horiz-adv-x="1605" 
d="M1186 1677q0 -57 -41 -97t-98 -40q-58 0 -98 39.5t-40 97.5t39.5 97t97.5 41q59 -2 99.5 -41t40.5 -97zM842 1677q0 -58 -41 -97.5t-99 -39.5t-97.5 39.5t-39.5 97.5q0 57 39.5 96.5t97.5 41.5q58 0 99 -40t41 -98zM1274 395v563q0 302 -76 381q-34 37 -108 66v8h483v-8
q-74 -29 -109 -65q-75 -76 -75 -382v-569q0 -93 -34 -167t-89 -121t-131 -77.5t-155 -43t-165 -11.5q-86 0 -166.5 12t-160.5 42.5t-139 77t-95.5 120.5t-36.5 168v746q0 59 -5 96t-21 72t-48.5 59t-85.5 43v8h627v-8q-53 -19 -85.5 -43t-48.5 -59t-21 -72t-5 -96v-775
q0 -127 89 -204q88 -76 269 -76q81 0 149 17t124 53t87.5 98.5t31.5 146.5z" />
    <glyph glyph-name="Yacute" unicode="&#xdd;" horiz-adv-x="1384" 
d="M485 1554l-10 2q53 43 114 116.5t93 133.5l225 -24q-130 -175 -422 -228zM1006 8v-8h-627v8q101 36 130.5 96t29.5 179v340l-220 403q-101 185 -166 265q-61 74 -145 114v8h633v-8q-73 -25 -97 -57q-51 -67 77 -318l165 -328l156 328q90 202 76 274q-14 71 -131 101v8
h489v-8q-87 -26 -154 -105q-68 -80 -171 -276l-205 -399v-342q0 -60 5 -97t21 -73.5t48.5 -61t85.5 -43.5z" />
    <glyph glyph-name="Thorn" unicode="&#xde;" horiz-adv-x="1312" 
d="M524 1042v-655h144q99 0 164 55q117 98 114 291q0 123 -63 216t-199 93h-160zM719 8v-8h-662v8q53 19 85.5 43.5t48.5 61t21 73.5t5 97v852q0 59 -5 96t-21 72t-48.5 59t-85.5 43v8h627v-8q-53 -19 -85.5 -43t-48.5 -59t-21 -72t-5 -96v-21h217q506 0 506 -387
q0 -90 -28.5 -161.5t-77 -117.5t-117 -76.5t-142.5 -43t-159 -13.5h-199v-32q0 -121 41 -179.5t154 -95.5z" />
    <glyph glyph-name="germandbls" unicode="&#xdf;" horiz-adv-x="1323" 
d="M715 -25v31q133 10 199 118q66 109 65 226q0 66 -34 131.5t-88 116.5t-116 90t-123 60l-6 16q267 185 269 457q-1 48 -11.5 91.5t-31.5 82.5t-59.5 62.5t-88.5 23.5q-117 -1 -168 -99t-51 -338v-765q0 -46 2 -75.5t10.5 -64t24 -57t44 -42.5t69.5 -32v-8h-592v8
q89 27 119 84t30 187v411q0 136 -31 188t-143 91v8l189 35q0 141 58 256t171 194q118 82 290 82q173 0 285 -91q113 -92 113 -216q0 -125 -99 -211q-69 -58 -159 -117v-8q83 -33 154.5 -79.5t132.5 -107.5t96 -140.5t35 -167.5q0 -86 -33 -158t-88 -121.5t-127 -84.5
t-149.5 -51t-157.5 -16z" />
    <glyph glyph-name="agrave" unicode="&#xe0;" horiz-adv-x="1071" 
d="M752 1188l-11 -2q-291 53 -422 227l226 25q31 -58 93.5 -133.5t113.5 -116.5zM809 -20q-70 0 -117.5 36t-54.5 103q-162 -143 -315 -144q-113 0 -190 67.5t-77 178.5q-2 135 147 239t433 134v119q0 122 -69 201.5t-189 80.5q-76 0 -148 -45q61 -12 99 -51q38 -40 37 -93
q0 -55 -41.5 -93.5t-97.5 -38.5t-97 38.5t-41 94.5q0 109 135 185q133 75 309 77q389 0 390 -367v-426q0 -103 34.5 -143t135.5 -51v-8q-155 -94 -283 -94zM580 526q-100 0 -168 -50t-68 -169q0 -82 59 -133q58 -51 121 -51q62 0 111 27v370q-28 6 -55 6z" />
    <glyph glyph-name="aacute" unicode="&#xe1;" horiz-adv-x="1071" 
d="M330 1186l-11 2q52 40 114.5 115.5t92.5 134.5l226 -25q-131 -174 -422 -227zM809 -20q-70 0 -117.5 36t-54.5 103q-162 -143 -315 -144q-113 0 -190 67.5t-77 178.5q-2 135 147 239t433 134v119q0 122 -69 201.5t-189 80.5q-76 0 -148 -45q61 -12 99 -51q38 -40 37 -93
q0 -55 -41.5 -93.5t-97.5 -38.5t-97 38.5t-41 94.5q0 109 135 185q133 75 309 77q389 0 390 -367v-426q0 -103 34.5 -143t135.5 -51v-8q-155 -94 -283 -94zM580 526q-100 0 -168 -50t-68 -169q0 -82 59 -133q58 -51 121 -51q62 0 111 27v370q-28 6 -55 6z" />
    <glyph glyph-name="acircumflex" unicode="&#xe2;" horiz-adv-x="1071" 
d="M592 1442l201 -279h-17l-241 109l-240 -109h-16l196 279h117zM809 -20q-70 0 -117.5 36t-54.5 103q-162 -143 -315 -144q-113 0 -190 67.5t-77 178.5q-2 135 147 239t433 134v119q0 122 -69 201.5t-189 80.5q-76 0 -148 -45q61 -12 99 -51q38 -40 37 -93
q0 -55 -41.5 -93.5t-97.5 -38.5t-97 38.5t-41 94.5q0 109 135 185q133 75 309 77q389 0 390 -367v-426q0 -103 34.5 -143t135.5 -51v-8q-155 -94 -283 -94zM580 526q-100 0 -168 -50t-68 -169q0 -82 59 -133q58 -51 121 -51q62 0 111 27v370q-28 6 -55 6z" />
    <glyph glyph-name="atilde" unicode="&#xe3;" horiz-adv-x="1071" 
d="M652 1186q-57 0 -153 31q-95 30 -128 30q-79 0 -131 -71l-11 4q9 33 25.5 69t40 72.5t56 60t67.5 23.5q54 0 148 -30q94 -29 136 -29q79 0 129 71l11 -4q-9 -34 -25.5 -70t-40 -73t-56.5 -60.5t-68 -23.5zM809 -20q-70 0 -117.5 36t-54.5 103q-162 -143 -315 -144
q-113 0 -190 67.5t-77 178.5q-2 135 147 239t433 134v119q0 122 -69 201.5t-189 80.5q-76 0 -148 -45q61 -12 99 -51q38 -40 37 -93q0 -55 -41.5 -93.5t-97.5 -38.5t-97 38.5t-41 94.5q0 109 135 185q133 75 309 77q389 0 390 -367v-426q0 -103 34.5 -143t135.5 -51v-8
q-155 -94 -283 -94zM580 526q-100 0 -168 -50t-68 -169q0 -82 59 -133q58 -51 121 -51q62 0 111 27v370q-28 6 -55 6z" />
    <glyph glyph-name="adieresis" unicode="&#xe4;" horiz-adv-x="1071" 
d="M846 1309q0 -58 -40.5 -97t-98.5 -41q-58 0 -98 39.5t-40 97.5t39.5 98t97.5 40t99 -39.5t41 -97.5zM502 1309q0 -58 -40.5 -97t-99.5 -41q-58 0 -97.5 39.5t-39.5 97.5t39.5 98t97.5 40q57 0 98.5 -40t41.5 -97zM809 -20q-70 0 -117.5 36t-54.5 103q-162 -143 -315 -144
q-113 0 -190 67.5t-77 178.5q-2 135 147 239t433 134v119q0 122 -69 201.5t-189 80.5q-76 0 -148 -45q61 -12 99 -51q38 -40 37 -93q0 -55 -41.5 -93.5t-97.5 -38.5t-97 38.5t-41 94.5q0 109 135 185q133 75 309 77q389 0 390 -367v-426q0 -103 34.5 -143t135.5 -51v-8
q-155 -94 -283 -94zM580 526q-100 0 -168 -50t-68 -169q0 -82 59 -133q58 -51 121 -51q62 0 111 27v370q-28 6 -55 6z" />
    <glyph glyph-name="aring" unicode="&#xe5;" horiz-adv-x="1071" 
d="M535 1243q49 0 82.5 36.5t35.5 86.5q0 49 -35 86t-84 37t-83.5 -37t-34.5 -86t35 -86t84 -37zM748 1366q0 -86 -63.5 -147t-149.5 -61q-87 0 -150 60.5t-63 147.5q0 86 62.5 147t149.5 61q88 0 151 -60.5t63 -147.5zM809 -20q-70 0 -117.5 36t-54.5 103
q-162 -143 -315 -144q-113 0 -190 67.5t-77 178.5q-2 135 147 239t433 134v119q0 122 -69 201.5t-189 80.5q-76 0 -148 -45q61 -12 99 -51q38 -40 37 -93q0 -55 -41.5 -93.5t-97.5 -38.5t-97 38.5t-41 94.5q0 109 135 185q133 75 309 77q389 0 390 -367v-426
q0 -103 34.5 -143t135.5 -51v-8q-155 -94 -283 -94zM580 526q-100 0 -168 -50t-68 -169q0 -82 59 -133q58 -51 121 -51q62 0 111 27v370q-28 6 -55 6z" />
    <glyph glyph-name="ae" unicode="&#xe6;" horiz-adv-x="1550" 
d="M1210 922q-30 90 -118 90q-44 0 -79.5 -30t-56 -74.5t-34 -100.5t-18.5 -101.5t-5 -84.5v-11l342 33q0 190 -31 279zM623 500v20q-29 6 -54 6q-96 0 -161 -53q-64 -52 -64 -172q0 -80 62 -134t143 -54q82 0 164 55q-90 134 -90 332zM1096 -23q-234 0 -361 160
q-118 -87 -202.5 -124.5t-202.5 -37.5q-114 0 -194.5 67.5t-80.5 178.5q2 136 143 239q143 104 427 134v113q0 122 -64.5 204.5t-183.5 83.5q-76 0 -148 -45q61 -12 99 -51q38 -40 37 -93q0 -55 -41.5 -93.5t-97.5 -38.5t-97 38.5t-41 94.5q0 109 135 185q133 75 316 77
q182 0 264 -121q130 121 301 121q391 0 391 -416v-84h-596q0 -201 91 -304t240 -103q147 0 269 90l10 -8q-62 -100 -167 -184q-102 -81 -246 -83z" />
    <glyph glyph-name="ccedilla" unicode="&#xe7;" horiz-adv-x="958" 
d="M445 -428q-95 0 -166 53l24 23q61 -27 115 -27q48 0 78 22.5t30 68.5q0 32 -33.5 57t-72 35.5t-70.5 11.5l127 166q-180 26 -299 164q-119 139 -119 348q0 251 159 413t406 162q110 0 202 -57q92 -56 92 -136q0 -73 -41 -123t-113 -51q-61 0 -108.5 38.5t-47.5 97.5
q0 50 25.5 98t68.5 70q-25 4 -40 4q-71 0 -126 -24.5t-89 -64t-55.5 -96t-29.5 -114t-8 -124.5q0 -210 96 -318q96 -107 242 -107q145 0 260 82l13 -8q-86 -128 -183 -194t-235 -67h-12l-52 -79q77 -8 136 -52t59 -116q0 -56 -39.5 -93t-89 -50t-104.5 -13z" />
    <glyph glyph-name="egrave" unicode="&#xe8;" horiz-adv-x="1021" 
d="M727 1188l-10 -2q-291 53 -422 227l225 25q29 -57 91.5 -132t115.5 -118zM552 1008q-57 0 -98 -43.5t-60.5 -110.5t-27.5 -126t-8 -112l363 33q0 32 -0.5 56.5t-4 64t-10 69t-19 63.5t-30 55.5t-44.5 36t-61 14.5zM535 -25q-225 -1 -349.5 147.5t-126.5 378.5
q0 235 150 401q149 165 346 167q202 0 311 -107t109 -309v-84h-617q0 -196 98 -291q97 -94 250 -96q152 0 273 90l10 -8q-180 -289 -454 -289z" />
    <glyph glyph-name="eacute" unicode="&#xe9;" horiz-adv-x="1021" 
d="M412 1186l-11 2q52 40 114.5 115.5t92.5 134.5l226 -25q-131 -174 -422 -227zM552 1008q-57 0 -98 -43.5t-60.5 -110.5t-27.5 -126t-8 -112l363 33q0 32 -0.5 56.5t-4 64t-10 69t-19 63.5t-30 55.5t-44.5 36t-61 14.5zM535 -25q-225 -1 -349.5 147.5t-126.5 378.5
q0 235 150 401q149 165 346 167q202 0 311 -107t109 -309v-84h-617q0 -196 98 -291q97 -94 250 -96q152 0 273 90l10 -8q-180 -289 -454 -289z" />
    <glyph glyph-name="ecircumflex" unicode="&#xea;" horiz-adv-x="1021" 
d="M567 1442l201 -279h-16l-242 109l-240 -109h-16l197 279h116zM552 1008q-57 0 -98 -43.5t-60.5 -110.5t-27.5 -126t-8 -112l363 33q0 32 -0.5 56.5t-4 64t-10 69t-19 63.5t-30 55.5t-44.5 36t-61 14.5zM535 -25q-225 -1 -349.5 147.5t-126.5 378.5q0 235 150 401
q149 165 346 167q202 0 311 -107t109 -309v-84h-617q0 -196 98 -291q97 -94 250 -96q152 0 273 90l10 -8q-180 -289 -454 -289z" />
    <glyph glyph-name="edieresis" unicode="&#xeb;" horiz-adv-x="1021" 
d="M821 1309q0 -58 -40.5 -97t-98.5 -41q-58 0 -97.5 39.5t-39.5 97.5t39.5 98t97.5 40q57 0 98 -40t41 -97zM477 1309q0 -58 -40.5 -97t-98.5 -41q-58 0 -97.5 39.5t-39.5 97.5t39.5 98t97.5 40q57 0 98 -40t41 -97zM552 1008q-57 0 -98 -43.5t-60.5 -110.5t-27.5 -126
t-8 -112l363 33q0 32 -0.5 56.5t-4 64t-10 69t-19 63.5t-30 55.5t-44.5 36t-61 14.5zM535 -25q-225 -1 -349.5 147.5t-126.5 378.5q0 235 150 401q149 165 346 167q202 0 311 -107t109 -309v-84h-617q0 -196 98 -291q97 -94 250 -96q152 0 273 90l10 -8q-180 -289 -454 -289
z" />
    <glyph glyph-name="igrave" unicode="&#xec;" horiz-adv-x="653" 
d="M543 1188l-11 -2q-290 52 -421 227l225 25q29 -57 91.5 -132t115.5 -118zM612 8v-8h-549v8q80 35 106 91q26 57 26 180v411q0 136 -28 188t-126 91v8q184 12 432 92h8v-790q0 -122 26 -179q26 -56 105 -92z" />
    <glyph glyph-name="iacute" unicode="&#xed;" horiz-adv-x="653" 
d="M121 1186l-10 2q52 40 113 114.5t93 135.5l226 -25q-131 -174 -422 -227zM612 8v-8h-549v8q80 35 106 91q26 57 26 180v411q0 136 -28 188t-126 91v8q184 12 432 92h8v-790q0 -122 26 -179q26 -56 105 -92z" />
    <glyph glyph-name="icircumflex" unicode="&#xee;" horiz-adv-x="653" 
d="M383 1442l201 -279h-17l-241 109l-240 -109h-16l196 279h117zM612 8v-8h-549v8q80 35 106 91q26 57 26 180v411q0 136 -28 188t-126 91v8q184 12 432 92h8v-790q0 -122 26 -179q26 -56 105 -92z" />
    <glyph glyph-name="idieresis" unicode="&#xef;" horiz-adv-x="653" 
d="M637 1309q0 -58 -40.5 -97t-98.5 -41q-58 0 -98 39.5t-40 97.5t40 98t98 40q57 0 98 -40t41 -97zM293 1309q0 -58 -40.5 -97t-98.5 -41q-58 0 -98 39.5t-40 97.5t40 98t98 40q57 0 98 -40t41 -97zM612 8v-8h-549v8q80 35 106 91q26 57 26 180v411q0 136 -28 188t-126 91
v8q184 12 432 92h8v-790q0 -122 26 -179q26 -56 105 -92z" />
    <glyph glyph-name="eth" unicode="&#xf0;" horiz-adv-x="1247" 
d="M623 37q63 0 110.5 36.5t73.5 89t42 123.5t20.5 127.5t4.5 113.5q0 54 -5.5 110.5t-22.5 125.5t-43 121.5t-73 88t-108 35.5q-121 0 -185 -136q-65 -139 -64 -350q0 -281 103 -411q59 -74 147 -74zM1186 522q0 -152 -77 -278t-206 -197.5t-280 -71.5q-229 0 -396 159
q-166 157 -166 392q0 234 168 388q167 153 394 155q68 0 125 -27q-72 156 -195 297l-180 -71l-31 57l166 68q-74 80 -154 151h13q126 -68 208 -125l209 84l31 -57l-174 -72q545 -387 545 -852z" />
    <glyph glyph-name="ntilde" unicode="&#xf1;" horiz-adv-x="1312" 
d="M764 1186q-56 0 -152 31q-95 30 -131 30q-78 0 -129 -71l-10 4q9 33 25.5 69t40 72.5t56 60t67.5 23.5q53 0 147 -30q93 -29 134 -29h3q79 0 129 71l10 -4q-10 -35 -27 -78q-20 -53 -67 -101t-96 -48zM1272 8v-8h-549v8q79 34 105 91t26 180v448q0 89 -54.5 143
t-143.5 54q-83 0 -175 -47v-598q0 -122 26 -179q26 -56 105 -92v-8h-549v8q80 35 106 91q26 57 26 180v411q0 136 -28 188t-126 91v8q179 12 428 92h8v-166q67 67 167.5 115t189.5 49q136 0 221 -85q86 -86 86 -269v-434q0 -124 25 -180q26 -56 106 -91z" />
    <glyph glyph-name="ograve" unicode="&#xf2;" horiz-adv-x="1247" 
d="M840 1188l-11 -2q-290 52 -421 227l225 25q31 -58 93.5 -133.5t113.5 -116.5zM623 37q63 0 110.5 36.5t73.5 89t42 123.5t20.5 127.5t4.5 113.5q0 54 -5.5 110.5t-22.5 125.5t-43 121.5t-73 88t-108 35.5q-121 0 -185 -136q-65 -139 -64 -350q0 -281 103 -411
q59 -74 147 -74zM227 134q-166 157 -166 392q0 234 168 388q168 153 395 155q227 -2 394 -155q168 -154 168 -388t-167 -392q-167 -159 -396 -159t-396 159z" />
    <glyph glyph-name="oacute" unicode="&#xf3;" horiz-adv-x="1247" 
d="M418 1186l-10 2q52 40 113 114.5t93 135.5l226 -25q-131 -174 -422 -227zM623 37q63 0 110.5 36.5t73.5 89t42 123.5t20.5 127.5t4.5 113.5q0 54 -5.5 110.5t-22.5 125.5t-43 121.5t-73 88t-108 35.5q-121 0 -185 -136q-65 -139 -64 -350q0 -281 103 -411q59 -74 147 -74
zM227 134q-166 157 -166 392q0 234 168 388q168 153 395 155q227 -2 394 -155q168 -154 168 -388t-167 -392q-167 -159 -396 -159t-396 159z" />
    <glyph glyph-name="ocircumflex" unicode="&#xf4;" horiz-adv-x="1247" 
d="M680 1442l201 -279h-17l-241 109l-240 -109h-16l196 279h117zM623 37q63 0 110.5 36.5t73.5 89t42 123.5t20.5 127.5t4.5 113.5q0 54 -5.5 110.5t-22.5 125.5t-43 121.5t-73 88t-108 35.5q-121 0 -185 -136q-65 -139 -64 -350q0 -281 103 -411q59 -74 147 -74zM227 134
q-166 157 -166 392q0 234 168 388q168 153 395 155q227 -2 394 -155q168 -154 168 -388t-167 -392q-167 -159 -396 -159t-396 159z" />
    <glyph glyph-name="otilde" unicode="&#xf5;" horiz-adv-x="1247" 
d="M740 1186q-57 0 -153 31q-95 30 -128 30q-79 0 -131 -71l-11 4q11 46 35.5 94.5t66.5 89t88 41.5q54 0 147 -30q93 -29 139 -29q77 0 127 71l10 -4q-9 -34 -25.5 -70t-40 -73t-56.5 -60.5t-68 -23.5zM623 37q63 0 110.5 36.5t73.5 89t42 123.5t20.5 127.5t4.5 113.5
q0 54 -5.5 110.5t-22.5 125.5t-43 121.5t-73 88t-108 35.5q-121 0 -185 -136q-65 -139 -64 -350q0 -281 103 -411q59 -74 147 -74zM227 134q-166 157 -166 392q0 234 168 388q168 153 395 155q227 -2 394 -155q168 -154 168 -388t-167 -392q-167 -159 -396 -159t-396 159z
" />
    <glyph glyph-name="odieresis" unicode="&#xf6;" horiz-adv-x="1247" 
d="M934 1309q0 -58 -40.5 -97t-98.5 -41q-58 0 -98 39.5t-40 97.5t39.5 98t97.5 40t99 -39.5t41 -97.5zM590 1309q0 -58 -40.5 -97t-98.5 -41q-58 0 -98 39.5t-40 97.5t39.5 98t97.5 40t99 -39.5t41 -97.5zM623 37q63 0 110.5 36.5t73.5 89t42 123.5t20.5 127.5t4.5 113.5
q0 54 -5.5 110.5t-22.5 125.5t-43 121.5t-73 88t-108 35.5q-121 0 -185 -136q-65 -139 -64 -350q0 -281 103 -411q59 -74 147 -74zM227 134q-166 157 -166 392q0 234 168 388q168 153 395 155q227 -2 394 -155q168 -154 168 -388t-167 -392q-167 -159 -396 -159t-396 159z
" />
    <glyph glyph-name="divide" unicode="&#xf7;" 
d="M585 852q-55 0 -93.5 38.5t-38.5 93.5t38.5 93.5t93.5 38.5t93.5 -38.5t38.5 -93.5t-38.5 -93.5t-93.5 -38.5zM717 155q0 -55 -38.5 -93.5t-93.5 -38.5q-55 2 -93.5 39.5t-38.5 91.5q0 55 38.5 94t93.5 39t93.5 -38.5t38.5 -93.5zM1010 651v-147h-852v147h852z" />
    <glyph glyph-name="oslash" unicode="&#xf8;" horiz-adv-x="1214" 
d="M431 878q-56 -138 -56 -314t20 -288l389 594q-63 144 -180 144q-118 0 -173 -136zM606 31q232 0 234 491q0 129 -23 244l-389 -596q57 -139 178 -139zM606 1069q136 0 264 -65l74 112l70 -47l-74 -111q211 -160 211 -436q0 -151 -71.5 -276.5t-196.5 -198t-277 -72.5
q-138 0 -262 66l-74 -113l-69 47l71 111q-100 80 -153.5 193.5t-55.5 242.5q0 240 160 394t383 153z" />
    <glyph glyph-name="ugrave" unicode="&#xf9;" horiz-adv-x="1257" 
d="M844 1188l-10 -2q-291 53 -422 227l225 25q31 -58 93.5 -133.5t113.5 -116.5zM821 -25h-8v170q-88 -76 -171 -123t-171 -47q-126 0 -209 78q-82 78 -82 258v379q0 136 -27 189q-29 51 -126 90v8q184 12 432 92h8v-721q0 -106 60 -156q62 -50 139 -51q78 0 143 33v516
q0 136 -28 188t-126 91v8q184 12 432 92h9v-715q0 -138 28 -188q29 -52 125 -90v-8q-198 -18 -428 -93z" />
    <glyph glyph-name="uacute" unicode="&#xfa;" horiz-adv-x="1257" 
d="M422 1186l-10 2q52 40 113 114.5t93 135.5l226 -25q-131 -174 -422 -227zM821 -25h-8v170q-88 -76 -171 -123t-171 -47q-126 0 -209 78q-82 78 -82 258v379q0 136 -27 189q-29 51 -126 90v8q184 12 432 92h8v-721q0 -106 60 -156q62 -50 139 -51q78 0 143 33v516
q0 136 -28 188t-126 91v8q184 12 432 92h9v-715q0 -138 28 -188q29 -52 125 -90v-8q-198 -18 -428 -93z" />
    <glyph glyph-name="ucircumflex" unicode="&#xfb;" horiz-adv-x="1257" 
d="M684 1442l201 -279h-17l-241 109l-240 -109h-16l196 279h117zM821 -25h-8v170q-88 -76 -171 -123t-171 -47q-126 0 -209 78q-82 78 -82 258v379q0 136 -27 189q-29 51 -126 90v8q184 12 432 92h8v-721q0 -106 60 -156q62 -50 139 -51q78 0 143 33v516q0 136 -28 188
t-126 91v8q184 12 432 92h9v-715q0 -138 28 -188q29 -52 125 -90v-8q-198 -18 -428 -93z" />
    <glyph glyph-name="udieresis" unicode="&#xfc;" horiz-adv-x="1257" 
d="M938 1309q0 -58 -40.5 -97t-98.5 -41q-59 0 -98 39.5t-39 97.5q0 59 39 98.5t97 39.5t99 -39.5t41 -97.5zM594 1309q0 -58 -40.5 -97t-98.5 -41q-58 0 -98 39.5t-40 97.5t39.5 98t97.5 40t99 -39.5t41 -97.5zM821 -25h-8v170q-88 -76 -171 -123t-171 -47q-126 0 -209 78
q-82 78 -82 258v379q0 136 -27 189q-29 51 -126 90v8q184 12 432 92h8v-721q0 -106 60 -156q62 -50 139 -51q78 0 143 33v516q0 136 -28 188t-126 91v8q184 12 432 92h9v-715q0 -138 28 -188q29 -52 125 -90v-8q-198 -18 -428 -93z" />
    <glyph glyph-name="yacute" unicode="&#xfd;" horiz-adv-x="1169" 
d="M379 1186l-10 2q52 40 113 114.5t93 135.5l226 -25q-131 -174 -422 -227zM8 1036v8h567v-10q-113 -23 -113 -110q0 -46 52 -215l168 -535l104 322q80 243 80 380q0 138 -114 158v10h419v-8q-72 -27 -130 -133q-57 -104 -154 -381l-217 -618q-13 -37 -23 -63t-29 -70.5
t-36.5 -76.5t-43.5 -69.5t-52 -61t-59.5 -39.5t-68.5 -16q-77 0 -131.5 35t-54.5 107q0 60 37.5 101.5t96.5 41.5q62 0 99 -44.5t37 -108.5q42 30 73 87q31 59 87 201l27 72h-164l-246 702q-70 198 -105 256q-36 57 -106 78z" />
    <glyph glyph-name="thorn" unicode="&#xfe;" horiz-adv-x="1312" 
d="M608 33q142 0 243 125q99 124 99 354q0 179 -91 292q-91 114 -220 114q-87 -2 -168 -56v-794q67 -35 137 -35zM629 -463v-8h-584v8q80 35 106 91q26 58 25 179v1358q0 137 -28 189q-29 53 -125 90v8q213 19 440 92h8v-651q170 176 355 176q100 0 181 -41t132 -110
t78 -156.5t26 -183.5q0 -165 -80.5 -298.5t-226.5 -212.5q-166 -92 -338 -92q-78 0 -127 9v-177q0 -47 3 -78t12 -63t26 -53.5t46 -41t71 -34.5z" />
    <glyph glyph-name="ydieresis" unicode="&#xff;" horiz-adv-x="1169" 
d="M895 1309q0 -58 -40.5 -97t-98.5 -41q-58 0 -98 39.5t-40 97.5t40 98t98 40q57 0 98 -40t41 -97zM551 1309q0 -58 -40.5 -97t-98.5 -41q-58 0 -98 39.5t-40 97.5t40 98t98 40q57 0 98 -40t41 -97zM8 1036v8h567v-10q-113 -23 -113 -110q0 -46 52 -215l168 -535l104 322
q80 243 80 380q0 138 -114 158v10h419v-8q-72 -27 -130 -133q-57 -104 -154 -381l-217 -618q-13 -37 -23 -63t-29 -70.5t-36.5 -76.5t-43.5 -69.5t-52 -61t-59.5 -39.5t-68.5 -16q-77 0 -131.5 35t-54.5 107q0 60 37.5 101.5t96.5 41.5q62 0 99 -44.5t37 -108.5q42 30 73 87
q31 59 87 201l27 72h-164l-246 702q-70 198 -105 256q-36 57 -106 78z" />
    <glyph glyph-name="Amacron" unicode="&#x100;" horiz-adv-x="1521" 
d="M1026 1720v-108h-512v108h512zM461 598h432l-215 655zM1518 8v-8h-613v8q65 15 88 46t23 100q0 77 -94 356h-490q-78 -241 -78 -329q0 -82 31.5 -117.5t114.5 -55.5v-8h-496v8q68 22 110 65q79 84 218 484l295 856h291l344 -997q76 -218 129 -298q51 -78 127 -110z" />
    <glyph glyph-name="amacron" unicode="&#x101;" horiz-adv-x="1071" 
d="M791 1352v-109h-512v109h512zM809 -20q-70 0 -117.5 36t-54.5 103q-162 -143 -315 -144q-113 0 -190 67.5t-77 178.5q-2 135 147 239t433 134v119q0 122 -69 201.5t-189 80.5q-76 0 -148 -45q61 -12 99 -51q38 -40 37 -93q0 -55 -41.5 -93.5t-97.5 -38.5t-97 38.5
t-41 94.5q0 109 135 185q133 75 309 77q389 0 390 -367v-426q0 -103 34.5 -143t135.5 -51v-8q-155 -94 -283 -94zM580 526q-100 0 -168 -50t-68 -169q0 -82 59 -133q58 -51 121 -51q62 0 111 27v370q-28 6 -55 6z" />
    <glyph glyph-name="Abreve" unicode="&#x102;" horiz-adv-x="1521" 
d="M770 1528q-54 0 -97.5 25.5t-71 68.5t-45 89.5t-26.5 98.5h9q27 -68 92.5 -105.5t142.5 -37.5q74 0 137.5 38.5t89.5 104.5h9q-8 -52 -25.5 -99t-45.5 -89.5t-71.5 -68t-97.5 -25.5zM461 598h432l-215 655zM1518 8v-8h-613v8q65 15 88 46t23 100q0 77 -94 356h-490
q-78 -241 -78 -329q0 -82 31.5 -117.5t114.5 -55.5v-8h-496v8q68 22 110 65q79 84 218 484l295 856h291l344 -997q76 -218 129 -298q51 -78 127 -110z" />
    <glyph glyph-name="abreve" unicode="&#x103;" horiz-adv-x="1071" 
d="M535 1159q-54 0 -97.5 25.5t-71.5 69t-45 90t-26 98.5h8q26 -67 91.5 -105.5t140.5 -38.5t140 38.5t91 105.5h8q-8 -52 -25 -99t-45 -90t-71.5 -68.5t-97.5 -25.5zM809 -20q-70 0 -117.5 36t-54.5 103q-162 -143 -315 -144q-113 0 -190 67.5t-77 178.5q-2 135 147 239
t433 134v119q0 122 -69 201.5t-189 80.5q-76 0 -148 -45q61 -12 99 -51q38 -40 37 -93q0 -55 -41.5 -93.5t-97.5 -38.5t-97 38.5t-41 94.5q0 109 135 185q133 75 309 77q389 0 390 -367v-426q0 -103 34.5 -143t135.5 -51v-8q-155 -94 -283 -94zM580 526q-100 0 -168 -50
t-68 -169q0 -82 59 -133q58 -51 121 -51q62 0 111 27v370q-28 6 -55 6z" />
    <glyph glyph-name="Aogonek" unicode="&#x104;" horiz-adv-x="1521" 
d="M461 598h432l-215 655zM1507 -338v-8q-67 -82 -141 -82q-66 0 -111 36t-45 101q0 55 50 115t109 100q64 42 128 76h-592v8q65 15 88 46t23 100q0 77 -94 356h-490q-78 -241 -78 -329q0 -82 31.5 -117.5t114.5 -55.5v-8h-496v8q68 22 110 65q79 84 218 484l295 856h291
l344 -997q76 -218 129 -298q51 -78 127 -110v-8q-136 -157 -138 -272q0 -72 90 -72q19 0 37 6z" />
    <glyph glyph-name="aogonek" unicode="&#x105;" horiz-adv-x="1071" 
d="M574 545q-99 -2 -164.5 -62.5t-65.5 -158.5q0 -102 59 -156q59 -56 121 -56t111 27v400q-30 6 -61 6zM1092 -338v-8q-66 -82 -141 -82t-115 40t-41 86q0 47 16 83q32 74 190 218q51 47 66 60q-153 -80 -258 -79q-70 0 -117.5 36t-54.5 103q-162 -143 -315 -144
q-113 0 -190 67.5t-77 178.5q-2 135 147 239t433 134v119q0 122 -69 201.5t-189 80.5q-76 0 -148 -45q61 -12 99 -51q38 -40 37 -93q0 -55 -41.5 -93.5t-97.5 -38.5t-97 38.5t-41 94.5q0 109 135 185q133 75 309 77q389 0 390 -367v-426q0 -103 34.5 -143t135.5 -51v-8
q-48 -66 -87.5 -170t-39.5 -177q0 -71 90 -71q19 0 37 6z" />
    <glyph glyph-name="Cacute" unicode="&#x106;" horiz-adv-x="1486" 
d="M680 1554l-10 2q52 42 112 115t95 135l225 -24q-130 -175 -422 -228zM944 -31q-367 0 -612 196q-246 197 -246 525q0 255 149 435t403 267q153 50 287 50q259 0 457 -84v-320h-8q-169 322 -456 322q-219 0 -362 -170q-142 -169 -142 -480q0 -309 149 -485
q150 -174 389 -174q165 0 276 90.5t191 253.5h11l-29 -338q-82 -44 -209 -65t-248 -23z" />
    <glyph glyph-name="cacute" unicode="&#x107;" horiz-adv-x="958" 
d="M412 1186l-11 2q52 40 114.5 115.5t92.5 134.5l226 -25q-131 -174 -422 -227zM624 1069q110 0 202 -57q92 -56 92 -136q0 -73 -41 -123t-113 -51q-61 0 -108.5 38.5t-47.5 97.5q0 50 25.5 98t68.5 70q-25 4 -40 4q-71 0 -126 -24.5t-89 -64t-55.5 -96t-29.5 -114
t-8 -124.5q0 -210 96 -318q96 -107 242 -107q145 0 260 82l13 -8q-86 -128 -183 -194t-235 -67q-202 -1 -345 145q-141 144 -143 374q0 127 47 245t138 193q166 137 380 137z" />
    <glyph glyph-name="Ccircumflex" unicode="&#x108;" horiz-adv-x="1486" 
d="M963 1810l200 -278h-16l-242 108l-239 -108h-17l197 278h117zM944 -31q-367 0 -612 196q-246 197 -246 525q0 255 149 435t403 267q153 50 287 50q259 0 457 -84v-320h-8q-169 322 -456 322q-219 0 -362 -170q-142 -169 -142 -480q0 -309 149 -485q150 -174 389 -174
q165 0 276 90.5t191 253.5h11l-29 -338q-82 -44 -209 -65t-248 -23z" />
    <glyph glyph-name="ccircumflex" unicode="&#x109;" horiz-adv-x="958" 
d="M616 1442l201 -279h-16l-242 109l-240 -109h-16l197 279h116zM624 1069q110 0 202 -57q92 -56 92 -136q0 -73 -41 -123t-113 -51q-61 0 -108.5 38.5t-47.5 97.5q0 50 25.5 98t68.5 70q-25 4 -40 4q-71 0 -126 -24.5t-89 -64t-55.5 -96t-29.5 -114t-8 -124.5
q0 -210 96 -318q96 -107 242 -107q145 0 260 82l13 -8q-86 -128 -183 -194t-235 -67q-202 -1 -345 145q-141 144 -143 374q0 127 47 245t138 193q166 137 380 137z" />
    <glyph glyph-name="Cdotaccent" unicode="&#x10a;" horiz-adv-x="1486" 
d="M1083 1677q0 -63 -46 -108t-109 -45q-64 0 -109 44.5t-45 108.5q0 66 45.5 110t111.5 44q63 0 107.5 -45.5t44.5 -108.5zM944 -31q-367 0 -612 196q-246 197 -246 525q0 255 149 435t403 267q153 50 287 50q259 0 457 -84v-320h-8q-169 322 -456 322q-219 0 -362 -170
q-142 -169 -142 -480q0 -309 149 -485q150 -174 389 -174q165 0 276 90.5t191 253.5h11l-29 -338q-82 -44 -209 -65t-248 -23z" />
    <glyph glyph-name="cdotaccent" unicode="&#x10b;" horiz-adv-x="958" 
d="M731 1309q0 -64 -45.5 -109t-109.5 -45t-109 44.5t-45 108.5t44.5 109t108.5 45t109 -44.5t47 -108.5zM624 1069q110 0 202 -57q92 -56 92 -136q0 -73 -41 -123t-113 -51q-61 0 -108.5 38.5t-47.5 97.5q0 50 25.5 98t68.5 70q-25 4 -40 4q-71 0 -126 -24.5t-89 -64
t-55.5 -96t-29.5 -114t-8 -124.5q0 -210 96 -318q96 -107 242 -107q145 0 260 82l13 -8q-86 -128 -183 -194t-235 -67q-202 -1 -345 145q-141 144 -143 374q0 127 47 245t138 193q166 137 380 137z" />
    <glyph glyph-name="Ccaron" unicode="&#x10c;" horiz-adv-x="1486" 
d="M1174 1810l-201 -278h-117l-197 278h17l239 -108l242 108h17zM944 -31q-367 0 -612 196q-246 197 -246 525q0 255 149 435t403 267q153 50 287 50q259 0 457 -84v-320h-8q-169 322 -456 322q-219 0 -362 -170q-142 -169 -142 -480q0 -309 149 -485q150 -174 389 -174
q165 0 276 90.5t191 253.5h11l-29 -338q-82 -44 -209 -65t-248 -23z" />
    <glyph glyph-name="ccaron" unicode="&#x10d;" horiz-adv-x="958" 
d="M813 1442l-201 -279h-116l-197 279h16l240 -109l242 109h16zM624 1069q110 0 202 -57q92 -56 92 -136q0 -73 -41 -123t-113 -51q-61 0 -108.5 38.5t-47.5 97.5q0 50 25.5 98t68.5 70q-25 4 -40 4q-71 0 -126 -24.5t-89 -64t-55.5 -96t-29.5 -114t-8 -124.5
q0 -210 96 -318q96 -107 242 -107q145 0 260 82l13 -8q-86 -128 -183 -194t-235 -67q-202 -1 -345 145q-141 144 -143 374q0 127 47 245t138 193q166 137 380 137z" />
    <glyph glyph-name="Dcaron" unicode="&#x10e;" horiz-adv-x="1683" 
d="M1098 1810l-201 -278h-117l-196 278h16l240 -108l241 108h17zM729 0h-672v8q53 19 85.5 43.5t48.5 61t21 73.5t5 97v852q0 59 -5 96t-21 72t-48.5 59t-85.5 43v8h697q130 0 251 -24.5t230 -78t189.5 -130.5t127 -190t45.5 -249q1 -333 -251 -537t-617 -204zM524 1331
v-1249h201q256 0 400 181q145 181 145 455t-146 444q-145 169 -374 169h-226z" />
    <glyph glyph-name="dcaron" unicode="&#x10f;" horiz-adv-x="1437" 
d="M1324 1544q45 0 79.5 -33t34.5 -78q0 -39 -50 -165t-53 -213h-20q-5 92 -53 214q-50 126 -50 165q0 45 33.5 77.5t78.5 32.5zM645 1008q-117 0 -208 -129q-91 -128 -91 -323q0 -194 102 -304t244 -111q72 0 133 31v725q-85 111 -180 111zM834 -25h-9v175
q-163 -173 -362 -175q-157 -1 -285 135q-127 136 -127 357q0 181 94 321q89 133 225 207t294 74q66 0 161 -16v112q0 137 -28 189q-29 51 -135 90v8q207 13 450 92h8v-1190q0 -138 28 -188q28 -51 126 -90v-8q-215 -20 -440 -93z" />
    <glyph glyph-name="Dcroat" unicode="&#x110;" horiz-adv-x="1683" 
d="M524 678v-596h201q256 0 400 181q145 181 145 455t-146 444q-145 169 -374 169h-226v-545h219v-108h-219zM729 0h-672v8q53 19 85.5 43.5t48.5 61t21 73.5t5 97v395h-129v108h129v349q0 59 -5 96t-21 72t-48.5 59t-85.5 43v8h697q130 0 251 -24.5t230 -78t189.5 -130.5
t127 -190t45.5 -249q1 -333 -251 -537t-617 -204z" />
    <glyph glyph-name="dcroat" unicode="&#x111;" horiz-adv-x="1267" 
d="M442 881q-96 -127 -96 -323t102 -306t244 -111q72 0 133 31v778q-52 56 -155 58q-132 0 -228 -127zM834 -25h-9v175q-151 -174 -333 -174q-180 0 -311 134q-130 133 -130 357q0 181 94 321q89 133 225 207t294 74q66 0 161 -16v129h-301v88h297q-8 74 -44.5 110
t-114.5 64v8q207 13 450 92h8v-274h101v-88h-101v-828q0 -138 28 -188q28 -51 126 -90v-8q-215 -20 -440 -93z" />
    <glyph glyph-name="Emacron" unicode="&#x112;" horiz-adv-x="1236" 
d="M874 1720v-108h-512v108h512zM1128 0h-1071v8q53 19 85.5 43.5t48.5 61t21 73.5t5 97v852q0 59 -5 96t-21 72t-48.5 59t-85.5 43v8h1012v-340h-10q-100 161 -161 210q-60 48 -181 48h-193v-563h201q88 0 139.5 33t102.5 112h10v-370h-10q-51 79 -102 110t-140 31h-201
v-602h174q85 0 138 8q48 8 103 46.5t94 83.5q37 44 126 153h10z" />
    <glyph glyph-name="emacron" unicode="&#x113;" horiz-adv-x="1021" 
d="M799 1352v-109h-512v109h512zM552 1008q-57 0 -98 -43.5t-60.5 -110.5t-27.5 -126t-8 -112l363 33q0 32 -0.5 56.5t-4 64t-10 69t-19 63.5t-30 55.5t-44.5 36t-61 14.5zM535 -25q-225 -1 -349.5 147.5t-126.5 378.5q0 235 150 401q149 165 346 167q202 0 311 -107
t109 -309v-84h-617q0 -196 98 -291q97 -94 250 -96q152 0 273 90l10 -8q-180 -289 -454 -289z" />
    <glyph glyph-name="Ebreve" unicode="&#x114;" horiz-adv-x="1236" 
d="M618 1528q-54 0 -97 25.5t-71 68.5t-45 89.5t-26 98.5h8q27 -68 92.5 -105.5t142.5 -37.5q74 0 138 38.5t90 104.5h8q-8 -52 -25.5 -99t-45.5 -89.5t-71.5 -68t-97.5 -25.5zM1128 0h-1071v8q53 19 85.5 43.5t48.5 61t21 73.5t5 97v852q0 59 -5 96t-21 72t-48.5 59
t-85.5 43v8h1012v-340h-10q-100 161 -161 210q-60 48 -181 48h-193v-563h201q88 0 139.5 33t102.5 112h10v-370h-10q-51 79 -102 110t-140 31h-201v-602h174q85 0 138 8q48 8 103 46.5t94 83.5q37 44 126 153h10z" />
    <glyph glyph-name="ebreve" unicode="&#x115;" horiz-adv-x="1021" 
d="M552 1159q-54 0 -97.5 25.5t-71.5 68.5t-45.5 90t-26.5 99h8q26 -67 92 -105.5t141 -38.5t139.5 38.5t90.5 105.5h9q-7 -41 -18.5 -78.5t-31.5 -75.5t-46 -66t-63 -45.5t-80 -17.5zM552 1008q-57 0 -98 -43.5t-60.5 -110.5t-27.5 -126t-8 -112l363 33q0 32 -0.5 56.5
t-4 64t-10 69t-19 63.5t-30 55.5t-44.5 36t-61 14.5zM535 -25q-225 -1 -349.5 147.5t-126.5 378.5q0 235 150 401q149 165 346 167q202 0 311 -107t109 -309v-84h-617q0 -196 98 -291q97 -94 250 -96q152 0 273 90l10 -8q-180 -289 -454 -289z" />
    <glyph glyph-name="Edotaccent" unicode="&#x116;" horiz-adv-x="1236" 
d="M772 1677q0 -64 -46 -108.5t-110 -44.5t-108.5 44.5t-44.5 108.5t44.5 109t108.5 45t110 -45t46 -109zM1128 0h-1071v8q53 19 85.5 43.5t48.5 61t21 73.5t5 97v852q0 59 -5 96t-21 72t-48.5 59t-85.5 43v8h1012v-340h-10q-100 161 -161 210q-60 48 -181 48h-193v-563h201
q88 0 139.5 33t102.5 112h10v-370h-10q-51 79 -102 110t-140 31h-201v-602h174q85 0 138 8q48 8 103 46.5t94 83.5q37 44 126 153h10z" />
    <glyph glyph-name="edotaccent" unicode="&#x117;" horiz-adv-x="1021" 
d="M666 1309q0 -64 -45.5 -109t-110.5 -45q-64 0 -109 44.5t-45 108.5t45 109t109 45t110 -44.5t46 -108.5zM552 1008q-57 0 -98 -43.5t-60.5 -110.5t-27.5 -126t-8 -112l363 33q0 32 -0.5 56.5t-4 64t-10 69t-19 63.5t-30 55.5t-44.5 36t-61 14.5zM535 -25
q-225 -1 -349.5 147.5t-126.5 378.5q0 235 150 401q149 165 346 167q202 0 311 -107t109 -309v-84h-617q0 -196 98 -291q97 -94 250 -96q152 0 273 90l10 -8q-180 -289 -454 -289z" />
    <glyph glyph-name="Eogonek" unicode="&#x118;" horiz-adv-x="1236" 
d="M1114 -338v-8q-66 -82 -140 -82q-66 0 -111.5 36t-45.5 101q0 56 50 116t109 99q64 42 128 76h-1047v8q53 19 85.5 43.5t48.5 61t21 73.5t5 97v852q0 59 -5 96t-21 72t-48.5 59t-85.5 43v8h1012v-340h-10q-100 161 -161 210q-60 48 -181 48h-193v-563h201q88 0 139.5 33
t102.5 112h10v-370h-10q-51 79 -102 110t-140 31h-201v-602h174q85 0 138 8q48 8 103 46.5t94 83.5q37 44 126 153h10l-41 -373q-141 -154 -141 -272q0 -72 90 -72q19 0 37 6z" />
    <glyph glyph-name="eogonek" unicode="&#x119;" horiz-adv-x="1021" 
d="M552 1008q-57 0 -98 -43.5t-60.5 -110.5t-27.5 -126t-8 -112l363 33q0 32 -0.5 56.5t-4 64t-10 69t-19 63.5t-30 55.5t-44.5 36t-61 14.5zM989 -338v-8q-67 -82 -141 -82q-68 0 -112 37t-44 103q0 60 62 167q66 114 120 196q55 83 64 99q-168 -199 -386 -199
q-150 1 -263 71t-171 188.5t-58 267.5q0 233 149 400q149 165 346 167q202 0 311 -107t109 -309v-84h-617q0 -200 100 -303q101 -104 250 -104q151 0 271 90l10 -8q-35 -62 -81 -251t-46 -265q0 -72 90 -72q19 0 37 6z" />
    <glyph glyph-name="Ecaron" unicode="&#x11a;" horiz-adv-x="1236" 
d="M874 1810l-200 -278h-117l-197 278h17l239 -108l242 108h16zM1128 0h-1071v8q53 19 85.5 43.5t48.5 61t21 73.5t5 97v852q0 59 -5 96t-21 72t-48.5 59t-85.5 43v8h1012v-340h-10q-100 161 -161 210q-60 48 -181 48h-193v-563h201q88 0 139.5 33t102.5 112h10v-370h-10
q-51 79 -102 110t-140 31h-201v-602h174q85 0 138 8q48 8 103 46.5t94 83.5q37 44 126 153h10z" />
    <glyph glyph-name="ecaron" unicode="&#x11b;" horiz-adv-x="1021" 
d="M795 1442l-201 -279h-117l-196 279h16l240 -109l241 109h17zM552 1008q-57 0 -98 -43.5t-60.5 -110.5t-27.5 -126t-8 -112l363 33q0 32 -0.5 56.5t-4 64t-10 69t-19 63.5t-30 55.5t-44.5 36t-61 14.5zM535 -25q-225 -1 -349.5 147.5t-126.5 378.5q0 235 150 401
q149 165 346 167q202 0 311 -107t109 -309v-84h-617q0 -196 98 -291q97 -94 250 -96q152 0 273 90l10 -8q-180 -289 -454 -289z" />
    <glyph glyph-name="Gcircumflex" unicode="&#x11c;" horiz-adv-x="1607" 
d="M958 1810l201 -278h-16l-242 108l-239 -108h-17l197 278h116zM1174 100v332q0 104 -32 158.5t-124 89.5v8h565v-8q-80 -34 -103 -79q-22 -43 -22 -167v-368q-316 -93 -579 -95q-162 0 -307 52.5t-252.5 146t-170.5 231.5t-63 300q0 129 43 241.5t120.5 198.5t179 150
t224.5 105q147 48 287 48q113 0 249 -22t230 -60v-320h-8q-197 316 -477 318q-224 0 -372 -174q-148 -173 -148 -475q0 -300 152 -473q80 -91 178 -131.5t224 -40.5q110 2 206 34z" />
    <glyph glyph-name="gcircumflex" unicode="&#x11d;" horiz-adv-x="1064" 
d="M588 1442l200 -279h-16l-242 109l-239 -109h-17l197 279h117zM370 712q0 -296 151 -296t151 296t-151 296t-151 -296zM205 -217q0 -95 84 -159q83 -64 233 -64q148 0 258 74q109 73 109 171q0 68 -55 93q-54 23 -195 28l-270 15q-56 6 -68 8q-96 -70 -96 -166zM1065 -82
q0 -89 -48.5 -165t-119 -124t-157.5 -76q-133 -45 -296 -45q-162 0 -313 69t-149 167q0 158 266 221q-111 46 -111 160q0 77 52 148t126 118q-229 88 -229 314q0 90 36 161t98 114.5t139 66t163 22.5q102 0 205 -45l365 45h10l-29 -149l-223 22q106 -94 106 -244t-125 -246
q-123 -96 -309 -98q-80 0 -166 23q-48 -32 -64 -72q-17 -42 11 -73q28 -30 105 -35l311 -15q57 -3 104 -10.5t93.5 -26.5t78 -47t51 -74t19.5 -106z" />
    <glyph glyph-name="Gbreve" unicode="&#x11e;" horiz-adv-x="1607" 
d="M894 1528q-54 0 -97.5 25.5t-71.5 68.5t-45.5 89.5t-26.5 98.5h9q27 -69 92.5 -106t143.5 -37q73 0 136.5 38.5t89.5 104.5h9q-9 -52 -26 -98.5t-45 -89.5t-71 -68.5t-97 -25.5zM1174 100v332q0 104 -32 158.5t-124 89.5v8h565v-8q-80 -34 -103 -79q-22 -43 -22 -167
v-368q-316 -93 -579 -95q-162 0 -307 52.5t-252.5 146t-170.5 231.5t-63 300q0 129 43 241.5t120.5 198.5t179 150t224.5 105q147 48 287 48q113 0 249 -22t230 -60v-320h-8q-197 316 -477 318q-224 0 -372 -174q-148 -173 -148 -475q0 -300 152 -473q80 -91 178 -131.5
t224 -40.5q110 2 206 34z" />
    <glyph glyph-name="gbreve" unicode="&#x11f;" horiz-adv-x="1064" 
d="M532 1159q-43 0 -80 17.5t-63 45.5t-46 66t-31.5 75.5t-18.5 78.5h8q26 -66 91.5 -105t139.5 -39q76 0 140.5 38.5t91.5 105.5h8q-6 -41 -18 -79t-32 -76t-46 -65.5t-63 -45t-81 -17.5zM370 712q0 -296 151 -296t151 296t-151 296t-151 -296zM205 -217q0 -95 84 -159
q83 -64 233 -64q148 0 258 74q109 73 109 171q0 68 -55 93q-54 23 -195 28l-270 15q-56 6 -68 8q-96 -70 -96 -166zM1065 -82q0 -89 -48.5 -165t-119 -124t-157.5 -76q-133 -45 -296 -45q-162 0 -313 69t-149 167q0 158 266 221q-111 46 -111 160q0 77 52 148t126 118
q-229 88 -229 314q0 90 36 161t98 114.5t139 66t163 22.5q102 0 205 -45l365 45h10l-29 -149l-223 22q106 -94 106 -244t-125 -246q-123 -96 -309 -98q-80 0 -166 23q-48 -32 -64 -72q-17 -42 11 -73q28 -30 105 -35l311 -15q57 -3 104 -10.5t93.5 -26.5t78 -47t51 -74
t19.5 -106z" />
    <glyph glyph-name="Gdotaccent" unicode="&#x120;" horiz-adv-x="1607" 
d="M1053 1677q0 -64 -45.5 -108.5t-109.5 -44.5t-109.5 44.5t-45.5 108.5t44.5 109t108.5 45q65 0 111 -44.5t46 -109.5zM1174 100v332q0 104 -32 158.5t-124 89.5v8h565v-8q-80 -34 -103 -79q-22 -43 -22 -167v-368q-316 -93 -579 -95q-162 0 -307 52.5t-252.5 146
t-170.5 231.5t-63 300q0 129 43 241.5t120.5 198.5t179 150t224.5 105q147 48 287 48q113 0 249 -22t230 -60v-320h-8q-197 316 -477 318q-224 0 -372 -174q-148 -173 -148 -475q0 -300 152 -473q80 -91 178 -131.5t224 -40.5q110 2 206 34z" />
    <glyph glyph-name="gdotaccent" unicode="&#x121;" horiz-adv-x="1064" 
d="M686 1309q0 -64 -45.5 -109t-110.5 -45q-64 0 -108.5 44.5t-44.5 108.5t44.5 109t108.5 45t110 -44.5t46 -108.5zM370 712q0 -296 151 -296t151 296t-151 296t-151 -296zM205 -217q0 -95 84 -159q83 -64 233 -64q148 0 258 74q109 73 109 171q0 68 -55 93q-54 23 -195 28
l-270 15q-56 6 -68 8q-96 -70 -96 -166zM1065 -82q0 -89 -48.5 -165t-119 -124t-157.5 -76q-133 -45 -296 -45q-162 0 -313 69t-149 167q0 158 266 221q-111 46 -111 160q0 77 52 148t126 118q-229 88 -229 314q0 90 36 161t98 114.5t139 66t163 22.5q102 0 205 -45l365 45
h10l-29 -149l-223 22q106 -94 106 -244t-125 -246q-123 -96 -309 -98q-80 0 -166 23q-48 -32 -64 -72q-17 -42 11 -73q28 -30 105 -35l311 -15q57 -3 104 -10.5t93.5 -26.5t78 -47t51 -74t19.5 -106z" />
    <glyph glyph-name="Gcommaaccent" unicode="&#x122;" horiz-adv-x="1607" 
d="M821 -397q1 30 -31 75q-32 44 -32 94q0 52 39 87t91 35q64 0 97 -47t33 -114q0 -44 -27 -92t-71 -89.5t-84.5 -72.5t-83.5 -57l-7 7q76 97 76 174zM1174 100v332q0 104 -32 158.5t-124 89.5v8h565v-8q-80 -34 -103 -79q-22 -43 -22 -167v-368q-316 -93 -579 -95
q-162 0 -307 52.5t-252.5 146t-170.5 231.5t-63 300q0 129 43 241.5t120.5 198.5t179 150t224.5 105q147 48 287 48q113 0 249 -22t230 -60v-320h-8q-197 316 -477 318q-224 0 -372 -174q-148 -173 -148 -475q0 -300 152 -473q80 -91 178 -131.5t224 -40.5q110 2 206 34z
" />
    <glyph glyph-name="gcommaaccent" unicode="&#x123;" horiz-adv-x="1064" 
d="M592 1440q0 -30 32 -76t32 -93q0 -51 -39.5 -86.5t-91.5 -35.5q-64 0 -97 47t-33 114q0 44 27 91.5t71.5 89t85.5 73t83 56.5l6 -6q-76 -97 -76 -174zM370 712q0 -296 151 -296t151 296t-151 296t-151 -296zM205 -217q0 -95 84 -159q83 -64 233 -64q148 0 258 74
q109 73 109 171q0 68 -55 93q-54 23 -195 28l-270 15q-56 6 -68 8q-96 -70 -96 -166zM1065 -82q0 -89 -48.5 -165t-119 -124t-157.5 -76q-133 -45 -296 -45q-162 0 -313 69t-149 167q0 158 266 221q-111 46 -111 160q0 77 52 148t126 118q-229 88 -229 314q0 90 36 161
t98 114.5t139 66t163 22.5q102 0 205 -45l365 45h10l-29 -149l-223 22q106 -94 106 -244t-125 -246q-123 -96 -309 -98q-80 0 -166 23q-48 -32 -64 -72q-17 -42 11 -73q28 -30 105 -35l311 -15q57 -3 104 -10.5t93.5 -26.5t78 -47t51 -74t19.5 -106z" />
    <glyph glyph-name="Hcircumflex" unicode="&#x124;" horiz-adv-x="1679" 
d="M895 1810l201 -278h-17l-241 108l-240 -108h-16l196 278h117zM1626 8v-8h-627v8q53 19 85.5 43.5t48.5 61t21 73.5t5 97v395h-635v-395q0 -119 30 -178.5t130 -96.5v-8h-627v8q53 19 85.5 43.5t48.5 61t21 73.5t5 97v852q0 59 -5 96t-21 72t-48.5 59t-85.5 43v8h627v-8
q-53 -19 -85.5 -43t-48.5 -59t-21 -72t-5 -96v-365h635v365q0 59 -5 96t-21 72t-48.5 59t-85.5 43v8h627v-8q-53 -19 -85.5 -43t-48.5 -59t-21 -72t-5 -96v-852q0 -119 30 -178.5t130 -96.5z" />
    <glyph glyph-name="hcircumflex" unicode="&#x125;" horiz-adv-x="1298" 
d="M379 1825l201 -279h-17l-241 109l-240 -109h-16l196 279h117zM1257 8v-8h-548v8q79 34 105 91t26 180v448q0 89 -48 143t-136 54q-83 0 -175 -47v-598q0 -122 26 -179q26 -56 105 -92v-8h-557v8q80 35 106 91q26 58 25 180v886q0 137 -27 189q-29 51 -126 90v8
q212 17 440 92h8v-633q187 158 346 158q131 0 215 -87t84 -269v-434q0 -122 26 -179q26 -56 105 -92z" />
    <glyph glyph-name="Hbar" unicode="&#x126;" horiz-adv-x="1679" 
d="M524 770h635v254h-635v-254zM1626 8v-8h-627v8q53 19 85.5 43.5t48.5 61t21 73.5t5 97v395h-635v-395q0 -119 30 -178.5t130 -96.5v-8h-627v8q53 19 85.5 43.5t48.5 61t21 73.5t5 97v741h-125v90h125v21q0 59 -5 96t-21 72t-48.5 59t-85.5 43v8h627v-8q-53 -19 -85.5 -43
t-48.5 -59t-21 -72t-5 -96v-21h635v21q0 59 -5 96t-21 72t-48.5 59t-85.5 43v8h627v-8q-53 -19 -85.5 -43t-48.5 -59t-21 -72t-5 -96v-21h121v-90h-121v-741q0 -119 30 -178.5t130 -96.5z" />
    <glyph glyph-name="hbar" unicode="&#x127;" horiz-adv-x="1298" 
d="M1257 8v-8h-548v8q79 34 105 91t26 180v448q0 89 -48 143t-136 54q-83 0 -175 -47v-598q0 -122 26 -179q26 -56 105 -92v-8h-557v8q80 35 106 91q26 58 25 180v903h-120v88h116q-8 73 -41.5 109t-107.5 65v8q212 17 440 92h8v-274h301v-88h-301v-271q187 158 346 158
q131 0 215 -87t84 -269v-434q0 -122 26 -179q26 -56 105 -92z" />
    <glyph glyph-name="Itilde" unicode="&#x128;" horiz-adv-x="741" 
d="M203 1616q-78 0 -129 -72l-11 4q14 48 37 95t65 89t88 42q54 0 147 -30t137 -30q78 0 129 72l10 -4q-9 -34 -25.5 -70t-40 -73.5t-56.5 -61t-68 -23.5q-57 0 -153 31t-130 31zM684 8v-8h-627v8q53 19 85.5 43t48.5 59t21 72t5 97v856q0 59 -5 96t-21 72t-48.5 59
t-85.5 43v8h627v-8q-53 -19 -85.5 -43t-48.5 -59t-21 -72t-5 -96v-856q0 -118 29.5 -176t130.5 -95z" />
    <glyph glyph-name="itilde" unicode="&#x129;" horiz-adv-x="653" 
d="M442 1186q-58 0 -152 31q-95 30 -128 30q-79 0 -131 -71l-11 4q10 35 26 70.5t39.5 71.5t56 59t68.5 24q54 0 147 -30q93 -29 139 -29q77 0 127 71l10 -4q-10 -34 -26 -70t-39.5 -73t-56.5 -60.5t-69 -23.5zM612 8v-8h-549v8q80 35 106 91q26 57 26 180v411
q0 136 -28 188t-126 91v8q184 12 432 92h8v-790q0 -122 26 -179q26 -56 105 -92z" />
    <glyph glyph-name="Imacron" unicode="&#x12a;" horiz-adv-x="741" 
d="M627 1720v-108h-512v108h512zM684 8v-8h-627v8q53 19 85.5 43t48.5 59t21 72t5 97v856q0 59 -5 96t-21 72t-48.5 59t-85.5 43v8h627v-8q-53 -19 -85.5 -43t-48.5 -59t-21 -72t-5 -96v-856q0 -118 29.5 -176t130.5 -95z" />
    <glyph glyph-name="imacron" unicode="&#x12b;" horiz-adv-x="653" 
d="M582 1352v-109h-512v109h512zM612 8v-8h-549v8q80 35 106 91q26 57 26 180v411q0 136 -28 188t-126 91v8q184 12 432 92h8v-790q0 -122 26 -179q26 -56 105 -92z" />
    <glyph glyph-name="Ibreve" unicode="&#x12c;" horiz-adv-x="741" 
d="M371 1528q-54 0 -97.5 25.5t-71 68.5t-45 89.5t-26.5 98.5h8q27 -69 93 -106t144 -37q73 0 136.5 38.5t89.5 104.5h8q-8 -52 -25 -99t-45 -89.5t-71.5 -68t-97.5 -25.5zM684 8v-8h-627v8q53 19 85.5 43t48.5 59t21 72t5 97v856q0 59 -5 96t-21 72t-48.5 59t-85.5 43v8
h627v-8q-53 -19 -85.5 -43t-48.5 -59t-21 -72t-5 -96v-856q0 -118 29.5 -176t130.5 -95z" />
    <glyph glyph-name="ibreve" unicode="&#x12d;" horiz-adv-x="653" 
d="M326 1159q-54 0 -97.5 25.5t-71.5 69t-45 90t-26 98.5h8q27 -67 91.5 -105.5t140.5 -38.5q75 0 140 38.5t91 105.5h8q-7 -41 -18.5 -78.5t-31.5 -75.5t-46 -66t-63 -45.5t-80 -17.5zM612 8v-8h-549v8q80 35 106 91q26 57 26 180v411q0 136 -28 188t-126 91v8
q184 12 432 92h8v-790q0 -122 26 -179q26 -56 105 -92z" />
    <glyph glyph-name="Iogonek" unicode="&#x12e;" horiz-adv-x="741" 
d="M655 -338v-8q-67 -82 -141 -82q-66 0 -111 36t-45 101q0 55 50 115t109 100q64 42 128 76h-588v8q53 19 85.5 43t48.5 59t21 72t5 97v856q0 59 -5 96t-21 72t-48.5 59t-85.5 43v8h627v-8q-53 -19 -85.5 -43t-48.5 -59t-21 -72t-5 -96v-856q0 -118 29.5 -176t130.5 -95v-8
q-156 -141 -156 -272q0 -72 90 -72q19 0 37 6z" />
    <glyph glyph-name="iogonek" unicode="&#x12f;" horiz-adv-x="653" 
d="M487 1309q0 -64 -45.5 -109t-109.5 -45t-109 44.5t-45 108.5t45 109t109 45t109.5 -44.5t45.5 -108.5zM582 -338v-8q-66 -82 -141 -82q-67 0 -111 36t-45 101q0 55 50 116t108 99q64 42 128 76h-508v8q80 35 106 91q26 57 26 180v411q0 136 -28 188t-126 91v8
q184 12 432 92h8v-790q0 -122 26 -179q26 -56 105 -92v-8q-158 -140 -157 -272q0 -72 90 -72q19 0 37 6z" />
    <glyph glyph-name="Idotaccent" unicode="&#x130;" horiz-adv-x="741" 
d="M524 1677q0 -63 -46 -108t-109 -45q-64 0 -109 44.5t-45 108.5q0 66 45 110t111 44q63 0 108 -45.5t45 -108.5zM684 8v-8h-627v8q53 19 85.5 43t48.5 59t21 72t5 97v856q0 59 -5 96t-21 72t-48.5 59t-85.5 43v8h627v-8q-53 -19 -85.5 -43t-48.5 -59t-21 -72t-5 -96v-856
q0 -118 29.5 -176t130.5 -95z" />
    <glyph glyph-name="dotlessi" unicode="&#x131;" horiz-adv-x="653" 
d="M612 8v-8h-549v8q80 35 106 91q26 57 26 180v411q0 136 -28 188t-126 91v8q184 12 432 92h8v-790q0 -122 26 -179q26 -56 105 -92z" />
    <glyph glyph-name="IJ" unicode="&#x132;" horiz-adv-x="1482" 
d="M958 -12v1147q0 47 -3 78t-12 63t-26.5 53.5t-46.5 41t-71 34.5v8h626v-8q-97 -34 -129 -91q-32 -56 -30 -179v-1026q0 -99 -41 -186t-113.5 -152.5t-151.5 -112.5t-174 -86l-4 6q176 107 176 410zM684 8v-8h-627v8q53 19 85.5 43t48.5 59t21 72t5 97v856q0 59 -5 96
t-21 72t-48.5 59t-85.5 43v8h627v-8q-53 -19 -85.5 -43t-48.5 -59t-21 -72t-5 -96v-856q0 -118 29.5 -176t130.5 -95z" />
    <glyph glyph-name="ij" unicode="&#x133;" horiz-adv-x="1294" 
d="M842 -55v745q0 136 -28 188t-126 91v8q191 13 438 92h9v-1001q0 -89 -32 -178t-89 -155q-117 -139 -336 -227l-6 13q61 37 101 114.5t54.5 154.5t14.5 155zM1141 1309q0 -64 -45.5 -109t-109.5 -45t-109 44.5t-45 108.5q0 65 44.5 109.5t108.5 44.5t109 -44.5t47 -108.5z
M612 8v-8h-549v8q80 35 106 91q26 57 26 180v411q0 136 -28 188t-126 91v8q184 12 432 92h8v-790q0 -122 26 -179q26 -56 105 -92zM487 1309q0 -64 -45.5 -109t-109.5 -45t-109 44.5t-45 108.5t45 109t109 45t109.5 -44.5t45.5 -108.5z" />
    <glyph glyph-name="Jcircumflex" unicode="&#x134;" horiz-adv-x="741" 
d="M426 1810l201 -278h-17l-241 108l-240 -108h-16l196 278h117zM217 -12v1147q0 59 -5 96t-21 72t-48.5 59t-85.5 43v8h627v-8q-53 -19 -85.5 -43t-48.5 -59t-21 -72t-5 -96v-1026q0 -80 -28.5 -153t-73.5 -128.5t-109.5 -105t-128.5 -84.5t-139 -66l-4 6q176 107 176 410z
" />
    <glyph glyph-name="jcircumflex" unicode="&#x135;" horiz-adv-x="641" 
d="M377 1442l201 -279h-17l-242 109l-239 -109h-17l197 279h117zM188 -55v745q0 136 -27 189q-29 51 -126 90v8q191 13 438 92h8v-1001q0 -89 -32 -178t-89 -155q-120 -142 -335 -227l-7 13q61 37 101 114.5t54.5 154.5t14.5 155z" />
    <glyph glyph-name="Kcommaaccent" unicode="&#x136;" horiz-adv-x="1544" 
d="M711 -397q0 31 -32 75t-32 94q0 52 39 87t91 35q64 0 97 -47t33 -114q-1 -45 -28 -92.5t-70 -89t-84.5 -72.5t-83.5 -57l-6 7q76 97 76 174zM1579 8v-8h-670v8q56 18 84 38q27 20 27 70q0 51 -98 206l-234 366l-164 -174v-235q0 -118 29.5 -176t130.5 -95v-8h-627v8
q53 19 85.5 43t48.5 59t21 72t5 97v856q0 59 -5 96t-21 72t-48.5 59t-85.5 43v8h627v-8q-53 -19 -85.5 -43t-48.5 -59t-21 -72t-5 -96v-510l389 440q113 128 113 213q0 87 -135 127v8h612v-8q-75 -27 -132.5 -57.5t-115 -78.5t-92 -82t-106.5 -110l-170 -182l389 -592
q38 -58 63.5 -93t63.5 -77.5t81 -72.5t95 -52z" />
    <glyph glyph-name="kcommaaccent" unicode="&#x137;" horiz-adv-x="1234" 
d="M542 -322q-32 47 -32 94q0 52 39 87t91 35q64 0 97 -47t33 -114q0 -44 -27 -92t-71 -89.5t-84.5 -72.5t-83.5 -57l-6 7q76 97 75 174q1 30 -31 75zM1288 8v-8h-203q-177 0 -230 31q-54 32 -142 188l-193 342l189 187q92 92 92 149q0 83 -150 133v14h629v-10
q-101 -27 -181 -80t-169 -139l-160 -156l279 -428q102 -156 169 -192q30 -16 70 -31zM602 8v-8h-557v8q80 35 106 91q26 58 25 180v886q0 137 -28 189q-29 53 -125 90v8q195 13 440 92h8v-1265q0 -122 26 -179q26 -56 105 -92z" />
    <glyph glyph-name="kgreenlandic" unicode="&#x138;" horiz-adv-x="1267" 
d="M1288 8v-8h-203q-177 0 -230 31q-54 32 -142 188l-193 342l189 187q92 92 92 149q0 83 -150 133v14h629v-10q-101 -27 -181 -80t-169 -139l-160 -156l279 -428q102 -156 169 -192q30 -16 70 -31zM602 8v-8h-551v8q80 35 106 91q26 58 25 180v411q0 136 -27 189
q-29 51 -126 90v8q186 12 434 92h8v-790q0 -122 26 -179q26 -56 105 -92z" />
    <glyph glyph-name="Lacute" unicode="&#x139;" horiz-adv-x="1169" 
d="M207 1554l-10 2q52 42 113 116t93 134l226 -24q-130 -175 -422 -228zM1098 0h-1041v8q53 19 85.5 43t48.5 59t21 72t5 97v856q0 59 -5 96t-21 72t-48.5 59t-85.5 43v8h627v-8q-53 -19 -85.5 -43t-48.5 -59t-21 -72t-5 -96v-1053h162q146 0 217 46q74 47 225 245h11z" />
    <glyph glyph-name="lacute" unicode="&#x13a;" horiz-adv-x="624" 
d="M106 1548l-10 2q53 43 114 116.5t93 133.5l225 -24q-130 -175 -422 -228zM602 8v-8h-557v8q80 35 106 91q26 58 25 180v886q0 137 -28 189q-29 53 -125 90v8q195 13 440 92h8v-1265q0 -122 26 -179q26 -56 105 -92z" />
    <glyph glyph-name="Lcommaaccent" unicode="&#x13b;" horiz-adv-x="1169" 
d="M461 -228q0 52 39 87t91 35q64 0 97 -47t33 -114q-1 -45 -28 -92.5t-70 -89t-84.5 -72.5t-83.5 -57l-6 7q77 97 75 174q0 31 -32 75q-32 48 -31 94zM1098 0h-1041v8q53 19 85.5 43t48.5 59t21 72t5 97v856q0 59 -5 96t-21 72t-48.5 59t-85.5 43v8h627v-8
q-53 -19 -85.5 -43t-48.5 -59t-21 -72t-5 -96v-1053h162q146 0 217 46q74 47 225 245h11z" />
    <glyph glyph-name="lcommaaccent" unicode="&#x13c;" horiz-adv-x="624" 
d="M252 -397q0 31 -32 75t-32 94q0 52 39 87t91 35q56 0 94 -42q38 -43 37 -119q0 -44 -27 -92t-71.5 -89.5t-85.5 -73t-83 -56.5l-6 7q76 97 76 174zM602 8v-8h-557v8q80 35 106 91q26 58 25 180v886q0 137 -28 189q-29 53 -125 90v8q195 13 440 92h8v-1265q0 -122 26 -179
q26 -56 105 -92z" />
    <glyph glyph-name="Lcaron" unicode="&#x13d;" horiz-adv-x="1169" 
d="M855 1444q45 0 79.5 -33t34.5 -78q1 -38 -49 -165q-50 -125 -54 -214h-20q-5 92 -53 214q-49 123 -49 165q0 45 33 78t78 33zM1098 0h-1041v8q53 19 85.5 43t48.5 59t21 72t5 97v856q0 59 -5 96t-21 72t-48.5 59t-85.5 43v8h627v-8q-53 -19 -85.5 -43t-48.5 -59t-21 -72
t-5 -96v-1053h162q146 0 217 46q74 47 225 245h11z" />
    <glyph glyph-name="lcaron" unicode="&#x13e;" horiz-adv-x="800" 
d="M687 1544q45 0 79.5 -33t34.5 -78q1 -38 -49 -165q-50 -124 -54 -213h-20q-5 92 -53 214q-49 123 -49 165q0 45 33 77.5t78 32.5zM602 8v-8h-557v8q80 35 106 91q26 58 25 180v886q0 137 -28 189q-29 53 -125 90v8q195 13 440 92h8v-1265q0 -122 26 -179q26 -56 105 -92z
" />
    <glyph glyph-name="Ldot" unicode="&#x13f;" horiz-adv-x="1169" 
d="M961 727q1 -69 -49 -119q-49 -49 -122 -49q-71 0 -120 48.5t-49 119.5q0 72 49 120t121 48t121 -48t49 -120zM1098 0h-1041v8q53 19 85.5 43t48.5 59t21 72t5 97v856q0 59 -5 96t-21 72t-48.5 59t-85.5 43v8h627v-8q-53 -19 -85.5 -43t-48.5 -59t-21 -72t-5 -96v-1053
h162q146 0 217 46q74 47 225 245h11z" />
    <glyph glyph-name="ldot" unicode="&#x140;" horiz-adv-x="831" 
d="M905 731q0 -72 -49 -120t-121 -48t-121 48t-49 120t49 120t121 48t121 -48t49 -120zM602 8v-8h-557v8q80 35 106 91q26 58 25 180v886q0 137 -28 189q-29 53 -125 90v8q195 13 440 92h8v-1265q0 -122 26 -179q26 -56 105 -92z" />
    <glyph glyph-name="Lslash" unicode="&#x141;" horiz-adv-x="1169" 
d="M1098 0h-1041v8q53 19 85.5 43t48.5 59t21 72t5 97v272l-145 -43v100l145 43v484q0 59 -5 96t-21 72t-48.5 59t-85.5 43v8h627v-8q-53 -19 -85.5 -43t-48.5 -59t-21 -72t-5 -96v-394l244 72v-100l-244 -72v-559h162q146 0 217 46q74 47 225 245h11z" />
    <glyph glyph-name="lslash" unicode="&#x142;" horiz-adv-x="624" 
d="M602 8v-8h-557v8q80 35 106 91q26 58 25 180v514l-129 -48v113l129 47v260q0 137 -28 189q-29 53 -125 90v8q195 13 440 92h8v-530l129 49v-113l-129 -49v-622q0 -122 26 -179q26 -56 105 -92z" />
    <glyph glyph-name="Nacute" unicode="&#x143;" horiz-adv-x="1677" 
d="M633 1554l-10 2q52 42 113 116t93 134l226 -24q-130 -175 -422 -228zM1456 958v-968h-133l-987 1175v-706q0 -304 70 -383q35 -41 104 -68v-8h-463v8q71 27 105 67q69 79 69 384v710q0 171 -194 236v8h465l849 -991v536q0 237 -35 322q-36 85 -139 125v8h463v-8
q-71 -28 -106 -68q-66 -77 -68 -379z" />
    <glyph glyph-name="nacute" unicode="&#x144;" horiz-adv-x="1312" 
d="M451 1186l-11 2q51 40 113.5 115.5t93.5 134.5l225 -25q-131 -175 -421 -227zM1272 8v-8h-549v8q79 34 105 91t26 180v448q0 89 -54.5 143t-143.5 54q-83 0 -175 -47v-598q0 -122 26 -179q26 -56 105 -92v-8h-549v8q80 35 106 91q26 57 26 180v411q0 136 -28 188t-126 91
v8q179 12 428 92h8v-166q67 67 167.5 115t189.5 49q136 0 221 -85q86 -86 86 -269v-434q0 -124 25 -180q26 -56 106 -91z" />
    <glyph glyph-name="Ncommaaccent" unicode="&#x145;" horiz-adv-x="1677" 
d="M778 -397q0 31 -32 75t-32 94q0 51 39.5 86.5t91.5 35.5q64 0 97 -47t33 -114q-1 -45 -28 -92.5t-70 -89t-84.5 -72.5t-83.5 -57l-7 7q76 97 76 174zM1456 958v-968h-133l-987 1175v-706q0 -304 70 -383q35 -41 104 -68v-8h-463v8q71 27 105 67q69 79 69 384v710
q0 171 -194 236v8h465l849 -991v536q0 237 -35 322q-36 85 -139 125v8h463v-8q-71 -28 -106 -68q-66 -77 -68 -379z" />
    <glyph glyph-name="ncommaaccent" unicode="&#x146;" horiz-adv-x="1312" 
d="M596 -397q0 31 -32 75t-32 94q0 52 39 87t91 35q56 0 94 -42q38 -43 37 -119q0 -44 -27 -92t-71.5 -89.5t-85.5 -73t-83 -56.5l-6 7q76 97 76 174zM1272 8v-8h-549v8q79 34 105 91t26 180v448q0 89 -54.5 143t-143.5 54q-83 0 -175 -47v-598q0 -122 26 -179
q26 -56 105 -92v-8h-549v8q80 35 106 91q26 57 26 180v411q0 136 -28 188t-126 91v8q179 12 428 92h8v-166q67 67 167.5 115t189.5 49q136 0 221 -85q86 -86 86 -269v-434q0 -124 25 -180q26 -56 106 -91z" />
    <glyph glyph-name="Ncaron" unicode="&#x147;" horiz-adv-x="1677" 
d="M1096 1810l-201 -278h-117l-196 278h16l240 -108l241 108h17zM1456 958v-968h-133l-987 1175v-706q0 -304 70 -383q35 -41 104 -68v-8h-463v8q71 27 105 67q69 79 69 384v710q0 171 -194 236v8h465l849 -991v536q0 237 -35 322q-36 85 -139 125v8h463v-8
q-71 -28 -106 -68q-66 -77 -68 -379z" />
    <glyph glyph-name="ncaron" unicode="&#x148;" horiz-adv-x="1312" 
d="M913 1442l-200 -279h-117l-197 279h17l239 -109l242 109h16zM1272 8v-8h-549v8q79 34 105 91t26 180v448q0 89 -54.5 143t-143.5 54q-83 0 -175 -47v-598q0 -122 26 -179q26 -56 105 -92v-8h-549v8q80 35 106 91q26 57 26 180v411q0 136 -28 188t-126 91v8q179 12 428 92
h8v-166q67 67 167.5 115t189.5 49q136 0 221 -85q86 -86 86 -269v-434q0 -124 25 -180q26 -56 106 -91z" />
    <glyph glyph-name="napostrophe" unicode="&#x149;" horiz-adv-x="1312" 
d="M239 1329q-32 47 -32 95q0 52 39 87t91 35q64 0 97 -46.5t33 -113.5q0 -44 -27 -93t-70 -92t-85.5 -76.5t-83.5 -57.5l-6 6q77 98 75 178q0 32 -31 78zM1272 8v-8h-549v8q79 34 105 91t26 180v448q0 89 -54.5 143t-143.5 54q-83 0 -175 -47v-598q0 -122 26 -179
q26 -56 105 -92v-8h-549v8q80 35 106 91q26 57 26 180v411q0 136 -28 188t-126 91v8q179 12 428 92h8v-166q67 67 167.5 115t189.5 49q136 0 221 -85q86 -86 86 -269v-434q0 -124 25 -180q26 -56 106 -91z" />
    <glyph glyph-name="Eng" unicode="&#x14a;" horiz-adv-x="1677" 
d="M1341 -55v22l-1005 1198v-706q0 -304 70 -383q35 -41 104 -68v-8h-463v8q71 27 105 67q69 79 69 384v710q0 171 -194 236v8h465l849 -991v536q0 237 -35 322q-36 85 -139 125v8h463v-8q-71 -28 -106 -68q-66 -77 -68 -379v-919q0 -251 -113 -391q-112 -138 -284 -140
q-57 0 -102.5 27t-45.5 81q0 44 21 79q87 -41 186 -41q72 0 124.5 46t75.5 110.5t23 134.5z" />
    <glyph glyph-name="eng" unicode="&#x14b;" horiz-adv-x="1312" 
d="M854 -55v782q0 89 -54.5 143t-143.5 54q-83 0 -175 -47v-598q0 -122 26 -179q26 -56 105 -92v-8h-549v8q80 35 106 91q26 57 26 180v411q0 136 -28 188t-126 91v8q179 12 428 92h8v-166q67 67 167.5 115t189.5 49q136 0 224 -85q89 -86 89 -269v-645q0 -89 -32 -178
t-89 -155q-117 -139 -336 -227l-6 13q61 37 101 114.5t54.5 154.5t14.5 155z" />
    <glyph glyph-name="Omacron" unicode="&#x14c;" horiz-adv-x="1775" 
d="M1143 1720v-108h-512v108h512zM1690 705q0 -163 -72 -305q-70 -139 -192 -237.5t-266.5 -145.5t-302.5 -47q-172 0 -353 86q-181 87 -299 258q-119 172 -119 391q0 160 72 301q106 208 310 322t444 114q169 0 352 -89q182 -89 304 -262t122 -386zM544 238
q130 -183 343 -185t344 185t131 470q0 284 -129 468t-346 184q-218 0 -345 -184q-128 -185 -128 -469q0 -285 130 -469z" />
    <glyph glyph-name="omacron" unicode="&#x14d;" horiz-adv-x="1247" 
d="M879 1352v-109h-512v109h512zM623 37q63 0 110.5 36.5t73.5 89t42 123.5t20.5 127.5t4.5 113.5q0 54 -5.5 110.5t-22.5 125.5t-43 121.5t-73 88t-108 35.5q-121 0 -185 -136q-65 -139 -64 -350q0 -281 103 -411q59 -74 147 -74zM227 134q-166 157 -166 392q0 234 168 388
q168 153 395 155q227 -2 394 -155q168 -154 168 -388t-167 -392q-167 -159 -396 -159t-396 159z" />
    <glyph glyph-name="Obreve" unicode="&#x14e;" horiz-adv-x="1775" 
d="M888 1528q-54 0 -97.5 25.5t-71.5 68.5t-45.5 89.5t-26.5 98.5h8q27 -69 93 -106t144 -37q73 0 136.5 38.5t89.5 104.5h8q-8 -51 -25 -98t-45 -90t-71.5 -68.5t-96.5 -25.5zM1690 705q0 -163 -72 -305q-70 -139 -192 -237.5t-266.5 -145.5t-302.5 -47q-172 0 -353 86
q-181 87 -299 258q-119 172 -119 391q0 160 72 301q106 208 310 322t444 114q169 0 352 -89q182 -89 304 -262t122 -386zM544 238q130 -183 343 -185t344 185t131 470q0 284 -129 468t-346 184q-218 0 -345 -184q-128 -185 -128 -469q0 -285 130 -469z" />
    <glyph glyph-name="obreve" unicode="&#x14f;" horiz-adv-x="1247" 
d="M623 1159q-54 0 -97.5 25.5t-71.5 69t-45 90t-26 98.5h8q26 -67 91.5 -105.5t140.5 -38.5t140 38.5t91 105.5h8q-8 -52 -25 -99t-45 -90t-71.5 -68.5t-97.5 -25.5zM623 37q63 0 110.5 36.5t73.5 89t42 123.5t20.5 127.5t4.5 113.5q0 54 -5.5 110.5t-22.5 125.5t-43 121.5
t-73 88t-108 35.5q-121 0 -185 -136q-65 -139 -64 -350q0 -281 103 -411q59 -74 147 -74zM227 134q-166 157 -166 392q0 234 168 388q168 153 395 155q227 -2 394 -155q168 -154 168 -388t-167 -392q-167 -159 -396 -159t-396 159z" />
    <glyph glyph-name="Ohungarumlaut" unicode="&#x150;" horiz-adv-x="1775" 
d="M903 1532h-18q61 138 67 250h183q-73 -153 -232 -250zM659 1532h-18q60 137 68 250h182q-73 -153 -232 -250zM1690 705q0 -163 -72 -305q-70 -139 -192 -237.5t-266.5 -145.5t-302.5 -47q-172 0 -353 86q-181 87 -299 258q-119 172 -119 391q0 160 72 301
q106 208 310 322t444 114q169 0 352 -89q182 -89 304 -262t122 -386zM544 238q130 -183 343 -185t344 185t131 470q0 284 -129 468t-346 184q-218 0 -345 -184q-128 -185 -128 -469q0 -285 130 -469z" />
    <glyph glyph-name="ohungarumlaut" unicode="&#x151;" horiz-adv-x="1247" 
d="M639 1163h-18q61 138 67 250h182q-71 -153 -231 -250zM395 1163h-18q61 138 67 250h183q-73 -153 -232 -250zM623 37q63 0 110.5 36.5t73.5 89t42 123.5t20.5 127.5t4.5 113.5q0 54 -5.5 110.5t-22.5 125.5t-43 121.5t-73 88t-108 35.5q-121 0 -185 -136
q-65 -139 -64 -350q0 -281 103 -411q59 -74 147 -74zM227 134q-166 157 -166 392q0 234 168 388q168 153 395 155q227 -2 394 -155q168 -154 168 -388t-167 -392q-167 -159 -396 -159t-396 159z" />
    <glyph glyph-name="OE" unicode="&#x152;" horiz-adv-x="2377" 
d="M544 238q130 -183 343 -185t344 185t131 470q0 284 -129 468t-346 184q-218 0 -345 -184q-128 -185 -128 -469q0 -285 130 -469zM2269 0h-911v184q-176 -215 -471 -215q-157 0 -303 54.5t-256 149.5t-176 234t-66 298q0 160 72 301q136 267 442 383q144 53 287 53
q291 0 471 -217v188h852v-340h-10q-101 163 -160 210q-60 48 -182 48h-193v-563h201q88 0 138.5 32.5t102.5 112.5h11v-370h-11q-51 78 -102 109.5t-139 31.5h-201v-602h174q84 0 137 8q48 8 104 47t94 83t126 153h10z" />
    <glyph glyph-name="oe" unicode="&#x153;" horiz-adv-x="1820" 
d="M1351 1008q-45 0 -81 -30t-56.5 -74t-33.5 -100.5t-18 -102t-5 -85.5l363 33q0 32 -0.5 56.5t-4 64t-10 69t-19 63.5t-30 55.5t-44.5 36t-61 14.5zM623 37q63 0 110.5 36.5t73.5 89t42 123.5t20.5 127.5t4.5 113.5q0 54 -5.5 110.5t-22.5 125.5t-43 121.5t-73 88
t-108 35.5q-121 0 -185 -136q-65 -139 -64 -350q0 -281 103 -411q59 -74 147 -74zM1354 -25q-238 0 -369 170q-143 -170 -367 -170t-391 159q-166 157 -166 392q0 234 168 388q165 153 397 155q230 0 375 -186q143 186 361 186q187 0 300 -104q112 -103 112 -312v-84h-617
q0 -199 99 -303t250 -104q150 0 272 90l10 -8q-64 -101 -176 -184q-117 -86 -258 -85z" />
    <glyph glyph-name="Racute" unicode="&#x154;" horiz-adv-x="1398" 
d="M494 1554l-11 2q53 43 114 116.5t93 133.5l225 -24q-131 -176 -421 -228zM524 1341v-647h76q141 0 242 80q100 79 100 236q0 156 -78 244q-78 87 -192 87h-148zM1458 8v-8h-186q-148 0 -206 12q-57 12 -97 47q-39 35 -101 140l-258 430h-86v-346q0 -119 30 -178.5
t130 -96.5v-8h-627v8q53 19 85.5 43.5t48.5 61t21 73.5t5 97v852q0 59 -5 96t-21 72t-48.5 59t-85.5 43v8h613q291 0 436.5 -94t144.5 -281q2 -143 -109 -232q-111 -90 -259 -124l340 -471q84 -115 124 -151q40 -35 111 -52z" />
    <glyph glyph-name="racute" unicode="&#x155;" horiz-adv-x="847" 
d="M217 1186l-10 2q52 40 112 114t95 136l225 -25q-131 -174 -422 -227zM689 1069q65 0 111 -46t46 -111q0 -66 -45 -110t-111 -44t-110 44t-43 110q0 65 43.5 111t108.5 46zM629 8v-8h-576v8q80 35 106 91q26 58 25 180v411q0 136 -27 189q-29 51 -126 90v8q184 12 432 92
h8v-790q0 -118 29 -176t129 -95z" />
    <glyph glyph-name="Rcommaaccent" unicode="&#x156;" horiz-adv-x="1398" 
d="M639 -397q0 31 -32 75t-32 94q0 52 39 87t91 35q64 0 97.5 -47t33.5 -114q0 -44 -27 -92t-71.5 -89.5t-85.5 -73t-83 -56.5l-6 7q76 97 76 174zM524 1341v-647h76q141 0 242 80q100 79 100 236q0 156 -78 244q-78 87 -192 87h-148zM1458 8v-8h-186q-148 0 -206 12
q-57 12 -97 47q-39 35 -101 140l-258 430h-86v-346q0 -119 30 -178.5t130 -96.5v-8h-627v8q53 19 85.5 43.5t48.5 61t21 73.5t5 97v852q0 59 -5 96t-21 72t-48.5 59t-85.5 43v8h613q291 0 436.5 -94t144.5 -281q2 -143 -109 -232q-111 -90 -259 -124l340 -471
q84 -115 124 -151q40 -35 111 -52z" />
    <glyph glyph-name="rcommaaccent" unicode="&#x157;" horiz-adv-x="847" 
d="M266 -397q0 31 -32 75t-32 94q0 51 39.5 86.5t91.5 35.5q64 0 97 -47t33 -114q-1 -45 -28 -92.5t-70 -89t-84.5 -72.5t-83.5 -57l-7 7q76 97 76 174zM689 1069q65 0 111 -46t46 -111q0 -66 -45 -110t-111 -44t-110 44t-43 110q0 65 43.5 111t108.5 46zM629 8v-8h-576v8
q80 35 106 91q26 58 25 180v411q0 136 -27 189q-29 51 -126 90v8q184 12 432 92h8v-790q0 -118 29 -176t129 -95z" />
    <glyph glyph-name="Rcaron" unicode="&#x158;" horiz-adv-x="1398" 
d="M956 1810l-200 -278h-117l-197 278h17l239 -108l242 108h16zM524 1341v-647h76q141 0 242 80q100 79 100 236q0 156 -78 244q-78 87 -192 87h-148zM1458 8v-8h-186q-148 0 -206 12q-57 12 -97 47q-39 35 -101 140l-258 430h-86v-346q0 -119 30 -178.5t130 -96.5v-8h-627
v8q53 19 85.5 43.5t48.5 61t21 73.5t5 97v852q0 59 -5 96t-21 72t-48.5 59t-85.5 43v8h613q291 0 436.5 -94t144.5 -281q2 -143 -109 -232q-111 -90 -259 -124l340 -471q84 -115 124 -151q40 -35 111 -52z" />
    <glyph glyph-name="rcaron" unicode="&#x159;" horiz-adv-x="847" 
d="M680 1442l-201 -279h-117l-196 279h16l240 -109l242 109h16zM689 1069q65 0 111 -46t46 -111q0 -66 -45 -110t-111 -44t-110 44t-43 110q0 65 43.5 111t108.5 46zM629 8v-8h-576v8q80 35 106 91q26 58 25 180v411q0 136 -27 189q-29 51 -126 90v8q184 12 432 92h8v-790
q0 -118 29 -176t129 -95z" />
    <glyph glyph-name="Sacute" unicode="&#x15a;" horiz-adv-x="1112" 
d="M350 1554l-10 2q53 43 114 116.5t93 133.5l225 -24q-130 -175 -422 -228zM111 59v371h8q201 -377 411 -377q95 0 167.5 63t72.5 156q0 149 -234 296q-119 74 -194 124q-104 68 -170 159.5t-66 199.5q0 171 146 281t324 110q181 0 382 -82v-318h-8q-175 316 -379 318
q-84 0 -143 -56.5t-59 -140.5q0 -76 49 -139.5t123 -107.5q177 -105 319 -210q80 -58 126 -142.5t46 -180.5q0 -180 -141 -297t-369 -117q-100 -1 -220 25q-115 25 -191 65z" />
    <glyph glyph-name="sacute" unicode="&#x15b;" horiz-adv-x="868" 
d="M227 1186l-10 2q52 40 114.5 115.5t92.5 134.5l225 -25q-131 -174 -422 -227zM430 37q75 0 124.5 42.5t49.5 116.5q0 70 -54 115q-53 44 -132 79q-93 41 -155 74q-85 45 -135 118.5t-50 165.5q0 74 33 136t87 101.5t121.5 61.5t138.5 22q156 0 302 -55v-266h-8
q-173 260 -303 260q-66 0 -111 -38.5t-45 -103.5q0 -35 17.5 -65.5t50.5 -54t60 -38.5t64 -31q79 -35 159 -75q86 -44 138.5 -120.5t53.5 -170.5q0 -68 -24.5 -125t-65.5 -95t-96.5 -64.5t-115.5 -38.5t-124 -12q-183 0 -328 65l-10 309h10q178 -313 348 -313z" />
    <glyph glyph-name="Scircumflex" unicode="&#x15c;" horiz-adv-x="1112" 
d="M612 1810l201 -278h-16l-242 108l-240 -108h-16l197 278h116zM111 59v371h8q201 -377 411 -377q95 0 167.5 63t72.5 156q0 149 -234 296q-119 74 -194 124q-104 68 -170 159.5t-66 199.5q0 171 146 281t324 110q181 0 382 -82v-318h-8q-175 316 -379 318
q-84 0 -143 -56.5t-59 -140.5q0 -76 49 -139.5t123 -107.5q177 -105 319 -210q80 -58 126 -142.5t46 -180.5q0 -180 -141 -297t-369 -117q-100 -1 -220 25q-115 25 -191 65z" />
    <glyph glyph-name="scircumflex" unicode="&#x15d;" horiz-adv-x="868" 
d="M489 1442l201 -279h-16l-242 109l-239 -109h-17l197 279h116zM430 37q75 0 124.5 42.5t49.5 116.5q0 70 -54 115q-53 44 -132 79q-93 41 -155 74q-85 45 -135 118.5t-50 165.5q0 74 33 136t87 101.5t121.5 61.5t138.5 22q156 0 302 -55v-266h-8q-173 260 -303 260
q-66 0 -111 -38.5t-45 -103.5q0 -35 17.5 -65.5t50.5 -54t60 -38.5t64 -31q79 -35 159 -75q86 -44 138.5 -120.5t53.5 -170.5q0 -68 -24.5 -125t-65.5 -95t-96.5 -64.5t-115.5 -38.5t-124 -12q-183 0 -328 65l-10 309h10q178 -313 348 -313z" />
    <glyph glyph-name="Scedilla" unicode="&#x15e;" horiz-adv-x="1112" 
d="M356 -375l25 23q61 -27 115 -27q48 0 78 22.5t30 68.5q0 32 -33.5 57t-72 35.5t-70.5 11.5l119 153h-25q-98 0 -214 24.5t-197 65.5v371h8q201 -377 411 -377q95 0 167.5 63t72.5 156q0 149 -234 296q-119 74 -194 124q-104 68 -170 159.5t-66 199.5q0 171 146 281
t324 110q181 0 382 -82v-318h-8q-175 316 -379 318q-84 0 -143 -56.5t-59 -140.5q0 -76 49 -139.5t123 -107.5q177 -105 319 -210q80 -58 126 -142.5t46 -180.5q0 -88 -34 -161.5t-92.5 -124t-133.5 -81.5t-160 -41l-51 -79q77 -8 136 -52t59 -116q0 -56 -39.5 -93t-89 -50
t-104.5 -13q-94 0 -167 53z" />
    <glyph glyph-name="scedilla" unicode="&#x15f;" horiz-adv-x="868" 
d="M233 -375l25 23q60 -27 114 -27q48 0 79 22t31 69q0 46 -62 74.5t-115 29.5l123 159q-204 0 -346 66l-10 309h10q178 -313 348 -313q75 0 124.5 42.5t49.5 116.5q0 70 -54 115q-53 44 -132 79q-93 41 -155 74q-85 45 -135 118.5t-50 165.5q0 74 33 136t87 101.5
t121.5 61.5t138.5 22q156 0 302 -55v-266h-8q-173 260 -303 260q-66 0 -111 -38.5t-45 -103.5q0 -35 17.5 -65.5t50.5 -54t60 -38.5t64 -31q79 -35 159 -75q86 -44 138.5 -120.5t53.5 -170.5q0 -95 -49 -168t-125 -112.5t-170 -50.5l-54 -84q71 -7 133 -50q61 -42 61 -118
q0 -56 -39.5 -93t-88.5 -50t-104 -13q-94 0 -167 53z" />
    <glyph glyph-name="Scaron" unicode="&#x160;" horiz-adv-x="1112" 
d="M813 1810l-201 -278h-116l-197 278h16l240 -108l242 108h16zM111 59v371h8q201 -377 411 -377q95 0 167.5 63t72.5 156q0 149 -234 296q-119 74 -194 124q-104 68 -170 159.5t-66 199.5q0 171 146 281t324 110q181 0 382 -82v-318h-8q-175 316 -379 318q-84 0 -143 -56.5
t-59 -140.5q0 -76 49 -139.5t123 -107.5q177 -105 319 -210q80 -58 126 -142.5t46 -180.5q0 -180 -141 -297t-369 -117q-100 -1 -220 25q-115 25 -191 65z" />
    <glyph glyph-name="scaron" unicode="&#x161;" horiz-adv-x="868" 
d="M690 1442l-201 -279h-116l-197 279h17l239 -109l242 109h16zM430 37q75 0 124.5 42.5t49.5 116.5q0 70 -54 115q-53 44 -132 79q-93 41 -155 74q-85 45 -135 118.5t-50 165.5q0 74 33 136t87 101.5t121.5 61.5t138.5 22q156 0 302 -55v-266h-8q-173 260 -303 260
q-66 0 -111 -38.5t-45 -103.5q0 -35 17.5 -65.5t50.5 -54t60 -38.5t64 -31q79 -35 159 -75q86 -44 138.5 -120.5t53.5 -170.5q0 -68 -24.5 -125t-65.5 -95t-96.5 -64.5t-115.5 -38.5t-124 -12q-183 0 -328 65l-10 309h10q178 -313 348 -313z" />
    <glyph glyph-name="Tcommaaccent" unicode="&#x162;" horiz-adv-x="1380" 
d="M629 -397q0 31 -32 75t-32 94q0 52 39 87t91 35q64 0 97 -47t33 -114q-1 -45 -28 -92.5t-70 -89t-84.5 -72.5t-83.5 -57l-6 7q76 97 76 174zM1006 8v-8h-627v8q53 19 85.5 43.5t48.5 61t21 73.5t5 97v1048h-76q-133 0 -187 -39q-53 -38 -210 -239h-9l33 360h1206l33 -360
h-10q-154 199 -209 239q-55 39 -188 39h-76v-1048q0 -119 30 -178.5t130 -96.5z" />
    <glyph glyph-name="tcommaaccent" unicode="&#x163;" horiz-adv-x="733" 
d="M280 -322q-32 47 -32 94q0 52 39 87t91 35q64 0 97 -47t33 -114q0 -44 -27 -92t-71 -89.5t-84.5 -72.5t-83.5 -57l-6 7q76 97 75 174q1 30 -31 75zM467 -16q-297 0 -297 315v635h-174v12q259 107 446 363h15v-265h266v-124h-266v-607q0 -82 45 -135t125 -53q76 0 131 37
l8 -10q-51 -71 -134 -119.5t-165 -48.5z" />
    <glyph glyph-name="Tcaron" unicode="&#x164;" horiz-adv-x="1380" 
d="M946 1810l-201 -278h-116l-197 278h17l239 -108l242 108h16zM1006 8v-8h-627v8q53 19 85.5 43.5t48.5 61t21 73.5t5 97v1048h-76q-133 0 -187 -39q-53 -38 -210 -239h-9l33 360h1206l33 -360h-10q-154 199 -209 239q-55 39 -188 39h-76v-1048q0 -119 30 -178.5t130 -96.5
z" />
    <glyph glyph-name="tcaron" unicode="&#x165;" horiz-adv-x="733" 
d="M559 1342q-49 123 -49 165q0 45 33.5 78t78.5 33t78 -33t35 -78q0 -42 -49 -165q-48 -122 -53 -214h-21q-5 92 -53 214zM467 -16q-297 0 -297 315v635h-174v12q259 107 446 363h15v-265h266v-124h-266v-607q0 -82 45 -135t125 -53q76 0 131 37l8 -10q-51 -71 -134 -119.5
t-165 -48.5z" />
    <glyph glyph-name="Tbar" unicode="&#x166;" horiz-adv-x="1380" 
d="M1006 8v-8h-627v8q53 19 85.5 43.5t48.5 61t21 73.5t5 97v399h-187v109h187v540h-76q-133 0 -187 -39q-53 -38 -210 -239h-9l33 360h1206l33 -360h-10q-154 199 -209 239q-55 39 -188 39h-76v-540h182v-109h-182v-399q0 -119 30 -178.5t130 -96.5z" />
    <glyph glyph-name="tbar" unicode="&#x167;" horiz-adv-x="745" 
d="M467 -16q-297 0 -297 315v211h-115v127h115v297h-174v12q259 107 446 363h15v-265h266v-124h-266v-283h254v-127h-254v-197q0 -82 45 -135t125 -53q76 0 131 37l8 -10q-51 -71 -134 -119.5t-165 -48.5z" />
    <glyph glyph-name="Utilde" unicode="&#x168;" horiz-adv-x="1605" 
d="M635 1616q-78 0 -129 -72l-10 4q18 60 35.5 96t54.5 77q47 53 99 53q53 0 147 -30t137 -30q78 0 129 72l10 -4q-9 -34 -25.5 -70t-40 -73.5t-56.5 -61t-68 -23.5q-56 0 -152 31t-131 31zM1274 395v563q0 302 -76 381q-34 37 -108 66v8h483v-8q-74 -29 -109 -65
q-75 -76 -75 -382v-569q0 -93 -34 -167t-89 -121t-131 -77.5t-155 -43t-165 -11.5q-86 0 -166.5 12t-160.5 42.5t-139 77t-95.5 120.5t-36.5 168v746q0 59 -5 96t-21 72t-48.5 59t-85.5 43v8h627v-8q-53 -19 -85.5 -43t-48.5 -59t-21 -72t-5 -96v-775q0 -127 89 -204
q88 -76 269 -76q81 0 149 17t124 53t87.5 98.5t31.5 146.5z" />
    <glyph glyph-name="utilde" unicode="&#x169;" horiz-adv-x="1257" 
d="M744 1186q-56 0 -152 31q-95 30 -131 30q-78 0 -129 -71l-10 4q17 58 35 94t55 78q46 51 99 53q54 0 147 -30q93 -29 139 -29q77 0 127 71l10 -4q-9 -34 -25.5 -70t-40 -73t-56.5 -60.5t-68 -23.5zM821 -25h-8v170q-88 -76 -171 -123t-171 -47q-126 0 -209 78
q-82 78 -82 258v379q0 136 -27 189q-29 51 -126 90v8q184 12 432 92h8v-721q0 -106 60 -156q62 -50 139 -51q78 0 143 33v516q0 136 -28 188t-126 91v8q184 12 432 92h9v-715q0 -138 28 -188q29 -52 125 -90v-8q-198 -18 -428 -93z" />
    <glyph glyph-name="Umacron" unicode="&#x16a;" horiz-adv-x="1605" 
d="M1059 1720v-108h-512v108h512zM1274 395v563q0 302 -76 381q-34 37 -108 66v8h483v-8q-74 -29 -109 -65q-75 -76 -75 -382v-569q0 -93 -34 -167t-89 -121t-131 -77.5t-155 -43t-165 -11.5q-86 0 -166.5 12t-160.5 42.5t-139 77t-95.5 120.5t-36.5 168v746q0 59 -5 96
t-21 72t-48.5 59t-85.5 43v8h627v-8q-53 -19 -85.5 -43t-48.5 -59t-21 -72t-5 -96v-775q0 -127 89 -204q88 -76 269 -76q81 0 149 17t124 53t87.5 98.5t31.5 146.5z" />
    <glyph glyph-name="umacron" unicode="&#x16b;" horiz-adv-x="1257" 
d="M885 1352v-109h-512v109h512zM821 -25h-8v170q-88 -76 -171 -123t-171 -47q-126 0 -209 78q-82 78 -82 258v379q0 136 -27 189q-29 51 -126 90v8q184 12 432 92h8v-721q0 -106 60 -156q62 -50 139 -51q78 0 143 33v516q0 136 -28 188t-126 91v8q184 12 432 92h9v-715
q0 -138 28 -188q29 -52 125 -90v-8q-198 -18 -428 -93z" />
    <glyph glyph-name="Ubreve" unicode="&#x16c;" horiz-adv-x="1605" 
d="M883 1528q-54 0 -97.5 25.5t-71 68.5t-45 89.5t-26.5 98.5h8q27 -69 93 -106t144 -37q73 0 136.5 38.5t89.5 104.5h8q-8 -52 -25 -99t-45 -89.5t-71.5 -68t-97.5 -25.5zM1274 395v563q0 302 -76 381q-34 37 -108 66v8h483v-8q-74 -29 -109 -65q-75 -76 -75 -382v-569
q0 -93 -34 -167t-89 -121t-131 -77.5t-155 -43t-165 -11.5q-86 0 -166.5 12t-160.5 42.5t-139 77t-95.5 120.5t-36.5 168v746q0 59 -5 96t-21 72t-48.5 59t-85.5 43v8h627v-8q-53 -19 -85.5 -43t-48.5 -59t-21 -72t-5 -96v-775q0 -127 89 -204q88 -76 269 -76q81 0 149 17
t124 53t87.5 98.5t31.5 146.5z" />
    <glyph glyph-name="ubreve" unicode="&#x16d;" horiz-adv-x="1257" 
d="M630 1159q-54 0 -97.5 25.5t-71.5 68.5t-45.5 90t-26.5 99h8q26 -67 92 -105.5t141 -38.5t139.5 38.5t90.5 105.5h8q-8 -51 -25 -98t-45 -90.5t-71.5 -69t-96.5 -25.5zM821 -25h-8v170q-88 -76 -171 -123t-171 -47q-126 0 -209 78q-82 78 -82 258v379q0 136 -27 189
q-29 51 -126 90v8q184 12 432 92h8v-721q0 -106 60 -156q62 -50 139 -51q78 0 143 33v516q0 136 -28 188t-126 91v8q184 12 432 92h9v-715q0 -138 28 -188q29 -52 125 -90v-8q-198 -18 -428 -93z" />
    <glyph glyph-name="Uring" unicode="&#x16e;" horiz-adv-x="1605" 
d="M897 1612q49 0 84 37t35 86t-35 86t-84 37t-84 -37t-35 -86t35 -86t84 -37zM1110 1735q0 -86 -63 -147.5t-149 -61.5q-87 0 -150.5 61t-63.5 147t63.5 148t149.5 62t149.5 -61.5t63.5 -147.5zM1274 395v563q0 302 -76 381q-34 37 -108 66v8h483v-8q-74 -29 -109 -65
q-75 -76 -75 -382v-569q0 -93 -34 -167t-89 -121t-131 -77.5t-155 -43t-165 -11.5q-86 0 -166.5 12t-160.5 42.5t-139 77t-95.5 120.5t-36.5 168v746q0 59 -5 96t-21 72t-48.5 59t-85.5 43v8h627v-8q-53 -19 -85.5 -43t-48.5 -59t-21 -72t-5 -96v-775q0 -127 89 -204
q88 -76 269 -76q81 0 149 17t124 53t87.5 98.5t31.5 146.5z" />
    <glyph glyph-name="uring" unicode="&#x16f;" horiz-adv-x="1257" 
d="M629 1243q49 0 84 37t35 86t-35 86t-84 37t-84 -37t-35 -86t35 -86t84 -37zM842 1366q0 -86 -63.5 -147t-149.5 -61q-87 0 -150 60.5t-63 147.5q0 86 62.5 147t149.5 61q88 0 151 -60.5t63 -147.5zM821 -25h-8v170q-88 -76 -171 -123t-171 -47q-126 0 -209 78
q-82 78 -82 258v379q0 136 -27 189q-29 51 -126 90v8q184 12 432 92h8v-721q0 -106 60 -156q62 -50 139 -51q78 0 143 33v516q0 136 -28 188t-126 91v8q184 12 432 92h9v-715q0 -138 28 -188q29 -52 125 -90v-8q-198 -18 -428 -93z" />
    <glyph glyph-name="Uhungarumlaut" unicode="&#x170;" horiz-adv-x="1605" 
d="M817 1532h-18q61 138 67 250h183q-73 -153 -232 -250zM573 1532h-18q60 137 68 250h182q-73 -153 -232 -250zM1274 395v563q0 302 -76 381q-34 37 -108 66v8h483v-8q-74 -29 -109 -65q-75 -76 -75 -382v-569q0 -93 -34 -167t-89 -121t-131 -77.5t-155 -43t-165 -11.5
q-86 0 -166.5 12t-160.5 42.5t-139 77t-95.5 120.5t-36.5 168v746q0 59 -5 96t-21 72t-48.5 59t-85.5 43v8h627v-8q-53 -19 -85.5 -43t-48.5 -59t-21 -72t-5 -96v-775q0 -127 89 -204q88 -76 269 -76q81 0 149 17t124 53t87.5 98.5t31.5 146.5z" />
    <glyph glyph-name="uhungarumlaut" unicode="&#x171;" horiz-adv-x="1257" 
d="M643 1163h-18q61 138 67 250h182q-71 -153 -231 -250zM399 1163h-18q60 137 68 250h182q-73 -153 -232 -250zM821 -25h-8v170q-88 -76 -171 -123t-171 -47q-126 0 -209 78q-82 78 -82 258v379q0 136 -27 189q-29 51 -126 90v8q184 12 432 92h8v-721q0 -106 60 -156
q62 -50 139 -51q78 0 143 33v516q0 136 -28 188t-126 91v8q184 12 432 92h9v-715q0 -138 28 -188q29 -52 125 -90v-8q-198 -18 -428 -93z" />
    <glyph glyph-name="Uogonek" unicode="&#x172;" horiz-adv-x="1605" 
d="M826 -428q-67 0 -111.5 36t-44.5 101q0 123 237 264q-51 -4 -88 -4q-87 0 -167.5 12t-161 42t-140 76.5t-96.5 121t-37 168.5v746q0 59 -5 96t-21 72t-48.5 59t-85.5 43v8h627v-8q-53 -19 -85.5 -43t-48.5 -59t-21 -72t-5 -96v-775q0 -127 89 -204q88 -76 269 -76
q80 0 148 17.5t124 53.5t87.5 98.5t32.5 145.5v563q0 302 -76 381q-34 37 -108 66v8h483v-8q-74 -29 -109 -65q-75 -76 -75 -382v-569q0 -95 -35 -170t-97.5 -124t-139.5 -78t-169 -40q-110 -150 -108 -249q0 -72 90 -72q19 0 37 6v-8q-66 -82 -141 -82z" />
    <glyph glyph-name="uogonek" unicode="&#x173;" horiz-adv-x="1257" 
d="M1249 -338v-8q-67 -82 -141 -82q-66 0 -111 36t-45 101q0 199 285 357q-189 -18 -416 -91h-8v170q-88 -76 -171 -123t-171 -47q-126 0 -209 78q-82 78 -82 258v379q0 136 -27 189q-29 51 -126 90v8q184 12 432 92h8v-721q0 -106 60 -156q62 -50 139 -51q78 0 143 33v516
q0 136 -28 188t-126 91v8q184 12 432 92h9v-715q0 -138 28 -188q29 -52 125 -90v-8q-47 -63 -87 -166t-40 -175q0 -71 90 -71q19 0 37 6z" />
    <glyph glyph-name="Wcircumflex" unicode="&#x174;" horiz-adv-x="2265" 
d="M1188 1810l201 -278h-17l-242 108l-239 -108h-17l197 278h117zM4 1405v8h604v-8q-57 -16 -82 -46q-24 -31 -24 -99t69 -342l189 -750l211 698q61 202 61 314q0 97 -34 148t-124 77v8h570v-8q-60 -18 -84.5 -49t-24.5 -92q0 -62 23 -154l244 -924l217 680q117 365 26 472
q-39 46 -112 67v8h528v-8q-32 -11 -59 -28t-45 -33.5t-37.5 -45.5t-31 -49t-30.5 -58q-64 -125 -133 -335l-287 -856h-266l-268 961l-303 -961h-289l-244 874q-106 385 -181 473q-34 40 -83 58z" />
    <glyph glyph-name="wcircumflex" unicode="&#x175;" horiz-adv-x="1792" 
d="M952 1442l201 -279h-16l-242 109l-240 -109h-16l197 279h116zM8 1036v8h580v-8q-59 -11 -83 -41t-24 -91q0 -64 62 -292l110 -419l183 559q-5 51 -12.5 88t-23.5 80t-45.5 73.5t-72.5 46.5v4h489v-4q-69 -32 -69 -96t33 -192l149 -559l113 335q73 213 73 350
q0 135 -122 158v8h440v-8q-72 -19 -128 -97q-57 -79 -124 -269l-238 -670h-219l-200 629l-213 -629h-228l-209 670q-62 200 -105 272q-42 70 -116 94z" />
    <glyph glyph-name="Ycircumflex" unicode="&#x176;" horiz-adv-x="1384" 
d="M748 1810l200 -278h-16l-242 108l-239 -108h-17l197 278h117zM1006 8v-8h-627v8q101 36 130.5 96t29.5 179v340l-220 403q-101 185 -166 265q-61 74 -145 114v8h633v-8q-73 -25 -97 -57q-51 -67 77 -318l165 -328l156 328q90 202 76 274q-14 71 -131 101v8h489v-8
q-87 -26 -154 -105q-68 -80 -171 -276l-205 -399v-342q0 -60 5 -97t21 -73.5t48.5 -61t85.5 -43.5z" />
    <glyph glyph-name="ycircumflex" unicode="&#x177;" horiz-adv-x="1169" 
d="M641 1442l201 -279h-17l-241 109l-240 -109h-16l196 279h117zM8 1036v8h567v-10q-113 -23 -113 -110q0 -46 52 -215l168 -535l104 322q80 243 80 380q0 138 -114 158v10h419v-8q-72 -27 -130 -133q-57 -104 -154 -381l-217 -618q-13 -37 -23 -63t-29 -70.5t-36.5 -76.5
t-43.5 -69.5t-52 -61t-59.5 -39.5t-68.5 -16q-77 0 -131.5 35t-54.5 107q0 60 37.5 101.5t96.5 41.5q62 0 99 -44.5t37 -108.5q42 30 73 87q31 59 87 201l27 72h-164l-246 702q-70 198 -105 256q-36 57 -106 78z" />
    <glyph glyph-name="Ydieresis" unicode="&#x178;" horiz-adv-x="1384" 
d="M1001 1677q-2 -58 -41.5 -97.5t-97.5 -39.5t-97.5 39.5t-39.5 97.5q0 57 39.5 96.5t97.5 41.5q59 0 99 -40t40 -98zM657 1677q0 -57 -41 -97t-98 -40q-58 0 -97.5 39.5t-39.5 97.5q0 57 39.5 96.5t97.5 41.5q58 -2 98.5 -41t40.5 -97zM1006 8v-8h-627v8q101 36 130.5 96
t29.5 179v340l-220 403q-101 185 -166 265q-61 74 -145 114v8h633v-8q-73 -25 -97 -57q-51 -67 77 -318l165 -328l156 328q90 202 76 274q-14 71 -131 101v8h489v-8q-87 -26 -154 -105q-68 -80 -171 -276l-205 -399v-342q0 -60 5 -97t21 -73.5t48.5 -61t85.5 -43.5z" />
    <glyph glyph-name="Zacute" unicode="&#x179;" horiz-adv-x="1210" 
d="M399 1554l-10 2q53 43 114 116.5t93 133.5l225 -24q-130 -175 -422 -228zM1128 0h-1083v8l750 1323h-254q-140 0 -219 -41q-76 -40 -240 -217h-8l41 340h1034v-8l-739 -1323h278q175 0 233 34q57 33 209 222q4 8 15 18q8 9 14 19h10z" />
    <glyph glyph-name="zacute" unicode="&#x17a;" horiz-adv-x="1064" 
d="M326 1186l-11 2q52 40 114.5 115.5t92.5 134.5l226 -25q-131 -174 -422 -227zM971 0h-914v8l582 963h-193q-72 0 -100 -19q-60 -36 -126 -96q-4 -4 -21 -20t-31 -29q-61 -56 -62 -57h-10l41 294h844v-10l-569 -962h235q84 0 143 41q53 37 214 190h8z" />
    <glyph glyph-name="Zdotaccent" unicode="&#x17b;" horiz-adv-x="1210" 
d="M760 1677q0 -64 -46 -108.5t-110 -44.5t-108.5 44.5t-44.5 108.5t44.5 109t108.5 45t110 -45t46 -109zM1128 0h-1083v8l750 1323h-254q-140 0 -219 -41q-76 -40 -240 -217h-8l41 340h1034v-8l-739 -1323h278q175 0 233 34q57 33 209 222q4 8 15 18q8 9 14 19h10z" />
    <glyph glyph-name="zdotaccent" unicode="&#x17c;" horiz-adv-x="1064" 
d="M686 1309q0 -64 -45.5 -109t-110.5 -45q-64 0 -108.5 44.5t-44.5 108.5t44.5 109t108.5 45t110 -44.5t46 -108.5zM971 0h-914v8l582 963h-193q-72 0 -100 -19q-60 -36 -126 -96q-4 -4 -21 -20t-31 -29q-61 -56 -62 -57h-10l41 294h844v-10l-569 -962h235q84 0 143 41
q53 37 214 190h8z" />
    <glyph glyph-name="Zcaron" unicode="&#x17d;" horiz-adv-x="1210" 
d="M862 1810l-200 -278h-117l-197 278h17l239 -108l242 108h16zM1128 0h-1083v8l750 1323h-254q-140 0 -219 -41q-76 -40 -240 -217h-8l41 340h1034v-8l-739 -1323h278q175 0 233 34q57 33 209 222q4 8 15 18q8 9 14 19h10z" />
    <glyph glyph-name="zcaron" unicode="&#x17e;" horiz-adv-x="1064" 
d="M788 1442l-200 -279h-117l-197 279h17l239 -109l242 109h16zM971 0h-914v8l582 963h-193q-72 0 -100 -19q-60 -36 -126 -96q-4 -4 -21 -20t-31 -29q-61 -56 -62 -57h-10l41 294h844v-10l-569 -962h235q84 0 143 41q53 37 214 190h8z" />
    <glyph glyph-name="longs" unicode="&#x17f;" horiz-adv-x="647" 
d="M627 8v-8h-584v8q79 34 105 91t26 180v661h-151l24 104h127v97q0 196 134 300q133 103 321 103q95 0 166 -55q71 -56 71 -121q0 -63 -39 -106t-102 -43q-56 0 -92.5 34.5t-36.5 89.5q0 103 96 152q-29 8 -57 8q-91 -2 -128 -84q-38 -84 -38 -248v-892q0 -118 29 -176
t129 -95z" />
    <glyph glyph-name="uni0180" unicode="&#x180;" horiz-adv-x="1292" 
d="M598 37q141 0 241 124q99 123 99 329t-93 318t-218 112q-92 -2 -168 -50v-798q72 -35 139 -35zM164 45v1137h-98v88h94q-8 73 -41.5 109t-106.5 65v8q192 13 439 92h8v-274h323v-88h-323v-285q163 172 348 172q184 0 304 -133q120 -134 120 -356q0 -203 -117.5 -351
t-317.5 -217q-107 -37 -206 -37q-95 -1 -227 23q-124 23 -199 47z" />
    <glyph glyph-name="uni0181" unicode="&#x181;" horiz-adv-x="1505" 
d="M815 0h-600v8q105 27 139 84q35 58 35 187v763q0 204 -49 268q-47 64 -166 64q-30 0 -57 -8q39 -19 69 -61q29 -41 27 -95q0 -54 -38.5 -87t-93.5 -33q-62 0 -100 43t-38 105q0 67 71 121q72 54 166 54h627q241 0 395 -72q174 -79 174 -270q0 -131 -102 -209
q-103 -79 -230 -98v-8q71 -6 143.5 -32.5t135.5 -69.5t103 -108t40 -140q0 -140 -105 -236q-185 -168 -546 -170zM696 1331v-563h78q145 0 219 76t76 221q0 266 -307 266h-66zM696 686v-604h113q153 0 244.5 72t91.5 220q-1 99 -48.5 171t-125.5 106.5t-176 34.5h-99z" />
    <glyph glyph-name="uni0182" unicode="&#x182;" horiz-adv-x="1312" 
d="M524 727v-655h119q151 0 227 91.5t76 242.5q0 135 -75 228t-244 93h-103zM700 0h-643v8q53 19 85.5 43t48.5 59t21 72t5 97v851q0 119 -29.5 179t-130.5 96v8h1022v-340h-10q-105 174 -165 216t-216 42h-164v-532h158q284 0 424 -85q141 -86 141 -286t-133 -314
q-134 -114 -414 -114z" />
    <glyph glyph-name="uni0183" unicode="&#x183;" horiz-adv-x="1292" 
d="M598 37q143 0 242 115q98 115 98 318t-92 306q-91 101 -219 103q-92 -2 -168 -50v-757q72 -35 139 -35zM164 45v1085q0 119 -29.5 179t-130.5 96v8h1010v-319h-10q-101 168 -158 202q-57 33 -223 35h-164v-475q163 172 349 172t304 -124q119 -125 119 -345
q0 -164 -80 -292t-228 -207q-159 -84 -335 -85q-94 -1 -225 23q-124 23 -199 47z" />
    <glyph glyph-name="uni0184" unicode="&#x184;" horiz-adv-x="1312" 
d="M524 727v-655h119q151 0 227 91.5t76 242.5q0 135 -75 228t-244 93h-103zM700 0h-643v8q53 19 85.5 43t48.5 59t21 72t5 97v706l-203 199v37l471 221h39v-643h158q284 0 424 -85q141 -86 141 -286t-133 -314q-134 -114 -414 -114z" />
    <glyph glyph-name="uni0185" unicode="&#x185;" horiz-adv-x="1292" 
d="M598 37q141 0 241 124q99 123 99 329t-93 318t-218 112q-92 -2 -168 -50v-798q72 -35 139 -35zM432 1544h27v-647q163 172 348 172q184 0 304 -133q120 -134 120 -356q0 -203 -117.5 -351t-317.5 -217q-107 -37 -206 -37q-95 -1 -227 23q-124 23 -199 47v1042l-203 199
v37z" />
    <glyph glyph-name="uni0186" unicode="&#x186;" horiz-adv-x="1486" 
d="M563 51q239 0 389 174q150 175 150 485q0 311 -142 480q-143 170 -362 170q-288 0 -457 -322h-8v320q86 37 229 60.5t252 23.5q190 0 358.5 -62.5t292.5 -191.5q163 -169 165 -457q0 -334 -250 -548t-609 -214q-116 0 -243 22t-213 66l-29 338h10q80 -163 191 -253.5
t276 -90.5z" />
    <glyph glyph-name="uni0187" unicode="&#x187;" horiz-adv-x="1486" 
d="M944 -31q-367 0 -612 196q-246 197 -246 525q0 255 149 435t403 267q153 50 287 50q133 0 275 -29q11 151 84.5 221t224.5 70q85 0 152 -50q65 -50 65 -110q0 -55 -35 -93t-90 -38q-49 0 -84.5 29.5t-35.5 77.5q0 46 23.5 83.5t64.5 55.5q-29 8 -53 8q-82 -1 -108 -64
t-26 -231v-334h-8q-169 322 -456 322q-219 0 -362 -170q-142 -169 -142 -480q0 -309 149 -485q150 -174 389 -174q165 0 276 90.5t191 253.5h11l-29 -338q-82 -44 -209 -65t-248 -23z" />
    <glyph glyph-name="uni0188" unicode="&#x188;" horiz-adv-x="958" 
d="M588 1069q74 0 125 -12q2 49 6 85.5t16.5 81.5t32.5 73.5t57 48.5t87 20q95 0 162 -50t65 -110q0 -55 -35.5 -93t-90.5 -38q-49 0 -84.5 29.5t-35.5 77.5q0 45 23.5 83t64.5 56q-29 8 -53 8q-70 -1 -102 -69q-32 -70 -31 -226v-4q123 -62 123 -164q0 -69 -43 -116
t-111 -48q-61 0 -108.5 38.5t-47.5 97.5q0 50 25.5 98t68.5 70q-25 4 -40 4q-71 0 -126 -24.5t-89 -64t-55.5 -96t-29.5 -114t-8 -124.5q0 -210 96 -318q96 -107 242 -107q145 0 260 82l13 -8q-86 -128 -183 -194t-235 -67q-202 -1 -345 145q-141 144 -143 374
q0 189 93 332.5t268 207.5q92 33 168 35z" />
    <glyph glyph-name="uni0189" unicode="&#x189;" horiz-adv-x="1683" 
d="M524 678v-596h201q256 0 400 181q145 181 145 455t-146 444q-145 169 -374 169h-226v-545h219v-108h-219zM729 0h-672v8q53 19 85.5 43.5t48.5 61t21 73.5t5 97v395h-129v108h129v349q0 59 -5 96t-21 72t-48.5 59t-85.5 43v8h697q130 0 251 -24.5t230 -78t189.5 -130.5
t127 -190t45.5 -249q1 -333 -251 -537t-617 -204z" />
    <glyph glyph-name="uni018A" unicode="&#x18a;" horiz-adv-x="1855" 
d="M901 0h-672v8q53 19 85.5 43.5t48.5 61t21 73.5t5 97v759q0 204 -49 268q-47 64 -166 64q-30 0 -57 -8q39 -19 69 -61q29 -41 27 -95q0 -54 -38.5 -87t-93.5 -33q-62 0 -100 43t-38 105q0 67 71 121q72 54 166 54h746q130 0 251 -24.5t230 -78t189.5 -130.5t127 -190
t45.5 -249q1 -333 -251 -537t-617 -204zM696 1331v-1249h201q256 0 400 181q145 181 145 455t-146 444q-145 169 -374 169h-226z" />
    <glyph glyph-name="uni018B" unicode="&#x18b;" horiz-adv-x="1312" 
d="M670 72h118v655h-102q-119 0 -192 -55q-130 -96 -127 -287q2 -131 71 -221q71 -92 232 -92zM1255 8v-8h-643q-89 0 -161 8.5t-146.5 33.5t-124.5 66t-82 111t-32 164q0 416 565 416h157v532h-163q-156 0 -216 -42t-165 -216h-11v340h1022v-8q-97 -34 -129 -92
q-32 -57 -30 -183v-851q0 -123 30 -180q32 -57 129 -91z" />
    <glyph glyph-name="uni018C" unicode="&#x18c;" horiz-adv-x="1267" 
d="M440 849q-94 -116 -94 -311q0 -194 101 -295q100 -100 245 -102q72 0 133 31v737q-52 56 -155 58q-136 0 -230 -118zM834 -25h-9v175q-163 -173 -362 -175q-160 0 -286 126t-126 345q0 192 105 334.5t290 208.5q106 39 194 39q90 0 185 -16v319h-163q-163 0 -222 -35
q-58 -34 -159 -202h-11v319h1010v-8q-53 -19 -85.5 -43.5t-48.5 -61t-21 -73.5t-5 -97v-776q0 -138 28 -188q28 -51 126 -90v-8q-215 -20 -440 -93z" />
    <glyph glyph-name="uni018D" unicode="&#x18d;" horiz-adv-x="1243" 
d="M987 -278q0 -57 -35.5 -99t-92 -63.5t-110.5 -31t-107 -9.5q-153 0 -270 53q-116 53 -116 139q0 40 26 69.5t66 29.5q73 0 174 -116q99 -116 209 -116q63 0 108.5 35t45.5 96q1 64 -67 122.5t-147 96.5q-211 99 -396 224q-97 66 -155 163.5t-59 210.5q2 169 89 295
q88 127 214 187q125 59 244 61q118 0 215 -30q359 -113 359 -485q0 -144 -111 -264q-145 -159 -365 -210l64 -46q217 -157 217 -312zM872 545q0 201 -69 332t-183 131q-115 0 -182 -130q-68 -132 -67 -329q0 -111 60 -208.5t158 -172.5l68 -52q111 62 163 175.5t52 253.5z
" />
    <glyph glyph-name="uni018E" unicode="&#x18e;" horiz-adv-x="1236" 
d="M1180 8v-8h-1071l-41 373h10q88 -109 126 -153q39 -45 94 -83.5t103 -46.5q53 -8 138 -8h174v602h-201q-87 0 -138.5 -32t-103.5 -109h-10v370h10q50 -79 102 -112t140 -33h201v563h-193q-121 0 -181 -48q-61 -49 -161 -210h-10v340h1012v-8q-53 -19 -85.5 -43t-48.5 -59
t-21 -72t-5 -96v-852q0 -60 5 -97t21 -73.5t48.5 -61t85.5 -43.5z" />
    <glyph glyph-name="uni018F" unicode="&#x18f;" horiz-adv-x="1488" 
d="M1090 659v13l-678 -25q0 -606 327 -606q351 0 351 618zM588 1204q-271 0 -488 -125l-12 11q97 140 251 246q152 104 361 106q301 0 496 -186t195 -515q-2 -160 -49 -297t-147.5 -248.5t-245.5 -175.5q-119 -51 -231 -51q-224 0 -407 171q-99 92 -146.5 234.5t-47.5 293.5
q0 38 4 63h964q-20 233 -161 353t-336 120z" />
    <glyph glyph-name="uni0190" unicode="&#x190;" horiz-adv-x="1310" 
d="M862 782v-67h-125q-167 0 -247 -90q-79 -90 -78 -217q0 -177 101 -269t280 -94q172 0 279 65q104 64 136 148q-67 -63 -126 -62q-61 1 -102.5 46t-41.5 106q0 68 51 115t120 47q72 0 122.5 -46.5t50.5 -117.5q0 -130 -117 -247q-131 -130 -415 -130q-159 0 -313.5 46
t-253.5 141q-99 94 -99 219t79 213q143 159 402 172v12q-95 26 -126 33q-40 9 -101.5 31t-85.5 40q-66 50 -86.5 88.5t-22.5 118.5q2 113 93 197q179 162 512 162q102 0 230 -21.5t206 -58.5v-322h-8q-35 57 -62 97t-70 91t-84 82.5t-96.5 53.5t-114.5 22q-120 0 -202 -76
t-82 -218q0 -143 83 -226.5t226 -83.5h88z" />
    <glyph glyph-name="uni0191" unicode="&#x191;" horiz-adv-x="1189" 
d="M1018 895v-375h-10q-55 79 -105 111.5t-137 32.5h-242v-752q0 -196 -139 -299q-140 -104 -328 -105q-93 0 -166 56q-71 56 -71 122q0 62 38.5 105t99.5 43q57 0 94.5 -34t37.5 -91q0 -101 -96 -151q27 -8 57 -9q91 2 128 84q38 84 38 248v1254q0 59 -5 96t-21 72
t-48.5 59t-85.5 43v8h1043v-340h-10q-103 173 -164 216q-60 42 -217 42h-185v-583h242q89 0 138 32.5t104 114.5h10z" />
    <glyph glyph-name="florin" unicode="&#x192;" 
d="M412 -119v785h-193l25 104h168v268q0 196 134 300q132 102 320 104q93 0 166 -56q72 -56 72 -122q0 -62 -38.5 -105t-99.5 -43q-57 0 -95 34q-38 35 -37 91q0 103 96 152q-29 8 -58 8q-91 -2 -128 -84q-38 -85 -37 -248v-299h208v-104h-208v-754q-1 -196 -135 -300
q-132 -102 -320 -104q-93 0 -166 56q-72 56 -72 122q0 62 38.5 105t99.5 43q58 0 95.5 -34t37.5 -91q0 -102 -97 -151q27 -8 58 -9q91 2 128 84q38 84 38 248z" />
    <glyph glyph-name="uni0193" unicode="&#x193;" horiz-adv-x="1607" 
d="M1174 100v332q0 104 -32 158.5t-124 89.5v8h565v-8q-80 -34 -103 -79q-22 -43 -22 -167v-368q-316 -93 -579 -95q-162 0 -307 52.5t-252.5 146t-170.5 231.5t-63 300q0 129 43 241.5t120.5 198.5t179 150t224.5 105q147 48 285 48q141 0 299 -31q11 151 84.5 221
t224.5 70q85 0 152 -50q66 -50 66 -110q0 -55 -36 -93t-91 -38q-49 0 -84 29.5t-35 77.5q0 46 23.5 83.5t64.5 55.5q-29 8 -54 8q-82 -1 -108 -64q-26 -64 -25 -231v-330h-8q-197 316 -477 318q-224 0 -372 -174q-148 -173 -148 -475q0 -300 152 -473q80 -91 178 -131.5
t224 -40.5q110 2 206 34z" />
    <glyph glyph-name="uni0194" unicode="&#x194;" horiz-adv-x="1521" 
d="M1038 1405v8h510v-8q-76 -16 -122 -52q-93 -73 -259 -503l-241 -634l32 -85q217 -559 -196 -559q-217 0 -217 195q0 99 85 250q23 40 27 49l-346 882q-139 354 -216 417q-34 28 -87 40v8h641v-8q-60 -17 -82 -48q-53 -74 76 -409l231 -598l195 512q85 226 105 338
q18 112 -13 150t-123 55zM743 -154l-42 109q-58 -129 -58 -208q0 -77 57 -77q56 0 58 90q0 54 -15 86z" />
    <glyph glyph-name="uni0195" unicode="&#x195;" horiz-adv-x="1884" 
d="M1458 268v498q0 125 -25 179q-26 56 -106 91v8h418v-753q0 -164 -95 -239q-96 -75 -354 -75q-56 0 -99.5 2.5t-93 10.5t-86 21.5t-71.5 37.5t-57 56.5t-35.5 79.5t-13.5 106v436q0 89 -48 143t-136 54q-83 0 -175 -47v-598q0 -122 26 -179q26 -56 105 -92v-8h-557v8
q80 35 106 91q26 58 25 180v886q0 137 -27 189q-29 51 -126 90v8q212 17 440 92h8v-633q187 158 346 158q131 0 215 -87t84 -269v-418q0 -125 36 -177t138 -52q103 0 131 49q27 49 27 153z" />
    <glyph glyph-name="uni0196" unicode="&#x196;" horiz-adv-x="624" 
d="M421 -29q-130 1 -187.5 63t-57.5 193v938q0 137 -28 189q-29 53 -125 90v8q195 13 440 92h8v-1284q0 -74 8 -100q19 -54 63 -54q50 0 81.5 39.5t40.5 92.5h20q-23 -267 -263 -267z" />
    <glyph glyph-name="uni0197" unicode="&#x197;" horiz-adv-x="741" 
d="M684 8v-8h-627v8q53 19 85.5 43t48.5 59t21 72t5 97v399h-176v108h176v349q0 59 -5 96t-21 72t-48.5 59t-85.5 43v8h627v-8q-53 -19 -85.5 -43t-48.5 -59t-21 -72t-5 -96v-349h176v-108h-176v-399q0 -118 29.5 -176t130.5 -95z" />
    <glyph glyph-name="uni0198" unicode="&#x198;" horiz-adv-x="1544" 
d="M1579 8v-8h-670v8q56 18 84 38q27 20 27 70q0 51 -98 206l-234 366l-164 -174v-235q0 -118 29.5 -176t130.5 -95v-8h-627v8q53 19 85.5 43t48.5 59t21 72t5 97v800q0 273 282 344q73 17 136 19q101 0 168 -50q65 -50 65 -110q0 -56 -35.5 -94.5t-90.5 -38.5
q-49 0 -84.5 30.5t-35.5 78.5q0 43 25 83t64 56q-29 8 -54 8q-81 -3 -107 -65q-26 -63 -26 -230v-485l389 440q113 128 113 213q0 87 -135 127v8h612v-8q-75 -27 -133.5 -57.5t-114 -76.5t-93.5 -84t-105 -110l-170 -182l389 -592q38 -58 63.5 -93t63.5 -77.5t81 -72.5
t95 -52z" />
    <glyph glyph-name="uni0199" unicode="&#x199;" horiz-adv-x="1234" 
d="M1288 8v-8h-203q-177 0 -230 31q-54 32 -142 188l-193 342l189 187q92 92 92 149q0 83 -150 133v14h629v-10q-101 -27 -181 -80t-169 -139l-160 -156l279 -428q102 -156 169 -192q30 -16 70 -31zM602 8v-8h-557v8q80 35 106 91q26 58 25 180v862q0 196 134 300
q133 103 321 103q95 0 166 -55q71 -56 71 -121q0 -63 -39 -106t-102 -43q-56 0 -92.5 34.5t-36.5 89.5q0 103 96 152q-29 8 -57 8q-91 -2 -128 -84q-38 -84 -38 -248v-892q0 -122 26 -179q26 -56 105 -92z" />
    <glyph glyph-name="uni019A" unicode="&#x19a;" horiz-adv-x="624" 
d="M602 8v-8h-557v8q80 35 106 91q26 58 25 180v399h-135v108h135v379q0 137 -28 189q-29 53 -125 90v8q195 13 440 92h8v-758h111v-108h-111v-399q0 -122 26 -179q26 -56 105 -92z" />
    <glyph glyph-name="uni019B" unicode="&#x19b;" horiz-adv-x="1060" 
d="M74 1382q0 64 48 113t144 49q60 0 107 -21.5t80.5 -63t55.5 -84t44 -101.5q5 -18 8 -23l258 170v-86l-233 -153q106 -316 156 -444q47 -122 102 -271q53 -147 92 -233q32 -70 71 -108t105 -38h39v-10q-29 -40 -82.5 -70.5t-99.5 -30.5q-92 1 -137.5 51t-70.5 148
q-25 102 -54 309q-29 208 -48 275l-266 -594q-14 -30 -25 -52q-15 -27 -22 -50q-7 -22 -27 -64h-344l572 1075l-27 64l-321 -213v86l288 190q-11 18 -34 49l-226 -24q-67 0 -110 44t-43 111z" />
    <glyph glyph-name="uni019C" unicode="&#x19c;" horiz-adv-x="1925" 
d="M1456 -25h-8v166q-65 -67 -160.5 -115t-181.5 -49q-206 0 -270 177q-57 -62 -166 -120t-224 -58q-114 0 -194 86q-80 88 -80 270v803q0 122 -26 179t-105 91v8h549v-8q-80 -35 -106 -91q-26 -58 -25 -179v-818q0 -91 47.5 -143.5t136.5 -52.5q86 0 188 51q-23 75 -22 160
v803q0 122 -26 179t-105 91v8h549v-8q-80 -35 -106 -91q-26 -58 -25 -179v-818q0 -91 42.5 -143.5t131.5 -52.5q83 0 174 47v967q0 122 -26 179t-105 91v8h549v-8q-80 -35 -106 -91q-26 -58 -25 -179v-781q-2 -137 27 -188q28 -51 126 -90v-8q-181 -12 -428 -93z" />
    <glyph glyph-name="uni019D" unicode="&#x19d;" horiz-adv-x="1677" 
d="M1456 958v-968h-133l-987 1175v-1253q0 -402 -275 -404q-92 0 -165 56q-72 56 -72 122q0 62 38.5 105t99.5 43q57 0 94.5 -34t37.5 -91q0 -101 -96 -151q27 -8 57 -9q91 2 128 84q38 84 38 248v1288q0 171 -194 236v8h465l849 -991v536q0 237 -35 322q-36 85 -139 125v8
h463v-8q-71 -28 -106 -68q-66 -77 -68 -379z" />
    <glyph glyph-name="uni019E" unicode="&#x19e;" horiz-adv-x="1312" 
d="M1141 713v-1184h-287v1198q0 89 -54.5 143t-143.5 54q-83 0 -175 -47v-598q0 -122 26 -179q26 -56 105 -92v-8h-549v8q80 35 106 91q26 57 26 180v411q0 136 -28 188t-126 91v8q179 12 428 92h8v-166q67 67 167.5 115t189.5 49q136 0 221 -85q86 -86 86 -269z" />
    <glyph glyph-name="uni019F" unicode="&#x19f;" horiz-adv-x="1775" 
d="M886 1360q-93 0 -170.5 -35t-130 -92.5t-90 -135t-56.5 -159.5t-23 -168h944q-6 87 -25 168t-57.5 159t-91 135.5t-130 92.5t-170.5 35zM887 53q209 -1 339 177t136 450h-948q6 -272 135 -450q129 -179 338 -177zM1690 705q0 -163 -72 -305q-70 -139 -192 -237.5
t-266.5 -145.5t-302.5 -47q-172 0 -353 86q-181 87 -299 258q-119 172 -119 391q0 160 72 301q106 208 310 322t444 114q169 0 352 -89q182 -89 304 -262t122 -386z" />
    <glyph glyph-name="Ohorn" unicode="&#x1a0;" horiz-adv-x="1775" 
d="M544 238q130 -183 343 -185t344 185t131 470q0 284 -129 468t-346 184q-218 0 -345 -184q-128 -185 -128 -469q0 -285 130 -469zM86 705q0 160 72 301q136 267 442 383q144 53 287 53q68 0 241 -14q166 -14 243 -15q77 0 77 35q0 22 -42 66q-42 43 -42 94q0 53 36.5 85.5
t90.5 32.5q55 0 106 -42q50 -42 52 -117q1 -116 -69.5 -163t-190.5 -47q-76 0 -175 15q474 -235 476 -667q0 -163 -72 -305q-70 -139 -192 -237.5t-266.5 -145.5t-302.5 -47q-172 0 -353 86q-181 87 -299 258q-119 172 -119 391z" />
    <glyph glyph-name="ohorn" unicode="&#x1a1;" horiz-adv-x="1247" 
d="M623 37q63 0 110.5 36.5t73.5 89t42 123.5t20.5 127.5t4.5 113.5q0 54 -5.5 110.5t-22.5 125.5t-43 121.5t-73 88t-108 35.5q-121 0 -185 -136q-65 -139 -64 -350q0 -281 103 -411q59 -74 147 -74zM623 1069h20q62 -1 172 -15q114 -14 187 -14q79 0 77 35q0 23 -42 67
t-42 94q0 54 38 86t93 32q57 0 106 -41q48 -41 48 -119q0 -105 -92 -164q-60 -38 -169 -39q-59 0 -126 10q94 -62 149.5 -119t97.5 -146q46 -96 46 -214q0 -152 -77 -278t-206 -197.5t-280 -71.5q-229 0 -396 159q-166 157 -166 392q1 234 169 388q167 153 393 155z" />
    <glyph glyph-name="uni01A2" unicode="&#x1a2;" horiz-adv-x="2099" 
d="M866 1360q-195 0 -320 -195q-124 -194 -124 -471q0 -275 137 -462q136 -186 327 -184q190 0 285 63v1210q-174 39 -305 39zM2071 -463v-8h-562v8q95 44 120 97q26 55 26 173v1397q0 117 -80 117h-113v-1258q-211 -73 -435 -88q-67 -4 -208 -4q-147 -1 -284.5 55
t-239.5 151t-163.5 229.5t-61.5 281.5q0 301 233 528q232 226 547 226q84 0 268 -27t274 -27t271 15q181 13 264 39h31v-1635q0 -117 20 -174q20 -55 93 -96z" />
    <glyph glyph-name="uni01A3" unicode="&#x1a3;" horiz-adv-x="1705" 
d="M1681 -463v-8h-567v8q95 44 120 97q26 55 26 173v984q0 58 -20 87.5t-60 28.5h-39v-422q0 -245 -163 -377q-164 -132 -382 -132q-220 0 -384 151q-165 153 -165 401t167 394q166 145 388 147q108 0 250 -43t261 -43q104 0 232.5 22t192.5 64h31v-1262q0 -117 20 -174
q19 -55 92 -96zM827 483v471q-37 21 -107.5 36.5t-117.5 15.5q-94 0 -159 -129q-65 -130 -65 -351q0 -223 61 -355q59 -132 159 -132q99 -1 164 115q63 114 65 329z" />
    <glyph glyph-name="uni01A4" unicode="&#x1a4;" horiz-adv-x="1484" 
d="M696 1341v-655h103q151 0 236 93.5t83 248.5q0 130 -70 221q-71 92 -233 92h-119zM891 8v-8h-662v8q53 19 85.5 43.5t48.5 61t21 73.5t5 97v759q0 204 -49 268q-47 64 -166 64q-30 0 -57 -8q39 -19 69 -61q29 -41 27 -95q0 -54 -38.5 -87t-93.5 -33q-62 0 -100 43
t-38 105q0 67 71 121q72 54 166 54h692q62 0 115.5 -4t110.5 -15t102.5 -29t87.5 -48t70 -69t44.5 -94.5t16.5 -123.5q0 -416 -565 -416h-158v-331q0 -121 41 -179.5t154 -95.5z" />
    <glyph glyph-name="uni01A5" unicode="&#x1a5;" horiz-adv-x="1312" 
d="M608 33q142 0 243 125q99 124 99 354q0 179 -91 292q-91 114 -220 114q-87 -2 -168 -56v-794q67 -35 137 -35zM629 -463v-8h-584v8q80 35 106 91q26 58 25 179v1334q0 196 134 300q133 103 321 103q95 0 166 -55q71 -56 71 -121q0 -63 -39 -106t-102 -43
q-56 0 -92.5 34.5t-36.5 89.5q0 103 96 152q-29 8 -57 8q-91 -2 -128 -84q-38 -84 -38 -248v-278q170 176 355 176q100 0 181 -41t132 -110t78 -156.5t26 -183.5q0 -165 -80.5 -298.5t-226.5 -212.5q-166 -92 -338 -92q-78 0 -127 9v-177q0 -47 3 -78t12 -63t26 -53.5
t46 -41t71 -34.5z" />
    <glyph glyph-name="uni01A6" unicode="&#x1a6;" horiz-adv-x="1398" 
d="M524 1096v-594h76q342 0 342 301q0 128 -72 210.5t-198 82.5h-148zM1503 -311v-8h-186h-14q-197 0 -253 27q-57 28 -137 171l-303 557h-86v-153q0 -119 30 -178.5t130 -96.5v-8h-627v8q53 19 85.5 43.5t48.5 61t21 73.5t5 97v847q0 119 -29.5 179t-130.5 96v8h627v-8
q-90 -33 -122.5 -85t-37.5 -153h146q293 0 437 -84t144 -270q0 -150 -125 -227q-110 -69 -243 -97l385 -598q84 -115 124 -151t111 -51z" />
    <glyph glyph-name="uni01A7" unicode="&#x1a7;" horiz-adv-x="1112" 
d="M1020 430h8v-371q-74 -39 -190 -65q-120 -26 -222 -25q-227 0 -368 117q-140 117 -142 297q0 94 47 179.5t126 143.5q142 105 319 210q74 44 123 108t49 139t-56 136q-55 59 -147 61q-203 0 -379 -318h-8v318q201 82 382 82q179 0 325 -110q145 -109 145 -281
q0 -108 -65.5 -199.5t-168.5 -159.5q-82 -55 -194 -124q-236 -148 -235 -292q-1 -95 71 -160t168 -63q211 0 412 377z" />
    <glyph glyph-name="uni01A8" unicode="&#x1a8;" horiz-adv-x="868" 
d="M478 -25q-64 1 -124 13t-115.5 38.5t-97 64.5t-66 94.5t-24.5 125.5q1 94 53.5 170.5t138.5 120.5q79 40 159 75q192 83 192 181q0 69 -43.5 109.5t-112.5 40.5q-130 0 -303 -260h-8v266q146 55 302 55q71 0 138 -22t121 -61.5t87 -101.5t34 -136q0 -92 -50 -166
t-136 -118q-60 -31 -155 -74q-79 -36 -131 -79q-54 -45 -54 -115q0 -74 49.5 -116.5t124.5 -42.5q170 0 348 313h10l-10 -309q-143 -66 -327 -66z" />
    <glyph glyph-name="uni01A9" unicode="&#x1a9;" 
d="M1036 0h-1013v8l532 606l-530 789v10h1032v-289h-8q-77 140 -131 174q-56 35 -168 35h-353l396 -559v-14l-476 -541h424q111 0 168 26q54 25 174 148h9z" />
    <glyph glyph-name="uni01AA" unicode="&#x1aa;" horiz-adv-x="884" 
d="M317 -88v1294q-50 -43 -129 -43q-77 0 -130.5 56.5t-53.5 134.5q0 85 58 137.5t143 52.5q152 0 279 -100q128 -101 128 -260v-1303q0 -164 38 -248q37 -82 128 -84q31 0 58 9q-96 49 -97 151q0 57 37.5 91t94.5 34q60 0 99.5 -43.5t39.5 -104.5q0 -66 -72 -122
q-71 -54 -166 -56q-186 0 -320 104t-135 300zM317 1354q0 52 -34.5 87.5t-86.5 35.5q-51 0 -86.5 -35.5t-35.5 -86.5q0 -50 36 -86t86 -36q51 0 86 35t35 86z" />
    <glyph glyph-name="uni01AB" unicode="&#x1ab;" horiz-adv-x="733" 
d="M541 -160v154q-39 -10 -74 -10q-297 0 -297 315v635h-174v12q259 107 446 363h15v-265h266v-124h-266v-607q0 -82 45 -135t125 -53q76 0 131 37l8 -10v-281q0 -362 -352 -363q-85 0 -152 50q-66 50 -66 111q0 56 35.5 94.5t90.5 38.5q50 0 85 -30t35 -79q0 -46 -23.5 -84
t-64.5 -55q27 -8 54 -9q82 3 108 65q26 64 25 230z" />
    <glyph glyph-name="uni01AC" unicode="&#x1ac;" horiz-adv-x="1380" 
d="M1006 8v-8h-627v8q53 19 85.5 43.5t48.5 61t21 73.5t5 97v1048h-263q-91 0 -118 -8q96 -49 96 -152q0 -57 -37.5 -91t-94.5 -34q-56 0 -97 41t-41 97q0 229 331 229h981l33 -360h-10q-154 199 -209 239q-55 39 -188 39h-76v-1048q0 -119 30 -178.5t130 -96.5z" />
    <glyph glyph-name="uni01AD" unicode="&#x1ad;" horiz-adv-x="733" 
d="M467 -16q-297 0 -297 315v635h-174v12q86 39 154 107v129q0 76 23.5 137.5t64.5 103t97 69t119 40t133 12.5q82 0 149 -50t65 -110q0 -56 -35.5 -94.5t-90.5 -38.5q-49 0 -84.5 30.5t-35.5 78.5q0 45 23.5 83t64.5 56q-29 8 -53 8q-82 -1 -108 -64q-26 -64 -25 -231v-168
h266v-124h-266v-607q0 -82 45 -135t125 -53q76 0 131 37l8 -10q-51 -71 -134 -119.5t-165 -48.5z" />
    <glyph glyph-name="uni01AE" unicode="&#x1ae;" horiz-adv-x="1380" 
d="M539 -88v1419h-76q-133 0 -187 -39q-53 -38 -210 -239h-9l33 360h1206l33 -360h-10q-154 199 -209 239q-55 39 -188 39h-76v-1450q0 -164 38 -248q37 -82 128 -84q32 0 57 9q-96 50 -96 151q0 57 37.5 91t94.5 34q61 0 99.5 -43t38.5 -105q0 -66 -72 -122
q-71 -54 -165 -56q-188 0 -328 104t-139 300z" />
    <glyph glyph-name="Uhorn" unicode="&#x1af;" horiz-adv-x="1605" 
d="M1274 395v563q0 302 -76 381q-34 37 -108 66v8h387q94 0 94 35q0 22 -42 66q-42 43 -42 94q0 53 36.5 85.5t90.5 32.5q55 0 106 -42q50 -42 52 -117q0 -61 -19 -102.5t-56 -63t-80 -30t-103 -8.5q-29 0 -44 1q-83 -80 -81 -406v-569q0 -93 -34 -167t-89 -121t-131 -77.5
t-155 -43t-165 -11.5q-86 0 -166.5 12t-160.5 42.5t-139 77t-95.5 120.5t-36.5 168v746q0 59 -5 96t-21 72t-48.5 59t-85.5 43v8h627v-8q-53 -19 -85.5 -43t-48.5 -59t-21 -72t-5 -96v-775q0 -127 89 -204q88 -76 269 -76q81 0 149 17t124 53t87.5 98.5t31.5 146.5z" />
    <glyph glyph-name="uhorn" unicode="&#x1b0;" horiz-adv-x="1257" 
d="M821 -25h-8v170q-88 -76 -171 -123t-171 -47q-126 0 -209 78q-82 78 -82 258v379q0 136 -27 189q-29 51 -126 90v8q184 12 432 92h8v-721q0 -106 60 -156q62 -50 139 -51q78 0 143 33v516q0 136 -28 188t-126 91v8q484 28 486 98q0 23 -42 67t-42 94q0 53 37 85.5
t90 32.5q55 0 106 -42t51 -118q0 -181 -245 -195v-645q0 -138 28 -188q29 -52 125 -90v-8q-198 -18 -428 -93z" />
    <glyph glyph-name="uni01B1" unicode="&#x1b1;" horiz-adv-x="1683" 
d="M954 1405v8h578l41 -354h-8q-62 79 -89 105q-30 29 -64.5 37.5t-86.5 8.5h-156q43 -68 128 -154q55 -56 143 -144q73 -73 114 -166t41 -194q1 -120 -77 -237t-189 -187q-111 -71 -239 -114t-248 -43q-114 0 -244 42q-299 98 -434 306q-76 116 -76 233q0 100 41 194.5
t114 164.5q216 213 271 299h-156q-52 0 -86.5 -9t-63.5 -38q-32 -32 -89 -104h-8l41 354h577v-8q-133 -187 -226 -409t-93 -442q0 -102 27.5 -191t79.5 -158.5t136 -110t189 -40.5t189 40.5t136 110t79.5 158.5t27.5 191q0 220 -93 442q-92 219 -227 409z" />
    <glyph glyph-name="uni01B2" unicode="&#x1b2;" horiz-adv-x="1525" 
d="M203 397v738q0 118 -26 173q-25 53 -120 97v8h637v-8q-100 -46 -142 -104.5t-42 -165.5v-766q0 -145 96.5 -217.5t245.5 -72.5q207 0 305 152q92 143 119 347q28 208 29 471q-2 140 -53 233q-52 94 -175 100q102 -43 103 -139q0 -64 -42.5 -103.5t-107.5 -39.5
q-66 0 -110 44t-43 120q0 62 40.5 104t94.5 58t114 16q117 0 202 -106t85 -298q0 -464 -61 -662q-62 -200 -177 -291q-152 -116 -378 -116q-96 -1 -176.5 9t-160.5 39t-135 75.5t-89 124t-33 180.5z" />
    <glyph glyph-name="uni01B3" unicode="&#x1b3;" horiz-adv-x="1562" 
d="M1184 8v-8h-627v8q101 36 130.5 96t29.5 179v340l-234 428q-37 68 -113.5 175t-121.5 146q57 -127 -22 -209q-44 -45 -112 -45q-72 0 -117.5 44.5t-45.5 116.5q0 56 39 94.5t89.5 53.5t104.5 15q101 0 144 -4q62 -6 127 -29t109 -59q122 -96 224 -299l177 -349l155 328
q90 202 76 274q-14 71 -131 101v8h489v-8q-87 -26 -154 -105q-68 -80 -171 -276l-205 -399v-342q0 -60 5 -97t21 -73.5t48.5 -61t85.5 -43.5z" />
    <glyph glyph-name="uni01B4" unicode="&#x1b4;" horiz-adv-x="1353" 
d="M8 1036v8h567v-10q-113 -23 -113 -110q0 -46 52 -215l168 -535l129 406q91 289 178 390q85 99 232 99q67 0 118 -44.5t51 -110.5q0 -64 -42.5 -109t-105.5 -45q-67 0 -112 51t-47 119q-38 -34 -75 -106q-35 -68 -105 -259l-233 -661q-13 -37 -23 -63t-29 -70.5
t-36.5 -76.5t-43.5 -69.5t-52 -61t-59.5 -39.5t-68.5 -16q-77 0 -131.5 35t-54.5 107q0 60 37.5 101.5t96.5 41.5q62 0 99 -44.5t37 -108.5q42 30 73 87q31 59 87 201l27 72h-164l-246 702q-70 198 -105 256q-36 57 -106 78z" />
    <glyph glyph-name="uni01B5" unicode="&#x1b5;" horiz-adv-x="1210" 
d="M1128 0h-1083v8l379 670h-383v108h444l310 545h-254q-140 0 -219 -41q-76 -40 -240 -217h-8l41 340h1034v-8l-346 -619h366v-108h-428l-331 -596h278q175 0 233 34q57 33 209 222q4 8 15 18q8 9 14 19h10z" />
    <glyph glyph-name="uni01B6" unicode="&#x1b6;" horiz-adv-x="1064" 
d="M971 0h-914v8l283 469h-299v109h365l233 385h-193q-72 0 -100 -19q-60 -36 -126 -96q-4 -4 -21 -20t-31 -29q-61 -56 -62 -57h-10l41 294h844v-10l-266 -448h309v-109h-373l-239 -405h235q84 0 143 41q53 37 214 190h8z" />
    <glyph glyph-name="uni01B7" unicode="&#x1b7;" 
d="M672 1176h-543v237h834v-8l-349 -451q180 -40 305 -171t125 -308q0 -221 -186 -363q-185 -141 -416 -143q-170 0 -271 69t-101 179q0 71 49 117.5t120 46.5q68 0 117.5 -44t49.5 -111q0 -58 -30 -104.5t-83 -72.5q53 -23 104 -22q149 0 250 81t101 250q0 168 -122 260
q-121 91 -280 103l-10 16z" />
    <glyph glyph-name="uni01B8" unicode="&#x1b8;" 
d="M550 618q-122 -92 -122 -260t100 -250q100 -81 250 -81q54 0 105 22q-53 26 -83 72.5t-30 104.5q0 67 49.5 111t117.5 44q71 0 120 -46.5t49 -117.5q0 -55 -24.5 -99t-62.5 -71t-88.5 -45t-99 -25.5t-98.5 -7.5q-230 2 -415 143q-185 142 -187 363q0 177 125 308t305 171
l-348 451v8h834v-237h-543l336 -439l-11 -16q-156 -10 -279 -103z" />
    <glyph glyph-name="uni01B9" unicode="&#x1b9;" horiz-adv-x="1046" 
d="M383 -11q0 -169 100 -250q101 -81 250 -81q51 0 105 23q-53 26 -83 71.5t-30 103.5q0 67 49.5 111.5t117.5 44.5q71 0 120 -46.5t49 -117.5q1 -112 -101 -180q-101 -67 -272 -67q-229 0 -416 142q-186 143 -186 363q0 177 125 307.5t305 172.5l-348 450v8h833v-237h-542
l336 -438l-11 -17q-159 -12 -280 -103q-122 -92 -121 -260z" />
    <glyph glyph-name="uni01BA" unicode="&#x1ba;" horiz-adv-x="1005" 
d="M773 -299q-125 -129 -297 -129q-82 0 -157 22.5t-135 65.5t-95.5 112t-35.5 155q0 168 94 244q95 77 328 105q162 20 162 134q0 84 -72 114q-71 29 -250 29v41l256 248h-493v202h846v-43l-381 -387q179 -16 255 -63q76 -46 76 -141q0 -93 -86 -146q-84 -50 -305 -76
q-82 -8 -137 -65t-55 -138q0 -80 61 -141q62 -62 175 -61q123 1 220 73t146 189h14q-11 -216 -134 -344z" />
    <glyph glyph-name="uni01BB" unicode="&#x1bb;" 
d="M1006 0h-912v53l428 527q49 63 74 98h-555v108h616q68 138 68 258q0 119 -77.5 208t-194.5 89q-67 -2 -132.5 -26t-103.5 -70h16q82 0 142.5 -48.5t60.5 -128.5q0 -74 -47 -122.5t-121 -48.5q-79 0 -127.5 56.5t-48.5 136.5q0 127 140 240q139 112 337 112
q86 0 166 -22.5t146 -65.5t105.5 -115t39.5 -162q0 -136 -149 -291h251v-108h-366q-208 -186 -291 -285l-127 -151h690z" />
    <glyph glyph-name="uni01BC" unicode="&#x1bc;" 
d="M954 1413v-237h-688v-396q156 62 340 62q189 0 314 -112.5t124 -299.5q0 -169 -105 -277.5t-280 -156.5q-96 -27 -188 -27q-51 0 -99.5 6t-101 23t-91.5 43t-64 70t-25 100q0 71 50 118.5t121 47.5t117 -45.5t46 -116.5q0 -109 -107 -172q53 -18 107 -18q137 0 230 99
q94 98 94 262q0 151 -73.5 237t-221.5 86h-277v426q0 59 -5 96t-21 72t-48.5 59t-85.5 43v8h938z" />
    <glyph glyph-name="uni01BD" unicode="&#x1bd;" horiz-adv-x="1009" 
d="M856 1044v-231h-600v-260q120 59 295 59q76 0 142 -18t119.5 -53.5t85 -96t32.5 -139.5q0 -92 -43.5 -163.5t-125.5 -107.5q-144 -62 -335 -64q-190 -1 -284 60q-94 62 -93 165q0 64 45 106.5t110 42.5q61 0 103.5 -38.5t42.5 -99.5q0 -50 -25 -93.5t-69 -69.5
q46 -18 111 -18q142 0 212.5 60t69.5 181q0 213 -254 213h-235v287q0 59 -5 96t-21 72t-48.5 59t-85.5 43v8h856z" />
    <glyph glyph-name="uni01BE" unicode="&#x1be;" horiz-adv-x="960" 
d="M522 37q75 0 124.5 42.5t49.5 116.5q0 70 -54 115q-52 43 -131 79q-95 43 -155 74q-86 44 -136 118t-50 166v186h-174v12q259 107 446 363h15v-265h266v-124h-266v-62q0 -50 35.5 -90t86.5 -65q129 -65 227 -135q59 -42 90.5 -111t31.5 -146q0 -68 -24.5 -125t-65.5 -95
t-96.5 -64.5t-115.5 -38.5t-124 -12q-183 0 -328 65l-10 309h10q178 -313 348 -313z" />
    <glyph glyph-name="uni01BF" unicode="&#x1bf;" horiz-adv-x="1312" 
d="M700 918q-42 0 -120.5 -18t-108.5 -38v-897q124 50 210.5 107.5t149 137t91.5 184t28 241.5q0 122 -65.5 202.5t-184.5 80.5zM176 -193v883q0 136 -28 188t-125 91v8q213 19 440 92h8v-176q51 53 173 113q125 62 235 63q164 0 264 -103t100 -250q0 -191 -70 -325.5
t-223 -247.5q-88 -66 -165 -103q-265 -129 -314 -159v-243l-426 -109v8q80 35 106 91q26 58 25 179z" />
    <glyph glyph-name="clickdental" unicode="&#x1c0;" horiz-adv-x="409" 
d="M248 1544v-1780h-78v1780h78z" />
    <glyph glyph-name="clicklateral" unicode="&#x1c1;" horiz-adv-x="819" 
d="M657 1544v-1780h-77v1780h77zM248 1544v-1780h-78v1780h78z" />
    <glyph glyph-name="uni01C2" unicode="&#x1c2;" horiz-adv-x="571" 
d="M340 467v-467h-109v467h-211v111h211v196h-211v109h211v503h109v-503h213v-109h-213v-196h213v-111h-213z" />
    <glyph glyph-name="uni01C3" unicode="&#x1c3;" horiz-adv-x="542" 
d="M442 143q0 -72 -49 -119.5t-121 -47.5t-120 48t-50 120q0 70 50 118.5t120 48.5q72 0 121 -48t49 -120zM98 1413h346q0 -203 -76 -531q-75 -323 -89 -472h-15q-12 140 -89 473q-77 332 -77 530z" />
    <glyph glyph-name="uni01C4" unicode="&#x1c4;" horiz-adv-x="2703" 
d="M2404 1884l-200 -278h-117l-197 278h17l239 -108l242 108h16zM2621 0h-1083v8l750 1323h-254q-140 0 -219 -41q-76 -40 -240 -217h-8l41 340h1034v-8l-739 -1323h278q175 0 233 34q57 33 209 222q5 8 15 18q8 9 14 19h10zM729 0h-672v8q53 19 85.5 43.5t48.5 61t21 73.5
t5 97v852q0 59 -5 96t-21 72t-48.5 59t-85.5 43v8h697q130 0 251 -24.5t230 -78t189.5 -130.5t127 -190t45.5 -249q1 -333 -251 -537t-617 -204zM524 1331v-1249h201q256 0 400 181q145 181 145 455t-146 444q-145 169 -374 169h-226z" />
    <glyph glyph-name="uni01C5" unicode="&#x1c5;" horiz-adv-x="2609" 
d="M2306 1442l-201 -279h-116l-197 279h16l240 -109l242 109h16zM2515 0h-913v8l581 963h-192q-73 0 -101 -19q-60 -36 -126 -96q-4 -4 -21 -20t-31 -29q-11 -10 -61 -57h-11l41 294h844v-10l-569 -962h235q84 0 143 41q53 37 214 190h8zM729 0h-672v8q53 19 85.5 43.5
t48.5 61t21 73.5t5 97v852q0 59 -5 96t-21 72t-48.5 59t-85.5 43v8h697q130 0 251 -24.5t230 -78t189.5 -130.5t127 -190t45.5 -249q1 -333 -251 -537t-617 -204zM524 1331v-1249h201q256 0 400 181q145 181 145 455t-146 444q-145 169 -374 169h-226z" />
    <glyph glyph-name="uni01C6" unicode="&#x1c6;" horiz-adv-x="2291" 
d="M1991 1450l-201 -279h-117l-196 279h16l240 -109l241 109h17zM2198 0h-914v8l582 963h-193q-71 0 -101 -19q-57 -34 -125 -96q-4 -4 -21 -20t-31 -29q-61 -56 -62 -57h-10l41 294h844v-10l-570 -962h236q83 0 142 41q53 37 214 190h8zM645 1008q-117 0 -208 -129
q-91 -128 -91 -323q0 -194 102 -304t244 -111q72 0 133 31v725q-85 111 -180 111zM834 -25h-9v175q-163 -173 -362 -175q-157 -1 -285 135q-127 136 -127 357q0 181 94 321q89 133 225 207t294 74q66 0 161 -16v112q0 137 -28 189q-29 51 -135 90v8q207 13 450 92h8v-1190
q0 -138 28 -188q28 -51 126 -90v-8q-215 -20 -440 -93z" />
    <glyph glyph-name="uni01C7" unicode="&#x1c7;" horiz-adv-x="1746" 
d="M1223 -12v1147q0 59 -5 96t-21 72t-48.5 59t-85.5 43v8h627v-8q-53 -19 -85.5 -43t-48.5 -59t-21 -72t-5 -96v-1026q0 -80 -28.5 -153t-73.5 -128.5t-109.5 -105t-128.5 -84.5t-139 -66l-4 6q176 107 176 410zM1098 0h-1041v8q53 19 85.5 43t48.5 59t21 72t5 97v856
q0 59 -5 96t-21 72t-48.5 59t-85.5 43v8h627v-8q-53 -19 -85.5 -43t-48.5 -59t-21 -72t-5 -96v-1053h162q146 0 217 46q74 47 225 245h11z" />
    <glyph glyph-name="uni01C8" unicode="&#x1c8;" horiz-adv-x="1646" 
d="M1194 -55v745q0 136 -28 188t-126 91v8q191 13 439 92h8v-1001q0 -89 -32 -178t-89 -155q-117 -139 -336 -227l-6 13q61 37 101 114.5t54.5 154.5t14.5 155zM1493 1309q0 -64 -45.5 -109t-109.5 -45t-109 44.5t-45 108.5t44.5 109t108.5 45t109 -44.5t47 -108.5zM1098 0
h-1041v8q53 19 85.5 43t48.5 59t21 72t5 97v856q0 59 -5 96t-21 72t-48.5 59t-85.5 43v8h627v-8q-53 -19 -85.5 -43t-48.5 -59t-21 -72t-5 -96v-1053h162q146 0 217 46q74 47 225 245h11z" />
    <glyph glyph-name="uni01C9" unicode="&#x1c9;" horiz-adv-x="1210" 
d="M758 -55v745q0 136 -28 188t-126 91v8q191 13 438 92h9v-1001q0 -89 -32 -178t-89 -155q-117 -139 -336 -227l-6 13q61 37 101 114.5t54.5 154.5t14.5 155zM1057 1309q0 -64 -45.5 -109t-109.5 -45t-109 44.5t-45 108.5t44.5 109t108.5 45t109 -44.5t47 -108.5zM602 8v-8
h-557v8q80 35 106 91q26 58 25 180v886q0 137 -28 189q-29 53 -125 90v8q195 13 440 92h8v-1265q0 -122 26 -179q26 -56 105 -92z" />
    <glyph glyph-name="uni01CA" unicode="&#x1ca;" horiz-adv-x="2359" 
d="M1835 -10v1147q0 59 -5 96t-21 72t-48.5 59t-85.5 43v8h627v-8q-53 -19 -85.5 -43t-48.5 -59t-21 -72t-5 -96v-1026q0 -80 -28.5 -153t-73.5 -128.5t-109.5 -105t-128.5 -84.5t-139 -66l-4 6q176 107 176 410zM1456 958v-968h-133l-987 1175v-706q0 -304 70 -383
q35 -41 104 -68v-8h-463v8q71 27 105 67q69 79 69 384v710q0 171 -194 236v8h465l849 -991v536q0 237 -35 322q-36 85 -139 125v8h463v-8q-71 -28 -106 -68q-66 -77 -68 -379z" />
    <glyph glyph-name="uni01CB" unicode="&#x1cb;" horiz-adv-x="2160" 
d="M1708 -55v745q0 136 -28 188t-126 91v8q191 13 439 92h8v-1001q0 -89 -32 -178t-89 -155q-117 -139 -336 -227l-6 13q61 37 101 114.5t54.5 154.5t14.5 155zM2007 1309q0 -64 -45.5 -109t-109.5 -45t-109 44.5t-45 108.5t44.5 109t108.5 45t109 -44.5t47 -108.5z
M1456 958v-968h-133l-987 1175v-706q0 -304 70 -383q35 -41 104 -68v-8h-463v8q71 27 105 67q69 79 69 384v710q0 171 -194 236v8h465l849 -991v536q0 237 -35 322q-36 85 -139 125v8h463v-8q-71 -28 -106 -68q-66 -77 -68 -379z" />
    <glyph glyph-name="uni01CC" unicode="&#x1cc;" horiz-adv-x="1808" 
d="M1356 -55v745q0 136 -28 188t-126 91v8q191 13 438 92h9v-1001q0 -89 -32 -178t-89 -155q-117 -139 -336 -227l-6 13q61 37 101 114.5t54.5 154.5t14.5 155zM1655 1309q0 -64 -45.5 -109t-109.5 -45t-109 44.5t-45 108.5t44.5 109t108.5 45t109 -44.5t47 -108.5zM1272 8
v-8h-549v8q79 34 105 91t26 180v448q0 89 -54.5 143t-143.5 54q-83 0 -175 -47v-598q0 -122 26 -179q26 -56 105 -92v-8h-549v8q80 35 106 91q26 57 26 180v411q0 136 -28 188t-126 91v8q179 12 428 92h8v-166q67 67 167.5 115t189.5 49q136 0 221 -85q86 -86 86 -269v-434
q0 -124 25 -180q26 -56 106 -91z" />
    <glyph glyph-name="uni01CD" unicode="&#x1cd;" horiz-adv-x="1521" 
d="M1016 1810l-201 -278h-117l-196 278h16l240 -108l241 108h17zM461 598h432l-215 655zM1518 8v-8h-613v8q65 15 88 46t23 100q0 77 -94 356h-490q-78 -241 -78 -329q0 -82 31.5 -117.5t114.5 -55.5v-8h-496v8q68 22 110 65q79 84 218 484l295 856h291l344 -997
q76 -218 129 -298q51 -78 127 -110z" />
    <glyph glyph-name="uni01CE" unicode="&#x1ce;" horiz-adv-x="1071" 
d="M778 1454l-200 -278h-117l-197 278h17l239 -108l242 108h16zM809 -20q-70 0 -117.5 36t-54.5 103q-162 -143 -315 -144q-113 0 -190 67.5t-77 178.5q-2 135 147 239t433 134v119q0 122 -69 201.5t-189 80.5q-76 0 -148 -45q61 -12 99 -51q38 -40 37 -93
q0 -55 -41.5 -93.5t-97.5 -38.5t-97 38.5t-41 94.5q0 109 135 185q133 75 309 77q389 0 390 -367v-426q0 -103 34.5 -143t135.5 -51v-8q-155 -94 -283 -94zM580 526q-100 0 -168 -50t-68 -169q0 -82 59 -133q58 -51 121 -51q62 0 111 27v370q-28 6 -55 6z" />
    <glyph glyph-name="uni01CF" unicode="&#x1cf;" horiz-adv-x="741" 
d="M627 1810l-201 -278h-117l-196 278h16l240 -108l241 108h17zM684 8v-8h-627v8q53 19 85.5 43t48.5 59t21 72t5 97v856q0 59 -5 96t-21 72t-48.5 59t-85.5 43v8h627v-8q-53 -19 -85.5 -43t-48.5 -59t-21 -72t-5 -96v-856q0 -118 29.5 -176t130.5 -95z" />
    <glyph glyph-name="uni01D0" unicode="&#x1d0;" horiz-adv-x="653" 
d="M565 1464l-200 -278h-117l-197 278h17l239 -108l242 108h16zM612 8v-8h-549v8q80 35 106 91q26 57 26 180v411q0 136 -28 188t-126 91v8q184 12 432 92h8v-790q0 -122 26 -179q26 -56 105 -92z" />
    <glyph glyph-name="uni01D1" unicode="&#x1d1;" horiz-adv-x="1775" 
d="M1145 1810l-201 -278h-117l-196 278h16l240 -108l241 108h17zM1690 705q0 -163 -72 -305q-70 -139 -192 -237.5t-266.5 -145.5t-302.5 -47q-172 0 -353 86q-181 87 -299 258q-119 172 -119 391q0 160 72 301q106 208 310 322t444 114q169 0 352 -89q182 -89 304 -262
t122 -386zM544 238q130 -183 343 -185t344 185t131 470q0 284 -129 468t-346 184q-218 0 -345 -184q-128 -185 -128 -469q0 -285 130 -469z" />
    <glyph glyph-name="uni01D2" unicode="&#x1d2;" horiz-adv-x="1247" 
d="M881 1470l-201 -278h-117l-196 278h16l240 -108l241 108h17zM623 37q63 0 110.5 36.5t73.5 89t42 123.5t20.5 127.5t4.5 113.5q0 54 -5.5 110.5t-22.5 125.5t-43 121.5t-73 88t-108 35.5q-121 0 -185 -136q-65 -139 -64 -350q0 -281 103 -411q59 -74 147 -74zM227 134
q-166 157 -166 392q0 234 168 388q168 153 395 155q227 -2 394 -155q168 -154 168 -388t-167 -392q-167 -159 -396 -159t-396 159z" />
    <glyph glyph-name="uni01D3" unicode="&#x1d3;" horiz-adv-x="1605" 
d="M1098 1810l-201 -278h-117l-196 278h16l240 -108l241 108h17zM1274 395v563q0 302 -76 381q-34 37 -108 66v8h483v-8q-74 -29 -109 -65q-75 -76 -75 -382v-569q0 -93 -34 -167t-89 -121t-131 -77.5t-155 -43t-165 -11.5q-86 0 -166.5 12t-160.5 42.5t-139 77t-95.5 120.5
t-36.5 168v746q0 59 -5 96t-21 72t-48.5 59t-85.5 43v8h627v-8q-53 -19 -85.5 -43t-48.5 -59t-21 -72t-5 -96v-775q0 -127 89 -204q88 -76 269 -76q81 0 149 17t124 53t87.5 98.5t31.5 146.5z" />
    <glyph glyph-name="uni01D4" unicode="&#x1d4;" horiz-adv-x="1257" 
d="M883 1456l-201 -278h-117l-196 278h16l240 -108l241 108h17zM821 -25h-8v170q-88 -76 -171 -123t-171 -47q-126 0 -209 78q-82 78 -82 258v379q0 136 -27 189q-29 51 -126 90v8q184 12 432 92h8v-721q0 -106 60 -156q62 -50 139 -51q78 0 143 33v516q0 136 -28 188
t-126 91v8q184 12 432 92h9v-715q0 -138 28 -188q29 -52 125 -90v-8q-198 -18 -428 -93z" />
    <glyph glyph-name="uni01D5" unicode="&#x1d5;" horiz-adv-x="1605" 
d="M1163 2028v-109h-512v109h512zM1210 1657q0 -57 -41 -97t-98 -40q-58 0 -97.5 39.5t-39.5 97.5t39.5 97.5t97.5 39.5q57 0 98 -40t41 -97zM866 1657q0 -57 -41 -97t-98 -40q-58 0 -97.5 39.5t-39.5 97.5t39.5 97.5t97.5 39.5q57 0 98 -40t41 -97zM1274 395v563
q0 302 -76 381q-34 37 -108 66v8h483v-8q-74 -29 -109 -65q-75 -76 -75 -382v-569q0 -93 -34 -167t-89 -121t-131 -77.5t-155 -43t-165 -11.5q-86 0 -166.5 12t-160.5 42.5t-139 77t-95.5 120.5t-36.5 168v746q0 59 -5 96t-21 72t-48.5 59t-85.5 43v8h627v-8
q-53 -19 -85.5 -43t-48.5 -59t-21 -72t-5 -96v-775q0 -127 89 -204q88 -76 269 -76q81 0 149 17t124 53t87.5 98.5t31.5 146.5z" />
    <glyph glyph-name="uni01D6" unicode="&#x1d6;" horiz-adv-x="1257" 
d="M901 1679v-108h-512v108h512zM965 1309q0 -58 -40.5 -97t-98.5 -41q-58 0 -98 39.5t-40 97.5t39.5 98t97.5 40t99 -40q42 -41 41 -97zM621 1309q0 -58 -40.5 -97t-98.5 -41q-58 0 -98 39.5t-40 97.5t39.5 98t97.5 40t99 -40q42 -41 41 -97zM821 -25h-8v170
q-88 -76 -171 -123t-171 -47q-126 0 -209 78q-82 78 -82 258v379q0 136 -27 189q-29 51 -126 90v8q184 12 432 92h8v-721q0 -106 60 -156q62 -50 139 -51q78 0 143 33v516q0 136 -28 188t-126 91v8q184 12 432 92h9v-715q0 -138 28 -188q29 -52 125 -90v-8
q-198 -18 -428 -93z" />
    <glyph glyph-name="uni01D7" unicode="&#x1d7;" horiz-adv-x="1605" 
d="M647 1847l-10 2q53 43 114 116.5t93 133.5l225 -24q-130 -175 -422 -228zM1167 1657q0 -57 -41 -97t-98 -40q-58 0 -97.5 39.5t-39.5 97.5t39.5 97.5t97.5 39.5q57 0 98 -40t41 -97zM823 1657q0 -57 -41 -97t-98 -40q-58 0 -97.5 39.5t-39.5 97.5t39.5 97.5t97.5 39.5
q57 0 98 -40t41 -97zM1274 395v563q0 302 -76 381q-34 37 -108 66v8h483v-8q-74 -29 -109 -65q-75 -76 -75 -382v-569q0 -93 -34 -167t-89 -121t-131 -77.5t-155 -43t-165 -11.5q-86 0 -166.5 12t-160.5 42.5t-139 77t-95.5 120.5t-36.5 168v746q0 59 -5 96t-21 72t-48.5 59
t-85.5 43v8h627v-8q-53 -19 -85.5 -43t-48.5 -59t-21 -72t-5 -96v-775q0 -127 89 -204q88 -76 269 -76q81 0 149 17t124 53t87.5 98.5t31.5 146.5z" />
    <glyph glyph-name="uni01D8" unicode="&#x1d8;" horiz-adv-x="1257" 
d="M453 1425l-11 2q53 43 114 116.5t93 133.5l225 -24q-131 -176 -421 -228zM965 1253q0 -57 -41 -97t-98 -40q-58 0 -98 39.5t-40 97.5q0 57 39.5 96.5t97.5 41.5q58 0 99 -40t41 -98zM621 1253q0 -57 -41 -97t-98 -40q-58 0 -98 39.5t-40 97.5q0 57 39.5 96.5t97.5 41.5
q58 0 99 -40t41 -98zM821 -25h-8v170q-88 -76 -171 -123t-171 -47q-126 0 -209 78q-82 78 -82 258v379q0 136 -27 189q-29 51 -126 90v8q184 12 432 92h8v-721q0 -106 60 -156q62 -50 139 -51q78 0 143 33v516q0 136 -28 188t-126 91v8q184 12 432 92h9v-715q0 -138 28 -188
q29 -52 125 -90v-8q-198 -18 -428 -93z" />
    <glyph glyph-name="uni01D9" unicode="&#x1d9;" horiz-adv-x="1605" 
d="M1106 2103l-201 -278h-117l-196 278h16l240 -108l242 108h16zM1159 1657q0 -57 -41 -97t-98 -40q-58 0 -97.5 39.5t-39.5 97.5t39.5 97.5t97.5 39.5q57 0 98 -40t41 -97zM815 1657q0 -57 -41 -97t-98 -40q-58 0 -97.5 39.5t-39.5 97.5t39.5 97.5t97.5 39.5q57 0 98 -40
t41 -97zM1274 395v563q0 302 -76 381q-34 37 -108 66v8h483v-8q-74 -29 -109 -65q-75 -76 -75 -382v-569q0 -93 -34 -167t-89 -121t-131 -77.5t-155 -43t-165 -11.5q-86 0 -166.5 12t-160.5 42.5t-139 77t-95.5 120.5t-36.5 168v746q0 59 -5 96t-21 72t-48.5 59t-85.5 43v8
h627v-8q-53 -19 -85.5 -43t-48.5 -59t-21 -72t-5 -96v-775q0 -127 89 -204q88 -76 269 -76q81 0 149 17t124 53t87.5 98.5t31.5 146.5z" />
    <glyph glyph-name="uni01DA" unicode="&#x1da;" horiz-adv-x="1257" 
d="M883 1712l-201 -278h-117l-196 278h16l240 -108l241 108h17zM965 1253q0 -57 -41 -97t-98 -40q-58 0 -98 39.5t-40 97.5q0 57 39.5 96.5t97.5 41.5q58 0 99 -40t41 -98zM621 1253q0 -57 -41 -97t-98 -40q-58 0 -98 39.5t-40 97.5q0 57 39.5 96.5t97.5 41.5q58 0 99 -40
t41 -98zM821 -25h-8v170q-88 -76 -171 -123t-171 -47q-126 0 -209 78q-82 78 -82 258v379q0 136 -27 189q-29 51 -126 90v8q184 12 432 92h8v-721q0 -106 60 -156q62 -50 139 -51q78 0 143 33v516q0 136 -28 188t-126 91v8q184 12 432 92h9v-715q0 -138 28 -188
q29 -52 125 -90v-8q-198 -18 -428 -93z" />
    <glyph glyph-name="uni01DB" unicode="&#x1db;" horiz-adv-x="1605" 
d="M1069 1808l-10 -2q-292 53 -422 228l225 24q29 -57 91.5 -132t115.5 -118zM1159 1657q0 -57 -41 -97t-98 -40q-58 0 -97.5 39.5t-39.5 97.5t39.5 97.5t97.5 39.5q57 0 98 -40t41 -97zM815 1657q0 -57 -41 -97t-98 -40q-58 0 -97.5 39.5t-39.5 97.5t39.5 97.5t97.5 39.5
q57 0 98 -40t41 -97zM1274 395v563q0 302 -76 381q-34 37 -108 66v8h483v-8q-74 -29 -109 -65q-75 -76 -75 -382v-569q0 -93 -34 -167t-89 -121t-131 -77.5t-155 -43t-165 -11.5q-86 0 -166.5 12t-160.5 42.5t-139 77t-95.5 120.5t-36.5 168v746q0 59 -5 96t-21 72t-48.5 59
t-85.5 43v8h627v-8q-53 -19 -85.5 -43t-48.5 -59t-21 -72t-5 -96v-775q0 -127 89 -204q88 -76 269 -76q81 0 149 17t124 53t87.5 98.5t31.5 146.5z" />
    <glyph glyph-name="uni01DC" unicode="&#x1dc;" horiz-adv-x="1257" 
d="M874 1470l-10 -2q-292 53 -422 228l226 24q32 -60 93 -134t113 -116zM965 1253q0 -57 -41 -97t-98 -40q-58 0 -98 39.5t-40 97.5q0 57 39.5 96.5t97.5 41.5q58 0 99 -40t41 -98zM621 1253q0 -57 -41 -97t-98 -40q-58 0 -98 39.5t-40 97.5q0 57 39.5 96.5t97.5 41.5
q58 0 99 -40t41 -98zM821 -25h-8v170q-88 -76 -171 -123t-171 -47q-126 0 -209 78q-82 78 -82 258v379q0 136 -27 189q-29 51 -126 90v8q184 12 432 92h8v-721q0 -106 60 -156q62 -50 139 -51q78 0 143 33v516q0 136 -28 188t-126 91v8q184 12 432 92h9v-715q0 -138 28 -188
q29 -52 125 -90v-8q-198 -18 -428 -93z" />
    <glyph glyph-name="uni01DD" unicode="&#x1dd;" horiz-adv-x="1021" 
d="M497 37q88 -1 141 113q52 113 52 278l-362 -33q0 -33 0.5 -57t4 -64t10 -69t19 -62.5t30 -55t44.5 -36t61 -14.5zM74 391v84h616q0 199 -99 303t-250 104q-150 0 -271 -89l-11 8q61 97 177 183q115 85 258 85q151 0 264.5 -69.5t172 -188t58.5 -268.5q1 -234 -149 -401
t-346 -167q-202 2 -311 108t-109 308z" />
    <glyph glyph-name="uni01DE" unicode="&#x1de;" horiz-adv-x="1521" 
d="M1016 1987v-109h-512v109h512zM1071 1657q0 -57 -41 -97t-98 -40q-58 0 -97.5 39.5t-39.5 97.5t39.5 97.5t97.5 39.5q57 0 98 -40t41 -97zM727 1657q0 -57 -41 -97t-98 -40q-58 0 -98 40t-39 97q0 59 39.5 98t97.5 39q57 0 98 -40t41 -97zM461 598h432l-215 655zM1518 8
v-8h-613v8q65 15 88 46t23 100q0 77 -94 356h-490q-78 -241 -78 -329q0 -82 31.5 -117.5t114.5 -55.5v-8h-496v8q68 22 110 65q79 84 218 484l295 856h291l344 -997q76 -218 129 -298q51 -78 127 -110z" />
    <glyph glyph-name="uni01DF" unicode="&#x1df;" horiz-adv-x="1071" 
d="M817 1679v-108h-512v108h512zM874 1309q0 -59 -40 -98.5t-98 -39.5t-98 39.5t-40 97.5t39.5 98t97.5 40q57 0 98 -40t41 -97zM530 1309q0 -58 -40.5 -97t-98.5 -41q-58 0 -97.5 39.5t-39.5 97.5t39.5 98t97.5 40q57 0 98 -40t41 -97zM809 -20q-70 0 -117.5 36t-54.5 103
q-162 -143 -315 -144q-113 0 -190 67.5t-77 178.5q-2 135 147 239t433 134v119q0 122 -69 201.5t-189 80.5q-76 0 -148 -45q61 -12 99 -51q38 -40 37 -93q0 -55 -41.5 -93.5t-97.5 -38.5t-97 38.5t-41 94.5q0 109 135 185q133 75 309 77q389 0 390 -367v-426
q0 -103 34.5 -143t135.5 -51v-8q-155 -94 -283 -94zM580 526q-100 0 -168 -50t-68 -169q0 -82 59 -133q58 -51 121 -51q62 0 111 27v370q-28 6 -55 6z" />
    <glyph glyph-name="uni01E0" unicode="&#x1e0;" horiz-adv-x="1521" 
d="M1016 2048v-109h-512v109h512zM915 1677q0 -63 -46 -108t-109 -45q-64 0 -109 44.5t-45 108.5q0 66 45.5 110t111.5 44q63 0 107.5 -45.5t44.5 -108.5zM461 598h432l-215 655zM1518 8v-8h-613v8q65 15 88 46t23 100q0 77 -94 356h-490q-78 -241 -78 -329
q0 -82 31.5 -117.5t114.5 -55.5v-8h-496v8q68 22 110 65q79 84 218 484l295 856h291l344 -997q76 -218 129 -298q51 -78 127 -110z" />
    <glyph glyph-name="uni01E1" unicode="&#x1e1;" horiz-adv-x="1071" 
d="M791 1679v-108h-512v108h512zM690 1309q0 -64 -45.5 -109t-109.5 -45t-109 44.5t-45 108.5t44.5 109t108.5 45t110 -44.5t46 -108.5zM809 -20q-70 0 -117.5 36t-54.5 103q-162 -143 -315 -144q-113 0 -190 67.5t-77 178.5q-2 135 147 239t433 134v119q0 122 -69 201.5
t-189 80.5q-76 0 -148 -45q61 -12 99 -51q38 -40 37 -93q0 -55 -41.5 -93.5t-97.5 -38.5t-97 38.5t-41 94.5q0 109 135 185q133 75 309 77q389 0 390 -367v-426q0 -103 34.5 -143t135.5 -51v-8q-155 -94 -283 -94zM580 526q-100 0 -168 -50t-68 -169q0 -82 59 -133
q58 -51 121 -51q62 0 111 27v370q-28 6 -55 6z" />
    <glyph glyph-name="uni01E2" unicode="&#x1e2;" horiz-adv-x="2062" 
d="M1563 1679v-108h-512v108h512zM608 598h441v743h-9zM1954 0h-1065v8q53 19 85.5 43.5t48.5 61t21 73.5t5 97v227h-492q-122 -211 -151 -296q-32 -92 -4 -130q28 -39 133 -76v-8h-527v8q97 33 189 142q94 112 270 407l344 578q69 113 6 177q-49 49 -166 93v8h1243v-340
h-10q-101 163 -160 210q-60 48 -182 48h-192v-563h200q89 0 139.5 32.5t102.5 112.5h10v-370h-10q-51 78 -102.5 109.5t-139.5 31.5h-200v-602h174q84 0 137 8q48 8 103 46.5t95 83.5q37 44 126 153h10z" />
    <glyph glyph-name="uni01E3" unicode="&#x1e3;" horiz-adv-x="1542" 
d="M1049 1352v-109h-512v109h512zM1210 922q-30 90 -118 90q-44 0 -79.5 -30t-56 -74.5t-34 -100.5t-18.5 -101.5t-5 -84.5v-11l342 33q0 190 -31 279zM623 500v20q-29 6 -54 6q-96 0 -161 -53q-64 -52 -64 -172q0 -80 62 -134t143 -54q82 0 164 55q-90 134 -90 332z
M1096 -23q-234 0 -361 160q-118 -87 -202.5 -124.5t-202.5 -37.5q-114 0 -194.5 67.5t-80.5 178.5q2 136 143 239q143 104 427 134v113q0 122 -64.5 204.5t-183.5 83.5q-76 0 -148 -45q61 -12 99 -51q38 -40 37 -93q0 -55 -41.5 -93.5t-97.5 -38.5t-97 38.5t-41 94.5
q0 109 135 185q133 75 316 77q182 0 264 -121q130 121 301 121q391 0 391 -416v-84h-596q0 -201 91 -304t240 -103q147 0 269 90l10 -8q-62 -100 -167 -184q-102 -81 -246 -83z" />
    <glyph glyph-name="uni01E4" unicode="&#x1e4;" horiz-adv-x="1607" 
d="M1583 397v-108h-125v-223q-316 -93 -579 -95q-162 0 -307 52.5t-252.5 146t-170.5 231.5t-63 300q0 129 43 241.5t120.5 198.5t179 150t224.5 105q147 48 287 48q113 0 249 -22t230 -60v-320h-8q-197 316 -477 318q-224 0 -372 -174q-148 -173 -148 -475q0 -300 152 -473
q151 -172 388 -172q117 0 220 34v189h-246v108h246v35q0 104 -32 158.5t-124 89.5v8h565v-8q-80 -34 -103 -79q-22 -43 -22 -167v-37h125z" />
    <glyph glyph-name="uni01E5" unicode="&#x1e5;" horiz-adv-x="1064" 
d="M370 712q0 -296 151 -296t151 296t-151 296t-151 -296zM846 -305h-266v108h309v2q0 68 -55 93q-54 25 -195 28l-270 15q-56 6 -68 8q-96 -70 -96 -166q0 -95 84 -159q83 -64 241 -64q89 0 176 35.5t140 99.5zM1235 -197v-108h-262q-91 -95 -234 -141t-293 -46
q-165 0 -315 69q-151 69 -149 167q0 158 266 221q-111 46 -111 160q0 77 52 148t126 118q-229 88 -229 314q0 90 36 161t98 114.5t139 66t163 22.5q102 0 205 -45l365 45h10l-29 -149l-223 22q106 -94 106 -244t-125 -246q-123 -96 -309 -98q-80 0 -166 23q-48 -32 -64 -72
q-17 -41 12 -73t104 -35l311 -15q168 -7 258 -70q88 -61 88 -200q0 -50 -21 -109h191z" />
    <glyph glyph-name="Gcaron" unicode="&#x1e6;" horiz-adv-x="1607" 
d="M1180 1810l-201 -278h-117l-196 278h16l240 -108l241 108h17zM1174 100v332q0 104 -32 158.5t-124 89.5v8h565v-8q-80 -34 -103 -79q-22 -43 -22 -167v-368q-316 -93 -579 -95q-162 0 -307 52.5t-252.5 146t-170.5 231.5t-63 300q0 129 43 241.5t120.5 198.5t179 150
t224.5 105q147 48 287 48q113 0 249 -22t230 -60v-320h-8q-197 316 -477 318q-224 0 -372 -174q-148 -173 -148 -475q0 -300 152 -473q80 -91 178 -131.5t224 -40.5q110 2 206 34z" />
    <glyph glyph-name="gcaron" unicode="&#x1e7;" horiz-adv-x="1064" 
d="M795 1450l-201 -279h-117l-196 279h16l240 -109l241 109h17zM370 712q0 -296 151 -296t151 296t-151 296t-151 -296zM205 -217q0 -95 84 -159q83 -64 233 -64q148 0 258 74q109 73 109 171q0 68 -55 93q-54 23 -195 28l-270 15q-56 6 -68 8q-96 -70 -96 -166zM1065 -82
q0 -89 -48.5 -165t-119 -124t-157.5 -76q-133 -45 -296 -45q-162 0 -313 69t-149 167q0 158 266 221q-111 46 -111 160q0 77 52 148t126 118q-229 88 -229 314q0 90 36 161t98 114.5t139 66t163 22.5q102 0 205 -45l365 45h10l-29 -149l-223 22q106 -94 106 -244t-125 -246
q-123 -96 -309 -98q-80 0 -166 23q-48 -32 -64 -72q-17 -42 11 -73q28 -30 105 -35l311 -15q57 -3 104 -10.5t93.5 -26.5t78 -47t51 -74t19.5 -106z" />
    <glyph glyph-name="uni01E8" unicode="&#x1e8;" horiz-adv-x="1544" 
d="M1001 1810l-200 -278h-117l-197 278h17l239 -108l242 108h16zM1579 8v-8h-670v8q56 18 84 38q27 20 27 70q0 51 -98 206l-234 366l-164 -174v-235q0 -118 29.5 -176t130.5 -95v-8h-627v8q53 19 85.5 43t48.5 59t21 72t5 97v856q0 59 -5 96t-21 72t-48.5 59t-85.5 43v8
h627v-8q-53 -19 -85.5 -43t-48.5 -59t-21 -72t-5 -96v-510l389 440q113 128 113 213q0 87 -135 127v8h612v-8q-75 -27 -132.5 -57.5t-115 -78.5t-92 -82t-106.5 -110l-170 -182l389 -592q38 -58 63.5 -93t63.5 -77.5t81 -72.5t95 -52z" />
    <glyph glyph-name="uni01E9" unicode="&#x1e9;" horiz-adv-x="1234" 
d="M874 1892l-200 -278h-117l-197 278h17l239 -108l242 108h16zM1288 8v-8h-203q-177 0 -230 31q-54 32 -142 188l-193 342l189 187q92 92 92 149q0 83 -150 133v14h629v-10q-101 -27 -181 -80t-169 -139l-160 -156l279 -428q102 -156 169 -192q30 -16 70 -31zM602 8v-8
h-557v8q80 35 106 91q26 58 25 180v886q0 137 -28 189q-29 53 -125 90v8q195 13 440 92h8v-1265q0 -122 26 -179q26 -56 105 -92z" />
    <glyph glyph-name="uni01EA" unicode="&#x1ea;" horiz-adv-x="1775" 
d="M544 238q130 -183 343 -185t344 185t131 470q0 284 -129 468t-346 184q-218 0 -345 -184q-128 -185 -128 -469q0 -285 130 -469zM1032 -338v-8q-66 -82 -140 -82q-66 0 -111.5 36t-45.5 101q0 125 242 266q-47 -6 -90 -6q-157 0 -303 54.5t-256 149.5t-176 234t-66 298
q0 160 72 301q106 208 310 322t444 114q169 0 352 -89q182 -89 304 -262t122 -386q0 -287 -200 -484t-474 -239q-111 -156 -111 -254q0 -72 90 -72q19 0 37 6z" />
    <glyph glyph-name="uni01EB" unicode="&#x1eb;" horiz-adv-x="1247" 
d="M623 37q63 0 110.5 36.5t73.5 89t42 123.5t20.5 127.5t4.5 113.5q0 54 -5.5 110.5t-22.5 125.5t-43 121.5t-73 88t-108 35.5q-121 0 -185 -136q-65 -139 -64 -350q0 -281 103 -411q59 -74 147 -74zM737 -338v-8q-67 -82 -141 -82q-66 0 -111 36t-45 101q0 129 250 271
q-16 -2 -67 -5q-229 0 -396 159q-166 157 -166 392q0 234 168 388q168 153 395 155q225 0 394 -155q168 -154 168 -392q0 -201 -130.5 -351t-330.5 -185q-115 -160 -115 -258q0 -72 90 -72q19 0 37 6z" />
    <glyph glyph-name="uni01EC" unicode="&#x1ec;" horiz-adv-x="1775" 
d="M1143 1679v-108h-512v108h512zM544 238q130 -183 343 -185t344 185t131 470q0 284 -129 468t-346 184q-218 0 -345 -184q-128 -185 -128 -469q0 -285 130 -469zM1032 -338v-8q-66 -82 -140 -82q-66 0 -111.5 36t-45.5 101q0 125 242 266q-47 -6 -90 -6q-157 0 -303 54.5
t-256 149.5t-176 234t-66 298q0 160 72 301q106 208 310 322t444 114q169 0 352 -89q182 -89 304 -262t122 -386q0 -287 -200 -484t-474 -239q-111 -156 -111 -254q0 -72 90 -72q19 0 37 6z" />
    <glyph glyph-name="uni01ED" unicode="&#x1ed;" horiz-adv-x="1247" 
d="M879 1352v-109h-512v109h512zM623 37q63 0 110.5 36.5t73.5 89t42 123.5t20.5 127.5t4.5 113.5q0 54 -5.5 110.5t-22.5 125.5t-43 121.5t-73 88t-108 35.5q-121 0 -185 -136q-65 -139 -64 -350q0 -281 103 -411q59 -74 147 -74zM737 -338v-8q-67 -82 -141 -82
q-66 0 -111 36t-45 101q0 129 250 271q-16 -2 -67 -5q-229 0 -396 159q-166 157 -166 392q0 234 168 388q168 153 395 155q225 0 394 -155q168 -154 168 -392q0 -201 -130.5 -351t-330.5 -185q-115 -160 -115 -258q0 -72 90 -72q19 0 37 6z" />
    <glyph glyph-name="uni01EE" unicode="&#x1ee;" horiz-adv-x="1075" 
d="M754 1810l-201 -278h-117l-196 278h16l240 -108l241 108h17zM672 1176h-543v237h834v-8l-349 -451q180 -40 305 -171t125 -308q0 -221 -186 -363q-185 -141 -416 -143q-170 0 -271 69t-101 179q0 71 49 117.5t120 46.5q68 0 117.5 -44t49.5 -111q0 -58 -30 -104.5
t-83 -72.5q53 -23 104 -22q149 0 250 81t101 250q0 168 -122 260q-121 91 -280 103l-10 16z" />
    <glyph glyph-name="uni01EF" unicode="&#x1ef;" horiz-adv-x="997" 
d="M756 1442l-201 -279h-117l-196 279h16l240 -109l241 109h17zM606 807h-543v237h834v-8l-348 -450q175 -39 302 -169q128 -131 128 -311q0 -220 -186 -363q-185 -142 -416 -142q-169 0 -272 68q-101 69 -101 179q0 71 49 117.5t120 46.5q68 0 117.5 -44.5t49.5 -111.5
q0 -58 -30 -103.5t-83 -71.5q52 -23 105 -23q150 0 250 81t100 250q0 168 -122 260q-121 91 -279 103l-11 17z" />
    <glyph glyph-name="jcaron" unicode="&#x1f0;" horiz-adv-x="641" 
d="M573 1544l-200 -278h-117l-197 278h17l239 -108l242 108h16zM188 -55v745q0 136 -27 189q-29 51 -126 90v8q191 13 438 92h8v-1001q0 -89 -32 -178t-89 -155q-120 -142 -335 -227l-7 13q61 37 101 114.5t54.5 154.5t14.5 155z" />
    <glyph glyph-name="uni01F1" unicode="&#x1f1;" horiz-adv-x="2750" 
d="M2669 0h-1084v8l750 1323h-254q-140 0 -219 -41q-76 -40 -240 -217h-8l41 340h1034v-8l-739 -1323h278q175 0 233 34q59 34 210 222q4 5 18 23q6 8 10 14h11zM729 0h-672v8q53 19 85.5 43.5t48.5 61t21 73.5t5 97v852q0 59 -5 96t-21 72t-48.5 59t-85.5 43v8h697
q130 0 251 -24.5t230 -78t189.5 -130.5t127 -190t45.5 -249q1 -333 -251 -537t-617 -204zM524 1331v-1249h201q256 0 400 181q145 181 145 455t-146 444q-145 169 -374 169h-226z" />
    <glyph glyph-name="uni01F2" unicode="&#x1f2;" horiz-adv-x="2627" 
d="M2533 0h-913v8l582 963h-193q-73 0 -101 -19q-57 -34 -125 -96q-4 -4 -21 -20t-31 -29q-61 -56 -62 -57h-10l41 294h844v-10l-570 -962h236q83 0 142 41q53 37 214 190h8zM729 0h-672v8q53 19 85.5 43.5t48.5 61t21 73.5t5 97v852q0 59 -5 96t-21 72t-48.5 59t-85.5 43v8
h697q130 0 251 -24.5t230 -78t189.5 -130.5t127 -190t45.5 -249q1 -333 -251 -537t-617 -204zM524 1331v-1249h201q256 0 400 181q145 181 145 455t-146 444q-145 169 -374 169h-226z" />
    <glyph glyph-name="uni01F3" unicode="&#x1f3;" horiz-adv-x="2289" 
d="M2195 0h-913v8l582 963h-193q-71 0 -101 -19q-57 -34 -125 -96q-4 -4 -21 -20t-31 -29q-61 -56 -62 -57h-10l41 294h844v-10l-570 -962h236q83 0 142 41q53 37 214 190h8zM645 1008q-117 0 -208 -129q-91 -128 -91 -323q0 -194 102 -304t244 -111q72 0 133 31v725
q-85 111 -180 111zM834 -25h-9v175q-163 -173 -362 -175q-157 -1 -285 135q-127 136 -127 357q0 181 94 321q89 133 225 207t294 74q66 0 161 -16v112q0 137 -28 189q-29 51 -135 90v8q207 13 450 92h8v-1190q0 -138 28 -188q28 -51 126 -90v-8q-215 -20 -440 -93z" />
    <glyph glyph-name="uni01F4" unicode="&#x1f4;" horiz-adv-x="1607" 
d="M760 1534l-10 2q52 42 113 116t93 134l226 -25q-131 -174 -422 -227zM1174 100v332q0 104 -32 158.5t-124 89.5v8h565v-8q-80 -34 -103 -79q-22 -43 -22 -167v-368q-316 -93 -579 -95q-162 0 -307 52.5t-252.5 146t-170.5 231.5t-63 300q0 129 43 241.5t120.5 198.5
t179 150t224.5 105q147 48 287 48q113 0 249 -22t230 -60v-320h-8q-197 316 -477 318q-224 0 -372 -174q-148 -173 -148 -475q0 -300 152 -473q80 -91 178 -131.5t224 -40.5q110 2 206 34z" />
    <glyph glyph-name="uni01F5" unicode="&#x1f5;" horiz-adv-x="1064" 
d="M365 1200l-11 2q53 43 114 116.5t93 133.5l225 -25q-131 -175 -421 -227zM370 712q0 -296 151 -296t151 296t-151 296t-151 -296zM205 -217q0 -95 84 -159q83 -64 233 -64q148 0 258 74q109 73 109 171q0 68 -55 93q-54 23 -195 28l-270 15q-56 6 -68 8q-96 -70 -96 -166
zM1065 -82q0 -89 -48.5 -165t-119 -124t-157.5 -76q-133 -45 -296 -45q-162 0 -313 69t-149 167q0 158 266 221q-111 46 -111 160q0 77 52 148t126 118q-229 88 -229 314q0 90 36 161t98 114.5t139 66t163 22.5q102 0 205 -45l365 45h10l-29 -149l-223 22q106 -94 106 -244
t-125 -246q-123 -96 -309 -98q-80 0 -166 23q-48 -32 -64 -72q-17 -42 11 -73q28 -30 105 -35l311 -15q57 -3 104 -10.5t93.5 -26.5t78 -47t51 -74t19.5 -106z" />
    <glyph glyph-name="uni01F6" unicode="&#x1f6;" horiz-adv-x="2379" 
d="M1962 268v498q0 122 -26 179t-105 91v8h418v-753q0 -313 -516 -314q-50 0 -97 2.5t-106 11t-109 22.5t-99.5 38t-84 56t-56 79t-22.5 105v387h-635v-395q0 -119 30 -178.5t130 -96.5v-8h-627v8q53 19 85.5 43.5t48.5 61t21 73.5t5 97v852q0 59 -5 96t-21 72t-48.5 59
t-85.5 43v8h627v-8q-53 -19 -85.5 -43t-48.5 -59t-21 -72t-5 -96v-365h635v365q0 59 -5 96t-21 72t-48.5 59t-85.5 43v8h627v-8q-53 -19 -85.5 -43t-48.5 -59t-21 -72t-5 -96v-840q0 -115 71.5 -172t189.5 -57q106 0 170.5 49.5t64.5 152.5z" />
    <glyph glyph-name="uni01F7" unicode="&#x1f7;" horiz-adv-x="1312" 
d="M950 903q0 193 -69 289q-70 96 -181 96q-43 0 -121.5 -17.5t-107.5 -37.5v-1268q194 79 337 320q142 239 142 618zM176 -193v1254q0 138 -28 188q-29 52 -125 90v9q213 19 440 92h8v-176q51 53 173 113q125 62 235 63q166 0 265 -126t99 -354q0 -229 -106 -453
q-70 -146 -254 -330q-121 -120 -412 -296v-243l-426 -109v8q80 35 106 91q26 58 25 179z" />
    <glyph glyph-name="uni01F8" unicode="&#x1f8;" horiz-adv-x="1677" 
d="M1055 1556l-11 -2q-290 52 -421 228l225 24q29 -57 91.5 -132t115.5 -118zM1456 958v-968h-133l-987 1175v-706q0 -304 70 -383q35 -41 104 -68v-8h-463v8q71 27 105 67q69 79 69 384v710q0 171 -194 236v8h465l849 -991v536q0 237 -35 322q-36 85 -139 125v8h463v-8
q-71 -28 -106 -68q-66 -77 -68 -379z" />
    <glyph glyph-name="uni01F9" unicode="&#x1f9;" horiz-adv-x="1312" 
d="M872 1188l-10 -2q-291 53 -422 227l226 25q32 -60 93 -134t113 -116zM1272 8v-8h-549v8q79 34 105 91t26 180v448q0 89 -54.5 143t-143.5 54q-83 0 -175 -47v-598q0 -122 26 -179q26 -56 105 -92v-8h-549v8q80 35 106 91q26 57 26 180v411q0 136 -28 188t-126 91v8
q179 12 428 92h8v-166q67 67 167.5 115t189.5 49q136 0 221 -85q86 -86 86 -269v-434q0 -124 25 -180q26 -56 106 -91z" />
    <glyph glyph-name="Aringacute" unicode="&#x1fa;" horiz-adv-x="1521" 
d="M549 1759l-10 2q52 42 113 116t93 134l226 -24q-130 -175 -422 -228zM770 1360q55 0 93 40t38 95t-38 95t-93 40t-93 -40t-38 -95t38 -95t93 -40zM461 598h432l-215 655zM1518 8v-8h-613v8q65 15 88 46t23 100q0 77 -94 356h-490q-78 -241 -78 -329q0 -82 31.5 -117.5
t114.5 -55.5v-8h-496v8q68 22 110 65q79 84 218 484l268 780q-63 67 -63 160q0 95 69 161t164 66q93 0 163.5 -66t70.5 -159q0 -90 -62 -158l320 -925q76 -218 129 -298q51 -78 127 -110z" />
    <glyph glyph-name="aringacute" unicode="&#x1fb;" horiz-adv-x="1071" 
d="M362 1636l-10 2q53 43 114 116.5t93 133.5l225 -24q-130 -175 -422 -228zM535 1243q49 0 82.5 36.5t35.5 86.5q0 49 -35 86t-84 37t-83.5 -37t-34.5 -86t35 -86t84 -37zM748 1366q0 -86 -63.5 -147t-149.5 -61q-87 0 -150 60.5t-63 147.5q0 86 62.5 147t149.5 61
q88 0 151 -60.5t63 -147.5zM809 -20q-70 0 -117.5 36t-54.5 103q-162 -143 -315 -144q-113 0 -190 67.5t-77 178.5q-2 135 147 239t433 134v119q0 122 -69 201.5t-189 80.5q-76 0 -148 -45q61 -12 99 -51q38 -40 37 -93q0 -55 -41.5 -93.5t-97.5 -38.5t-97 38.5t-41 94.5
q0 109 135 185q133 75 309 77q389 0 390 -367v-426q0 -103 34.5 -143t135.5 -51v-8q-155 -94 -283 -94zM580 526q-100 0 -168 -50t-68 -169q0 -82 59 -133q58 -51 121 -51q62 0 111 27v370q-28 6 -55 6z" />
    <glyph glyph-name="AEacute" unicode="&#x1fc;" horiz-adv-x="2062" 
d="M950 1534l-10 2q53 43 114 116.5t93 133.5l225 -25q-131 -174 -422 -227zM608 598h441v743h-9zM1954 0h-1065v8q53 19 85.5 43.5t48.5 61t21 73.5t5 97v227h-492q-122 -211 -151 -296q-32 -92 -4 -130q28 -39 133 -76v-8h-527v8q97 33 189 142q94 112 270 407l344 578
q69 113 6 177q-49 49 -166 93v8h1243v-340h-10q-101 163 -160 210q-60 48 -182 48h-192v-563h200q89 0 139.5 32.5t102.5 112.5h10v-370h-10q-51 78 -102.5 109.5t-139.5 31.5h-200v-602h174q84 0 137 8q48 8 103 46.5t95 83.5q37 44 126 153h10z" />
    <glyph glyph-name="aeacute" unicode="&#x1fd;" horiz-adv-x="1542" 
d="M618 1186l-10 2q51 40 113.5 115.5t93.5 134.5l225 -25q-131 -174 -422 -227zM1210 922q-30 90 -118 90q-44 0 -79.5 -30t-56 -74.5t-34 -100.5t-18.5 -101.5t-5 -84.5v-11l342 33q0 190 -31 279zM623 500v20q-29 6 -54 6q-96 0 -161 -53q-64 -52 -64 -172q0 -80 62 -134
t143 -54q82 0 164 55q-90 134 -90 332zM1096 -23q-234 0 -361 160q-118 -87 -202.5 -124.5t-202.5 -37.5q-114 0 -194.5 67.5t-80.5 178.5q2 136 143 239q143 104 427 134v113q0 122 -64.5 204.5t-183.5 83.5q-76 0 -148 -45q61 -12 99 -51q38 -40 37 -93q0 -55 -41.5 -93.5
t-97.5 -38.5t-97 38.5t-41 94.5q0 109 135 185q133 75 316 77q182 0 264 -121q130 121 301 121q391 0 391 -416v-84h-596q0 -201 91 -304t240 -103q147 0 269 90l10 -8q-62 -100 -167 -184q-102 -81 -246 -83z" />
    <glyph glyph-name="Oslashacute" unicode="&#x1fe;" horiz-adv-x="1691" 
d="M655 1554l-10 2q53 43 114 116.5t93 133.5l225 -24q-130 -175 -422 -228zM846 1376q-200 0 -318 -196t-118 -466q0 -269 104 -456l610 975q-117 143 -278 143zM846 35q196 -1 316 197t120 466q0 269 -106 457l-611 -975q115 -145 281 -145zM78 713q0 206 118 378
q112 163 282 257t364 94q182 0 358 -90l82 131l72 -45l-80 -129q163 -106 250.5 -264.5t87.5 -352.5q0 -199 -110.5 -371.5t-290.5 -264.5q-173 -87 -361 -87q-187 0 -365 86l-79 -129l-70 49l76 121q-163 103 -248.5 262.5t-85.5 354.5z" />
    </font>
</defs>
</svg>
