<?xml version="1.0" standalone="no"?>
<!DOCTYPE svg PUBLIC "-//W3C//DTD SVG 1.1//EN" "http://www.w3.org/Graphics/SVG/1.1/DTD/svg11.dtd" >
<svg xmlns="http://www.w3.org/2000/svg" xmlns:xlink="http://www.w3.org/1999/xlink" version="1.1">
<metadata>
Created by FontForge 20170731 at Thu Mar 21 20:30:18 2019
 By Aleksey,,,
Copyright (c) 2013 by Jonas Hecksher, Playtype, e-Types AS. All rights reserved.
</metadata>
<defs>
<font id="BerlingskeSerif-Regular" horiz-adv-x="1167" >
  <font-face 
    font-family="Berlingske Serif"
    font-weight="400"
    font-stretch="normal"
    units-per-em="2048"
    panose-1="2 0 5 3 8 0 0 2 0 4"
    ascent="1638"
    descent="-410"
    x-height="1044"
    cap-height="1413"
    bbox="-737 -600 3629 2036"
    underline-thickness="102"
    underline-position="-510"
    unicode-range="U+0020-FB06"
  />
<missing-glyph horiz-adv-x="1116" 
d="M1116 1413v-1413h-1116v1413h1116zM924 662q-61 0 -62 61v297h101v51h-101v119h-8q-71 -91 -152 -141l-34 -21v-8h43v-289q0 -143 127 -143q80 0 137 78l-4 8q-19 -12 -47 -12zM135 596h277v8q-43 17 -54.5 42.5t-11.5 78.5v143h64q105 0 169 46t64 147q0 178 -225 178
h-283v-8q31 -12 40 -35q9 -22 9 -80v-397q0 -63 -7 -81q-8 -21 -42 -34v-8zM379 903h-33v299h41q94 0 94 -150q0 -75 -25.5 -112.5t-76.5 -36.5z" />
    <glyph glyph-name="f_f" unicode="ff" horiz-adv-x="1257" 
d="M1255 975h-235v-707q0 -128 33 -181q33 -52 137 -79v-8h-488v8q90 27 120 80q30 52 30 180v707h-203l21 69h182v105q0 194 98 292q97 97 248 97q93 0 152 -41t57 -94q0 -49 -28.5 -81t-76.5 -32t-74 28t-26 76q0 52 66 101q-32 8 -60 8q-42 0 -74 -14.5t-52 -41.5
t-33 -57t-19 -70.5t-8 -71.5t-2 -70v-134h235v-69zM627 975h-236v-707q0 -128 33 -181q33 -52 137 -79v-8h-487v8q90 27 120 80t29 180v707h-203l21 69h182v105q1 194 99 292q97 97 247 97q92 0 151 -41q58 -40 58 -94q0 -49 -28 -81t-76 -32q-47 0 -74 28t-27 76
q0 52 66 101q-29 8 -57 8q-43 0 -75.5 -14t-52.5 -41t-33.5 -56.5t-19.5 -70t-8 -72t-2 -71.5v-134h236v-69z" />
    <glyph glyph-name="f_f_i" unicode="ffi" horiz-adv-x="1849" 
d="M1307 975h-289v-707q0 -128 33 -181q33 -52 137 -79v-8h-483v8q89 27 119 80q30 52 30 180v707h-207l21 69h186v105q0 246 216 339q117 50 259 50q46 0 90 -5t97 -19.5t85.5 -47t32.5 -80.5q0 -44 -30 -74t-74 -30q-48 0 -74 27t-26 75q0 52 65 97q-59 18 -143 18
q-138 0 -236 -72t-98 -249v-134h317q254 0 303 25h9v-817q2 -127 29 -170q29 -46 120 -74v-8h-461v8q92 29 121 74q29 46 29 170v479q0 144 -34 193q-35 50 -144 51zM627 975h-236v-707q0 -128 33 -181q33 -52 137 -79v-8h-487v8q90 27 120 80t29 180v707h-203l21 69h182
v105q1 194 99 292q97 97 247 97q92 0 151 -41q58 -40 58 -94q0 -49 -28 -81t-76 -32q-47 0 -74 28t-27 76q0 52 66 101q-29 8 -57 8q-43 0 -75.5 -14t-52.5 -41t-33.5 -56.5t-19.5 -70t-8 -72t-2 -71.5v-134h236v-69z" />
    <glyph glyph-name="f_f_l" unicode="ffl" horiz-adv-x="1839" 
d="M1251 975h-235v-707q0 -128 33 -181q33 -52 137 -79v-8h-484v8q90 27 120 80q30 52 30 180v707h-207l21 69h186v103q0 99 34.5 175t96 122t140.5 69t173 23q180 0 238 -63q63 31 102 63h9v-1284q2 -127 29 -170q29 -46 120 -74v-8h-465v8q92 29 121 74q29 46 29 170v1030
q-49 0 -81 27t-32 75q0 50 66 95q-58 20 -132 20q-124 0 -204 -75t-80 -248v-132h235v-69zM627 975h-236v-707q0 -128 33 -181q33 -52 137 -79v-8h-487v8q90 27 120 80t29 180v707h-203l21 69h182v105q1 194 99 292q97 97 247 97q92 0 151 -41q58 -40 58 -94q0 -49 -28 -81
t-76 -32q-47 0 -74 28t-27 76q0 52 66 101q-29 8 -57 8q-43 0 -75.5 -14t-52.5 -41t-33.5 -56.5t-19.5 -70t-8 -72t-2 -71.5v-134h236v-69z" />
    <glyph glyph-name="f_b" unicode="fb" horiz-adv-x="1933" 
d="M1538 162q125 143 125 360t-110 338q-110 120 -258 119q-148 0 -269 -82v-831q90 -46 207 -48q181 0 305 144zM860 29v1253q-52 0 -82 24.5t-30 75.5q0 52 65 97q-55 18 -117 18q-128 0 -213 -72q-86 -72 -86 -249v-132h236v-69h-236v-707q0 -128 33 -181q33 -52 137 -79
v-8h-483v8q90 27 120 80t29 180v707h-206l20 69h186v103q0 218 139 303q140 86 312 86q174 0 231 -63q54 27 103 65h8v-612q51 50 145 97q93 46 215 46q190 0 322 -134q131 -133 133 -341q0 -140 -53 -265t-156 -207q-190 -147 -409 -147q-195 0 -363 54z" />
    <glyph glyph-name="f_h" unicode="fh" horiz-adv-x="1888" 
d="M1532 258v461q0 118 -60 180.5t-178 62.5q-117 0 -268 -88v-616q0 -132 30 -178t120 -72v-8h-465v8q92 28 121 76q28 46 28 174v1024q-50 0 -81 25.5t-31 74.5q0 52 65 97q-56 18 -115 18q-301 0 -301 -321v-132h236v-69h-236v-707q0 -128 33 -181q33 -52 137 -79v-8
h-483v8q90 27 120 80t29 180v707h-206l20 69h186v66q0 245 133 335q133 91 313 91q179 0 236 -63q62 31 103 63h8v-633q202 166 350 166q163 0 240.5 -97.5t77.5 -264.5v-402q0 -164 26 -218q25 -52 123 -79v-8h-461v8q92 29 121 76t29 174z" />
    <glyph glyph-name="f_i" unicode="fi" horiz-adv-x="1228" 
d="M686 975h-289v-707q0 -128 33 -181q33 -52 137 -79v-8h-483v8q90 27 120 80t29 180v707h-206l20 69h186v105q0 246 217 339q117 50 259 50q46 0 90 -5t97 -19.5t85.5 -47t32.5 -80.5q0 -44 -30.5 -74t-74.5 -30q-48 0 -73 27t-27 75q0 52 65 97q-57 18 -143 18
q-139 0 -236 -72q-96 -71 -98 -249v-134h318q254 0 303 25h8v-817q0 -124 29 -170q29 -45 121 -74v-8h-461v8q92 29 121 74q29 47 28 170v479q0 144 -34 193q-34 50 -144 51z" />
    <glyph glyph-name="f_j" unicode="fj" horiz-adv-x="1228" 
d="M864 -106v784q0 180 -29 240q-30 57 -149 57h-289v-707q0 -128 33 -181q33 -52 137 -79v-8h-483v8q90 27 120 80t29 180v707h-206l20 69h186v103q0 246 217 339q117 50 259 50q46 0 90 -5t97 -19.5t85.5 -47t32.5 -80.5q0 -44 -30.5 -74t-74.5 -30q-48 0 -73 27t-27 75
q0 52 65 97q-55 20 -174 20q-120 0 -212 -75q-92 -76 -91 -248v-132h318q256 0 305 25h8v-1096q0 -362 -315 -485l-6 10q57 35 94 107.5t50 143.5t13 145z" />
    <glyph glyph-name="f_k" unicode="fk" horiz-adv-x="1828" 
d="M1282 1030v14h518v-8q-141 -33 -295 -172l-274 -250l328 -383q76 -91 147 -146t164 -77v-8h-201q-43 0 -98 5q-19 2 -37 13q-17 10 -30 16q-11 5 -33 31q-19 23 -31 35q-10 10 -43 52q-8 11 -19.5 25t-19 23.5t-12.5 16.5l-265 324l203 198q146 141 146 204t-148 87z
M633 975h-236v-707q0 -128 33 -181q33 -52 137 -79v-8h-483v8q90 27 120 80t29 180v707h-206l20 69h186v103q0 218 139 303q140 86 312 86q174 0 231 -63q54 27 103 65h8v-1286q0 -124 29 -170q29 -45 121 -74v-8h-465v8q92 28 121 74q28 44 28 170v1030q-52 0 -82 24.5
t-30 75.5q0 52 65 97q-58 20 -131 20q-126 0 -205 -75q-80 -75 -80 -248v-132h236v-69z" />
    <glyph glyph-name="f_l" unicode="fl" horiz-adv-x="1220" 
d="M633 975h-236v-707q0 -128 33 -181q33 -52 137 -79v-8h-483v8q90 27 120 80t29 180v707h-206l20 69h186v103q0 218 139 303q140 86 312 86q174 0 231 -63q62 31 103 63h8v-1284q0 -124 29 -170q29 -45 121 -74v-8h-465v8q92 28 121 74q28 44 28 170v1030q-46 0 -80 26
q-33 26 -32 66q0 61 65 105q-58 20 -131 20q-126 0 -205 -75q-80 -75 -80 -248v-132h236v-69z" />
    <glyph glyph-name="f_t" unicode="ft" horiz-adv-x="1269" 
d="M780 975h-389v-707q0 -128 33 -181q33 -52 137 -79v-8h-487v8q90 27 120 80t29 180v707h-203l21 69h182v105q1 194 99 292q97 97 247 97q92 0 151 -41q58 -40 58 -94q0 -49 -28 -81t-76 -32q-47 0 -74 28t-27 76q0 52 66 101q-29 8 -57 8q-43 0 -75.5 -14t-52.5 -41
t-33.5 -56.5t-19.5 -70t-8 -72t-2 -71.5v-134h344q93 62 203 246h8v-246h283v-73h-283v-690q0 -190 172 -191q79 0 166 35l8 -10q-143 -131 -280 -131q-230 0 -232 329v662z" />
    <glyph glyph-name="f_f_b" unicode="ffb" horiz-adv-x="2551" 
d="M1914 979q-148 0 -269 -82v-831q90 -46 206 -48q179 0 305 144q126 145 125 381q1 196 -109 317q-110 120 -258 119zM1479 29v1253q-51 0 -82 25t-31 75q0 52 66 97q-56 18 -117 18q-127 0 -213 -72t-86 -249v-132h235v-69h-235v-707q0 -128 33 -181q33 -52 137 -79v-8
h-484v8q90 27 120 80q30 52 30 180v707h-207l21 69h186v103q0 99 34.5 175t96 122t140.5 69t173 23q180 0 238 -63q55 28 102 65h9v-612q51 50 145 97q93 46 215 46q191 0 323 -134t132 -341q0 -208 -105 -359t-302 -222q-106 -38 -201 -38q-205 0 -373 54zM627 975h-236
v-707q0 -128 33 -181q33 -52 137 -79v-8h-487v8q90 27 120 80t29 180v707h-203l21 69h182v105q1 194 99 292q97 97 247 97q92 0 151 -41q58 -40 58 -94q0 -49 -28 -81t-76 -32q-47 0 -74 28t-27 76q0 52 66 101q-29 8 -57 8q-43 0 -75.5 -14t-52.5 -41t-33.5 -56.5
t-19.5 -70t-8 -72t-2 -71.5v-134h236v-69z" />
    <glyph glyph-name="f_f_f" unicode="fff" horiz-adv-x="1884" 
d="M1882 975h-235v-707q1 -128 33 -181q31 -52 137 -79v-8h-488v8q90 27 120 80q30 52 30 180v707h-203l20 69h183v105q0 194 98 292q97 97 248 97q93 0 151 -41q58 -40 58 -94q0 -49 -28.5 -81t-76.5 -32q-47 0 -72.5 28t-27.5 76q0 51 65 101q-30 8 -59 8q-42 0 -74 -14.5
t-52 -41.5t-33 -57t-19 -70.5t-8 -71.5t-2 -70v-134h235v-69zM1253 975h-235v-707q0 -128 33 -181q33 -52 137 -79v-8h-488v8q90 27 120 80q30 52 30 180v707h-203l21 69h182v105q0 194 98 292q97 97 248 97q93 0 152 -41t57 -94q0 -49 -28.5 -81t-76.5 -32t-74 28t-26 76
q0 52 66 101q-32 8 -60 8q-42 0 -74 -14.5t-52 -41.5t-33 -57t-19 -70.5t-8 -71.5t-2 -70v-134h235v-69zM627 975h-236v-707q0 -128 33 -181q33 -52 137 -79v-8h-487v8q90 27 120 80t29 180v707h-203l21 69h182v105q1 194 99 292q97 97 247 97q92 0 151 -41q58 -40 58 -94
q0 -49 -28 -81t-76 -32q-47 0 -74 28t-27 76q0 52 66 101q-29 8 -57 8q-43 0 -75.5 -14t-52.5 -41t-33.5 -56.5t-19.5 -70t-8 -72t-2 -71.5v-134h236v-69z" />
    <glyph glyph-name="f_f_h" unicode="ffh" horiz-adv-x="2506" 
d="M2150 258v461q0 119 -60 181t-178 62q-116 0 -267 -88v-616q-2 -131 29 -178q30 -46 120 -72v-8h-465v8q92 29 121 76t29 174v1024q-50 0 -81.5 25.5t-31.5 74.5q0 52 66 97q-55 18 -115 18q-301 0 -301 -321v-132h235v-69h-235v-707q0 -128 33 -181q33 -52 137 -79v-8
h-484v8q90 27 120 80q30 52 30 180v707h-207l21 69h186v66q0 244 133 335t312 91t237 -63q63 31 102 63h9v-633q202 166 350 166q162 0 239.5 -97.5t77.5 -264.5v-402q0 -164 26 -218q25 -52 124 -79v-8h-461v8q92 29 121 76q28 46 28 174zM627 975h-236v-707
q0 -128 33 -181q33 -52 137 -79v-8h-487v8q90 27 120 80t29 180v707h-203l21 69h182v105q1 194 99 292q97 97 247 97q92 0 151 -41q58 -40 58 -94q0 -49 -28 -81t-76 -32q-47 0 -74 28t-27 76q0 52 66 101q-29 8 -57 8q-43 0 -75.5 -14t-52.5 -41t-33.5 -56.5t-19.5 -70
t-8 -72t-2 -71.5v-134h236v-69z" />
    <glyph glyph-name="f_f_j" unicode="ffj" horiz-adv-x="1847" 
d="M1483 -106v784q0 182 -30 240q-30 57 -148 57h-289v-707q0 -128 33 -181q33 -52 137 -79v-8h-484v8q90 27 120 80q30 52 30 180v707h-207l21 69h186v103q0 246 216 339q117 50 259 50q46 0 90 -5t97 -19.5t85.5 -47t32.5 -80.5q0 -44 -30 -74t-74 -30q-48 0 -74.5 27
t-26.5 75q0 52 66 97q-54 20 -174 20q-121 0 -212 -75t-91 -248v-132h317q256 0 305 25h9v-1096q0 -362 -316 -485l-6 10q58 35 95 107.5t50 143.5t13 145zM627 975h-236v-707q0 -128 33 -181q33 -52 137 -79v-8h-487v8q90 27 120 80t29 180v707h-203l21 69h182v105
q1 194 99 292q97 97 247 97q92 0 151 -41q58 -40 58 -94q0 -49 -28 -81t-76 -32q-47 0 -74 28t-27 76q0 52 66 101q-29 8 -57 8q-43 0 -75.5 -14t-52.5 -41t-33.5 -56.5t-19.5 -70t-8 -72t-2 -71.5v-134h236v-69z" />
    <glyph glyph-name="f_f_k" unicode="ffk" horiz-adv-x="2447" 
d="M2048 940q0 66 -147 90v14h518v-8q-141 -33 -295 -172l-275 -250l328 -383q78 -92 148 -146t163 -77v-8h-200q-44 0 -99 5q-19 2 -37 13q-17 10 -30 16q-10 4 -32 31q-23 25 -32 35q-10 10 -43 52q-8 11 -19.5 25t-19 23.5t-12.5 16.5l-264 324l203 198q145 141 145 201z
M1251 975h-235v-707q0 -128 33 -181q33 -52 137 -79v-8h-484v8q90 27 120 80q30 52 30 180v707h-207l21 69h186v103q0 99 34.5 175t96 122t140.5 69t173 23q180 0 238 -63q55 28 102 65h9v-1286q2 -127 29 -170q29 -46 120 -74v-8h-465v8q92 29 121 74q29 46 29 170v1030
q-51 0 -82 25t-31 75q0 52 66 97q-58 20 -132 20q-124 0 -204 -75t-80 -248v-132h235v-69zM627 975h-236v-707q0 -128 33 -181q33 -52 137 -79v-8h-487v8q90 27 120 80t29 180v707h-203l21 69h182v105q1 194 99 292q97 97 247 97q92 0 151 -41q58 -40 58 -94q0 -49 -28 -81
t-76 -32q-47 0 -74 28t-27 76q0 52 66 101q-29 8 -57 8q-43 0 -75.5 -14t-52.5 -41t-33.5 -56.5t-19.5 -70t-8 -72t-2 -71.5v-134h236v-69z" />
    <glyph glyph-name=".notdef" horiz-adv-x="1116" 
d="M1116 1413v-1413h-1116v1413h1116zM924 662q-61 0 -62 61v297h101v51h-101v119h-8q-71 -91 -152 -141l-34 -21v-8h43v-289q0 -143 127 -143q80 0 137 78l-4 8q-19 -12 -47 -12zM135 596h277v8q-43 17 -54.5 42.5t-11.5 78.5v143h64q105 0 169 46t64 147q0 178 -225 178
h-283v-8q31 -12 40 -35q9 -22 9 -80v-397q0 -63 -7 -81q-8 -21 -42 -34v-8zM379 903h-33v299h41q94 0 94 -150q0 -75 -25.5 -112.5t-76.5 -36.5z" />
    <glyph glyph-name=".null" horiz-adv-x="0" 
 />
    <glyph glyph-name="nonmarkingreturn" horiz-adv-x="682" 
 />
    <glyph glyph-name="space" unicode=" " horiz-adv-x="430" 
 />
    <glyph glyph-name="exclam" unicode="!" horiz-adv-x="520" 
d="M379 91q0 -49 -35.5 -84.5t-84.5 -35.5q-48 0 -83 36t-35 84t35 83t83 35t84 -35t36 -83zM174 1123q-16 159 -16 215q0 47 26.5 75.5t73.5 28.5t74.5 -28.5t27.5 -75.5q0 -56 -16 -215q-24 -239 -41 -388q-23 -204 -37 -362h-14q-14 158 -37 362q-17 149 -41 388z" />
    <glyph glyph-name="quotedbl" unicode="&#x22;" horiz-adv-x="804" 
d="M481 1356q0 36 29 61t66 25q35 0 64.5 -26.5t29.5 -61.5q0 -34 -40 -169q-39 -134 -44 -216h-21q-5 82 -44 216q-40 136 -40 171zM135 1356q0 37 28 61.5t65 24.5t66.5 -26t29.5 -62q0 -34 -40 -169q-39 -134 -44 -216h-21q-5 82 -44 216q-40 136 -40 171z" />
    <glyph glyph-name="numbersign" unicode="#" 
d="M737 856h-258l-53 -299h258zM336 479h-213v78h225l53 299h-278v78h293l84 479h78l-84 -479h258l84 479h77l-84 -479h215v-78h-229l-53 -299h282v-78h-294l-84 -479h-78l84 479h-258l-84 -479h-78z" />
    <glyph glyph-name="dollar" unicode="$" 
d="M848 284q0 54 -17.5 100t-52 82.5t-70.5 63.5t-87 56v-566q99 21 163 93t64 171zM322 1120q0 -102 59 -167t174 -132v533q-102 -6 -167.5 -69.5t-65.5 -164.5zM168 51v340h8q25 -70 57 -130t78 -119t109 -93.5t135 -34.5v611q-240 131 -307 211q-78 100 -78 206
q0 104 56 184t141.5 122t187.5 51v145h66v-145q139 -5 321 -80v-281h-8q-49 115 -129.5 204t-183.5 108v-566q207 -112 261 -171q26 -29 60 -69q60 -73 59 -186q2 -164 -111 -263t-269 -120v-147h-66v141q-213 0 -387 82z" />
    <glyph glyph-name="percent" unicode="%" horiz-adv-x="1681" 
d="M1204 29q130 0 212 145q83 146 83 301q0 56 -16.5 110t-57 95t-98.5 41q-121 0 -199 -151q-78 -152 -77 -322q-1 -91 41 -156q42 -64 112 -63zM1303 770q121 0 190.5 -81.5t71.5 -204.5q0 -264 -171 -426q-89 -83 -212 -83q-86 1 -152.5 45t-101.5 115t-35 156
q0 175 120 327t290 152zM422 698q130 0 212 148q83 149 83 301q0 56 -16.5 109t-57.5 94t-98 41q-122 0 -198 -151q-77 -152 -77 -322q0 -53 13 -100t49 -83.5t90 -36.5zM904 1225q-62 0 -140 32q18 -47 18 -137q0 -107 -47 -213t-126 -180q-88 -82 -209 -82q-120 0 -204 91
q-83 92 -83 246q-1 156 119 308t286 152q77 0 135 -38q87 -57 117 -76q61 -38 143 -38q181 0 369 209h82l-989 -1595h-88l876 1411l-6 4q-1 -1 -8 -5t-18.5 -10.5t-23.5 -13.5q-108 -65 -203 -65z" />
    <glyph glyph-name="ampersand" unicode="&#x26;" horiz-adv-x="1468" 
d="M485 1194q0 -140 152 -342q201 111 201 309q0 94 -43 160.5t-132 66.5q-79 0 -129 -54q-50 -57 -49 -140zM614 80q128 0 277 141l-354 465q-7 9 -16.5 21t-12.5 16q-123 -63 -177 -117q-53 -53 -55 -129q0 -144 104 -271q104 -126 234 -126zM1513 8v-8h-419
q-77 62 -172 182q-225 -213 -435 -213q-171 0 -279 129q-108 128 -108 266t76 208q74 68 273 176q5 3 15.5 8.5t14.5 7.5q-131 191 -131 330q0 145 96 246.5t240 101.5q133 0 216 -60t83 -188q0 -66 -27.5 -125t-78 -106.5t-98.5 -81t-113 -68.5l354 -448q242 321 114 434
q-41 37 -126 43v8h501v-8q-80 -22 -147 -97q-70 -78 -155 -209q-83 -129 -154 -214q233 -285 460 -314z" />
    <glyph glyph-name="quotesingle" unicode="'" horiz-adv-x="458" 
d="M135 1356q0 37 28 61.5t65 24.5t66.5 -26t29.5 -62q0 -34 -40 -169q-39 -134 -44 -216h-21q-5 82 -44 216q-40 136 -40 171z" />
    <glyph glyph-name="parenleft" unicode="(" horiz-adv-x="710" 
d="M199 651q0 455 442 897h37q-305 -464 -305 -917q0 -257 75 -475t230 -443h-37q-137 128 -273 349q-79 128 -124 284t-45 305z" />
    <glyph glyph-name="parenright" unicode=")" horiz-adv-x="710" 
d="M256 144q82 216 82 486q0 269 -82 487q-84 220 -223 431h37q129 -124 267 -336q82 -124 128.5 -278.5t46.5 -303.5q0 -390 -316 -778q-61 -76 -126 -139h-37q139 211 223 431z" />
    <glyph glyph-name="asterisk" unicode="*" horiz-adv-x="796" 
d="M428 1059l227 -207l-120 -86l-136 278l-137 -278l-119 84l232 209l-318 53l49 137l279 -153l-55 317h147l-59 -317l276 153l45 -137z" />
    <glyph glyph-name="plus" unicode="+" 
d="M518 1014h131v-373h361v-127h-361v-373h-131v373h-360v127h360v373z" />
    <glyph glyph-name="comma" unicode="," horiz-adv-x="423" 
d="M160 -49q0 29 -30 72t-30 88q0 47 32.5 75.5t79.5 30.5q50 0 80 -36t30 -87q0 -91 -80 -199t-170 -171l-6 4q94 121 94 223z" />
    <glyph glyph-name="hyphen" unicode="-" horiz-adv-x="595" 
d="M541 664v-138h-486v138h486z" />
    <glyph glyph-name="period" unicode="." horiz-adv-x="423" 
d="M336 95q0 -50 -37 -87t-87 -37t-87 37t-37 87t37 87t87 37t87 -37t37 -87z" />
    <glyph glyph-name="slash" unicode="/" horiz-adv-x="811" 
d="M797 1442l-693 -1473h-90l693 1473h90z" />
    <glyph glyph-name="zero" unicode="0" 
d="M584 8q60 0 108 36t78 98t51.5 132.5t32 152.5t14.5 145t4 121q0 214 -55 435q-11 46 -29.5 89.5t-46 87t-68.5 70t-89 26.5q-69 0 -123 -55.5t-84 -135.5t-49.5 -182.5t-26 -183.5t-6.5 -151q0 -213 51 -421q12 -47 30.5 -90.5t46.5 -84t70 -65t91 -24.5zM584 -31
q-117 0 -212 68t-150 179q-114 228 -111 478q0 178 51.5 341t160.5 283q112 124 260 124q149 0 261 -124q109 -121 161 -283.5t52 -340.5q0 -386 -206 -606q-111 -119 -267 -119z" />
    <glyph glyph-name="one" unicode="1" 
d="M711 1438h8v-1159q0 -139 34 -191t140 -80v-8h-551v8q134 27 174.5 79t40.5 192v907q-89 -51 -264 -111l-6 35q222 79 424 328z" />
    <glyph glyph-name="two" unicode="2" 
d="M145 1114q0 108 123 218q125 110 316 110q116 0 209 -36.5t153 -118.5t60 -200q0 -87 -29 -145q-36 -72 -57.5 -107t-65.5 -86q-35 -41 -112 -126q-17 -19 -43.5 -48t-34.5 -38l-349 -390h686v-147h-860v33l418 491q264 310 264 525q0 145 -93 228q-94 83 -224 83
q-84 0 -159.5 -36.5t-125.5 -102.5q25 4 41 4q58 0 98.5 -33.5t40.5 -89.5q-2 -54 -35.5 -89.5t-87.5 -35.5q-57 0 -95 40t-38 97z" />
    <glyph glyph-name="three" unicode="3" 
d="M119 197q0 56 38 92.5t94 36.5q54 0 89 -32.5t35 -85.5q0 -50 -31.5 -87.5t-81.5 -50.5q77 -52 210 -52t246 100q114 101 114 274q0 90 -33 159.5t-91.5 111.5t-132.5 63t-161 22h-25l-4 6l352 503h-594v156h772v-8l-362 -516q188 -23 326 -135q137 -114 137 -312
t-160 -336q-161 -138 -381 -137q-159 0 -257 70q-99 70 -99 158z" />
    <glyph glyph-name="four" unicode="4" 
d="M725 279v131h-653v8l721 1016h94v-920h176v-104h-176v-131q0 -139 34 -191t140 -80v-8h-551v8q134 25 174.5 78.5t40.5 192.5zM213 514h512v729z" />
    <glyph glyph-name="five" unicode="5" 
d="M1008 487q0 -171 -88 -289q-84 -112 -204 -170t-262 -58q-134 0 -235 68q-100 69 -100 161q0 54 38.5 91.5t92.5 37.5q53 0 88 -32.5t35 -84.5q0 -48 -28.5 -85.5t-74.5 -55.5q85 -56 187 -58q111 0 198 61t131.5 156.5t44.5 205.5q0 173 -93 259q-95 86 -234 86
q-140 0 -273 -112l-6 2l97 743h610v-156h-578l-69 -505q145 135 319 135q173 0 288.5 -113.5t115.5 -286.5z" />
    <glyph glyph-name="six" unicode="6" 
d="M568 811q-141 0 -238 -80q-23 -97 -23 -197q-1 -102 15 -190q63 -332 288 -332q62 0 111 25t79.5 65t50.5 94t28 107.5t8 110.5q0 74 -20 143.5t-57.5 127t-100.5 92t-141 34.5zM340 774q122 117 299 117q178 0 298 -114q120 -113 120 -317t-131 -347t-333 -143
q-201 0 -337 160q-137 161 -137 381t113 424t302.5 339.5t407.5 167.5v-33q-185 -45 -360 -221t-242 -414z" />
    <glyph glyph-name="seven" unicode="7" 
d="M936 1257h-830v156h951v-8q-180 -306 -329 -689q-152 -390 -234 -716h-191q147 471 633 1257z" />
    <glyph glyph-name="eight" unicode="8" 
d="M842 1110q0 127 -73.5 205t-199.5 78q-127 0 -197 -79t-69 -188q0 -109 97 -181q100 -72 262 -146q180 103 180 311zM285 342q0 -139 84.5 -232.5t221.5 -93.5q131 0 220.5 85.5t89.5 216.5q0 124 -100 208q-104 85 -301 172q-215 -135 -215 -356zM111 328q0 229 352 389
q-161 85 -240 168q-80 83 -80 219q0 137 124 237q125 101 324 101q201 0 313 -96t112 -228q0 -200 -318 -336l21 -10q138 -70 243 -161q103 -90 103 -255t-147 -276q-148 -111 -338 -111q-67 -1 -132.5 12t-127 42t-108 70t-74.5 102t-27 133z" />
    <glyph glyph-name="nine" unicode="9" 
d="M602 625q146 0 248 69q10 63 10 135q0 68 -6.5 135.5t-27.5 147.5t-53.5 140t-90.5 100.5t-133 40.5q-73 0 -127.5 -36.5t-84 -96t-43.5 -124t-14 -132.5q0 -159 84 -269.5t238 -109.5zM844 651q-138 -102 -314 -102t-298 105t-122 308q0 202 132.5 341t333.5 139
q198 0 335 -177t138 -423q-2 -319 -235 -572q-235 -255 -568 -301v31q207 51 379 220q173 170 219 431z" />
    <glyph glyph-name="colon" unicode=":" horiz-adv-x="423" 
d="M336 945q0 -50 -37 -87t-87 -37t-87 37t-37 87t37 87t87 37t87 -37t37 -87zM336 95q0 -50 -37 -87t-87 -37t-87 37t-37 87t37 87t87 37t87 -37t37 -87z" />
    <glyph glyph-name="semicolon" unicode=";" horiz-adv-x="423" 
d="M336 945q0 -50 -37 -87t-87 -37t-87 37t-37 87t37 87t87 37t87 -37t37 -87zM160 -49q0 29 -30 72t-30 88q0 47 32.5 75.5t79.5 30.5q50 0 80 -36t30 -87q0 -91 -80 -199t-170 -171l-6 4q94 121 94 223z" />
    <glyph glyph-name="less" unicode="&#x3c;" horiz-adv-x="1257" 
d="M1008 162v-17l-850 420v25l850 420v-17l-596 -415z" />
    <glyph glyph-name="equal" unicode="=" 
d="M1010 485v-127h-852v127h852zM1010 797v-127h-852v127h852z" />
    <glyph glyph-name="greater" unicode="&#x3e;" horiz-adv-x="1257" 
d="M1008 590v-25l-850 -420v17l596 416l-596 415v17z" />
    <glyph glyph-name="question" unicode="?" horiz-adv-x="964" 
d="M600 95q0 -51 -36 -87.5t-87 -36.5t-87 36.5t-36 87.5t36 87.5t87 36.5t87 -36.5t36 -87.5zM487 360h-14q0 97 32 198.5t87 185.5q119 182 119 330t-81 222q-82 74 -192 74q-143 0 -235 -119q10 2 30 2q57 0 97.5 -33.5t40.5 -89.5q0 -53 -36 -88.5t-89 -35.5
q-56 0 -90.5 37t-34.5 94q0 106 109 205q109 100 277 100q165 0 270 -91t104 -253q0 -160 -135 -319q-37 -45 -113 -131q-137 -155 -146 -288z" />
    <glyph glyph-name="at" unicode="@" horiz-adv-x="1552" 
d="M1057 90q91 0 216 143q124 142 124 342q0 239 -165 408q-165 170 -420 170t-426 -202q-171 -201 -171 -485t173 -460t431 -176q196 0 369 92l6 -10q-180 -141 -424 -141q-285 2 -496 193q-211 192 -211 503q0 157 57 298.5t155 243.5t236.5 162.5t295.5 61.5
q282 0 487 -179t203 -454q0 -178 -94.5 -317.5t-261.5 -205.5q-89 -36 -170 -36q-82 0 -82 51q0 37 8 74l45 244h-16q-112 -220 -181 -294q-71 -75 -131 -75q-88 0 -143 81q-55 80 -55 224q0 241 154 423q154 183 364 183q64 0 145 -22l70 22h20l-90 -460l-45 -340l-2 -37
q0 -25 25 -25zM954 891q-76 0 -140.5 -34.5t-108.5 -90t-75 -126.5t-45.5 -143t-15.5 -141q0 -95 29 -155q29 -59 69 -59q39 0 92 68q50 67 119 190q18 33 37.5 67.5t29 52t13.5 23.5l58 340q-30 8 -62 8z" />
    <glyph glyph-name="A" unicode="A" horiz-adv-x="1415" 
d="M913 569l-249 699l-248 -699h497zM1047 134q0 64 -111 376h-541q-106 -299 -106 -366q-1 -66 29 -93q29 -26 102 -43v-8h-420v8q40 15 69 35t52.5 51.5t37 56.5t36.5 72q45 95 133 328l329 876h127l316 -874q117 -324 170 -419q52 -93 143 -126v-8h-489v8q67 13 96 38
q28 24 27 88z" />
    <glyph glyph-name="B" unicode="B" horiz-adv-x="1282" 
d="M86 1405v8h551q473 0 473 -332q0 -133 -85 -217q-86 -85 -210 -119v-8q162 -17 274 -103q113 -87 111 -243q0 -199 -150 -295t-384 -96h-580v8q105 27 139 81q35 55 35 190v856q0 134 -35 189q-34 54 -139 81zM432 1358v-604h176q150 0 239 84.5t89 232.5q0 77 -25.5 134
t-72.5 89.5t-107 48t-135 15.5h-164zM432 698v-643h227q159 0 257 82.5t98 239.5q0 108 -55 182.5t-139.5 106.5t-190.5 32h-197z" />
    <glyph glyph-name="C" unicode="C" horiz-adv-x="1421" 
d="M866 -31q-329 0 -549 200q-219 199 -219 513q0 220 117 399q112 170 285 265.5t374 95.5q90 0 209.5 -23t196.5 -57v-275h-8q-139 309 -422 310q-240 0 -396 -198q-155 -199 -157 -495q0 -296 165 -493t412 -197q295 0 445 330h8l-27 -289q-69 -36 -190 -61
q-129 -26 -244 -25z" />
    <glyph glyph-name="D" unicode="D" horiz-adv-x="1560" 
d="M422 1358v-1303h272q279 2 438 187q158 187 158 472q0 286 -164 465t-407 179h-297zM688 0h-612v8q105 28 140 80q34 50 34 191v856q0 65 -5 102.5t-22.5 73t-52.5 57t-94 37.5v8h633q165 0 305.5 -44.5t246 -128.5t166.5 -215.5t62 -295.5q0 -176 -61 -316t-169 -229.5
t-253.5 -136.5t-317.5 -47z" />
    <glyph glyph-name="E" unicode="E" 
d="M252 279v856q0 134 -35 189q-34 54 -139 81v8h921v-289h-8q-86 154 -130 193q-47 41 -148 41h-289v-604h276q75 0 114 28.5t85 102.5h8v-316h-8q-47 74 -84.5 101.5t-114.5 27.5h-276v-643h346q95 0 142 40q48 41 159 198q14 20 21 29h8l-41 -322h-981v8q106 28 140 80
t34 191z" />
    <glyph glyph-name="F" unicode="F" horiz-adv-x="1132" 
d="M627 8v-8h-555v8q105 28 140 80q34 50 34 191v856q0 134 -35 189q-34 54 -139 81v8h962v-289h-8q-87 160 -126 196q-41 38 -142 38h-340v-615h327q76 0 113.5 29t85.5 105h8v-322h-8q-34 53 -53 76t-55.5 40t-90.5 17h-327v-409q0 -135 40 -188.5t169 -82.5z" />
    <glyph glyph-name="G" unicode="G" horiz-adv-x="1519" 
d="M1350 428v-377q-267 -82 -506 -82q-317 0 -532 206q-214 205 -214 525q0 239 134.5 419.5t364.5 270.5q137 52 261 52q105 0 236.5 -20.5t214.5 -55.5v-276h-9q-164 305 -444 305q-229 0 -394 -193t-165 -494q0 -300 168 -488t414 -189q70 0 160.5 15.5t144.5 41.5v340
q0 128 -35 186q-34 57 -139 84v9h473v-9q-76 -28 -105 -80q-28 -50 -28 -190z" />
    <glyph glyph-name="H" unicode="H" horiz-adv-x="1648" 
d="M1571 8v-8h-520v8q58 16 93 36t52.5 53t23 70t5.5 101v426h-801v-426q0 -64 5.5 -101t23 -70t52.5 -53t93 -36v-8h-520v8q58 16 93 36t52.5 53t23 70t5.5 101v877q0 64 -5.5 101t-23 70t-52.5 53t-93 36v8h520v-8q-58 -16 -93 -36t-52.5 -53t-23 -70t-5.5 -101v-385h801
v385q0 64 -5.5 101t-23 70t-52.5 53t-93 36v8h520v-8q-58 -16 -93 -36t-52.5 -53t-23 -70t-5.5 -101v-877q0 -64 5.5 -101t23 -70t52.5 -53t93 -36z" />
    <glyph glyph-name="I" unicode="I" horiz-adv-x="675" 
d="M598 8v-8h-520v8q58 16 93 36t52.5 53t23 70t5.5 101v877q0 64 -5.5 101t-23 70t-52.5 53t-93 36v8h520v-8q-58 -16 -93 -36t-52.5 -53t-23 -70t-5.5 -101v-877q0 -64 5.5 -101t23 -70t52.5 -53t93 -36z" />
    <glyph glyph-name="J" unicode="J" horiz-adv-x="669" 
d="M424 1135v-1088q0 -241 -156 -365q-71 -56 -188 -110l-4 6q176 122 176 399v1158q0 142 -34 191q-36 51 -140 79v8h520v-8q-104 -28 -140 -79q-34 -49 -34 -191z" />
    <glyph glyph-name="K" unicode="K" horiz-adv-x="1456" 
d="M1501 8v-8h-538v8q61 12 90 26q28 14 26 50q0 67 -145 272l-283 400l-233 -238v-250q0 -64 5.5 -101t23 -70t52.5 -53t93 -36v-8h-520v8q58 16 93 36t52.5 53t23 70t5.5 101v877q0 64 -5.5 101t-23 70t-52.5 53t-93 36v8h520v-8q-58 -16 -93 -36t-52.5 -53t-23 -70
t-5.5 -101v-551l440 465q160 167 160 250q0 59 -121 96v8h514v-8q-117 -34 -197 -95q-85 -64 -256 -241l-186 -190l369 -523q145 -205 205 -262q61 -58 155 -86z" />
    <glyph glyph-name="L" unicode="L" horiz-adv-x="1118" 
d="M418 1145v-1090h354q70 2 124 53q59 56 169 214h8l-41 -322h-960v8q57 15 91.5 36t52.5 54t24 71t6 99v877q0 61 -6 99t-24 71t-52.5 54t-91.5 36v8h520v-8q-57 -15 -91.5 -36t-52.5 -54t-24 -71t-6 -99z" />
    <glyph glyph-name="M" unicode="M" horiz-adv-x="1910" 
d="M1864 8v-8h-484v8q94 28 122 72t28 147q0 21 -8 179l-54 829l-544 -1245h-58l-508 1247h-8l-53 -801q-10 -179 -10 -190q-1 -120 31 -168q32 -47 124 -70v-8h-411v8q105 31 137 105q31 72 49 323l45 617q6 79 6 155q0 81 -35 125.5t-114 71.5v8h350l485 -1190l516 1190
h322v-8q-87 -32 -118 -79q-45 -68 -27 -265l43 -627q18 -262 43 -326q25 -66 131 -100z" />
    <glyph glyph-name="N" unicode="N" horiz-adv-x="1611" 
d="M1339 262v725q0 165 -13 242t-44 114.5t-104 61.5v8h401v-8q-102 -33 -132 -107t-30 -311v-1007h-80l-1024 1239v-793q-1 -157 13 -242q13 -76 45 -113.5t104 -62.5v-8h-401v8q102 33 132 107t30 311v780q0 60 -52 118q-53 59 -151 81v8h346z" />
    <glyph glyph-name="O" unicode="O" horiz-adv-x="1638" 
d="M440 218q152 -204 379 -204t378 204q151 203 151 489q0 285 -151 487q-151 201 -378 203q-227 0 -379 -204q-152 -203 -152 -487q0 -283 152 -488zM1329 178q-221 -209 -510 -209t-510 209t-221 522q0 145 59 281.5t157.5 237.5t234 162t280.5 61q194 0 364 -103
t269 -274.5t98 -364.5q0 -313 -221 -522z" />
    <glyph glyph-name="P" unicode="P" horiz-adv-x="1222" 
d="M662 637h-244v-358q0 -135 40 -188.5t169 -82.5v-8h-555v8q105 28 140 80q34 50 34 191v856q0 65 -5 102.5t-22.5 73t-52.5 57t-94 37.5v8h614q465 0 465 -366q0 -146 -73 -241q-72 -94 -176 -131.5t-240 -37.5zM418 1358v-668h209q172 0 259 96t87 248q0 156 -82 240
t-238 84h-235z" />
    <glyph glyph-name="Q" unicode="Q" horiz-adv-x="1638" 
d="M440 218q152 -204 379 -204t378 204q151 203 151 489q0 285 -151 487q-151 201 -378 203q-227 0 -379 -204q-152 -203 -152 -487q0 -283 152 -488zM819 -31q-289 0 -510 209t-221 522q0 145 59 281.5t157.5 237.5t234 162t280.5 61q194 0 364 -103t269 -274.5t98 -364.5
q0 -253 -152 -444q-152 -190 -378 -258q165 -78 293 -131.5t285.5 -107t314 -80.5t309.5 -27q155 0 293 43v-8q-67 -64 -193 -119q-128 -56 -277 -57t-390 77q-242 79 -522 250l-226 137q-43 -6 -88 -6z" />
    <glyph glyph-name="R" unicode="R" horiz-adv-x="1333" 
d="M608 641h-190v-362q0 -139 34 -191t140 -80v-8h-520v8q105 28 140 80q34 50 34 191v856q0 65 -5 102.5t-22.5 73t-52.5 57t-94 37.5v8h608q72 0 136 -10t125.5 -34.5t105.5 -62.5t71 -98.5t27 -138.5q-1 -167 -105 -258q-105 -93 -262 -133l318 -440q95 -132 147 -172
q50 -38 146 -58v-8h-123q-165 0 -214 26q-46 25 -139 160zM418 1358v-664h196q141 0 245 89q103 88 103 245q0 152 -81.5 241t-231.5 89h-231z" />
    <glyph glyph-name="S" unicode="S" horiz-adv-x="1032" 
d="M125 51v340h8q135 -377 389 -377q112 0 197.5 73.5t85.5 184.5q0 109 -70 191q-71 83 -169 141l-198 120q-105 64 -172 154t-67 199q0 162 125 263q126 102 282 102q158 0 353 -82v-281h-8q-133 314 -363 316q-104 0 -177 -65t-73 -168q0 -173 242 -313q76 -43 200 -119
q106 -65 173.5 -161t66.5 -207q0 -122 -65.5 -213.5t-168 -136t-222.5 -43.5q-195 0 -369 82z" />
    <glyph glyph-name="T" unicode="T" horiz-adv-x="1327" 
d="M924 8v-8h-521v8q106 28 141 80q34 50 34 191v1079h-226q-55 0 -101 -46q-42 -42 -167 -204h-8l41 305h1093l41 -305h-8q-123 160 -169 206q-44 44 -99 44h-225v-1079q0 -139 33 -191q35 -52 141 -80z" />
    <glyph glyph-name="U" unicode="U" horiz-adv-x="1579" 
d="M1266 387v600q0 228 -31 306q-31 79 -131 112v8h399v-8q-72 -23 -103.5 -62t-44.5 -116q-12 -73 -14 -240v-606q0 -88 -31 -159t-83 -117.5t-122.5 -78t-146 -45t-157.5 -12.5q-246 0 -399 111t-152 301v764q0 61 -6 99t-24 71t-52.5 54t-91.5 36v8h520v-8
q-57 -15 -91.5 -36t-52.5 -54t-24 -71t-6 -99v-793q0 -136 105 -222q104 -85 300 -85q86 0 161.5 19t139 58t101 107t37.5 158z" />
    <glyph glyph-name="V" unicode="V" horiz-adv-x="1415" 
d="M993 1405v8h420v-8q-74 -29 -112 -76t-82 -139q-43 -89 -134 -328l-329 -876h-127l-316 874q-119 327 -171 419q-53 93 -142 126v8h489v-8q-65 -13 -95 -38q-28 -24 -27 -75q-1 -84 122 -426l259 -721l260 725q117 327 116 412q0 56 -33 81.5t-98 41.5z" />
    <glyph glyph-name="W" unicode="W" horiz-adv-x="2027" 
d="M1438 160l219 710q90 292 90 371q0 75 -29.5 108t-105.5 56v8h420v-8q-70 -29 -106 -76.5t-74 -134.5q-41 -96 -117 -332l-289 -876h-117l-317 1118l-355 -1118h-127l-243 874q-106 390 -179 476q-37 43 -104 69v8h488v-8q-68 -20 -95 -47t-27 -92q0 -66 89 -404
l188 -715l221 723q82 262 82 352q0 84 -31.5 121t-115.5 62v8h461v-8q-70 -21 -97 -48t-27 -93q0 -70 93 -398z" />
    <glyph glyph-name="X" unicode="X" horiz-adv-x="1388" 
d="M449 10v-10h-439v8q88 34 147 94q61 64 238 297l219 289l-321 475q-68 99 -126 153t-153 89v8h541v-10q-133 -33 -133 -96q0 -55 57 -138l246 -366l149 225q143 218 144 281q0 35 -26 55q-25 19 -85 39v10h430v-8q-90 -34 -163 -103q-69 -66 -220 -282l-190 -272
l344 -498q78 -114 127 -162q47 -46 141 -80v-8h-538v10q78 24 106 44q32 22 33 66q0 45 -55 124l-271 389l-162 -232q-163 -233 -161 -295q0 -37 26 -55q26 -19 95 -41z" />
    <glyph glyph-name="Y" unicode="Y" horiz-adv-x="1292" 
d="M739 623v-344q0 -128 35 -187q34 -58 139 -84v-8h-520v8q105 27 139 84q35 58 35 187v339l-207 375q-134 242 -202 318q-70 78 -146 94v8h475v-8q-52 -14 -75 -31q-25 -18 -23 -53q0 -75 137 -322l179 -317l172 330q119 227 118 295q-1 31 -20 52t-39.5 29t-54.5 17v8
h399v-8q-71 -10 -142 -93q-69 -81 -190 -306z" />
    <glyph glyph-name="Z" unicode="Z" horiz-adv-x="1159" 
d="M1067 0h-1016v8l823 1350h-499q-70 0 -118 -42q-46 -40 -169 -192h-8l41 289h966v-8l-815 -1350h537q70 2 124 53q56 53 165 214h8z" />
    <glyph glyph-name="bracketleft" unicode="[" horiz-adv-x="776" 
d="M606 -229v-58h-405v1835h405v-57h-254v-1720h254z" />
    <glyph glyph-name="backslash" unicode="\" horiz-adv-x="811" 
d="M104 1442l693 -1473h-90l-693 1473h90z" />
    <glyph glyph-name="bracketright" unicode="]" horiz-adv-x="776" 
d="M575 1548v-1835h-405v58h254v1720h-254v57h405z" />
    <glyph glyph-name="asciicircum" unicode="^" horiz-adv-x="874" 
d="M504 1413l221 -485h-41l-248 372l-246 -372h-40l217 485h137z" />
    <glyph glyph-name="underscore" unicode="_" horiz-adv-x="942" 
d="M866 -168v-137h-790v137h790z" />
    <glyph glyph-name="grave" unicode="`" horiz-adv-x="489" 
d="M55 1413h191q40 -140 147 -250h-10q-211 91 -328 250z" />
    <glyph glyph-name="a" unicode="a" horiz-adv-x="1042" 
d="M256 290q0 -108 59.5 -161t168.5 -53q106 0 202 57v393q-49 9 -111 11q-81 0 -151 -24t-119 -82t-49 -141zM436 1001q-148 0 -233 -75q56 -10 84.5 -37t27.5 -70q-1 -41 -27.5 -65.5t-68.5 -26.5q-43 0 -70.5 28.5t-29.5 71.5q0 96 133 169t282 73q144 0 229 -72t85 -213
v-544q0 -57 12 -92.5t40.5 -55.5t61 -28.5t87.5 -14.5v-8q-52 -22 -120.5 -39.5t-115.5 -17.5q-57 0 -90 37.5t-35 95.5q-163 -140 -323 -142q-113 0 -195 70t-82 202q0 131 138 226q136 93 460 107v127q0 294 -250 294z" />
    <glyph glyph-name="b" unicode="b" horiz-adv-x="1253" 
d="M594 18q162 0 274 136q111 135 113 360q0 224 -109 343q-110 120 -270 120q-128 0 -256 -82v-801q122 -76 248 -76zM338 1544h8v-620q54 52 148 98q97 47 215 47q187 0 321 -132q133 -132 133 -362q0 -197 -98.5 -344t-282.5 -217q-102 -39 -196 -39q-95 2 -219.5 16
t-188.5 36v1171q0 135 -34 178t-140 68v8q188 18 334 92z" />
    <glyph glyph-name="c" unicode="c" horiz-adv-x="944" 
d="M621 1026q-94 0 -164.5 -41t-109 -110.5t-57 -149t-18.5 -169.5q0 -216 111 -335t271 -119t284 105l14 -10q-47 -74 -151 -148t-246 -74q-193 1 -325 141q-132 139 -132 385t148 407q149 162 366 161q42 0 87.5 -8.5t92.5 -26t77 -51.5t30 -80q0 -49 -33.5 -85t-82.5 -36
q-48 0 -81 30t-32 75q0 84 63 123q-48 16 -112 16z" />
    <glyph glyph-name="d" unicode="d" horiz-adv-x="1255" 
d="M1063 1544h8v-1173q0 -180 28 -227q29 -48 146 -78v-9q-178 -17 -334 -82h-8v195q-58 -75 -157 -135q-97 -58 -220 -60q-178 1 -305 139q-127 137 -127 355q0 281 171 441q171 161 419 159q94 0 219 -25v154q1 135 -33 178q-34 42 -151 68v8q200 18 344 92zM264 546
q0 -94 23.5 -173t69.5 -139.5t121 -95t171 -34.5q121 1 254 91v718q-131 107 -290 107q-91 0 -161 -43t-109.5 -114t-59 -151.5t-19.5 -165.5z" />
    <glyph glyph-name="e" unicode="e" horiz-adv-x="1042" 
d="M571 1024q-113 0 -193 -98t-99 -279l524 19q-1 358 -232 358zM967 606h-693v-55q0 -72 14 -137.5t44.5 -122t74.5 -98t106.5 -65.5t138.5 -24q170 0 313 121l12 -8q-50 -84 -155 -163q-106 -79 -259 -79q-202 2 -332 141q-131 140 -131 388t146 406q145 157 346 159
q377 0 377 -410q0 -21 -2 -53z" />
    <glyph glyph-name="f" unicode="f" horiz-adv-x="628" 
d="M627 975h-236v-707q0 -128 33 -181q33 -52 137 -79v-8h-487v8q90 27 120 80t29 180v707h-203l21 69h182v105q1 194 99 292q97 97 247 97q92 0 151 -41q58 -40 58 -94q0 -49 -28 -81t-76 -32q-47 0 -74 28t-27 76q0 52 66 101q-29 8 -57 8q-43 0 -75.5 -14t-52.5 -41
t-33.5 -56.5t-19.5 -70t-8 -72t-2 -71.5v-134h236v-69z" />
    <glyph glyph-name="g" unicode="g" horiz-adv-x="1073" 
d="M741 700q0 55 -12 109.5t-36.5 105t-70 82t-104.5 31.5q-104 0 -164 -93q-60 -94 -59 -228q0 -56 11.5 -110.5t35.5 -106t69 -83t105 -32.5q61 0 106.5 30.5t70 80t36.5 103.5t12 111zM174 -219q0 -51 22 -91t57 -64.5t81.5 -41t91 -22.5t90.5 -6q65 0 132 15.5t129.5 46
t102.5 85.5t40 125q0 152 -213 160l-332 14q-16 0 -35 4q-166 -91 -166 -225zM522 338q-91 0 -164 29q-73 -68 -71 -127q0 -82 131 -88l293 -15q169 -7 256 -61q86 -53 86 -176q-1 -123 -99 -216q-187 -176 -514 -176q-47 0 -98 5.5t-110 22t-104.5 41t-75.5 67t-29 96.5
q0 160 299 270q-61 11 -106.5 46t-45.5 91q0 123 166 228q-102 48 -158.5 133.5t-56.5 196.5q0 163 112 263q113 101 259 101t256 -65l335 65l-16 -135l-268 27q117 -95 117 -253q0 -163 -115 -266.5t-279 -103.5z" />
    <glyph glyph-name="h" unicode="h" horiz-adv-x="1257" 
d="M901 258v461q0 242 -241 243q-120 0 -271 -88v-616q0 -132 30 -178t120 -72v-8h-467v8q92 29 121 76q29 48 28 174v928q0 135 -30 180t-144 78v8q139 7 334 92h8v-641q202 166 369 166q137 0 221 -85q84 -86 84 -269v-410q0 -164 26 -218q25 -52 123 -79v-8h-460v8
q91 28 120 76q27 45 29 174z" />
    <glyph glyph-name="i" unicode="i" horiz-adv-x="591" 
d="M381 1069h8v-817q0 -124 29 -170q29 -45 121 -74v-8h-461v8q92 29 121 74q29 47 28 170v479q0 131 -31 174q-30 42 -143 74v8q167 12 328 82zM416 1339q0 -46 -32.5 -77t-79.5 -33q-46 0 -78 32.5t-32 78.5q0 45 33 77.5t78 32.5t78 -33t33 -78z" />
    <glyph glyph-name="j" unicode="j" horiz-adv-x="583" 
d="M383 1069h8v-1075q0 -360 -319 -486l-6 11q58 35 95 107t49.5 143t12.5 145v817q0 133 -30 175q-31 41 -144 73v8q175 12 334 82zM416 1339q0 -46 -32.5 -77t-79.5 -33q-46 0 -78 32.5t-32 78.5q0 45 33 77.5t78 32.5t78 -33t33 -78z" />
    <glyph glyph-name="k" unicode="k" horiz-adv-x="1191" 
d="M381 1544h8v-1292q0 -124 29 -170q29 -45 121 -74v-8h-467v8q92 29 121 74q29 47 28 170v946q-1 133 -31 176q-29 43 -143 70v8q188 18 334 92zM788 926q0 31 -26.5 54.5t-56 34t-60.5 15.5v14h518v-8q-80 -18 -159 -68q-80 -51 -218 -177l-192 -177l328 -383
q78 -92 148 -146t163 -77v-8h-179q-66 0 -132 9q-23 3 -62 30q-25 19 -64 70q-10 13 -87 108l-265 324l203 198q141 137 141 187z" />
    <glyph glyph-name="l" unicode="l" horiz-adv-x="577" 
d="M381 1544h8v-1292q0 -124 29 -170q29 -45 121 -74v-8h-467v8q92 29 121 74q29 47 28 170v946q-1 133 -31 176q-29 43 -143 70v8q188 18 334 92z" />
    <glyph glyph-name="m" unicode="m" horiz-adv-x="1867" 
d="M375 1069h8v-164q200 164 358 164q195 0 263 -174q219 174 364 174q83 0 143 -27t95 -77t51 -113.5t16 -144.5v-449q0 -127 29 -174t121 -76v-8h-461v8q92 29 121 76q29 48 28 174v461q0 243 -227 243q-114 0 -272 -92q23 -75 22 -163v-449q0 -127 29 -174t121 -76v-8
h-461v8q92 29 121 76q29 48 28 174v461q0 243 -226 243q-115 0 -261 -85v-625q0 -124 29 -170q29 -45 121 -74v-8h-461v8q92 29 121 74q29 47 28 170v479q0 133 -30 175q-31 41 -144 73v8q165 12 326 82z" />
    <glyph glyph-name="n" unicode="n" horiz-adv-x="1255" 
d="M897 258v461q0 242 -241 243q-120 0 -271 -88v-622q0 -124 29 -170q29 -45 121 -74v-8h-461v8q92 29 121 74q29 47 28 170v434q0 120 -13 171q-13 52 -45 76q-30 23 -116 46v8q165 12 326 82h8v-166q200 166 377 166q131 0 215 -85q84 -86 84 -267v-459q2 -129 29 -174
q29 -48 120 -76v-8h-460v8q91 28 120 76q27 45 29 174z" />
    <glyph glyph-name="o" unicode="o" horiz-adv-x="1255" 
d="M435 97q79 -79 192 -79t191 79q146 147 147 427q0 65 -10.5 131.5t-36 134t-63 119.5t-97 84.5t-132.5 32.5q-156 0 -246 -146q-91 -145 -91 -356q0 -278 146 -427zM1002 137q-156 -162 -375 -162t-374 161t-155 390t157 386t372 157q216 0 373 -157q158 -158 157 -385
q1 -227 -155 -390z" />
    <glyph glyph-name="p" unicode="p" horiz-adv-x="1267" 
d="M590 18q168 0 288 140q120 139 120 362q0 222 -111 340q-111 119 -261 119q-151 0 -266 -82v-811q130 -68 230 -68zM360 -6v-172q0 -158 30 -207t140 -78v-8h-487v8q93 29 121 75q29 47 29 171v897q0 172 -29 219t-146 80v8q190 18 334 82h8v-143q48 51 148 97
q99 46 215 46q193 0 324 -135q131 -136 131 -361q0 -133 -53 -255t-153 -199q-188 -144 -402 -144q-112 0 -210 19z" />
    <glyph glyph-name="q" unicode="q" horiz-adv-x="1251" 
d="M258 543q0 -210 110 -325q110 -114 269 -114q160 0 260 66v745q-59 46 -136.5 75.5t-148.5 29.5q-93 0 -164 -42.5t-111 -113.5t-59.5 -152t-19.5 -169zM1047 1069h18v-1262q0 -135 30 -189t119 -81v-8h-487v8q104 27 137 81t33 189v336q-69 -75 -165 -121t-195 -47
q-172 -1 -311 133q-138 134 -138 367q0 272 170 433t416 161q117 0 262 -35z" />
    <glyph glyph-name="r" unicode="r" horiz-adv-x="761" 
d="M381 1069h8v-811q0 -122 32 -172t144 -78v-8h-487v8q93 29 121 75q29 48 28 175v453q0 134 -29 180q-30 45 -145 78v8q132 6 328 92zM750 952q0 -49 -33.5 -82.5t-83.5 -33.5q-49 0 -83 33.5t-34 82.5q0 50 34 83.5t83 33.5t83 -33.5t34 -83.5z" />
    <glyph glyph-name="s" unicode="s" horiz-adv-x="870" 
d="M104 59v271h9q136 -312 338 -314q81 0 146 53t65 132q0 128 -193 218q-74 35 -161 80q-88 47 -140.5 119.5t-52.5 165.5q0 131 96 208t231 77q133 0 277 -59v-248h-10q-116 266 -289 266q-76 0 -131 -49.5t-55 -124.5q0 -74 56 -124q60 -51 139 -86q72 -32 162 -77
q80 -40 138 -113q57 -72 57 -190t-99 -204q-100 -86 -264 -85q-165 0 -319 84z" />
    <glyph glyph-name="t" unicode="t" horiz-adv-x="694" 
d="M436 -16q-231 0 -231 329v654h-164v8l84 47q75 43 128.5 107.5t108.5 160.5h9v-246h282v-73h-282v-690q0 -190 172 -191q79 0 166 35l8 -10q-143 -131 -281 -131z" />
    <glyph glyph-name="u" unicode="u" horiz-adv-x="1204" 
d="M1008 1069h8v-707q0 -173 28 -220q28 -48 146 -76v-9q-164 -17 -324 -82h-8v162q-190 -162 -352 -162q-299 0 -299 334v375q0 122 -13 173t-46 76q-30 23 -115 46v8q168 12 327 82h9v-760q0 -110 65.5 -163.5t179.5 -53.5q116 0 240 72v567q0 133 -30 175q-30 41 -144 73
v8q167 12 328 82z" />
    <glyph glyph-name="v" unicode="v" horiz-adv-x="1161" 
d="M8 1036v8h457v-8q-65 -17 -92 -43.5t-27 -88.5q0 -61 68 -253l188 -534l193 551q63 180 63 238q0 60 -33.5 86.5t-101.5 43.5v8h422v-8q-94 -31 -148 -99q-53 -70 -137 -294l-248 -657h-118l-240 657q-84 230 -125 293q-45 69 -121 100z" />
    <glyph glyph-name="w" unicode="w" horiz-adv-x="1800" 
d="M8 1036v8h457v-8q-65 -17 -92 -43.5t-27 -88.5q0 -61 68 -253l188 -534l193 551q26 70 39 118q-53 129 -90 176q-38 48 -101 74v8h457v-8q-65 -18 -91.5 -44t-27.5 -88q0 -61 68 -253l188 -534l193 551q63 180 63 238q0 60 -33.5 86.5t-101.5 43.5v8h422v-8
q-94 -31 -148 -99q-53 -70 -137 -294l-248 -657h-119l-254 694l-262 -694h-118l-240 657q-84 230 -125 293q-45 69 -121 100z" />
    <glyph glyph-name="x" unicode="x" horiz-adv-x="1216" 
d="M498 8v-8h-480v8q80 29 122.5 52t96.5 72q68 61 142 159l170 217l-57 76q-186 247 -260 326q-73 78 -173 126v8h521v-8q-78 -24 -106 -44q-32 -23 -32 -62q0 -41 58 -115l157 -211q119 171 130 188q13 21 22 34l15 24q34 42 34 94q0 55 -115 92v8h447v-8
q-66 -25 -116 -54t-96.5 -73.5t-77 -79t-85.5 -104.5l-129 -160l285 -370q54 -72 106 -112.5t135 -74.5v-8h-522v8q72 22 102 42q30 19 30 59t-91 161l-151 197l-93 -125q-123 -167 -122 -242q2 -35 31 -54q27 -18 102 -38z" />
    <glyph glyph-name="y" unicode="y" horiz-adv-x="1134" 
d="M16 1036v8h461v-10q-63 -14 -92 -38.5t-29 -82.5q0 -59 70 -266l184 -559l166 496q82 240 82 308q0 66 -30 96t-99 46v10h399v-8q-87 -36 -140 -118q-54 -82 -136 -314l-268 -749q-123 -345 -314 -347q-52 0 -97.5 34t-45.5 84q0 44 31 77t75 33q106 0 107 -121
q0 -11 -2 -21q112 32 209 314l33 92h-97l-213 604q-95 271 -133 337t-121 95z" />
    <glyph glyph-name="z" unicode="z" horiz-adv-x="974" 
d="M893 0h-832v8l627 979h-338q-55 0 -93 -38q-16 -16 -23 -22q-11 -10 -27 -31l-45 -55q-20 -25 -64 -79h-8l41 282h762v-8l-619 -981h381q59 0 103 38q41 35 168 190h8z" />
    <glyph glyph-name="braceleft" unicode="{" horiz-adv-x="649" 
d="M428 240v-160q0 -327 195 -367v-8q-190 17 -270.5 104.5t-80.5 278.5v168q0 166 -39 256t-155 104v17q118 13 156 104t38 256v168q0 191 80.5 278.5t270.5 104.5v-8q-195 -40 -195 -367v-159q0 -141 -66 -241.5t-196 -143.5q129 -43 195.5 -144t66.5 -241z" />
    <glyph glyph-name="bar" unicode="|" horiz-adv-x="417" 
d="M248 1544v-1780h-78v1780h78z" />
    <glyph glyph-name="braceright" unicode="}" horiz-adv-x="649" 
d="M219 1010v159q0 65 -6.5 116t-25 107t-59 93t-101.5 51v8q189 -17 269.5 -104.5t80.5 -278.5v-168q0 -166 39 -256t155 -104v-17q-117 -14 -155 -104t-39 -256v-168q0 -191 -80.5 -278.5t-269.5 -104.5v8q61 14 101.5 51t59 93t25 107t6.5 116v160q-2 139 66 240t198 145
q-130 44 -198 145t-66 240z" />
    <glyph glyph-name="asciitilde" unicode="~" 
d="M774 481q-71 2 -215 59q-146 58 -205 58q-49 0 -102.5 -29t-73.5 -71l-45 32q97 185 265 185q76 0 223 -57q150 -58 199 -58q44 0 99.5 33t73.5 72l39 -31q-100 -193 -258 -193z" />
    <glyph glyph-name="exclamdown" unicode="&#xa1;" horiz-adv-x="520" 
d="M379 949q0 -48 -36 -83t-84 -35t-83 35t-35 83t35 84t83 36q49 0 84.5 -35.5t35.5 -84.5zM319 162q41 -375 41 -441q0 -123 -102 -123q-40 0 -71 26q-30 26 -29 99q2 83 41 440q43 386 53 505h14q9 -108 53 -506z" />
    <glyph glyph-name="cent" unicode="&#xa2;" 
d="M293 721q0 -105 28.5 -192t96 -154.5t168.5 -91.5v895q-101 -20 -169.5 -94.5t-96 -166.5t-27.5 -196zM651 145v-241h-65v237q-183 -1 -326 143q-142 144 -141 373q0 229 135 391t332 183v192h65v-188q54 -7 86 -13t76 -22t77 -40q50 -36 50 -86q0 -49 -34.5 -87.5
t-82.5 -38.5q-44 0 -78.5 28.5t-34.5 71.5q2 86 62 121q-62 15 -121 17v-916l49 -2q141 0 279 105l14 -11q-151 -185 -342 -217z" />
    <glyph glyph-name="sterling" unicode="&#xa3;" horiz-adv-x="1110" 
d="M414 1097q0 -134 65 -331h377v-59h-362q18 -89 18 -175q0 -93 -72 -204t-157 -178h493q105 0 140 20q34 20 51 84h8q2 -22 2 -66q0 -102 -55 -145t-129 -43h-701v8q66 50 123 110t102 142t45 155q0 103 -55 292h-198v59h178q-41 147 -41 246q0 197 127 312
q128 116 277 116t235 -56q84 -56 84 -131q0 -50 -32.5 -84.5t-82.5 -34.5q-46 0 -77.5 29.5t-31.5 75.5q0 48 30.5 76t78.5 28q-77 51 -188 51q-82 0 -140.5 -42.5t-85 -108t-26.5 -146.5z" />
    <glyph glyph-name="currency" unicode="&#xa4;" 
d="M585 307q166 0 280 120.5t112 287.5q0 167 -113 287t-280 120t-280.5 -120t-113.5 -288t114 -287.5t281 -119.5zM1001 195l-110 116q-122 -104 -307 -104t-303 104l-113 -116l-105 104l115 117q-102 120 -102 306t102 296l-115 110l105 107l113 -113q122 100 302 100
t308 -100l110 113l103 -107l-111 -110q99 -111 99 -298t-99 -304l111 -117z" />
    <glyph glyph-name="yen" unicode="&#xa5;" 
d="M508 618h-299v66h266q-181 360 -245 474q-73 129 -120 181q-48 51 -116 66v8h457v-8q-30 -6 -48 -13t-34.5 -24.5t-16.5 -44.5q0 -61 129 -324l154 -313h6l152 326q104 228 104 280q0 29 -8.5 49t-27.5 32t-36.5 18.5t-48.5 13.5v8h400v-8q-72 -10 -136 -91
q-61 -77 -176 -308l-159 -322h251v-66h-282v-180h282v-65h-282v-94q0 -128 35 -187q34 -58 139 -84v-8h-514v8q105 27 139 84q35 58 35 187v94h-299v65h299v180z" />
    <glyph glyph-name="brokenbar" unicode="&#xa6;" horiz-adv-x="417" 
d="M248 1544v-756h-78v756h78zM248 520v-756h-78v756h78z" />
    <glyph glyph-name="section" unicode="&#xa7;" horiz-adv-x="1052" 
d="M219 741q0 -42 34 -79.5t79 -63.5l395 -213q41 28 70 78t29 99q0 55 -28.5 85t-88.5 62l-359 186l-45 25q-86 -63 -86 -179zM971 627q-1 -82 -64 -150.5t-149 -111.5q127 -88 127 -225q0 -93 -57.5 -168t-143.5 -113.5t-177 -38.5q-145 0 -249 79q-104 80 -104 175
q0 52 40 88.5t93 36.5t89 -34t36 -87q0 -111 -125 -137q77 -59 191 -59q51 0 98 11.5t87 35.5t63.5 65.5t23.5 95.5q0 45 -35 78q-35 34 -107 74l-377 215q-147 83 -147 228t197 249q-70 49 -97 100q-27 52 -26 125q0 117 103 198q104 81 248 81t235 -62q90 -62 90 -145
q0 -54 -35 -90.5t-89 -36.5q-51 0 -84.5 30t-33.5 81t33.5 81.5t85.5 32.5q-73 47 -170 47q-56 0 -108 -16t-92 -56.5t-40 -97.5q0 -96 180 -184l314 -156q176 -86 176 -239z" />
    <glyph glyph-name="dieresis" unicode="&#xa8;" horiz-adv-x="684" 
d="M297 1331q0 -42 -30.5 -73.5t-72.5 -31.5t-73 31.5t-31 73.5t31 72.5t73 30.5t71.5 -30t31.5 -73zM592 1330q0 -42 -30 -73t-72 -31t-74 32t-31 73q0 41 32 72t73 31q42 0 72 -31t30 -73z" />
    <glyph glyph-name="copyright" unicode="&#xa9;" horiz-adv-x="1630" 
d="M384 245q175 -196 431 -196t431 196t175 460q0 266 -175 459q-176 194 -431 194t-431 -195q-175 -194 -175 -459t175 -459zM815 -27q-299 0 -504 214q-205 212 -205 517q0 304 205 518t504 214t504 -214t205 -517t-205 -517q-205 -213 -504 -215zM1135 455h4v-115
q-124 -94 -305 -94q-180 0 -312 123q-131 123 -131 329t141 336q141 129 322 129q129 0 252 -53v-184h-8q-47 89 -103.5 138.5t-142.5 49.5q-78 0 -137.5 -38t-93 -100t-50 -131.5t-16.5 -142.5q0 -80 21 -150t61 -126t105.5 -88.5t148.5 -32.5q154 0 244 150z" />
    <glyph glyph-name="ordfeminine" unicode="&#xaa;" horiz-adv-x="753" 
d="M686 530h-618v72h618v-72zM205 907q0 -57 35.5 -85.5t94.5 -28.5t103 24v248h-18q-142 0 -181 -55q-34 -47 -34 -103zM438 1104v96q0 73 -42.5 117.5t-115.5 44.5q-66 0 -100 -27q59 -26 60 -80q0 -67 -78 -67q-33 0 -57 20q-23 20 -21 54q0 58 90 104q91 47 186 47
q94 0 151 -46t58 -138v-340q0 -65 29 -89t98 -32v-8q-25 -14 -76.5 -26.5t-82.5 -12.5q-70 0 -95 76q-19 -19 -32 -25q-7 -3 -51 -28q-46 -27 -118 -27q-65 0 -119 41.5t-54 103.5q0 55 10 86t45 66q71 70 315 90z" />
    <glyph glyph-name="guillemotleft" unicode="&#xab;" horiz-adv-x="960" 
d="M272 543l279 -338h-19l-464 338l464 340h19zM674 543l207 -271h-9l-376 271l374 272h11z" />
    <glyph glyph-name="logicalnot" unicode="&#xac;" 
d="M158 514v127h852v-500h-131v373h-721z" />
    <glyph glyph-name="uni00AD" unicode="&#xad;" horiz-adv-x="581" 
d="M547 1335v-92h-512v92h512z" />
    <glyph glyph-name="registered" unicode="&#xae;" horiz-adv-x="1630" 
d="M385 247q174 -194 430 -194t430 194q174 193 174 458t-174 457t-430 192t-430 -193t-174 -457t174 -457zM815 -25q-299 0 -503 213q-204 212 -204 516t204 517t503 213t503 -213t204 -516t-204 -517q-204 -215 -503 -213zM698 1104v-399h119q88 0 143.5 55t55.5 143
q0 89 -53.5 145t-141.5 56h-123zM1190 262v-8h-156l-223 397h-113v-231q0 -92 27 -119q14 -14 47 -39v-8h-274v8q51 32 62 60.5t11 97.5v571q0 63 -13.5 96t-59.5 64v8h327q59 0 113.5 -13t102.5 -39.5t77 -74.5t29 -110q1 -105 -61 -167q-61 -60 -148 -87z" />
    <glyph glyph-name="macron" unicode="&#xaf;" horiz-adv-x="581" 
d="M547 1335v-92h-512v92h512z" />
    <glyph glyph-name="degree" unicode="&#xb0;" horiz-adv-x="835" 
d="M256 933q62 -71 160 -71q100 0 161.5 71t61.5 173t-61.5 173t-161.5 71q-98 0 -160 -71q-62 -72 -61 -173q-1 -101 61 -173zM418 776q-139 0 -236.5 96t-97.5 234t97.5 234t236.5 96t236.5 -96t97.5 -234q0 -139 -97.5 -234.5t-236.5 -95.5z" />
    <glyph glyph-name="plusminus" unicode="&#xb1;" 
d="M1010 127v-127h-852v127h852zM518 1044h131v-372h361v-127h-361v-373h-131v373h-360v127h360v372z" />
    <glyph glyph-name="twosuperior" unicode="&#xb2;" horiz-adv-x="806" 
d="M203 1364q88 61 219 61q130 0 207 -63q76 -63 76 -156t-89 -188q-28 -29 -96 -91t-94 -89l-180 -185h459v-121h-586v50l246 276q176 200 176 328q1 75 -55 128q-55 52 -128 52t-137 -33q46 0 78.5 -30t32.5 -76q0 -44 -31.5 -74.5t-75.5 -30.5q-45 0 -78 33t-32 78
q0 70 88 131z" />
    <glyph glyph-name="threesuperior" unicode="&#xb3;" horiz-adv-x="806" 
d="M179 556q-60 38 -60 90q0 48 28.5 79t76.5 31q47 0 73.5 -28.5t26.5 -75.5q0 -50 -48 -93q15 -4 48 -4q96 0 164 68q67 67 69 196q0 88 -61 135t-152 47q-16 0 -41 -4l-8 7l213 276h-387v133h547v-8l-224 -287q124 -18 197.5 -91t73.5 -195q0 -84 -54.5 -157.5t-136 -115
t-163.5 -41.5q-121 0 -182 38z" />
    <glyph glyph-name="acute" unicode="&#xb4;" horiz-adv-x="489" 
d="M203 1413h190q-117 -159 -327 -250h-11q108 117 148 250z" />
    <glyph glyph-name="mu" unicode="&#xb5;" horiz-adv-x="1204" 
d="M207 -387v1118q0 134 -31 175q-31 42 -143 73v8q168 12 327 82h9v-766q0 -110 54.5 -171.5t162.5 -61.5q107 0 268 94v567q0 134 -31 175q-31 42 -143 73v8q167 12 328 82h8v-756q0 -130 32 -174q31 -43 142 -73v-9q-164 -17 -324 -82h-8v162q-70 -52 -99 -71
q-53 -35 -133 -63t-139 -28q-140 0 -204 82q6 -115 63 -271t57 -188q-2 -33 -26.5 -61.5t-56.5 -28.5q-33 0 -52 7t-40 29q-22 26 -21 69z" />
    <glyph glyph-name="paragraph" unicode="&#xb6;" horiz-adv-x="1077" 
d="M885 1270v-1741h-92v1796h-340v-1796h-93v1276q-162 0 -244 88q-82 89 -81 216q0 127 77 216q76 88 224 88h639v-8q-90 -41 -90 -135z" />
    <glyph glyph-name="periodcentered" unicode="&#xb7;" horiz-adv-x="456" 
d="M352 729q0 -51 -36.5 -87t-87.5 -36t-87.5 36t-36.5 87t36.5 87t87.5 36t87.5 -36t36.5 -87z" />
    <glyph glyph-name="cedilla" unicode="&#xb8;" horiz-adv-x="489" 
d="M59 -375l25 23q67 -29 122 -29q54 0 93 24t39 75q0 28 -22 50t-54.5 33.5t-64 18t-56.5 6.5l133 174h58l-68 -104q71 -7 133 -50q61 -42 61 -118q0 -56 -39.5 -93t-88.5 -50t-104 -13q-94 0 -167 53z" />
    <glyph glyph-name="onesuperior" unicode="&#xb9;" horiz-adv-x="806" 
d="M336 811v436q-105 -20 -191 -26l-6 10q180 55 336 201h8v-621q0 -143 26 -193t114 -77v-9h-437v9q92 29 121 79t29 191z" />
    <glyph glyph-name="ordmasculine" unicode="&#xba;" horiz-adv-x="829" 
d="M739 539h-649v63h649v-63zM414 1376q-55 0 -94.5 -30t-60 -79.5t-29.5 -98.5t-9 -100q0 -53 8.5 -102t28.5 -100t60 -81.5t96 -30.5q100 0 144 93q44 94 44 221q0 51 -8.5 99.5t-27.5 98.5t-58 80t-94 30zM414 717q-148 0 -246 101.5t-98 249.5q0 147 98.5 246t245.5 99
q146 0 246 -100t100 -245q0 -147 -99.5 -248.5t-246.5 -102.5z" />
    <glyph glyph-name="guillemotright" unicode="&#xbb;" horiz-adv-x="960" 
d="M895 543l-465 -338h-18l278 338l-278 340h18zM467 543l-377 -271h-8l207 271l-207 272h10z" />
    <glyph glyph-name="onequarter" unicode="&#xbc;" horiz-adv-x="1986" 
d="M1614 242h-443v8l529 651h55v-575h135v-84h-135q1 -132 21 -170q19 -37 104 -64v-8h-405v8q100 27 119 63q20 37 20 171zM1315 326h299v370zM1536 1499l-989 -1595h-96l991 1595h94zM336 811v436q-105 -20 -191 -26l-6 10q180 55 336 201h8v-621q0 -143 26 -193t114 -77
v-9h-437v9q92 29 121 79t29 191z" />
    <glyph glyph-name="onehalf" unicode="&#xbd;" horiz-adv-x="1986" 
d="M336 811v436q-105 -20 -191 -26l-6 10q180 55 336 201h8v-621q0 -143 26 -193t114 -77v-9h-437v9q92 29 121 79t29 191zM1536 1499l-989 -1595h-96l991 1595h94zM1249 700q2 71 89 132q85 61 223 61q128 0 203 -63q76 -64 75 -156q0 -92 -88 -189q-34 -36 -95 -91
q-65 -59 -95 -89l-181 -184h459v-121h-586v49l246 277q176 200 176 327q0 73 -53.5 127t-127.5 54q-72 0 -138 -33q46 0 78 -31t32 -76t-30.5 -74.5t-75.5 -29.5t-78 32.5t-33 77.5z" />
    <glyph glyph-name="threequarters" unicode="&#xbe;" horiz-adv-x="1986" 
d="M1315 326h299v370zM1614 242h-443v8l529 651h55v-575h135v-84h-135q1 -132 21 -170q19 -37 104 -64v-8h-405v8q100 27 119 63q20 37 20 171zM1536 1499l-989 -1595h-96l991 1595h94zM179 556q-60 38 -60 90q0 48 28.5 79t76.5 31q47 0 73.5 -28.5t26.5 -75.5
q0 -50 -48 -93q15 -4 48 -4q96 0 164 68q67 67 69 196q0 88 -61 135t-152 47q-16 0 -41 -4l-8 7l213 276h-387v133h547v-8l-224 -287q124 -18 197.5 -91t73.5 -195q0 -84 -54.5 -157.5t-136 -115t-163.5 -41.5q-121 0 -182 38z" />
    <glyph glyph-name="questiondown" unicode="&#xbf;" horiz-adv-x="964" 
d="M401 943q0 51 36 87.5t87 36.5t87 -36.5t36 -87.5t-36 -87.5t-87 -36.5t-87 36.5t-36 87.5zM514 678h14q0 -97 -31.5 -200t-86.5 -184q-119 -182 -119 -330t81 -222q82 -74 191 -74q143 0 236 119q-10 -2 -31 -2q-57 0 -97 34.5t-40 90.5q0 54 35 88.5t89 34.5
q56 0 91 -37.5t35 -93.5q0 -105 -110 -206q-111 -100 -277 -99q-165 0 -269 90.5t-104 253.5q0 160 134 318q56 69 113 131q139 155 146 288z" />
    <glyph glyph-name="Agrave" unicode="&#xc0;" horiz-adv-x="1415" 
d="M539 1782h172q46 -159 166 -250h-11q-210 91 -327 250zM913 569l-249 699l-248 -699h497zM1047 134q0 64 -111 376h-541q-106 -299 -106 -366q-1 -66 29 -93q29 -26 102 -43v-8h-420v8q40 15 69 35t52.5 51.5t37 56.5t36.5 72q45 95 133 328l329 876h127l316 -874
q117 -324 170 -419q52 -93 143 -126v-8h-489v8q67 13 96 38q28 24 27 88z" />
    <glyph glyph-name="Aacute" unicode="&#xc1;" horiz-adv-x="1415" 
d="M705 1782h172q-117 -159 -328 -250h-10q120 91 166 250zM913 569l-249 699l-248 -699h497zM1047 134q0 64 -111 376h-541q-106 -299 -106 -366q-1 -66 29 -93q29 -26 102 -43v-8h-420v8q40 15 69 35t52.5 51.5t37 56.5t36.5 72q45 95 133 328l329 876h127l316 -874
q117 -324 170 -419q52 -93 143 -126v-8h-489v8q67 13 96 38q28 24 27 88z" />
    <glyph glyph-name="Acircumflex" unicode="&#xc2;" horiz-adv-x="1415" 
d="M756 1782l188 -250h-16l-221 141l-220 -141h-16l184 250h101zM913 569l-249 699l-248 -699h497zM1047 134q0 64 -111 376h-541q-106 -299 -106 -366q-1 -66 29 -93q29 -26 102 -43v-8h-420v8q40 15 69 35t52.5 51.5t37 56.5t36.5 72q45 95 133 328l329 876h127l316 -874
q117 -324 170 -419q52 -93 143 -126v-8h-489v8q67 13 96 38q28 24 27 88z" />
    <glyph glyph-name="Atilde" unicode="&#xc3;" horiz-adv-x="1415" 
d="M809 1634q-47 0 -138 30t-128 30q-36 0 -69 -23t-46 -57l-16 4q17 48 33.5 71.5t54.5 53.5q47 37 102 37q53 0 143 -27t125 -27q88 0 117 74l17 -4q-58 -162 -195 -162zM913 569l-249 699l-248 -699h497zM1047 134q0 64 -111 376h-541q-106 -299 -106 -366q-1 -66 29 -93
q29 -26 102 -43v-8h-420v8q40 15 69 35t52.5 51.5t37 56.5t36.5 72q45 95 133 328l329 876h127l316 -874q117 -324 170 -419q52 -93 143 -126v-8h-489v8q67 13 96 38q28 24 27 88z" />
    <glyph glyph-name="Adieresis" unicode="&#xc4;" horiz-adv-x="1415" 
d="M655 1700q-2 -40 -29 -68t-67 -28t-67 28t-29 68q0 40 28.5 68t68.5 28q39 0 66 -28t29 -68zM950 1700q0 -40 -28 -68t-68 -28t-68 28q-29 29 -28 68q0 40 28 68t68 28t68 -28t28 -68zM913 569l-249 699l-248 -699h497zM1047 134q0 64 -111 376h-541q-106 -299 -106 -366
q-1 -66 29 -93q29 -26 102 -43v-8h-420v8q40 15 69 35t52.5 51.5t37 56.5t36.5 72q45 95 133 328l329 876h127l316 -874q117 -324 170 -419q52 -93 143 -126v-8h-489v8q67 13 96 38q28 24 27 88z" />
    <glyph glyph-name="Aring" unicode="&#xc5;" horiz-adv-x="1415" 
d="M612 1399q42 -43 101 -43q60 0 99.5 42t39.5 103t-39.5 103t-99.5 43q-59 0 -101 -43q-42 -42 -41 -102q-1 -59 41 -103zM913 569l-249 699l-248 -699h497zM1047 134q0 64 -111 376h-541q-106 -299 -106 -366q-1 -66 29 -93q29 -26 102 -43v-8h-420v8q40 15 69 35
t52.5 51.5t37 56.5t36.5 72q45 95 133 328l284 762q-53 27 -86 78q-33 52 -32 110q0 90 64 152.5t154 62.5t154 -62.5t64 -152.5q0 -119 -109 -182l279 -766q118 -326 170 -420q51 -92 143 -125v-8h-489v8q67 13 96 38q28 24 27 88z" />
    <glyph glyph-name="AE" unicode="&#xc6;" horiz-adv-x="1898" 
d="M526 569h457v789h-14zM610 1413h1121v-289h-9q-85 153 -125 193q-41 41 -122 41h-320v-604h277q72 0 113.5 30.5t84.5 100.5h8v-316h-8q-44 69 -85 99t-113 30h-277v-643h367q79 0 128 46q53 50 173 221h8l-41 -322h-981v8q105 28 140 80q34 50 34 191v221h-496
q-172 -304 -172 -383q0 -78 103 -109v-8h-420v8q95 36 180 142q89 111 254 401l332 584q51 90 51 141q0 68 -96 100l-109 29v8z" />
    <glyph glyph-name="Ccedilla" unicode="&#xc7;" horiz-adv-x="1421" 
d="M639 -375l25 23q67 -29 122 -29q54 0 93 24t39 75q0 28 -22 50t-54.5 33.5t-64 18t-56.5 6.5l110 145q-206 7 -371.5 94.5t-263.5 248.5t-98 368q0 220 117 399q112 170 285 265.5t374 95.5q90 0 209.5 -23t196.5 -57v-275h-8q-139 309 -422 310q-240 0 -396 -198
q-155 -199 -157 -495q0 -296 165 -493t412 -197q295 0 445 330h8l-27 -289q-75 -40 -191.5 -62t-217.5 -24l-47 -73q71 -7 133 -50q61 -42 61 -118q0 -43 -22 -75t-58 -48.5t-74 -24.5t-78 -8q-94 0 -167 53z" />
    <glyph glyph-name="Egrave" unicode="&#xc8;" 
d="M414 1782h172q46 -159 166 -250h-11q-210 91 -327 250zM252 279v856q0 134 -35 189q-34 54 -139 81v8h921v-289h-8q-86 154 -130 193q-47 41 -148 41h-289v-604h276q75 0 114 28.5t85 102.5h8v-316h-8q-47 74 -84.5 101.5t-114.5 27.5h-276v-643h346q95 0 142 40
q48 41 159 198q14 20 21 29h8l-41 -322h-981v8q106 28 140 80t34 191z" />
    <glyph glyph-name="Eacute" unicode="&#xc9;" 
d="M672 1782h172q-117 -159 -328 -250h-10q120 91 166 250zM252 279v856q0 134 -35 189q-34 54 -139 81v8h921v-289h-8q-86 154 -130 193q-47 41 -148 41h-289v-604h276q75 0 114 28.5t85 102.5h8v-316h-8q-47 74 -84.5 101.5t-114.5 27.5h-276v-643h346q95 0 142 40
q48 41 159 198q14 20 21 29h8l-41 -322h-981v8q106 28 140 80t34 191z" />
    <glyph glyph-name="Ecircumflex" unicode="&#xca;" 
d="M631 1782l188 -250h-16l-221 141l-220 -141h-16l184 250h101zM252 279v856q0 134 -35 189q-34 54 -139 81v8h921v-289h-8q-86 154 -130 193q-47 41 -148 41h-289v-604h276q75 0 114 28.5t85 102.5h8v-316h-8q-47 74 -84.5 101.5t-114.5 27.5h-276v-643h346q95 0 142 40
q48 41 159 198q14 20 21 29h8l-41 -322h-981v8q106 28 140 80t34 191z" />
    <glyph glyph-name="Edieresis" unicode="&#xcb;" 
d="M532 1700q0 -40 -28 -68t-68 -28t-68 28t-28 68q0 39 28.5 67.5t67.5 28.5q40 0 68 -28t28 -68zM827 1700q-2 -40 -29 -68t-67 -28t-67 28t-29 68q0 40 28.5 68t68.5 28q39 0 66 -28t29 -68zM252 279v856q0 134 -35 189q-34 54 -139 81v8h921v-289h-8q-86 154 -130 193
q-47 41 -148 41h-289v-604h276q75 0 114 28.5t85 102.5h8v-316h-8q-47 74 -84.5 101.5t-114.5 27.5h-276v-643h346q95 0 142 40q48 41 159 198q14 20 21 29h8l-41 -322h-981v8q106 28 140 80t34 191z" />
    <glyph glyph-name="Igrave" unicode="&#xcc;" horiz-adv-x="675" 
d="M168 1782h172q46 -159 166 -250h-10q-211 91 -328 250zM598 8v-8h-520v8q58 16 93 36t52.5 53t23 70t5.5 101v877q0 64 -5.5 101t-23 70t-52.5 53t-93 36v8h520v-8q-58 -16 -93 -36t-52.5 -53t-23 -70t-5.5 -101v-877q0 -64 5.5 -101t23 -70t52.5 -53t93 -36z" />
    <glyph glyph-name="Iacute" unicode="&#xcd;" horiz-adv-x="675" 
d="M334 1782h172q-117 -159 -328 -250h-10q120 91 166 250zM598 8v-8h-520v8q58 16 93 36t52.5 53t23 70t5.5 101v877q0 64 -5.5 101t-23 70t-52.5 53t-93 36v8h520v-8q-58 -16 -93 -36t-52.5 -53t-23 -70t-5.5 -101v-877q0 -64 5.5 -101t23 -70t52.5 -53t93 -36z" />
    <glyph glyph-name="Icircumflex" unicode="&#xce;" horiz-adv-x="675" 
d="M385 1782l188 -250h-16l-221 141l-219 -141h-17l185 250h100zM598 8v-8h-520v8q58 16 93 36t52.5 53t23 70t5.5 101v877q0 64 -5.5 101t-23 70t-52.5 53t-93 36v8h520v-8q-58 -16 -93 -36t-52.5 -53t-23 -70t-5.5 -101v-877q0 -64 5.5 -101t23 -70t52.5 -53t93 -36z" />
    <glyph glyph-name="Idieresis" unicode="&#xcf;" horiz-adv-x="675" 
d="M287 1700q0 -40 -28.5 -68t-68.5 -28t-68 28t-28 68q0 39 28.5 67.5t67.5 28.5q40 0 68.5 -28t28.5 -68zM582 1700q0 -40 -28.5 -68t-68.5 -28t-67 28t-29 68q0 40 28.5 68t68.5 28q39 0 67.5 -28.5t28.5 -67.5zM598 8v-8h-520v8q58 16 93 36t52.5 53t23 70t5.5 101v877
q0 64 -5.5 101t-23 70t-52.5 53t-93 36v8h520v-8q-58 -16 -93 -36t-52.5 -53t-23 -70t-5.5 -101v-877q0 -64 5.5 -101t23 -70t52.5 -53t93 -36z" />
    <glyph glyph-name="Eth" unicode="&#xd0;" horiz-adv-x="1550" 
d="M422 696v-641h272q279 2 438 187q158 187 158 472q0 286 -164 465t-407 179h-297v-602h307v-60h-307zM688 0h-612v8q105 28 140 80q34 50 34 191v417h-156v60h156v379q0 65 -5 102.5t-22.5 73t-52.5 57t-94 37.5v8h633q165 0 305.5 -44.5t246 -128.5t166.5 -215.5
t62 -295.5q0 -176 -61 -316t-169 -229.5t-253.5 -136.5t-317.5 -47z" />
    <glyph glyph-name="Ntilde" unicode="&#xd1;" horiz-adv-x="1611" 
d="M907 1634q-47 0 -138 30t-128 30q-36 0 -69 -23t-46 -57l-16 4q17 46 34 70.5t55 54.5q46 37 101 37q54 0 144 -27t125 -27q87 0 116 74l17 -4q-58 -162 -195 -162zM1339 262v725q0 165 -13 242t-44 114.5t-104 61.5v8h401v-8q-102 -33 -132 -107t-30 -311v-1007h-80
l-1024 1239v-793q-1 -157 13 -242q13 -76 45 -113.5t104 -62.5v-8h-401v8q102 33 132 107t30 311v780q0 60 -52 118q-53 59 -151 81v8h346z" />
    <glyph glyph-name="Ograve" unicode="&#xd2;" horiz-adv-x="1638" 
d="M649 1782h172q46 -159 166 -250h-10q-211 91 -328 250zM440 218q152 -204 379 -204t378 204q151 203 151 489q0 285 -151 487q-151 201 -378 203q-227 0 -379 -204q-152 -203 -152 -487q0 -283 152 -488zM1329 178q-221 -209 -510 -209t-510 209t-221 522q0 145 59 281.5
t157.5 237.5t234 162t280.5 61q194 0 364 -103t269 -274.5t98 -364.5q0 -313 -221 -522z" />
    <glyph glyph-name="Oacute" unicode="&#xd3;" horiz-adv-x="1638" 
d="M815 1782h172q-117 -159 -328 -250h-10q120 91 166 250zM440 218q152 -204 379 -204t378 204q151 203 151 489q0 285 -151 487q-151 201 -378 203q-227 0 -379 -204q-152 -203 -152 -487q0 -283 152 -488zM1329 178q-221 -209 -510 -209t-510 209t-221 522
q0 145 59 281.5t157.5 237.5t234 162t280.5 61q194 0 364 -103t269 -274.5t98 -364.5q0 -313 -221 -522z" />
    <glyph glyph-name="Ocircumflex" unicode="&#xd4;" horiz-adv-x="1638" 
d="M866 1782l189 -250h-17l-221 141l-219 -141h-16l184 250h100zM440 218q152 -204 379 -204t378 204q151 203 151 489q0 285 -151 487q-151 201 -378 203q-227 0 -379 -204q-152 -203 -152 -487q0 -283 152 -488zM1329 178q-221 -209 -510 -209t-510 209t-221 522
q0 145 59 281.5t157.5 237.5t234 162t280.5 61q194 0 364 -103t269 -274.5t98 -364.5q0 -313 -221 -522z" />
    <glyph glyph-name="Otilde" unicode="&#xd5;" horiz-adv-x="1638" 
d="M920 1634q-46 0 -138 30t-129 30q-36 0 -67.5 -23t-46.5 -57l-17 4q17 46 34 70.5t55 54.5q46 37 101 37q54 0 144 -27t125 -27q88 0 117 74l16 -4q-57 -162 -194 -162zM440 218q152 -204 379 -204t378 204q151 203 151 489q0 285 -151 487q-151 201 -378 203
q-227 0 -379 -204q-152 -203 -152 -487q0 -283 152 -488zM1329 178q-221 -209 -510 -209t-510 209t-221 522q0 145 59 281.5t157.5 237.5t234 162t280.5 61q194 0 364 -103t269 -274.5t98 -364.5q0 -313 -221 -522z" />
    <glyph glyph-name="Odieresis" unicode="&#xd6;" horiz-adv-x="1638" 
d="M768 1700q0 -39 -28.5 -67.5t-67.5 -28.5q-40 0 -68.5 28t-28.5 68t28.5 68t68.5 28t68 -28t28 -68zM1063 1700q0 -40 -28.5 -68t-68.5 -28q-39 0 -67.5 28.5t-28.5 67.5q0 40 28.5 68t68.5 28t67 -28t29 -68zM440 218q152 -204 379 -204t378 204q151 203 151 489
q0 285 -151 487q-151 201 -378 203q-227 0 -379 -204q-152 -203 -152 -487q0 -283 152 -488zM1329 178q-221 -209 -510 -209t-510 209t-221 522q0 145 59 281.5t157.5 237.5t234 162t280.5 61q194 0 364 -103t269 -274.5t98 -364.5q0 -313 -221 -522z" />
    <glyph glyph-name="multiply" unicode="&#xd7;" 
d="M207 862l90 90l287 -284l284 284l90 -90l-284 -284l284 -287l-90 -90l-284 286l-287 -286l-90 90l287 287z" />
    <glyph glyph-name="Oslash" unicode="&#xd8;" horiz-adv-x="1638" 
d="M819 1397q-227 2 -379 -203t-151 -496q0 -292 164 -495l682 1059q-139 135 -316 135zM819 14q227 0 378 204q151 203 151 496q0 291 -164 494l-682 -1061q136 -133 317 -133zM88 712q0 142 60.5 277t160 234t234.5 159t277 60q179 0 360 -109l98 146l59 -35l-98 -150
q145 -107 228 -262t83 -332q0 -313 -221 -522t-510 -209q-196 0 -366 103l-95 -144l-59 39l94 142q-151 104 -228 260t-77 343z" />
    <glyph glyph-name="Ugrave" unicode="&#xd9;" horiz-adv-x="1579" 
d="M621 1782h172q46 -160 165 -250h-10q-210 91 -327 250zM1266 387v600q0 228 -31 306q-31 79 -131 112v8h399v-8q-72 -23 -103.5 -62t-44.5 -116q-12 -73 -14 -240v-606q0 -88 -31 -159t-83 -117.5t-122.5 -78t-146 -45t-157.5 -12.5q-246 0 -399 111t-152 301v764
q0 61 -6 99t-24 71t-52.5 54t-91.5 36v8h520v-8q-57 -15 -91.5 -36t-52.5 -54t-24 -71t-6 -99v-793q0 -136 105 -222q104 -85 300 -85q86 0 161.5 19t139 58t101 107t37.5 158z" />
    <glyph glyph-name="Uacute" unicode="&#xda;" horiz-adv-x="1579" 
d="M786 1782h172q-117 -159 -327 -250h-10q119 90 165 250zM1266 387v600q0 228 -31 306q-31 79 -131 112v8h399v-8q-72 -23 -103.5 -62t-44.5 -116q-12 -73 -14 -240v-606q0 -88 -31 -159t-83 -117.5t-122.5 -78t-146 -45t-157.5 -12.5q-246 0 -399 111t-152 301v764
q0 61 -6 99t-24 71t-52.5 54t-91.5 36v8h520v-8q-57 -15 -91.5 -36t-52.5 -54t-24 -71t-6 -99v-793q0 -136 105 -222q104 -85 300 -85q86 0 161.5 19t139 58t101 107t37.5 158z" />
    <glyph glyph-name="Ucircumflex" unicode="&#xdb;" horiz-adv-x="1579" 
d="M838 1782l188 -250h-16l-222 141l-219 -141h-16l184 250h101zM1266 387v600q0 228 -31 306q-31 79 -131 112v8h399v-8q-72 -23 -103.5 -62t-44.5 -116q-12 -73 -14 -240v-606q0 -88 -31 -159t-83 -117.5t-122.5 -78t-146 -45t-157.5 -12.5q-246 0 -399 111t-152 301v764
q0 61 -6 99t-24 71t-52.5 54t-91.5 36v8h520v-8q-57 -15 -91.5 -36t-52.5 -54t-24 -71t-6 -99v-793q0 -136 105 -222q104 -85 300 -85q86 0 161.5 19t139 58t101 107t37.5 158z" />
    <glyph glyph-name="Udieresis" unicode="&#xdc;" horiz-adv-x="1579" 
d="M737 1700q-2 -40 -29 -68t-67 -28t-68 28q-29 29 -28 68q2 40 29 68t67 28t67 -28t29 -68zM1032 1700q0 -40 -28 -68t-68 -28t-68 28q-29 29 -28 68q0 40 28 68t68 28t68 -28t28 -68zM1266 387v600q0 228 -31 306q-31 79 -131 112v8h399v-8q-72 -23 -103.5 -62
t-44.5 -116q-12 -73 -14 -240v-606q0 -88 -31 -159t-83 -117.5t-122.5 -78t-146 -45t-157.5 -12.5q-246 0 -399 111t-152 301v764q0 61 -6 99t-24 71t-52.5 54t-91.5 36v8h520v-8q-57 -15 -91.5 -36t-52.5 -54t-24 -71t-6 -99v-793q0 -136 105 -222q104 -85 300 -85
q86 0 161.5 19t139 58t101 107t37.5 158z" />
    <glyph glyph-name="Yacute" unicode="&#xdd;" horiz-adv-x="1292" 
d="M643 1782h172q-117 -159 -328 -250h-10q120 91 166 250zM739 623v-344q0 -128 35 -187q34 -58 139 -84v-8h-520v8q105 27 139 84q35 58 35 187v339l-207 375q-134 242 -202 318q-70 78 -146 94v8h475v-8q-52 -14 -75 -31q-25 -18 -23 -53q0 -75 137 -322l179 -317
l172 330q119 227 118 295q-1 31 -20 52t-39.5 29t-54.5 17v8h399v-8q-71 -10 -142 -93q-69 -81 -190 -306z" />
    <glyph glyph-name="Thorn" unicode="&#xde;" horiz-adv-x="1222" 
d="M418 1047v-664h209q162 0 254 89.5t92 251.5q0 155 -82.5 238t-237.5 85h-235zM662 330h-244v-51q0 -135 40 -188.5t169 -82.5v-8h-555v8q105 28 140 80q34 50 34 191v866q0 64 -5.5 101t-23 70t-52.5 53t-93 36v8h520v-8q-58 -16 -93 -36t-52.5 -53t-23 -70t-5.5 -101
v-43h268q463 0 463 -365q0 -219 -147 -314q-144 -93 -340 -93z" />
    <glyph glyph-name="germandbls" unicode="&#xdf;" horiz-adv-x="1214" 
d="M516 8v-8h-463v8q90 27 120 81t30 190v411q0 155 -28 201q-29 47 -146 78v8l180 35q0 86 14 162t46 144.5t79.5 118t120 78.5t163.5 29q182 0 276 -90t96 -227q0 -100 -78 -178q-80 -80 -141 -122q-59 -41 -74 -53v-8q450 -170 448 -460q1 -107 -45 -191.5t-123.5 -135.5
t-171 -77.5t-194.5 -26.5v31q169 10 266.5 98t97.5 253q0 164 -164 280q-134 93 -297 151l-6 17q65 33 119.5 73.5t101 92.5t73 117.5t26.5 136.5q0 121 -60 195q-58 73 -149 73q-266 0 -266 -449v-765q0 -134 29 -190q30 -54 120 -81z" />
    <glyph glyph-name="agrave" unicode="&#xe0;" horiz-adv-x="1042" 
d="M352 1413h172q46 -159 166 -250h-10q-211 91 -328 250zM256 290q0 -108 59.5 -161t168.5 -53q106 0 202 57v393q-49 9 -111 11q-81 0 -151 -24t-119 -82t-49 -141zM436 1001q-148 0 -233 -75q56 -10 84.5 -37t27.5 -70q-1 -41 -27.5 -65.5t-68.5 -26.5q-43 0 -70.5 28.5
t-29.5 71.5q0 96 133 169t282 73q144 0 229 -72t85 -213v-544q0 -57 12 -92.5t40.5 -55.5t61 -28.5t87.5 -14.5v-8q-52 -22 -120.5 -39.5t-115.5 -17.5q-57 0 -90 37.5t-35 95.5q-163 -140 -323 -142q-113 0 -195 70t-82 202q0 131 138 226q136 93 460 107v127
q0 294 -250 294z" />
    <glyph glyph-name="aacute" unicode="&#xe1;" horiz-adv-x="1042" 
d="M518 1413h172q-117 -159 -328 -250h-10q120 91 166 250zM256 290q0 -108 59.5 -161t168.5 -53q106 0 202 57v393q-49 9 -111 11q-81 0 -151 -24t-119 -82t-49 -141zM436 1001q-148 0 -233 -75q56 -10 84.5 -37t27.5 -70q-1 -41 -27.5 -65.5t-68.5 -26.5q-43 0 -70.5 28.5
t-29.5 71.5q0 96 133 169t282 73q144 0 229 -72t85 -213v-544q0 -57 12 -92.5t40.5 -55.5t61 -28.5t87.5 -14.5v-8q-52 -22 -120.5 -39.5t-115.5 -17.5q-57 0 -90 37.5t-35 95.5q-163 -140 -323 -142q-113 0 -195 70t-82 202q0 131 138 226q136 93 460 107v127
q0 294 -250 294z" />
    <glyph glyph-name="acircumflex" unicode="&#xe2;" horiz-adv-x="1042" 
d="M569 1413l189 -250h-17l-221 142l-219 -142h-16l184 250h100zM256 290q0 -108 59.5 -161t168.5 -53q106 0 202 57v393q-49 9 -111 11q-81 0 -151 -24t-119 -82t-49 -141zM436 1001q-148 0 -233 -75q56 -10 84.5 -37t27.5 -70q-1 -41 -27.5 -65.5t-68.5 -26.5
q-43 0 -70.5 28.5t-29.5 71.5q0 96 133 169t282 73q144 0 229 -72t85 -213v-544q0 -57 12 -92.5t40.5 -55.5t61 -28.5t87.5 -14.5v-8q-52 -22 -120.5 -39.5t-115.5 -17.5q-57 0 -90 37.5t-35 95.5q-163 -140 -323 -142q-113 0 -195 70t-82 202q0 131 138 226q136 93 460 107
v127q0 294 -250 294z" />
    <glyph glyph-name="atilde" unicode="&#xe3;" horiz-adv-x="1042" 
d="M623 1266q-47 0 -139 30q-90 29 -126 29h-2q-37 0 -69 -22.5t-45 -57.5l-17 4q17 47 34 71.5t55 53.5q47 35 102 37q54 0 143 -27q89 -26 122 -26q92 0 120 74l16 -5q-57 -161 -194 -161zM256 290q0 -108 59.5 -161t168.5 -53q106 0 202 57v393q-49 9 -111 11
q-81 0 -151 -24t-119 -82t-49 -141zM436 1001q-148 0 -233 -75q56 -10 84.5 -37t27.5 -70q-1 -41 -27.5 -65.5t-68.5 -26.5q-43 0 -70.5 28.5t-29.5 71.5q0 96 133 169t282 73q144 0 229 -72t85 -213v-544q0 -57 12 -92.5t40.5 -55.5t61 -28.5t87.5 -14.5v-8
q-52 -22 -120.5 -39.5t-115.5 -17.5q-57 0 -90 37.5t-35 95.5q-163 -140 -323 -142q-113 0 -195 70t-82 202q0 131 138 226q136 93 460 107v127q0 294 -250 294z" />
    <glyph glyph-name="adieresis" unicode="&#xe4;" horiz-adv-x="1042" 
d="M469 1331q0 -39 -28.5 -66.5t-68.5 -29.5q-38 0 -67 29.5t-29 67.5q0 39 29 67.5t68 28.5q38 0 66 -29t30 -68zM764 1331q0 -39 -28.5 -66.5t-67.5 -29.5q-39 0 -68 29t-29 68t29 67.5t68 28.5t67.5 -29t28.5 -68zM256 290q0 -108 59.5 -161t168.5 -53q106 0 202 57v393
q-49 9 -111 11q-81 0 -151 -24t-119 -82t-49 -141zM436 1001q-148 0 -233 -75q56 -10 84.5 -37t27.5 -70q-1 -41 -27.5 -65.5t-68.5 -26.5q-43 0 -70.5 28.5t-29.5 71.5q0 96 133 169t282 73q144 0 229 -72t85 -213v-544q0 -57 12 -92.5t40.5 -55.5t61 -28.5t87.5 -14.5v-8
q-52 -22 -120.5 -39.5t-115.5 -17.5q-57 0 -90 37.5t-35 95.5q-163 -140 -323 -142q-113 0 -195 70t-82 202q0 131 138 226q136 93 460 107v127q0 294 -250 294z" />
    <glyph glyph-name="aring" unicode="&#xe5;" horiz-adv-x="1042" 
d="M520 1210q65 0 107.5 45.5t42.5 110.5t-42.5 110.5t-107.5 45.5t-108 -45.5t-43 -110.5t43 -110.5t108 -45.5zM733 1366q0 -87 -63 -147.5t-150 -60.5q-88 0 -150 60t-63 148q-1 86 62.5 147t150.5 61q86 0 150 -60q65 -62 63 -148zM256 290q0 -108 59.5 -161t168.5 -53
q106 0 202 57v393q-49 9 -111 11q-81 0 -151 -24t-119 -82t-49 -141zM436 1001q-148 0 -233 -75q56 -10 84.5 -37t27.5 -70q-1 -41 -27.5 -65.5t-68.5 -26.5q-43 0 -70.5 28.5t-29.5 71.5q0 96 133 169t282 73q144 0 229 -72t85 -213v-544q0 -57 12 -92.5t40.5 -55.5
t61 -28.5t87.5 -14.5v-8q-52 -22 -120.5 -39.5t-115.5 -17.5q-57 0 -90 37.5t-35 95.5q-163 -140 -323 -142q-113 0 -195 70t-82 202q0 131 138 226q136 93 460 107v127q0 294 -250 294z" />
    <glyph glyph-name="ae" unicode="&#xe6;" horiz-adv-x="1591" 
d="M571 530q-137 0 -226 -72t-89 -174q0 -95 55 -154.5t149 -59.5q78 0 154 33t131 90q-66 125 -65 299v28q-59 10 -109 10zM1119 1024q-108 0 -191 -110q-84 -111 -103 -285l527 16q0 51 -5 98t-20.5 100.5t-40 91.5t-68 63.5t-99.5 25.5zM428 1001q-140 0 -225 -75
q56 -10 84.5 -36t27.5 -69q-2 -42 -28 -68t-68 -26q-43 0 -70.5 28.5t-29.5 71.5q0 95 131 169q130 73 282 73q222 0 271 -178q133 178 338 178q164 0 271 -100q108 -101 108 -330q0 -21 -2 -53h-693v-35q-1 -212 103 -332q104 -119 273 -119t308 121l13 -8
q-52 -88 -162 -163t-244 -75q-233 0 -350 185q-112 -90 -204.5 -137t-205.5 -48q-104 0 -186 69t-82 187q0 320 592 342v134q0 294 -252 294z" />
    <glyph glyph-name="ccedilla" unicode="&#xe7;" horiz-adv-x="954" 
d="M346 -375l25 23q61 -27 119 -27q55 0 95 23.5t40 75.5q0 27 -22 48.5t-55 33t-64 18t-56 6.5l113 151q-182 -1 -313 143q-130 143 -130 385q0 240 146 401q145 159 362 161q42 0 85.5 -7t91 -22.5t77 -48.5t29.5 -78q0 -46 -31.5 -87.5t-75.5 -41.5q-47 0 -80 30t-32 75
q0 78 63 117q-48 14 -100 14q-97 0 -169.5 -38t-113 -104t-59.5 -145.5t-19 -172.5q0 -218 111 -337t271 -119t284 105l14 -10q-46 -71 -134 -136q-92 -68 -214 -81l-53 -84q71 -7 133 -50q61 -42 61 -120q-1 -43 -23 -74t-58.5 -47t-74.5 -23.5t-78 -7.5q-93 0 -165 51z
" />
    <glyph glyph-name="egrave" unicode="&#xe8;" horiz-adv-x="1042" 
d="M383 1413h172q46 -159 166 -250h-10q-211 91 -328 250zM571 1024q-113 0 -193 -98t-99 -279l524 19q-1 358 -232 358zM967 606h-693v-55q0 -72 14 -137.5t44.5 -122t74.5 -98t106.5 -65.5t138.5 -24q170 0 313 121l12 -8q-50 -84 -155 -163q-106 -79 -259 -79
q-202 2 -332 141q-131 140 -131 388t146 406q145 157 346 159q377 0 377 -410q0 -21 -2 -53z" />
    <glyph glyph-name="eacute" unicode="&#xe9;" horiz-adv-x="1042" 
d="M616 1413h172q-117 -159 -327 -250h-10q119 90 165 250zM571 1024q-113 0 -193 -98t-99 -279l524 19q-1 358 -232 358zM967 606h-693v-55q0 -72 14 -137.5t44.5 -122t74.5 -98t106.5 -65.5t138.5 -24q170 0 313 121l12 -8q-50 -84 -155 -163q-106 -79 -259 -79
q-202 2 -332 141q-131 140 -131 388t146 406q145 157 346 159q377 0 377 -410q0 -21 -2 -53z" />
    <glyph glyph-name="ecircumflex" unicode="&#xea;" horiz-adv-x="1042" 
d="M569 1413l189 -250h-17l-221 142l-219 -142h-16l184 250h100zM571 1024q-113 0 -193 -98t-99 -279l524 19q-1 358 -232 358zM967 606h-693v-55q0 -72 14 -137.5t44.5 -122t74.5 -98t106.5 -65.5t138.5 -24q170 0 313 121l12 -8q-50 -84 -155 -163q-106 -79 -259 -79
q-202 2 -332 141q-131 140 -131 388t146 406q145 157 346 159q377 0 377 -410q0 -21 -2 -53z" />
    <glyph glyph-name="edieresis" unicode="&#xeb;" horiz-adv-x="1042" 
d="M469 1331q0 -39 -28.5 -66.5t-68.5 -29.5q-38 0 -67 29.5t-29 67.5q0 39 29 67.5t68 28.5q38 0 66 -29t30 -68zM764 1331q0 -39 -28.5 -66.5t-67.5 -29.5q-39 0 -68 29t-29 68t29 67.5t68 28.5t67.5 -29t28.5 -68zM571 1024q-113 0 -193 -98t-99 -279l524 19
q-1 358 -232 358zM967 606h-693v-55q0 -72 14 -137.5t44.5 -122t74.5 -98t106.5 -65.5t138.5 -24q170 0 313 121l12 -8q-50 -84 -155 -163q-106 -79 -259 -79q-202 2 -332 141q-131 140 -131 388t146 406q145 157 346 159q377 0 377 -410q0 -21 -2 -53z" />
    <glyph glyph-name="igrave" unicode="&#xec;" horiz-adv-x="591" 
d="M127 1413h172q46 -159 166 -250h-10q-211 91 -328 250zM381 1069h8v-817q0 -124 29 -170q29 -45 121 -74v-8h-461v8q92 29 121 74q29 47 28 170v479q0 131 -31 174q-30 42 -143 74v8q167 12 328 82z" />
    <glyph glyph-name="iacute" unicode="&#xed;" horiz-adv-x="591" 
d="M293 1413h172q-117 -159 -328 -250h-10q120 91 166 250zM381 1069h8v-817q0 -124 29 -170q29 -45 121 -74v-8h-461v8q92 29 121 74q29 47 28 170v479q0 131 -31 174q-30 42 -143 74v8q167 12 328 82z" />
    <glyph glyph-name="icircumflex" unicode="&#xee;" horiz-adv-x="591" 
d="M344 1413l188 -250h-16l-221 142l-219 -142h-17l185 250h100zM381 1069h8v-817q0 -124 29 -170q29 -45 121 -74v-8h-461v8q92 29 121 74q29 47 28 170v479q0 131 -31 174q-30 42 -143 74v8q167 12 328 82z" />
    <glyph glyph-name="idieresis" unicode="&#xef;" horiz-adv-x="591" 
d="M246 1331q0 -39 -28.5 -66.5t-67.5 -29.5q-39 0 -68 29t-29 68t29 67.5t68 28.5t67.5 -29t28.5 -68zM541 1331q0 -39 -28.5 -66.5t-68.5 -29.5q-40 0 -68 28.5t-28 68.5q0 38 29 67t67 29t67.5 -29.5t29.5 -67.5zM381 1069h8v-817q0 -124 29 -170q29 -45 121 -74v-8h-461
v8q92 29 121 74q29 47 28 170v479q0 131 -31 174q-30 42 -143 74v8q167 12 328 82z" />
    <glyph glyph-name="eth" unicode="&#xf0;" horiz-adv-x="1255" 
d="M435 97q79 -79 192 -79t191 79q146 147 147 427q0 65 -10.5 131.5t-36 134t-63 119.5t-97 84.5t-132.5 32.5q-90 0 -158.5 -48.5t-105.5 -126.5t-55 -161t-18 -166q0 -278 146 -427zM1157 534q0 -238 -156 -398q-158 -161 -375 -161q-218 0 -373 161t-155 390t157 386
t372 157q108 0 211 -53q-85 159 -254 334q-46 -20 -191 -76l-22 51l170 68q-49 49 -96 90q-45 38 -66 59q14 0 22 2q89 -49 201 -127l211 86l23 -51l-181 -74q223 -174 363 -390q140 -218 139 -454z" />
    <glyph glyph-name="ntilde" unicode="&#xf1;" horiz-adv-x="1255" 
d="M729 1266q-47 0 -138 30q-90 29 -126 29h-2q-37 0 -69.5 -22.5t-45.5 -57.5l-16 4q18 49 33.5 72.5t54.5 52.5q47 35 102 37q54 0 144 -27q89 -26 122 -26q91 0 119 74l17 -5q-59 -161 -195 -161zM897 258v461q0 242 -241 243q-120 0 -271 -88v-622q0 -124 29 -170
q29 -45 121 -74v-8h-461v8q92 29 121 74q29 47 28 170v434q0 120 -13 171q-13 52 -45 76q-30 23 -116 46v8q165 12 326 82h8v-166q200 166 377 166q131 0 215 -85q84 -86 84 -267v-459q2 -129 29 -174q29 -48 120 -76v-8h-460v8q91 28 120 76q27 45 29 174z" />
    <glyph glyph-name="ograve" unicode="&#xf2;" horiz-adv-x="1255" 
d="M414 1413h172q46 -159 166 -250h-11q-210 91 -327 250zM435 97q79 -79 192 -79t191 79q146 147 147 427q0 65 -10.5 131.5t-36 134t-63 119.5t-97 84.5t-132.5 32.5q-156 0 -246 -146q-91 -145 -91 -356q0 -278 146 -427zM1002 137q-156 -162 -375 -162t-374 161
t-155 390t157 386t372 157q216 0 373 -157q158 -158 157 -385q1 -227 -155 -390z" />
    <glyph glyph-name="oacute" unicode="&#xf3;" horiz-adv-x="1255" 
d="M670 1413h172q-117 -159 -328 -250h-10q120 91 166 250zM435 97q79 -79 192 -79t191 79q146 147 147 427q0 65 -10.5 131.5t-36 134t-63 119.5t-97 84.5t-132.5 32.5q-156 0 -246 -146q-91 -145 -91 -356q0 -278 146 -427zM1002 137q-156 -162 -375 -162t-374 161
t-155 390t157 386t372 157q216 0 373 -157q158 -158 157 -385q1 -227 -155 -390z" />
    <glyph glyph-name="ocircumflex" unicode="&#xf4;" horiz-adv-x="1255" 
d="M676 1413l188 -250h-16l-221 142l-219 -142h-17l184 250h101zM435 97q79 -79 192 -79t191 79q146 147 147 427q0 65 -10.5 131.5t-36 134t-63 119.5t-97 84.5t-132.5 32.5q-156 0 -246 -146q-91 -145 -91 -356q0 -278 146 -427zM1002 137q-156 -162 -375 -162t-374 161
t-155 390t157 386t372 157q216 0 373 -157q158 -158 157 -385q1 -227 -155 -390z" />
    <glyph glyph-name="otilde" unicode="&#xf5;" horiz-adv-x="1255" 
d="M729 1266q-47 0 -138 30q-90 29 -126 29h-2q-37 0 -69.5 -22.5t-45.5 -57.5l-16 4q18 49 33.5 72.5t54.5 52.5q47 35 102 37q54 0 144 -27q89 -26 122 -26q91 0 119 74l17 -5q-59 -161 -195 -161zM435 97q79 -79 192 -79t191 79q146 147 147 427q0 65 -10.5 131.5
t-36 134t-63 119.5t-97 84.5t-132.5 32.5q-156 0 -246 -146q-91 -145 -91 -356q0 -278 146 -427zM1002 137q-156 -162 -375 -162t-374 161t-155 390t157 386t372 157q216 0 373 -157q158 -158 157 -385q1 -227 -155 -390z" />
    <glyph glyph-name="odieresis" unicode="&#xf6;" horiz-adv-x="1255" 
d="M575 1331q-1 -40 -28.5 -67.5t-67.5 -28.5q-39 0 -66.5 28.5t-29.5 68.5q0 38 29.5 67t67.5 29q39 0 67 -29t28 -68zM870 1331q0 -40 -28 -67t-68 -29q-40 0 -68 28.5t-28 68.5q0 38 29 67t67 29q39 0 67.5 -29t28.5 -68zM435 97q79 -79 192 -79t191 79q146 147 147 427
q0 65 -10.5 131.5t-36 134t-63 119.5t-97 84.5t-132.5 32.5q-156 0 -246 -146q-91 -145 -91 -356q0 -278 146 -427zM1002 137q-156 -162 -375 -162t-374 161t-155 390t157 386t372 157q216 0 373 -157q158 -158 157 -385q1 -227 -155 -390z" />
    <glyph glyph-name="divide" unicode="&#xf7;" 
d="M1010 641v-127h-852v127h852zM707 997q0 -51 -36 -87t-87 -36t-87 36t-36 87t36 87t87 36t87 -36t36 -87zM707 147q0 -51 -36 -87t-87 -36t-87 36t-36 87t36 87t87 36t87 -36t36 -87z" />
    <glyph glyph-name="oslash" unicode="&#xf8;" horiz-adv-x="1255" 
d="M885 856l-475 -735q85 -103 208 -103q122 0 200 79q146 147 147 427q0 189 -80 332zM627 1026q-155 0 -247 -146q-91 -145 -91 -354q0 -210 82 -344l473 733q-90 111 -217 111zM627 1069q138 0 268 -76l78 123l55 -37l-80 -123q100 -80 153.5 -191.5t55.5 -240.5
q0 -228 -156 -388q-156 -161 -374 -161q-145 0 -265 72l-71 -113l-58 35l76 117q-102 79 -155.5 193t-55.5 245q0 231 157 388t372 157z" />
    <glyph glyph-name="ugrave" unicode="&#xf9;" horiz-adv-x="1204" 
d="M432 1413h172q46 -159 166 -250h-10q-211 91 -328 250zM1008 1069h8v-707q0 -173 28 -220q28 -48 146 -76v-9q-164 -17 -324 -82h-8v162q-190 -162 -352 -162q-299 0 -299 334v375q0 122 -13 173t-46 76q-30 23 -115 46v8q168 12 327 82h9v-760q0 -110 65.5 -163.5
t179.5 -53.5q116 0 240 72v567q0 133 -30 175q-30 41 -144 73v8q167 12 328 82z" />
    <glyph glyph-name="uacute" unicode="&#xfa;" horiz-adv-x="1204" 
d="M598 1413h172q-117 -159 -328 -250h-10q120 91 166 250zM1008 1069h8v-707q0 -173 28 -220q28 -48 146 -76v-9q-164 -17 -324 -82h-8v162q-190 -162 -352 -162q-299 0 -299 334v375q0 122 -13 173t-46 76q-30 23 -115 46v8q168 12 327 82h9v-760q0 -110 65.5 -163.5
t179.5 -53.5q116 0 240 72v567q0 133 -30 175q-30 41 -144 73v8q167 12 328 82z" />
    <glyph glyph-name="ucircumflex" unicode="&#xfb;" horiz-adv-x="1204" 
d="M649 1413l189 -250h-17l-221 142l-219 -142h-16l184 250h100zM1008 1069h8v-707q0 -173 28 -220q28 -48 146 -76v-9q-164 -17 -324 -82h-8v162q-190 -162 -352 -162q-299 0 -299 334v375q0 122 -13 173t-46 76q-30 23 -115 46v8q168 12 327 82h9v-760q0 -110 65.5 -163.5
t179.5 -53.5q116 0 240 72v567q0 133 -30 175q-30 41 -144 73v8q167 12 328 82z" />
    <glyph glyph-name="udieresis" unicode="&#xfc;" horiz-adv-x="1204" 
d="M551 1331q0 -39 -28.5 -66.5t-68.5 -29.5q-38 0 -67 29.5t-29 67.5q0 39 29 67.5t68 28.5q38 0 66 -29t30 -68zM846 1331q0 -39 -28.5 -66.5t-67.5 -29.5q-39 0 -68 29t-29 68t29 67.5t68 28.5t67.5 -29t28.5 -68zM1008 1069h8v-707q0 -173 28 -220q28 -48 146 -76v-9
q-164 -17 -324 -82h-8v162q-190 -162 -352 -162q-299 0 -299 334v375q0 122 -13 173t-46 76q-30 23 -115 46v8q168 12 327 82h9v-760q0 -110 65.5 -163.5t179.5 -53.5q116 0 240 72v567q0 133 -30 175q-30 41 -144 73v8q167 12 328 82z" />
    <glyph glyph-name="yacute" unicode="&#xfd;" horiz-adv-x="1134" 
d="M563 1413h172q-117 -159 -327 -250h-11q120 91 166 250zM16 1036v8h461v-10q-63 -14 -92 -38.5t-29 -82.5q0 -59 70 -266l184 -559l166 496q82 240 82 308q0 66 -30 96t-99 46v10h399v-8q-87 -36 -140 -118q-54 -82 -136 -314l-268 -749q-123 -345 -314 -347
q-52 0 -97.5 34t-45.5 84q0 44 31 77t75 33q106 0 107 -121q0 -11 -2 -21q112 32 209 314l33 92h-97l-213 604q-95 271 -133 337t-121 95z" />
    <glyph glyph-name="thorn" unicode="&#xfe;" horiz-adv-x="1251" 
d="M522 -463v-8h-483v8q93 29 121 75q29 48 28 171v1415q0 132 -30 176q-31 43 -144 70v8q186 18 330 92h8v-643q60 60 156 113q97 53 221 55q182 0 305 -135t123 -346q0 -293 -178 -453t-412 -160q-116 0 -215 19v-211q0 -118 31 -167t139 -79zM860 156q121 137 121 362
q0 223 -104 338q-103 114 -246 112q-143 0 -279 -100v-800q93 -48 215 -50q171 0 293 138z" />
    <glyph glyph-name="ydieresis" unicode="&#xff;" horiz-adv-x="1134" 
d="M516 1331q0 -39 -28.5 -66.5t-67.5 -29.5q-39 0 -67.5 29t-28.5 68t28.5 67.5t67.5 28.5t67.5 -29t28.5 -68zM811 1331q0 -39 -28.5 -66.5t-68.5 -29.5q-38 0 -67 29.5t-29 67.5q0 39 29 67.5t68 28.5q38 0 66 -29t30 -68zM16 1036v8h461v-10q-63 -14 -92 -38.5
t-29 -82.5q0 -59 70 -266l184 -559l166 496q82 240 82 308q0 66 -30 96t-99 46v10h399v-8q-87 -36 -140 -118q-54 -82 -136 -314l-268 -749q-123 -345 -314 -347q-52 0 -97.5 34t-45.5 84q0 44 31 77t75 33q106 0 107 -121q0 -11 -2 -21q112 32 209 314l33 92h-97l-213 604
q-95 271 -133 337t-121 95z" />
    <glyph glyph-name="Amacron" unicode="&#x100;" horiz-adv-x="1415" 
d="M993 1716v-82h-573v82h573zM913 569l-249 699l-248 -699h497zM1047 134q0 64 -111 376h-541q-106 -299 -106 -366q-1 -66 29 -93q29 -26 102 -43v-8h-420v8q40 15 69 35t52.5 51.5t37 56.5t36.5 72q45 95 133 328l329 876h127l316 -874q117 -324 170 -419
q52 -93 143 -126v-8h-489v8q67 13 96 38q28 24 27 88z" />
    <glyph glyph-name="amacron" unicode="&#x101;" horiz-adv-x="1042" 
d="M807 1348v-82h-574v82h574zM256 290q0 -108 59.5 -161t168.5 -53q106 0 202 57v393q-49 9 -111 11q-81 0 -151 -24t-119 -82t-49 -141zM436 1001q-148 0 -233 -75q56 -10 84.5 -37t27.5 -70q-1 -41 -27.5 -65.5t-68.5 -26.5q-43 0 -70.5 28.5t-29.5 71.5q0 96 133 169
t282 73q144 0 229 -72t85 -213v-544q0 -57 12 -92.5t40.5 -55.5t61 -28.5t87.5 -14.5v-8q-52 -22 -120.5 -39.5t-115.5 -17.5q-57 0 -90 37.5t-35 95.5q-163 -140 -323 -142q-113 0 -195 70t-82 202q0 131 138 226q136 93 460 107v127q0 294 -250 294z" />
    <glyph glyph-name="Abreve" unicode="&#x102;" horiz-adv-x="1415" 
d="M711 1649q71 0 135 35.5t92 97.5h8q-19 -102 -80 -169t-159 -67q-97 0 -158.5 67t-81.5 169h8q33 -63 97.5 -98t138.5 -35zM913 569l-249 699l-248 -699h497zM1047 134q0 64 -111 376h-541q-106 -299 -106 -366q-1 -66 29 -93q29 -26 102 -43v-8h-420v8q40 15 69 35
t52.5 51.5t37 56.5t36.5 72q45 95 133 328l329 876h127l316 -874q117 -324 170 -419q52 -93 143 -126v-8h-489v8q67 13 96 38q28 24 27 88z" />
    <glyph glyph-name="abreve" unicode="&#x103;" horiz-adv-x="1042" 
d="M520 1280q71 0 136.5 36t95.5 97h8q-19 -103 -80 -169t-160 -66q-98 0 -158.5 66.5t-80.5 168.5h8q32 -61 96 -97t135 -36zM256 290q0 -108 59.5 -161t168.5 -53q106 0 202 57v393q-49 9 -111 11q-81 0 -151 -24t-119 -82t-49 -141zM436 1001q-148 0 -233 -75
q56 -10 84.5 -37t27.5 -70q-1 -41 -27.5 -65.5t-68.5 -26.5q-43 0 -70.5 28.5t-29.5 71.5q0 96 133 169t282 73q144 0 229 -72t85 -213v-544q0 -57 12 -92.5t40.5 -55.5t61 -28.5t87.5 -14.5v-8q-52 -22 -120.5 -39.5t-115.5 -17.5q-57 0 -90 37.5t-35 95.5
q-163 -140 -323 -142q-113 0 -195 70t-82 202q0 131 138 226q136 93 460 107v127q0 294 -250 294z" />
    <glyph glyph-name="Aogonek" unicode="&#x104;" horiz-adv-x="1415" 
d="M913 569l-249 699l-248 -699h497zM1413 -350v-8q-55 -70 -135 -70q-81 0 -121 40q-41 41 -41 93q0 51 48.5 110.5t103.5 97.5q50 36 135 87h-479v8q67 13 96 38q28 24 27 88q0 64 -111 376h-541q-106 -299 -106 -366q-1 -66 29 -93q29 -26 102 -43v-8h-420v8q40 15 69 35
t52.5 51.5t37 56.5t36.5 72q45 95 133 328l329 876h127l316 -874q117 -324 170 -419q52 -93 143 -126v-8q-170 -185 -170 -279q0 -81 94 -81q32 0 76 10z" />
    <glyph glyph-name="aogonek" unicode="&#x105;" horiz-adv-x="1042" 
d="M256 290q0 -108 59.5 -161t168.5 -53q106 0 202 57v393q-49 9 -111 11q-81 0 -151 -24t-119 -82t-49 -141zM1049 -350v-8q-55 -70 -135 -70q-73 0 -117.5 36.5t-44.5 107.5q0 50 52.5 118t109.5 116t108 81q-141 -47 -200 -47q-62 0 -97 35t-37 98q-163 -140 -323 -142
q-113 0 -195 70t-82 202q0 131 138 226q136 93 460 107v127q0 148 -62.5 221.5t-187.5 72.5q-148 0 -233 -75q56 -10 84.5 -37t27.5 -70q-1 -41 -27.5 -65.5t-68.5 -26.5q-43 0 -70.5 28.5t-29.5 71.5q0 96 133 169t282 73q144 0 229 -72t85 -213v-544q0 -57 12 -92.5
t40.5 -55.5t61 -28.5t87.5 -14.5v-8q-50 -51 -101.5 -144.5t-52.5 -154.5q0 -50 26 -76q28 -26 70 -25q27 0 58 9z" />
    <glyph glyph-name="Cacute" unicode="&#x106;" horiz-adv-x="1421" 
d="M872 1782h191q-117 -159 -328 -250h-10q107 116 147 250zM866 -31q-329 0 -549 200q-219 199 -219 513q0 220 117 399q112 170 285 265.5t374 95.5q90 0 209.5 -23t196.5 -57v-275h-8q-139 309 -422 310q-240 0 -396 -198q-155 -199 -157 -495q0 -296 165 -493t412 -197
q295 0 445 330h8l-27 -289q-69 -36 -190 -61q-129 -26 -244 -25z" />
    <glyph glyph-name="cacute" unicode="&#x107;" horiz-adv-x="954" 
d="M618 1413h191q-117 -159 -328 -250h-10q107 116 147 250zM621 1026q-94 0 -164.5 -41t-109 -110.5t-57 -149t-18.5 -169.5q0 -216 111 -335t271 -119t284 105l14 -10q-47 -74 -151 -148t-246 -74q-193 1 -325 141q-132 139 -132 385t148 407q149 162 366 161
q42 0 87.5 -8.5t92.5 -26t77 -51.5t30 -80q0 -49 -33.5 -85t-82.5 -36q-48 0 -81 30t-32 75q0 84 63 123q-48 16 -112 16z" />
    <glyph glyph-name="Ccircumflex" unicode="&#x108;" horiz-adv-x="1421" 
d="M893 1782l184 -250h-16l-221 131l-219 -131h-17l180 250h109zM866 -31q-329 0 -549 200q-219 199 -219 513q0 220 117 399q112 170 285 265.5t374 95.5q90 0 209.5 -23t196.5 -57v-275h-8q-139 309 -422 310q-240 0 -396 -198q-155 -199 -157 -495q0 -296 165 -493
t412 -197q295 0 445 330h8l-27 -289q-69 -36 -190 -61q-129 -26 -244 -25z" />
    <glyph glyph-name="ccircumflex" unicode="&#x109;" horiz-adv-x="954" 
d="M631 1413l184 -250h-16l-221 131l-220 -131h-16l180 250h109zM621 1026q-94 0 -164.5 -41t-109 -110.5t-57 -149t-18.5 -169.5q0 -216 111 -335t271 -119t284 105l14 -10q-47 -74 -151 -148t-246 -74q-193 1 -325 141q-132 139 -132 385t148 407q149 162 366 161
q42 0 87.5 -8.5t92.5 -26t77 -51.5t30 -80q0 -49 -33.5 -85t-82.5 -36q-48 0 -81 30t-32 75q0 84 63 123q-48 16 -112 16z" />
    <glyph glyph-name="Cdotaccent" unicode="&#x10a;" horiz-adv-x="1421" 
d="M956 1686q0 -46 -32 -78.5t-79 -32.5t-78.5 31.5t-31.5 78.5t32.5 79t78.5 32t78 -32t32 -78zM866 -31q-329 0 -549 200q-219 199 -219 513q0 220 117 399q112 170 285 265.5t374 95.5q90 0 209.5 -23t196.5 -57v-275h-8q-139 309 -422 310q-240 0 -396 -198
q-155 -199 -157 -495q0 -296 165 -493t412 -197q295 0 445 330h8l-27 -289q-69 -36 -190 -61q-129 -26 -244 -25z" />
    <glyph glyph-name="cdotaccent" unicode="&#x10b;" horiz-adv-x="954" 
d="M702 1317q0 -47 -32 -79t-79 -32t-78.5 32t-31.5 78t32.5 79t78.5 33t78 -32.5t32 -78.5zM621 1026q-94 0 -164.5 -41t-109 -110.5t-57 -149t-18.5 -169.5q0 -216 111 -335t271 -119t284 105l14 -10q-47 -74 -151 -148t-246 -74q-193 1 -325 141q-132 139 -132 385
t148 407q149 162 366 161q42 0 87.5 -8.5t92.5 -26t77 -51.5t30 -80q0 -49 -33.5 -85t-82.5 -36q-48 0 -81 30t-32 75q0 84 63 123q-48 16 -112 16z" />
    <glyph glyph-name="Ccaron" unicode="&#x10c;" horiz-adv-x="1421" 
d="M846 1651l221 131h16l-184 -250h-108l-181 250h17zM866 -31q-329 0 -549 200q-219 199 -219 513q0 220 117 399q112 170 285 265.5t374 95.5q90 0 209.5 -23t196.5 -57v-275h-8q-139 309 -422 310q-240 0 -396 -198q-155 -199 -157 -495q0 -296 165 -493t412 -197
q295 0 445 330h8l-27 -289q-69 -36 -190 -61q-129 -26 -244 -25z" />
    <glyph glyph-name="ccaron" unicode="&#x10d;" horiz-adv-x="954" 
d="M590 1282l221 131h16l-184 -250h-108l-181 250h17zM621 1026q-94 0 -164.5 -41t-109 -110.5t-57 -149t-18.5 -169.5q0 -216 111 -335t271 -119t284 105l14 -10q-47 -74 -151 -148t-246 -74q-193 1 -325 141q-132 139 -132 385t148 407q149 162 366 161q42 0 87.5 -8.5
t92.5 -26t77 -51.5t30 -80q0 -49 -33.5 -85t-82.5 -36q-48 0 -81 30t-32 75q0 84 63 123q-48 16 -112 16z" />
    <glyph glyph-name="Dcaron" unicode="&#x10e;" horiz-adv-x="1560" 
d="M772 1651l221 131h17l-185 -250h-108l-180 250h16zM422 1358v-1303h272q279 2 438 187q158 187 158 472q0 286 -164 465t-407 179h-297zM688 0h-612v8q105 28 140 80q34 50 34 191v856q0 65 -5 102.5t-22.5 73t-52.5 57t-94 37.5v8h633q165 0 305.5 -44.5t246 -128.5
t166.5 -215.5t62 -295.5q0 -176 -61 -316t-169 -229.5t-253.5 -136.5t-317.5 -47z" />
    <glyph glyph-name="dcaron" unicode="&#x10f;" horiz-adv-x="1310" 
d="M1352 1444q0 -80 -152 -334q-6 0 -12 2q48 131 -1 251q-26 61 -26 94q0 34 27 61q29 26 68 26q40 0 68 -30t28 -70zM1063 1544h8v-1173q0 -180 28 -227q29 -48 146 -78v-9q-178 -17 -334 -82h-8v195q-58 -75 -157 -135q-97 -58 -220 -60q-178 1 -305 139
q-127 137 -127 355q0 281 171 441q171 161 419 159q94 0 219 -25v154q1 135 -33 178q-34 42 -151 68v8q200 18 344 92zM264 546q0 -94 23.5 -173t69.5 -139.5t121 -95t171 -34.5q121 1 254 91v718q-131 107 -290 107q-91 0 -161 -43t-109.5 -114t-59 -151.5t-19.5 -165.5z
" />
    <glyph glyph-name="Dcroat" unicode="&#x110;" horiz-adv-x="1550" 
d="M422 696v-641h272q279 2 438 187q158 187 158 472q0 286 -164 465t-407 179h-297v-602h307v-60h-307zM688 0h-612v8q105 28 140 80q34 50 34 191v417h-156v60h156v379q0 65 -5 102.5t-22.5 73t-52.5 57t-94 37.5v8h633q165 0 305.5 -44.5t246 -128.5t166.5 -215.5
t62 -295.5q0 -176 -61 -316t-169 -229.5t-253.5 -136.5t-317.5 -47z" />
    <glyph glyph-name="dcroat" unicode="&#x111;" horiz-adv-x="1255" 
d="M264 546q0 -94 23.5 -173t69.5 -139.5t121 -95t171 -34.5q121 1 254 91v718q-131 107 -290 107q-91 0 -161 -43t-109.5 -114t-59 -151.5t-19.5 -165.5zM1063 1544h8v-280h129v-70h-129v-836q0 -170 28 -216t146 -76v-9q-178 -17 -334 -82h-8v195q-58 -75 -157 -135
q-97 -58 -220 -60q-177 -1 -305 139q-127 139 -127 355q0 281 171 441q171 161 419 159q94 0 219 -25v150h-328v70h324q-3 48 -14 78.5t-35.5 50t-52 30t-78.5 21.5v8q200 18 344 92z" />
    <glyph glyph-name="Emacron" unicode="&#x112;" 
d="M870 1716v-82h-573v82h573zM252 279v856q0 134 -35 189q-34 54 -139 81v8h921v-289h-8q-86 154 -130 193q-47 41 -148 41h-289v-604h276q75 0 114 28.5t85 102.5h8v-316h-8q-47 74 -84.5 101.5t-114.5 27.5h-276v-643h346q95 0 142 40q48 41 159 198q14 20 21 29h8
l-41 -322h-981v8q106 28 140 80t34 191z" />
    <glyph glyph-name="emacron" unicode="&#x113;" horiz-adv-x="1042" 
d="M905 1348v-82h-573v82h573zM571 1024q-113 0 -193 -98t-99 -279l524 19q-1 358 -232 358zM967 606h-693v-55q0 -72 14 -137.5t44.5 -122t74.5 -98t106.5 -65.5t138.5 -24q170 0 313 121l12 -8q-50 -84 -155 -163q-106 -79 -259 -79q-202 2 -332 141q-131 140 -131 388
t146 406q145 157 346 159q377 0 377 -410q0 -21 -2 -53z" />
    <glyph glyph-name="Ebreve" unicode="&#x114;" 
d="M588 1649q70 0 134.5 36t92.5 97h8q-21 -102 -81.5 -169t-157.5 -67t-158.5 67t-81.5 169h8q30 -62 96.5 -97.5t139.5 -35.5zM252 279v856q0 134 -35 189q-34 54 -139 81v8h921v-289h-8q-86 154 -130 193q-47 41 -148 41h-289v-604h276q75 0 114 28.5t85 102.5h8v-316h-8
q-47 74 -84.5 101.5t-114.5 27.5h-276v-643h346q95 0 142 40q48 41 159 198q14 20 21 29h8l-41 -322h-981v8q106 28 140 80t34 191z" />
    <glyph glyph-name="ebreve" unicode="&#x115;" horiz-adv-x="1042" 
d="M580 1280q71 0 137 36t94 97h8q-20 -102 -81 -168.5t-158 -66.5q-98 0 -159 66.5t-81 168.5h8q30 -61 95.5 -97t136.5 -36zM571 1024q-113 0 -193 -98t-99 -279l524 19q-1 358 -232 358zM967 606h-693v-55q0 -72 14 -137.5t44.5 -122t74.5 -98t106.5 -65.5t138.5 -24
q170 0 313 121l12 -8q-50 -84 -155 -163q-106 -79 -259 -79q-202 2 -332 141q-131 140 -131 388t146 406q145 157 346 159q377 0 377 -410q0 -21 -2 -53z" />
    <glyph glyph-name="Edotaccent" unicode="&#x116;" 
d="M682 1683q0 -40 -29 -68t-69 -30q-40 0 -69.5 29.5t-29.5 69.5t29.5 69t69.5 29t69 -29.5t29 -69.5zM252 279v856q0 134 -35 189q-34 54 -139 81v8h921v-289h-8q-86 154 -130 193q-47 41 -148 41h-289v-604h276q75 0 114 28.5t85 102.5h8v-316h-8q-47 74 -84.5 101.5
t-114.5 27.5h-276v-643h346q95 0 142 40q48 41 159 198q14 20 21 29h8l-41 -322h-981v8q106 28 140 80t34 191z" />
    <glyph glyph-name="edotaccent" unicode="&#x117;" horiz-adv-x="1042" 
d="M682 1315q0 -40 -29 -69.5t-69 -29.5t-69.5 30t-29.5 69q0 40 29 68t70 30q40 -2 69 -30t29 -68zM571 1024q-113 0 -193 -98t-99 -279l524 19q-1 358 -232 358zM967 606h-693v-55q0 -72 14 -137.5t44.5 -122t74.5 -98t106.5 -65.5t138.5 -24q170 0 313 121l12 -8
q-50 -84 -155 -163q-106 -79 -259 -79q-202 2 -332 141q-131 140 -131 388t146 406q145 157 346 159q377 0 377 -410q0 -21 -2 -53z" />
    <glyph glyph-name="Eogonek" unicode="&#x118;" 
d="M1049 -350v-8q-55 -70 -135 -70q-81 0 -122 40q-40 40 -40 87q0 90 94 166q94 77 192 135h-960v8q105 28 140 80q34 50 34 191v856q0 134 -35 189q-34 54 -139 81v8h921v-289h-8q-86 154 -130 193q-47 41 -148 41h-289v-604h276q75 0 114 28.5t85 102.5h8v-316h-8
q-47 74 -84.5 101.5t-114.5 27.5h-276v-643h346q95 0 142 40q48 41 159 198q14 20 21 29h8l-41 -322q-162 -158 -162 -272q0 -37 25 -62q26 -26 69 -25q27 0 58 9z" />
    <glyph glyph-name="eogonek" unicode="&#x119;" horiz-adv-x="1042" 
d="M568 1024q-111 0 -190 -106q-80 -106 -99 -291l524 18q0 52 -5.5 99.5t-21 100t-40.5 91t-68 63.5t-100 25zM977 -350v-8q-55 -70 -135 -70q-69 0 -115.5 34t-46.5 101q0 56 31 115q31 60 105 162q79 112 110 159q-144 -168 -354 -168q-211 2 -341 141q-131 140 -131 388
t146 406q145 157 346 159q164 0 270 -100q105 -100 107 -330q0 -21 -2 -53h-693v-35q0 -91 23 -170.5t68 -143t119 -100.5t168 -37q170 0 313 121l12 -8q-54 -100 -103 -257q-50 -160 -51 -213q0 -51 26 -77q28 -26 70 -25q26 0 58 9z" />
    <glyph glyph-name="Ecaron" unicode="&#x11a;" 
d="M594 1651l221 131h16l-184 -250h-108l-181 250h17zM252 279v856q0 134 -35 189q-34 54 -139 81v8h921v-289h-8q-86 154 -130 193q-47 41 -148 41h-289v-604h276q75 0 114 28.5t85 102.5h8v-316h-8q-47 74 -84.5 101.5t-114.5 27.5h-276v-643h346q95 0 142 40
q48 41 159 198q14 20 21 29h8l-41 -322h-981v8q106 28 140 80t34 191z" />
    <glyph glyph-name="ecaron" unicode="&#x11b;" horiz-adv-x="1042" 
d="M545 1282l221 131h16l-184 -250h-109l-180 250h17zM568 1024q-111 0 -190 -106q-80 -106 -99 -291l524 18q0 52 -5.5 99.5t-21 100t-40.5 91t-68 63.5t-100 25zM274 586v-35q0 -91 23 -170.5t68 -143t119 -100.5t168 -37q170 0 313 121l12 -8q-51 -86 -155 -161
q-107 -77 -259 -77q-202 2 -332 141q-131 140 -131 388t146 406q145 157 346 159q164 0 270 -100q105 -100 107 -330q0 -21 -2 -53h-693z" />
    <glyph glyph-name="Gcircumflex" unicode="&#x11c;" horiz-adv-x="1519" 
d="M840 1782l184 -250h-16l-222 131l-219 -131h-16l180 250h109zM1350 428v-377q-267 -82 -506 -82q-317 0 -532 206q-214 205 -214 525q0 239 134.5 419.5t364.5 270.5q137 52 261 52q105 0 236.5 -20.5t214.5 -55.5v-276h-9q-164 305 -444 305q-229 0 -394 -193t-165 -494
q0 -300 168 -488t414 -189q70 0 160.5 15.5t144.5 41.5v340q0 128 -35 186q-34 57 -139 84v9h473v-9q-76 -28 -105 -80q-28 -50 -28 -190z" />
    <glyph glyph-name="gcircumflex" unicode="&#x11d;" horiz-adv-x="1062" 
d="M580 1413l184 -250h-16q-120 70 -222 131l-219 -131h-16l180 250h109zM741 700q0 55 -12 109.5t-36.5 105t-70 82t-104.5 31.5q-104 0 -164 -93q-60 -94 -59 -228q0 -56 11.5 -110.5t35.5 -106t69 -83t105 -32.5q61 0 106.5 30.5t70 80t36.5 103.5t12 111zM174 -219
q0 -51 22 -91t57 -64.5t81.5 -41t91 -22.5t90.5 -6q65 0 132 15.5t129.5 46t102.5 85.5t40 125q0 152 -213 160l-332 14q-16 0 -35 4q-166 -91 -166 -225zM522 338q-91 0 -164 29q-73 -68 -71 -127q0 -82 131 -88l293 -15q169 -7 256 -61q86 -53 86 -176q-1 -123 -99 -216
q-187 -176 -514 -176q-47 0 -98 5.5t-110 22t-104.5 41t-75.5 67t-29 96.5q0 160 299 270q-141 29 -152 137q0 123 166 228q-102 48 -158.5 133.5t-56.5 196.5q0 163 112 263q113 101 259 101t256 -65l335 65l-16 -135l-268 27q117 -95 117 -253q0 -163 -115 -266.5
t-279 -103.5z" />
    <glyph glyph-name="Gbreve" unicode="&#x11e;" horiz-adv-x="1519" 
d="M797 1653q69 0 135.5 35t95.5 94h8q-19 -104 -80 -175t-159 -71t-158.5 71t-81.5 175h8q28 -58 95.5 -93.5t136.5 -35.5zM1350 428v-377q-267 -82 -506 -82q-317 0 -532 206q-214 205 -214 525q0 239 134.5 419.5t364.5 270.5q137 52 261 52q105 0 236.5 -20.5
t214.5 -55.5v-276h-9q-164 305 -444 305q-229 0 -394 -193t-165 -494q0 -300 168 -488t414 -189q70 0 160.5 15.5t144.5 41.5v340q0 128 -35 186q-34 57 -139 84v9h473v-9q-76 -28 -105 -80q-28 -50 -28 -190z" />
    <glyph glyph-name="gbreve" unicode="&#x11f;" horiz-adv-x="1062" 
d="M528 1284q70 0 136.5 35t95.5 94h8q-19 -104 -80.5 -175t-159.5 -71t-158 71t-81 175h8q29 -59 95.5 -94t135.5 -35zM741 700q0 55 -12 109.5t-36.5 105t-70 82t-104.5 31.5q-104 0 -164 -93q-60 -94 -59 -228q0 -56 11.5 -110.5t35.5 -106t69 -83t105 -32.5
q61 0 106.5 30.5t70 80t36.5 103.5t12 111zM174 -219q0 -51 22 -91t57 -64.5t81.5 -41t91 -22.5t90.5 -6q65 0 132 15.5t129.5 46t102.5 85.5t40 125q0 152 -213 160l-332 14q-16 0 -35 4q-166 -91 -166 -225zM522 338q-91 0 -164 29q-73 -68 -71 -127q0 -82 131 -88
l293 -15q169 -7 256 -61q86 -53 86 -176q-1 -123 -99 -216q-187 -176 -514 -176q-47 0 -98 5.5t-110 22t-104.5 41t-75.5 67t-29 96.5q0 160 299 270q-141 29 -152 137q0 123 166 228q-102 48 -158.5 133.5t-56.5 196.5q0 163 112 263q113 101 259 101t256 -65l335 65
l-16 -135l-268 27q117 -95 117 -253q0 -163 -115 -266.5t-279 -103.5z" />
    <glyph glyph-name="Gdotaccent" unicode="&#x120;" horiz-adv-x="1519" 
d="M920 1686q0 -46 -33 -78.5t-79 -32.5t-78 31.5t-32 78.5t32 79t79 32q46 0 78.5 -32t32.5 -78zM1350 428v-377q-267 -82 -506 -82q-317 0 -532 206q-214 205 -214 525q0 239 134.5 419.5t364.5 270.5q137 52 261 52q105 0 236.5 -20.5t214.5 -55.5v-276h-9
q-164 305 -444 305q-229 0 -394 -193t-165 -494q0 -300 168 -488t414 -189q70 0 160.5 15.5t144.5 41.5v340q0 128 -35 186q-34 57 -139 84v9h473v-9q-76 -28 -105 -80q-28 -50 -28 -190z" />
    <glyph glyph-name="gdotaccent" unicode="&#x121;" horiz-adv-x="1062" 
d="M639 1317q0 -45 -33 -78t-78 -33q-46 0 -78 32t-32 78q0 45 32.5 78.5t77.5 33.5q44 0 77.5 -33.5t33.5 -77.5zM741 700q0 55 -12 109.5t-36.5 105t-70 82t-104.5 31.5q-104 0 -164 -93q-60 -94 -59 -228q0 -56 11.5 -110.5t35.5 -106t69 -83t105 -32.5q61 0 106.5 30.5
t70 80t36.5 103.5t12 111zM174 -219q0 -51 22 -91t57 -64.5t81.5 -41t91 -22.5t90.5 -6q65 0 132 15.5t129.5 46t102.5 85.5t40 125q0 152 -213 160l-332 14q-16 0 -35 4q-166 -91 -166 -225zM522 338q-91 0 -164 29q-73 -68 -71 -127q0 -82 131 -88l293 -15q169 -7 256 -61
q86 -53 86 -176q-1 -123 -99 -216q-187 -176 -514 -176q-47 0 -98 5.5t-110 22t-104.5 41t-75.5 67t-29 96.5q0 160 299 270q-141 29 -152 137q0 123 166 228q-102 48 -158.5 133.5t-56.5 196.5q0 163 112 263q113 101 259 101t256 -65l335 65l-16 -135l-268 27
q117 -95 117 -253q0 -163 -115 -266.5t-279 -103.5z" />
    <glyph glyph-name="Gcommaaccent" unicode="&#x122;" horiz-adv-x="1519" 
d="M725 -332q0 26 -27 64q-26 37 -26 76q0 42 29.5 70t71.5 28q45 0 73 -33q29 -34 28 -80q0 -83 -69 -168.5t-154 -144.5l-6 4q80 103 80 184zM1350 428v-377q-267 -82 -506 -82q-317 0 -532 206q-214 205 -214 525q0 239 134.5 419.5t364.5 270.5q137 52 261 52
q105 0 236.5 -20.5t214.5 -55.5v-276h-9q-164 305 -444 305q-229 0 -394 -193t-165 -494q0 -300 168 -488t414 -189q70 0 160.5 15.5t144.5 41.5v340q0 128 -35 186q-34 57 -139 84v9h473v-9q-76 -28 -105 -80q-28 -50 -28 -190z" />
    <glyph glyph-name="gcommaaccent" unicode="&#x123;" horiz-adv-x="1062" 
d="M633 1254q0 -42 -29.5 -68.5t-72.5 -26.5q-51 0 -76 37.5t-25 91.5q0 70 72.5 156t148.5 141l6 -4q-80 -103 -79 -184q0 -26 28 -64q28 -39 27 -79zM741 700q0 55 -12 109.5t-36.5 105t-70 82t-104.5 31.5q-104 0 -164 -93q-60 -94 -59 -228q0 -56 11.5 -110.5t35.5 -106
t69 -83t105 -32.5q61 0 106.5 30.5t70 80t36.5 103.5t12 111zM174 -219q0 -51 22 -91t57 -64.5t81.5 -41t91 -22.5t90.5 -6q65 0 132 15.5t129.5 46t102.5 85.5t40 125q0 152 -213 160l-332 14q-16 0 -35 4q-166 -91 -166 -225zM522 338q-91 0 -164 29q-73 -68 -71 -127
q0 -82 131 -88l293 -15q169 -7 256 -61q86 -53 86 -176q-1 -123 -99 -216q-187 -176 -514 -176q-47 0 -98 5.5t-110 22t-104.5 41t-75.5 67t-29 96.5q0 160 299 270q-141 29 -152 137q0 123 166 228q-102 48 -158.5 133.5t-56.5 196.5q0 163 112 263q113 101 259 101
t256 -65l335 65l-16 -135l-268 27q117 -95 117 -253q0 -163 -115 -266.5t-279 -103.5z" />
    <glyph glyph-name="Hcircumflex" unicode="&#x124;" horiz-adv-x="1648" 
d="M874 1782l185 -250h-17l-221 131l-219 -131h-16l180 250h108zM1571 8v-8h-520v8q58 16 93 36t52.5 53t23 70t5.5 101v426h-801v-426q0 -64 5.5 -101t23 -70t52.5 -53t93 -36v-8h-520v8q58 16 93 36t52.5 53t23 70t5.5 101v877q0 64 -5.5 101t-23 70t-52.5 53t-93 36v8
h520v-8q-58 -16 -93 -36t-52.5 -53t-23 -70t-5.5 -101v-385h801v385q0 64 -5.5 101t-23 70t-52.5 53t-93 36v8h520v-8q-58 -16 -93 -36t-52.5 -53t-23 -70t-5.5 -101v-877q0 -64 5.5 -101t23 -70t52.5 -53t93 -36z" />
    <glyph glyph-name="hcircumflex" unicode="&#x125;" horiz-adv-x="1257" 
d="M354 1849l185 -250h-17q-7 7 -22 15l-199 117l-219 -132h-16l180 250h108zM901 258v461q0 242 -241 243q-120 0 -271 -88v-616q0 -132 30 -178t120 -72v-8h-467v8q92 29 121 76q29 48 28 174v928q0 135 -30 180t-144 78v8q139 7 334 92h8v-641q202 166 369 166
q137 0 221 -85q84 -86 84 -269v-410q0 -164 26 -218q25 -52 123 -79v-8h-460v8q91 28 120 76q27 45 29 174z" />
    <glyph glyph-name="Hbar" unicode="&#x126;" horiz-adv-x="1648" 
d="M424 995v-237h801v237h-801zM1571 8v-8h-520v8q58 16 93 36t52.5 53t23 70t5.5 101v428h-801v-428q0 -64 5.5 -101t23 -70t52.5 -53t93 -36v-8h-520v8q58 16 93 36t52.5 53t23 70t5.5 101v727h-160v62h160v88q0 64 -5.5 101t-23 70t-52.5 53t-93 36v8h520v-8
q-58 -16 -93 -36t-52.5 -53t-23 -70t-5.5 -101v-88h801v88q0 64 -5.5 101t-23 70t-52.5 53t-93 36v8h520v-8q-58 -16 -93 -36t-52.5 -53t-23 -70t-5.5 -101v-88h174v-62h-174v-727q0 -64 5.5 -101t23 -70t52.5 -53t93 -36z" />
    <glyph glyph-name="hbar" unicode="&#x127;" horiz-adv-x="1257" 
d="M901 258v461q0 242 -241 243q-120 0 -271 -88v-616q0 -127 29 -174t121 -76v-8h-465v8q92 29 121 76q29 48 28 174v936h-133v70h131q-3 37 -11.5 63.5t-20 44t-34.5 31t-45 22t-61 19.5v8q137 7 332 92h8v-280h316v-70h-316v-291q202 166 369 166q134 0 220 -89
q85 -88 85 -273v-449q0 -127 29 -174q29 -48 120 -76v-8h-460v8q91 28 120 76q27 45 29 174z" />
    <glyph glyph-name="Itilde" unicode="&#x128;" horiz-adv-x="675" 
d="M444 1624q-54 0 -145 35t-119 35q-88 0 -121 -80l-16 4q18 65 71.5 118.5t117.5 53.5q52 0 145 -32q91 -32 123 -32q89 0 118 74l17 -4q-19 -67 -72.5 -119.5t-118.5 -52.5zM598 8v-8h-520v8q58 16 93 36t52.5 53t23 70t5.5 101v877q0 64 -5.5 101t-23 70t-52.5 53
t-93 36v8h520v-8q-58 -16 -93 -36t-52.5 -53t-23 -70t-5.5 -101v-877q0 -64 5.5 -101t23 -70t52.5 -53t93 -36z" />
    <glyph glyph-name="itilde" unicode="&#x129;" horiz-adv-x="591" 
d="M402 1255q-52 0 -145 35t-120 35q-88 0 -121 -80l-16 4q19 68 72.5 120t120.5 52q55 0 141 -31q91 -32 123 -32q89 0 118 74l17 -5q-23 -69 -73.5 -120.5t-116.5 -51.5zM381 1069h8v-817q0 -124 29 -170q29 -45 121 -74v-8h-461v8q92 29 121 74q29 47 28 170v479
q0 131 -31 174q-30 42 -143 74v8q167 12 328 82z" />
    <glyph glyph-name="Imacron" unicode="&#x12a;" horiz-adv-x="675" 
d="M594 1704v-92h-512v92h512zM598 8v-8h-520v8q58 16 93 36t52.5 53t23 70t5.5 101v877q0 64 -5.5 101t-23 70t-52.5 53t-93 36v8h520v-8q-58 -16 -93 -36t-52.5 -53t-23 -70t-5.5 -101v-877q0 -64 5.5 -101t23 -70t52.5 -53t93 -36z" />
    <glyph glyph-name="imacron" unicode="&#x12b;" horiz-adv-x="591" 
d="M551 1335v-92h-512v92h512zM381 1069h8v-817q0 -124 29 -170q29 -45 121 -74v-8h-461v8q92 29 121 74q29 47 28 170v479q0 131 -31 174q-30 42 -143 74v8q167 12 328 82z" />
    <glyph glyph-name="Ibreve" unicode="&#x12c;" horiz-adv-x="675" 
d="M338 1653q69 0 136.5 35t94.5 94h9q-19 -104 -80.5 -175t-159.5 -71t-158.5 71t-81.5 175h8q29 -59 95.5 -94t136.5 -35zM598 8v-8h-520v8q58 16 93 36t52.5 53t23 70t5.5 101v877q0 64 -5.5 101t-23 70t-52.5 53t-93 36v8h520v-8q-58 -16 -93 -36t-52.5 -53t-23 -70
t-5.5 -101v-877q0 -64 5.5 -101t23 -70t52.5 -53t93 -36z" />
    <glyph glyph-name="ibreve" unicode="&#x12d;" horiz-adv-x="591" 
d="M297 1284q69 0 135.5 35t95.5 94h9q-21 -104 -81 -175t-158 -71t-159 70.5t-82 175.5h9q29 -59 95.5 -94t135.5 -35zM381 1069h8v-817q0 -124 29 -170q29 -45 121 -74v-8h-461v8q92 29 121 74q29 47 28 170v479q0 131 -31 174q-30 42 -143 74v8q167 12 328 82z" />
    <glyph glyph-name="Iogonek" unicode="&#x12e;" horiz-adv-x="675" 
d="M598 -350v-8q-55 -70 -135 -70q-81 0 -121 40q-41 41 -41 87q0 88 93 164q94 76 194 137h-510v8q58 16 93 36t52.5 53t23 70t5.5 101v877q0 64 -5.5 101t-23 70t-52.5 53t-93 36v8h520v-8q-58 -16 -93 -36t-52.5 -53t-23 -70t-5.5 -101v-877q0 -64 5.5 -101t23 -70
t52.5 -53t93 -36v-8q-154 -167 -154 -272q0 -36 26 -62q28 -26 70 -25q26 0 58 9z" />
    <glyph glyph-name="iogonek" unicode="&#x12f;" horiz-adv-x="591" 
d="M416 1339q0 -46 -32.5 -77t-79.5 -33q-46 0 -78 32.5t-32 78.5q0 45 33 77.5t78 32.5t78 -33t33 -78zM532 -350v-8q-55 -70 -135 -70q-81 0 -121 40q-77 74 -15 176q52 84 261 212h-444v8q92 29 121 74q29 47 28 170v479q0 131 -31 174q-30 42 -143 74v8q167 12 328 82h8
v-817q0 -124 29 -170q29 -45 121 -74v-8q-160 -160 -160 -272q-1 -36 25 -62q28 -26 70 -25q26 0 58 9z" />
    <glyph glyph-name="Idotaccent" unicode="&#x130;" horiz-adv-x="675" 
d="M449 1686q0 -46 -33 -78.5t-79 -32.5q-47 0 -78.5 31.5t-31.5 78.5t32.5 79t78.5 32t78.5 -32t32.5 -78zM598 8v-8h-520v8q58 16 93 36t52.5 53t23 70t5.5 101v877q0 64 -5.5 101t-23 70t-52.5 53t-93 36v8h520v-8q-58 -16 -93 -36t-52.5 -53t-23 -70t-5.5 -101v-877
q0 -64 5.5 -101t23 -70t52.5 -53t93 -36z" />
    <glyph glyph-name="dotlessi" unicode="&#x131;" horiz-adv-x="591" 
d="M381 1069h8v-817q0 -124 29 -170q29 -45 121 -74v-8h-461v8q92 29 121 74q29 47 28 170v479q0 131 -31 174q-30 42 -143 74v8q167 12 328 82z" />
    <glyph glyph-name="IJ" unicode="&#x132;" horiz-adv-x="1349" 
d="M1100 1135v-1088q0 -241 -156 -365q-71 -56 -188 -110l-4 6q176 122 176 399v1158q0 142 -34 191q-36 51 -140 79v8h520v-8q-104 -28 -140 -79q-34 -49 -34 -191zM598 8v-8h-520v8q58 16 93 36t52.5 53t23 70t5.5 101v877q0 64 -5.5 101t-23 70t-52.5 53t-93 36v8h520v-8
q-58 -16 -93 -36t-52.5 -53t-23 -70t-5.5 -101v-877q0 -64 5.5 -101t23 -70t52.5 -53t93 -36z" />
    <glyph glyph-name="ij" unicode="&#x133;" horiz-adv-x="1183" 
d="M975 1069h8v-1075q0 -360 -319 -486l-7 11q58 36 95 107.5t50 142t13 145.5v817q0 134 -31 175q-31 42 -143 73v8q175 12 334 82zM1008 1339q0 -45 -32.5 -76.5t-78.5 -33.5q-45 0 -78 33t-33 78t33 77.5t78 32.5t78 -33t33 -78zM381 1069h8v-817q0 -124 29 -170
q29 -45 121 -74v-8h-461v8q92 29 121 74q29 47 28 170v479q0 131 -31 174q-30 42 -143 74v8q167 12 328 82zM416 1339q0 -46 -32.5 -77t-79.5 -33q-46 0 -78 32.5t-32 78.5q0 45 33 77.5t78 32.5t78 -33t33 -78z" />
    <glyph glyph-name="Jcircumflex" unicode="&#x134;" horiz-adv-x="673" 
d="M389 1782l184 -250h-16l-221 131l-219 -131h-17l181 250h108zM424 1135v-1088q0 -241 -156 -365q-71 -56 -188 -110l-4 6q176 122 176 399v1158q0 142 -34 191q-36 51 -140 79v8h520v-8q-104 -28 -140 -79q-34 -49 -34 -191z" />
    <glyph glyph-name="jcircumflex" unicode="&#x135;" horiz-adv-x="591" 
d="M348 1413l184 -250h-16l-221 131l-219 -131h-17l181 250h108zM383 1069h8v-1075q0 -362 -315 -486l-6 11q58 35 95 107t49.5 143t12.5 145v817q0 131 -31 174q-30 42 -143 74v8q171 12 330 82z" />
    <glyph glyph-name="Kcommaaccent" unicode="&#x136;" horiz-adv-x="1456" 
d="M694 -332q0 24 -26 64q-27 38 -27 78q0 41 29.5 68.5t71.5 27.5q51 0 76.5 -37.5t25.5 -90.5q0 -71 -73.5 -158.5t-149.5 -139.5l-7 4q80 103 80 184zM1501 8v-8h-538v8q61 12 90 26q28 14 26 50q0 67 -145 272l-283 400l-233 -238v-250q0 -64 5.5 -101t23 -70t52.5 -53
t93 -36v-8h-520v8q58 16 93 36t52.5 53t23 70t5.5 101v877q0 64 -5.5 101t-23 70t-52.5 53t-93 36v8h520v-8q-58 -16 -93 -36t-52.5 -53t-23 -70t-5.5 -101v-551q124 129 220 232q128 138 220 233q160 167 160 250q0 59 -121 96v8h514v-8q-117 -34 -197 -95
q-85 -64 -256 -241l-186 -190l369 -523q145 -205 205 -262q61 -58 155 -86z" />
    <glyph glyph-name="kcommaaccent" unicode="&#x137;" horiz-adv-x="1191" 
d="M561 -332q0 25 -27 64q-28 37 -28 78q0 42 30 69t72 27q50 0 75.5 -38t25.5 -90q0 -70 -73 -157t-149 -141l-6 4q80 103 80 184zM381 1544h8v-1292q0 -124 29 -170q29 -45 121 -74v-8h-467v8q92 29 121 74q29 47 28 170v946q-1 133 -31 176q-29 43 -143 70v8
q188 18 334 92zM788 926q0 31 -26.5 54.5t-56 34t-60.5 15.5v14h518v-8q-80 -18 -159 -68q-80 -51 -218 -177l-192 -177q159 -191 328 -383q78 -92 148 -146t163 -77v-8h-179q-66 0 -132 9q-23 3 -62 30q-25 19 -64 70q-10 13 -87 108l-265 324l203 198q141 131 141 187z
" />
    <glyph glyph-name="kgreenlandic" unicode="&#x138;" horiz-adv-x="1191" 
d="M381 1069h8v-817q0 -124 29 -170q29 -45 121 -74v-8h-461v8q92 29 121 74q29 47 28 170v479q0 131 -31 174q-30 42 -143 74v8q167 12 328 82zM645 1030v14h518v-8q-95 -22 -173.5 -74.5t-174.5 -140.5l-221 -207l328 -383q77 -90 148 -145t163 -78v-8h-201q-90 0 -109 8
q-24 9 -31 10q-11 1 -26 16q-12 12 -22 20q-7 4 -27 29q-18 24 -29 35q-10 10 -36 45q-33 42 -43 54l-265 324l203 198q136 128 145 194q4 37 -31 61q-36 24 -116 36z" />
    <glyph glyph-name="Lacute" unicode="&#x139;" horiz-adv-x="1122" 
d="M381 1782h190q-117 -159 -327 -250h-11q108 111 148 250zM418 1145v-1090h354q70 2 124 53q59 56 169 214h8l-41 -322h-960v8q57 15 91.5 36t52.5 54t24 71t6 99v877q0 61 -6 99t-24 71t-52.5 54t-91.5 36v8h520v-8q-57 -15 -91.5 -36t-52.5 -54t-24 -71t-6 -99z" />
    <glyph glyph-name="lacute" unicode="&#x13a;" horiz-adv-x="577" 
d="M276 1810h191q-116 -158 -328 -249h-10q107 114 147 249zM381 1544h8v-1292q0 -124 29 -170q29 -45 121 -74v-8h-467v8q92 29 121 74q29 47 28 170v946q-1 133 -31 176q-29 43 -143 70v8q188 18 334 92z" />
    <glyph glyph-name="Lcommaaccent" unicode="&#x13b;" horiz-adv-x="1122" 
d="M526 -332q0 26 -27 64q-28 35 -28 76q0 42 29.5 70t71.5 28q44 0 73 -34t29 -79q0 -82 -68 -167.5t-153 -145.5l-7 4q80 103 80 184zM418 1145v-1090h354q70 2 124 53q59 56 169 214h8l-41 -322h-960v8q57 15 91.5 36t52.5 54t24 71t6 99v877q0 61 -6 99t-24 71t-52.5 54
t-91.5 36v8h520v-8q-57 -15 -91.5 -36t-52.5 -54t-24 -71t-6 -99z" />
    <glyph glyph-name="lcommaaccent" unicode="&#x13c;" horiz-adv-x="577" 
d="M254 -332q0 27 -28 64q-28 35 -28 76q0 42 29.5 70t72.5 28q45 0 73 -34q29 -36 28 -79q1 -82 -67.5 -168t-153.5 -145l-6 4q80 103 80 184zM381 1544h8v-1292q0 -124 29 -170q29 -45 121 -74v-8h-467v8q92 29 121 74q29 47 28 170v946q-1 133 -31 176q-29 43 -143 70v8
q188 18 334 92z" />
    <glyph glyph-name="Lcaron" unicode="&#x13d;" horiz-adv-x="1122" 
d="M688 1010q25 57 25 122q0 62 -26 125q-25 60 -25 97t28.5 62.5t66.5 25.5q43 0 69 -32t26 -76q0 -48 -34 -115q-36 -69 -70 -127q-24 -43 -46 -84q-8 0 -14 2zM418 1145v-1090h354q70 2 124 53q59 56 169 214h8l-41 -322h-960v8q57 15 91.5 36t52.5 54t24 71t6 99v877
q0 61 -6 99t-24 71t-52.5 54t-91.5 36v8h520v-8q-57 -15 -91.5 -36t-52.5 -54t-24 -71t-6 -99z" />
    <glyph glyph-name="lcaron" unicode="&#x13e;" horiz-adv-x="643" 
d="M512 1112q25 66 25 129q0 60 -26 121t-26 95q0 38 28.5 62.5t66.5 24.5q42 0 69 -31t27 -74q0 -44 -32 -111q-48 -98 -120 -218q-6 0 -12 2zM381 1544h8v-1292q0 -124 29 -170q29 -45 121 -74v-8h-467v8q92 29 121 74q29 47 28 170v946q-1 133 -31 176q-29 43 -143 70v8
q188 18 334 92z" />
    <glyph glyph-name="Ldot" unicode="&#x13f;" horiz-adv-x="1122" 
d="M786 727q0 -51 -36 -87t-87 -36t-88 36t-36 87q0 51 36 87t87 36q52 0 88 -35.5t36 -87.5zM418 1145v-1090h354q70 2 124 53q59 56 169 214h8l-41 -322h-960v8q57 15 91.5 36t52.5 54t24 71t6 99v877q0 61 -6 99t-24 71t-52.5 54t-91.5 36v8h520v-8q-57 -15 -91.5 -36
t-52.5 -54t-24 -71t-6 -99z" />
    <glyph glyph-name="ldot" unicode="&#x140;" horiz-adv-x="659" 
d="M719 729q0 -51 -36 -87t-87 -36t-87 36t-36 87t36 87t87 36t87 -36t36 -87zM381 1544h8v-1292q0 -124 29 -170q29 -45 121 -74v-8h-467v8q92 29 121 74q29 47 28 170v946q-1 133 -31 176q-29 43 -143 70v8q188 18 334 92z" />
    <glyph glyph-name="Lslash" unicode="&#x141;" horiz-adv-x="1122" 
d="M418 621v-566h354q70 2 124 53q59 56 169 214h8l-41 -322h-960v8q57 15 91.5 36t52.5 54t24 71t6 99v289l-154 -53v78l154 53v510q0 61 -6 99t-24 71t-52.5 54t-91.5 36v8h520v-8q-57 -15 -91.5 -36t-52.5 -54t-24 -71t-6 -99v-447l237 88v-77z" />
    <glyph glyph-name="lslash" unicode="&#x142;" horiz-adv-x="577" 
d="M381 1544h8v-553l180 72v-78l-180 -72v-661q0 -124 29 -170q29 -45 121 -74v-8h-467v8q92 29 121 74q29 47 28 170v598l-184 -70v78l184 70v270q-1 133 -31 176q-29 43 -143 70v8q188 18 334 92z" />
    <glyph glyph-name="Nacute" unicode="&#x143;" horiz-adv-x="1632" 
d="M795 1782h190q-117 -159 -328 -250h-10q108 117 148 250zM1339 262v725q0 165 -13 242t-44 114.5t-104 61.5v8h401v-8q-102 -33 -132 -107t-30 -311v-1007h-80l-1024 1239v-793q-1 -157 13 -242q13 -76 45 -113.5t104 -62.5v-8h-401v8q102 33 132 107t30 311v780
q0 60 -52 118q-53 59 -151 81v8h346z" />
    <glyph glyph-name="nacute" unicode="&#x144;" horiz-adv-x="1255" 
d="M602 1413h191q-117 -159 -328 -250h-10q107 116 147 250zM897 258v461q0 242 -241 243q-120 0 -271 -88v-622q0 -124 29 -170q29 -45 121 -74v-8h-461v8q92 29 121 74q29 47 28 170v434q0 120 -13 171q-13 52 -45 76q-30 23 -116 46v8q165 12 326 82h8v-166
q200 166 377 166q131 0 215 -85q84 -86 84 -267v-459q2 -129 29 -174q29 -48 120 -76v-8h-460v8q91 28 120 76q27 45 29 174z" />
    <glyph glyph-name="Ncommaaccent" unicode="&#x145;" horiz-adv-x="1632" 
d="M780 -332q0 26 -26 64q-27 36 -27 76q0 42 29.5 70t71.5 28q51 0 76.5 -37.5t25.5 -90.5q0 -72 -72.5 -158t-150.5 -140l-7 4q80 103 80 184zM1339 262v725q0 165 -13 242t-44 114.5t-104 61.5v8h401v-8q-102 -33 -132 -107t-30 -311v-1007h-80l-1024 1239v-793
q-1 -157 13 -242q13 -76 45 -113.5t104 -62.5v-8h-401v8q102 33 132 107t30 311v780q0 60 -52 118q-53 59 -151 81v8h346z" />
    <glyph glyph-name="ncommaaccent" unicode="&#x146;" horiz-adv-x="1255" 
d="M590 -332q0 26 -28 64q-28 37 -28 78q0 42 30 69t72 27q45 0 73 -34q29 -36 28 -79q1 -80 -68 -167t-153 -146l-6 4q80 103 80 184zM897 258v461q0 242 -241 243q-120 0 -271 -88v-622q0 -124 29 -170q29 -45 121 -74v-8h-461v8q92 29 121 74q29 47 28 170v434
q0 120 -13 171q-13 52 -45 76q-30 23 -116 46v8q165 12 326 82h8v-166q200 166 377 166q131 0 215 -85q84 -86 84 -267v-459q2 -129 29 -174q29 -48 120 -76v-8h-460v8q91 28 120 76q27 45 29 174z" />
    <glyph glyph-name="Ncaron" unicode="&#x147;" horiz-adv-x="1632" 
d="M815 1651l221 131h17l-185 -250h-108l-180 250h16zM1339 262v725q0 165 -13 242t-44 114.5t-104 61.5v8h401v-8q-102 -33 -132 -107t-30 -311v-1007h-80l-1024 1239v-793q-1 -157 13 -242q13 -76 45 -113.5t104 -62.5v-8h-401v8q102 33 132 107t30 311v780q0 60 -52 118
q-53 59 -151 81v8h346z" />
    <glyph glyph-name="ncaron" unicode="&#x148;" horiz-adv-x="1255" 
d="M844 1413h16l-184 -250h-109l-180 250h16l220 -131q141 82 221 131zM897 258v461q0 242 -241 243q-120 0 -271 -88v-622q0 -124 29 -170q29 -45 121 -74v-8h-461v8q92 29 121 74q29 47 28 170v434q0 120 -13 171q-13 52 -45 76q-30 23 -116 46v8q165 12 326 82h8v-166
q200 166 377 166q131 0 215 -85q84 -86 84 -267v-459q2 -129 29 -174q29 -48 120 -76v-8h-460v8q91 28 120 76q27 45 29 174z" />
    <glyph glyph-name="napostrophe" unicode="&#x149;" horiz-adv-x="1255" 
d="M264 1307q0 28 -28 63q-29 36 -27 77q0 42 29 69.5t72 27.5q44 0 73 -33.5t29 -78.5q0 -82 -68 -167t-154 -147l-6 4q80 103 80 185zM897 258v461q0 242 -241 243q-120 0 -271 -88v-622q0 -124 29 -170q29 -45 121 -74v-8h-461v8q92 29 121 74q29 47 28 170v434
q0 120 -13 171q-13 52 -45 76q-30 23 -116 46v8q165 12 326 82h8v-166q200 166 377 166q131 0 215 -85q84 -86 84 -267v-459q2 -129 29 -174q29 -48 120 -76v-8h-460v8q91 28 120 76q27 45 29 174z" />
    <glyph glyph-name="Eng" unicode="&#x14a;" horiz-adv-x="1632" 
d="M1090 -332q-93 0 -95 86q0 34 19 68q44 -17 90 -19q174 0 209 207l-1000 1209v-793q-1 -157 13 -242q13 -76 45 -113.5t104 -62.5v-8h-397v8q102 33 132 107t30 311v780q0 50 -54 112q-54 61 -149 87v8h342l960 -1151v746q0 149 -14 228q-13 72 -45.5 109t-101.5 60v8
h397v-8q-70 -23 -102 -58.5t-45 -106.5q-14 -77 -15 -230l-2 -785q0 -205 -63 -368q-34 -88 -100.5 -138.5t-157.5 -50.5z" />
    <glyph glyph-name="eng" unicode="&#x14b;" horiz-adv-x="1249" 
d="M891 -86v805q1 120 -61 182q-61 61 -178 61q-116 0 -267 -88v-622q0 -124 29 -170q29 -45 121 -74v-8h-461v8q92 29 121 74q29 47 28 170v479q0 133 -30 175q-31 41 -144 73v8q165 12 326 82h8v-166q202 166 351 166q147 0 236 -89q87 -88 87 -273v-713q0 -362 -318 -486
l-6 11q58 36 95 107.5t50 142t13 145.5z" />
    <glyph glyph-name="Omacron" unicode="&#x14c;" horiz-adv-x="1638" 
d="M1106 1716v-82h-574v82h574zM440 218q152 -204 379 -204t378 204q151 203 151 489q0 285 -151 487q-151 201 -378 203q-227 0 -379 -204q-152 -203 -152 -487q0 -283 152 -488zM1329 178q-221 -209 -510 -209t-510 209t-221 522q0 145 59 281.5t157.5 237.5t234 162
t280.5 61q194 0 364 -103t269 -274.5t98 -364.5q0 -313 -221 -522z" />
    <glyph glyph-name="omacron" unicode="&#x14d;" horiz-adv-x="1255" 
d="M913 1348v-82h-573v82h573zM435 97q79 -79 192 -79t191 79q146 147 147 427q0 65 -10.5 131.5t-36 134t-63 119.5t-97 84.5t-132.5 32.5q-156 0 -246 -146q-91 -145 -91 -356q0 -278 146 -427zM1002 137q-156 -162 -375 -162t-374 161t-155 390t157 386t372 157
q216 0 373 -157q158 -158 157 -385q1 -227 -155 -390z" />
    <glyph glyph-name="Obreve" unicode="&#x14e;" horiz-adv-x="1638" 
d="M823 1649q70 0 135 36t93 97h8q-21 -102 -81.5 -169t-157.5 -67q-98 0 -159 67t-81 169h8q32 -63 97 -98t138 -35zM440 218q152 -204 379 -204t378 204q151 203 151 489q0 285 -151 487q-151 201 -378 203q-227 0 -379 -204q-152 -203 -152 -487q0 -283 152 -488z
M1329 178q-221 -209 -510 -209t-510 209t-221 522q0 145 59 281.5t157.5 237.5t234 162t280.5 61q194 0 364 -103t269 -274.5t98 -364.5q0 -313 -221 -522z" />
    <glyph glyph-name="obreve" unicode="&#x14f;" horiz-adv-x="1255" 
d="M627 1280q71 0 136.5 35.5t94.5 97.5h8q-20 -102 -80.5 -168.5t-158.5 -66.5t-159 66.5t-81 168.5h8q31 -61 96.5 -97t135.5 -36zM435 97q79 -79 192 -79t191 79q146 147 147 427q0 65 -10.5 131.5t-36 134t-63 119.5t-97 84.5t-132.5 32.5q-156 0 -246 -146
q-91 -145 -91 -356q0 -278 146 -427zM1002 137q-156 -162 -375 -162t-374 161t-155 390t157 386t372 157q216 0 373 -157q158 -158 157 -385q1 -227 -155 -390z" />
    <glyph glyph-name="Ohungarumlaut" unicode="&#x150;" horiz-adv-x="1638" 
d="M897 1782h156q-70 -146 -207 -250h-19q64 115 70 250zM653 1782h156q-70 -146 -207 -250h-18q63 116 69 250zM440 218q152 -204 379 -204t378 204q151 203 151 489q0 285 -151 487q-151 201 -378 203q-227 0 -379 -204q-152 -203 -152 -487q0 -283 152 -488zM1329 178
q-221 -209 -510 -209t-510 209t-221 522q0 145 59 281.5t157.5 237.5t234 162t280.5 61q194 0 364 -103t269 -274.5t98 -364.5q0 -313 -221 -522z" />
    <glyph glyph-name="ohungarumlaut" unicode="&#x151;" horiz-adv-x="1255" 
d="M707 1413h155q-70 -146 -207 -250h-18q64 115 70 250zM463 1413h155q-71 -147 -206 -250h-19q64 115 70 250zM435 97q79 -79 192 -79t191 79q146 147 147 427q0 65 -10.5 131.5t-36 134t-63 119.5t-97 84.5t-132.5 32.5q-156 0 -246 -146q-91 -145 -91 -356
q0 -278 146 -427zM1002 137q-156 -162 -375 -162t-374 161t-155 390t157 386t372 157q216 0 373 -157q158 -158 157 -385q1 -227 -155 -390z" />
    <glyph glyph-name="OE" unicode="&#x152;" horiz-adv-x="2260" 
d="M440 218q152 -204 379 -204t378 204q151 203 151 489q0 285 -151 487q-151 201 -378 203q-227 0 -379 -204q-152 -203 -152 -487q0 -283 152 -488zM819 -31q-289 0 -510 209t-221 522q0 200 105 374t281 274q166 94 333 94q164 0 302 -73.5t237 -209.5v254h747v-289h-8
q-86 154 -130 193q-47 41 -149 41h-288v-604h276q75 0 114 28.5t85 102.5h8v-316h-8q-47 74 -84.5 101.5t-114.5 27.5h-276v-643h346q95 0 142 40q48 41 159 198q10 15 20 29h8l-41 -322h-806v238q-92 -128 -230.5 -198.5t-296.5 -70.5z" />
    <glyph glyph-name="oe" unicode="&#x153;" horiz-adv-x="1921" 
d="M1139 643v-16l522 18q0 52 -5.5 99t-21 100t-40.5 91t-68 63.5t-100 25.5q-110 0 -199 -104q-88 -103 -88 -277zM435 97q79 -79 192 -79t191 79q146 147 147 427q0 65 -10.5 131.5t-36 134t-63 119.5t-97 84.5t-132.5 32.5q-156 0 -246 -146q-91 -145 -91 -356
q0 -278 146 -427zM1827 586h-690q0 -241 106 -363q107 -123 269 -123q164 0 307 121l12 -8q-46 -82 -153 -160q-106 -78 -259 -78q-260 0 -383 226q-69 -107 -175 -165.5t-234 -60.5q-219 0 -374 161t-155 390t157 386t372 157q132 0 244 -67t182 -183q63 113 167.5 181
t229.5 69q165 0 272 -100q108 -101 107 -330q0 -19 -2 -53z" />
    <glyph glyph-name="Racute" unicode="&#x154;" horiz-adv-x="1333" 
d="M645 1782h191q-117 -159 -328 -250h-10q107 116 147 250zM608 641h-190v-362q0 -139 34 -191t140 -80v-8h-520v8q105 28 140 80q34 50 34 191v856q0 65 -5 102.5t-22.5 73t-52.5 57t-94 37.5v8h608q72 0 136 -10t125.5 -34.5t105.5 -62.5t71 -98.5t27 -138.5
q-1 -167 -105 -258q-105 -93 -262 -133l318 -440q95 -132 147 -172q50 -38 146 -58v-8h-123q-165 0 -214 26q-46 25 -139 160zM418 1358v-664h196q141 0 245 89q103 88 103 245q0 152 -81.5 241t-231.5 89h-231z" />
    <glyph glyph-name="racute" unicode="&#x155;" horiz-adv-x="761" 
d="M358 1413h191q-117 -159 -328 -250h-10q107 110 147 250zM381 1069h8v-811q0 -122 32 -172t144 -78v-8h-487v8q93 29 121 75q29 48 28 175v453q0 134 -29 180q-30 45 -145 78v8q132 6 328 92zM750 952q0 -49 -33.5 -82.5t-83.5 -33.5q-49 0 -83 33.5t-34 82.5
q0 50 34 83.5t83 33.5t83 -33.5t34 -83.5z" />
    <glyph glyph-name="Rcommaaccent" unicode="&#x156;" horiz-adv-x="1333" 
d="M631 -332q0 26 -27 64q-26 37 -26 76q0 42 29.5 70t71.5 28q45 0 73 -33q29 -34 28 -80q0 -83 -69 -168.5t-154 -144.5l-6 4q80 103 80 184zM608 641h-190v-362q0 -139 34 -191t140 -80v-8h-520v8q105 28 140 80q34 50 34 191v856q0 65 -5 102.5t-22.5 73t-52.5 57
t-94 37.5v8h608q72 0 136 -10t125.5 -34.5t105.5 -62.5t71 -98.5t27 -138.5q-1 -167 -105 -258q-105 -93 -262 -133l318 -440q95 -132 147 -172q50 -38 146 -58v-8h-123q-165 0 -214 26q-46 25 -139 160zM418 1358v-664h196q141 0 245 89q103 88 103 245q0 152 -81.5 241
t-231.5 89h-231z" />
    <glyph glyph-name="rcommaaccent" unicode="&#x157;" horiz-adv-x="761" 
d="M309 -332q0 26 -27 64q-28 35 -28 76q0 42 29.5 70t72.5 28q44 0 72.5 -34t28.5 -79q1 -82 -67.5 -168t-153.5 -145l-7 4q80 103 80 184zM381 1069h8v-811q0 -122 32 -172t144 -78v-8h-487v8q93 29 121 75q29 48 28 175v453q0 134 -29 180q-30 45 -145 78v8q132 6 328 92
zM750 952q0 -49 -33.5 -82.5t-83.5 -33.5q-49 0 -83 33.5t-34 82.5q0 50 34 83.5t83 33.5t83 -33.5t34 -83.5z" />
    <glyph glyph-name="Rcaron" unicode="&#x158;" horiz-adv-x="1333" 
d="M666 1651l221 131h16l-184 -250h-109l-180 250h16zM608 641h-190v-362q0 -139 34 -191t140 -80v-8h-520v8q105 28 140 80q34 50 34 191v856q0 65 -5 102.5t-22.5 73t-52.5 57t-94 37.5v8h608q72 0 136 -10t125.5 -34.5t105.5 -62.5t71 -98.5t27 -138.5q-1 -167 -105 -258
q-105 -93 -262 -133l318 -440q95 -132 147 -172q50 -38 146 -58v-8h-123q-165 0 -214 26q-46 25 -139 160zM418 1358v-664h196q141 0 245 89q103 88 103 245q0 152 -81.5 241t-231.5 89h-231z" />
    <glyph glyph-name="rcaron" unicode="&#x159;" horiz-adv-x="761" 
d="M379 1282l221 131h16l-184 -250h-108l-181 250h17zM381 1069h8v-811q0 -122 32 -172t144 -78v-8h-487v8q93 29 121 75q29 48 28 175v453q0 134 -29 180q-30 45 -145 78v8q132 6 328 92zM750 952q0 -49 -33.5 -82.5t-83.5 -33.5q-49 0 -83 33.5t-34 82.5q0 50 34 83.5
t83 33.5t83 -33.5t34 -83.5z" />
    <glyph glyph-name="Sacute" unicode="&#x15a;" horiz-adv-x="1032" 
d="M561 1782h191q-117 -159 -328 -250h-10q107 110 147 250zM125 51v340h8q135 -377 389 -377q112 0 197.5 73.5t85.5 184.5q0 109 -70 191q-71 83 -169 141l-198 120q-105 64 -172 154t-67 199q0 162 125 263q126 102 282 102q158 0 353 -82v-281h-8q-133 314 -363 316
q-104 0 -177 -65t-73 -168q0 -173 242 -313q76 -43 200 -119q106 -65 173.5 -161t66.5 -207q0 -122 -65.5 -213.5t-168 -136t-222.5 -43.5q-195 0 -369 82z" />
    <glyph glyph-name="sacute" unicode="&#x15b;" horiz-adv-x="870" 
d="M440 1413h191q-117 -159 -328 -250h-10q107 110 147 250zM104 59v271h9q136 -312 338 -314q81 0 146 53t65 132q0 128 -193 218q-74 35 -161 80q-88 47 -140.5 119.5t-52.5 165.5q0 131 96 208t231 77q133 0 277 -59v-248h-10q-116 266 -289 266q-76 0 -131 -49.5
t-55 -124.5q0 -74 56 -124q60 -51 139 -86q72 -32 162 -77q80 -40 138 -113q57 -72 57 -190t-99 -204q-100 -86 -264 -85q-165 0 -319 84z" />
    <glyph glyph-name="Scircumflex" unicode="&#x15c;" horiz-adv-x="1032" 
d="M582 1782l184 -250h-16l-222 131l-219 -131h-16l180 250h109zM125 51v340h8q135 -377 389 -377q112 0 197.5 73.5t85.5 184.5q0 109 -70 191q-71 83 -169 141l-198 120q-105 64 -172 154t-67 199q0 162 125 263q126 102 282 102q158 0 353 -82v-281h-8q-133 314 -363 316
q-104 0 -177 -65t-73 -168q0 -173 242 -313q76 -43 200 -119q106 -65 173.5 -161t66.5 -207q0 -122 -65.5 -213.5t-168 -136t-222.5 -43.5q-195 0 -369 82z" />
    <glyph glyph-name="scircumflex" unicode="&#x15d;" horiz-adv-x="870" 
d="M487 1413l185 -250h-17l-221 131l-219 -131h-16l180 250h108zM104 59v271h9q136 -312 338 -314q81 0 146 53t65 132q0 128 -193 218q-74 35 -161 80q-88 47 -140.5 119.5t-52.5 165.5q0 131 96 208t231 77q133 0 277 -59v-248h-10q-116 266 -289 266q-76 0 -131 -49.5
t-55 -124.5q0 -74 56 -124q60 -51 139 -86q72 -32 162 -77q80 -40 138 -113q57 -72 57 -190t-99 -204q-100 -86 -264 -85q-165 0 -319 84z" />
    <glyph glyph-name="Scedilla" unicode="&#x15e;" horiz-adv-x="1032" 
d="M330 -375l24 23q67 -29 122 -29q54 0 93 24t39 75q0 37 -38 63t-79.5 35t-78.5 10l110 143h-26q-197 0 -371 82v340h8q135 -377 389 -377q112 0 197.5 73.5t85.5 184.5q0 109 -70 191q-71 83 -169 141l-198 120q-105 64 -172 154t-67 199q0 162 125 263q126 102 282 102
q158 0 353 -82v-281h-8q-133 314 -363 316q-104 0 -177 -65t-73 -168q0 -173 242 -313q76 -43 200 -119q106 -65 173.5 -161t66.5 -207q0 -156 -102.5 -259t-261.5 -128l-51 -79q71 -7 133 -50q61 -42 61 -118q0 -56 -39.5 -93t-89 -50t-104.5 -13q-93 0 -166 53z" />
    <glyph glyph-name="scedilla" unicode="&#x15f;" horiz-adv-x="870" 
d="M236 -375l24 23q62 -27 120 -27q55 0 94.5 23.5t39.5 75.5q0 36 -38.5 61.5t-80.5 34.5t-78 10l113 149q-178 0 -326 84v271h9q136 -312 338 -314q81 0 146 53t65 132q0 128 -193 218q-74 35 -161 80q-88 47 -140.5 119.5t-52.5 165.5q0 131 96 208t231 77q133 0 277 -59
v-248h-10q-116 266 -289 266q-76 0 -131 -49.5t-55 -124.5q0 -74 56 -124q60 -51 139 -86q72 -32 162 -77q80 -40 138 -113q57 -72 57 -184q0 -119 -84.5 -196t-207.5 -92l-54 -86q71 -7 133 -50q61 -42 61 -118q0 -56 -39.5 -93t-88.5 -50t-104 -13q-93 0 -166 53z" />
    <glyph glyph-name="Scaron" unicode="&#x160;" horiz-adv-x="1032" 
d="M528 1651l222 131h16l-184 -250h-109l-180 250h16zM125 51v340h8q135 -377 389 -377q112 0 197.5 73.5t85.5 184.5q0 109 -70 191q-71 83 -169 141l-198 120q-105 64 -172 154t-67 199q0 162 125 263q126 102 282 102q158 0 353 -82v-281h-8q-133 314 -363 316
q-104 0 -177 -65t-73 -168q0 -173 242 -313q76 -43 200 -119q106 -65 173.5 -161t66.5 -207q0 -122 -65.5 -213.5t-168 -136t-222.5 -43.5q-195 0 -369 82z" />
    <glyph glyph-name="scaron" unicode="&#x161;" horiz-adv-x="870" 
d="M434 1282l221 131h17l-185 -250h-108l-180 250h16zM104 59v271h9q136 -312 338 -314q81 0 146 53t65 132q0 128 -193 218q-74 35 -161 80q-88 47 -140.5 119.5t-52.5 165.5q0 131 96 208t231 77q133 0 277 -59v-248h-10q-116 266 -289 266q-76 0 -131 -49.5t-55 -124.5
q0 -74 56 -124q60 -51 139 -86q72 -32 162 -77q80 -40 138 -113q57 -72 57 -190t-99 -204q-100 -86 -264 -85q-165 0 -319 84z" />
    <glyph glyph-name="Tcommaaccent" unicode="&#x162;" horiz-adv-x="1327" 
d="M629 -332q0 27 -28 64q-28 35 -28 76q0 42 29.5 70t72.5 28q45 0 73 -34q29 -36 28 -79q0 -82 -68 -167.5t-153 -145.5l-6 4q80 103 80 184zM924 8v-8h-521v8q106 28 141 80q34 50 34 191v1079h-226q-51 0 -92 -38t-103 -118q-20 -26 -73 -94h-8l41 305h1093l41 -305h-8
q-123 160 -169 206q-44 44 -99 44h-225v-1079q0 -139 33 -191q35 -52 141 -80z" />
    <glyph glyph-name="tcommaaccent" unicode="&#x163;" horiz-adv-x="694" 
d="M289 -268q-27 38 -27 78q0 42 30 69t72 27q50 0 75.5 -37.5t25.5 -90.5q-2 -71 -74 -157.5t-149 -140.5l-6 4q80 103 79 184q0 24 -26 64zM436 -16q-231 0 -231 329v654h-164v8l84 47q75 43 128.5 107.5t108.5 160.5h9v-246h282v-73h-282v-690q0 -190 172 -191
q79 0 166 35l8 -10q-143 -131 -281 -131z" />
    <glyph glyph-name="Tcaron" unicode="&#x164;" horiz-adv-x="1327" 
d="M662 1651l221 131h16l-184 -250h-109l-180 250h16zM924 8v-8h-521v8q106 28 141 80q34 50 34 191v1079h-226q-51 0 -92 -38t-103 -118q-20 -26 -73 -94h-8l41 305h1093l41 -305h-8q-123 160 -169 206q-44 44 -99 44h-225v-1079q0 -139 33 -191q35 -52 141 -80z" />
    <glyph glyph-name="tcaron" unicode="&#x165;" horiz-adv-x="694" 
d="M473 1457q0 42 29 69.5t72 27.5q44 0 73 -33.5t29 -78.5q0 -82 -67 -166t-154 -148l-6 5q80 103 79 184q0 28 -28 63q-29 36 -27 77zM436 -16q-231 0 -231 329v654h-164v8l84 47q75 43 128.5 107.5t108.5 160.5h9v-246h282v-73h-282v-690q0 -190 172 -191q79 0 166 35
l8 -10q-143 -131 -281 -131z" />
    <glyph glyph-name="Tbar" unicode="&#x166;" horiz-adv-x="1327" 
d="M924 8v-8h-521v8q106 28 141 80q34 50 34 191v417h-230v60h230v602h-234q-53 0 -88 -38q-37 -39 -90 -107q-60 -77 -82 -105h-8l41 305h1093l41 -305h-8q-141 185 -178 218q-35 32 -82 32h-233v-602h227v-60h-227v-417q0 -139 33 -191q35 -52 141 -80z" />
    <glyph glyph-name="tbar" unicode="&#x167;" horiz-adv-x="700" 
d="M47 565v70h158v332h-185v8q136 61 199 120.5t143 194.5h9v-246h282v-69h-282v-340h278v-70h-278v-284q0 -190 172 -191q79 0 166 35l8 -10q-143 -131 -281 -131q-121 0 -176 80.5t-55 207.5v293h-158z" />
    <glyph glyph-name="Utilde" unicode="&#x168;" horiz-adv-x="1579" 
d="M891 1634q-47 0 -138 30t-128 30q-36 0 -69 -23t-46 -57l-16 4q17 48 33.5 71.5t54.5 53.5q47 37 102 37q53 0 143 -27t125 -27q88 0 117 74l16 -4q-57 -162 -194 -162zM1266 387v600q0 228 -31 306q-31 79 -131 112v8h399v-8q-72 -23 -103.5 -62t-44.5 -116
q-12 -73 -14 -240v-606q0 -88 -31 -159t-83 -117.5t-122.5 -78t-146 -45t-157.5 -12.5q-246 0 -399 111t-152 301v764q0 61 -6 99t-24 71t-52.5 54t-91.5 36v8h520v-8q-57 -15 -91.5 -36t-52.5 -54t-24 -71t-6 -99v-793q0 -136 105 -222q104 -85 300 -85q86 0 161.5 19
t139 58t101 107t37.5 158z" />
    <glyph glyph-name="utilde" unicode="&#x169;" horiz-adv-x="1204" 
d="M702 1266q-46 0 -138 30q-90 29 -126 29h-2q-37 0 -69 -22.5t-45 -57.5l-17 4q17 47 34 71.5t55 53.5q47 35 102 37q54 0 143 -27q89 -26 122 -26q92 0 120 74l16 -5q-59 -161 -195 -161zM1008 1069h8v-707q0 -173 28 -220q28 -48 146 -76v-9q-164 -17 -324 -82h-8v162
q-190 -162 -352 -162q-299 0 -299 334v375q0 122 -13 173t-46 76q-30 23 -115 46v8q168 12 327 82h9v-760q0 -110 65.5 -163.5t179.5 -53.5q116 0 240 72v567q0 133 -30 175q-30 41 -144 73v8q167 12 328 82z" />
    <glyph glyph-name="Umacron" unicode="&#x16a;" horiz-adv-x="1579" 
d="M1075 1716v-82h-573v82h573zM1266 387v600q0 228 -31 306q-31 79 -131 112v8h399v-8q-72 -23 -103.5 -62t-44.5 -116q-12 -73 -14 -240v-606q0 -88 -31 -159t-83 -117.5t-122.5 -78t-146 -45t-157.5 -12.5q-246 0 -399 111t-152 301v764q0 61 -6 99t-24 71t-52.5 54
t-91.5 36v8h520v-8q-57 -15 -91.5 -36t-52.5 -54t-24 -71t-6 -99v-793q0 -136 105 -222q104 -85 300 -85q86 0 161.5 19t139 58t101 107t37.5 158z" />
    <glyph glyph-name="umacron" unicode="&#x16b;" horiz-adv-x="1204" 
d="M889 1348v-82h-574v82h574zM1008 1069h8v-707q0 -173 28 -220q28 -48 146 -76v-9q-164 -17 -324 -82h-8v162q-190 -162 -352 -162q-299 0 -299 334v375q0 122 -13 173t-46 76q-30 23 -115 46v8q168 12 327 82h9v-760q0 -110 65.5 -163.5t179.5 -53.5q116 0 240 72v567
q0 133 -30 175q-30 41 -144 73v8q167 12 328 82z" />
    <glyph glyph-name="Ubreve" unicode="&#x16c;" horiz-adv-x="1579" 
d="M792 1649q71 0 135.5 36t92.5 97h8q-18 -95 -78 -166q-60 -70 -162 -70q-97 0 -157.5 67t-81.5 169h8q32 -63 97 -98t138 -35zM1266 387v600q0 228 -31 306q-31 79 -131 112v8h399v-8q-72 -23 -103.5 -62t-44.5 -116q-12 -73 -14 -240v-606q0 -88 -31 -159t-83 -117.5
t-122.5 -78t-146 -45t-157.5 -12.5q-246 0 -399 111t-152 301v764q0 61 -6 99t-24 71t-52.5 54t-91.5 36v8h520v-8q-57 -15 -91.5 -36t-52.5 -54t-24 -71t-6 -99v-793q0 -136 105 -222q104 -85 300 -85q86 0 161.5 19t139 58t101 107t37.5 158z" />
    <glyph glyph-name="ubreve" unicode="&#x16d;" horiz-adv-x="1204" 
d="M602 1284q70 0 136.5 35t95.5 94h8q-19 -104 -80.5 -175t-159.5 -71t-158.5 71t-81.5 175h9q29 -59 95.5 -94t135.5 -35zM1008 1069h8v-707q0 -173 28 -220q28 -48 146 -76v-9q-164 -17 -324 -82h-8v162q-190 -162 -352 -162q-299 0 -299 334v375q0 122 -13 173t-46 76
q-30 23 -115 46v8q168 12 327 82h9v-760q0 -110 65.5 -163.5t179.5 -53.5q116 0 240 72v567q0 133 -30 175q-30 41 -144 73v8q167 12 328 82z" />
    <glyph glyph-name="Uring" unicode="&#x16e;" horiz-adv-x="1579" 
d="M948 1734q0 61 -39.5 103.5t-99.5 42.5q-59 0 -100 -42.5t-41 -102.5q0 -59 40 -102.5t98 -43.5q62 0 102 41.5t40 103.5zM1022 1735q0 -86 -63.5 -147.5t-149.5 -61.5q-87 0 -150 60.5t-63 147.5t62.5 148.5t149.5 61.5q86 0 150 -61.5t64 -147.5zM1266 387v600
q0 228 -31 306q-31 79 -131 112v8h399v-8q-72 -23 -103.5 -62t-44.5 -116q-12 -73 -14 -240v-606q0 -88 -31 -159t-83 -117.5t-122.5 -78t-146 -45t-157.5 -12.5q-246 0 -399 111t-152 301v764q0 61 -6 99t-24 71t-52.5 54t-91.5 36v8h520v-8q-57 -15 -91.5 -36t-52.5 -54
t-24 -71t-6 -99v-793q0 -136 105 -222q104 -85 300 -85q86 0 161.5 19t139 58t101 107t37.5 158z" />
    <glyph glyph-name="uring" unicode="&#x16f;" horiz-adv-x="1204" 
d="M602 1221q60 0 99.5 42t39.5 103t-39.5 103t-99.5 42q-59 0 -100 -42.5t-41 -102.5t41 -102.5t100 -42.5zM815 1366q0 -87 -63 -147.5t-150 -60.5q-88 0 -150 60t-63 148q-1 86 62.5 147t150.5 61q86 0 150 -60q65 -62 63 -148zM1008 1069h8v-707q0 -173 28 -220
q28 -48 146 -76v-9q-164 -17 -324 -82h-8v162q-190 -162 -352 -162q-299 0 -299 334v375q0 122 -13 173t-46 76q-30 23 -115 46v8q168 12 327 82h9v-760q0 -110 65.5 -163.5t179.5 -53.5q116 0 240 72v567q0 133 -30 175q-30 41 -144 73v8q167 12 328 82z" />
    <glyph glyph-name="Uhungarumlaut" unicode="&#x170;" horiz-adv-x="1579" 
d="M915 1782h156q-63 -133 -186 -250h-19q44 147 49 250zM672 1782h155q-63 -133 -186 -250h-18q44 147 49 250zM1266 387v600q0 228 -31 306q-31 79 -131 112v8h399v-8q-72 -23 -103.5 -62t-44.5 -116q-12 -73 -14 -240v-606q0 -88 -31 -159t-83 -117.5t-122.5 -78
t-146 -45t-157.5 -12.5q-246 0 -399 111t-152 301v764q0 61 -6 99t-24 71t-52.5 54t-91.5 36v8h520v-8q-57 -15 -91.5 -36t-52.5 -54t-24 -71t-6 -99v-793q0 -136 105 -222q104 -85 300 -85q86 0 161.5 19t139 58t101 107t37.5 158z" />
    <glyph glyph-name="uhungarumlaut" unicode="&#x171;" horiz-adv-x="1204" 
d="M670 1413h155q-63 -133 -186 -250h-18q44 147 49 250zM426 1413h156q-63 -133 -187 -250h-18q44 147 49 250zM1008 1069h8v-707q0 -173 28 -220q28 -48 146 -76v-9q-164 -17 -324 -82h-8v162q-190 -162 -352 -162q-299 0 -299 334v375q0 122 -13 173t-46 76
q-30 23 -115 46v8q168 12 327 82h9v-760q0 -110 65.5 -163.5t179.5 -53.5q116 0 240 72v567q0 133 -30 175q-30 41 -144 73v8q167 12 328 82z" />
    <glyph glyph-name="Uogonek" unicode="&#x172;" horiz-adv-x="1579" 
d="M950 -350v-8q-55 -70 -135 -70q-68 0 -115 34.5t-47 100.5q0 115 244 268q-45 -6 -98 -6q-244 0 -397 111t-152 301v764q0 61 -6 99t-24 71t-52.5 54t-91.5 36v8h520v-8q-57 -15 -91.5 -36t-52.5 -54t-24 -71t-6 -99v-793q0 -136 105 -222q104 -85 300 -85q86 0 161.5 19
t139 58t101 107t37.5 158v600q0 228 -31 306q-31 79 -131 112v8h399v-8q-72 -23 -103.5 -62t-44.5 -116q-12 -73 -14 -240v-606q-1 -89 -33.5 -161t-90 -120t-129.5 -78.5t-158 -44.5q-133 -145 -133 -249q-1 -36 25 -62q28 -26 70 -25q26 0 58 9z" />
    <glyph glyph-name="uogonek" unicode="&#x173;" horiz-adv-x="1204" 
d="M1190 -350v-8q-55 -70 -136 -70q-74 0 -117 37t-44 109q0 39 31.5 91.5t78 99.5t93 85.5t82.5 60.5q-145 -13 -312 -80h-8v162q-190 -162 -352 -162q-299 0 -299 334v375q0 122 -13 173t-46 76q-30 23 -115 46v8q168 12 327 82h9v-760q0 -110 65.5 -163.5t179.5 -53.5
q116 0 240 72v567q0 134 -31 175q-31 42 -143 73v8q167 12 328 82h8v-707q0 -173 28 -220q28 -48 146 -76v-9q-48 -52 -101 -154.5t-53 -160.5q0 -52 26 -76q28 -26 70 -25q26 0 58 9z" />
    <glyph glyph-name="Wcircumflex" unicode="&#x174;" horiz-adv-x="2027" 
d="M1059 1782l184 -250h-16l-221 131l-220 -131h-16l180 250h109zM1438 160l219 710q90 292 90 371q0 75 -29.5 108t-105.5 56v8h420v-8q-70 -29 -106 -76.5t-74 -134.5q-41 -96 -117 -332l-289 -876h-117l-317 1118q-109 -350 -355 -1118h-127l-243 874q-106 390 -179 476
q-37 43 -104 69v8h488v-8q-68 -20 -95 -47t-27 -92q0 -66 89 -404l188 -715l221 723q82 262 82 352q0 84 -31.5 121t-115.5 62v8h461v-8q-70 -21 -97 -48t-27 -93q2 -108 298 -1104z" />
    <glyph glyph-name="wcircumflex" unicode="&#x175;" horiz-adv-x="1800" 
d="M948 1413l189 -250h-17l-221 142l-219 -142h-16l184 250h100zM8 1036v8h457v-8q-65 -17 -92 -43.5t-27 -88.5q0 -61 68 -253l188 -534l193 551q26 70 39 118q-53 129 -90 176q-38 48 -101 74v8h457v-8q-65 -18 -91.5 -44t-27.5 -88q0 -61 68 -253l188 -534l193 551
q63 180 63 238q0 60 -33.5 86.5t-101.5 43.5v8h422v-8q-94 -31 -148 -99q-53 -70 -137 -294l-248 -657h-119l-254 694l-262 -694h-118l-240 657q-84 230 -125 293q-45 69 -121 100z" />
    <glyph glyph-name="Ycircumflex" unicode="&#x176;" horiz-adv-x="1292" 
d="M705 1782l184 -250h-17l-221 131l-219 -131h-16l180 250h109zM739 623v-344q0 -128 35 -187q34 -58 139 -84v-8h-520v8q105 27 139 84q35 58 35 187v339l-207 375q-134 242 -202 318q-70 78 -146 94v8h475v-8q-52 -14 -75 -31q-25 -18 -23 -53q0 -75 137 -322l179 -317
l172 330q119 227 118 295q-1 31 -20 52t-39.5 29t-54.5 17v8h399v-8q-71 -10 -142 -93q-69 -81 -190 -306z" />
    <glyph glyph-name="ycircumflex" unicode="&#x177;" horiz-adv-x="1134" 
d="M618 1413l185 -250h-17q-141 82 -221 131l-219 -131h-16l180 250h108zM16 1036v8h461v-10q-63 -14 -92 -38.5t-29 -82.5q0 -59 70 -266l33 -100q6 -19 31.5 -95.5l44.5 -133.5q48 -145 75 -230l166 496q82 221 82 298q0 73 -28 104t-101 48v10h399v-8q-83 -37 -138 -118
q-54 -79 -138 -314l-14 -45q-143 -390 -254 -704q-124 -345 -314 -347q-52 0 -97.5 34t-45.5 84q0 40 29 75t68 35q68 0 71 -58q45 -10 45 -63q0 -11 -2 -21q112 32 209 314l33 92h-97l-213 604q-95 271 -133 337t-121 95z" />
    <glyph glyph-name="Ydieresis" unicode="&#x178;" horiz-adv-x="1292" 
d="M618 1700q0 -41 -32 -73t-73 -32q-42 0 -71.5 31t-29.5 73q0 43 29 73t72 30q42 0 73.5 -30t31.5 -72zM913 1700q-2 -42 -31.5 -73.5t-71.5 -31.5q-41 0 -73 32t-30 73q0 42 30.5 72t72.5 30t72.5 -30t30.5 -72zM739 623v-344q0 -128 35 -187q34 -58 139 -84v-8h-520v8
q105 27 139 84q35 58 35 187v339l-207 375q-134 242 -202 318q-70 78 -146 94v8h475v-8q-52 -14 -75 -31q-25 -18 -23 -53q0 -75 137 -322l179 -317l172 330q119 227 118 295q-1 31 -20 52t-39.5 29t-54.5 17v8h399v-8q-71 -10 -142 -93q-69 -81 -190 -306z" />
    <glyph glyph-name="Zacute" unicode="&#x179;" horiz-adv-x="1159" 
d="M557 1782h191q-117 -159 -328 -250h-10q107 116 147 250zM1067 0h-1016v8l823 1350h-499q-70 0 -118 -42q-46 -40 -169 -192h-8l41 289h966v-8l-815 -1350h537q70 2 124 53q56 53 165 214h8z" />
    <glyph glyph-name="zacute" unicode="&#x17a;" horiz-adv-x="974" 
d="M465 1413h190q-117 -159 -327 -250h-11q108 117 148 250zM893 0h-832v8l627 979h-338q-55 0 -93 -38q-16 -16 -23 -22q-11 -10 -27 -31l-45 -55q-20 -25 -64 -79h-8l41 282h762v-8l-619 -981h381q59 0 102 37q43 39 169 191h8z" />
    <glyph glyph-name="Zdotaccent" unicode="&#x17b;" horiz-adv-x="1159" 
d="M690 1686q0 -46 -33 -78.5t-79 -32.5t-77.5 32t-31.5 78q0 47 32.5 79t78.5 32t78 -32t32 -78zM1067 0h-1016v8l823 1350h-499q-70 0 -118 -42q-46 -40 -169 -192h-8l41 289h966v-8l-815 -1350h537q70 2 124 53q56 53 165 214h8z" />
    <glyph glyph-name="zdotaccent" unicode="&#x17c;" horiz-adv-x="974" 
d="M598 1317q0 -45 -33 -78t-78 -33q-46 0 -77 32t-33 78q0 46 32.5 79t78.5 33q44 0 77 -33.5t33 -77.5zM893 0h-832v8l627 979h-338q-55 0 -93 -38q-16 -16 -23 -22q-11 -10 -27 -31l-45 -55q-20 -25 -64 -79h-8l41 282h762v-8l-619 -981h381q59 0 102 37q43 39 169 191h8
z" />
    <glyph glyph-name="Zcaron" unicode="&#x17d;" horiz-adv-x="1159" 
d="M578 1651l221 131h16l-184 -250h-109l-180 250h16zM1067 0h-1016v8l823 1350h-499q-70 0 -118 -42q-46 -40 -169 -192h-8l41 289h966v-8l-815 -1350h537q70 2 124 53q56 53 165 214h8z" />
    <glyph glyph-name="zcaron" unicode="&#x17e;" horiz-adv-x="974" 
d="M485 1282l222 131h16l-184 -250h-109l-180 250h16zM893 0h-832v8l627 979h-338q-55 0 -93 -38q-16 -16 -23 -22q-11 -10 -27 -31l-45 -55q-20 -25 -64 -79h-8l41 282h762v-8l-619 -981h381q59 0 102 37q43 39 169 191h8z" />
    <glyph glyph-name="longs" unicode="&#x17f;" horiz-adv-x="638" 
d="M397 1184v-916q0 -128 33 -181q33 -52 137 -79v-8h-487v8q90 27 120 80t29 180v887q-2 197 99 293q100 96 258 96q81 0 140 -41q58 -40 58 -94q0 -49 -28 -81t-76 -32q-49 0 -74.5 27.5t-25.5 76.5q0 54 65 101q-43 8 -57 8q-88 -1 -140 -71t-51 -254z" />
    <glyph glyph-name="uni0180" unicode="&#x180;" horiz-adv-x="1253" 
d="M981 523q0 223 -108 338q-108 116 -271 116q-128 0 -256 -82v-817q112 -58 209 -60q178 0 302 142t124 363zM338 1544h8v-280h328v-70h-328v-270q55 53 146 98q96 47 213 47q190 0 324 -131t134 -360q0 -200 -107.5 -347.5t-299.5 -216.5q-110 -39 -203 -39
q-91 -1 -205 17q-115 19 -170 37v1165h-139v70h137q-6 91 -41.5 124.5t-130.5 55.5v8q188 18 334 92z" />
    <glyph glyph-name="uni0181" unicode="&#x181;" horiz-adv-x="1404" 
d="M383 279v874q0 45 -6.5 79.5t-22.5 66t-47.5 48.5t-77.5 17q-72 0 -102 -14v-9q57 -33 57 -108q0 -43 -33 -69t-77 -26q-47 0 -76 34.5t-29 82.5q0 158 324 158h467q473 0 473 -332q0 -133 -85 -217q-86 -85 -210 -119v-8q162 -17 274 -103q112 -87 111 -243
q1 -199 -149 -295t-386 -96h-579v8q105 29 139 82q35 55 35 189zM555 1358v-604h176q150 0 239 84.5t89 232.5q0 77 -25.5 134t-72.5 89.5t-107 48t-135 15.5h-164zM555 698v-643h227q160 0 257 82.5t97 239.5q0 82 -31 145t-85 100.5t-121.5 56.5t-146.5 19h-197z" />
    <glyph glyph-name="uni0182" unicode="&#x182;" horiz-adv-x="1226" 
d="M596 713h-178v-658h200q160 0 255.5 86t95.5 245q-1 162 -103.5 243.5t-269.5 83.5zM418 768h198q537 0 537 -370q0 -107 -46.5 -187t-125 -124.5t-169 -65.5t-191.5 -21h-549v8q104 27 139 83t35 192v852q0 134 -35 189q-34 54 -139 81v8h972v-289h-8q-87 160 -126 196
q-41 38 -142 38h-350v-590z" />
    <glyph glyph-name="uni0183" unicode="&#x183;" horiz-adv-x="1253" 
d="M981 503q-1 221 -107 326q-107 107 -252 107q-146 0 -276 -82v-776q112 -58 209 -60q180 0 303 132t123 353zM696 1358h-350v-475q55 53 146 98q96 47 213 47q192 0 325 -122q131 -121 133 -349q0 -199 -107 -340t-301 -206q-108 -36 -202 -36q-91 -1 -205 17
q-115 19 -170 37v1106q0 118 -35.5 179.5t-140.5 90.5v8h971v-289h-8q-87 160 -126 196q-41 38 -143 38z" />
    <glyph glyph-name="uni0184" unicode="&#x184;" horiz-adv-x="1226" 
d="M418 768h198q537 0 537 -370q0 -107 -46.5 -187t-125 -124.5t-169 -65.5t-191.5 -21h-549v8q104 27 139 83t35 192v702l-203 199v37l346 221h29v-674zM596 713h-178v-658h200q160 0 255.5 86t95.5 245q-1 162 -103.5 243.5t-269.5 83.5z" />
    <glyph glyph-name="uni0185" unicode="&#x185;" horiz-adv-x="1253" 
d="M981 523q0 223 -108 338q-108 116 -271 116q-128 0 -256 -82v-817q112 -58 209 -60q178 0 302 142t124 363zM322 1493h24v-569q55 53 146 98q96 47 213 47q190 0 324 -131t134 -360q0 -200 -107.5 -347.5t-299.5 -216.5q-110 -39 -203 -39q-91 -1 -205 17
q-115 19 -170 37v1009l-205 197v37z" />
    <glyph glyph-name="uni0186" unicode="&#x186;" horiz-adv-x="1421" 
d="M555 1442q315 0 543 -207q227 -207 229 -528q0 -237 -127.5 -418.5t-352.5 -265.5q-238 -90 -525 -28q-119 25 -187 56l-12 281h8q140 -317 430 -318q244 0 406 198q162 199 161 495q0 297 -160 493q-160 195 -403 197q-288 0 -436 -322h-8l14 283q78 38 200.5 61
t219.5 23z" />
    <glyph glyph-name="uni0187" unicode="&#x187;" horiz-adv-x="1421" 
d="M1229 1380q9 314 205 314q96 0 141 -33t45 -74q0 -83 -75 -86q-34 0 -90 44t-81 44q-94 0 -94 -246v-256h-8q-139 309 -422 310q-240 0 -396 -198q-155 -199 -157 -495q0 -296 165 -493t412 -197q295 0 445 330h8l-27 -289q-69 -36 -190 -61q-129 -26 -244 -25
q-329 0 -549 200q-219 199 -219 513q0 220 117 399q110 167 282 264t368 97q181 0 364 -62z" />
    <glyph glyph-name="uni0188" unicode="&#x188;" horiz-adv-x="944" 
d="M621 1020q-76 0 -136.5 -27t-99.5 -71.5t-65 -106t-37 -125.5t-11 -135q0 -215 111 -334t271 -119t284 105l14 -10q-47 -74 -151 -148t-246 -74q-193 1 -325 141q-132 139 -132 385t148 407q149 162 366 161q75 0 138 -20q4 54 14 95t31 79.5t59 59.5t93 21q90 0 133 -32
q42 -33 42 -74q0 -38 -18.5 -62t-55.5 -24q-34 0 -87 44t-78 44q-72 0 -84 -170q100 -49 100 -127q0 -49 -33.5 -85t-82.5 -36q-48 0 -81 30q-61 55 -14 141q18 35 45 51q-48 16 -112 16z" />
    <glyph glyph-name="uni0189" unicode="&#x189;" horiz-adv-x="1550" 
d="M422 696v-641h272q279 2 438 187q158 187 158 472q0 286 -164 465t-407 179h-297v-602h307v-60h-307zM688 0h-612v8q105 28 140 80q34 50 34 191v417h-156v60h156v379q0 65 -5 102.5t-22.5 73t-52.5 57t-94 37.5v8h633q165 0 305.5 -44.5t246 -128.5t166.5 -215.5
t62 -295.5q0 -176 -61 -316t-169 -229.5t-253.5 -136.5t-317.5 -47z" />
    <glyph glyph-name="uni018A" unicode="&#x18a;" horiz-adv-x="1693" 
d="M555 1358v-1303h272q279 2 438 187q159 186 159 472t-164 465t-408 179h-297zM383 279v874q0 45 -6.5 79.5t-22.5 66t-47.5 48.5t-77.5 17q-72 0 -102 -14v-9q57 -33 57 -108q0 -43 -33 -69t-77 -26q-47 0 -76 34.5t-29 82.5q0 158 324 158h549q131 0 247.5 -27.5
t214 -84t168.5 -137t110.5 -192t39.5 -243.5q0 -176 -61 -316t-169 -229.5t-253.5 -136.5t-317.5 -47h-612v8q106 28 140 80t34 191z" />
    <glyph glyph-name="uni018B" unicode="&#x18b;" horiz-adv-x="1226" 
d="M600 768h209v590h-350q-102 0 -143 -38q-39 -36 -126 -196h-8v289h973v-8q-105 -27 -139 -81q-35 -55 -35 -189v-852q0 -135 35 -191q34 -55 139 -84v-8h-559q-522 0 -522 381q0 88 30.5 156.5t80.5 111t120 70t142 38.5t153 11zM809 55v658h-186q-181 0 -273 -92
q-92 -94 -92 -239t89 -236q88 -89 261 -91h201z" />
    <glyph glyph-name="uni018C" unicode="&#x18c;" horiz-adv-x="1255" 
d="M903 1004v354h-350q-101 0 -142 -38q-39 -36 -126 -196h-9v289h971v-8q-107 -27 -141 -82q-35 -56 -35 -188v-822q0 -53 3 -84t12 -59.5t29 -45.5t50.5 -31t79.5 -27v-9q-178 -17 -334 -82h-8v177q-147 -176 -345 -176t-331 126q-133 127 -133 347q0 279 174 429t426 150
q82 0 209 -24zM655 979q-95 0 -171 -39t-123 -104.5t-72 -148t-25 -173.5q0 -202 110 -306t263 -104t266 72v733q-116 70 -248 70z" />
    <glyph glyph-name="uni018D" unicode="&#x18d;" horiz-adv-x="1243" 
d="M289 549q0 -131 78 -237q77 -105 225 -226q174 50 267 173.5t93 304.5q0 192 -90 327t-236 135t-242 -132q-96 -133 -95 -345zM98 526q0 250 158 396q157 145 370 147q212 1 366 -135t153 -355q0 -219 -162 -353q-163 -135 -365 -160l209 -168q99 -78 99 -172
q0 -46 -23.5 -83t-59 -59.5t-82.5 -37.5t-89.5 -21t-83.5 -6q-147 0 -264 48t-117 128q-1 35 23 59q23 23 59 25q60 0 156 -101q97 -100 219 -100q68 0 113.5 35t45.5 101q0 63 -110 140q-109 76 -240 162q-228 147 -302 252q-73 103 -73 258z" />
    <glyph glyph-name="uni018E" unicode="&#x18e;" 
d="M915 1135v-856q0 -139 34 -191q34 -51 141 -80v-8h-981l-41 322h8q129 -180 176 -224q48 -44 145 -43h346v643h-276q-75 0 -113.5 -28t-85.5 -101h-8v316h8q32 -51 52.5 -74.5t57 -40t89.5 -16.5h276v604h-288q-102 0 -149 -41q-44 -39 -130 -193h-8v289h922v-8
q-104 -27 -140 -81q-36 -55 -35 -189z" />
    <glyph glyph-name="uni018F" unicode="&#x18f;" horiz-adv-x="1488" 
d="M1223 659l-2 27l-942 -29q0 -297 136 -466q137 -169 324 -168q132 0 250 83q123 88 178.5 235t55.5 318zM117 668q0 38 4 63h1098q-20 286 -197 435q-178 150 -434 151q-256 0 -488 -156l-12 10q112 113 270 192q157 79 337 79q188 0 339.5 -80.5t251.5 -237.5
q104 -164 104 -364q0 -166 -44.5 -305.5t-145 -254t-251.5 -180.5q-119 -51 -231 -51q-224 0 -407 171q-99 92 -146.5 234t-47.5 294z" />
    <glyph glyph-name="uni0190" unicode="&#x190;" horiz-adv-x="1222" 
d="M659 1397q-141 0 -224 -80.5t-83 -220.5q0 -147 93 -233.5t241 -86.5h88v-57h-125q-176 0 -263 -88q-87 -89 -87 -230q0 -184 112.5 -285.5t298.5 -101.5q185 0 287 81t123 177q-45 -45 -98 -45q-54 0 -89.5 34t-35.5 88q0 58 37 92t96 34q66 0 106 -50t40 -118
q0 -130 -128 -234q-127 -103 -378 -103q-81 0 -158.5 13t-152.5 44.5t-130.5 77.5t-90 118t-34.5 160q0 163 114 265t280 112v12q-334 85 -334 324q0 77 31.5 138t81.5 99.5t117.5 63.5t134.5 35t137 10q104 0 229 -21t201 -59v-270h-9q-135 305 -428 305z" />
    <glyph glyph-name="uni0191" unicode="&#x191;" horiz-adv-x="1132" 
d="M-96 -397q0 34 20 57.5t54 24.5q34 -2 88 -53q55 -52 97 -52q43 0 62 54t21 206v1295q0 134 -35 189q-34 54 -139 81v8h962v-289h-8q-87 160 -126 196q-41 38 -142 38h-340v-615h327q76 0 113.5 29t85.5 105h8v-322h-8q-34 53 -53 76t-55.5 40t-90.5 17h-327l-2 -727
q0 -215 -95 -331q-94 -115 -259 -115q-21 0 -46 4.5t-51 14t-43.5 27.5t-17.5 42z" />
    <glyph glyph-name="florin" unicode="&#x192;" 
d="M911 659h-290v-708q0 -442 -355 -443q-42 0 -85 14t-77 46.5t-34 75.5q0 49 27 80.5t75 31.5q42 0 73 -26t29 -68q0 -66 -67 -111q35 -8 67 -8q40 2 71.5 17.5t50.5 43t31.5 57t18 69.5t7.5 70.5t2 68.5v790h-242q9 52 10 72h232v322q0 197 99 293t255 96q81 0 139 -41
q58 -40 58 -95q0 -48 -28 -80t-75 -32q-42 0 -73 26t-29 68q0 66 67 111q-35 8 -67 8q-40 -2 -71 -17.5t-50 -43t-31.5 -57t-18 -69.5t-7.5 -70.5t-2 -68.5v-350h290v-72z" />
    <glyph glyph-name="uni0193" unicode="&#x193;" horiz-adv-x="1519" 
d="M1260 1382q8 312 202 312q96 0 142 -33q45 -33 45 -74q-3 -83 -75 -86q-34 0 -90 44t-81 44q-89 0 -94 -233v-266h-9q-164 305 -444 305q-229 0 -394 -193t-165 -494q0 -300 168 -488t414 -189q70 0 160.5 15.5t144.5 41.5v340q0 128 -35 186q-34 57 -139 84v9h473v-9
q-76 -28 -105 -80q-28 -50 -28 -190v-377q-267 -82 -506 -82q-317 0 -532 206q-214 205 -214 525q0 239 134.5 419.5t364.5 270.5q135 52 305 52q168 0 358 -60z" />
    <glyph glyph-name="uni0194" unicode="&#x194;" horiz-adv-x="1394" 
d="M748 227l245 643q117 306 117 404t-129 131v8h408v-8q-83 -34 -137 -124q-49 -83 -185 -423l-285 -708l95 -213q41 -93 41 -191q0 -94 -52.5 -160.5t-144.5 -66.5q-79 0 -127.5 54.5t-48.5 134.5q2 72 25 131q2 5 81 204l-327 815q-131 330 -184 421q-54 93 -140 126v8
h479v-8q-56 -15 -86.5 -40.5t-30.5 -76.5q0 -80 136 -422zM649 -158l-14 -39q-14 -36 -14 -88q0 -46 18 -81.5t59 -35.5q42 0 61 34.5t19 79.5q0 48 -14 81l-70 168q-24 -61 -45 -119z" />
    <glyph glyph-name="uni0195" unicode="&#x195;" horiz-adv-x="1896" 
d="M901 285v434q0 242 -241 243q-120 0 -271 -88v-616q0 -127 29 -174t121 -76v-8h-467v8q92 29 121 76q29 48 28 174v928q0 135 -30 180t-144 78v8q139 7 334 92h8v-641q202 166 369 166q137 0 221 -85q84 -86 84 -269v-426q0 -131 59 -188.5t191 -59.5q246 0 246 221v504
q0 144 -29 193q-29 48 -121 77v8h311v-759q0 -70 -22.5 -124.5t-60 -88.5t-90.5 -56t-109.5 -30.5t-122.5 -8.5q-414 1 -414 308z" />
    <glyph glyph-name="uni0196" unicode="&#x196;" horiz-adv-x="577" 
d="M381 1544h8v-1323q2 -95 19 -131q18 -37 59 -37q26 0 47 14t34.5 37t21.5 47t12 48h20q-18 -227 -199 -228q-182 0 -182 254v973q0 133 -31 176t-143 70v8q188 18 334 92z" />
    <glyph glyph-name="uni0197" unicode="&#x197;" horiz-adv-x="675" 
d="M598 8v-8h-520v8q58 16 93 36t52.5 53t23 70t5.5 101v428h-211v60h211v389q0 64 -5.5 101t-23 70t-52.5 53t-93 36v8h520v-8q-58 -16 -93 -36t-52.5 -53t-23 -70t-5.5 -101v-389h213v-60h-213v-428q0 -64 5.5 -101t23 -70t52.5 -53t93 -36z" />
    <glyph glyph-name="uni0198" unicode="&#x198;" horiz-adv-x="1456" 
d="M246 268v748q0 83 19.5 156.5t59 135.5t106 98t153.5 36q45 0 91.5 -14t83.5 -48t38 -80q0 -29 -24 -51.5t-53 -22.5q-30 0 -57 25t-41 56q-15 33 -42 56t-60 23q-58 0 -80 -72q-23 -75 -22 -282v-438l440 475q160 166 160 240q0 59 -121 96v8h514v-8q-116 -34 -197 -94
t-256 -242l-186 -190l369 -523q145 -205 205 -262q61 -58 155 -86v-8h-538v8q61 12 90 26q28 14 26 50q0 67 -145 272l-283 400l-233 -238v-250q0 -64 5.5 -101t23 -70t52.5 -53t93 -36v-8h-520v8q58 16 93 36t52.5 53t23 70t5.5 101z" />
    <glyph glyph-name="uni0199" unicode="&#x199;" horiz-adv-x="1191" 
d="M221 252v848q-1 192 105 318t262 126q75 0 151.5 -41t75.5 -110q-2 -31 -25 -53t-54 -22q-32 0 -62 25t-48 57q-40 81 -112 81q-70 0 -98 -81t-27 -294v-854q0 -124 29 -170q29 -45 121 -74v-8h-467v8q92 29 121 74q28 44 28 170zM788 926q0 31 -26.5 54.5t-56 34
t-60.5 15.5v14h518v-8q-80 -18 -159 -68q-80 -51 -218 -177l-192 -177q159 -191 328 -383q78 -92 148 -146t163 -77v-8h-179q-66 0 -132 9q-23 3 -62 30q-25 19 -64 70q-10 13 -87 108l-265 324l203 198q141 131 141 187z" />
    <glyph glyph-name="uni019A" unicode="&#x19a;" horiz-adv-x="577" 
d="M381 1544h8v-788h160v-60h-160v-444q0 -124 29 -170q29 -45 121 -74v-8h-467v8q92 29 121 74q29 47 28 170v444h-174v60h174v442q-1 133 -31 176q-29 43 -143 70v8q188 18 334 92z" />
    <glyph glyph-name="uni019B" unicode="&#x19b;" horiz-adv-x="999" 
d="M1040 72h31v-13q-83 -79 -155 -79q-71 0 -104 55q-52 85 -99 272q-57 228 -80 311l-66 240l-319 -692q-48 -108 -64 -166h-196q177 358 508 1018q-10 34 -39 123l-320 -211v82q107 69 295 194q-31 76 -76 152q-74 -23 -125 -23q-53 0 -81 30t-27 72q0 53 41.5 80t97.5 27
q70 0 103 -44t72 -144q38 -92 46 -117l275 182v-82l-252 -165q60 -168 166 -479q118 -349 159 -447q37 -90 81 -133t128 -43z" />
    <glyph glyph-name="uni019C" unicode="&#x19c;" horiz-adv-x="1867" 
d="M999 1155v-829q1 -246 225 -246q112 0 263 88v991q0 126 -29 172q-29 45 -121 74v8h461v-8q-92 -29 -121 -74q-29 -47 -28 -172v-846q0 -133 30 -175q31 -40 144 -72v-9q-156 -13 -326 -82h-8v162q-205 -162 -359 -162q-195 0 -262 172q-217 -172 -363 -172
q-306 0 -306 363v817q0 127 -29 174t-121 76v8h461v-8q-92 -29 -121 -76t-29 -174v-829q0 -246 222 -246q108 0 278 92q-23 75 -22 166v817q0 127 -29 174t-121 76v8h461v-8q-92 -29 -121 -76t-29 -174z" />
    <glyph glyph-name="uni019D" unicode="&#x19d;" horiz-adv-x="1611" 
d="M313 1219v-1317q0 -209 -54 -299t-213 -90q-33 0 -68 9t-65 32.5t-30 57.5q0 38 20.5 61t58.5 24q33 0 92 -47t81 -47q100 0 101 262v1341q0 60 -52 118q-53 59 -151 81v8h346l960 -1151v725q0 165 -13 242t-44 114.5t-104 61.5v8h401v-8q-102 -33 -132 -107t-30 -311
v-1007h-80z" />
    <glyph glyph-name="uni019E" unicode="&#x19e;" horiz-adv-x="1224" 
d="M1059 -471h-162v1190q0 242 -241 243q-120 0 -271 -88v-622q0 -124 29 -170q29 -45 121 -74v-8h-461v8q92 29 121 74q29 47 28 170v479q0 133 -30 175q-31 41 -144 73v8q165 12 326 82h8v-166q200 166 377 166q131 0 215 -85q84 -86 84 -267v-1188z" />
    <glyph glyph-name="uni019F" unicode="&#x19f;" horiz-adv-x="1638" 
d="M818 1397q-216 -2 -366 -187q-149 -185 -163 -454h1057q-13 267 -163 454q-148 185 -365 187zM444 214q150 -200 374 -200t375 201q150 200 155 481h-1059q4 -282 155 -482zM1329 178q-221 -209 -510 -209t-510 209t-221 522q0 145 59 281.5t157.5 237.5t234 162
t280.5 61q194 0 364 -103t269 -274.5t98 -364.5q0 -313 -221 -522z" />
    <glyph glyph-name="Ohorn" unicode="&#x1a0;" horiz-adv-x="1638" 
d="M440 218q152 -204 379 -204t378 204q151 203 151 489q0 285 -151 487q-151 201 -378 203q-227 0 -379 -204q-152 -203 -152 -487q0 -283 152 -488zM1329 178q-221 -209 -510 -209t-510 209t-221 522q0 145 59 281.5t157.5 237.5t234 162t280.5 61q82 0 215 -18
q130 -17 209 -17q28 0 62.5 5.5t68 24t33.5 46.5q0 33 -46 57t-46 68q-1 44 27 72t70 28q51 0 86.5 -38t35.5 -89q0 -215 -305 -215q-69 0 -119 8v-4q200 -94 320 -273t120 -397q0 -313 -221 -522z" />
    <glyph glyph-name="ohorn" unicode="&#x1a1;" horiz-adv-x="1255" 
d="M435 97q79 -79 192 -79t191 79q146 147 147 427q0 65 -10.5 131.5t-36 134t-63 119.5t-97 84.5t-132.5 32.5q-156 0 -246 -146q-91 -145 -91 -356q0 -278 146 -427zM627 -25q-219 0 -374 161t-155 390t157 386t372 157q77 0 185 -17q105 -17 169 -18q135 0 135 76
q0 33 -46 57t-46 68t27 72.5t71 28.5q43 0 81 -34q40 -34 40 -94q0 -215 -262 -215q-73 0 -96 4q128 -72 199 -197t73 -274q1 -109 -40 -210.5t-111 -176.5t-169.5 -119.5t-209.5 -44.5z" />
    <glyph glyph-name="uni01A2" unicode="&#x1a2;" horiz-adv-x="1906" 
d="M811 1393q-231 2 -377 -191q-146 -192 -147 -498q-1 -305 155 -498q156 -190 398 -192q176 2 270 64v1268q-162 47 -299 47zM1651 1442h32v-1647q0 -61 5 -97.5t22.5 -69t51 -52t89.5 -35.5v-8h-510v8q103 28 138 77q33 49 32 177v1309q0 127 -25 181q-26 56 -89 56h-123
v-1278q-190 -67 -268 -79q-73 -11 -242 -13q-294 0 -484 205q-192 206 -192 513q0 308 200 531q200 222 507 222q84 0 258 -27q170 -26 226 -26q183 0 372 53z" />
    <glyph glyph-name="uni01A3" unicode="&#x1a3;" horiz-adv-x="1593" 
d="M924 483v471q-148 72 -304 72q-74 0 -132.5 -31.5t-95 -82t-60.5 -117t-33.5 -132t-9.5 -131.5q0 -64 9 -129.5t32 -136.5t57.5 -125.5t91.5 -89.5t129 -35q87 0 151.5 44t98.5 116t50 149t16 158zM1393 1069h26v-1270q0 -56 4 -90.5t17.5 -71t43.5 -60.5t79 -40v-8h-473
v8q101 27 132 79q32 54 31 183v1047q0 56 -19.5 83.5t-59.5 26.5h-97v-471q0 -249 -129 -380q-129 -130 -341 -130t-360 151q-149 151 -149 402q0 252 151 396q151 143 367 145q69 0 254 -43t220 -43q175 0 303 86z" />
    <glyph glyph-name="uni01A4" unicode="&#x1a4;" horiz-adv-x="1359" 
d="M383 279v874q0 45 -6.5 79.5t-22.5 66t-47.5 48.5t-77.5 17q-72 0 -102 -14v-9q57 -33 57 -108q0 -43 -33 -69t-77 -26q-47 0 -76 34.5t-29 82.5q0 158 324 158h530q465 0 465 -366q0 -146 -73 -241q-72 -94 -176 -131.5t-240 -37.5h-244v-358q0 -135 40 -188.5
t169 -82.5v-8h-555v8q106 28 140 80t34 191zM555 1358v-668h209q172 0 259 96t87 248q0 156 -82 240t-237 84h-236z" />
    <glyph glyph-name="uni01A5" unicode="&#x1a5;" horiz-adv-x="1267" 
d="M887 860q-111 119 -261 119q-151 0 -266 -82v-819q112 -58 209 -60q176 0 302 140t126 362q0 221 -110 340zM193 -219v1319q0 192 105 318t261 126q75 0 151.5 -41t75.5 -110q0 -31 -23.5 -53t-54.5 -22q-32 0 -63.5 25.5t-47.5 56.5q-41 81 -112 81q-69 0 -97 -81
q-28 -80 -28 -294v-180q47 50 146 97q96 46 213 46q193 0 325 -136q133 -137 134 -360q0 -200 -108.5 -346.5t-301.5 -214.5q-102 -37 -200 -37q-92 0 -208 17v-211q0 -118 31 -166t139 -78v-8h-487v8q92 29 121 74q29 46 29 170z" />
    <glyph glyph-name="uni01A6" unicode="&#x1a6;" horiz-adv-x="1333" 
d="M418 1112v-623h192q159 0 256 86.5t97 239.5q0 144 -84 220.5t-230 76.5h-231zM604 436h-186v-157q0 -139 34 -191t140 -80v-8h-520v8q105 28 140 80q34 50 34 191v856q0 65 -5 102.5t-22.5 73t-52.5 57t-94 37.5v8h520v-8q-104 -28 -138 -77t-36 -161h262
q465 0 465 -338q-2 -149 -103 -231q-100 -81 -268 -125l371 -555q90 -134 142 -171q54 -39 153 -58v-8h-125q-123 0 -169 10q-49 11 -86 45q-39 36 -97 131z" />
    <glyph glyph-name="uni01A7" unicode="&#x1a7;" horiz-adv-x="1032" 
d="M936 391h8v-340q-174 -82 -370 -82q-120 0 -221.5 44.5t-167 135.5t-66.5 213q0 120 70 212q72 93 170 154q106 66 199 120q243 143 243 314q0 103 -73 168t-177 65q-230 0 -363 -316h-8v281q197 82 354 82q156 0 281 -102t125 -263q0 -109 -67 -199t-172 -154l-198 -120
q-98 -59 -169 -141q-70 -82 -70 -191q0 -111 85.5 -184.5t197.5 -73.5q254 0 389 377z" />
    <glyph glyph-name="uni01A8" unicode="&#x1a8;" horiz-adv-x="870" 
d="M778 330h8v-271q-154 -84 -318 -84t-264 85t-100 203t58 191q58 74 138 114q72 36 162 76q195 87 195 206q0 77 -55 127.5t-133 50.5q-171 0 -287 -266h-10v248q144 59 275 59q135 0 232 -77t97 -208q0 -93 -53 -167t-140 -119q-65 -34 -161 -79q-192 -92 -193 -214
q1 -83 63 -135t146 -54q203 0 340 314z" />
    <glyph glyph-name="uni01A9" unicode="&#x1a9;" 
d="M207 117h534q113 0 169 42q57 43 173 214h9l-56 -373h-1013v8l612 680l-604 715v10h1026v-289h-8q-87 157 -139 197q-49 37 -171 37h-444l498 -584v-14z" />
    <glyph glyph-name="uni01AA" unicode="&#x1aa;" horiz-adv-x="925" 
d="M319 1355q0 53 -34.5 88.5t-87.5 35.5q-54 0 -91 -37t-36 -88q0 -52 36 -88.5t88 -36.5t88.5 36.5t36.5 89.5zM827 -399q0 -31 -30.5 -52.5t-65 -28.5t-65.5 -7q-159 -1 -254 115q-93 114 -95 331v1247q-50 -43 -129 -43q-77 0 -130.5 56.5t-53.5 134.5q0 85 58 137.5
t143 52.5q135 0 208 -94t72 -266v-1340q2 -152 21 -206q20 -54 56 -54q35 0 88 44q51 43 64 48q10 6 41 6q33 0 52.5 -23.5t19.5 -57.5z" />
    <glyph glyph-name="uni01AB" unicode="&#x1ab;" horiz-adv-x="694" 
d="M195 -397q-1 37 21 59q21 22 50 23q29 0 51 -13l17 -14q98 -72 119 -72q45 0 69 56q23 54 25 204v154q-64 -16 -111 -16q-231 0 -231 325v658h-164v8q122 64 183.5 125.5t137.5 189.5h9v-246h282v-73h-282v-690q0 -189 168 -191q83 0 163 33l-2 -162q0 -216 -93 -331
t-255 -115q-64 0 -110 25q-48 26 -47 63z" />
    <glyph glyph-name="uni01AC" unicode="&#x1ac;" horiz-adv-x="1327" 
d="M334 1413h876l41 -305h-8q-123 160 -169 206q-44 44 -99 44h-225v-1079q0 -139 33 -191q35 -52 141 -80v-8h-521v8q106 28 141 80q34 50 34 191v1079h-283q-97 0 -137 -25v-8q30 -17 49 -52t19 -70q0 -42 -33.5 -69.5t-76.5 -27.5q-47 0 -75.5 34.5t-28.5 82.5
q0 85 80 138q79 52 242 52z" />
    <glyph glyph-name="uni01AD" unicode="&#x1ad;" horiz-adv-x="694" 
d="M203 1047v53q0 192 105 318t261 126q46 0 97 -15.5t92 -52t41 -83.5q0 -31 -25 -53t-56 -22q-32 0 -63.5 25.5t-47.5 56.5q-41 81 -109 81q-70 0 -99 -81q-29 -84 -28 -294v-62h282v-73h-282v-690q0 -190 172 -191q79 0 166 35l8 -10q-143 -131 -281 -131
q-121 0 -176 80.5t-55 207.5v695h-164v8q85 31 162 72z" />
    <glyph glyph-name="uni01AE" unicode="&#x1ae;" horiz-adv-x="1327" 
d="M578 -39v1397h-226q-51 0 -92 -38t-103 -118q-20 -26 -73 -94h-8l41 305h1093l41 -305h-8q-123 160 -169 206q-44 44 -99 44h-225v-1520q0 -156 19 -207q20 -53 60 -53t95 53q57 54 99 54q32 0 49.5 -22t17.5 -55q0 -25 -17 -44t-43.5 -29t-52.5 -15t-49 -5
q-160 -1 -255 115t-95 331z" />
    <glyph glyph-name="Uhorn" unicode="&#x1af;" horiz-adv-x="1564" 
d="M1266 387v600q0 228 -31 306q-31 79 -131 112v8h338q127 0 127 62q0 19 -26 36q-30 19 -51 38q-26 23 -26 60q0 40 28 66.5t68 26.5q43 0 80 -34q38 -35 37 -93q0 -108 -66 -153.5t-183 -51.5q-52 -37 -70 -117q-17 -77 -19 -266v-606q0 -88 -31 -159t-83 -117.5
t-122.5 -78t-146 -45t-157.5 -12.5q-246 0 -399 111t-152 301v764q0 61 -6 99t-24 71t-52.5 54t-91.5 36v8h520v-8q-57 -15 -91.5 -36t-52.5 -54t-24 -71t-6 -99v-793q0 -136 105 -222q104 -85 300 -85q86 0 161.5 19t139 58t101 107t37.5 158z" />
    <glyph glyph-name="uhorn" unicode="&#x1b0;" horiz-adv-x="1204" 
d="M680 979v8q38 0 167 13q179 17 265 56q46 20 45 54q0 33 -46 57t-46 68t26.5 72.5t70.5 28.5q42 0 82 -34t40 -94q0 -99 -68 -146q-67 -46 -200 -69v-635q0 -169 28 -215q29 -47 146 -77v-9q-164 -17 -324 -82h-8v162q-190 -162 -352 -162q-299 0 -299 334v375
q0 168 -28 214q-29 47 -146 81v8q168 12 327 82h9v-760q0 -110 65.5 -163.5t179.5 -53.5q116 0 240 72v522q0 169 -28 213q-29 46 -146 80z" />
    <glyph glyph-name="uni01B1" unicode="&#x1b1;" horiz-adv-x="1642" 
d="M1062 13q-126 -42 -241 -42t-241 42q-290 98 -419 306q-73 116 -73 233q0 103 40.5 204.5t110.5 186.5q97 117 145 174q92 110 134 173h-160q-91 0 -125 -22q-35 -22 -114 -129h-8l41 274h495v-8q-360 -493 -360 -836q-1 -237 157 -395t377 -158t377 159q158 160 158 394
q0 339 -363 836v8h498l41 -274h-8q-82 109 -116 131q-32 20 -124 20h-162q42 -63 134 -173q55 -64 146 -174q70 -84 111 -185.5t41 -204.5q0 -117 -72 -234q-129 -209 -420 -306z" />
    <glyph glyph-name="uni01B2" unicode="&#x1b2;" horiz-adv-x="1533" 
d="M1337 1073q0 -505 -63 -707q-60 -198 -199.5 -298.5t-346.5 -98.5q-204 -1 -346 105t-142 311v766q0 129 -32 176t-136 76v10h508v-10q-100 -28 -136 -76q-34 -45 -32 -176v-778q0 -159 97.5 -241.5t260.5 -82.5q179 0 290 94.5t152 270.5q44 186 45 669q0 121 -55 188
t-115 66q-12 0 -74 -38q-61 -37 -96 -37t-57 24q-23 25 -22 57q0 99 170 99q171 0 250 -85q80 -87 79 -284z" />
    <glyph glyph-name="uni01B3" unicode="&#x1b3;" horiz-adv-x="1380" 
d="M969 1405v8h399v-8q-71 -10 -142 -93q-69 -81 -190 -306l-209 -383v-344q0 -128 35 -187q34 -58 139 -84v-8h-520v8q104 27 140 84q35 59 34 187v339l-276 498q-103 177 -145 230q-42 52 -82 51q-41 0 -64 -13v-10q29 -16 51.5 -49t22.5 -65q0 -38 -32 -64.5t-71 -26.5
q-46 0 -76 38.5t-32 85.5q0 53 60 101t174 48t185 -68q69 -66 216 -325l207 -367l172 330q119 227 118 295q-1 31 -20 52t-39.5 29t-54.5 17z" />
    <glyph glyph-name="uni01B4" unicode="&#x1b4;" horiz-adv-x="1267" 
d="M477 1044v-10q-121 -25 -121 -100q0 -58 46 -203q49 -155 72 -232l71 -213q28 -82 65 -198q26 72 78 227q50 147 72 213l47 134q84 241 157 324t189 83q42 0 68 -35q32 -7 53.5 -35t21.5 -61q0 -40 -44.5 -75.5t-85.5 -35.5q-48 0 -84 32t-44 79q-98 -89 -200 -375
l-254 -708q-124 -345 -314 -347q-52 0 -97.5 34t-45.5 84q0 40 29 75t68 35q68 0 71 -58q45 -10 45 -63q0 -11 -2 -21q112 32 209 314l33 92h-97l-213 604q-95 271 -133 337t-121 95v8h461z" />
    <glyph glyph-name="uni01B5" unicode="&#x1b5;" horiz-adv-x="1159" 
d="M1067 0h-1016v8l418 688h-375v60h412l368 602h-499q-70 0 -118 -42q-46 -40 -169 -192h-8l41 289h966v-8l-391 -649h391v-60h-428l-387 -641h537q70 2 124 53q56 53 165 214h8z" />
    <glyph glyph-name="uni01B6" unicode="&#x1b6;" horiz-adv-x="974" 
d="M893 0h-832v8l316 496h-293v59h332l272 424h-338q-55 0 -93 -38q-16 -16 -23 -22q-11 -10 -27 -31l-45 -55q-20 -25 -64 -79h-8l41 282h762v-8l-299 -473h326v-59h-363l-283 -449h381q59 0 102 37q43 39 169 191h8z" />
    <glyph glyph-name="uni01B7" unicode="&#x1b7;" horiz-adv-x="1052" 
d="M53 199q0 54 38 90.5t93 36.5q52 0 88.5 -32.5t36.5 -84.5q0 -49 -33 -88t-81 -51q79 -50 198 -52q158 0 275 108q116 108 116 278q0 87 -34.5 155t-93.5 108t-132.5 60.5t-156.5 20.5h-23l-4 6l350 503h-594v156h774v-8l-364 -516q183 -19 323 -135q138 -115 140 -289
q0 -111 -46.5 -205.5t-124 -157t-177 -97.5t-207.5 -36q-153 0 -256 70q-104 71 -105 160z" />
    <glyph glyph-name="uni01B8" unicode="&#x1b8;" horiz-adv-x="1052" 
d="M989 199q0 -89 -104 -160q-103 -70 -256 -70q-229 -1 -392 141t-163 355q0 174 139 289q139 116 324 135l-365 516v8h774v-156h-594l350 -503l-4 -6q-97 0 -172.5 -17.5t-142.5 -65.5q-125 -89 -125 -261t117 -278q117 -108 274 -108q120 0 199 52q-49 12 -82 50.5
t-33 88.5q0 52 36.5 84.5t88.5 32.5q55 0 93 -36.5t38 -90.5z" />
    <glyph glyph-name="uni01B9" unicode="&#x1b9;" horiz-adv-x="1013" 
d="M991 -170q0 -89 -104 -160q-102 -69 -256 -69q-147 0 -271.5 58.5t-203 173t-78.5 263.5q0 90 40 167.5t106 129.5t147 85t168 42l-365 516v8h774v-155h-594l351 -504l-5 -6q-97 0 -172.5 -17.5t-142.5 -65.5q-125 -89 -125 -261q0 -173 115 -279t276 -106q119 0 199 51
q-49 12 -82 50.5t-33 88.5q0 52 36.5 84.5t88.5 32.5q55 0 93 -36.5t38 -90.5z" />
    <glyph glyph-name="uni01BA" unicode="&#x1ba;" horiz-adv-x="1005" 
d="M78 1044h846v-32l-412 -398q35 -3 60 -6t65.5 -10t69.5 -16.5t62.5 -25t55 -35.5t35.5 -49t14 -64q0 -93 -82 -133q-82 -42 -309 -66q-70 -7 -132.5 -34t-107.5 -82t-44 -126q0 -75 26.5 -129t74.5 -84t105.5 -43.5t129.5 -13.5q117 0 213 78.5t145 193.5h14
q-34 -177 -158 -294t-299 -117q-106 0 -195.5 42t-145.5 124.5t-56 189.5q2 155 107 234q106 80 315 108q254 35 254 154q0 84 -93 114q-91 29 -321 29v41l371 340h-608v110z" />
    <glyph glyph-name="uni01BB" unicode="&#x1bb;" 
d="M145 1114q0 108 123 218q125 110 316 110q84 0 158.5 -21t134 -62.5t94.5 -110t35 -156.5q0 -158 -148 -336h227v-60h-278q-75 -84 -77 -86q-56 -61 -66 -73l-349 -390h686v-147h-860v33l418 491q82 94 133 172h-598v60h637q92 158 92 298q0 136 -90 221t-227 85
q-84 0 -159.5 -36.5t-125.5 -102.5q25 4 41 4q58 0 98.5 -33.5t40.5 -89.5q-2 -54 -35.5 -89.5t-87.5 -35.5q-57 0 -95 40t-38 97z" />
    <glyph glyph-name="uni01BC" unicode="&#x1bc;" 
d="M225 719v426q0 64 -5.5 101t-23 70t-52.5 53t-93 36v8h881v-156h-647v-452q252 18 303 18q171 0 296 -104q124 -103 124 -285q0 -108 -48.5 -203.5t-136.5 -152.5q-169 -109 -362 -109q-140 0 -241 70q-101 71 -101 160q0 54 38.5 91.5t92.5 37.5q53 0 88 -32.5t35 -84.5
q0 -48 -28.5 -85.5t-74.5 -55.5q85 -56 187 -58q170 0 272 109.5t102 281.5q0 313 -378 314h-164z" />
    <glyph glyph-name="uni01BD" unicode="&#x1bd;" horiz-adv-x="964" 
d="M-23 1036v8h807v-155h-569v-293q20 9 123.5 15.5t155.5 6.5q70 0 133 -17.5t115 -52t83 -92t31 -130.5q0 -136 -79 -218q-76 -79 -177 -109t-230 -30q-48 0 -100 11t-103.5 33t-85 62.5t-32.5 92.5q0 51 35 85t86 34q52 0 90.5 -33t38.5 -84q0 -86 -102 -127
q66 -33 184 -33q125 0 211 75t86 198q0 128 -76 189q-76 62 -192 63h-258v241q0 51 -3 83t-13 62.5t-29.5 50t-51 35.5t-78.5 29z" />
    <glyph glyph-name="uni01BE" unicode="&#x1be;" horiz-adv-x="960" 
d="M205 784v183h-164v8l84 47q75 43 128.5 107.5t108.5 160.5h9v-246h282v-73h-282v-121q0 -119 178 -206q72 -34 149 -77q73 -40 126 -113q52 -71 52 -190q0 -118 -98 -204q-102 -86 -265 -85q-165 0 -318 84v271h8q136 -312 340 -314q84 0 146.5 54t62.5 136
q0 141 -194 227q-86 38 -161 75q-87 41 -139.5 112.5t-52.5 163.5z" />
    <glyph glyph-name="uni01BF" unicode="&#x1bf;" horiz-adv-x="1144" 
d="M209 -205v922q0 143 -27 186t-139 76v10q165 13 330 80v-238q60 90 176 164t217 74q340 0 340 -393q0 -172 -109 -320q-198 -271 -624 -401v-315l-332 -121v16l27 12q86 39 114 99q29 60 27 149zM928 653q0 50 -5 90t-19.5 78.5t-38.5 64.5t-63.5 42t-92.5 16
q-168 0 -336 -156v-788q215 59 385 238t170 415z" />
    <glyph glyph-name="clickdental" unicode="&#x1c0;" horiz-adv-x="409" 
d="M248 1544v-1780h-78v1780h78z" />
    <glyph glyph-name="clicklateral" unicode="&#x1c1;" horiz-adv-x="819" 
d="M657 1544v-1780h-77v1780h77zM248 1544v-1780h-78v1780h78z" />
    <glyph glyph-name="uni01C2" unicode="&#x1c2;" horiz-adv-x="571" 
d="M340 578h213v-111h-213v-467h-109v467h-211v111h211v196h-211v109h211v503h109v-503h213v-109h-213v-196z" />
    <glyph glyph-name="uni01C3" unicode="&#x1c3;" horiz-adv-x="520" 
d="M379 91q0 -49 -35.5 -84.5t-84.5 -35.5q-48 0 -83 36t-35 84t35 83t83 35t84 -35t36 -83zM174 1123q-16 159 -16 215q0 47 26.5 75.5t73.5 28.5t74.5 -28.5t27.5 -75.5q0 -56 -16 -215q-24 -239 -41 -388q-23 -204 -37 -362h-14q-14 158 -37 362q-17 149 -41 388z" />
    <glyph glyph-name="uni01C4" unicode="&#x1c4;" horiz-adv-x="2719" 
d="M2109 1651l222 131h16l-184 -250h-109l-180 250h16zM2628 0h-1016v8l823 1350h-500q-69 0 -117 -42q-46 -40 -169 -192h-9l41 289h967v-8l-815 -1350h537q70 2 124 53q58 55 164 214h8zM422 1358v-1303h272q279 2 438 187q158 187 158 472q0 286 -164 465t-407 179h-297z
M688 0h-612v8q105 28 140 80q34 50 34 191v856q0 65 -5 102.5t-22.5 73t-52.5 57t-94 37.5v8h633q165 0 305.5 -44.5t246 -128.5t166.5 -215.5t62 -295.5q0 -176 -61 -316t-169 -229.5t-253.5 -136.5t-317.5 -47z" />
    <glyph glyph-name="uni01C5" unicode="&#x1c5;" horiz-adv-x="2535" 
d="M2056 1282l221 131h17l-185 -250h-108l-180 250h16zM2454 0h-832v8l627 979h-338q-58 0 -93 -38q-12 -13 -22 -22t-28 -31t-30 -36q-52 -66 -79 -98h-8l41 282h762v-8l-619 -981h381q58 0 102 38q41 35 168 190h8zM422 1358v-1303h272q279 2 438 187q158 187 158 472
q0 286 -164 465t-407 179h-297zM688 0h-612v8q105 28 140 80q34 50 34 191v856q0 65 -5 102.5t-22.5 73t-52.5 57t-94 37.5v8h633q165 0 305.5 -44.5t246 -128.5t166.5 -215.5t62 -295.5q0 -176 -61 -316t-169 -229.5t-253.5 -136.5t-317.5 -47z" />
    <glyph glyph-name="uni01C6" unicode="&#x1c6;" horiz-adv-x="2230" 
d="M1747 1282l221 131h17l-185 -250h-108l-181 250h17zM2148 0h-831v8l627 979h-338q-56 0 -94 -38l-22 -22q-22 -22 -44 -51q-16 -20 -50 -62q-6 -8 -15 -19t-15.5 -19t-11.5 -14h-8l40 282h762v-8l-618 -981h381q58 0 102 38q41 35 168 190h8zM1063 1544h8v-1173
q0 -180 28 -227q29 -48 146 -78v-9q-178 -17 -334 -82h-8v195q-58 -75 -157 -135q-97 -58 -220 -60q-178 1 -305 139q-127 137 -127 355q0 281 171 441q171 161 419 159q94 0 219 -25v154q1 135 -33 178q-34 42 -151 68v8q200 18 344 92zM264 546q0 -94 23.5 -173
t69.5 -139.5t121 -95t171 -34.5q121 1 254 91v718q-131 107 -290 107q-91 0 -161 -43t-109.5 -114t-59 -151.5t-19.5 -165.5z" />
    <glyph glyph-name="uni01C7" unicode="&#x1c7;" horiz-adv-x="1787" 
d="M1542 1135v-1088q0 -241 -156 -365q-71 -56 -188 -110l-4 6q176 122 176 399v1158q0 142 -34 191q-36 51 -140 79v8h520v-8q-104 -28 -140 -79q-34 -49 -34 -191zM418 1145v-1090h354q70 2 124 53q59 56 169 214h8l-41 -322h-960v8q57 15 91.5 36t52.5 54t24 71t6 99v877
q0 61 -6 99t-24 71t-52.5 54t-91.5 36v8h520v-8q-57 -15 -91.5 -36t-52.5 -54t-24 -71t-6 -99z" />
    <glyph glyph-name="uni01C8" unicode="&#x1c8;" horiz-adv-x="1701" 
d="M1501 1069h8v-1075q0 -360 -319 -486l-6 11q58 35 95 107t49.5 143t12.5 145v817q0 133 -30 175q-31 41 -144 73v8q175 12 334 82zM1534 1339q0 -46 -32.5 -77t-79.5 -33q-46 0 -78 33q-32 36 -31 78q0 45 33 77.5t78 32.5t77.5 -33t32.5 -78zM418 1145v-1090h354
q70 2 124 53q59 56 169 214h8l-41 -322h-960v8q57 15 91.5 36t52.5 54t24 71t6 99v877q0 61 -6 99t-24 71t-52.5 54t-91.5 36v8h520v-8q-57 -15 -91.5 -36t-52.5 -54t-24 -71t-6 -99z" />
    <glyph glyph-name="uni01C9" unicode="&#x1c9;" horiz-adv-x="1161" 
d="M961 1069h8v-1075q0 -360 -320 -486l-6 11q58 36 95 107.5t50 142t13 145.5v817q0 134 -31 175q-31 42 -143 73v8q175 12 334 82zM993 1339q-1 -46 -32.5 -77t-78.5 -33q-46 0 -78 32.5t-32 78.5q0 45 33 77.5t78 32.5t76.5 -32.5t33.5 -78.5zM381 1544h8v-1292
q0 -124 29 -170q29 -45 121 -74v-8h-467v8q92 29 121 74q29 47 28 170v946q-1 133 -31 176q-29 43 -143 70v8q188 18 334 92z" />
    <glyph glyph-name="uni01CA" unicode="&#x1ca;" horiz-adv-x="2281" 
d="M2036 1135v-1088q0 -241 -156 -365q-71 -56 -188 -110l-4 6q176 122 176 399v1158q0 142 -34 191q-36 51 -140 79v8h520v-8q-104 -28 -140 -79q-34 -49 -34 -191zM1339 262v725q0 165 -13 242t-44 114.5t-104 61.5v8h401v-8q-102 -33 -132 -107t-30 -311v-1007h-80
l-1024 1239v-793q-1 -157 13 -242q13 -76 45 -113.5t104 -62.5v-8h-401v8q102 33 132 107t30 311v780q0 60 -52 118q-53 59 -151 81v8h346z" />
    <glyph glyph-name="uni01CB" unicode="&#x1cb;" horiz-adv-x="2195" 
d="M1995 1069h8v-1075q0 -360 -320 -486l-6 11q58 36 95 107.5t50 142t13 145.5v817q0 134 -31 175q-31 42 -143 73v8q175 12 334 82zM2028 1339q0 -45 -32.5 -76.5t-78.5 -33.5q-45 0 -78 33t-33 78t33 77.5t78 32.5t78 -33t33 -78zM1339 262v725q0 165 -13 242t-44 114.5
t-104 61.5v8h401v-8q-102 -33 -132 -107t-30 -311v-1007h-80l-1024 1239v-793q-1 -157 13 -242q13 -76 45 -113.5t104 -62.5v-8h-401v8q102 33 132 107t30 311v780q0 60 -52 118q-53 59 -151 81v8h346z" />
    <glyph glyph-name="uni01CC" unicode="&#x1cc;" horiz-adv-x="1839" 
d="M1638 1069h9v-1075q0 -360 -320 -486l-6 11q58 36 95 107.5t50 142t13 145.5v817q0 134 -31 175q-31 42 -143 73v8q175 12 333 82zM1671 1339q0 -45 -32.5 -76.5t-78.5 -33.5q-45 0 -77.5 33t-32.5 78t33 77.5t78 32.5t76.5 -32.5t33.5 -78.5zM897 258v461
q0 242 -241 243q-120 0 -271 -88v-622q0 -124 29 -170q29 -45 121 -74v-8h-461v8q92 29 121 74q29 47 28 170v434q0 120 -13 171q-13 52 -45 76q-30 23 -116 46v8q165 12 326 82h8v-166q200 166 377 166q131 0 215 -85q84 -86 84 -267v-459q2 -129 29 -174q29 -48 120 -76
v-8h-460v8q91 28 120 76q27 45 29 174z" />
    <glyph glyph-name="uni01CD" unicode="&#x1cd;" horiz-adv-x="1415" 
d="M707 1640l221 142h16l-188 -250h-101l-184 250h16zM913 569l-249 699l-248 -699h497zM1047 134q0 64 -111 376h-541q-106 -299 -106 -366q-1 -66 29 -93q29 -26 102 -43v-8h-420v8q40 15 69 35t52.5 51.5t37 56.5t36.5 72q45 95 133 328l329 876h127l316 -874
q117 -324 170 -419q52 -93 143 -126v-8h-489v8q67 13 96 38q28 24 27 88z" />
    <glyph glyph-name="uni01CE" unicode="&#x1ce;" horiz-adv-x="1042" 
d="M520 1272l221 141h17l-189 -250h-100l-184 250h16zM256 290q0 -108 59.5 -161t168.5 -53q106 0 202 57v393q-49 9 -111 11q-81 0 -151 -24t-119 -82t-49 -141zM436 1001q-148 0 -233 -75q56 -10 84.5 -37t27.5 -70q-1 -41 -27.5 -65.5t-68.5 -26.5q-43 0 -70.5 28.5
t-29.5 71.5q0 96 133 169t282 73q144 0 229 -72t85 -213v-544q0 -57 12 -92.5t40.5 -55.5t61 -28.5t87.5 -14.5v-8q-52 -22 -120.5 -39.5t-115.5 -17.5q-57 0 -90 37.5t-35 95.5q-163 -140 -323 -142q-113 0 -195 70t-82 202q0 131 138 226q136 93 460 107v127
q0 294 -250 294z" />
    <glyph glyph-name="uni01CF" unicode="&#x1cf;" horiz-adv-x="675" 
d="M336 1640l221 142h16l-188 -250h-100l-185 250h17zM598 8v-8h-520v8q58 16 93 36t52.5 53t23 70t5.5 101v877q0 64 -5.5 101t-23 70t-52.5 53t-93 36v8h520v-8q-58 -16 -93 -36t-52.5 -53t-23 -70t-5.5 -101v-877q0 -64 5.5 -101t23 -70t52.5 -53t93 -36z" />
    <glyph glyph-name="uni01D0" unicode="&#x1d0;" horiz-adv-x="591" 
d="M295 1272l221 141h16l-188 -250h-100l-185 250h17zM381 1069h8v-817q0 -124 29 -170q29 -45 121 -74v-8h-461v8q92 29 121 74q29 47 28 170v479q0 131 -31 174q-30 42 -143 74v8q167 12 328 82z" />
    <glyph glyph-name="uni01D1" unicode="&#x1d1;" horiz-adv-x="1638" 
d="M817 1640l221 142h17l-189 -250h-100l-184 250h16zM440 218q152 -204 379 -204t378 204q151 203 151 489q0 285 -151 487q-151 201 -378 203q-227 0 -379 -204q-152 -203 -152 -487q0 -283 152 -488zM1329 178q-221 -209 -510 -209t-510 209t-221 522q0 145 59 281.5
t157.5 237.5t234 162t280.5 61q194 0 364 -103t269 -274.5t98 -364.5q0 -313 -221 -522z" />
    <glyph glyph-name="uni01D2" unicode="&#x1d2;" horiz-adv-x="1255" 
d="M627 1272l221 141h16l-188 -250h-101l-184 250h17zM435 97q79 -79 192 -79t191 79q146 147 147 427q0 65 -10.5 131.5t-36 134t-63 119.5t-97 84.5t-132.5 32.5q-156 0 -246 -146q-91 -145 -91 -356q0 -278 146 -427zM1002 137q-156 -162 -375 -162t-374 161t-155 390
t157 386t372 157q216 0 373 -157q158 -158 157 -385q1 -227 -155 -390z" />
    <glyph glyph-name="uni01D3" unicode="&#x1d3;" horiz-adv-x="1579" 
d="M788 1640l222 142h16l-188 -250h-101l-184 250h16zM1266 387v600q0 228 -31 306q-31 79 -131 112v8h399v-8q-72 -23 -103.5 -62t-44.5 -116q-12 -73 -14 -240v-606q0 -88 -31 -159t-83 -117.5t-122.5 -78t-146 -45t-157.5 -12.5q-246 0 -399 111t-152 301v764q0 61 -6 99
t-24 71t-52.5 54t-91.5 36v8h520v-8q-57 -15 -91.5 -36t-52.5 -54t-24 -71t-6 -99v-793q0 -136 105 -222q104 -85 300 -85q86 0 161.5 19t139 58t101 107t37.5 158z" />
    <glyph glyph-name="uni01D4" unicode="&#x1d4;" horiz-adv-x="1204" 
d="M600 1272l221 141h17l-189 -250h-100l-184 250h16zM1008 1069h8v-707q0 -173 28 -220q28 -48 146 -76v-9q-164 -17 -324 -82h-8v162q-190 -162 -352 -162q-299 0 -299 334v375q0 122 -13 173t-46 76q-30 23 -115 46v8q168 12 327 82h9v-760q0 -110 65.5 -163.5
t179.5 -53.5q116 0 240 72v567q0 133 -30 175q-30 41 -144 73v8q167 12 328 82z" />
    <glyph glyph-name="uni01D5" unicode="&#x1d5;" horiz-adv-x="1579" 
d="M745 1638q-2 -42 -32 -73t-71 -31t-72.5 31.5t-31.5 72.5q0 42 31 72.5t73 30.5t71.5 -30t31.5 -73zM939 1741q42 0 71.5 -31t29.5 -73t-29.5 -72.5t-71.5 -30.5t-73.5 31t-31.5 73t31.5 72.5t73.5 30.5zM1075 1890v-82h-573v82h573zM1266 387v600q0 228 -31 306
q-31 79 -131 112v8h399v-8q-72 -23 -103.5 -62t-44.5 -116q-12 -73 -14 -240v-606q0 -88 -31 -159t-83 -117.5t-122.5 -78t-146 -45t-157.5 -12.5q-246 0 -399 111t-152 301v764q0 61 -6 99t-24 71t-52.5 54t-91.5 36v8h520v-8q-57 -15 -91.5 -36t-52.5 -54t-24 -71t-6 -99
v-793q0 -136 105 -222q104 -85 300 -85q86 0 161.5 19t139 58t101 107t37.5 158z" />
    <glyph glyph-name="uni01D6" unicode="&#x1d6;" horiz-adv-x="1204" 
d="M889 1593v-82h-574v82h574zM557 1331q0 -42 -30.5 -73.5t-72.5 -31.5t-73 31.5t-31 73.5t31 72.5t73 30.5t71.5 -30t31.5 -73zM751 1434q42 0 71.5 -31t29.5 -73t-30 -73t-72 -31q-41 0 -73 32t-32 73q0 42 32 72.5t74 30.5zM1008 1069h8v-707q0 -173 28 -220
q28 -48 146 -76v-9q-164 -17 -324 -82h-8v162q-190 -162 -352 -162q-299 0 -299 334v375q0 122 -13 173t-46 76q-30 23 -115 46v8q168 12 327 82h9v-760q0 -110 65.5 -163.5t179.5 -53.5q116 0 240 72v567q0 133 -30 175q-30 41 -144 73v8q167 12 328 82z" />
    <glyph glyph-name="uni01D7" unicode="&#x1d7;" horiz-adv-x="1579" 
d="M786 1987h172q-117 -159 -327 -250h-10q119 90 165 250zM737 1618q-2 -40 -29 -68t-67 -28t-68 28q-29 29 -28 68q0 40 27.5 68t68.5 28t68.5 -28t27.5 -68zM1032 1618q0 -40 -28 -68t-68 -28t-68 28q-29 29 -28 68q0 40 28 68t68 28t68 -28t28 -68zM1266 387v600
q0 228 -31 306q-31 79 -131 112v8h399v-8q-72 -23 -103.5 -62t-44.5 -116q-12 -73 -14 -240v-606q0 -88 -31 -159t-83 -117.5t-122.5 -78t-146 -45t-157.5 -12.5q-246 0 -399 111t-152 301v764q0 61 -6 99t-24 71t-52.5 54t-91.5 36v8h520v-8q-57 -15 -91.5 -36t-52.5 -54
t-24 -71t-6 -99v-793q0 -136 105 -222q104 -85 300 -85q86 0 161.5 19t139 58t101 107t37.5 158z" />
    <glyph glyph-name="uni01D8" unicode="&#x1d8;" horiz-adv-x="1204" 
d="M598 1659h172q-117 -159 -328 -250h-10q120 91 166 250zM551 1270q0 -40 -28.5 -68t-68.5 -28q-39 0 -67.5 28.5t-28.5 67.5q0 40 28.5 68t68.5 28t67 -28t29 -68zM846 1270q0 -39 -28.5 -67.5t-67.5 -28.5q-40 0 -68.5 28t-28.5 68t28.5 68t68.5 28t68 -28t28 -68z
M1008 1069h8v-707q0 -173 28 -220q28 -48 146 -76v-9q-164 -17 -324 -82h-8v162q-190 -162 -352 -162q-299 0 -299 334v375q0 122 -13 173t-46 76q-30 23 -115 46v8q168 12 327 82h9v-760q0 -110 65.5 -163.5t179.5 -53.5q116 0 240 72v567q0 133 -30 175q-30 41 -144 73v8
q167 12 328 82z" />
    <glyph glyph-name="uni01D9" unicode="&#x1d9;" horiz-adv-x="1579" 
d="M788 1845l222 142h16l-188 -250h-101l-184 250h16zM737 1618q-2 -40 -29 -68t-67 -28t-68 28q-29 29 -28 68q0 40 27.5 68t68.5 28t68.5 -28t27.5 -68zM1032 1618q0 -40 -28 -68t-68 -28t-68 28q-29 29 -28 68q0 40 28 68t68 28t68 -28t28 -68zM1266 387v600
q0 228 -31 306q-31 79 -131 112v8h399v-8q-72 -23 -103.5 -62t-44.5 -116q-12 -73 -14 -240v-606q0 -88 -31 -159t-83 -117.5t-122.5 -78t-146 -45t-157.5 -12.5q-246 0 -399 111t-152 301v764q0 61 -6 99t-24 71t-52.5 54t-91.5 36v8h520v-8q-57 -15 -91.5 -36t-52.5 -54
t-24 -71t-6 -99v-793q0 -136 105 -222q104 -85 300 -85q86 0 161.5 19t139 58t101 107t37.5 158z" />
    <glyph glyph-name="uni01DA" unicode="&#x1da;" horiz-adv-x="1204" 
d="M600 1518l221 141h17l-189 -250h-100l-184 250h16zM551 1270q0 -40 -28.5 -68t-68.5 -28q-39 0 -67.5 28.5t-28.5 67.5q0 40 28.5 68t68.5 28t67 -28t29 -68zM846 1270q0 -39 -28.5 -67.5t-67.5 -28.5q-40 0 -68.5 28t-28.5 68t28.5 68t68.5 28t68 -28t28 -68zM1008 1069
h8v-707q0 -173 28 -220q28 -48 146 -76v-9q-164 -17 -324 -82h-8v162q-190 -162 -352 -162q-299 0 -299 334v375q0 122 -13 173t-46 76q-30 23 -115 46v8q168 12 327 82h9v-760q0 -110 65.5 -163.5t179.5 -53.5q116 0 240 72v567q0 133 -30 175q-30 41 -144 73v8
q167 12 328 82z" />
    <glyph glyph-name="uni01DB" unicode="&#x1db;" horiz-adv-x="1579" 
d="M621 2007h172q46 -160 165 -250h-10q-210 91 -327 250zM737 1618q-2 -40 -29 -68t-67 -28t-68 28q-29 29 -28 68q0 40 27.5 68t68.5 28t68.5 -28t27.5 -68zM1032 1618q0 -40 -28 -68t-68 -28t-68 28q-29 29 -28 68q0 40 28 68t68 28t68 -28t28 -68zM1266 387v600
q0 228 -31 306q-31 79 -131 112v8h399v-8q-72 -23 -103.5 -62t-44.5 -116q-12 -73 -14 -240v-606q0 -88 -31 -159t-83 -117.5t-122.5 -78t-146 -45t-157.5 -12.5q-246 0 -399 111t-152 301v764q0 61 -6 99t-24 71t-52.5 54t-91.5 36v8h520v-8q-57 -15 -91.5 -36t-52.5 -54
t-24 -71t-6 -99v-793q0 -136 105 -222q104 -85 300 -85q86 0 161.5 19t139 58t101 107t37.5 158z" />
    <glyph glyph-name="uni01DC" unicode="&#x1dc;" horiz-adv-x="1204" 
d="M432 1659h172q46 -159 166 -250h-10q-211 91 -328 250zM551 1270q0 -40 -28.5 -68t-68.5 -28q-39 0 -67.5 28.5t-28.5 67.5q0 40 28.5 68t68.5 28t67 -28t29 -68zM846 1270q0 -39 -28.5 -67.5t-67.5 -28.5q-40 0 -68.5 28t-28.5 68t28.5 68t68.5 28t68 -28t28 -68z
M1008 1069h8v-707q0 -173 28 -220q28 -48 146 -76v-9q-164 -17 -324 -82h-8v162q-190 -162 -352 -162q-299 0 -299 334v375q0 122 -13 173t-46 76q-30 23 -115 46v8q168 12 327 82h9v-760q0 -110 65.5 -163.5t179.5 -53.5q116 0 240 72v567q0 133 -30 175q-30 41 -144 73v8
q167 12 328 82z" />
    <glyph glyph-name="uni01DD" unicode="&#x1dd;" horiz-adv-x="1042" 
d="M782 418l-524 -21q0 -52 5 -99t20.5 -100t40.5 -91.5t68 -63.5t100 -25q108 0 190 108q82 107 100 292zM94 459h692v33q0 208 -105 330t-271 122t-314 -123l-12 8q48 85 154 162q106 78 260 78q202 0 332 -141q130 -140 130 -389q0 -248 -146 -406t-345 -158
q-163 -1 -270 99q-106 100 -107 332q0 19 2 53z" />
    <glyph glyph-name="uni01DE" unicode="&#x1de;" horiz-adv-x="1415" 
d="M993 1860v-82h-573v82h573zM655 1618q-2 -40 -29 -68t-67 -28t-67 28t-29 68q0 40 28.5 68t68.5 28t67.5 -28t27.5 -68zM950 1618q0 -40 -28 -68t-68 -28t-68 28q-29 29 -28 68q0 40 28 68t68 28t68 -28t28 -68zM913 569l-249 699l-248 -699h497zM1047 134q0 64 -111 376
h-541q-106 -299 -106 -366q-1 -66 29 -93q29 -26 102 -43v-8h-420v8q40 15 69 35t52.5 51.5t37 56.5t36.5 72q45 95 133 328l329 876h127l316 -874q117 -324 170 -419q52 -93 143 -126v-8h-489v8q67 13 96 38q28 24 27 88z" />
    <glyph glyph-name="uni01DF" unicode="&#x1df;" horiz-adv-x="1042" 
d="M807 1532v-82h-574v82h574zM469 1270q0 -40 -28.5 -68t-68.5 -28q-39 0 -67.5 28.5t-28.5 67.5q0 40 28.5 68t68.5 28t67 -28t29 -68zM764 1270q0 -39 -28.5 -67.5t-67.5 -28.5q-40 0 -68.5 28t-28.5 68t28.5 68t68.5 28t68 -28t28 -68zM256 290q0 -108 59.5 -161
t168.5 -53q106 0 202 57v393q-49 9 -111 11q-81 0 -151 -24t-119 -82t-49 -141zM436 1001q-148 0 -233 -75q56 -10 84.5 -37t27.5 -70q-1 -41 -27.5 -65.5t-68.5 -26.5q-43 0 -70.5 28.5t-29.5 71.5q0 96 133 169t282 73q144 0 229 -72t85 -213v-544q0 -57 12 -92.5
t40.5 -55.5t61 -28.5t87.5 -14.5v-8q-52 -22 -120.5 -39.5t-115.5 -17.5q-57 0 -90 37.5t-35 95.5q-163 -140 -323 -142q-113 0 -195 70t-82 202q0 131 138 226q136 93 460 107v127q0 294 -250 294z" />
    <glyph glyph-name="uni01E0" unicode="&#x1e0;" horiz-adv-x="1415" 
d="M829 1645q-2 -46 -33.5 -78.5t-77.5 -32.5t-78 32t-32 78t32.5 77.5t78.5 33.5q46 -1 77.5 -32.5t32.5 -77.5zM913 569l-249 699l-248 -699h497zM1047 134q0 64 -111 376h-541q-106 -299 -106 -366q-1 -66 29 -93q29 -26 102 -43v-8h-420v8q40 15 69 35t52.5 51.5
t37 56.5t36.5 72q45 95 133 328l329 876h127l316 -874q117 -324 170 -419q52 -93 143 -126v-8h-489v8q67 13 96 38q28 24 27 88zM993 1921v-82h-573v82h573z" />
    <glyph glyph-name="uni01E1" unicode="&#x1e1;" horiz-adv-x="1042" 
d="M807 1593v-82h-574v82h574zM631 1316q0 -46 -32.5 -78t-78.5 -32q-45 0 -78 33t-32 78q0 46 32 78.5t78 32.5q45 0 78 -33.5t33 -78.5zM256 290q0 -108 59.5 -161t168.5 -53q106 0 202 57v393q-49 9 -111 11q-81 0 -151 -24t-119 -82t-49 -141zM436 1001q-148 0 -233 -75
q56 -10 84.5 -37t27.5 -70q-1 -41 -27.5 -65.5t-68.5 -26.5q-43 0 -70.5 28.5t-29.5 71.5q0 96 133 169t282 73q144 0 229 -72t85 -213v-544q0 -57 12 -92.5t40.5 -55.5t61 -28.5t87.5 -14.5v-8q-52 -22 -120.5 -39.5t-115.5 -17.5q-57 0 -90 37.5t-35 95.5
q-163 -140 -323 -142q-113 0 -195 70t-82 202q0 131 138 226q136 93 460 107v127q0 294 -250 294z" />
    <glyph glyph-name="uni01E2" unicode="&#x1e2;" horiz-adv-x="1898" 
d="M1319 1683v-92h-512v92h512zM526 569h457v789h-14zM610 1413h1121v-289h-9q-85 153 -125 193q-41 41 -122 41h-320v-604h277q72 0 113.5 30.5t84.5 100.5h8v-316h-8q-44 69 -85 99t-113 30h-277v-643h367q79 0 128 46q53 50 173 221h8l-41 -322h-981v8q105 28 140 80
q34 50 34 191v221h-496q-172 -304 -172 -383q0 -78 103 -109v-8h-420v8q95 36 180 142q89 111 254 401l332 584q51 90 51 141q0 68 -96 100l-109 29v8z" />
    <glyph glyph-name="uni01E3" unicode="&#x1e3;" horiz-adv-x="1591" 
d="M1051 1335v-92h-512v92h512zM571 530q-137 0 -226 -72t-89 -174q0 -95 55 -154.5t149 -59.5q78 0 154 33t131 90q-66 125 -65 299v28q-59 10 -109 10zM1119 1024q-108 0 -191 -110q-84 -111 -103 -285l527 16q0 51 -5 98t-20.5 100.5t-40 91.5t-68 63.5t-99.5 25.5z
M428 1001q-140 0 -225 -75q56 -10 84.5 -36t27.5 -69q-2 -42 -28 -68t-68 -26q-43 0 -70.5 28.5t-29.5 71.5q0 95 131 169q130 73 282 73q222 0 271 -178q133 178 338 178q164 0 271 -100q108 -101 108 -330q0 -21 -2 -53h-693v-35q-1 -212 103 -332q104 -119 273 -119
t308 121l13 -8q-52 -88 -162 -163t-244 -75q-233 0 -350 185q-112 -90 -204.5 -137t-205.5 -48q-104 0 -186 69t-82 187q0 320 592 342v134q0 294 -252 294z" />
    <glyph glyph-name="uni01E4" unicode="&#x1e4;" horiz-adv-x="1519" 
d="M1350 399h141v-71h-141v-277q-267 -82 -506 -82q-317 0 -532 206q-214 205 -214 525q0 239 134.5 419.5t364.5 270.5q137 52 261 52q105 0 236.5 -20.5t214.5 -55.5v-276h-9q-164 305 -444 305q-229 0 -394 -193t-165 -494q0 -300 168 -488t414 -189q70 0 160.5 15.5
t144.5 41.5v240h-316v71h316v29q0 128 -35 186q-34 57 -139 84v9h473v-9q-77 -28 -106 -80q-28 -51 -27 -190v-29z" />
    <glyph glyph-name="uni01E5" unicode="&#x1e5;" horiz-adv-x="1073" 
d="M741 700q0 55 -12 109.5t-36.5 105t-70 82t-104.5 31.5q-104 0 -164 -93q-60 -94 -59 -228q0 -56 11.5 -110.5t35.5 -106t69 -83t105 -32.5q61 0 106.5 30.5t70 80t36.5 103.5t12 111zM174 -219q0 -60 31 -106t81.5 -70.5t105 -36.5t110.5 -12q57 0 116.5 11t119 33.5
t105.5 64t64 95.5h-311v72h322q-19 88 -67 120t-144 36l-332 14q-16 0 -35 4q-166 -91 -166 -225zM522 338q-91 0 -164 29q-73 -68 -71 -127q0 -82 131 -88l303 -15q167 -12 249 -64q83 -53 83 -173q0 -23 -9 -68h175v-72h-203q-37 -65 -104.5 -115.5t-148 -79t-162 -43
t-157.5 -14.5q-48 0 -99 5.5t-110.5 21.5t-105.5 41t-76.5 67.5t-29.5 96.5q0 50 29.5 96.5t77 80t96 57t96.5 36.5q-141 29 -152 137q0 123 166 228q-102 48 -158.5 133.5t-56.5 196.5q0 163 112 263q113 101 259 101t256 -65l335 65l-16 -135l-268 27q117 -95 117 -253
q0 -163 -115 -266.5t-279 -103.5z" />
    <glyph glyph-name="Gcaron" unicode="&#x1e6;" horiz-adv-x="1519" 
d="M793 1651l221 131h16l-184 -250h-109l-180 250h16zM1350 428v-377q-267 -82 -506 -82q-317 0 -532 206q-214 205 -214 525q0 239 134.5 419.5t364.5 270.5q137 52 261 52q105 0 236.5 -20.5t214.5 -55.5v-276h-9q-164 305 -444 305q-229 0 -394 -193t-165 -494
q0 -300 168 -488t414 -189q70 0 160.5 15.5t144.5 41.5v340q0 128 -35 186q-34 57 -139 84v9h473v-9q-76 -28 -105 -80q-28 -50 -28 -190z" />
    <glyph glyph-name="gcaron" unicode="&#x1e7;" horiz-adv-x="1073" 
d="M756 1417h16l-184 -250h-109l-180 250h16l220 -131q141 82 221 131zM741 700q0 55 -12 109.5t-36.5 105t-70 82t-104.5 31.5q-104 0 -164 -93q-60 -94 -59 -228q0 -56 11.5 -110.5t35.5 -106t69 -83t105 -32.5q61 0 106.5 30.5t70 80t36.5 103.5t12 111zM174 -219
q0 -51 22 -91t57 -64.5t81.5 -41t91 -22.5t90.5 -6q65 0 132 15.5t129.5 46t102.5 85.5t40 125q0 152 -213 160l-332 14q-16 0 -35 4q-166 -91 -166 -225zM522 338q-91 0 -164 29q-73 -68 -71 -127q0 -82 131 -88l293 -15q169 -7 256 -61q86 -53 86 -176q-1 -123 -99 -216
q-187 -176 -514 -176q-47 0 -98 5.5t-110 22t-104.5 41t-75.5 67t-29 96.5q0 160 299 270q-141 29 -152 137q0 123 166 228q-102 48 -158.5 133.5t-56.5 196.5q0 163 112 263q113 101 259 101t256 -65l335 65l-16 -135l-268 27q117 -95 117 -253q0 -163 -115 -266.5
t-279 -103.5z" />
    <glyph glyph-name="uni01E8" unicode="&#x1e8;" horiz-adv-x="1456" 
d="M727 1640l221 142h17l-189 -250h-100l-184 250h16zM1501 8v-8h-538v8q61 12 90 26q28 14 26 50q0 67 -145 272l-283 400l-233 -238v-250q0 -64 5.5 -101t23 -70t52.5 -53t93 -36v-8h-520v8q58 16 93 36t52.5 53t23 70t5.5 101v877q0 64 -5.5 101t-23 70t-52.5 53t-93 36
v8h520v-8q-58 -16 -93 -36t-52.5 -53t-23 -70t-5.5 -101v-551l440 465q160 167 160 250q0 59 -121 96v8h514v-8q-117 -34 -197 -95q-85 -64 -256 -241l-186 -190l369 -523q145 -205 205 -262q61 -58 155 -86z" />
    <glyph glyph-name="uni01E9" unicode="&#x1e9;" horiz-adv-x="1191" 
d="M594 1681l221 142h16l-188 -250h-100l-185 250h17zM381 1544h8v-1292q0 -124 29 -170q29 -45 121 -74v-8h-467v8q92 29 121 74q29 47 28 170v946q-1 133 -31 176q-29 43 -143 70v8q188 18 334 92zM788 926q0 31 -26.5 54.5t-56 34t-60.5 15.5v14h518v-8q-80 -18 -159 -68
q-80 -51 -218 -177l-192 -177l328 -383q78 -92 148 -146t163 -77v-8h-179q-66 0 -132 9q-23 3 -62 30q-25 19 -64 70q-10 13 -87 108l-265 324l203 198q141 137 141 187z" />
    <glyph glyph-name="uni01EA" unicode="&#x1ea;" horiz-adv-x="1638" 
d="M440 218q152 -204 379 -204t378 204q151 203 151 489q0 285 -151 487q-151 201 -378 203q-227 0 -379 -204q-152 -203 -152 -487q0 -283 152 -488zM819 -31q-289 0 -510 209t-221 522q0 145 59 281.5t157.5 237.5t234 162t280.5 61q194 0 364 -103t269 -274.5t98 -364.5
q0 -286 -185 -486q-184 -199 -445 -234q-130 -151 -132 -250q0 -35 23.5 -61.5t58.5 -26.5q27 0 72 8v-8q-55 -70 -135 -70q-68 0 -115 34.5t-47 100.5q0 117 242 266q-40 -4 -68 -4z" />
    <glyph glyph-name="uni01EB" unicode="&#x1eb;" horiz-adv-x="1255" 
d="M435 97q79 -79 192 -79t191 79q146 147 147 427q0 65 -10.5 131.5t-36 134t-63 119.5t-97 84.5t-132.5 32.5q-156 0 -246 -146q-91 -145 -91 -356q0 -278 146 -427zM727 -350v-8q-55 -70 -135 -70q-68 0 -115 34.5t-47 100.5q0 111 250 273q-16 -2 -53 -5
q-219 0 -374 161t-155 390t157 386t372 157q142 0 264.5 -71.5t194.5 -194.5t71 -265q0 -217 -128 -372q-127 -154 -318 -184q-136 -150 -138 -254q0 -36 26 -62q28 -26 70 -25q27 0 58 9z" />
    <glyph glyph-name="uni01EC" unicode="&#x1ec;" horiz-adv-x="1638" 
d="M1085 1704v-92h-512v92h512zM440 218q152 -204 379 -204t378 204q151 203 151 489q0 285 -151 487q-151 201 -378 203q-227 0 -379 -204q-152 -203 -152 -487q0 -283 152 -488zM819 -31q-289 0 -510 209t-221 522q0 145 59 281.5t157.5 237.5t234 162t280.5 61
q194 0 364 -103t269 -274.5t98 -364.5q0 -286 -185 -486q-184 -199 -445 -234q-130 -151 -132 -250q0 -35 23.5 -61.5t58.5 -26.5q27 0 72 8v-8q-55 -70 -135 -70q-68 0 -115 34.5t-47 100.5q0 117 242 266q-40 -4 -68 -4z" />
    <glyph glyph-name="uni01ED" unicode="&#x1ed;" horiz-adv-x="1255" 
d="M877 1335v-92h-512v92h512zM435 97q79 -79 192 -79t191 79q146 147 147 427q0 65 -10.5 131.5t-36 134t-63 119.5t-97 84.5t-132.5 32.5q-156 0 -246 -146q-91 -145 -91 -356q0 -278 146 -427zM727 -350v-8q-55 -70 -135 -70q-68 0 -115 34.5t-47 100.5q0 111 250 273
q-16 -2 -53 -5q-219 0 -374 161t-155 390t157 386t372 157q142 0 264.5 -71.5t194.5 -194.5t71 -265q0 -217 -128 -372q-127 -154 -318 -184q-136 -150 -138 -254q0 -36 26 -62q28 -26 70 -25q27 0 58 9z" />
    <glyph glyph-name="uni01EE" unicode="&#x1ee;" horiz-adv-x="1052" 
d="M504 1651l221 131h16l-184 -250h-108l-181 250h17zM53 199q0 54 38 90.5t93 36.5q52 0 88.5 -32.5t36.5 -84.5q0 -49 -33 -88t-81 -51q79 -50 198 -52q158 0 275 108q116 108 116 278q0 87 -34.5 155t-93.5 108t-132.5 60.5t-156.5 20.5h-23l-4 6l350 503h-594v156h774
v-8l-364 -516q183 -19 323 -135q138 -115 140 -289q0 -111 -46.5 -205.5t-124 -157t-177 -97.5t-207.5 -36q-153 0 -256 70q-104 71 -105 160z" />
    <glyph glyph-name="uni01EF" unicode="&#x1ef;" horiz-adv-x="1013" 
d="M506 1282l221 131h16l-184 -250h-108l-181 250h17zM37 -170q0 54 38 90.5t93 36.5q52 0 88.5 -32.5t36.5 -84.5q0 -50 -33 -88.5t-82 -50.5q80 -51 199 -51q169 0 280 108t111 276q0 71 -22.5 129t-61.5 97.5t-92.5 66.5t-113.5 39.5t-127 12.5h-23l-4 6l350 504h-594
v155h774v-8l-365 -516q87 -9 168 -42t147 -85t106 -129.5t40 -167.5q0 -113 -46 -208t-123.5 -157t-177.5 -96t-210 -34q-150 0 -252 69q-104 71 -104 160z" />
    <glyph glyph-name="jcaron" unicode="&#x1f0;" horiz-adv-x="583" 
d="M291 1282l221 131h16l-184 -250h-108l-181 250h17zM383 1069h8v-1075q0 -362 -315 -486l-6 11q58 35 95 107t49.5 143t12.5 145v817q0 131 -31 174q-30 42 -143 74v8q171 12 330 82z" />
    <glyph glyph-name="uni01F1" unicode="&#x1f1;" horiz-adv-x="2719" 
d="M2628 0h-1016v8l823 1350h-500q-69 0 -117 -42q-46 -40 -169 -192h-9l41 289h967v-8l-815 -1350h537q70 2 124 53q58 55 164 214h8zM422 1358v-1303h272q279 2 438 187q158 187 158 472q0 286 -164 465t-407 179h-297zM688 0h-612v8q105 28 140 80q34 50 34 191v856
q0 65 -5 102.5t-22.5 73t-52.5 57t-94 37.5v8h633q165 0 305.5 -44.5t246 -128.5t166.5 -215.5t62 -295.5q0 -176 -61 -316t-169 -229.5t-253.5 -136.5t-317.5 -47z" />
    <glyph glyph-name="uni01F2" unicode="&#x1f2;" horiz-adv-x="2535" 
d="M2454 0h-832v8l627 979h-338q-58 0 -93 -38q-12 -13 -22 -22t-28 -31t-30 -36q-52 -66 -79 -98h-8l41 282h762v-8l-619 -981h381q58 0 102 38q41 35 168 190h8zM422 1358v-1303h272q279 2 438 187q158 187 158 472q0 286 -164 465t-407 179h-297zM688 0h-612v8
q105 28 140 80q34 50 34 191v856q0 65 -5 102.5t-22.5 73t-52.5 57t-94 37.5v8h633q165 0 305.5 -44.5t246 -128.5t166.5 -215.5t62 -295.5q0 -176 -61 -316t-169 -229.5t-253.5 -136.5t-317.5 -47z" />
    <glyph glyph-name="uni01F3" unicode="&#x1f3;" horiz-adv-x="2230" 
d="M2148 0h-831v8l627 979h-338q-56 0 -94 -38l-22 -22q-22 -22 -44 -51q-16 -20 -50 -62q-6 -8 -15 -19t-15.5 -19t-11.5 -14h-8l40 282h762v-8l-618 -981h381q58 0 102 38q41 35 168 190h8zM1063 1544h8v-1173q0 -180 28 -227q29 -48 146 -78v-9q-178 -17 -334 -82h-8v195
q-58 -75 -157 -135q-97 -58 -220 -60q-178 1 -305 139q-127 137 -127 355q0 281 171 441q171 161 419 159q94 0 219 -25v154q1 135 -33 178q-34 42 -151 68v8q200 18 344 92zM264 546q0 -94 23.5 -173t69.5 -139.5t121 -95t171 -34.5q121 1 254 91v718q-131 107 -290 107
q-91 0 -161 -43t-109.5 -114t-59 -151.5t-19.5 -165.5z" />
    <glyph glyph-name="uni01F4" unicode="&#x1f4;" horiz-adv-x="1519" 
d="M899 1782h191q-117 -159 -328 -250h-10q107 116 147 250zM1350 428v-377q-267 -82 -506 -82q-317 0 -532 206q-214 205 -214 525q0 239 134.5 419.5t364.5 270.5q137 52 261 52q105 0 236.5 -20.5t214.5 -55.5v-276h-9q-164 305 -444 305q-229 0 -394 -193t-165 -494
q0 -300 168 -488t414 -189q70 0 160.5 15.5t144.5 41.5v340q0 128 -35 186q-34 57 -139 84v9h473v-9q-76 -28 -105 -80q-28 -50 -28 -190z" />
    <glyph glyph-name="uni01F5" unicode="&#x1f5;" horiz-adv-x="1073" 
d="M514 1413h191q-117 -159 -328 -250h-10q107 116 147 250zM741 700q0 55 -12 109.5t-36.5 105t-70 82t-104.5 31.5q-104 0 -164 -93q-60 -94 -59 -228q0 -56 11.5 -110.5t35.5 -106t69 -83t105 -32.5q61 0 106.5 30.5t70 80t36.5 103.5t12 111zM174 -219q0 -51 22 -91
t57 -64.5t81.5 -41t91 -22.5t90.5 -6q65 0 132 15.5t129.5 46t102.5 85.5t40 125q0 152 -213 160l-332 14q-16 0 -35 4q-166 -91 -166 -225zM522 338q-91 0 -164 29q-73 -68 -71 -127q0 -82 131 -88l293 -15q169 -7 256 -61q86 -53 86 -176q-1 -123 -99 -216
q-187 -176 -514 -176q-47 0 -98 5.5t-110 22t-104.5 41t-75.5 67t-29 96.5q0 160 299 270q-61 11 -106.5 46t-45.5 91q0 123 166 228q-102 48 -158.5 133.5t-56.5 196.5q0 163 112 263q113 101 259 101t256 -65l335 65l-16 -135l-268 27q117 -95 117 -253
q0 -163 -115 -266.5t-279 -103.5z" />
    <glyph glyph-name="uni01F6" unicode="&#x1f6;" horiz-adv-x="2312" 
d="M1225 285v409h-801v-426q0 -64 5.5 -101t23 -70t52.5 -53t93 -36v-8h-520v8q58 16 93 36t52.5 53t23 70t5.5 101v877q0 64 -5.5 101t-23 70t-52.5 53t-93 36v8h520v-8q-58 -16 -93 -36t-52.5 -53t-23 -70t-5.5 -101v-385h801v385q0 64 -5.5 101t-23 70t-52.5 53t-93 36v8
h520v-8q-58 -16 -93 -36t-52.5 -53t-23 -70t-5.5 -101v-856q-1 -127 78.5 -188t210.5 -61q142 0 216 63q74 61 72 159v504q0 146 -28 193q-29 48 -121 77v8h311v-759q0 -71 -28 -126t-72.5 -88.5t-105 -55.5t-120 -30t-124.5 -8q-66 0 -126.5 7.5t-123 29t-108 54.5
t-74.5 89t-29 128z" />
    <glyph glyph-name="uni01F7" unicode="&#x1f7;" horiz-adv-x="1335" 
d="M238 -246v1348q0 127 -27 166t-133 75v13q169 17 334 88v-238q64 97 199 167q137 71 233 71q87 0 156.5 -26t116 -71t77 -108.5t44 -135.5t13.5 -155q1 -170 -74 -332.5t-202 -289.5q-250 -248 -563 -371v-315l-342 -121v28l26 13q83 37 112.5 74t29.5 120zM1073 936
q0 60 -10 114t-33 103.5t-57 85.5t-85.5 57.5t-115.5 22.5q-80 0 -188 -48.5t-172 -107.5v-1163q281 141 472 391q189 247 189 545z" />
    <glyph glyph-name="uni01F8" unicode="&#x1f8;" horiz-adv-x="1611" 
d="M637 1782h190q40 -139 148 -250h-10q-211 91 -328 250zM1339 262v725q0 165 -13 242t-44 114.5t-104 61.5v8h401v-8q-102 -33 -132 -107t-30 -311v-1007h-80l-1024 1239v-793q-1 -157 13 -242q13 -76 45 -113.5t104 -62.5v-8h-401v8q102 33 132 107t30 311v780
q0 60 -52 118q-53 59 -151 81v8h346z" />
    <glyph glyph-name="uni01F9" unicode="&#x1f9;" horiz-adv-x="1255" 
d="M457 1413h190q40 -133 148 -250h-11q-210 91 -327 250zM897 258v461q0 242 -241 243q-120 0 -271 -88v-622q0 -124 29 -170q29 -45 121 -74v-8h-461v8q92 29 121 74q29 47 28 170v434q0 120 -13 171q-13 52 -45 76q-30 23 -116 46v8q165 12 326 82h8v-166
q200 166 377 166q131 0 215 -85q84 -86 84 -267v-459q2 -129 29 -174q29 -48 120 -76v-8h-460v8q91 28 120 76q27 45 29 174z" />
    <glyph glyph-name="Aringacute" unicode="&#x1fa;" horiz-adv-x="1415" 
d="M684 1966h190q-117 -159 -327 -250h-10q107 110 147 250zM612 1399q42 -43 101 -43q60 0 99.5 42t39.5 103t-39.5 103t-99.5 43q-59 0 -101 -43q-42 -42 -41 -102q-1 -59 41 -103zM664 1268l-248 -699h497q-53 150 -249 699zM1047 134q0 64 -111 376h-541
q-106 -299 -106 -366q-1 -66 29 -93q29 -26 102 -43v-8h-420v8q40 15 69 35t52.5 51.5t37 56.5t36.5 72q45 95 133 328l284 762q-53 27 -86 78q-33 52 -32 110q0 90 64 152.5t154 62.5t154 -62.5t64 -152.5q0 -119 -109 -182l279 -766q118 -326 170 -420q51 -92 143 -125v-8
h-489v8q67 13 96 38q28 24 27 88z" />
    <glyph glyph-name="aringacute" unicode="&#x1fb;" horiz-adv-x="1042" 
d="M500 1864h190q-117 -159 -328 -250h-10q108 117 148 250zM520 1221q60 0 101 42.5t41 102.5t-41 102.5t-101 42.5q-59 0 -100 -42.5t-41 -102.5t41 -102.5t100 -42.5zM733 1366q0 -87 -63 -147.5t-150 -60.5q-88 0 -150 60t-63 148q-1 86 62.5 147t150.5 61q86 0 150 -60
q65 -62 63 -148zM256 290q0 -108 59.5 -161t168.5 -53q106 0 202 57v393q-49 9 -111 11q-81 0 -151 -24t-119 -82t-49 -141zM436 1001q-148 0 -233 -75q56 -10 84.5 -37t27.5 -70q-1 -41 -27.5 -65.5t-68.5 -26.5q-43 0 -70.5 28.5t-29.5 71.5q0 96 133 169t282 73
q144 0 229 -72t85 -213v-544q0 -57 12 -92.5t40.5 -55.5t61 -28.5t87.5 -14.5v-8q-52 -22 -120.5 -39.5t-115.5 -17.5q-57 0 -90 37.5t-35 95.5q-163 -140 -323 -142q-113 0 -195 70t-82 202q0 131 138 226q136 93 460 107v127q0 294 -250 294z" />
    <glyph glyph-name="AEacute" unicode="&#x1fc;" horiz-adv-x="1898" 
d="M1061 1772h190q-117 -159 -327 -250h-11q108 117 148 250zM526 569h457v789h-14zM610 1413h1121v-289h-9q-85 153 -125 193q-41 41 -122 41h-320v-604h277q72 0 113.5 30.5t84.5 100.5h8v-316h-8q-44 69 -85 99t-113 30h-277v-643h367q79 0 128 46q53 50 173 221h8
l-41 -322h-981v8q105 28 140 80q34 50 34 191v221h-496q-172 -304 -172 -383q0 -78 103 -109v-8h-420v8q95 36 180 142q89 111 254 401l332 584q51 90 51 141q0 68 -96 100l-109 29v8z" />
    <glyph glyph-name="aeacute" unicode="&#x1fd;" horiz-adv-x="1591" 
d="M844 1413h190q-117 -159 -327 -250h-11q108 117 148 250zM571 530q-137 0 -226 -72t-89 -174q0 -95 55 -154.5t149 -59.5q78 0 154 33t131 90q-66 125 -65 299v28q-59 10 -109 10zM1119 1024q-108 0 -191 -110q-84 -111 -103 -285l527 16q0 51 -5 98t-20.5 100.5
t-40 91.5t-68 63.5t-99.5 25.5zM428 1001q-140 0 -225 -75q56 -10 84.5 -36t27.5 -69q-2 -42 -28 -68t-68 -26q-43 0 -70.5 28.5t-29.5 71.5q0 95 131 169q130 73 282 73q222 0 271 -178q133 178 338 178q164 0 271 -100q108 -101 108 -330q0 -21 -2 -53h-693v-35
q-1 -212 103 -332q104 -119 273 -119t308 121l13 -8q-52 -88 -162 -163t-244 -75q-233 0 -350 185q-112 -90 -204.5 -137t-205.5 -48q-104 0 -186 69t-82 187q0 320 592 342v134q0 294 -252 294z" />
    <glyph glyph-name="Oslashacute" unicode="&#x1fe;" horiz-adv-x="1638" 
d="M797 1772h190q-117 -159 -328 -250h-10q108 117 148 250zM819 1397q-227 2 -379 -203t-151 -496q0 -292 164 -495l682 1059q-139 135 -316 135zM819 14q227 0 378 204q151 203 151 496q0 291 -164 494l-682 -1061q136 -133 317 -133zM88 712q0 142 60.5 277t160 234
t234.5 159t277 60q179 0 360 -109l98 146l59 -35l-98 -150q145 -107 228 -262t83 -332q0 -313 -221 -522t-510 -209q-196 0 -366 103l-95 -144l-59 39l94 142q-151 104 -228 260t-77 343z" />
    <glyph glyph-name="oslashacute" unicode="&#x1ff;" horiz-adv-x="1255" 
d="M606 1413h191q-117 -159 -328 -250h-10q107 116 147 250zM885 856l-475 -735q85 -103 208 -103q122 0 200 79q146 147 147 427q0 189 -80 332zM627 1026q-155 0 -247 -146q-91 -145 -91 -354q0 -210 82 -344l473 733q-90 111 -217 111zM627 1069q138 0 268 -76l78 123
l55 -37l-80 -123q100 -80 153.5 -191.5t55.5 -240.5q0 -228 -156 -388q-156 -161 -374 -161q-145 0 -265 72l-71 -113l-58 35l76 117q-102 79 -155.5 193t-55.5 245q0 231 157 388t372 157z" />
    <glyph glyph-name="uni0200" unicode="&#x200;" horiz-adv-x="1415" 
d="M483 1782h156q5 -103 49 -250h-18q-124 117 -187 250zM727 1782h156q5 -103 49 -250h-19q-123 117 -186 250zM664 1268l-248 -699h497q-53 150 -249 699zM1047 134q0 64 -111 376h-541q-106 -299 -106 -366q-1 -66 29 -93q29 -26 102 -43v-8h-420v8q67 26 106 68
q76 82 208 436q181 479 343 915h127q80 -224 194.5 -540.5t145.5 -403.5q90 -253 146 -349q52 -93 143 -126v-8h-489v8q67 13 96 38q28 24 27 88z" />
    <glyph glyph-name="uni0201" unicode="&#x201;" horiz-adv-x="1042" 
d="M283 1413h155q5 -103 49 -250h-18q-123 117 -186 250zM526 1413h156q5 -103 49 -250h-18q-124 117 -187 250zM256 290q0 -108 59.5 -161t168.5 -53q106 0 202 57v393q-49 9 -111 11q-81 0 -151 -24t-119 -82t-49 -141zM436 1001q-148 0 -233 -75q56 -10 84.5 -37
t27.5 -70q-1 -41 -27.5 -65.5t-68.5 -26.5q-43 0 -70.5 28.5t-29.5 71.5q0 96 133 169t282 73q144 0 229 -72t85 -213v-544q0 -57 12 -92.5t40.5 -55.5t61 -28.5t87.5 -14.5v-8q-52 -22 -120.5 -39.5t-115.5 -17.5q-57 0 -90 37.5t-35 95.5q-163 -140 -323 -142
q-113 0 -195 70t-82 202q0 131 138 226q136 93 460 107v127q0 294 -250 294z" />
    <glyph glyph-name="uni0202" unicode="&#x202;" horiz-adv-x="1415" 
d="M703 1679q-70 0 -134 -36t-94 -97h-8q21 102 81.5 169t157.5 67t158.5 -67t81.5 -169h-8q-29 62 -95.5 97.5t-139.5 35.5zM913 569l-249 699l-248 -699h497zM1047 134q0 64 -111 376h-541q-106 -299 -106 -366q-1 -66 29 -93q29 -26 102 -43v-8h-420v8q40 15 69 35
t52.5 51.5t37 56.5t36.5 72q45 95 133 328l329 876h127l316 -874q117 -324 170 -419q52 -93 143 -126v-8h-489v8q67 13 96 38q28 24 27 88z" />
    </font>
</defs>
</svg>
