<?xml version="1.0" standalone="no"?>
<!DOCTYPE svg PUBLIC "-//W3C//DTD SVG 1.1//EN" "http://www.w3.org/Graphics/SVG/1.1/DTD/svg11.dtd" >
<svg xmlns="http://www.w3.org/2000/svg" xmlns:xlink="http://www.w3.org/1999/xlink" version="1.1">
<metadata>
Created by FontForge 20170731 at Thu Mar 21 20:30:11 2019
 By Aleksey,,,
Copyright (c) 2013 by Jonas Hecksher, Playtype, e-Types AS. All rights reserved.
</metadata>
<defs>
<font id="BerlingskeSerif-LtItalic" horiz-adv-x="1171" >
  <font-face 
    font-family="BerlingskeSerif-LtItalic"
    font-weight="300"
    font-style="italic"
    font-stretch="normal"
    units-per-em="2048"
    panose-1="2 0 3 3 8 0 0 9 0 4"
    ascent="1638"
    descent="-410"
    x-height="1044"
    cap-height="1413"
    bbox="-737 -551 3811 2015"
    underline-thickness="102"
    underline-position="-510"
    slope="-11"
    unicode-range="U+0020-FB06"
  />
<missing-glyph horiz-adv-x="1318" 
d="M1255 1413v-1413h-1116v1413h1116zM1038 637q-63 0 -63 70v327h102v37h-102v105h-10q-27 -59 -115 -113l-33 -19v-10h62v-325q0 -121 115 -121q54 0 104 51l-2 10q-27 -12 -58 -12zM315 604v-8h240v8q-49 11 -61.5 34t-14.5 81v164h74q100 0 160.5 47t60.5 143
q0 166 -219 166h-240v-8q39 -12 51 -35q11 -22 13 -84v-393q0 -28 -1 -41.5t-6.5 -31t-19.5 -27t-37 -15.5zM539 911h-60v299h70q123 0 123 -150q0 -75 -33 -112.5t-100 -36.5z" />
    <glyph glyph-name="f_f" unicode="ff" horiz-adv-x="1245" 
d="M1315 1544q101 0 151 -43q52 -43 52 -96q0 -47 -24.5 -76t-70.5 -29q-42 0 -71 25q-30 26 -29 70q0 77 84 102q-18 8 -55 8q-207 0 -267 -352l-18 -109h236l-9 -49h-235l-172 -1001q-61 -362 -393 -486l-2 11q95 57 163.5 168.5t87.5 226.5l189 1081h-203l29 49h182
l14 80q74 420 361 420zM692 1544q100 0 152 -43t51 -96q0 -47 -24.5 -76t-70.5 -29q-43 0 -71.5 26t-28.5 69q0 77 84 102q-18 8 -55 8q-208 0 -266 -352l-19 -109h236l-8 -49h-236l-172 -1001q-62 -362 -393 -486l-2 11q95 57 163.5 168t88.5 227l188 1081h-203l29 49h182
l15 80q74 420 360 420z" />
    <glyph glyph-name="f_f_i" unicode="ffi" horiz-adv-x="1806" 
d="M692 1544q100 0 152 -43t51 -96q0 -47 -24.5 -76t-70.5 -29q-43 0 -71.5 26t-28.5 69q0 77 84 102q-18 8 -55 8q-208 0 -266 -352l-19 -109h236l-8 -49h-236l-172 -1001q-62 -362 -393 -486l-2 11q95 57 163.5 168t88.5 227l188 1081h-203l29 49h182l15 80
q74 420 360 420zM1649 934q0 -57 -25 -170l-117 -541q-12 -53 -12 -84q0 -71 57 -71q76 0 191 69v-8q-162 -156 -254 -156q-113 0 -113 138q0 61 23 168l121 559q10 53 10 87q0 31 -23.5 50.5t-54.5 19.5h-393l-172 -1001q-61 -360 -393 -486l-2 11q95 57 163.5 168.5
t87.5 226.5l189 1081h-203l29 49h184l25 142q17 93 65.5 170t126.5 118q133 70 281 70t224 -41q75 -41 75 -93q0 -45 -27 -75.5t-72 -30.5q-34 0 -61 23t-27 57q0 35 24.5 63t59.5 38q-54 28 -166 28q-322 0 -372 -299l-31 -170h283l188 25q111 0 111 -135z" />
    <glyph glyph-name="f_f_l" unicode="ffl" horiz-adv-x="1810" 
d="M692 1544q100 0 152 -43t51 -96q0 -47 -24.5 -76t-70.5 -29q-43 0 -71.5 26t-28.5 69q0 77 84 102q-18 8 -55 8q-208 0 -266 -352l-19 -109h236l-8 -49h-236l-172 -1001q-62 -362 -393 -486l-2 11q95 57 163.5 168t88.5 227l188 1081h-203l29 49h182l15 80
q74 420 360 420zM1475 -27q-68 3 -98 75q-15 35 -4 105q4 26 22 126l182 1026q-34 0 -59.5 23t-26.5 56q0 31 23 62q24 29 61 39q-53 28 -127 28q-301 0 -352 -299l-31 -170h233l-8 -49h-233l-172 -1001q-61 -360 -393 -486l-3 11q95 57 163.5 168t88.5 227l189 1081h-203
l29 49h184l25 142q63 358 477 358q126 0 188 -47q74 29 109 47h8l-244 -1321q-14 -78 -3.5 -117t46.5 -38q78 0 193 69v-8q-44 -43 -77.5 -71t-87.5 -56.5t-99 -28.5z" />
    <glyph glyph-name="f_b" unicode="fb" horiz-adv-x="1732" 
d="M1530 625q0 55 -7.5 105.5t-26.5 100.5t-48.5 86.5t-76.5 59t-107 22.5q-52 0 -127.5 -36.5t-130.5 -77.5l-144 -797q26 -19 92 -41q69 -23 103 -22q93 0 172 35.5t133.5 94.5t93 137t56.5 162.5t18 170.5zM870 1384q0 35 24.5 63t59.5 38q-53 28 -127 28
q-301 0 -352 -299l-31 -170h234l-8 -49h-234l-172 -1001q-62 -360 -393 -486l-2 11q95 57 163.5 168t88.5 227l188 1081h-203l29 49h184l25 142q63 358 477 358q127 0 189 -47q62 25 104 47h8l-112 -626q58 65 154.5 108t183.5 43q138 0 230 -117q91 -116 91 -290
q0 -100 -31.5 -200.5t-90 -187t-135 -153.5t-174 -106t-200.5 -40q-67 0 -159 17t-154 41l231 1272q-34 0 -60 22.5t-26 56.5z" />
    <glyph glyph-name="f_h" unicode="fh" horiz-adv-x="1748" 
d="M1458 -27q-111 0 -110 136q0 72 20 170l92 442q13 63 15 119q0 145 -113 145q-89 0 -191.5 -59.5t-183.5 -137.5l-147 -788h-117l233 1305h-2h-2q-32 0 -57 23.5t-25 55.5q0 35 24.5 63t59.5 38q-53 28 -127 28q-301 0 -352 -299l-31 -170h234l-8 -49h-234l-172 -1001
q-62 -360 -393 -486l-2 11q95 57 163.5 168t88.5 227l188 1081h-203l29 49h184l25 142q63 358 477 358q127 0 189 -47q70 27 108 47h8l-133 -715q88 87 209 163.5t213 76.5q174 0 174 -207q0 -61 -16 -147l-96 -492q-9 -48 -11 -84q0 -71 56 -71q74 0 190 69v-8
q-162 -156 -254 -156z" />
    <glyph glyph-name="f_i" unicode="fi" horiz-adv-x="1183" 
d="M1026 934q0 -57 -25 -170l-116 -541q-11 -50 -13 -84q0 -71 58 -71q74 0 190 69v-8q-162 -156 -254 -156q-114 0 -112 138q0 65 22 168l121 559q10 53 10 87q0 32 -23 51t-55 19h-393l-172 -1001q-62 -360 -393 -486l-2 11q95 57 163.5 168t88.5 227l188 1081h-203l29 49
h184l25 142q16 94 61 164t111.5 112t147.5 62t178 20q126 0 200 -41t74 -93q0 -44 -27 -75t-71 -31q-35 0 -61.5 22.5t-26.5 57.5q0 31 23 62q24 29 61 39q-54 28 -166 28q-322 0 -373 -299l-31 -170h283l188 25q111 0 111 -135z" />
    <glyph glyph-name="f_j" unicode="fj" horiz-adv-x="1150" 
d="M1026 934q0 -45 -22 -170l-140 -770q-68 -380 -352 -486l-2 11q86 51 140.5 162t76.5 233l170 924q10 53 10 87q0 32 -23 51t-55 19h-393l-172 -1001q-62 -360 -393 -486l-2 11q95 57 163.5 168t88.5 227l188 1081h-203l29 49h184l25 142q16 94 61 164t111.5 112
t147.5 62t178 20q126 0 200 -41t74 -93q0 -44 -27 -75t-71 -31q-35 0 -61.5 22.5t-26.5 57.5q0 31 23 62q24 29 61 39q-54 28 -166 28q-322 0 -373 -299l-31 -170h283l188 25q111 0 111 -135z" />
    <glyph glyph-name="f_k" unicode="fk" horiz-adv-x="1622" 
d="M1395 -27q-64 2 -107 51t-108 199l-150 344q273 118 440 297q-37 7 -61.5 37t-24.5 68q0 41 30 70.5t71 29.5q42 0 76 -32t32 -74q0 -76 -106 -163q-106 -86 -340 -220l178 -355q44 -85 76 -120q33 -36 87 -36t157 66l2 -6q-109 -156 -252 -156zM870 1384q0 35 24.5 63
t59.5 38q-53 28 -127 28q-301 0 -352 -299l-31 -170h234l-8 -49h-234l-172 -1001q-62 -360 -393 -486l-2 11q95 57 163.5 168t88.5 227l188 1081h-203l29 49h184l25 142q63 358 477 358q127 0 189 -47q70 27 108 47h8l-284 -1544h-117l231 1305q-34 0 -60 22.5t-26 56.5z
" />
    <glyph glyph-name="f_l" unicode="fl" horiz-adv-x="1189" 
d="M854 -27q-67 3 -97 75q-15 35 -4 105q11 67 21 126l182 1026q-34 0 -60 22.5t-26 56.5q0 35 24.5 63t59.5 38q-53 28 -127 28q-301 0 -352 -299l-31 -170h234l-8 -49h-234l-172 -1001q-62 -360 -393 -486l-2 11q95 57 163.5 168t88.5 227l188 1081h-203l29 49h184l25 142
q63 358 477 358q127 0 189 -47q70 27 108 47h8l-243 -1321q-14 -78 -3.5 -117t46.5 -38q77 0 192 69v-8q-44 -43 -77.5 -71t-87.5 -56.5t-99 -28.5z" />
    <glyph glyph-name="f_t" unicode="ft" horiz-adv-x="1243" 
d="M692 1544q100 0 152 -43t51 -96q0 -47 -24.5 -76t-70.5 -29q-43 0 -71.5 26t-28.5 69q0 77 84 102q-18 8 -55 8q-208 0 -266 -352l-19 -109h394q120 40 188 246h57l-47 -246h273l-4 -49h-275l-137 -772q-14 -79 -1 -118.5t54 -38.5q89 -1 211 71v-8q-162 -156 -269 -156
t-117 100q-9 88 13 206l127 716h-475l-172 -1001q-62 -360 -393 -486l-2 11q95 57 163.5 168t88.5 227l188 1081h-203l29 49h182l15 80q74 420 360 420z" />
    <glyph glyph-name="f_f_b" unicode="ffb" horiz-adv-x="2347" 
d="M692 1544q100 0 152 -43t51 -96q0 -47 -24.5 -76t-70.5 -29q-43 0 -71.5 26t-28.5 69q0 77 84 102q-18 8 -55 8q-208 0 -266 -352l-19 -109h236l-8 -49h-236l-172 -1001q-62 -362 -393 -486l-2 11q95 57 163.5 168t88.5 227l188 1081h-203l29 49h182l15 80
q74 420 360 420zM2144 625q0 55 -7.5 105.5t-26.5 100.5t-48 86.5t-76.5 59t-107.5 22.5q-52 0 -127.5 -36.5t-130.5 -77.5l-143 -797q29 -19 93 -41q69 -23 101 -22q93 0 172 35.5t133.5 94.5t93 137t56.5 162.5t18 170.5zM1436 1544q126 0 188 -47q66 27 105 47h8
l-113 -626q60 65 155.5 108t182.5 43q138 0 230 -117q92 -118 92 -290q0 -125 -50 -249t-133.5 -220t-201.5 -156.5t-246 -61.5q-67 0 -160 17t-154 41l232 1272q-34 0 -60.5 23t-26.5 56q0 35 25 63.5t60 37.5q-53 28 -127 28q-301 0 -352 -299l-31 -170h233l-8 -49h-233
l-172 -1001q-62 -360 -394 -486l-2 11q95 57 163.5 168t88.5 227l189 1081h-203l29 49h184l24 142q63 358 478 358z" />
    <glyph glyph-name="f_f_f" unicode="fff" horiz-adv-x="1867" 
d="M1937 1544q99 0 151 -43t52 -96q0 -48 -23.5 -76.5t-70.5 -28.5q-42 0 -71 25q-30 26 -29 70q0 77 84 102q-18 8 -56 8q-211 0 -266 -352l-19 -109h236l-8 -49h-236l-172 -1001q-61 -362 -393 -486l-2 11q95 57 163.5 168t88.5 227l188 1081h-202l28 49h183l14 80
q73 420 360 420zM1315 1544q101 0 151 -43q52 -43 52 -96q0 -47 -24.5 -76t-70.5 -29q-42 0 -71 25q-30 26 -29 70q0 77 84 102q-18 8 -55 8q-212 0 -267 -352l-18 -109h236l-9 -49h-236l-171 -1001q-61 -362 -393 -486l-2 11q95 57 163.5 168.5t87.5 226.5l189 1081h-203
l29 49h182l14 80q74 420 361 420zM692 1544q100 0 152 -43t51 -96q0 -47 -24.5 -76t-70.5 -29q-43 0 -71.5 26t-28.5 69q0 77 84 102q-18 8 -55 8q-211 0 -266 -352l-19 -109h236l-8 -49h-236l-172 -1001q-62 -362 -393 -486l-2 11q95 57 163.5 168t88.5 227l188 1081h-203
l29 49h183l14 80q74 420 360 420z" />
    <glyph glyph-name="f_f_h" unicode="ffh" horiz-adv-x="2363" 
d="M692 1544q100 0 152 -43t51 -96q0 -47 -24.5 -76t-70.5 -29q-43 0 -71.5 26t-28.5 69q0 77 84 102q-18 8 -55 8q-208 0 -266 -352l-19 -109h236l-8 -49h-236l-172 -1001q-62 -362 -393 -486l-2 11q95 57 163.5 168t88.5 227l188 1081h-203l29 49h182l15 80
q74 420 360 420zM2073 -27q-111 0 -111 136q0 72 20 170l93 442q14 65 14 119q0 145 -113 145q-90 0 -191 -59t-183 -138l-148 -788h-117l234 1305h-2q-33 0 -59 23t-26 56q0 35 25 63.5t60 37.5q-53 28 -127 28q-301 0 -352 -299l-31 -170h233l-8 -49h-233l-172 -1001
q-62 -360 -394 -486l-2 11q95 57 163.5 168t88.5 227l189 1081h-203l29 49h184l24 142q63 358 478 358q126 0 188 -47q74 29 109 47h8l-133 -715q88 87 209 163.5t213 76.5q174 0 174 -207q0 -56 -17 -147l-96 -492q-10 -53 -10 -84q0 -71 55 -71q76 0 191 69v-8
q-162 -156 -254 -156z" />
    <glyph glyph-name="f_f_j" unicode="ffj" horiz-adv-x="1773" 
d="M1649 934q0 -40 -23 -170l-139 -770q-68 -380 -352 -486l-2 11q86 51 140.5 162t76.5 233l170 924q10 53 10 87q0 31 -23.5 50.5t-54.5 19.5h-393l-172 -1001q-61 -360 -393 -486l-2 11q95 57 163.5 168.5t87.5 226.5l189 1081h-203l29 49h184l25 142q17 93 65.5 170
t126.5 118q133 70 281 70t224 -41q75 -41 75 -93q0 -45 -27 -75.5t-72 -30.5q-34 0 -61 23t-27 57q0 35 24.5 63t59.5 38q-54 28 -166 28q-322 0 -372 -299l-31 -170h283l188 25q111 0 111 -135zM692 1544q100 0 152 -43t51 -96q0 -47 -24.5 -76t-70.5 -29q-43 0 -71.5 26
t-28.5 69q0 77 84 102q-18 8 -55 8q-208 0 -266 -352l-19 -109h236l-8 -49h-236l-172 -1001q-62 -362 -393 -486l-2 11q95 57 163.5 168t88.5 227l188 1081h-203l29 49h182l15 80q74 420 360 420z" />
    <glyph glyph-name="f_f_k" unicode="ffk" horiz-adv-x="2236" 
d="M692 1544q100 0 152 -43t51 -96q0 -47 -24.5 -76t-70.5 -29q-43 0 -71.5 26t-28.5 69q0 77 84 102q-18 8 -55 8q-208 0 -266 -352l-19 -109h236l-8 -49h-236l-172 -1001q-62 -362 -393 -486l-2 11q95 57 163.5 168t88.5 227l188 1081h-203l29 49h182l15 80
q74 420 360 420zM2009 -27q-62 1 -106 51q-42 47 -109 199l-149 344q273 118 440 297q-37 8 -62 38t-25 67q0 41 30.5 70.5t71.5 29.5q42 0 75 -32t33 -74q0 -76 -106 -163q-107 -87 -341 -220l178 -355q44 -85 76 -120q33 -36 87 -36t157 66l2 -6q-109 -156 -252 -156z
M1436 1544q126 0 188 -47q74 29 109 47h8l-285 -1544h-117l232 1305q-34 0 -60.5 23t-26.5 56q0 35 25 63.5t60 37.5q-53 28 -127 28q-301 0 -352 -299l-31 -170h233l-8 -49h-233l-172 -1001q-62 -360 -394 -486l-2 11q95 57 163.5 168t88.5 227l189 1081h-203l29 49h184
l24 142q63 358 478 358z" />
    <glyph glyph-name=".notdef" horiz-adv-x="1318" 
d="M1255 1413v-1413h-1116v1413h1116zM1038 637q-63 0 -63 70v327h102v37h-102v105h-10q-27 -59 -115 -113l-33 -19v-10h62v-325q0 -121 115 -121q54 0 104 51l-2 10q-27 -12 -58 -12zM315 604v-8h240v8q-49 11 -61.5 34t-14.5 81v164h74q100 0 160.5 47t60.5 143
q0 166 -219 166h-240v-8q39 -12 51 -35q11 -22 13 -84v-393q0 -28 -1 -41.5t-6.5 -31t-19.5 -27t-37 -15.5zM539 911h-60v299h70q123 0 123 -150q0 -75 -33 -112.5t-100 -36.5z" />
    <glyph glyph-name=".null" horiz-adv-x="0" 
 />
    <glyph glyph-name="nonmarkingreturn" horiz-adv-x="682" 
 />
    <glyph glyph-name="space" unicode=" " horiz-adv-x="430" 
 />
    <glyph glyph-name="exclam" unicode="!" horiz-adv-x="520" 
d="M281 84q0 -47 -34 -81t-81 -34t-81 34t-34 81t34 81t81 34t81 -34t34 -81zM419 1442q68 0 68 -73q1 -50 -113 -454q-120 -425 -149 -542h-14q14 122 41 408q28 298 74 571q6 35 32 62.5t61 27.5z" />
    <glyph glyph-name="quotedbl" unicode="&#x22;" horiz-adv-x="804" 
d="M686 1442q31 0 57.5 -21.5t26.5 -51.5q0 -25 -63 -165t-84 -231l-21 4q6 59 6 123l-6 231q0 111 84 111zM340 1442q31 0 57.5 -21.5t26.5 -51.5q0 -27 -64 -168q-64 -143 -84 -228l-20 4q6 59 6 123l-6 231q0 111 84 111z" />
    <glyph glyph-name="numbersign" unicode="#" horiz-adv-x="1167" 
d="M389 547h279l106 319h-278zM713 479l-160 -479h-68l160 479h-278l-160 -479h-68l160 479h-213l10 68h226l106 319h-281l11 68h293l159 479h68l-160 -479h279l159 479h68l-160 -479h215l-10 -68h-227l-107 -319h283l-10 -68h-295z" />
    <glyph glyph-name="dollar" unicode="$" horiz-adv-x="1032" 
d="M791 340q0 136 -156 266l-117 -594q124 28 198.5 115t74.5 213zM666 1405q-129 0 -211 -82t-82 -211q0 -96 60 -166q58 -68 177 -155l119 608q-31 6 -63 6zM449 6h10l123 639q-239 168 -287 248q-51 83 -51 164q0 189 136 286q137 98 329 99q14 0 28 -2l21 104h59
l-22 -110q120 -18 252 -80l-54 -271h-8q-35 221 -201 297l-120 -626q60 -42 88.5 -63.5t66 -61.5t65.5 -87q42 -70 42 -147q0 -187 -121 -293t-293 -127l-29 -147h-59l27 143l-27 -2q-87 0 -198 22.5t-185 57.5l63 340h9q17 -198 113 -290q98 -93 223 -93z" />
    <glyph glyph-name="percent" unicode="%" horiz-adv-x="1681" 
d="M1063 25q58 0 117.5 35t106.5 91.5t84.5 124t58 137t20.5 126.5q0 77 -32 131.5t-103 54.5q-135 0 -256 -193t-121 -350t125 -157zM1036 -25q-106 0 -168.5 67.5t-62.5 174.5q0 179 158 367t344 188q100 0 153.5 -60.5t55.5 -162.5q0 -19 -9 -78q-29 -175 -165 -335
q-137 -161 -306 -161zM424 694q71 0 143.5 55t124 135t84.5 170t33 160q0 80 -34.5 130t-110.5 50q-39 0 -80.5 -22.5t-75.5 -57t-65.5 -78t-53.5 -83.5t-37 -76q-51 -125 -53 -231q0 -152 125 -152zM1282 1315l-6 4q-163 -94 -250 -94q-84 0 -156 32q4 -17 4 -38
q0 -99 -57 -229q-25 -58 -67 -117.5t-95 -111.5t-118.5 -84.5t-128.5 -31.5q-116 0 -180 65t-64 182q0 125 76 251.5t185 208.5q120 90 234 90q115 0 182 -81q65 -81 201 -81q50 0 103.5 20t107 57.5t89 67.5t83.5 74h82l-1298 -1595h-78z" />
    <glyph glyph-name="ampersand" unicode="&#x26;" horiz-adv-x="1468" 
d="M801 1386q-58 0 -104.5 -26t-74.5 -69t-42.5 -94.5t-14.5 -106.5q0 -128 35 -238q6 -21 8 -25q351 163 353 398q1 69 -45 115t-115 46zM500 729l-6 -2q-313 -172 -314 -377q0 -120 80 -202q80 -80 241 -80q162 0 312 73q-96 112 -179 271.5t-134 316.5zM1098 -25
q-118 0 -242 121q-217 -127 -418 -127t-292 88q-91 87 -91 201q0 107 31 185t108 144q68 57 128.5 94.5t164.5 92.5q-45 155 -45 262q0 175 99.5 290.5t271.5 115.5q115 0 191 -57t75 -168q0 -152 -155 -268q-117 -87 -301 -167q136 -384 319 -563q101 77 170.5 184.5
t69.5 217.5q0 137 -162 194l2 8q62 17 120 17q69 0 111.5 -47t42.5 -117q0 -243 -313 -496q183 -153 428 -172v-8q-107 -25 -313 -25z" />
    <glyph glyph-name="quotesingle" unicode="'" horiz-adv-x="458" 
d="M340 1442q31 0 57.5 -21.5t26.5 -51.5q0 -27 -64 -168q-64 -143 -84 -228l-20 4q6 59 6 123l-6 231q0 111 84 111z" />
    <glyph glyph-name="parenleft" unicode="(" horiz-adv-x="710" 
d="M201 440q0 145 45.5 299.5t122.5 286.5q168 287 450 522h37q-121 -140 -210.5 -271.5t-163 -280.5t-111 -311.5t-37.5 -334.5q0 -304 164 -637h-37q-95 109 -178 305q-82 192 -82 422z" />
    <glyph glyph-name="parenright" unicode=")" horiz-adv-x="710" 
d="M375 905q0 310 -164 643h37q94 -107 178 -304q82 -192 82 -423q0 -145 -45.5 -299t-122.5 -286q-80 -136 -200.5 -275.5t-248.5 -247.5h-36q199 232 359 527q161 296 161 665z" />
    <glyph glyph-name="asterisk" unicode="*" horiz-adv-x="796" 
d="M422 1063l231 -209l-116 -84l-136 285l-139 -285l-115 82l238 211l-326 53l50 133l280 -157l-55 323h143l-61 -323l280 157l43 -133z" />
    <glyph glyph-name="plus" unicode="+" horiz-adv-x="1167" 
d="M1020 631l-23 -107h-368l-76 -393h-115l76 393h-369l23 107h367l77 393h115l-78 -393h371z" />
    <glyph glyph-name="comma" unicode="," horiz-adv-x="393" 
d="M44 -132q38 61 38 88q0 28 -15 63q-15 36 -15 74q0 43 30 70t73 27q45 0 73 -31.5t28 -76.5q0 -49 -31.5 -102.5t-80 -97t-99 -77.5t-96.5 -55l-6 6q65 54 101 112z" />
    <glyph glyph-name="hyphen" unicode="-" horiz-adv-x="595" 
d="M541 653v-116h-486v116h486z" />
    <glyph glyph-name="period" unicode="." horiz-adv-x="393" 
d="M311 84q0 -46 -34.5 -80.5t-80.5 -34.5t-80 34.5t-34 80.5t34 80.5t81 34.5q46 0 79 -34t35 -81z" />
    <glyph glyph-name="slash" unicode="/" horiz-adv-x="790" 
d="M776 1442l-692 -1473h-70l693 1473h69z" />
    <glyph glyph-name="zero" unicode="0" horiz-adv-x="1167" 
d="M446 4q60 0 116.5 35t96 83.5t77 118.5t58.5 122.5t41 111.5q112 343 77 673q-4 46 -16 88t-33.5 82t-58.5 64t-85 25q-44 0 -86 -20.5t-76 -52.5t-67 -78.5t-57 -90.5t-47.5 -98t-37 -91.5t-27.5 -78.5q-107 -318 -74 -643q4 -46 17 -87.5t35.5 -79.5t60.5 -60.5
t86 -22.5zM450 -31q-187 0 -270 164q-82 163 -78 408q4 212 99.5 428t251.5 354q134 119 272 119q108 0 184 -76.5t107 -189.5q76 -281 22 -502q-35 -187 -137 -367.5t-245 -271.5q-106 -66 -206 -66z" />
    <glyph glyph-name="one" unicode="1" horiz-adv-x="1167" 
d="M733 8l-2 -8h-510l2 8q144 28 192 73q45 42 77 198l182 942q-109 -69 -289 -125l2 34q75 26 132.5 55.5t113.5 73.5t92 77.5t104 101.5h9l-226 -1159q-27 -159 -5 -200q23 -43 126 -71z" />
    <glyph glyph-name="two" unicode="2" horiz-adv-x="1167" 
d="M834 832q100 143 100 280q0 136 -84 198q-85 62 -196 62q-99 0 -193 -41.5t-150 -116.5q23 4 57 4q40 0 65.5 -34t25.5 -76q0 -49 -34.5 -80t-83.5 -31q-47 0 -79.5 32.5t-32.5 79.5q0 88 121 205q69 67 172.5 97.5t215.5 30.5q136 0 241 -84q106 -84 106 -243
q0 -70 -28 -139t-80 -131.5t-98.5 -107.5t-111.5 -98q-93 -78 -132 -113l-451 -399h701l-25 -127h-860l2 12l522 482q208 191 310 338z" />
    <glyph glyph-name="three" unicode="3" horiz-adv-x="1167" 
d="M967 509q0 -152 -84.5 -279.5t-224.5 -195.5q-131 -63 -281 -65q-147 0 -249 69q-101 69 -101 146q0 50 34.5 84.5t84.5 34.5q45 0 76.5 -30.5t31.5 -75.5q0 -96 -121 -123q31 -31 100.5 -48t126.5 -18q172 0 312 132q139 132 139 341q0 285 -383 285l-4 6l450 516h-616
l25 125h761l-2 -8l-464 -528q77 -9 146 -37t124.5 -72.5t87.5 -111.5t31 -147z" />
    <glyph glyph-name="four" unicode="4" horiz-adv-x="1167" 
d="M905 8l-2 -8h-516l2 8q144 28 192 73q46 43 76 198l25 131h-672l2 8l903 1016h95l-183 -930h193l-19 -94h-192l-25 -131q-27 -159 -5 -200q23 -43 126 -71zM154 504h546l156 792z" />
    <glyph glyph-name="five" unicode="5" horiz-adv-x="1167" 
d="M649 887q145 0 230.5 -95.5t83.5 -242.5q0 -40 -11 -100q-45 -227 -218 -353q-172 -125 -369 -127q-132 0 -232 71q-98 71 -98 155q0 53 33.5 87t86.5 34q47 0 81 -32q33 -32 32 -75q0 -82 -118 -125q25 -40 91 -60t126 -20q177 0 317 152q139 151 139 381q0 133 -78 194
q-77 60 -190 62q-155 0 -330 -125l-6 2l242 743h600l-25 -125h-569l-174 -538q176 137 356 137z" />
    <glyph glyph-name="six" unicode="6" horiz-adv-x="1167" 
d="M477 4q64 0 120.5 24.5t97 64.5t72.5 95t52 111t32 116q36 182 -38 289q-73 105 -231 107q-159 0 -269 -76q-39 -96 -57 -190q-106 -541 221 -541zM336 782q149 109 325 109q175 0 276 -122q100 -123 60 -331t-197 -339q-157 -130 -337 -130q-136 0 -234.5 80.5
t-132.5 214.5q-31 124 -4 262q43 218 193.5 418t362.5 332t435 166l-6 -33q-199 -46 -411 -218q-212 -171 -330 -409z" />
    <glyph glyph-name="seven" unicode="7" horiz-adv-x="1167" 
d="M344 0h-162q130 258 376 616q244 356 501 672h-840l25 125h950l-2 -8q-237 -300 -472 -695q-230 -385 -376 -710z" />
    <glyph glyph-name="eight" unicode="8" horiz-adv-x="1167" 
d="M900 1326q-62 81 -197 81q-136 0 -225 -82t-109 -193q-20 -110 45 -178t227 -155l21 -11q231 104 276 330q24 127 -38 208zM242 99q72 -95 213 -95q137 0 249 90t138 224q26 131 -46 205q-70 76 -278 186q-68 -34 -115.5 -65.5t-91.5 -73.5t-71 -96t-39 -122
q-32 -158 41 -253zM393 1350q137 92 335 92t291 -106t66 -240q-11 -52 -44 -104t-75 -88q-83 -71 -274 -132l19 -10q125 -68 216 -164q90 -95 59 -261q-17 -88 -72 -159.5t-131.5 -116t-164 -68t-174.5 -23.5q-192 0 -311 107q-119 109 -88 269q11 57 46 113t81 98
q85 76 313 172l-20 12q-128 76 -196 162q-67 85 -40 221q27 134 164 226z" />
    <glyph glyph-name="nine" unicode="9" horiz-adv-x="1167" 
d="M887 719q47 149 47 313q0 167 -58 265q-59 99 -196 99t-250 -140q-113 -143 -113 -353q0 -140 79 -207.5t222 -67.5q153 0 269 91zM516 549q-149 0 -248.5 87t-99.5 234q0 185 93 326t266 209q90 37 173 37q170 0 278 -144t108 -359q0 -116 -45 -235.5t-120 -221.5
t-166.5 -187.5t-192.5 -148.5q-228 -142 -470 -177l6 33q210 52 425 205q118 84 210 209.5t141 265.5q-151 -133 -358 -133z" />
    <glyph glyph-name="colon" unicode=":" horiz-adv-x="393" 
d="M399 954q2 -45 -33 -80q-34 -34 -81 -34t-81 33.5t-34 80.5q0 46 34 80.5t81 34.5q46 0 81 -35t33 -80zM229 84q-2 -47 -35 -81t-79 -34q-47 0 -81 34.5t-34 80.5t34 80.5t81 34.5q46 0 79 -34t35 -81z" />
    <glyph glyph-name="semicolon" unicode=";" horiz-adv-x="393" 
d="M44 -132q38 61 38 88q0 28 -15 63q-15 36 -15 74q0 43 30 70t73 27q45 0 73 -31.5t28 -76.5q0 -49 -31.5 -102.5t-80 -97t-99 -77.5t-96.5 -55l-6 6q65 54 101 112zM399 954q2 -45 -33 -80q-34 -34 -81 -34t-81 33.5t-34 80.5q0 46 34 80.5t81 34.5q46 0 81 -35t33 -80z
" />
    <glyph glyph-name="less" unicode="&#x3c;" horiz-adv-x="1257" 
d="M926 162l-4 -17l-768 420l6 25l932 420l-5 -17l-696 -420z" />
    <glyph glyph-name="equal" unicode="=" horiz-adv-x="1167" 
d="M1020 467l-23 -107h-852l23 107h852zM1020 795l-23 -107h-852l23 107h852z" />
    <glyph glyph-name="greater" unicode="&#x3e;" horiz-adv-x="1257" 
d="M1010 590l-6 -25l-932 -420l4 17l698 420l-536 411l4 17z" />
    <glyph glyph-name="question" unicode="?" horiz-adv-x="964" 
d="M451 84q0 -46 -34.5 -80.5t-80.5 -34.5t-80.5 34.5t-34.5 80.5t34.5 80.5t80.5 34.5t80.5 -34.5t34.5 -80.5zM295 1251q8 2 46 2q40 0 70 -39q30 -38 19 -88q-18 -94 -115 -94q-48 0 -83 41q-34 40 -23 94q18 96 139 185q122 90 283 90t243 -100t53 -252
q-28 -151 -193 -310q-2 -2 -136 -130q-168 -160 -199 -290h-14q29 160 156 323q45 60 102 130q121 148 148 282q27 132 -42 209q-67 76 -186 76q-147 0 -268 -129z" />
    <glyph glyph-name="at" unicode="@" horiz-adv-x="1552" 
d="M653 -229q-285 2 -465 193q-180 192 -131 505t298 539t549 225q300 0 476 -179q175 -179 131 -454q-26 -178 -145.5 -318t-292.5 -205q-93 -36 -145 -36t-68 3q-45 8 -37 47q6 37 21 75l86 254h-17q-146 -222 -229 -300q-83 -79 -143 -79q-87 0 -131 81q-44 83 -20 230
q24 150 123 289.5t233 225.5q133 85 258 85q68 0 143 -22l57 22h21l-162 -460l-102 -351q1 -1 -3 -15q-5 -14 -6 -22q-6 -24 19 -24q53 0 147 59q92 59 185 180q92 122 114 256q39 238 -103 413t-399 175q-257 2 -464 -201q-207 -202 -253 -496t102 -465t413 -171
q194 0 383 92l4 -10q-202 -141 -447 -141zM1028 907q-174 0 -319 -178t-181 -393q-16 -96 6 -156q23 -60 62 -59q40 0 106 74q65 74 154 199q86 122 109 149l122 356q-27 8 -59 8z" />
    <glyph glyph-name="A" unicode="A" horiz-adv-x="1384" 
d="M424 571h502l-115 686zM1292 8l-2 -8h-456l2 8q128 24 142 96q13 70 -44 418h-539q-179 -321 -196 -396q-17 -74 47 -101q36 -10 65 -17l-2 -8h-415l2 8q72 20 120 60q95 80 326 483l516 893h55l152 -891q45 -268 71 -359q29 -102 57 -136q29 -33 99 -50z" />
    <glyph glyph-name="B" unicode="B" horiz-adv-x="1275" 
d="M553 0h-553l2 8q111 29 155 80q45 52 70 191l166 856q15 72 15 130q0 62 -34 92t-102 48l2 8h525q75 0 142 -14t128.5 -44.5t98 -88.5t36.5 -138q0 -181 -120 -266q-118 -84 -261 -119l-2 -8q64 -6 123 -29.5t107 -61.5t76.5 -94.5t29.5 -123.5q0 -176 -97 -272
t-282 -134q-105 -20 -225 -20zM313 45h244q95 0 175.5 24t143 71t97.5 123.5t35 174.5q0 73 -30 127t-82.5 83.5t-112.5 43t-130 13.5h-213zM451 750h192q182 0 303 105t121 284q0 53 -18.5 93.5t-48.5 66t-72.5 41.5t-85.5 22t-92 6h-181z" />
    <glyph glyph-name="C" unicode="C" horiz-adv-x="1394" 
d="M739 -31q-327 0 -499 210t-111 528q44 224 188 394q138 161 321.5 251t389.5 90q87 0 204.5 -23t188.5 -57l-53 -270h-8q-56 315 -365 315q-255 0 -451 -199q-195 -198 -254 -500q-58 -299 68 -502q126 -202 390 -202q84 0 160 27t139.5 78t113.5 107t101 130h8l-82 -291
q-75 -36 -200 -61q-132 -26 -249 -25z" />
    <glyph glyph-name="D" unicode="D" horiz-adv-x="1540" 
d="M293 45h293q305 0 507 174.5t260 477.5q58 302 -80 487q-138 184 -407 184h-317zM569 0h-589l2 8q115 28 156 74q40 45 69 197l166 856q27 158 5 199q-23 43 -126 71l2 8h612q332 0 520 -201q188 -200 124 -534t-319 -506q-254 -172 -622 -172z" />
    <glyph glyph-name="E" unicode="E" horiz-adv-x="1136" 
d="M870 1368h-335l-119 -618h313q70 0 108 26q36 24 105 109h8l-61 -316h-8q-33 80 -64 109q-29 27 -98 27h-313l-127 -660h393q83 2 113 23q50 36 95 84q47 52 146 170h8l-104 -322h-959l2 8q115 28 156 74q42 46 70 197l166 856q27 141 3 191q-25 51 -124 79l2 8h901
l-57 -289h-9q-6 15 -31 90q-38 111 -72 132q-34 19 -59 21q-16 1 -49 1z" />
    <glyph glyph-name="F" unicode="F" horiz-adv-x="1116" 
d="M932 1368h-397l-119 -618h375q69 0 107 26t106 109h8l-62 -316h-8q-34 82 -63 109t-99 27h-374l-82 -426q-22 -114 -12 -159q9 -45 43 -67q35 -23 130 -45l-2 -8h-512l2 8q115 28 156 74q42 46 70 197l166 856q27 141 3 191q-25 51 -124 79l2 8h962l-57 -289h-8
q-9 27 -21 59l-17 51q-31 94 -67 113q-34 18 -59 20q-15 1 -47 1z" />
    <glyph glyph-name="G" unicode="G" horiz-adv-x="1472" 
d="M698 -31q-311 0 -470 217q-159 218 -95 543q63 325 323 519t554 194q92 0 220.5 -21.5t199.5 -54.5l-54 -274h-8q-42 158 -133.5 236t-251.5 79q-230 0 -432 -194t-260 -501q-59 -309 71 -507q130 -199 373 -199q79 0 183 17t167 45l70 360q27 126 2 184q-26 59 -123 86
l2 9h441l-2 -9q-85 -28 -123 -80q-37 -50 -64 -190l-71 -375q-257 -84 -519 -84z" />
    <glyph glyph-name="H" unicode="H" horiz-adv-x="1597" 
d="M1427 8l-2 -8h-473l2 8q64 15 100.5 31.5t61.5 47.5t36.5 67t25.5 104l86 442h-858l-87 -442q-44 -159 25 -210q26 -19 100 -40l-2 -8h-471l2 8q51 13 84 27t56 31t38 46t24 60.5t20 85.5l174 897q25 89 13 140q-10 49 -38 69q-28 21 -100 41l2 8h473l-2 -8
q-63 -15 -100 -31.5t-61.5 -47.5t-36.5 -67.5t-25 -103.5l-78 -399h858l78 399q25 89 13 140q-10 49 -38 69q-28 21 -100 41l2 8h473l-2 -8q-63 -15 -100 -31.5t-61.5 -47.5t-36.5 -67.5t-25 -103.5l-174 -897q-43 -159 24 -210q26 -19 100 -40z" />
    <glyph glyph-name="I" unicode="I" horiz-adv-x="614" 
d="M444 8l-2 -8h-471l2 8q51 13 84 27t56 31t38 46t24 60.5t20 85.5l174 897q25 89 13 140q-10 49 -38 69q-28 21 -100 41l2 8h473l-2 -8q-63 -15 -100 -31.5t-61.5 -47.5t-36.5 -67.5t-25 -103.5l-175 -897q-44 -159 25 -210q26 -19 100 -40z" />
    <glyph glyph-name="J" unicode="J" horiz-adv-x="608" 
d="M-68 -428l-2 6q196 123 252 399l224 1158q16 79 19 127q3 43 -14 74q-17 30 -43 41q-32 13 -83 28l2 8h473l-2 -8q-115 -28 -157 -73q-39 -42 -71 -197l-213 -1098q-27 -143 -85.5 -238.5t-173.5 -164.5q-41 -25 -126 -62z" />
    <glyph glyph-name="K" unicode="K" horiz-adv-x="1425" 
d="M1374 8l-2 -8h-495l2 8q96 16 126 42q29 26 15 92q-13 65 -90 214l-223 439l-332 -279l-49 -258q-44 -159 24 -210q26 -18 101 -40l-2 -8h-478l2 8q51 13 84 27t56 31t38 46t24 60.5t20 85.5l174 897q25 89 13 140q-10 49 -38 69q-28 21 -100 41l2 8h479l-2 -8
q-63 -15 -100 -31.5t-61.5 -47.5t-36.5 -67.5t-25 -103.5l-113 -575l555 475q248 215 236 284q-7 39 -115 66l2 8h498l-2 -8q-119 -27 -210 -87q-87 -57 -317 -249l-221 -186l268 -527q101 -201 147 -256q38 -46 61 -60t85 -32z" />
    <glyph glyph-name="L" unicode="L" horiz-adv-x="1093" 
d="M279 45h372q76 0 149 58q71 56 206 219h8l-105 -322h-938l2 8q113 29 155 79t67 171l174 897q26 125 0 173q-26 49 -125 77l2 8h473l-2 -8q-115 -29 -157.5 -79t-65.5 -171z" />
    <glyph glyph-name="M" unicode="M" horiz-adv-x="1871" 
d="M1284 0l2 8q125 27 157 89q32 63 62 309l109 829l-803 -1255h-37l-287 1257h-8l-209 -801q-53 -203 -62 -272q-10 -72 14 -107q25 -36 108 -49l-2 -8h-389l2 8q63 18 95 32q37 17 68.5 72t48.5 108q23 70 60 216l162 617q21 88 35 151q18 83 -11 127q-27 42 -110 74l2 8
h291l284 -1251l791 1251h266l-2 -8q-100 -34 -142 -94q-40 -58 -63 -250l-78 -627q-37 -262 -24 -329t115 -97l-3 -8h-442z" />
    <glyph glyph-name="N" unicode="N" horiz-adv-x="1611" 
d="M1513 987l-196 -1007h-60l-813 1290l-163 -844q-45 -244 -31 -316q13 -70 110 -102l-2 -8h-378l2 8q110 33 152 105q43 74 89 313l152 780q16 81 -23 128q-38 45 -141 71l2 8h307l780 -1231l156 805q45 244 31 316q-13 71 -111 102l2 8h381l-2 -8q-76 -23 -114 -59
t-67 -110q-30 -80 -63 -249z" />
    <glyph glyph-name="O" unicode="O" horiz-adv-x="1617" 
d="M354 208q120 -204 359 -204t437 203q199 203 257 500q57 297 -64 499t-359 201q-238 0 -436 -203q-197 -203 -256 -498q-58 -293 62 -498zM1252 169q-257 -200 -544 -200q-288 0 -465 218q-178 218 -116 532q39 203 176.5 374t328.5 262q182 87 336 87q219 0 381 -123.5
t215 -336.5q36 -145 5 -304q-62 -311 -317 -509z" />
    <glyph glyph-name="P" unicode="P" horiz-adv-x="1202" 
d="M246 1413h602q230 0 332 -106q102 -107 65 -299q-47 -232 -224 -305q-151 -62 -355 -62h-267l-69 -362q-23 -116 -12 -160t43 -66q33 -22 131 -45l-3 -8h-518l2 8q115 28 156 74q42 46 70 197l166 856q27 158 5 199q-23 43 -126 71zM408 684h231q397 0 461 336
q33 170 -42 259t-251 89h-266z" />
    <glyph glyph-name="Q" unicode="Q" horiz-adv-x="1617" 
d="M354 208q120 -204 359 -204t437 203q199 203 257 500q57 297 -64 499t-359 201q-238 0 -436 -203q-197 -203 -256 -498q-58 -293 62 -498zM1860 -489q-384 0 -856 327l-199 139q-70 -8 -98 -8q-287 0 -464 218q-178 218 -116 532q39 203 176.5 374t328.5 262
q182 87 336 87q219 0 381 -123.5t215 -336.5q36 -145 5 -304q-51 -254 -237 -437q-187 -184 -427 -245q145 -82 267.5 -141.5t269 -116.5t295.5 -87t293 -30q158 0 305 57l-2 -8q-96 -72 -224.5 -115.5t-248.5 -43.5z" />
    <glyph glyph-name="R" unicode="R" horiz-adv-x="1333" 
d="M1315 0h-103q-164 0 -204 24q-39 23 -107 162l-217 455h-264l-70 -362q-27 -159 -5 -200q23 -43 126 -71l-2 -8h-477l2 8q115 28 156 74q40 45 69 197l166 856q27 158 5 199q-23 43 -126 71l2 8h588q214 1 318 -109q103 -109 70 -284q-33 -173 -161 -247
q-108 -62 -270 -101l229 -434q71 -131 121 -171q49 -39 156 -59zM428 684h217q161 0 292 81q130 81 163 249t-42 261t-245 93h-252z" />
    <glyph glyph-name="S" unicode="S" horiz-adv-x="1032" 
d="M226 99q98 -93 226 -93q129 0 233 88q105 88 106 242q-3 161 -194 300q-12 9 -71 51t-90 65q-192 143 -192 305q0 189 136 286q137 99 310 99q175 0 357 -88l-54 -271h-8q-20 137 -104.5 229.5t-216.5 92.5q-120 0 -206 -80q-85 -79 -85 -213q0 -154 195 -291l162 -114
q196 -138 196 -321q0 -97 -44.5 -185t-123.5 -136q-152 -96 -334 -96q-90 2 -202 23.5t-181 56.5l63 340h9q17 -198 113 -290z" />
    <glyph glyph-name="T" unicode="T" horiz-adv-x="1306" 
d="M756 1368h-228q-57 0 -111 -42q-58 -45 -212 -202h-8l98 289h1067l-16 -289h-9q-78 161 -112 202q-35 42 -92 42h-252l-211 -1089q-27 -159 -5 -200q23 -43 126 -71l-3 -8h-473l2 8q117 29 158 74q42 46 70 197z" />
    <glyph glyph-name="U" unicode="U" horiz-adv-x="1579" 
d="M716 -31q-248 0 -386 111q-137 111 -101 301l152 774q26 125 0 173q-26 49 -127 77l2 8h479l-2 -8q-112 -29 -154.5 -79.5t-66.5 -170.5l-158 -803q-30 -143 72 -230t309 -87q93 0 177 19.5t157.5 60t125.5 110t71 162.5l116 600q43 228 28 307q-15 78 -110 111l3 8h380
l-2 -8q-106 -33 -151 -110q-45 -76 -90 -308l-119 -606q-21 -109 -79 -190.5t-141 -129t-179.5 -70.5t-205.5 -22z" />
    <glyph glyph-name="V" unicode="V" horiz-adv-x="1384" 
d="M1120 862l-516 -893h-55l-152 891q-45 267 -71 360q-28 102 -57 135t-99 50l2 8h457l-2 -8q-131 -27 -144 -100q-12 -76 49 -439l117 -710l406 714q189 335 207 412q18 78 -45 104l-66 19l2 8h418l-2 -8q-71 -19 -120 -59q-93 -75 -329 -484z" />
    <glyph glyph-name="W" unicode="W" horiz-adv-x="1947" 
d="M1061 1296q0 48 -33 71q-31 21 -106 38l2 8h460l-2 -8q-98 -18 -128 -51.5t-30 -131.5q0 -97 23 -356l68 -710l354 714q178 360 178 441q0 43 -29 61q-30 18 -98 33l2 8h418l-2 -8q-79 -21 -124 -65.5t-98 -133.5q-63 -105 -185 -344l-455 -893h-55l-115 1211l-629 -1211
h-55l-72 891q-35 438 -87 499q-25 29 -97 46l2 8h446l-2 -8q-95 -18 -126.5 -49t-31.5 -121q0 -96 19 -369l49 -702l369 706q170 329 170 426z" />
    <glyph glyph-name="X" unicode="X" horiz-adv-x="1388" 
d="M1270 8l-2 -8h-514l2 10l16 4q120 26 139 49q35 41 -28 181l-195 407l-211 -237q-122 -138 -167 -197q-106 -138 -51 -175q27 -17 93 -32l-2 -10h-436l2 8q101 28 177 89q73 58 298 300l277 297l-219 469q-27 57 -46 89t-47.5 64.5t-66 53t-90.5 35.5l2 8h520l-2 -10
q-139 -31 -164 -70q-25 -38 31 -164l180 -383l199 230q104 124 145 180q95 131 47 171q-22 19 -82 36l2 10h430l-2 -8q-104 -27 -183 -91q-76 -61 -275 -282l-261 -289l234 -493q62 -132 105 -173q42 -41 145 -69z" />
    <glyph glyph-name="Y" unicode="Y" horiz-adv-x="1292" 
d="M743 623l-67 -344q-14 -79 -14 -129q0 -60 35.5 -92.5t99.5 -49.5l-2 -8h-480l2 8q114 28 159 87t69 184l65 339l-135 365q-105 281 -167 349q-31 34 -53.5 48t-66.5 25l2 8h431l-3 -8q-68 -15 -96 -33q-28 -17 -26 -74q0 -54 98 -309l125 -315l254 338q193 258 192 319
q0 49 -102 74l2 8h393l-2 -8q-77 -11 -157 -86q-84 -80 -263 -313z" />
    <glyph glyph-name="Z" unicode="Z" horiz-adv-x="1159" 
d="M1073 1368h-530q-80 0 -130 -38q-48 -36 -204 -206h-8l98 289h967l-2 -8l-1110 -1360h557q88 0 142 45q55 46 210 232h8l-102 -322h-1014l2 8z" />
    <glyph glyph-name="bracketleft" unicode="[" horiz-adv-x="776" 
d="M494 -240l-11 -47h-374l358 1835h375l-11 -47h-253l-338 -1741h254z" />
    <glyph glyph-name="backslash" unicode="\" horiz-adv-x="790" 
d="M225 1442l408 -1473h-70l-407 1473h69z" />
    <glyph glyph-name="bracketright" unicode="]" horiz-adv-x="776" 
d="M682 1548l-358 -1835h-373l8 47h254l338 1741h-254l10 47h375z" />
    <glyph glyph-name="asciicircum" unicode="^" horiz-adv-x="874" 
d="M541 1413l135 -485h-41l-168 372l-326 -372h-41l324 485h117z" />
    <glyph glyph-name="underscore" unicode="_" horiz-adv-x="942" 
d="M795 -168l-19 -104h-790l18 104h791z" />
    <glyph glyph-name="grave" unicode="`" horiz-adv-x="489" 
d="M369 1163h-11q-197 92 -280 250h164q16 -154 127 -250z" />
    <glyph glyph-name="a" unicode="a" horiz-adv-x="1157" 
d="M647 1022q-153 0 -279 -209t-126 -481q0 -44 6 -84.5t21 -84.5t47.5 -70t78.5 -25q152 0 346 227l113 653q-40 32 -98 53t-109 21zM825 -27q-111 0 -110 136q0 59 12 124q-49 -61 -108 -115t-139 -98.5t-148 -44.5q-97 2 -164 93q-68 92 -68 263q0 176 86.5 345.5
t227.5 279.5q143 111 299 113q70 0 128 -16q60 -17 81 -17q22 0 65 33h8l-151 -846q-10 -53 -10 -84q0 -71 55 -71q75 0 190 69v-8q-162 -156 -254 -156z" />
    <glyph glyph-name="b" unicode="b" horiz-adv-x="1130" 
d="M928 625q0 178 -71 276q-71 99 -187 99t-267 -115l-143 -797q26 -19 92 -41q69 -23 103 -22q93 0 172 35.5t133.5 94.5t93 137t56.5 162.5t18 170.5zM512 1544h8l-112 -626q58 65 154.5 108t182.5 43q139 0 231 -117q92 -118 91 -290q0 -100 -31.5 -200.5t-90 -187
t-135 -153.5t-174 -106t-200.5 -40q-67 0 -159 17t-154 41l205 1132q27 134 1 187q-25 51 -143 92v8q110 7 204 43q28 11 41 15q10 2 44 18q33 16 37 16z" />
    <glyph glyph-name="c" unicode="c" horiz-adv-x="843" 
d="M643 930q0 49 45 94q0 8 -51 8q-147 0 -273 -171t-126 -435q0 -177 68 -266q67 -88 172 -88q98 0 162 38.5t144 125.5l13 -15q-50 -92 -149 -170q-97 -76 -230 -76q-131 0 -224 109q-92 109 -94 295q0 285 178 487q178 201 379 203q31 0 60 -5.5t58 -17.5t47 -36t18 -57
q0 -49 -27.5 -83t-74.5 -34q-92 0 -95 94z" />
    <glyph glyph-name="d" unicode="d" horiz-adv-x="1181" 
d="M647 1022q-153 0 -279 -209t-126 -481q0 -44 6 -84.5t21 -84.5t47.5 -70t78.5 -25q175 0 365 225l114 655q-35 31 -105 52.5t-122 21.5zM334 -25q-95 1 -166 93q-68 92 -68 263q0 176 86.5 345.5t227.5 279.5q143 111 299 113q75 0 182 -25l33 187q25 128 -2 165
q-27 36 -138 48l3 8q178 26 311 92h8l-244 -1321q-14 -78 -3.5 -117t46.5 -38q78 0 193 69v-8q-162 -156 -255 -156t-105 79q-12 78 8 186q-47 -58 -113.5 -115.5t-151 -102t-151.5 -45.5z" />
    <glyph glyph-name="e" unicode="e" horiz-adv-x="921" 
d="M620 603q128 98 128 258q0 161 -160 161q-131 0 -234 -154q-104 -155 -116 -364q255 2 382 99zM637 1069q96 0 165.5 -51.5t69.5 -143.5q0 -89 -28 -149q-109 -233 -606 -256v-12q0 -194 70 -288q71 -95 178 -95q102 0 175.5 40.5t145.5 125.5l12 -15q-51 -94 -157 -172
t-241 -78q-136 0 -227 115q-92 116 -92 307q0 261 166 466q167 206 369 206z" />
    <glyph glyph-name="f" unicode="f" horiz-adv-x="622" 
d="M692 1544q100 0 152 -43t51 -96q0 -47 -24.5 -76t-70.5 -29q-43 0 -71.5 26t-28.5 69q0 77 84 102q-18 8 -55 8q-208 0 -266 -352l-19 -109h236l-8 -49h-236l-172 -1001q-62 -362 -393 -486l-2 11q95 57 163.5 168t88.5 227l188 1081h-203l29 49h182l15 80
q74 420 360 420z" />
    <glyph glyph-name="g" unicode="g" horiz-adv-x="903" 
d="M420 373q129 0 204 126q75 127 74 332q0 92 -49 145q-49 54 -117 54q-65 0 -119.5 -39t-87.5 -99.5t-51 -127t-18 -126.5q0 -263 164 -265zM88 -386q102 -60 263 -60t279 96q64 52 64 126q0 73 -43 110q-43 38 -141 69l-256 80q-202 -86 -245 -169q-24 -47 -23 -106
q0 -86 102 -146zM803 -172q0 -94 -82 -172q-155 -148 -461 -148q-138 0 -277 73q-140 74 -141 169q0 187 375 299q-100 45 -100 113q0 95 190 192q-84 31 -129 95t-45 153q0 116 47.5 221t141 175t210.5 71q103 0 185 -68h49q81 0 130.5 21t100.5 80q37 -44 37 -85
q0 -40 -34 -73q-20 -18 -60 -18q-52 0 -137 30q-45 16 -60 21q82 -86 82 -237q-2 -151 -119 -276q-118 -126 -288 -126q-41 0 -76 8q-59 -39 -90 -88q-62 -95 57 -131l205 -61q159 -48 224 -96q63 -47 65 -142z" />
    <glyph glyph-name="h" unicode="h" 
d="M881 -27q-111 0 -111 136q0 55 21 170l92 442q14 65 14 119q0 145 -113 145q-90 0 -191 -59t-183 -138l-148 -788h-117l222 1231q12 63 12 112t-33 69q-34 20 -119 32l2 8q177 26 312 92h8l-133 -715q88 87 209 163.5t213 76.5q174 0 174 -207q0 -56 -17 -147l-96 -492
q-10 -53 -10 -84q0 -71 55 -71q75 0 191 69v-8q-162 -156 -254 -156z" />
    <glyph glyph-name="i" unicode="i" horiz-adv-x="602" 
d="M555 1343q0 -40 -29 -68t-70 -30q-40 0 -69 29.5t-29 69.5t29.5 69t69.5 29q38 0 69 -29t29 -70zM195 279l116 540q35 158 -43 158q-77 0 -190 -68v9q158 152 257 152t105 -100q6 -77 -20 -206l-117 -541q-17 -78 -6.5 -117t49.5 -38q78 0 193 69v-8q-161 -156 -259 -156
q-99 0 -106 100q-8 81 21 206z" />
    <glyph glyph-name="j" unicode="j" horiz-adv-x="550" 
d="M305 903q0 74 -53 74q-78 0 -191 -68v9q159 152 252 151q111 0 111 -135q0 -54 -21 -170l-137 -770q-68 -380 -352 -486l-2 11q86 51 140.5 162t76.5 233l166 905q10 53 10 84zM555 1343q0 -40 -29 -68t-70 -30q-40 0 -69 29.5t-29 69.5t29.5 69t69.5 29q38 0 69 -29
t29 -70z" />
    <glyph glyph-name="k" unicode="k" horiz-adv-x="1019" 
d="M123 0l219 1231q12 63 12 112t-32 70q-35 21 -119 31l2 8q178 26 311 92h8l-284 -1544h-117zM793 -27q-64 2 -107 51t-108 199l-150 344q273 118 440 297q-37 7 -61.5 37t-24.5 68q0 41 30 70.5t71 29.5q43 0 74.5 -31.5t33.5 -74.5q0 -76 -106 -163q-106 -86 -340 -220
l178 -355q44 -85 76 -120q33 -36 86 -36t157 66l2 -6q-109 -156 -251 -156z" />
    <glyph glyph-name="l" unicode="l" horiz-adv-x="587" 
d="M262 -27q-111 0 -110 136q0 52 20 170l170 952q12 63 12 112t-32 70q-35 21 -119 31l2 8q178 26 311 92h8l-243 -1321q-9 -48 -11 -84q0 -71 56 -71q74 0 190 69v-8q-162 -156 -254 -156z" />
    <glyph glyph-name="m" unicode="m" horiz-adv-x="1771" 
d="M1481 -27q-111 0 -111 136q0 74 21 170l92 442q14 65 14 119q0 145 -113 145q-90 0 -193 -60t-185 -139q-1 -19 -11 -71l-133 -715h-114l135 721q12 68 12 119q0 145 -111 145q-90 0 -192.5 -59t-183.5 -138l-146 -788h-119l152 819q10 53 10 84q0 74 -53 74
q-78 0 -191 -68v9q159 152 252 151q111 0 111 -133q0 -50 -10 -109q88 88 210 165t214 77q186 0 172 -246q89 89 211.5 167.5t216.5 78.5q174 0 174 -207q0 -56 -17 -147l-96 -492q-10 -53 -10 -84q0 -71 55 -71q76 0 191 69v-8q-162 -156 -254 -156z" />
    <glyph glyph-name="n" unicode="n" 
d="M877 -27q-105 0 -107 138q0 72 21 168l92 442q14 65 14 130q0 134 -121 134q-168 0 -368 -197l-146 -788h-119l152 819q10 53 10 84q0 74 -55 74q-76 0 -189 -68v9q157 152 256 151q105 0 107 -137q0 -44 -10 -103q245 240 428 240q92 0 134 -52q42 -53 38 -131
q-5 -84 -19 -171l-96 -492q-10 -53 -10 -86q0 -69 55 -69q75 0 191 69v-8q-161 -156 -258 -156z" />
    <glyph glyph-name="o" unicode="o" horiz-adv-x="1073" 
d="M444 -25q-150 0 -258 130t-108 323q0 235 170 438q169 201 377 203q149 0 257 -130q108 -131 107 -323q0 -236 -169 -438q-169 -201 -376 -203zM463 14q167 0 275 210t108 474q0 155 -68 244q-67 88 -172 88q-166 0 -274 -210q-107 -209 -109 -474q0 -155 68 -244
q67 -88 172 -88z" />
    <glyph glyph-name="p" unicode="p" horiz-adv-x="1130" 
d="M928 637q0 163 -71 263q-71 99 -179 99t-266 -108q-3 -46 -19 -127l-133 -680q112 -62 205 -64q199 0 331 193t132 424zM70 -244l215 1063q33 158 -44 158t-190 -68v9q159 152 258 151q109 0 105 -145q68 61 158 103t173 42q139 0 231 -117q92 -118 91 -290
q0 -263 -190 -474q-191 -212 -435 -213q-70 0 -198 25l-47 -244q-18 -95 -11 -127t36 -52q27 -19 102 -40l-2 -8h-445l2 8q104 30 136 68.5t55 150.5z" />
    <glyph glyph-name="q" unicode="q" horiz-adv-x="1130" 
d="M647 1022q-153 0 -279 -209t-126 -481q0 -44 6 -84.5t21 -84.5t47.5 -70t78.5 -25q169 0 355 211l124 669q-31 24 -109 49t-118 25zM872 -463v-8h-411l2 6q96 28 135 80q39 51 66 192l75 414q-82 -94 -195.5 -170t-211.5 -76q-97 2 -164 93q-68 92 -68 263
q0 176 86.5 345.5t227.5 279.5q143 111 299 113q106 0 217 -33l74 33h8l-228 -1262q-12 -68 -12 -125q0 -59 22.5 -92.5t77.5 -52.5z" />
    <glyph glyph-name="r" unicode="r" horiz-adv-x="800" 
d="M307 913q0 62 -47 64q-69 0 -199 -109v9q147 193 252 192q111 0 111 -135q0 -51 -21 -162q25 45 56.5 90t74 95t92.5 81t95 31q47 0 82 -26.5t35 -72.5q0 -45 -28 -73.5t-73 -28.5q-44 0 -73 35q-28 34 -23 82q-100 -37 -250 -285l-129 -700h-119l152 819q12 57 12 94z
" />
    <glyph glyph-name="s" unicode="s" horiz-adv-x="776" 
d="M164 784q0 137 95 211t211 74q115 0 195 -47t78 -113q1 -43 -27 -71q-27 -27 -68 -27q-40 0 -65.5 25.5t-27.5 65.5q0 37 24 66.5t60 30.5q-46 35 -137 35q-232 0 -234 -207q0 -106 142 -212q69 -51 118 -89q142 -108 142 -231q0 -148 -100 -233q-101 -86 -232 -87
q-133 2 -220 59q-89 59 -89 130q0 44 28 74t71 30q42 0 71 -26t29 -68q0 -38 -24.5 -68.5t-62.5 -35.5q18 -25 76.5 -42.5t97.5 -17.5q106 0 174 57t68 161q0 105 -139 214q-32 27 -114 92q-140 114 -140 250z" />
    <glyph glyph-name="t" unicode="t" horiz-adv-x="620" 
d="M555 137v-8q-162 -156 -269 -156t-117 100q-9 88 13 206l127 712h-205l-2 19l105 26q47 12 82.5 35.5t60.5 61t40.5 72t33.5 85.5h57l-47 -246h273l-5 -49h-274l-137 -772q-14 -79 -1 -118.5t54 -38.5q89 -1 211 71z" />
    <glyph glyph-name="u" unicode="u" 
d="M883 -27q-111 0 -111 136q0 19 10 106q-87 -86 -210.5 -164t-213.5 -78q-174 0 -174 207q0 57 17 148l96 491q10 53 10 84q0 74 -53 74q-71 0 -193 -72v8q162 156 254 156q111 0 111 -135q0 -52 -20 -170l-93 -442q-14 -65 -14 -119q0 -144 113 -146q87 -1 189.5 59
t186.5 138l146 788h119l-152 -819q-10 -53 -10 -84q0 -36 13.5 -54t39.5 -17q79 -1 191 65v-8q-158 -152 -252 -152z" />
    <glyph glyph-name="v" unicode="v" horiz-adv-x="1056" 
d="M287 903q0 74 -51 74q-72 0 -193 -72v8q162 156 254 156q111 0 111 -135q0 -54 -21 -170l-86 -485q-8 -46 -8 -101q0 -116 124 -117q71 0 140.5 43.5t122 113t90.5 138.5t64 138q64 174 63 319q0 57 -16 96q-32 -35 -87 -35q-56 0 -82 26q-28 25 -28 67q0 47 32 73.5
t80 28.5q54 0 102 -62q48 -61 48 -179q0 -241 -155 -537q-44 -83 -104.5 -151.5t-146.5 -117t-175 -49.5q-91 1 -140 59.5t-49 151.5q0 49 8 95l95 540q8 46 8 84z" />
    <glyph glyph-name="w" unicode="w" horiz-adv-x="1597" 
d="M297 1069q112 0 112 -135q-2 -55 -22 -170l-86 -485q-23 -123 9 -170q31 -46 110 -48q53 1 100 25t82.5 64.5t64.5 89.5t49.5 105.5t34 106t21.5 97.5l76 442h119l-125 -712q-23 -122 11 -169t114 -49q70 0 138.5 44t121 113.5t90.5 139t63 136.5q62 173 64 319
q0 54 -17 96q-32 -35 -86 -35q-49 0 -80 23t-31 70q0 46 33 73t81 29q54 0 102 -62t47 -179q0 -118 -42 -260q-102 -344 -299 -503q-113 -90 -241 -92q-76 -1 -136 49q-58 49 -58 154q0 30 14 109h-8q-129 -311 -358 -312q-91 1 -140 59.5t-49 151.5q0 49 8 95l95 540
q29 158 -43 158t-193 -72v8q162 156 254 156z" />
    <glyph glyph-name="x" unicode="x" horiz-adv-x="1007" 
d="M800 -27q-60 0 -94 45q-37 47 -104 205l-115 273q-189 -135 -317 -316q43 -8 73.5 -38.5t30.5 -73.5q0 -44 -29.5 -71.5t-73.5 -27.5q-50 0 -80 32t-30 82q0 52 65 133.5t129 138.5q57 51 130 112l84 70l-119 278q-56 131 -116 151q-9 4 -25 4q-62 2 -178 -65l-2 6
q44 61 106.5 108.5t124.5 47.5q60 0 96 -45q35 -44 103 -205l90 -219q246 207 285 266q-45 10 -78 38.5t-33 70.5t29 69t71 27q109 0 109 -111q0 -48 -28 -85q-33 -42 -80 -88.5t-82.5 -77t-91.5 -77.5q-5 -4 -83 -71l144 -334q56 -132 115 -151q61 -20 204 61l2 -6
q-43 -62 -106.5 -109t-125.5 -47z" />
    <glyph glyph-name="y" unicode="y" horiz-adv-x="948" 
d="M819 881v16q-19 -27 -62 -27q-42 0 -72 30t-30 72q0 48 29 72.5t78 24.5q107 0 106 -160q0 -119 -106 -383.5t-195 -421.5q-335 -596 -547 -596q-55 0 -94 28.5t-41 81.5q0 41 25.5 69t66.5 28q101 0 103 -141q138 51 338 360q-22 266 -72 532q-50 269 -98 382
q-48 117 -102 117t-158 -56v9q128 152 243 151q36 0 58 -16q62 -44 143 -445q53 -262 80 -530q157 298 231 508q76 210 76 295z" />
    <glyph glyph-name="z" unicode="z" horiz-adv-x="835" 
d="M665 4q-23 -24 -69 -24q-56 0 -263 10q-206 10 -366 10v8l746 934h-357q-102 0 -139 -9t-84 -56h-16l57 167h678v-8l-750 -940q282 0 400 9q103 8 160.5 30t109.5 90l14 -2q-18 -52 -32 -82q-10 -19 -28 -57q-14 -29 -26 -43q-4 -5 -16.5 -18t-18.5 -19z" />
    <glyph glyph-name="braceleft" unicode="{" horiz-adv-x="649" 
d="M481 -287l-2 -8q-171 17 -237 102t-25 291l31 158q16 98 18 174t-36 126t-117 60l2 17q120 13 182 106q60 89 92 254l31 158q37 191 132.5 283t285.5 110l-2 -8q-217 -45 -281 -367l-31 -159q-58 -302 -321 -385q230 -82 172 -385l-31 -160q-64 -322 137 -367z" />
    <glyph glyph-name="bar" unicode="|" horiz-adv-x="417" 
d="M457 1544l-346 -1780h-76l344 1780h78z" />
    <glyph glyph-name="braceright" unicode="}" horiz-adv-x="649" 
d="M-115 -295l2 8q215 45 279 367l31 160q58 302 323 385q-232 82 -174 385l31 159q63 322 -137 367l2 8q170 -17 236 -102q66 -86 26 -291l-31 -158q-17 -97 -18 -174q-3 -76 35 -126q37 -49 118 -60l-2 -17q-120 -13 -182 -106q-60 -89 -92 -254l-31 -158
q-38 -190 -133 -282.5t-283 -110.5z" />
    <glyph glyph-name="asciitilde" unicode="~" horiz-adv-x="1167" 
d="M588 550q-131 58 -198 58q-57 0 -118.5 -31.5t-91.5 -78.5l-30 22q133 186 299 187q74 -2 205 -59q132 -58 192 -58q53 0 116 35t95 80l24 -21q-141 -194 -297 -192q-67 0 -196 58z" />
    <glyph glyph-name="exclamdown" unicode="&#xa1;" horiz-adv-x="520" 
d="M236 954q0 47 34 81t80 34t80.5 -34.5t34.5 -80.5q0 -47 -34 -80.5t-81 -33.5t-80.5 33.5t-33.5 80.5zM29 -331q-1 49 113 454q118 418 149 543h14q-12 -100 -42 -413q-31 -318 -73 -566q-6 -36 -32 -63.5t-61 -27.5q-68 2 -68 73z" />
    <glyph glyph-name="cent" unicode="&#xa2;" horiz-adv-x="1167" 
d="M510 276l182 930q-133 -40 -232 -202q-100 -161 -100 -410q0 -248 150 -318zM861 1020q-95 0 -95 94q0 49 45 94q0 6 -51 9h-6l-189 -959q18 -2 43 -2q49 0 90.5 11.5t78.5 36t64.5 49.5t65.5 67l13 -14q-52 -93 -150 -170q-97 -76 -215 -76h-8l-35 -180h-59l36 186
q-69 14 -121.5 53t-83 94t-45.5 117.5t-16 132.5q-1 252 145 447q145 192 332 233l37 191h60l-37 -183l20 2q43 -1 80.5 -9.5t69.5 -35.5t32 -70q0 -49 -27 -83.5t-74 -34.5z" />
    <glyph glyph-name="sterling" unicode="&#xa3;" horiz-adv-x="1110" 
d="M713 0h-699l2 8q359 241 361 539q0 76 -10 160h-201l12 55h182q-10 74 -10 176q0 98 45 204t117 168q148 132 300 132q149 0 229 -53q79 -52 79 -117q0 -53 -27 -85t-79 -32q-43 0 -73 27.5t-30 69.5q0 45 36 70.5t83 25.5q-31 25 -85 41t-97 16q-73 0 -132 -25
t-98 -66.5t-66 -98.5t-38.5 -119.5t-11.5 -130.5t12 -203h412l-13 -55h-397v-52q0 -155 -87 -293t-226 -233h520q107 1 144 21q38 20 65 83h8q0 -233 -227 -233z" />
    <glyph glyph-name="currency" unicode="&#xa4;" horiz-adv-x="1167" 
d="M585 307q166 0 280 120.5t112 287.5q0 167 -113 287t-280 120t-280.5 -120t-113.5 -288t114 -287.5t281 -119.5zM1001 195l-110 116q-122 -104 -307 -104t-303 104l-113 -116l-105 104l115 117q-102 120 -102 306t102 296l-115 110l105 107l113 -113q122 100 302 100
t308 -100l110 113l103 -107l-111 -110q99 -111 99 -298t-99 -304l111 -117z" />
    <glyph glyph-name="yen" unicode="&#xa5;" horiz-adv-x="1167" 
d="M694 8l-2 -8h-479l2 8q59 14 98.5 36t64.5 57t39 75t25 103l19 94h-318l13 65h317l35 180h-318l13 66h284l-90 299q-95 315 -174 379q-28 22 -44 29t-52 14l2 8h430l-2 -8q-83 -17 -105 -42q-24 -27 -16 -75q16 -98 80 -299l96 -305h11l223 328q167 245 177 305
q5 31 -20.5 52.5t-82.5 35.5l2 8h393l-2 -8q-77 -12 -157 -86q-76 -70 -247 -313l-225 -322h266l-12 -66h-299l-35 -180h299l-12 -65h-299l-19 -94q-27 -126 -2 -185q26 -61 123 -86z" />
    <glyph glyph-name="brokenbar" unicode="&#xa6;" horiz-adv-x="417" 
d="M420 1544l-148 -756h-77l147 756h78zM221 520l-147 -756h-76l145 756h78z" />
    <glyph glyph-name="section" unicode="&#xa7;" horiz-adv-x="1052" 
d="M217 719q0 -83 102 -141l338 -203q69 28 123 94.5t54 135.5q0 72 -113 138l-332 193q-172 -94 -172 -217zM98 680q0 90 72 152q74 63 199 116q-111 80 -111 204q0 68 34.5 124t89.5 90.5t119 53t128 18.5q147 0 227 -56t80 -116q0 -52 -30 -87.5t-81 -35.5
q-44 2 -71.5 27t-28.5 68q0 46 36.5 71.5t84.5 25.5q-82 55 -192 55q-107 0 -189 -62.5t-82 -166.5q0 -60 36.5 -99t102.5 -77l279 -158q151 -86 149 -196q0 -164 -264 -275q102 -74 102 -170q0 -159 -130 -262q-131 -104 -276 -104q-146 0 -237 70q-90 70 -90 153
q0 49 36.5 83t85.5 34q43 0 74.5 -28t31.5 -71q0 -93 -131 -122q74 -68 204 -68q55 0 110 13.5t105 40t81.5 73t31.5 105.5q0 105 -117 182l-336 215q-63 40 -98 80.5t-35 99.5z" />
    <glyph glyph-name="dieresis" unicode="&#xa8;" horiz-adv-x="684" 
d="M414 1331q0 -39 -28.5 -66.5t-68.5 -29.5q-39 0 -66.5 28.5t-29.5 68.5q0 38 29.5 67t67.5 29t67 -29.5t29 -67.5zM709 1331q0 -39 -28.5 -66.5t-68.5 -29.5q-40 0 -68 28.5t-28 68.5q0 38 29 67t67 29t67.5 -29.5t29.5 -67.5z" />
    <glyph glyph-name="copyright" unicode="&#xa9;" horiz-adv-x="1630" 
d="M375 236q178 -199 440 -199t440 199q177 198 179 469q0 270 -178 467q-178 198 -441 198q-261 0 -440 -198q-178 -197 -178 -468t178 -468zM815 -25q-299 0 -503 213q-204 212 -204 516t204 517t503 213t503 -213t204 -516t-204 -517q-204 -215 -503 -213zM371 694
q0 194 152 325q152 130 341 130q143 0 266 -55v-201h-8q-42 106 -104.5 161.5t-165.5 55.5q-110 0 -190 -58.5t-117 -149t-37 -198.5q0 -182 103 -297q104 -114 257 -114q182 0 281 233h8l-16 -204q-45 -29 -128.5 -45t-152.5 -17q-132 0 -241.5 50t-178.5 150.5t-69 233.5z
" />
    <glyph glyph-name="ordfeminine" unicode="&#xaa;" horiz-adv-x="753" 
d="M707 602l-13 -72h-600l10 72h603zM606 713q-86 0 -86 86q0 21 2 43q-123 -127 -208 -127q-94 0 -136.5 63t-42.5 162q0 172 124 323t278 150q57 0 120 -18l74 26l-98 -549q-16 -94 12 -94q61 0 133 39l4 -6q-104 -98 -176 -98zM332 1246q-76 -131 -76 -300
q0 -168 82 -168q48 0 101 32t92 74l78 452q-49 42 -113 42q-88 0 -164 -132z" />
    <glyph glyph-name="guillemotleft" unicode="&#xab;" horiz-adv-x="960" 
d="M260 535l223 -330h-18l-397 338l530 340h18zM662 535l165 -263h-8l-323 271l426 272h10z" />
    <glyph glyph-name="logicalnot" unicode="&#xac;" horiz-adv-x="1167" 
d="M1057 631l-96 -500h-115l76 393h-738l21 107h852z" />
    <glyph glyph-name="registered" unicode="&#xae;" horiz-adv-x="1630" 
d="M375 236q178 -199 440 -199t440 199q177 198 179 469q0 270 -178 467q-178 198 -441 198q-261 0 -440 -198q-178 -197 -178 -468t178 -468zM815 -25q-299 0 -503 213q-204 212 -204 516t204 517t503 213t503 -213t204 -516t-204 -517q-204 -215 -503 -213zM690 1110v-412
h127q93 0 154 57t61 149q0 94 -58 150t-153 56h-131zM1190 262v-8h-139l-224 397h-137v-231q0 -49 6 -67q4 -13 7 -25q2 -7 13 -18q13 -13 14 -15q2 -1 42 -33v-8h-274v8q35 24 49 36q31 28 33 122v571q0 58 -17.5 92t-64.5 68v8h327q59 0 113.5 -13t102.5 -39.5t77 -74.5
t29 -110q1 -105 -61 -167q-61 -60 -148 -87z" />
    <glyph glyph-name="macron" unicode="&#xaf;" horiz-adv-x="581" 
d="M676 1321l-14 -78h-512l14 78h512z" />
    <glyph glyph-name="degree" unicode="&#xb0;" horiz-adv-x="835" 
d="M416 850q102 0 168 75q66 76 65 181q0 106 -64.5 181t-168.5 75t-168 -75.5t-64 -180.5t64 -180.5t168 -75.5zM752 1106q0 -139 -97.5 -234.5t-236.5 -95.5t-236.5 96t-97.5 234t97.5 234t236.5 96t236.5 -95.5t97.5 -234.5z" />
    <glyph glyph-name="plusminus" unicode="&#xb1;" horiz-adv-x="1167" 
d="M920 106l-23 -106h-852l23 106h852zM1020 631l-23 -107h-368l-76 -393h-115l76 393h-369l23 107h367l77 393h115l-78 -393h371z" />
    <glyph glyph-name="twosuperior" unicode="&#xb2;" horiz-adv-x="806" 
d="M491 1382q-71 0 -153 -41q35 -8 57.5 -38.5t22.5 -67.5q0 -40 -31.5 -68.5t-72.5 -28.5q-40 0 -68.5 30t-30.5 71q0 75 94 130q94 56 221 56q129 0 196 -58q68 -58 67 -127q0 -124 -111 -215q-32 -27 -120 -92q-81 -59 -122 -95l-229 -197h473l-20 -109h-586l10 50
l299 276q37 34 61 57t66.5 68.5t67.5 81t45.5 79.5t20.5 80q0 71 -43 114.5t-114 43.5z" />
    <glyph glyph-name="threesuperior" unicode="&#xb3;" horiz-adv-x="806" 
d="M721 872q0 -162 -123 -258t-276 -96q-102 0 -159 36t-57 84q0 45 27.5 76.5t72.5 31.5q42 0 68 -24q26 -25 25 -58q0 -55 -70 -107q27 -8 74 -8q109 0 197 72t88 223q0 79 -57 123.5t-138 44.5q-12 0 -41 -4l-6 6l277 278h-398l23 121h547l-2 -8l-283 -291
q91 -13 152 -79q61 -65 59 -163z" />
    <glyph glyph-name="acute" unicode="&#xb4;" horiz-adv-x="489" 
d="M229 1163h-10q120 91 166 250h172q-117 -159 -328 -250z" />
    <glyph glyph-name="mu" unicode="&#xb5;" 
d="M883 -27q-111 0 -111 136q0 19 10 106q-87 -86 -210.5 -164t-213.5 -78q-130 0 -161 111l-9 -64q-11 -74 21 -238q31 -162 25 -194q-5 -27 -33.5 -53.5t-54.5 -26.5q-106 0 -87 97l238 1214q10 53 10 84q0 74 -53 74q-71 0 -193 -72v8q162 156 254 156q111 0 111 -135
q0 -72 -20 -170l-93 -442q-14 -65 -14 -119q0 -144 113 -146q87 -1 189.5 59t186.5 138l146 788h119l-152 -819q-10 -53 -10 -84q0 -36 13.5 -54t39.5 -17q79 -1 191 65v-8q-158 -152 -252 -152z" />
    <glyph glyph-name="paragraph" unicode="&#xb6;" horiz-adv-x="1077" 
d="M518 1413h639l-2 -8q-96 -39 -117 -135l-338 -1741h-92l350 1796h-340l-350 -1796h-92l248 1276q-162 0 -226 87q-64 86 -40 216q27 139 123 222t237 83z" />
    <glyph glyph-name="periodcentered" unicode="&#xb7;" horiz-adv-x="456" 
d="M344 729q0 -45 -35 -80t-80 -35t-78.5 34.5t-35.5 80.5q0 45 35 80t80 35t79.5 -35t34.5 -80z" />
    <glyph glyph-name="cedilla" unicode="&#xb8;" horiz-adv-x="489" 
d="M182 -403q154 0 154 120q0 35 -31.5 63.5t-70.5 41.5t-74 14l176 164h37l-99 -90q64 -6 119 -55t55 -111q0 -57 -39.5 -98t-91.5 -57.5t-108 -16.5q-115 0 -182 53l14 13q71 -41 141 -41z" />
    <glyph glyph-name="onesuperior" unicode="&#xb9;" horiz-adv-x="806" 
d="M582 541l-2 -9h-402l2 9q99 28 136 73q37 44 65 197l86 436q-107 -20 -197 -26l-4 10q108 33 179.5 76.5t160.5 124.5h8l-120 -621q-27 -161 -13 -203q14 -41 101 -67z" />
    <glyph glyph-name="ordmasculine" unicode="&#xba;" horiz-adv-x="829" 
d="M721 602l-12 -55h-629l12 55h629zM436 750q106 0 172 95t92 223q26 130 -8 220q-33 92 -135 92q-57 0 -105 -29.5t-80 -77.5t-52 -99.5t-31 -106.5q-10 -71 -10 -145q2 -75 43 -123.5t114 -48.5zM428 717q-141 0 -218 101t-48 250q27 144 141.5 244.5t259.5 100.5
q139 1 218 -99q79 -99 50 -246q-28 -145 -143 -248t-260 -103z" />
    <glyph glyph-name="guillemotright" unicode="&#xbb;" horiz-adv-x="960" 
d="M430 883l463 -340l-463 -338h-18l290 346l-290 332h18zM92 815l373 -272l-375 -271h-8l219 279l-219 264h10z" />
    <glyph glyph-name="onequarter" unicode="&#xbc;" horiz-adv-x="1986" 
d="M1630 242h-456v8l653 651h41l-111 -575h150l-17 -84h-149q-25 -142 -11 -175q14 -32 95 -59l-2 -8h-369l2 8q98 27 122 60q23 32 52 174zM1323 326h324l75 395zM1751 1499l-1311 -1595h-82l1313 1595h80zM582 541l-2 -9h-402l2 9q99 28 136 73q37 44 65 197l86 436
q-107 -20 -197 -26l-4 10q108 33 179.5 76.5t160.5 124.5h8l-120 -621q-27 -161 -13 -203q14 -41 101 -67z" />
    <glyph glyph-name="onehalf" unicode="&#xbd;" horiz-adv-x="1986" 
d="M1716 532q66 88 66 159q0 72 -42 115.5t-114 43.5q-71 0 -153 -41q34 -8 56.5 -40t22.5 -67q0 -40 -31 -68t-72 -28q-43 0 -71 31q-29 33 -28 70q0 75 94 130q95 56 221 56q128 0 195 -58q68 -59 68 -128q0 -118 -112 -214q-47 -40 -119 -93q-81 -59 -122 -95l-230 -196
h474l-21 -109h-586l11 49l299 277q132 122 194 206zM1751 1499l-1311 -1595h-82l1313 1595h80zM582 541l-2 -9h-402l2 9q99 28 136 73q37 44 65 197l86 436q-107 -20 -197 -26l-4 10q108 33 179.5 76.5t160.5 124.5h8l-120 -621q-27 -161 -13 -203q14 -41 101 -67z" />
    <glyph glyph-name="threequarters" unicode="&#xbe;" horiz-adv-x="1986" 
d="M1751 1499l-1311 -1595h-82l1313 1595h80zM1630 242h-456v8l653 651h41l-111 -575h150l-17 -84h-149q-25 -142 -11 -175q14 -32 95 -59l-2 -8h-369l2 8q98 27 122 60q23 32 52 174zM1323 326h324l75 395zM721 872q0 -162 -123 -258t-276 -96q-102 0 -159 36t-57 84
q0 45 27.5 76.5t72.5 31.5q42 0 68 -24q26 -25 25 -58q0 -55 -70 -107q27 -8 74 -8q109 0 197 72t88 223q0 79 -57 123.5t-138 44.5q-12 0 -41 -4l-6 6l277 278h-398l23 121h547l-2 -8l-283 -291q91 -13 152 -79q61 -65 59 -163z" />
    <glyph glyph-name="questiondown" unicode="&#xbf;" horiz-adv-x="964" 
d="M547 954q0 46 34.5 80.5t80.5 34.5t80 -34.5t34 -80.5t-34 -80t-80 -34q-47 0 -81 33.5t-34 80.5zM434 -342q146 0 268 129q-8 -2 -46 -2q-40 0 -69 39q-30 39 -20 88q18 94 115 94q48 0 83 -41q34 -40 23 -94q-18 -94 -139 -184q-122 -90 -283 -90q-162 0 -243 99
q-82 99 -52 254t192 308q24 23 69.5 66t67.5 64q166 159 198 290h14q-11 -63 -36.5 -123.5t-65 -121t-72.5 -103.5t-84 -105q-123 -150 -148 -281q-26 -133 43 -209q69 -77 185 -77z" />
    <glyph glyph-name="Agrave" unicode="&#xc0;" horiz-adv-x="1384" 
d="M1042 1532h-10q-197 92 -280 250h163q16 -154 127 -250zM424 571h502l-115 686zM1292 8l-2 -8h-456l2 8q128 24 142 96q13 70 -44 418h-539q-179 -321 -196 -396q-17 -74 47 -101q36 -10 65 -17l-2 -8h-415l2 8q72 20 120 60q95 80 326 483l516 893h55l152 -891
q45 -268 71 -359q29 -102 57 -136q29 -33 99 -50z" />
    <glyph glyph-name="Aacute" unicode="&#xc1;" horiz-adv-x="1384" 
d="M770 1532h-10q120 91 166 250h172q-117 -159 -328 -250zM424 571h502l-115 686zM1292 8l-2 -8h-456l2 8q128 24 142 96q13 70 -44 418h-539q-179 -321 -196 -396q-17 -74 47 -101q36 -10 65 -17l-2 -8h-415l2 8q72 20 120 60q95 80 326 483l516 893h55l152 -891
q45 -268 71 -359q29 -102 57 -136q29 -33 99 -50z" />
    <glyph glyph-name="Acircumflex" unicode="&#xc2;" horiz-adv-x="1384" 
d="M967 1782l141 -250h-16l-185 141l-256 -141h-16l231 250h101zM424 571h502l-115 686zM1292 8l-2 -8h-456l2 8q128 24 142 96q13 70 -44 418h-539q-179 -321 -196 -396q-17 -74 47 -101q36 -10 65 -17l-2 -8h-415l2 8q72 20 120 60q95 80 326 483l516 893h55l152 -891
q45 -268 71 -359q29 -102 57 -136q29 -33 99 -50z" />
    <glyph glyph-name="Atilde" unicode="&#xc3;" horiz-adv-x="1384" 
d="M1012 1634q-48 0 -133 30t-119 30q-89 0 -127 -62l-17 4q20 40 43.5 64t64.5 48q55 32 108 32q54 0 138 -27q86 -27 120 -27q86 0 131 74l16 -4q-85 -162 -225 -162zM424 571h502l-115 686zM1292 8l-2 -8h-456l2 8q128 24 142 96q13 70 -44 418h-539q-179 -321 -196 -396
q-17 -74 47 -101q36 -10 65 -17l-2 -8h-415l2 8q72 20 120 60q95 80 326 483l516 893h55l152 -891q45 -268 71 -359q29 -102 57 -136q29 -33 99 -50z" />
    <glyph glyph-name="Adieresis" unicode="&#xc4;" horiz-adv-x="1384" 
d="M846 1700q0 -39 -28.5 -67.5t-67.5 -28.5q-40 0 -68.5 28t-28.5 68t28.5 68t68.5 28t68 -28t28 -68zM1141 1700q0 -40 -28.5 -68t-68.5 -28t-68 28t-28 68q0 39 28.5 67.5t67.5 28.5q40 0 68.5 -28t28.5 -68zM424 571h502l-115 686zM1292 8l-2 -8h-456l2 8q128 24 142 96
q13 70 -44 418h-539q-179 -321 -196 -396q-17 -74 47 -101q36 -10 65 -17l-2 -8h-415l2 8q72 20 120 60q95 80 326 483l516 893h55l152 -891q45 -268 71 -359q29 -102 57 -136q29 -33 99 -50z" />
    <glyph glyph-name="Aring" unicode="&#xc5;" horiz-adv-x="1384" 
d="M424 571h502l-115 686zM666 1507q0 86 63 147.5t149 61.5q87 0 150.5 -61t63.5 -147q0 -70 -43.5 -125.5t-111.5 -76.5l128 -753q45 -268 71 -359q29 -102 57 -136q29 -33 99 -50l-2 -8h-456l2 8q128 24 142 96q13 70 -44 418h-539q-179 -321 -196 -396q-17 -74 47 -101
q36 -10 65 -17l-2 -8h-415l2 8q72 20 120 60q95 80 326 483l443 769q-55 27 -87 77t-32 110zM879 1352q65 0 107 45.5t42 110.5t-42.5 110t-106.5 45q-65 0 -107.5 -45t-44.5 -111q2 -66 44.5 -110.5t107.5 -44.5z" />
    <glyph glyph-name="AE" unicode="&#xc6;" horiz-adv-x="1878" 
d="M492 571h462l156 797h-12zM1571 1368h-330l-119 -618h308q70 0 108 26q37 25 104 109h9l-62 -316h-8q-34 82 -63 109q-28 27 -99 27h-307l-127 -660h387q83 2 113 23q51 36 92 80q46 50 149 174h9l-105 -322h-960l2 8q117 28 158 74q40 45 69 197l47 243h-491
q-233 -308 -273 -388t25 -109q16 -8 55 -17l-2 -8h-405l2 8q105 28 215 132q106 100 344 411l446 584q113 147 78 197q-25 36 -110 60q-20 5 -35 10q-8 2 -13 3l2 8h1063l-57 -289h-8q-9 27 -21 59l-17 51q-31 94 -67 113q-34 18 -59 20q-15 1 -47 1z" />
    <glyph glyph-name="Ccedilla" unicode="&#xc7;" horiz-adv-x="1394" 
d="M827 -256q0 -57 -39.5 -97.5t-92 -57.5t-107.5 -17q-117 0 -182 53l14 13q73 -41 141 -41q154 0 154 120q1 51 -59 84t-117 35l145 135q-300 21 -458 227q-157 205 -97 509q44 224 188 394q138 161 321.5 251t389.5 90q87 0 204.5 -23t188.5 -57l-53 -270h-8
q-56 315 -365 315q-255 0 -451 -199q-195 -198 -254 -500q-58 -299 68 -502q126 -202 390 -202q84 0 160 27t139.5 78t113.5 107t101 130h8l-82 -291q-75 -36 -200 -61q-132 -26 -249 -25l-20 2l-66 -61q59 -6 117 -54t57 -112z" />
    <glyph glyph-name="Egrave" unicode="&#xc8;" horiz-adv-x="1136" 
d="M893 1532h-10q-196 91 -281 250h164q16 -154 127 -250zM870 1368h-335l-119 -618h313q70 0 108 26q36 24 105 109h8l-61 -316h-8q-33 80 -64 109q-29 27 -98 27h-313l-127 -660h393q83 2 113 23q50 36 95 84q47 52 146 170h8l-104 -322h-959l2 8q115 28 156 74
q42 46 70 197l166 856q27 141 3 191q-25 51 -124 79l2 8h901l-57 -289h-9q-6 15 -31 90q-38 111 -72 132q-34 19 -59 21q-16 1 -49 1z" />
    <glyph glyph-name="Eacute" unicode="&#xc9;" horiz-adv-x="1136" 
d="M680 1532h-10q120 91 166 250h172q-117 -159 -328 -250zM870 1368h-335l-119 -618h313q70 0 108 26q36 24 105 109h8l-61 -316h-8q-33 80 -64 109q-29 27 -98 27h-313l-127 -660h393q83 2 113 23q50 36 95 84q47 52 146 170h8l-104 -322h-959l2 8q115 28 156 74
q42 46 70 197l166 856q27 141 3 191q-25 51 -124 79l2 8h901l-57 -289h-9q-6 15 -31 90q-38 111 -72 132q-34 19 -59 21q-16 1 -49 1z" />
    <glyph glyph-name="Ecircumflex" unicode="&#xca;" horiz-adv-x="1136" 
d="M870 1782l142 -250h-17l-184 141l-256 -141h-16l231 250h100zM870 1368h-335l-119 -618h313q70 0 108 26q36 24 105 109h8l-61 -316h-8q-33 80 -64 109q-29 27 -98 27h-313l-127 -660h393q83 2 113 23q50 36 95 84q47 52 146 170h8l-104 -322h-959l2 8q115 28 156 74
q42 46 70 197l166 856q27 141 3 191q-25 51 -124 79l2 8h901l-57 -289h-9q-6 15 -31 90q-38 111 -72 132q-34 19 -59 21q-16 1 -49 1z" />
    <glyph glyph-name="Edieresis" unicode="&#xcb;" horiz-adv-x="1136" 
d="M729 1700q0 -40 -28.5 -68t-68.5 -28q-39 0 -67 28q-29 29 -28 68q2 40 29 68t67 28t67 -28t29 -68zM1024 1700q0 -39 -28.5 -67.5t-67.5 -28.5q-40 0 -68.5 28t-28.5 68t28.5 68t68.5 28t68 -28t28 -68zM870 1368h-335l-119 -618h313q70 0 108 26q36 24 105 109h8
l-61 -316h-8q-33 80 -64 109q-29 27 -98 27h-313l-127 -660h393q83 2 113 23q50 36 95 84q47 52 146 170h8l-104 -322h-959l2 8q115 28 156 74q42 46 70 197l166 856q27 141 3 191q-25 51 -124 79l2 8h901l-57 -289h-9q-6 15 -31 90q-38 111 -72 132q-34 19 -59 21
q-16 1 -49 1z" />
    <glyph glyph-name="Igrave" unicode="&#xcc;" horiz-adv-x="614" 
d="M637 1532h-10q-196 91 -281 250h164q16 -154 127 -250zM444 8l-2 -8h-471l2 8q51 13 84 27t56 31t38 46t24 60.5t20 85.5l174 897q25 89 13 140q-10 49 -38 69q-28 21 -100 41l2 8h473l-2 -8q-63 -15 -100 -31.5t-61.5 -47.5t-36.5 -67.5t-25 -103.5l-175 -897
q-44 -159 25 -210q26 -19 100 -40z" />
    <glyph glyph-name="Iacute" unicode="&#xcd;" horiz-adv-x="614" 
d="M436 1532h-10q120 91 166 250h172q-117 -159 -328 -250zM444 8l-2 -8h-471l2 8q51 13 84 27t56 31t38 46t24 60.5t20 85.5l174 897q25 89 13 140q-10 49 -38 69q-28 21 -100 41l2 8h473l-2 -8q-63 -15 -100 -31.5t-61.5 -47.5t-36.5 -67.5t-25 -103.5l-175 -897
q-44 -159 25 -210q26 -19 100 -40z" />
    <glyph glyph-name="Icircumflex" unicode="&#xce;" horiz-adv-x="614" 
d="M598 1782l141 -250h-16l-184 141l-256 -141h-17l232 250h100zM444 8l-2 -8h-471l2 8q51 13 84 27t56 31t38 46t24 60.5t20 85.5l174 897q25 89 13 140q-10 49 -38 69q-28 21 -100 41l2 8h473l-2 -8q-63 -15 -100 -31.5t-61.5 -47.5t-36.5 -67.5t-25 -103.5l-175 -897
q-44 -159 25 -210q26 -19 100 -40z" />
    <glyph glyph-name="Idieresis" unicode="&#xcf;" horiz-adv-x="614" 
d="M489 1700q-2 -40 -29 -68t-67 -28t-67 28t-29 68q0 40 28.5 68t68.5 28q39 0 66 -28t29 -68zM784 1700q0 -40 -28 -68t-68 -28t-68 28t-28 68q0 39 28.5 67.5t67.5 28.5q40 0 68 -28t28 -68zM444 8l-2 -8h-471l2 8q51 13 84 27t56 31t38 46t24 60.5t20 85.5l174 897
q25 89 13 140q-10 49 -38 69q-28 21 -100 41l2 8h473l-2 -8q-63 -15 -100 -31.5t-61.5 -47.5t-36.5 -67.5t-25 -103.5l-175 -897q-44 -159 25 -210q26 -19 100 -40z" />
    <glyph glyph-name="Eth" unicode="&#xd0;" horiz-adv-x="1540" 
d="M293 45h293q305 0 507 174.5t260 477.5q58 302 -80 487q-138 184 -407 184h-317l-119 -612h303l-10 -56h-303zM569 0h-589l2 8q115 28 156 74q40 45 69 197l82 421h-201l10 56h201l74 379q27 158 5 199q-23 43 -126 71l2 8h612q332 0 520 -201q188 -200 124 -534
t-319 -506q-254 -172 -622 -172z" />
    <glyph glyph-name="Ntilde" unicode="&#xd1;" horiz-adv-x="1611" 
d="M1151 1634q-47 0 -133 30t-119 30q-89 0 -127 -62l-16 4q20 40 43.5 64t64.5 48q53 32 106 32q54 0 139 -27t120 -27q86 0 131 74l16 -4q-86 -162 -225 -162zM1513 987l-196 -1007h-60l-813 1290l-163 -844q-45 -244 -31 -316q13 -70 110 -102l-2 -8h-378l2 8
q110 33 152 105q43 74 89 313l152 780q16 81 -23 128q-38 45 -141 71l2 8h307l780 -1231l156 805q45 244 31 316q-13 71 -111 102l2 8h381l-2 -8q-76 -23 -114 -59t-67 -110q-30 -80 -63 -249z" />
    <glyph glyph-name="Ograve" unicode="&#xd2;" horiz-adv-x="1617" 
d="M1141 1532h-11q-197 92 -280 250h164q16 -154 127 -250zM354 208q120 -204 359 -204t437 203q199 203 257 500q57 297 -64 499t-359 201q-238 0 -436 -203q-197 -203 -256 -498q-58 -293 62 -498zM1252 169q-257 -200 -544 -200q-288 0 -465 218q-178 218 -116 532
q39 203 176.5 374t328.5 262q182 87 336 87q219 0 381 -123.5t215 -336.5q36 -145 5 -304q-62 -311 -317 -509z" />
    <glyph glyph-name="Oacute" unicode="&#xd3;" horiz-adv-x="1617" 
d="M905 1532h-10q120 91 166 250h172q-117 -159 -328 -250zM354 208q120 -204 359 -204t437 203q199 203 257 500q57 297 -64 499t-359 201q-238 0 -436 -203q-197 -203 -256 -498q-58 -293 62 -498zM1252 169q-257 -200 -544 -200q-288 0 -465 218q-178 218 -116 532
q39 203 176.5 374t328.5 262q182 87 336 87q219 0 381 -123.5t215 -336.5q36 -145 5 -304q-62 -311 -317 -509z" />
    <glyph glyph-name="Ocircumflex" unicode="&#xd4;" horiz-adv-x="1617" 
d="M1087 1782l142 -250h-17l-184 141l-256 -141h-16l231 250h100zM354 208q120 -204 359 -204t437 203q199 203 257 500q57 297 -64 499t-359 201q-238 0 -436 -203q-197 -203 -256 -498q-58 -293 62 -498zM1252 169q-257 -200 -544 -200q-288 0 -465 218q-178 218 -116 532
q39 203 176.5 374t328.5 262q182 87 336 87q219 0 381 -123.5t215 -336.5q36 -145 5 -304q-62 -311 -317 -509z" />
    <glyph glyph-name="Otilde" unicode="&#xd5;" horiz-adv-x="1617" 
d="M1114 1634q-48 0 -133 30t-119 30q-89 0 -127 -62l-16 4q24 42 45.5 65t62.5 47q53 32 107 32t138 -27q86 -27 120 -27q86 0 131 74l16 -4q-85 -162 -225 -162zM354 208q120 -204 359 -204t437 203q199 203 257 500q57 297 -64 499t-359 201q-238 0 -436 -203
q-197 -203 -256 -498q-58 -293 62 -498zM1252 169q-257 -200 -544 -200q-288 0 -465 218q-178 218 -116 532q39 203 176.5 374t328.5 262q182 87 336 87q219 0 381 -123.5t215 -336.5q36 -145 5 -304q-62 -311 -317 -509z" />
    <glyph glyph-name="Odieresis" unicode="&#xd6;" horiz-adv-x="1617" 
d="M967 1700q0 -40 -28.5 -68t-68.5 -28t-68 28t-28 68q0 39 28.5 67.5t67.5 28.5q40 0 68.5 -28t28.5 -68zM1262 1700q0 -40 -28.5 -68t-68.5 -28t-67 28t-29 68q0 40 28.5 68t68.5 28q39 0 67.5 -28.5t28.5 -67.5zM354 208q120 -204 359 -204t437 203q199 203 257 500
q57 297 -64 499t-359 201q-238 0 -436 -203q-197 -203 -256 -498q-58 -293 62 -498zM1252 169q-257 -200 -544 -200q-288 0 -465 218q-178 218 -116 532q39 203 176.5 374t328.5 262q182 87 336 87q219 0 381 -123.5t215 -336.5q36 -145 5 -304q-62 -311 -317 -509z" />
    <glyph glyph-name="multiply" unicode="&#xd7;" horiz-adv-x="1167" 
d="M215 285l293 293l-293 292l76 76l293 -293l293 293l75 -76l-293 -292l293 -293l-75 -76l-293 293l-293 -293z" />
    <glyph glyph-name="Oslash" unicode="&#xd8;" horiz-adv-x="1617" 
d="M985 1407q-239 0 -437 -203q-199 -205 -254 -492q-56 -290 50 -485l965 1026q-121 154 -324 154zM1339 1210l-970 -1026q121 -180 351 -180t430 203q199 203 257 501q59 299 -68 502zM1006 1442q192 0 354 -135l160 170l36 -35l-157 -168q109 -106 157 -262
q48 -155 13 -334q-62 -311 -317 -509q-257 -200 -545 -200q-229 0 -400 150l-174 -187l-33 37l172 183q-211 225 -145 567q38 199 169 365.5t319 262t391 95.5z" />
    <glyph glyph-name="Ugrave" unicode="&#xd9;" horiz-adv-x="1579" 
d="M1157 1532h-10q-196 91 -281 250h164q16 -154 127 -250zM716 -31q-248 0 -386 111q-137 111 -101 301l152 774q26 125 0 173q-26 49 -127 77l2 8h479l-2 -8q-112 -29 -154.5 -79.5t-66.5 -170.5l-158 -803q-30 -143 72 -230t309 -87q93 0 177 19.5t157.5 60t125.5 110
t71 162.5l116 600q43 228 28 307q-15 78 -110 111l3 8h380l-2 -8q-106 -33 -151 -110q-45 -76 -90 -308l-119 -606q-21 -109 -79 -190.5t-141 -129t-179.5 -70.5t-205.5 -22z" />
    <glyph glyph-name="Uacute" unicode="&#xda;" horiz-adv-x="1579" 
d="M879 1532h-11q120 91 166 250h172q-115 -159 -327 -250zM716 -31q-248 0 -386 111q-137 111 -101 301l152 774q26 125 0 173q-26 49 -127 77l2 8h479l-2 -8q-112 -29 -154.5 -79.5t-66.5 -170.5l-158 -803q-30 -143 72 -230t309 -87q93 0 177 19.5t157.5 60t125.5 110
t71 162.5l116 600q43 228 28 307q-15 78 -110 111l3 8h380l-2 -8q-106 -33 -151 -110q-45 -76 -90 -308l-119 -606q-21 -109 -79 -190.5t-141 -129t-179.5 -70.5t-205.5 -22z" />
    <glyph glyph-name="Ucircumflex" unicode="&#xdb;" horiz-adv-x="1579" 
d="M1114 1782l141 -250h-16l-184 141l-256 -141h-17l232 250h100zM716 -31q-248 0 -386 111q-137 111 -101 301l152 774q26 125 0 173q-26 49 -127 77l2 8h479l-2 -8q-112 -29 -154.5 -79.5t-66.5 -170.5l-158 -803q-30 -143 72 -230t309 -87q93 0 177 19.5t157.5 60
t125.5 110t71 162.5l116 600q43 228 28 307q-15 78 -110 111l3 8h380l-2 -8q-106 -33 -151 -110q-45 -76 -90 -308l-119 -606q-21 -109 -79 -190.5t-141 -129t-179.5 -70.5t-205.5 -22z" />
    <glyph glyph-name="Udieresis" unicode="&#xdc;" horiz-adv-x="1579" 
d="M973 1700q0 -40 -28.5 -68t-68.5 -28q-39 0 -67.5 28.5t-28.5 67.5q0 40 28.5 68t68.5 28t67 -28t29 -68zM1268 1700q0 -40 -28.5 -68t-68.5 -28t-67 28t-29 68q0 40 28.5 68t68.5 28q39 0 67.5 -28.5t28.5 -67.5zM716 -31q-248 0 -386 111q-137 111 -101 301l152 774
q26 125 0 173q-26 49 -127 77l2 8h479l-2 -8q-112 -29 -154.5 -79.5t-66.5 -170.5l-158 -803q-30 -143 72 -230t309 -87q93 0 177 19.5t157.5 60t125.5 110t71 162.5l116 600q43 228 28 307q-15 78 -110 111l3 8h380l-2 -8q-106 -33 -151 -110q-45 -76 -90 -308l-119 -606
q-21 -109 -79 -190.5t-141 -129t-179.5 -70.5t-205.5 -22z" />
    <glyph glyph-name="Yacute" unicode="&#xdd;" horiz-adv-x="1292" 
d="M743 1532h-10q120 91 166 250h172q-117 -159 -328 -250zM743 623l-67 -344q-14 -79 -14 -129q0 -60 35.5 -92.5t99.5 -49.5l-2 -8h-480l2 8q114 28 159 87t69 184l65 339l-135 365q-105 281 -167 349q-31 34 -53.5 48t-66.5 25l2 8h431l-3 -8q-68 -15 -96 -33
q-28 -17 -26 -74q0 -54 98 -309l125 -315l254 338q193 258 192 319q0 49 -102 74l2 8h393l-2 -8q-77 -11 -157 -86q-84 -80 -263 -313z" />
    <glyph glyph-name="Thorn" unicode="&#xde;" horiz-adv-x="1202" 
d="M348 373h232q389 0 458 350q33 173 -40 253q-73 81 -250 81h-267zM489 1102h297q228 0 332 -98t68 -287q-76 -387 -580 -387h-266l-10 -51q-23 -116 -12 -160t43 -66q33 -22 131 -45l-3 -8h-518l2 8q115 28 156 74q42 46 70 197l170 876q25 89 13 140q-10 49 -38 69
q-28 21 -100 41l2 8h479l-2 -8q-63 -15 -100 -31.5t-61.5 -47.5t-36.5 -67.5t-25 -103.5z" />
    <glyph glyph-name="germandbls" unicode="&#xdf;" horiz-adv-x="1214" 
d="M985 1296q0 87 -44.5 148t-127.5 61q-68 1 -125 -29.5t-95.5 -76.5t-69 -111t-47.5 -122.5t-30 -121.5l-182 -1050q-62 -360 -393 -486l-2 11q96 57 164 167.5t88 227.5l129 776q22 136 22 180q0 40 -29 63q-30 23 -114 36l2 8l180 35q39 204 151 359q125 173 376 173
q127 0 206 -73.5t78 -199.5q0 -122 -91 -204q-93 -85 -177 -134q-85 -49 -113 -71l-2 -8q119 -48 232 -133q64 -50 102.5 -121t38.5 -149q0 -151 -93 -264q-176 -212 -511 -212l6 31q90 5 169.5 33t142.5 76t100 123.5t37 168.5q0 177 -190 286q-87 53 -204 95l-2 17
q205 91 312 224q106 131 106 267z" />
    <glyph glyph-name="agrave" unicode="&#xe0;" horiz-adv-x="1157" 
d="M852 1163h-10q-196 91 -281 250h164q16 -154 127 -250zM647 1022q-153 0 -279 -209t-126 -481q0 -44 6 -84.5t21 -84.5t47.5 -70t78.5 -25q152 0 346 227l113 653q-40 32 -98 53t-109 21zM825 -27q-111 0 -110 136q0 59 12 124q-49 -61 -108 -115t-139 -98.5t-148 -44.5
q-97 2 -164 93q-68 92 -68 263q0 176 86.5 345.5t227.5 279.5q143 111 299 113q70 0 128 -16q60 -17 81 -17q22 0 65 33h8l-151 -846q-10 -53 -10 -84q0 -71 55 -71q75 0 190 69v-8q-162 -156 -254 -156z" />
    <glyph glyph-name="aacute" unicode="&#xe1;" horiz-adv-x="1157" 
d="M592 1163h-10q120 91 166 250h172q-117 -159 -328 -250zM647 1022q-153 0 -279 -209t-126 -481q0 -44 6 -84.5t21 -84.5t47.5 -70t78.5 -25q152 0 346 227l113 653q-40 32 -98 53t-109 21zM825 -27q-111 0 -110 136q0 59 12 124q-49 -61 -108 -115t-139 -98.5t-148 -44.5
q-97 2 -164 93q-68 92 -68 263q0 176 86.5 345.5t227.5 279.5q143 111 299 113q70 0 128 -16q60 -17 81 -17q22 0 65 33h8l-151 -846q-10 -53 -10 -84q0 -71 55 -71q75 0 190 69v-8q-162 -156 -254 -156z" />
    <glyph glyph-name="acircumflex" unicode="&#xe2;" horiz-adv-x="1157" 
d="M821 1413l142 -250h-17l-184 142l-256 -142h-17l232 250h100zM647 1022q-153 0 -279 -209t-126 -481q0 -44 6 -84.5t21 -84.5t47.5 -70t78.5 -25q152 0 346 227l113 653q-40 32 -98 53t-109 21zM825 -27q-111 0 -110 136q0 59 12 124q-49 -61 -108 -115t-139 -98.5
t-148 -44.5q-97 2 -164 93q-68 92 -68 263q0 176 86.5 345.5t227.5 279.5q143 111 299 113q70 0 128 -16q60 -17 81 -17q22 0 65 33h8l-151 -846q-10 -53 -10 -84q0 -71 55 -71q75 0 190 69v-8q-162 -156 -254 -156z" />
    <glyph glyph-name="atilde" unicode="&#xe3;" horiz-adv-x="1157" 
d="M434 1264l-16 4q18 39 42.5 63.5t65.5 48.5q49 31 106 31q54 0 139 -27q85 -26 120 -26q86 0 131 74l16 -5q-86 -162 -225 -161q-48 0 -133 30q-85 29 -117 29q-91 0 -129 -61zM647 1022q-153 0 -279 -209t-126 -481q0 -44 6 -84.5t21 -84.5t47.5 -70t78.5 -25
q152 0 346 227l113 653q-40 32 -98 53t-109 21zM825 -27q-111 0 -110 136q0 59 12 124q-49 -61 -108 -115t-139 -98.5t-148 -44.5q-97 2 -164 93q-68 92 -68 263q0 176 86.5 345.5t227.5 279.5q143 111 299 113q70 0 128 -16q60 -17 81 -17q22 0 65 33h8l-151 -846
q-10 -53 -10 -84q0 -71 55 -71q75 0 190 69v-8q-162 -156 -254 -156z" />
    <glyph glyph-name="adieresis" unicode="&#xe4;" horiz-adv-x="1157" 
d="M692 1331q0 -40 -28 -67t-68 -29q-40 0 -68 28.5t-28 68.5q0 39 28.5 67.5t67.5 28.5q40 0 68 -28.5t28 -68.5zM987 1331q0 -39 -28.5 -66.5t-68.5 -29.5q-38 0 -67 29.5t-29 67.5q0 39 29 67.5t68 28.5q38 0 66 -29t30 -68zM647 1022q-153 0 -279 -209t-126 -481
q0 -44 6 -84.5t21 -84.5t47.5 -70t78.5 -25q152 0 346 227l113 653q-40 32 -98 53t-109 21zM825 -27q-111 0 -110 136q0 59 12 124q-49 -61 -108 -115t-139 -98.5t-148 -44.5q-97 2 -164 93q-68 92 -68 263q0 176 86.5 345.5t227.5 279.5q143 111 299 113q70 0 128 -16
q60 -17 81 -17q22 0 65 33h8l-151 -846q-10 -53 -10 -84q0 -71 55 -71q75 0 190 69v-8q-162 -156 -254 -156z" />
    <glyph glyph-name="aring" unicode="&#xe5;" horiz-adv-x="1157" 
d="M743 1210q65 0 107.5 45.5t42.5 110.5q0 66 -42 111t-107 45t-108.5 -45t-43.5 -111q0 -65 43 -110.5t108 -45.5zM956 1366q0 -86 -62.5 -147t-149.5 -61q-88 0 -150.5 60t-63.5 148q0 86 63.5 147t149.5 61q87 0 150 -60.5t63 -147.5zM647 1022q-153 0 -279 -209
t-126 -481q0 -44 6 -84.5t21 -84.5t47.5 -70t78.5 -25q152 0 346 227l113 653q-40 32 -98 53t-109 21zM825 -27q-111 0 -110 136q0 59 12 124q-49 -61 -108 -115t-139 -98.5t-148 -44.5q-97 2 -164 93q-68 92 -68 263q0 176 86.5 345.5t227.5 279.5q143 111 299 113
q70 0 128 -16q60 -17 81 -17q22 0 65 33h8l-151 -846q-10 -53 -10 -84q0 -71 55 -71q75 0 190 69v-8q-162 -156 -254 -156z" />
    <glyph glyph-name="ae" unicode="&#xe6;" horiz-adv-x="1576" 
d="M1275 603q128 98 128 258q0 161 -160 161q-132 0 -235 -154q-105 -156 -115 -364q255 2 382 99zM647 1022q-153 0 -279 -209t-126 -481q0 -44 6 -84.5t21 -84.5t47.5 -70t78.5 -25q156 0 371 254q-4 23 -4 85q0 57 14 138l78 403q-40 32 -98 53t-109 21zM1088 -25
q-132 0 -214.5 88.5t-103.5 225.5l-43 -56q-49 -61 -108 -115t-139 -98.5t-148 -44.5q-97 2 -164 93q-68 92 -68 263q0 176 86.5 345.5t227.5 279.5q143 111 299 113q87 0 196 -33l78 33h8l-37 -168q158 168 334 168q95 0 165.5 -51.5t70.5 -143.5q0 -86 -29 -149
q-111 -233 -606 -256v-12q0 -193 71 -288t177 -95q103 0 175.5 40t145.5 126l13 -15q-51 -94 -157 -172t-230 -78z" />
    <glyph glyph-name="ccedilla" unicode="&#xe7;" horiz-adv-x="843" 
d="M643 930q0 49 45 94q0 8 -51 8q-147 0 -273 -171t-126 -435q0 -177 68 -266q67 -88 172 -88q98 0 162 38.5t144 125.5l13 -15q-50 -92 -149 -170q-97 -76 -216 -76h-12l-72 -65q64 -6 119 -55t55 -111q0 -57 -39.5 -97.5t-92 -57.5t-107.5 -17q-118 0 -183 53l15 13
q73 -41 141 -41q154 0 154 120q0 35 -32 63.5t-71 41.5t-74 14l152 144q-97 12 -163 74t-94 144.5t-28 180.5q0 285 178 487q178 201 379 203q31 0 60 -5.5t58 -17.5t47 -36t18 -57q0 -49 -27.5 -83t-74.5 -34q-92 0 -95 94z" />
    <glyph glyph-name="egrave" unicode="&#xe8;" horiz-adv-x="921" 
d="M780 1163h-10q-196 91 -281 250h164q16 -154 127 -250zM620 603q128 98 128 258q0 161 -160 161q-131 0 -234 -154q-104 -155 -116 -364q255 2 382 99zM637 1069q96 0 165.5 -51.5t69.5 -143.5q0 -89 -28 -149q-109 -233 -606 -256v-12q0 -194 70 -288q71 -95 178 -95
q102 0 175.5 40.5t145.5 125.5l12 -15q-51 -94 -157 -172t-241 -78q-136 0 -227 115q-92 116 -92 307q0 261 166 466q167 206 369 206z" />
    <glyph glyph-name="eacute" unicode="&#xe9;" horiz-adv-x="921" 
d="M512 1163h-10q120 91 166 250h172q-117 -159 -328 -250zM620 603q128 98 128 258q0 161 -160 161q-131 0 -234 -154q-104 -155 -116 -364q255 2 382 99zM637 1069q96 0 165.5 -51.5t69.5 -143.5q0 -89 -28 -149q-109 -233 -606 -256v-12q0 -194 70 -288q71 -95 178 -95
q102 0 175.5 40.5t145.5 125.5l12 -15q-51 -94 -157 -172t-241 -78q-136 0 -227 115q-92 116 -92 307q0 261 166 466q167 206 369 206z" />
    <glyph glyph-name="ecircumflex" unicode="&#xea;" horiz-adv-x="921" 
d="M733 1413l141 -250h-16l-184 142l-256 -142h-17l232 250h100zM620 603q128 98 128 258q0 161 -160 161q-131 0 -234 -154q-104 -155 -116 -364q255 2 382 99zM637 1069q96 0 165.5 -51.5t69.5 -143.5q0 -89 -28 -149q-109 -233 -606 -256v-12q0 -194 70 -288
q71 -95 178 -95q102 0 175.5 40.5t145.5 125.5l12 -15q-51 -94 -157 -172t-241 -78q-136 0 -227 115q-92 116 -92 307q0 261 166 466q167 206 369 206z" />
    <glyph glyph-name="edieresis" unicode="&#xeb;" horiz-adv-x="921" 
d="M596 1331q0 -39 -28.5 -66.5t-67.5 -29.5q-39 0 -68 29t-29 68t29 67.5t68 28.5t67.5 -29t28.5 -68zM891 1331q0 -39 -28.5 -66.5t-68.5 -29.5q-38 0 -67 29.5t-29 67.5q0 39 29 67.5t68 28.5q38 0 66 -29t30 -68zM620 603q128 98 128 258q0 161 -160 161
q-131 0 -234 -154q-104 -155 -116 -364q255 2 382 99zM637 1069q96 0 165.5 -51.5t69.5 -143.5q0 -89 -28 -149q-109 -233 -606 -256v-12q0 -194 70 -288q71 -95 178 -95q102 0 175.5 40.5t145.5 125.5l12 -15q-51 -94 -157 -172t-241 -78q-136 0 -227 115q-92 116 -92 307
q0 261 166 466q167 206 369 206z" />
    <glyph glyph-name="igrave" unicode="&#xec;" horiz-adv-x="602" 
d="M545 1163h-10q-196 91 -281 250h164q16 -154 127 -250zM285 -27q-113 0 -113 138q0 61 23 168l116 540q9 39 11 84q0 74 -54 74q-77 0 -190 -68v9q159 152 252 151q114 0 112 -137q0 -65 -22 -168l-117 -541q-10 -41 -10 -84q0 -71 55 -71q76 0 191 69v-8
q-162 -156 -254 -156z" />
    <glyph glyph-name="iacute" unicode="&#xed;" horiz-adv-x="602" 
d="M240 1163h-11q120 91 166 250h172q-115 -159 -327 -250zM285 -27q-113 0 -113 138q0 61 23 168l116 540q9 39 11 84q0 74 -54 74q-77 0 -190 -68v9q159 152 252 151q114 0 112 -137q0 -65 -22 -168l-117 -541q-10 -41 -10 -84q0 -71 55 -71q76 0 191 69v-8
q-162 -156 -254 -156z" />
    <glyph glyph-name="icircumflex" unicode="&#xee;" horiz-adv-x="602" 
d="M461 1413l141 -250h-16l-185 142l-256 -142h-16l231 250h101zM285 -27q-113 0 -113 138q0 61 23 168l116 540q9 39 11 84q0 74 -54 74q-77 0 -190 -68v9q159 152 252 151q114 0 112 -137q0 -65 -22 -168l-117 -541q-10 -41 -10 -84q0 -71 55 -71q76 0 191 69v-8
q-162 -156 -254 -156z" />
    <glyph glyph-name="idieresis" unicode="&#xef;" horiz-adv-x="602" 
d="M365 1331q0 -39 -28.5 -66.5t-68.5 -29.5q-40 0 -68 28.5t-28 68.5q0 38 29 67t67 29t67.5 -29.5t29.5 -67.5zM659 1331q-1 -40 -28.5 -67.5t-67.5 -28.5q-39 0 -66.5 28.5t-29.5 68.5q0 38 29.5 67t67.5 29q39 0 67 -29t28 -68zM285 -27q-113 0 -113 138q0 61 23 168
l116 540q9 39 11 84q0 74 -54 74q-77 0 -190 -68v9q159 152 252 151q114 0 112 -137q0 -65 -22 -168l-117 -541q-10 -41 -10 -84q0 -71 55 -71q76 0 191 69v-8q-162 -156 -254 -156z" />
    <glyph glyph-name="eth" unicode="&#xf0;" horiz-adv-x="1073" 
d="M780 941q-66 89 -174 89q-51 0 -98.5 -23t-83 -59.5t-67 -84.5t-52.5 -94t-35 -93q-45 -145 -47 -316q0 -166 66 -256q67 -90 175 -90q50 0 97.5 23.5t83.5 60t67.5 85t52.5 95t35 92.5q46 147 46 315q0 167 -66 256zM989 647q0 -273 -171 -473q-171 -199 -367 -199
q-155 0 -264 129q-109 130 -109 302q0 165 74.5 315.5t206.5 252.5q127 95 257 95q82 0 144 -41q-58 164 -205 334l-203 -82l-20 45l186 76q-56 60 -143 143h12q86 -50 180 -125l207 84l21 -45l-185 -74q171 -151 274.5 -340t104.5 -397z" />
    <glyph glyph-name="ntilde" unicode="&#xf1;" 
d="M397 1264l-16 4q22 40 45 64t63 48q49 31 107 31q54 0 138 -27q85 -26 120 -26q86 0 131 74l16 -5q-86 -162 -225 -161q-48 0 -133 30q-85 29 -117 29q-91 0 -129 -61zM877 -27q-105 0 -107 138q0 72 21 168l92 442q14 65 14 130q0 134 -121 134q-168 0 -368 -197
l-146 -788h-119l152 819q10 53 10 84q0 74 -55 74q-76 0 -189 -68v9q157 152 256 151q105 0 107 -137q0 -44 -10 -103q245 240 428 240q92 0 134 -52q42 -53 38 -131q-5 -84 -19 -171l-96 -492q-10 -53 -10 -86q0 -69 55 -69q75 0 191 69v-8q-161 -156 -258 -156z" />
    <glyph glyph-name="ograve" unicode="&#xf2;" horiz-adv-x="1073" 
d="M797 1163h-11q-197 92 -280 250h164q16 -154 127 -250zM444 -25q-150 0 -258 130t-108 323q0 235 170 438q169 201 377 203q149 0 257 -130q108 -131 107 -323q0 -236 -169 -438q-169 -201 -376 -203zM463 14q167 0 275 210t108 474q0 155 -68 244q-67 88 -172 88
q-166 0 -274 -210q-107 -209 -109 -474q0 -155 68 -244q67 -88 172 -88z" />
    <glyph glyph-name="oacute" unicode="&#xf3;" horiz-adv-x="1073" 
d="M532 1163h-10q120 91 166 250h172q-117 -159 -328 -250zM444 -25q-150 0 -258 130t-108 323q0 235 170 438q169 201 377 203q149 0 257 -130q108 -131 107 -323q0 -236 -169 -438q-169 -201 -376 -203zM463 14q167 0 275 210t108 474q0 155 -68 244q-67 88 -172 88
q-166 0 -274 -210q-107 -209 -109 -474q0 -155 68 -244q67 -88 172 -88z" />
    <glyph glyph-name="ocircumflex" unicode="&#xf4;" horiz-adv-x="1073" 
d="M729 1413l141 -250h-16l-184 142l-256 -142h-17l232 250h100zM444 -25q-150 0 -258 130t-108 323q0 235 170 438q169 201 377 203q149 0 257 -130q108 -131 107 -323q0 -236 -169 -438q-169 -201 -376 -203zM463 14q167 0 275 210t108 474q0 155 -68 244q-67 88 -172 88
q-166 0 -274 -210q-107 -209 -109 -474q0 -155 68 -244q67 -88 172 -88z" />
    <glyph glyph-name="otilde" unicode="&#xf5;" horiz-adv-x="1073" 
d="M375 1264l-17 4q29 61 90 102t126 41q54 0 138 -27q83 -26 116 -26q90 0 135 74l16 -5q-86 -162 -225 -161q-48 0 -133 30q-85 29 -117 29q-91 0 -129 -61zM444 -25q-150 0 -258 130t-108 323q0 235 170 438q169 201 377 203q149 0 257 -130q108 -131 107 -323
q0 -236 -169 -438q-169 -201 -376 -203zM463 14q167 0 275 210t108 474q0 155 -68 244q-67 88 -172 88q-166 0 -274 -210q-107 -209 -109 -474q0 -155 68 -244q67 -88 172 -88z" />
    <glyph glyph-name="odieresis" unicode="&#xf6;" horiz-adv-x="1073" 
d="M616 1331q0 -40 -28 -67t-68 -29q-40 0 -68 28.5t-28 68.5q0 38 29 67t67 29q39 0 67.5 -29t28.5 -68zM911 1331q-1 -40 -28.5 -67.5t-67.5 -28.5q-39 0 -66.5 28.5t-29.5 68.5q0 38 29.5 67t67.5 29q39 0 67 -29t28 -68zM444 -25q-150 0 -258 130t-108 323
q0 235 170 438q169 201 377 203q149 0 257 -130q108 -131 107 -323q0 -236 -169 -438q-169 -201 -376 -203zM463 14q167 0 275 210t108 474q0 155 -68 244q-67 88 -172 88q-166 0 -274 -210q-107 -209 -109 -474q0 -155 68 -244q67 -88 172 -88z" />
    <glyph glyph-name="divide" unicode="&#xf7;" horiz-adv-x="1167" 
d="M1020 631l-23 -107h-852l23 107h852zM786 1012q0 -46 -34 -80.5t-80 -34.5q-45 0 -80 35t-35 80q0 46 34.5 80t80.5 34t80 -34t34 -80zM616 141q0 -47 -33.5 -81t-80.5 -34t-81 34t-34 81t34 81t81 34t80.5 -34t33.5 -81z" />
    <glyph glyph-name="oslash" unicode="&#xf8;" horiz-adv-x="1073" 
d="M606 1030q-166 0 -274 -210q-107 -209 -109 -474q1 -76 15 -127l563 686q-66 125 -195 125zM846 698q0 83 -23 152l-565 -690q66 -146 205 -146q167 0 275 210t108 474zM78 428q0 235 170 438q169 201 377 203q129 0 229 -100l121 147l41 -31l-127 -155
q100 -130 100 -314q0 -236 -169 -438q-169 -201 -376 -203q-142 0 -245 115l-121 -149l-45 28l133 162q-88 124 -88 297z" />
    <glyph glyph-name="ugrave" unicode="&#xf9;" 
d="M852 1163h-10q-196 91 -281 250h164q16 -154 127 -250zM883 -27q-111 0 -111 136q0 19 10 106q-87 -86 -210.5 -164t-213.5 -78q-174 0 -174 207q0 57 17 148l96 491q10 53 10 84q0 74 -53 74q-71 0 -193 -72v8q162 156 254 156q111 0 111 -135q0 -52 -20 -170l-93 -442
q-14 -65 -14 -119q0 -144 113 -146q87 -1 189.5 59t186.5 138l146 788h119l-152 -819q-10 -53 -10 -84q0 -36 13.5 -54t39.5 -17q79 -1 191 65v-8q-158 -152 -252 -152z" />
    <glyph glyph-name="uacute" unicode="&#xfa;" 
d="M571 1163h-10q120 91 166 250h172q-117 -159 -328 -250zM883 -27q-111 0 -111 136q0 19 10 106q-87 -86 -210.5 -164t-213.5 -78q-174 0 -174 207q0 57 17 148l96 491q10 53 10 84q0 74 -53 74q-71 0 -193 -72v8q162 156 254 156q111 0 111 -135q0 -52 -20 -170l-93 -442
q-14 -65 -14 -119q0 -144 113 -146q87 -1 189.5 59t186.5 138l146 788h119l-152 -819q-10 -53 -10 -84q0 -36 13.5 -54t39.5 -17q79 -1 191 65v-8q-158 -152 -252 -152z" />
    <glyph glyph-name="ucircumflex" unicode="&#xfb;" 
d="M803 1413l141 -250h-16l-185 142l-256 -142h-16l231 250h101zM883 -27q-111 0 -111 136q0 19 10 106q-87 -86 -210.5 -164t-213.5 -78q-174 0 -174 207q0 57 17 148l96 491q10 53 10 84q0 74 -53 74q-71 0 -193 -72v8q162 156 254 156q111 0 111 -135q0 -52 -20 -170
l-93 -442q-14 -65 -14 -119q0 -144 113 -146q87 -1 189.5 59t186.5 138l146 788h119l-152 -819q-10 -53 -10 -84q0 -36 13.5 -54t39.5 -17q79 -1 191 65v-8q-158 -152 -252 -152z" />
    <glyph glyph-name="udieresis" unicode="&#xfc;" 
d="M653 1331q-1 -40 -28.5 -67.5t-67.5 -28.5q-39 0 -68 29t-29 68t29 67.5t68 28.5q40 0 68 -28.5t28 -68.5zM948 1331q0 -40 -28 -67t-68 -29q-40 0 -68 28.5t-28 68.5q0 39 28.5 67.5t67.5 28.5q40 0 68 -28.5t28 -68.5zM883 -27q-111 0 -111 136q0 19 10 106
q-87 -86 -210.5 -164t-213.5 -78q-174 0 -174 207q0 57 17 148l96 491q10 53 10 84q0 74 -53 74q-71 0 -193 -72v8q162 156 254 156q111 0 111 -135q0 -52 -20 -170l-93 -442q-14 -65 -14 -119q0 -144 113 -146q87 -1 189.5 59t186.5 138l146 788h119l-152 -819
q-10 -53 -10 -84q0 -36 13.5 -54t39.5 -17q79 -1 191 65v-8q-158 -152 -252 -152z" />
    <glyph glyph-name="yacute" unicode="&#xfd;" horiz-adv-x="970" 
d="M432 1163h-10q120 91 166 250h172q-117 -159 -328 -250zM819 881v16q-19 -27 -62 -27q-42 0 -72 30t-30 72q0 48 29 72.5t78 24.5q107 0 106 -160q0 -119 -106 -383.5t-195 -421.5q-335 -596 -547 -596q-55 0 -94 28.5t-41 81.5q0 41 25.5 69t66.5 28q101 0 103 -141
q138 51 338 360q-22 266 -72 532q-50 269 -98 382q-48 117 -102 117t-158 -56v9q128 152 243 151q36 0 58 -16q62 -44 143 -445q53 -262 80 -530q157 298 231 508q76 210 76 295z" />
    <glyph glyph-name="thorn" unicode="&#xfe;" horiz-adv-x="1130" 
d="M928 637q0 163 -71 263q-71 99 -179 99t-266 -108q-3 -46 -19 -127l-133 -680q112 -62 205 -64q199 0 331 193t132 424zM539 1544l-117 -612q164 137 313 137q81 0 146 -35t105 -93.5t61 -130t20 -148.5q0 -263 -190 -474q-191 -212 -435 -213q-70 0 -198 25l-47 -244
q-18 -95 -11 -127t36 -52q27 -19 102 -40l-2 -8h-445l2 8q104 30 136 68.5t55 150.5l286 1475q25 128 -2 165q-27 36 -137 48l2 8q178 26 311 92h9z" />
    <glyph glyph-name="ydieresis" unicode="&#xff;" horiz-adv-x="970" 
d="M555 1331q0 -39 -28.5 -66.5t-68.5 -29.5q-38 0 -67 29.5t-29 67.5q0 39 29 67.5t68 28.5q38 0 66 -29t30 -68zM850 1331q0 -39 -28.5 -66.5t-67.5 -29.5q-39 0 -68 29t-29 68t29 67.5t68 28.5t67.5 -29t28.5 -68zM819 881v16q-19 -27 -62 -27q-42 0 -72 30t-30 72
q0 48 29 72.5t78 24.5q107 0 106 -160q0 -119 -106 -383.5t-195 -421.5q-335 -596 -547 -596q-55 0 -94 28.5t-41 81.5q0 41 25.5 69t66.5 28q101 0 103 -141q138 51 338 360q-22 266 -72 532q-50 269 -98 382q-48 117 -102 117t-158 -56v9q128 152 243 151q36 0 58 -16
q62 -44 143 -445q53 -262 80 -530q157 298 231 508q76 210 76 295z" />
    <glyph glyph-name="Amacron" unicode="&#x100;" horiz-adv-x="1384" 
d="M1171 1690l-14 -78h-512l14 78h512zM424 571h502l-115 686zM1292 8l-2 -8h-456l2 8q128 24 142 96q13 70 -44 418h-539q-179 -321 -196 -396q-17 -74 47 -101q36 -10 65 -17l-2 -8h-415l2 8q72 20 120 60q95 80 326 483l516 893h55l152 -891q45 -268 71 -359
q29 -102 57 -136q29 -33 99 -50z" />
    <glyph glyph-name="amacron" unicode="&#x101;" horiz-adv-x="1157" 
d="M1028 1321l-14 -78h-512l14 78h512zM647 1022q-153 0 -279 -209t-126 -481q0 -44 6 -84.5t21 -84.5t47.5 -70t78.5 -25q152 0 346 227l113 653q-40 32 -98 53t-109 21zM825 -27q-111 0 -110 136q0 59 12 124q-49 -61 -108 -115t-139 -98.5t-148 -44.5q-97 2 -164 93
q-68 92 -68 263q0 176 86.5 345.5t227.5 279.5q143 111 299 113q70 0 128 -16q60 -17 81 -17q22 0 65 33h8l-151 -846q-10 -53 -10 -84q0 -71 55 -71q75 0 190 69v-8q-162 -156 -254 -156z" />
    <glyph glyph-name="Abreve" unicode="&#x102;" horiz-adv-x="1384" 
d="M882 1546q-98 0 -150 67t-52 169h8q18 -62 76.5 -98.5t126.5 -36.5q72 0 146.5 38t113.5 97h8q-40 -103 -109.5 -169.5t-167.5 -66.5zM424 571h502l-115 686zM1292 8l-2 -8h-456l2 8q128 24 142 96q13 70 -44 418h-539q-179 -321 -196 -396q-17 -74 47 -101
q36 -10 65 -17l-2 -8h-415l2 8q72 20 120 60q95 80 326 483l516 893h55l152 -891q45 -268 71 -359q29 -102 57 -136q29 -33 99 -50z" />
    <glyph glyph-name="abreve" unicode="&#x103;" horiz-adv-x="1157" 
d="M502 1413h8q19 -63 77.5 -98t127.5 -35q72 0 146 37t112 96h8q-40 -103 -109 -169t-168 -66t-150.5 66.5t-51.5 168.5zM647 1022q-153 0 -279 -209t-126 -481q0 -44 6 -84.5t21 -84.5t47.5 -70t78.5 -25q152 0 346 227l113 653q-40 32 -98 53t-109 21zM825 -27
q-111 0 -110 136q0 59 12 124q-49 -61 -108 -115t-139 -98.5t-148 -44.5q-97 2 -164 93q-68 92 -68 263q0 176 86.5 345.5t227.5 279.5q143 111 299 113q70 0 128 -16q60 -17 81 -17q22 0 65 33h8l-151 -846q-10 -53 -10 -84q0 -71 55 -71q75 0 190 69v-8
q-162 -156 -254 -156z" />
    <glyph glyph-name="Aogonek" unicode="&#x104;" horiz-adv-x="1384" 
d="M424 571h502l-115 686zM1214 -350l-2 -8q-70 -70 -141 -70t-108 37t-37 81q0 110 209 232q98 61 137 78h-438l2 8q128 24 142 96q13 70 -44 418h-539q-179 -321 -196 -396q-17 -74 47 -101q36 -10 65 -17l-2 -8h-415l2 8q72 20 120 60q95 80 326 483l516 893h55l152 -891
q45 -268 71 -359q29 -102 57 -136q29 -33 99 -50l-2 -8q-236 -191 -235 -299q0 -61 82 -61q28 0 77 10z" />
    <glyph glyph-name="aogonek" unicode="&#x105;" horiz-adv-x="1157" 
d="M647 1022q-153 0 -279 -209t-126 -481q0 -44 6 -84.5t21 -84.5t47.5 -70t78.5 -25q152 0 346 227l113 653q-40 32 -98 53t-109 21zM1053 -350l-2 -8q-69 -70 -141 -70q-61 0 -103.5 32t-42.5 91q0 49 54 118q57 73 130 153q73 81 107 143q-139 -135 -230 -136
q-111 0 -110 136q0 59 12 124q-49 -61 -108 -115t-139 -98.5t-148 -44.5q-97 2 -164 93q-68 92 -68 263q0 176 86.5 345.5t227.5 279.5q143 111 299 113q87 0 196 -33l78 33h8l-151 -846q-10 -53 -10 -84q0 -36 13.5 -54t39.5 -17q77 0 192 69v-8q-18 -42 -71 -143
q-115 -220 -115 -283t82 -63q29 0 78 10z" />
    <glyph glyph-name="Cacute" unicode="&#x106;" horiz-adv-x="1394" 
d="M899 1532h-10q120 91 166 250h172q-117 -159 -328 -250zM739 -31q-327 0 -499 210t-111 528q44 224 188 394q138 161 321.5 251t389.5 90q87 0 204.5 -23t188.5 -57l-53 -270h-8q-56 315 -365 315q-255 0 -451 -199q-195 -198 -254 -500q-58 -299 68 -502
q126 -202 390 -202q84 0 160 27t139.5 78t113.5 107t101 130h8l-82 -291q-75 -36 -200 -61q-132 -26 -249 -25z" />
    <glyph glyph-name="cacute" unicode="&#x107;" horiz-adv-x="843" 
d="M522 1163h-10q120 91 166 250h172q-117 -159 -328 -250zM643 930q0 49 45 94q0 8 -51 8q-147 0 -273 -171t-126 -435q0 -177 68 -266q67 -88 172 -88q98 0 162 38.5t144 125.5l13 -15q-50 -92 -149 -170q-97 -76 -230 -76q-131 0 -224 109q-92 109 -94 295q0 285 178 487
q178 201 379 203q31 0 60 -5.5t58 -17.5t47 -36t18 -57q0 -49 -27.5 -83t-74.5 -34q-92 0 -95 94z" />
    <glyph glyph-name="Ccircumflex" unicode="&#x108;" horiz-adv-x="1394" 
d="M1071 1782l141 -250h-16l-184 141l-256 -141h-17l232 250h100zM739 -31q-327 0 -499 210t-111 528q44 224 188 394q138 161 321.5 251t389.5 90q87 0 204.5 -23t188.5 -57l-53 -270h-8q-56 315 -365 315q-255 0 -451 -199q-195 -198 -254 -500q-58 -299 68 -502
q126 -202 390 -202q84 0 160 27t139.5 78t113.5 107t101 130h8l-82 -291q-75 -36 -200 -61q-132 -26 -249 -25z" />
    <glyph glyph-name="ccircumflex" unicode="&#x109;" horiz-adv-x="843" 
d="M721 1413l141 -250h-16l-184 142l-256 -142h-17l232 250h100zM643 930q0 49 45 94q0 8 -51 8q-147 0 -273 -171t-126 -435q0 -177 68 -266q67 -88 172 -88q98 0 162 38.5t144 125.5l13 -15q-50 -92 -149 -170q-97 -76 -230 -76q-131 0 -224 109q-92 109 -94 295
q0 285 178 487q178 201 379 203q31 0 60 -5.5t58 -17.5t47 -36t18 -57q0 -49 -27.5 -83t-74.5 -34q-92 0 -95 94z" />
    <glyph glyph-name="Cdotaccent" unicode="&#x10a;" horiz-adv-x="1394" 
d="M1124 1683q0 -40 -29 -68t-69 -30q-40 0 -69 29t-29 70q0 40 29 69t69 29t69 -29.5t29 -69.5zM739 -31q-327 0 -499 210t-111 528q44 224 188 394q138 161 321.5 251t389.5 90q87 0 204.5 -23t188.5 -57l-53 -270h-8q-56 315 -365 315q-255 0 -451 -199
q-195 -198 -254 -500q-58 -299 68 -502q126 -202 390 -202q84 0 160 27t139.5 78t113.5 107t101 130h8l-82 -291q-75 -36 -200 -61q-132 -26 -249 -25z" />
    <glyph glyph-name="cdotaccent" unicode="&#x10b;" horiz-adv-x="843" 
d="M791 1315q0 -41 -29 -70t-70 -29t-69.5 29t-28.5 70t28.5 68.5t69.5 29.5q41 -2 70 -29.5t29 -68.5zM643 930q0 49 45 94q0 8 -51 8q-147 0 -273 -171t-126 -435q0 -177 68 -266q67 -88 172 -88q98 0 162 38.5t144 125.5l13 -15q-50 -92 -149 -170q-97 -76 -230 -76
q-131 0 -224 109q-92 109 -94 295q0 285 178 487q178 201 379 203q31 0 60 -5.5t58 -17.5t47 -36t18 -57q0 -49 -27.5 -83t-74.5 -34q-92 0 -95 94z" />
    <glyph glyph-name="Ccaron" unicode="&#x10c;" horiz-adv-x="1394" 
d="M1290 1782l-235 -250h-101l-137 250h17l180 -142l260 142h16zM739 -31q-327 0 -499 210t-111 528q44 224 188 394q138 161 321.5 251t389.5 90q87 0 204.5 -23t188.5 -57l-53 -270h-8q-56 315 -365 315q-255 0 -451 -199q-195 -198 -254 -500q-58 -299 68 -502
q126 -202 390 -202q84 0 160 27t139.5 78t113.5 107t101 130h8l-82 -291q-75 -36 -200 -61q-132 -26 -249 -25z" />
    <glyph glyph-name="ccaron" unicode="&#x10d;" horiz-adv-x="843" 
d="M895 1413l-236 -250h-100l-137 250h16l180 -141l261 141h16zM643 930q0 49 45 94q0 8 -51 8q-147 0 -273 -171t-126 -435q0 -177 68 -266q67 -88 172 -88q98 0 162 38.5t144 125.5l13 -15q-50 -92 -149 -170q-97 -76 -230 -76q-131 0 -224 109q-92 109 -94 295
q0 285 178 487q178 201 379 203q31 0 60 -5.5t58 -17.5t47 -36t18 -57q0 -49 -27.5 -83t-74.5 -34q-92 0 -95 94z" />
    <glyph glyph-name="Dcaron" unicode="&#x10e;" horiz-adv-x="1540" 
d="M1231 1782l-236 -250h-100l-137 250h16l180 -142l260 142h17zM293 45h293q305 0 507 174.5t260 477.5q58 302 -80 487q-138 184 -407 184h-317zM569 0h-589l2 8q115 28 156 74q40 45 69 197l166 856q27 158 5 199q-23 43 -126 71l2 8h612q332 0 520 -201
q188 -200 124 -534t-319 -506q-254 -172 -622 -172z" />
    <glyph glyph-name="dcaron" unicode="&#x10f;" horiz-adv-x="1204" 
d="M1204 1344q0 24 -15 54t-15 62q0 37 27 60.5t64 23.5q40 0 65.5 -28t25.5 -68q0 -57 -47.5 -120t-106.5 -106.5t-115 -68.5l-6 4q38 34 80.5 92.5t42.5 94.5zM647 1022q-153 0 -279 -209t-126 -481q0 -44 6 -84.5t21 -84.5t47.5 -70t78.5 -25q175 0 365 225l114 655
q-35 31 -105 52.5t-122 21.5zM334 -25q-95 1 -166 93q-68 92 -68 263q0 176 86.5 345.5t227.5 279.5q143 111 299 113q75 0 182 -25l33 187q25 128 -2 165q-27 36 -138 48l3 8q178 26 311 92h8l-244 -1321q-14 -78 -3.5 -117t46.5 -38q78 0 193 69v-8q-162 -156 -255 -156
t-105 79q-12 78 8 186q-47 -58 -113.5 -115.5t-151 -102t-151.5 -45.5z" />
    <glyph glyph-name="Dcroat" unicode="&#x110;" horiz-adv-x="1540" 
d="M293 45h293q305 0 507 174.5t260 477.5q58 302 -80 487q-138 184 -407 184h-317l-119 -612h303l-10 -56h-303zM569 0h-589l2 8q115 28 156 74q40 45 69 197l82 421h-201l10 56h201l74 379q27 158 5 199q-23 43 -126 71l2 8h612q332 0 520 -201q188 -200 124 -534
t-319 -506q-254 -172 -622 -172z" />
    <glyph glyph-name="dcroat" unicode="&#x111;" horiz-adv-x="1181" 
d="M647 1022q-153 0 -279 -209t-126 -481q0 -44 6 -84.5t21 -84.5t47.5 -70t78.5 -25q175 0 365 225l114 655q-35 31 -105 52.5t-122 21.5zM334 -25q-95 1 -166 93q-68 92 -68 263q0 176 86.5 345.5t227.5 279.5q143 111 299 113q75 0 182 -25l27 158h-347l11 55h346
q18 112 -10 143q-29 32 -134 44l3 8q178 26 311 92h8l-53 -287h164l-11 -55h-163l-181 -979q-14 -78 -3.5 -117t46.5 -38q78 0 193 69v-8q-162 -156 -255 -156t-105 79q-12 78 8 186q-47 -58 -113.5 -115.5t-151 -102t-151.5 -45.5z" />
    <glyph glyph-name="Emacron" unicode="&#x112;" horiz-adv-x="1136" 
d="M1032 1690l-14 -78h-512l14 78h512zM870 1368h-335l-119 -618h313q70 0 108 26q36 24 105 109h8l-61 -316h-8q-33 80 -64 109q-29 27 -98 27h-313l-127 -660h393q83 2 113 23q50 36 95 84q47 52 146 170h8l-104 -322h-959l2 8q115 28 156 74q42 46 70 197l166 856
q27 141 3 191q-25 51 -124 79l2 8h901l-57 -289h-9q-6 15 -31 90q-38 111 -72 132q-34 19 -59 21q-16 1 -49 1z" />
    <glyph glyph-name="emacron" unicode="&#x113;" horiz-adv-x="921" 
d="M913 1321l-14 -78h-512l14 78h512zM620 603q128 98 128 258q0 161 -160 161q-131 0 -234 -154q-104 -155 -116 -364q255 2 382 99zM637 1069q96 0 165.5 -51.5t69.5 -143.5q0 -89 -28 -149q-109 -233 -606 -256v-12q0 -194 70 -288q71 -95 178 -95q102 0 175.5 40.5
t145.5 125.5l12 -15q-51 -94 -157 -172t-241 -78q-136 0 -227 115q-92 116 -92 307q0 261 166 466q167 206 369 206z" />
    <glyph glyph-name="Ebreve" unicode="&#x114;" horiz-adv-x="1136" 
d="M749 1546q-98 0 -150 67t-52 169h8q20 -63 77.5 -99t126.5 -36q72 0 146.5 38t112.5 97h8q-37 -102 -107.5 -169t-169.5 -67zM870 1368h-335l-119 -618h313q70 0 108 26q36 24 105 109h8l-61 -316h-8q-33 80 -64 109q-29 27 -98 27h-313l-127 -660h393q83 2 113 23
q50 36 95 84q47 52 146 170h8l-104 -322h-959l2 8q115 28 156 74q42 46 70 197l166 856q27 141 3 191q-25 51 -124 79l2 8h901l-57 -289h-9q-6 15 -31 90q-38 111 -72 132q-34 19 -59 21q-16 1 -49 1z" />
    <glyph glyph-name="ebreve" unicode="&#x115;" horiz-adv-x="921" 
d="M612 1280q73 0 146 36.5t112 96.5h9q-39 -103 -109 -169t-169 -66q-98 0 -149 67t-53 168h9q19 -62 77.5 -97.5t126.5 -35.5zM620 603q128 98 128 258q0 161 -160 161q-131 0 -234 -154q-104 -155 -116 -364q255 2 382 99zM637 1069q96 0 165.5 -51.5t69.5 -143.5
q0 -89 -28 -149q-109 -233 -606 -256v-12q0 -194 70 -288q71 -95 178 -95q102 0 175.5 40.5t145.5 125.5l12 -15q-51 -94 -157 -172t-241 -78q-136 0 -227 115q-92 116 -92 307q0 261 166 466q167 206 369 206z" />
    <glyph glyph-name="Edotaccent" unicode="&#x116;" horiz-adv-x="1136" 
d="M879 1683q0 -40 -29 -68t-70 -30q-40 0 -69 29.5t-29 69.5q0 39 29.5 68.5t68.5 29.5q40 0 69.5 -29.5t29.5 -69.5zM870 1368h-335l-119 -618h313q70 0 108 26q36 24 105 109h8l-61 -316h-8q-33 80 -64 109q-29 27 -98 27h-313l-127 -660h393q83 2 113 23q50 36 95 84
q47 52 146 170h8l-104 -322h-959l2 8q115 28 156 74q42 46 70 197l166 856q27 141 3 191q-25 51 -124 79l2 8h901l-57 -289h-9q-6 15 -31 90q-38 111 -72 132q-34 19 -59 21q-16 1 -49 1z" />
    <glyph glyph-name="edotaccent" unicode="&#x117;" horiz-adv-x="921" 
d="M750 1315q0 -41 -29 -70t-70 -29t-68.5 29t-29.5 70q0 41 29 68.5t70 29.5q41 -2 69.5 -29.5t28.5 -68.5zM620 603q128 98 128 258q0 161 -160 161q-131 0 -234 -154q-104 -155 -116 -364q255 2 382 99zM637 1069q96 0 165.5 -51.5t69.5 -143.5q0 -89 -28 -149
q-109 -233 -606 -256v-12q0 -194 70 -288q71 -95 178 -95q102 0 175.5 40.5t145.5 125.5l12 -15q-51 -94 -157 -172t-241 -78q-136 0 -227 115q-92 116 -92 307q0 261 166 466q167 206 369 206z" />
    <glyph glyph-name="Eogonek" unicode="&#x118;" horiz-adv-x="1136" 
d="M854 -350l-2 -8q-70 -70 -142 -70t-108 37q-37 37 -37 81t29 85q59 85 291 211q6 2 12 6q2 2 7 4.5l7 3.5h-940l2 8q115 28 156 74q42 46 70 197l166 856q27 141 3 191q-25 51 -124 79l2 8h901l-57 -289h-9q-6 15 -31 90q-38 111 -72 132q-34 19 -59 21q-16 1 -49 1h-335
l-119 -618h313q70 0 108 26q36 24 105 109h8l-61 -316h-8q-33 80 -64 109q-29 27 -98 27h-313l-127 -660h393q83 2 113 23q50 36 95 84q47 52 146 170h8l-104 -322q-236 -191 -236 -299q0 -61 82 -61q29 0 78 10z" />
    <glyph glyph-name="eogonek" unicode="&#x119;" horiz-adv-x="921" 
d="M620 603q128 98 128 258q0 161 -160 161q-131 0 -234 -154q-104 -155 -116 -364q255 2 382 99zM754 -350l-2 -8q-70 -70 -142 -70t-108 37q-37 37 -37 85q0 47 56 126q58 82 138 179q79 96 119 175q-151 -199 -342 -199q-85 0 -151 36t-105 97.5t-58.5 134.5t-19.5 154
q0 261 166 466q167 206 369 206q96 0 165.5 -51.5t69.5 -143.5q0 -89 -28 -149q-109 -233 -606 -256v-12q0 -194 70 -288q71 -95 178 -95q103 0 176.5 40.5t144.5 125.5l12 -15q-28 -80 -125 -273q-100 -199 -100 -251q0 -61 82 -61q29 0 78 10z" />
    <glyph glyph-name="Ecaron" unicode="&#x11a;" horiz-adv-x="1136" 
d="M1038 1782l-235 -250h-101l-137 250h17l180 -142l260 142h16zM870 1368h-335l-119 -618h313q70 0 108 26q36 24 105 109h8l-61 -316h-8q-33 80 -64 109q-29 27 -98 27h-313l-127 -660h393q83 2 113 23q50 36 95 84q47 52 146 170h8l-104 -322h-959l2 8q115 28 156 74
q42 46 70 197l166 856q27 141 3 191q-25 51 -124 79l2 8h901l-57 -289h-9q-6 15 -31 90q-38 111 -72 132q-34 19 -59 21q-16 1 -49 1z" />
    <glyph glyph-name="ecaron" unicode="&#x11b;" horiz-adv-x="921" 
d="M907 1413l-235 -250h-101l-137 250h17l180 -141l260 141h16zM620 603q128 98 128 258q0 161 -160 161q-131 0 -234 -154q-104 -155 -116 -364q255 2 382 99zM637 1069q96 0 165.5 -51.5t69.5 -143.5q0 -89 -28 -149q-109 -233 -606 -256v-12q0 -194 70 -288
q71 -95 178 -95q102 0 175.5 40.5t145.5 125.5l12 -15q-51 -94 -157 -172t-241 -78q-136 0 -227 115q-92 116 -92 307q0 261 166 466q167 206 369 206z" />
    <glyph glyph-name="Gcircumflex" unicode="&#x11c;" horiz-adv-x="1472" 
d="M1061 1782l141 -250h-16l-185 141l-256 -141h-16l232 250h100zM698 -31q-311 0 -470 217q-159 218 -95 543q63 325 323 519t554 194q92 0 220.5 -21.5t199.5 -54.5l-54 -274h-8q-42 158 -133.5 236t-251.5 79q-230 0 -432 -194t-260 -501q-59 -309 71 -507
q130 -199 373 -199q79 0 183 17t167 45l70 360q27 126 2 184q-26 59 -123 86l2 9h441l-2 -9q-85 -28 -123 -80q-37 -50 -64 -190l-71 -375q-257 -84 -519 -84z" />
    <glyph glyph-name="gcircumflex" unicode="&#x11d;" horiz-adv-x="903" 
d="M647 1413l141 -250h-16l-184 142l-256 -142h-17l232 250h100zM420 373q129 0 204 126q75 127 74 332q0 92 -49 145q-49 54 -117 54q-65 0 -119.5 -39t-87.5 -99.5t-51 -127t-18 -126.5q0 -263 164 -265zM88 -386q102 -60 263 -60t279 96q64 52 64 126q0 73 -43 110
q-43 38 -141 69l-256 80q-202 -86 -245 -169q-24 -47 -23 -106q0 -86 102 -146zM803 -172q0 -94 -82 -172q-155 -148 -461 -148q-138 0 -277 73q-140 74 -141 169q0 187 375 299q-100 45 -100 113q0 95 190 192q-84 31 -129 95t-45 153q0 116 47.5 221t141 175t210.5 71
q103 0 185 -68h49q81 0 130.5 21t100.5 80q37 -44 37 -85q0 -40 -34 -73q-20 -18 -60 -18q-52 0 -137 30q-45 16 -60 21q82 -86 82 -237q-2 -151 -119 -276q-118 -126 -288 -126q-41 0 -76 8q-59 -39 -90 -88q-62 -95 57 -131l205 -61q159 -48 224 -96q63 -47 65 -142z" />
    <glyph glyph-name="Gbreve" unicode="&#x11e;" horiz-adv-x="1472" 
d="M1033 1546q-98 0 -149 67t-53 169h9q18 -62 76.5 -98.5t126.5 -36.5q72 0 146.5 38t113.5 97h8q-40 -103 -109.5 -169.5t-168.5 -66.5zM698 -31q-311 0 -470 217q-159 218 -95 543q63 325 323 519t554 194q92 0 220.5 -21.5t199.5 -54.5l-54 -274h-8q-42 158 -133.5 236
t-251.5 79q-230 0 -432 -194t-260 -501q-59 -309 71 -507q130 -199 373 -199q79 0 183 17t167 45l70 360q27 126 2 184q-26 59 -123 86l2 9h441l-2 -9q-85 -28 -123 -80q-37 -50 -64 -190l-71 -375q-257 -84 -519 -84z" />
    <glyph glyph-name="gbreve" unicode="&#x11f;" horiz-adv-x="903" 
d="M381 1413h8q20 -63 78 -98t127 -35q73 0 146 36.5t112 96.5h8q-38 -103 -108 -169t-169 -66t-150.5 66.5t-51.5 168.5zM420 373q129 0 204 126q75 127 74 332q0 92 -49 145q-49 54 -117 54q-65 0 -119.5 -39t-87.5 -99.5t-51 -127t-18 -126.5q0 -263 164 -265zM88 -386
q102 -60 263 -60t279 96q64 52 64 126q0 73 -43 110q-43 38 -141 69l-256 80q-202 -86 -245 -169q-24 -47 -23 -106q0 -86 102 -146zM803 -172q0 -94 -82 -172q-155 -148 -461 -148q-138 0 -277 73q-140 74 -141 169q0 187 375 299q-100 45 -100 113q0 95 190 192
q-84 31 -129 95t-45 153q0 116 47.5 221t141 175t210.5 71q103 0 185 -68h49q81 0 130.5 21t100.5 80q37 -44 37 -85q0 -40 -34 -73q-20 -18 -60 -18q-52 0 -137 30q-45 16 -60 21q82 -86 82 -237q-2 -151 -119 -276q-118 -126 -288 -126q-41 0 -76 8q-59 -39 -90 -88
q-62 -95 57 -131l205 -61q159 -48 224 -96q63 -47 65 -142z" />
    <glyph glyph-name="Gdotaccent" unicode="&#x120;" horiz-adv-x="1472" 
d="M1106 1683q0 -41 -28.5 -68.5t-69.5 -29.5q-40 0 -69.5 29.5t-29.5 69.5t29 69t70 29q42 0 70 -28.5t28 -70.5zM698 -31q-311 0 -470 217q-159 218 -95 543q63 325 323 519t554 194q92 0 220.5 -21.5t199.5 -54.5l-54 -274h-8q-42 158 -133.5 236t-251.5 79
q-230 0 -432 -194t-260 -501q-59 -309 71 -507q130 -199 373 -199q79 0 183 17t167 45l70 360q27 126 2 184q-26 59 -123 86l2 9h441l-2 -9q-85 -28 -123 -80q-37 -50 -64 -190l-71 -375q-257 -84 -519 -84z" />
    <glyph glyph-name="gdotaccent" unicode="&#x121;" horiz-adv-x="903" 
d="M662 1315q0 -41 -29 -70t-70 -29q-39 0 -69 30q-30 29 -29 69q0 40 29 68t70 30q40 -2 69 -30t29 -68zM420 373q129 0 204 126q75 127 74 332q0 92 -49 145q-49 54 -117 54q-65 0 -119.5 -39t-87.5 -99.5t-51 -127t-18 -126.5q0 -263 164 -265zM88 -386q102 -60 263 -60
t279 96q64 52 64 126q0 73 -43 110q-43 38 -141 69l-256 80q-202 -86 -245 -169q-24 -47 -23 -106q0 -86 102 -146zM803 -172q0 -94 -82 -172q-155 -148 -461 -148q-138 0 -277 73q-140 74 -141 169q0 187 375 299q-100 45 -100 113q0 95 190 192q-84 31 -129 95t-45 153
q0 116 47.5 221t141 175t210.5 71q103 0 185 -68h49q81 0 130.5 21t100.5 80q37 -44 37 -85q0 -40 -34 -73q-20 -18 -60 -18q-52 0 -137 30q-45 16 -60 21q82 -86 82 -237q-2 -151 -119 -276q-118 -126 -288 -126q-41 0 -76 8q-59 -39 -90 -88q-62 -95 57 -131l205 -61
q159 -48 224 -96q63 -47 65 -142z" />
    <glyph glyph-name="Gcommaaccent" unicode="&#x122;" horiz-adv-x="1472" 
d="M623 -183q-1 33 25 59t66 26t66 -29q26 -30 25 -68q0 -43 -27.5 -89t-70 -83.5t-86.5 -67t-84 -46.5l-7 4q40 35 82 88.5t42 88.5q0 24 -16 55q-15 30 -15 62zM698 -31q-311 0 -470 217q-159 218 -95 543q63 325 323 519t554 194q92 0 220.5 -21.5t199.5 -54.5l-54 -274
h-8q-42 158 -133.5 236t-251.5 79q-230 0 -432 -194t-260 -501q-59 -309 71 -507q130 -199 373 -199q79 0 183 17t167 45l70 360q27 126 2 184q-26 59 -123 86l2 9h441l-2 -9q-85 -28 -123 -80q-37 -50 -64 -190l-71 -375q-257 -84 -519 -84z" />
    <glyph glyph-name="gcommaaccent" unicode="&#x123;" horiz-adv-x="903" 
d="M637 1354q0 -16 15 -48q36 -78 -11 -125q-27 -28 -69 -28q-40 0 -66.5 29.5t-28.5 70.5q0 44 27.5 90.5t71 84t88 66t86.5 46.5l6 -4q-119 -104 -119 -182zM420 373q129 0 204 126q75 127 74 332q0 92 -49 145q-49 54 -117 54q-65 0 -119.5 -39t-87.5 -99.5t-51 -127
t-18 -126.5q0 -263 164 -265zM88 -386q102 -60 263 -60t279 96q64 52 64 126q0 73 -43 110q-43 38 -141 69l-256 80q-202 -86 -245 -169q-24 -47 -23 -106q0 -86 102 -146zM803 -172q0 -94 -82 -172q-155 -148 -461 -148q-138 0 -277 73q-140 74 -141 169q0 187 375 299
q-100 45 -100 113q0 95 190 192q-84 31 -129 95t-45 153q0 116 47.5 221t141 175t210.5 71q103 0 185 -68h49q81 0 130.5 21t100.5 80q37 -44 37 -85q0 -40 -34 -73q-20 -18 -60 -18q-52 0 -137 30q-45 16 -60 21q82 -86 82 -237q-2 -151 -119 -276q-118 -126 -288 -126
q-41 0 -76 8q-59 -39 -90 -88q-62 -95 57 -131l205 -61q159 -48 224 -96q63 -47 65 -142z" />
    <glyph glyph-name="Hcircumflex" unicode="&#x124;" horiz-adv-x="1597" 
d="M1087 1782l142 -250h-17l-184 141l-256 -141h-16l231 250h100zM1427 8l-2 -8h-473l2 8q64 15 100.5 31.5t61.5 47.5t36.5 67t25.5 104l86 442h-858l-87 -442q-44 -159 25 -210q26 -19 100 -40l-2 -8h-471l2 8q51 13 84 27t56 31t38 46t24 60.5t20 85.5l174 897
q25 89 13 140q-10 49 -38 69q-28 21 -100 41l2 8h473l-2 -8q-63 -15 -100 -31.5t-61.5 -47.5t-36.5 -67.5t-25 -103.5l-78 -399h858l78 399q25 89 13 140q-10 49 -38 69q-28 21 -100 41l2 8h473l-2 -8q-63 -15 -100 -31.5t-61.5 -47.5t-36.5 -67.5t-25 -103.5l-174 -897
q-43 -159 24 -210q26 -19 100 -40z" />
    <glyph glyph-name="hcircumflex" unicode="&#x125;" 
d="M578 1823l141 -250h-17l-184 141l-256 -141h-16l231 250h101zM881 -27q-111 0 -111 136q0 55 21 170l92 442q14 65 14 119q0 145 -113 145q-90 0 -191 -59t-183 -138l-148 -788h-117l222 1231q12 63 12 112t-33 69q-34 20 -119 32l2 8q177 26 312 92h8l-133 -715
q88 87 209 163.5t213 76.5q174 0 174 -207q0 -56 -17 -147l-96 -492q-10 -53 -10 -84q0 -71 55 -71q75 0 191 69v-8q-162 -156 -254 -156z" />
    <glyph glyph-name="Hbar" unicode="&#x126;" horiz-adv-x="1597" 
d="M416 756h858l49 252h-858zM1427 8l-2 -8h-473l2 8q64 15 100.5 31.5t61.5 47.5t36.5 67t25.5 104l86 442h-858l-87 -442q-44 -159 25 -210q26 -19 100 -40l-2 -8h-471l2 8q51 13 84 27t56 31t38 46t24 60.5t20 85.5l145 750h-168l10 55h168l19 92q25 89 13 140
q-10 49 -38 69q-28 21 -100 41l2 8h473l-2 -8q-63 -15 -100 -31.5t-61.5 -47.5t-36.5 -67.5t-25 -103.5l-19 -92h858l19 92q25 89 13 140q-10 49 -38 69q-28 21 -100 41l2 8h473l-2 -8q-63 -15 -100 -31.5t-61.5 -47.5t-36.5 -67.5t-25 -103.5l-19 -92h160l-10 -55h-160
l-145 -750q-43 -159 24 -210q26 -19 100 -40z" />
    <glyph glyph-name="hbar" unicode="&#x127;" 
d="M881 -27q-111 0 -111 136q0 55 21 170l92 442q14 65 14 119q0 145 -113 145q-90 0 -191 -59t-183 -138l-148 -788h-117l215 1202h-153l10 55h154q8 42 8 87q0 48 -33 68q-34 20 -119 32l2 8q177 26 312 92h8l-53 -287h356l-10 -55h-357l-69 -373q88 87 209 163.5
t213 76.5q174 0 174 -207q0 -56 -17 -147l-96 -492q-10 -53 -10 -84q0 -71 55 -71q75 0 191 69v-8q-162 -156 -254 -156z" />
    <glyph glyph-name="Itilde" unicode="&#x128;" horiz-adv-x="614" 
d="M623 1634q-47 0 -133 30q-85 30 -119 30q-89 0 -127 -62l-17 4q23 42 45 64.5t64 47.5q55 32 106 32q54 0 139 -27t119 -27q86 0 131 74l17 -4q-86 -162 -225 -162zM444 8l-2 -8h-471l2 8q51 13 84 27t56 31t38 46t24 60.5t20 85.5l174 897q25 89 13 140q-10 49 -38 69
q-28 21 -100 41l2 8h473l-2 -8q-63 -15 -100 -31.5t-61.5 -47.5t-36.5 -67.5t-25 -103.5l-175 -897q-44 -159 25 -210q26 -19 100 -40z" />
    <glyph glyph-name="itilde" unicode="&#x129;" horiz-adv-x="602" 
d="M117 1264l-17 4q29 61 90 102t126 41q54 0 138 -27q83 -26 116 -26q90 0 135 74l16 -5q-86 -162 -225 -161q-49 0 -134 30q-85 29 -116 29q-91 0 -129 -61zM285 -27q-113 0 -113 138q0 61 23 168l116 540q9 39 11 84q0 74 -54 74q-77 0 -190 -68v9q159 152 252 151
q114 0 112 -137q0 -65 -22 -168l-117 -541q-10 -41 -10 -84q0 -71 55 -71q76 0 191 69v-8q-162 -156 -254 -156z" />
    <glyph glyph-name="Imacron" unicode="&#x12a;" horiz-adv-x="614" 
d="M774 1690l-14 -78h-512l14 78h512zM444 8l-2 -8h-471l2 8q51 13 84 27t56 31t38 46t24 60.5t20 85.5l174 897q25 89 13 140q-10 49 -38 69q-28 21 -100 41l2 8h473l-2 -8q-63 -15 -100 -31.5t-61.5 -47.5t-36.5 -67.5t-25 -103.5l-175 -897q-44 -159 25 -210
q26 -19 100 -40z" />
    <glyph glyph-name="imacron" unicode="&#x12b;" horiz-adv-x="602" 
d="M662 1321l-15 -78h-512l15 78h512zM285 -27q-113 0 -113 138q0 61 23 168l116 540q9 39 11 84q0 74 -54 74q-77 0 -190 -68v9q159 152 252 151q114 0 112 -137q0 -65 -22 -168l-117 -541q-10 -41 -10 -84q0 -71 55 -71q76 0 191 69v-8q-162 -156 -254 -156z" />
    <glyph glyph-name="Ibreve" unicode="&#x12c;" horiz-adv-x="614" 
d="M503 1546q-98 0 -150 67t-52 169h8q20 -63 77.5 -99t126.5 -36q72 0 146.5 38t112.5 97h8q-37 -102 -107.5 -169t-169.5 -67zM444 8l-2 -8h-471l2 8q51 13 84 27t56 31t38 46t24 60.5t20 85.5l174 897q25 89 13 140q-10 49 -38 69q-28 21 -100 41l2 8h473l-2 -8
q-63 -15 -100 -31.5t-61.5 -47.5t-36.5 -67.5t-25 -103.5l-175 -897q-44 -159 25 -210q26 -19 100 -40z" />
    <glyph glyph-name="ibreve" unicode="&#x12d;" horiz-adv-x="602" 
d="M162 1413h8q19 -63 77.5 -98t127.5 -35q72 0 146 37t112 96h8q-40 -103 -109 -169t-168 -66t-150.5 66.5t-51.5 168.5zM285 -27q-113 0 -113 138q0 61 23 168l116 540q9 39 11 84q0 74 -54 74q-77 0 -190 -68v9q159 152 252 151q114 0 112 -137q0 -65 -22 -168l-117 -541
q-10 -41 -10 -84q0 -71 55 -71q76 0 191 69v-8q-162 -156 -254 -156z" />
    <glyph glyph-name="Iogonek" unicode="&#x12e;" horiz-adv-x="614" 
d="M365 -350l-3 -8q-70 -70 -141 -70t-108 37t-37 81q0 110 209 232q98 61 137 78h-451l2 8q51 13 84 27t56 31t38 46t24 60.5t20 85.5l174 897q25 89 13 140q-10 49 -38 69q-28 21 -100 41l2 8h473l-2 -8q-63 -15 -100 -31.5t-61.5 -47.5t-36.5 -67.5t-25 -103.5l-175 -897
q-44 -159 25 -210q26 -19 100 -40l-2 -8q-239 -188 -237 -299q0 -61 82 -61q29 0 78 10z" />
    <glyph glyph-name="iogonek" unicode="&#x12f;" horiz-adv-x="602" 
d="M555 1343q0 -40 -29 -68t-70 -30q-40 0 -69 29.5t-29 69.5t29.5 69t69.5 29q38 0 69 -29t29 -70zM512 -350l-2 -8q-70 -70 -142 -70q-61 0 -103 32t-42 91q0 50 55 118q57 73 130 153q75 82 106 143q-140 -135 -236 -135t-104 99q-8 81 21 206l116 540q35 158 -43 158
q-77 0 -190 -68v9q158 152 257 152t105 -100q6 -77 -20 -206l-117 -541q-17 -78 -6.5 -117t49.5 -38q76 0 193 69v-8q-25 -57 -71 -143q-116 -221 -116 -285q0 -61 82 -61q29 0 78 10z" />
    <glyph glyph-name="Idotaccent" unicode="&#x130;" horiz-adv-x="614" 
d="M629 1683q0 -40 -29 -68t-70 -30q-40 0 -69 29.5t-29 69.5q0 39 29.5 68.5t68.5 29.5q40 0 69.5 -29.5t29.5 -69.5zM444 8l-2 -8h-471l2 8q51 13 84 27t56 31t38 46t24 60.5t20 85.5l174 897q25 89 13 140q-10 49 -38 69q-28 21 -100 41l2 8h473l-2 -8
q-63 -15 -100 -31.5t-61.5 -47.5t-36.5 -67.5t-25 -103.5l-175 -897q-44 -159 25 -210q26 -19 100 -40z" />
    <glyph glyph-name="dotlessi" unicode="&#x131;" horiz-adv-x="602" 
d="M285 -27q-113 0 -113 138q0 61 23 168l116 540q9 39 11 84q0 74 -54 74q-77 0 -190 -68v9q159 152 252 151q114 0 112 -137q0 -65 -22 -168l-117 -541q-10 -41 -10 -84q0 -71 55 -71q76 0 191 69v-8q-162 -156 -254 -156z" />
    <glyph glyph-name="IJ" unicode="&#x132;" horiz-adv-x="1222" 
d="M547 -428l-2 6q197 123 252 399l223 1158q16 79 19 127q3 43 -14 74q-17 30 -43 41q-32 13 -83 28l2 8h473l-2 -8q-115 -28 -157 -73q-40 -43 -70 -197l-213 -1098q-25 -141 -85 -238t-174 -165q-41 -25 -126 -62zM444 8l-2 -8h-471l2 8q51 13 84 27t56 31t38 46t24 60.5
t20 85.5l174 897q25 89 13 140q-10 49 -38 69q-28 21 -100 41l2 8h473l-2 -8q-63 -15 -100 -31.5t-61.5 -47.5t-36.5 -67.5t-25 -103.5l-175 -897q-44 -159 25 -210q26 -19 100 -40z" />
    <glyph glyph-name="ij" unicode="&#x133;" horiz-adv-x="1153" 
d="M907 903q0 74 -53 74q-77 0 -190 -68v9q159 152 251 151q111 0 111 -135q0 -52 -20 -170l-138 -770q-68 -380 -352 -486l-2 11q86 51 140.5 162t76.5 233l166 905q10 53 10 84zM1157 1343q0 -40 -29 -68t-70 -30q-40 0 -69 29.5t-29 69.5t29.5 69t69.5 29q38 0 69 -29
t29 -70zM555 1343q0 -40 -29 -68t-70 -30q-40 0 -69 29.5t-29 69.5t29.5 69t69.5 29q38 0 69 -29t29 -70zM195 279l116 540q35 158 -43 158q-77 0 -190 -68v9q158 152 257 152t105 -100q6 -77 -20 -206l-117 -541q-17 -78 -6.5 -117t49.5 -38q78 0 193 69v-8
q-161 -156 -259 -156q-99 0 -106 100q-8 81 21 206z" />
    <glyph glyph-name="Jcircumflex" unicode="&#x134;" horiz-adv-x="608" 
d="M627 1782l141 -250h-16l-185 141l-256 -141h-16l231 250h101zM-68 -428l-2 6q196 123 252 399l224 1158q16 79 19 127q3 43 -14 74q-17 30 -43 41q-32 13 -83 28l2 8h473l-2 -8q-115 -28 -157 -73q-39 -42 -71 -197l-213 -1098q-27 -143 -85.5 -238.5t-173.5 -164.5
q-41 -25 -126 -62z" />
    <glyph glyph-name="jcircumflex" unicode="&#x135;" horiz-adv-x="550" 
d="M446 1413l142 -250h-17l-184 142l-256 -142h-16l231 250h100zM252 977q-78 0 -191 -68v9q159 152 252 151q77 0 103 -63q23 -58 -13 -242l-137 -770q-68 -380 -352 -486l-2 11q86 51 140.5 162t76.5 233l166 905q29 158 -43 158z" />
    <glyph glyph-name="Kcommaaccent" unicode="&#x136;" horiz-adv-x="1425" 
d="M580 -183q0 36 27.5 60.5t63.5 24.5q39 0 65 -29t26 -68q0 -43 -27.5 -89t-70 -83.5t-86.5 -67t-84 -46.5l-7 4q40 35 81.5 88t41.5 89q0 24 -15 55q-15 30 -15 62zM1374 8l-2 -8h-495l2 8q96 16 126 42q29 26 15 92q-13 65 -90 214l-223 439l-332 -279l-49 -258
q-44 -159 24 -210q26 -18 101 -40l-2 -8h-478l2 8q51 13 84 27t56 31t38 46t24 60.5t20 85.5l174 897q25 89 13 140q-10 49 -38 69q-28 21 -100 41l2 8h479l-2 -8q-63 -15 -100 -31.5t-61.5 -47.5t-36.5 -67.5t-25 -103.5l-113 -575l555 475q248 215 236 284q-7 39 -115 66
l2 8h498l-2 -8q-119 -27 -210 -87q-87 -57 -317 -249l-221 -186l268 -527q101 -201 147 -256q38 -46 61 -60t85 -32z" />
    <glyph glyph-name="kcommaaccent" unicode="&#x137;" horiz-adv-x="1019" 
d="M418 -300q0 24 -16 55q-15 30 -15 62q0 36 27.5 60.5t63.5 24.5q40 0 66 -29q26 -30 25 -68q0 -43 -27.5 -89t-70 -83.5t-86.5 -67t-84 -46.5l-6 4q39 34 81 88t42 89zM123 0l219 1231q12 63 12 112t-32 70q-35 21 -119 31l2 8q178 26 311 92h8l-284 -1544h-117zM793 -27
q-64 2 -107 51t-108 199l-150 344q273 118 440 297q-37 7 -61.5 37t-24.5 68q0 41 30 70.5t71 29.5q43 0 74.5 -31.5t33.5 -74.5q0 -76 -106 -163q-106 -86 -340 -220l178 -355q44 -85 76 -120q33 -36 86 -36t157 66l2 -6q-109 -156 -251 -156z" />
    <glyph glyph-name="kgreenlandic" unicode="&#x138;" horiz-adv-x="1019" 
d="M798 -27q-68 2 -110 49q-42 46 -110 201l-150 344q273 118 440 297q-37 7 -61.5 37t-24.5 68q0 41 30 70.5t71 29.5q46 0 76 -32t32 -79q1 -71 -107 -160q-104 -85 -339 -218l178 -355q45 -90 79 -124q69 -69 240 34l2 -6q-42 -63 -109.5 -109t-136.5 -47zM303 903
q0 74 -53 74q-78 0 -191 -68v9q159 152 252 151q113 0 113 -137q0 -61 -23 -168l-165 -764h-119l176 819q10 41 10 84z" />
    <glyph glyph-name="Lacute" unicode="&#x139;" horiz-adv-x="1093" 
d="M387 1532h-10q120 91 166 250h172q-117 -159 -328 -250zM279 45h372q76 0 149 58q71 56 206 219h8l-105 -322h-938l2 8q113 29 155 79t67 171l174 897q26 125 0 173q-26 49 -125 77l2 8h473l-2 -8q-115 -29 -157.5 -79t-65.5 -171z" />
    <glyph glyph-name="lacute" unicode="&#x13a;" horiz-adv-x="587" 
d="M340 1573h-10q120 91 166 250h172q-117 -159 -328 -250zM262 -27q-111 0 -110 136q0 52 20 170l170 952q12 63 12 112t-32 70q-35 21 -119 31l2 8q178 26 311 92h8l-243 -1321q-9 -48 -11 -84q0 -71 56 -71q74 0 190 69v-8q-162 -156 -254 -156z" />
    <glyph glyph-name="Lcommaaccent" unicode="&#x13b;" horiz-adv-x="1093" 
d="M412 -183q0 36 27.5 60.5t63.5 24.5q39 0 65 -29t26 -68q0 -43 -27.5 -89t-70 -83.5t-86.5 -67t-84 -46.5l-7 4q40 35 81.5 88t41.5 89q0 24 -15 55q-15 30 -15 62zM279 45h372q76 0 149 58q71 56 206 219h8l-105 -322h-938l2 8q113 29 155 79t67 171l174 897
q26 125 0 173q-26 49 -125 77l2 8h473l-2 -8q-115 -29 -157.5 -79t-65.5 -171z" />
    <glyph glyph-name="lcommaaccent" unicode="&#x13c;" horiz-adv-x="587" 
d="M172 -300q0 24 -15 55q-37 73 10 120q25 27 65 27t66 -28.5t26 -68.5q0 -43 -27.5 -89t-70 -83.5t-87 -67t-84.5 -46.5l-6 4q39 34 81 88t42 89zM262 -27q-111 0 -110 136q0 52 20 170l170 952q12 63 12 112t-32 70q-35 21 -119 31l2 8q178 26 311 92h8l-243 -1321
q-9 -48 -11 -84q0 -71 56 -71q74 0 190 69v-8q-162 -156 -254 -156z" />
    <glyph glyph-name="Lcaron" unicode="&#x13d;" horiz-adv-x="1093" 
d="M764 1214q0 24 -15 55q-15 29 -15 61q0 36 26.5 61t63.5 25q40 0 66 -30t25 -67q0 -83 -88 -168.5t-180 -126.5l-6 4q37 33 80 92t43 94zM279 45h372q76 0 149 58q71 56 206 219h8l-105 -322h-938l2 8q113 29 155 79t67 171l174 897q26 125 0 173q-26 49 -125 77l2 8h473
l-2 -8q-115 -29 -157.5 -79t-65.5 -171z" />
    <glyph glyph-name="lcaron" unicode="&#x13e;" horiz-adv-x="645" 
d="M643 1344q0 24 -15 54q-16 29 -16 62q0 36 28 60t64 24q40 0 65.5 -28t25.5 -68q1 -83 -88 -168.5t-181 -126.5l-6 4q38 34 80.5 92.5t42.5 94.5zM262 -27q-111 0 -110 136q0 52 20 170l170 952q12 63 12 112t-32 70q-35 21 -119 31l2 8q178 26 311 92h8l-243 -1321
q-9 -48 -11 -84q0 -71 56 -71q74 0 190 69v-8q-162 -156 -254 -156z" />
    <glyph glyph-name="Ldot" unicode="&#x13f;" horiz-adv-x="1093" 
d="M762 725q0 -45 -35 -80t-80 -35t-80 35t-35 80t35 80t80 35t80 -35t35 -80zM279 45h372q76 0 149 58q71 56 206 219h8l-105 -322h-938l2 8q113 29 155 79t67 171l174 897q26 125 0 173q-26 49 -125 77l2 8h473l-2 -8q-115 -29 -157.5 -79t-65.5 -171z" />
    <glyph glyph-name="ldot" unicode="&#x140;" horiz-adv-x="622" 
d="M696 729q0 -46 -34 -80.5t-80 -34.5q-45 0 -80 35t-35 80t35 80t80 35q46 0 80 -34.5t34 -80.5zM262 -27q-111 0 -110 136q0 52 20 170l170 952q12 63 12 112t-32 70q-35 21 -119 31l2 8q178 26 311 92h8l-243 -1321q-9 -48 -11 -84q0 -71 56 -71q74 0 190 69v-8
q-162 -156 -254 -156z" />
    <glyph glyph-name="Lslash" unicode="&#x141;" horiz-adv-x="1093" 
d="M279 45h372q76 0 149 58q71 56 206 219h8l-105 -322h-938l2 8q113 29 155 79t67 171l63 328l-178 -62v68l192 65l97 498q26 125 0 173q-26 49 -125 77l2 8h473l-2 -8q-115 -29 -157.5 -79t-65.5 -171l-88 -450l268 92v-68l-283 -98z" />
    <glyph glyph-name="lslash" unicode="&#x142;" horiz-adv-x="587" 
d="M262 -27q-111 0 -110 136q0 52 20 170l104 581l-184 -69v67l197 76l53 297q12 63 12 112t-32 70q-35 21 -119 31l2 8q178 26 311 92h8l-104 -561l205 80v-68l-217 -84l-127 -688q-9 -48 -11 -84q0 -71 56 -71q74 0 190 69v-8q-162 -156 -254 -156z" />
    <glyph glyph-name="Nacute" unicode="&#x143;" horiz-adv-x="1611" 
d="M856 1532h-10q120 91 166 250h172q-117 -159 -328 -250zM1513 987l-196 -1007h-60l-813 1290l-163 -844q-45 -244 -31 -316q13 -70 110 -102l-2 -8h-378l2 8q110 33 152 105q43 74 89 313l152 780q16 81 -23 128q-38 45 -141 71l2 8h307l780 -1231l156 805q45 244 31 316
q-13 71 -111 102l2 8h381l-2 -8q-76 -23 -114 -59t-67 -110q-30 -80 -63 -249z" />
    <glyph glyph-name="nacute" unicode="&#x144;" 
d="M553 1163h-10q120 91 166 250h172q-117 -159 -328 -250zM877 -27q-105 0 -107 138q0 72 21 168l92 442q14 65 14 130q0 134 -121 134q-168 0 -368 -197l-146 -788h-119l152 819q10 53 10 84q0 74 -55 74q-76 0 -189 -68v9q157 152 256 151q105 0 107 -137q0 -44 -10 -103
q245 240 428 240q92 0 134 -52q42 -53 38 -131q-5 -84 -19 -171l-96 -492q-10 -53 -10 -86q0 -69 55 -69q75 0 191 69v-8q-161 -156 -258 -156z" />
    <glyph glyph-name="Ncommaaccent" unicode="&#x145;" horiz-adv-x="1611" 
d="M645 -300q0 24 -15 55q-37 73 10 120q26 27 66 27q39 0 65 -29t26 -68q-1 -56 -49 -117.5t-106 -102.5t-114 -66l-6 4q39 34 81 88t42 89zM1513 987l-196 -1007h-60l-813 1290l-163 -844q-45 -244 -31 -316q13 -70 110 -102l-2 -8h-378l2 8q110 33 152 105q43 74 89 313
l152 780q16 81 -23 128q-38 45 -141 71l2 8h307l780 -1231l156 805q45 244 31 316q-13 71 -111 102l2 8h381l-2 -8q-76 -23 -114 -59t-67 -110q-30 -80 -63 -249z" />
    <glyph glyph-name="ncommaaccent" unicode="&#x146;" 
d="M471 -300q0 24 -15 55q-37 73 10 120q26 27 66 27q39 0 65 -29t26 -68q-1 -56 -49 -117.5t-106 -102.5t-114 -66l-6 4q39 34 81 88t42 89zM877 -27q-105 0 -107 138q0 72 21 168l92 442q14 65 14 130q0 134 -121 134q-168 0 -368 -197l-146 -788h-119l152 819
q10 53 10 84q0 74 -55 74q-76 0 -189 -68v9q157 152 256 151q105 0 107 -137q0 -44 -10 -103q245 240 428 240q92 0 134 -52q42 -53 38 -131q-5 -84 -19 -171l-96 -492q-10 -53 -10 -86q0 -69 55 -69q75 0 191 69v-8q-161 -156 -258 -156z" />
    <glyph glyph-name="Ncaron" unicode="&#x147;" horiz-adv-x="1611" 
d="M1280 1782l-236 -250h-100l-137 250h16l181 -142l260 142h16zM1513 987l-196 -1007h-60l-813 1290l-163 -844q-45 -244 -31 -316q13 -70 110 -102l-2 -8h-378l2 8q110 33 152 105q43 74 89 313l152 780q16 81 -23 128q-38 45 -141 71l2 8h307l780 -1231l156 805
q45 244 31 316q-13 71 -111 102l2 8h381l-2 -8q-76 -23 -114 -59t-67 -110q-30 -80 -63 -249z" />
    <glyph glyph-name="ncaron" unicode="&#x148;" 
d="M973 1413l-236 -250h-100l-137 250h16l180 -141l260 141h17zM877 -27q-105 0 -107 138q0 72 21 168l92 442q14 65 14 130q0 134 -121 134q-168 0 -368 -197l-146 -788h-119l152 819q10 53 10 84q0 74 -55 74q-76 0 -189 -68v9q157 152 256 151q105 0 107 -137
q0 -44 -10 -103q245 240 428 240q92 0 134 -52q42 -53 38 -131q-5 -84 -19 -171l-96 -492q-10 -53 -10 -86q0 -69 55 -69q75 0 191 69v-8q-161 -156 -258 -156z" />
    <glyph glyph-name="napostrophe" unicode="&#x149;" 
d="M352 1344q0 24 -15 54t-15 62q0 37 27 60.5t64 23.5q40 0 65.5 -28t25.5 -68q0 -83 -88 -168.5t-180 -126.5l-7 4q38 34 80.5 92.5t42.5 94.5zM877 -27q-105 0 -107 138q0 72 21 168l92 442q14 65 14 130q0 134 -121 134q-168 0 -368 -197l-146 -788h-119l152 819
q10 53 10 84q0 74 -55 74q-76 0 -189 -68v9q157 152 256 151q105 0 107 -137q0 -44 -10 -103q245 240 428 240q92 0 134 -52q42 -53 38 -131q-5 -84 -19 -171l-96 -492q-10 -53 -10 -86q0 -69 55 -69q75 0 191 69v-8q-161 -156 -258 -156z" />
    <glyph glyph-name="Eng" unicode="&#x14a;" horiz-adv-x="1611" 
d="M986 -332q-58 0 -87 23q-54 43 12 131q53 -29 131 -29q78 -1 122 55q44 57 77 156l-797 1266l-163 -844q-45 -244 -31 -316q13 -70 110 -102l-2 -8h-378l2 8q110 33 152 105q43 74 89 313l152 780q12 59 -29 118q-40 58 -135 81l2 8h307l780 -1231l156 805q45 244 31 316
q-13 71 -111 102l2 8h381l-2 -8q-111 -33 -153 -105q-41 -71 -91 -313l-147 -762q-50 -272 -111 -371q-56 -94 -114.5 -140t-154.5 -46z" />
    <glyph glyph-name="eng" unicode="&#x14b;" 
d="M897 840q0 145 -113 145q-171 0 -376 -197l-146 -788h-119l152 819q10 53 10 84q0 74 -53 74q-78 0 -191 -68v9q159 152 252 151q111 0 111 -135q0 -46 -10 -105q245 240 424 240q174 0 174 -207q0 -56 -17 -147l-129 -721q-68 -380 -352 -486l-2 11q45 26 83 72.5
t63.5 103t42.5 110.5t28 109l154 807q14 81 14 119z" />
    <glyph glyph-name="Omacron" unicode="&#x14c;" horiz-adv-x="1617" 
d="M1292 1690l-14 -78h-512l14 78h512zM354 208q120 -204 359 -204t437 203q199 203 257 500q57 297 -64 499t-359 201q-238 0 -436 -203q-197 -203 -256 -498q-58 -293 62 -498zM1252 169q-257 -200 -544 -200q-288 0 -465 218q-178 218 -116 532q39 203 176.5 374
t328.5 262q182 87 336 87q219 0 381 -123.5t215 -336.5q36 -145 5 -304q-62 -311 -317 -509z" />
    <glyph glyph-name="omacron" unicode="&#x14d;" horiz-adv-x="1073" 
d="M887 1321l-15 -78h-512l15 78h512zM444 -25q-150 0 -258 130t-108 323q0 235 170 438q169 201 377 203q149 0 257 -130q108 -131 107 -323q0 -236 -169 -438q-169 -201 -376 -203zM463 14q167 0 275 210t108 474q0 155 -68 244q-67 88 -172 88q-166 0 -274 -210
q-107 -209 -109 -474q0 -155 68 -244q67 -88 172 -88z" />
    <glyph glyph-name="Obreve" unicode="&#x14e;" horiz-adv-x="1617" 
d="M1011 1546q-98 0 -150 67t-52 169h8q20 -63 77.5 -99t126.5 -36q72 0 146.5 38t112.5 97h8q-37 -102 -107.5 -169t-169.5 -67zM354 208q120 -204 359 -204t437 203q199 203 257 500q57 297 -64 499t-359 201q-238 0 -436 -203q-197 -203 -256 -498q-58 -293 62 -498z
M1252 169q-257 -200 -544 -200q-288 0 -465 218q-178 218 -116 532q39 203 176.5 374t328.5 262q182 87 336 87q219 0 381 -123.5t215 -336.5q36 -145 5 -304q-62 -311 -317 -509z" />
    <glyph glyph-name="obreve" unicode="&#x14f;" horiz-adv-x="1073" 
d="M463 1413h8q20 -63 78 -98t127 -35q73 0 146 36.5t112 96.5h8q-38 -103 -108 -169t-169 -66t-150.5 66.5t-51.5 168.5zM444 -25q-150 0 -258 130t-108 323q0 235 170 438q169 201 377 203q149 0 257 -130q108 -131 107 -323q0 -236 -169 -438q-169 -201 -376 -203z
M463 14q167 0 275 210t108 474q0 155 -68 244q-67 88 -172 88q-166 0 -274 -210q-107 -209 -109 -474q0 -155 68 -244q67 -88 172 -88z" />
    <glyph glyph-name="Ohungarumlaut" unicode="&#x150;" horiz-adv-x="1617" 
d="M1106 1532h-19q46 149 50 250h155q-63 -133 -186 -250zM862 1532h-18q44 145 49 250h156q-64 -133 -187 -250zM354 208q120 -204 359 -204t437 203q199 203 257 500q57 297 -64 499t-359 201q-238 0 -436 -203q-197 -203 -256 -498q-58 -293 62 -498zM1252 169
q-257 -200 -544 -200q-288 0 -465 218q-178 218 -116 532q39 203 176.5 374t328.5 262q182 87 336 87q219 0 381 -123.5t215 -336.5q36 -145 5 -304q-62 -311 -317 -509z" />
    <glyph glyph-name="ohungarumlaut" unicode="&#x151;" horiz-adv-x="1073" 
d="M737 1163h-18q44 145 49 250h156q-64 -133 -187 -250zM494 1163h-19q44 145 49 250h156q-63 -133 -186 -250zM444 -25q-150 0 -258 130t-108 323q0 235 170 438q169 201 377 203q149 0 257 -130q108 -131 107 -323q0 -236 -169 -438q-169 -201 -376 -203zM463 14
q167 0 275 210t108 474q0 155 -68 244q-67 88 -172 88q-166 0 -274 -210q-107 -209 -109 -474q0 -155 68 -244q67 -88 172 -88z" />
    <glyph glyph-name="OE" unicode="&#x152;" horiz-adv-x="2260" 
d="M314 208q120 -204 358 -204t436 203q198 202 258 500q56 297 -64 499t-358 201q-238 0 -436 -203q-199 -205 -257 -498q-57 -294 63 -498zM666 -31q-284 0 -460 218t-114 532q39 204 174.5 374t325.5 262q180 87 353 87q171 0 304 -86.5t195 -243.5l59 301h727l-57 -289
h-8q-13 35 -31 90q-40 120 -77 134q-30 13 -48 16.5t-55 3.5h-330l-119 -618h307q70 0 108 26q35 24 108 109h8l-62 -316h-8q-38 83 -65 109q-29 27 -99 27h-307l-127 -660h387q83 2 113 23q51 36 92 80q46 50 149 174h9l-103 -322h-786l55 285q-116 -144 -278 -229.5
t-340 -86.5z" />
    <glyph glyph-name="oe" unicode="&#x153;" horiz-adv-x="1636" 
d="M1330 603q128 98 128 258q0 161 -160 161q-131 0 -234 -154q-104 -155 -116 -364q255 2 382 99zM463 14q167 0 275 210t108 474q0 155 -68 244q-67 88 -172 88q-166 0 -274 -210q-107 -209 -109 -474q0 -155 68 -244q67 -88 172 -88zM1149 -25q-121 0 -198.5 71
t-106.5 192q-72 -115 -175 -189t-225 -74q-150 0 -258 130t-108 323q0 235 170 438q169 201 377 203q118 0 197 -80.5t112 -202.5q70 117 178 200t228 83q99 0 171.5 -50t72.5 -145q0 -378 -636 -405v-12q0 -193 71 -288t177 -95q103 0 176 40.5t146 125.5l12 -15
q-58 -103 -164 -176.5t-217 -73.5z" />
    <glyph glyph-name="Racute" unicode="&#x154;" horiz-adv-x="1333" 
d="M713 1532h-11q120 91 166 250h172q-115 -159 -327 -250zM1315 0h-103q-164 0 -204 24q-39 23 -107 162l-217 455h-264l-70 -362q-27 -159 -5 -200q23 -43 126 -71l-2 -8h-477l2 8q115 28 156 74q40 45 69 197l166 856q27 158 5 199q-23 43 -126 71l2 8h588
q214 1 318 -109q103 -109 70 -284q-33 -173 -161 -247q-108 -62 -270 -101l229 -434q71 -131 121 -171q49 -39 156 -59zM428 684h217q161 0 292 81q130 81 163 249t-42 261t-245 93h-252z" />
    <glyph glyph-name="racute" unicode="&#x155;" horiz-adv-x="800" 
d="M393 1163h-10q120 91 166 250h172q-117 -159 -328 -250zM307 913q0 62 -47 64q-69 0 -199 -109v9q147 193 252 192q111 0 111 -135q0 -51 -21 -162q25 45 56.5 90t74 95t92.5 81t95 31q47 0 82 -26.5t35 -72.5q0 -45 -28 -73.5t-73 -28.5q-44 0 -73 35q-28 34 -23 82
q-100 -37 -250 -285l-129 -700h-119l152 819q12 57 12 94z" />
    <glyph glyph-name="Rcommaaccent" unicode="&#x156;" horiz-adv-x="1333" 
d="M584 -300q0 24 -16 55q-15 30 -15 62q0 36 27.5 60.5t63.5 24.5q40 0 66 -29q26 -30 25 -68q0 -43 -27.5 -89t-70 -83.5t-86.5 -67t-84 -46.5l-6 4q39 34 81 88t42 89zM1315 0h-103q-164 0 -204 24q-39 23 -107 162l-217 455h-264l-70 -362q-27 -159 -5 -200
q23 -43 126 -71l-2 -8h-477l2 8q115 28 156 74q40 45 69 197l166 856q27 158 5 199q-23 43 -126 71l2 8h588q214 1 318 -109q103 -109 70 -284q-33 -173 -161 -247q-108 -62 -270 -101l229 -434q71 -131 121 -171q49 -39 156 -59zM428 684h217q161 0 292 81q130 81 163 249
t-42 261t-245 93h-252z" />
    <glyph glyph-name="rcommaaccent" unicode="&#x157;" horiz-adv-x="800" 
d="M117 -300q0 24 -16 55q-15 30 -15 62q0 37 27.5 61t64.5 24q39 0 65 -29q26 -30 25 -68q0 -43 -27.5 -89t-70 -83.5t-86.5 -67t-84 -46.5l-6 4q39 34 81 88t42 89zM307 913q0 62 -47 64q-69 0 -199 -109v9q147 193 252 192q111 0 111 -135q0 -51 -21 -162q25 45 56.5 90
t74 95t92.5 81t95 31q47 0 82 -26.5t35 -72.5q0 -45 -28 -73.5t-73 -28.5q-44 0 -73 35q-28 34 -23 82q-100 -37 -250 -285l-129 -700h-119l152 819q12 57 12 94z" />
    <glyph glyph-name="Rcaron" unicode="&#x158;" horiz-adv-x="1333" 
d="M1081 1782l-235 -250h-101l-137 250h17l180 -142l260 142h16zM1315 0h-103q-164 0 -204 24q-39 23 -107 162l-217 455h-264l-70 -362q-27 -159 -5 -200q23 -43 126 -71l-2 -8h-477l2 8q115 28 156 74q40 45 69 197l166 856q27 158 5 199q-23 43 -126 71l2 8h588
q214 1 318 -109q103 -109 70 -284q-33 -173 -161 -247q-108 -62 -270 -101l229 -434q71 -131 121 -171q49 -39 156 -59zM428 684h217q161 0 292 81q130 81 163 249t-42 261t-245 93h-252z" />
    <glyph glyph-name="rcaron" unicode="&#x159;" horiz-adv-x="800" 
d="M770 1413l-235 -250h-101l-137 250h16l181 -141l260 141h16zM307 913q0 62 -47 64q-69 0 -199 -109v9q147 193 252 192q111 0 111 -135q0 -51 -21 -162q25 45 56.5 90t74 95t92.5 81t95 31q47 0 82 -26.5t35 -72.5q0 -45 -28 -73.5t-73 -28.5q-44 0 -73 35q-28 34 -23 82
q-100 -37 -250 -285l-129 -700h-119l152 819q12 57 12 94z" />
    <glyph glyph-name="Sacute" unicode="&#x15a;" horiz-adv-x="1032" 
d="M616 1532h-10q120 91 166 250h172q-117 -159 -328 -250zM226 99q98 -93 226 -93q129 0 233 88q105 88 106 242q-3 161 -194 300q-12 9 -71 51t-90 65q-192 143 -192 305q0 189 136 286q137 99 310 99q175 0 357 -88l-54 -271h-8q-20 137 -104.5 229.5t-216.5 92.5
q-120 0 -206 -80q-85 -79 -85 -213q0 -154 195 -291l162 -114q196 -138 196 -321q0 -97 -44.5 -185t-123.5 -136q-152 -96 -334 -96q-90 2 -202 23.5t-181 56.5l63 340h9q17 -198 113 -290z" />
    <glyph glyph-name="sacute" unicode="&#x15b;" horiz-adv-x="776" 
d="M393 1163h-10q120 91 166 250h172q-117 -159 -328 -250zM164 784q0 137 95 211t211 74q115 0 195 -47t78 -113q1 -43 -27 -71q-27 -27 -68 -27q-40 0 -65.5 25.5t-27.5 65.5q0 37 24 66.5t60 30.5q-46 35 -137 35q-232 0 -234 -207q0 -106 142 -212q69 -51 118 -89
q142 -108 142 -231q0 -148 -100 -233q-101 -86 -232 -87q-133 2 -220 59q-89 59 -89 130q0 44 28 74t71 30q42 0 71 -26t29 -68q0 -38 -24.5 -68.5t-62.5 -35.5q18 -25 76.5 -42.5t97.5 -17.5q106 0 174 57t68 161q0 105 -139 214q-32 27 -114 92q-140 114 -140 250z" />
    <glyph glyph-name="Scircumflex" unicode="&#x15c;" horiz-adv-x="1032" 
d="M786 1782l142 -250h-17l-184 141l-256 -141h-16l231 250h100zM226 99q98 -93 226 -93q129 0 233 88q105 88 106 242q-3 161 -194 300q-12 9 -71 51t-90 65q-192 143 -192 305q0 189 136 286q137 99 310 99q175 0 357 -88l-54 -271h-8q-20 137 -104.5 229.5t-216.5 92.5
q-120 0 -206 -80q-85 -79 -85 -213q0 -154 195 -291l162 -114q196 -138 196 -321q0 -97 -44.5 -185t-123.5 -136q-152 -96 -334 -96q-90 2 -202 23.5t-181 56.5l63 340h9q17 -198 113 -290z" />
    <glyph glyph-name="scircumflex" unicode="&#x15d;" horiz-adv-x="776" 
d="M598 1413l141 -250h-16l-184 142l-256 -142h-17l232 250h100zM164 784q0 137 95 211t211 74q115 0 195 -47t78 -113q1 -43 -27 -71q-27 -27 -68 -27q-40 0 -65.5 25.5t-27.5 65.5q0 37 24 66.5t60 30.5q-46 35 -137 35q-232 0 -234 -207q0 -106 142 -212q69 -51 118 -89
q142 -108 142 -231q0 -148 -100 -233q-101 -86 -232 -87q-133 2 -220 59q-89 59 -89 130q0 44 28 74t71 30q42 0 71 -26t29 -68q0 -38 -24.5 -68.5t-62.5 -35.5q18 -25 76.5 -42.5t97.5 -17.5q106 0 174 57t68 161q0 105 -139 214q-32 27 -114 92q-140 114 -140 250z" />
    <glyph glyph-name="Scedilla" unicode="&#x15e;" horiz-adv-x="1032" 
d="M312 -403q154 0 153 120q0 35 -31.5 63.5t-70.5 41.5t-74 14l143 133h-8q-87 0 -198 22.5t-185 57.5l63 340h9q17 -198 113 -290q98 -93 226 -93q129 0 233 88q105 88 106 242q-3 161 -194 300q-12 9 -71 51t-90 65q-192 143 -192 305q0 189 136 286q137 99 310 99
q175 0 357 -88l-54 -271h-8q-20 137 -104.5 229.5t-216.5 92.5q-120 0 -206 -80q-85 -79 -85 -213q0 -154 195 -291l162 -114q193 -137 196 -312q0 -137 -72 -234q-125 -170 -385 -190l-66 -61q64 -6 119.5 -55t55.5 -111q0 -56 -40 -97t-92.5 -58t-107.5 -17
q-115 0 -182 53l14 13q73 -41 142 -41z" />
    <glyph glyph-name="scedilla" unicode="&#x15f;" horiz-adv-x="776" 
d="M213 -403q154 0 154 120q1 52 -59 84.5t-118 34.5l150 139h-10q-125 2 -212 59q-89 59 -89 130q0 44 28 74t71 30q42 0 71 -26t29 -68t-28 -71q-25 -30 -59 -33q18 -25 76.5 -42.5t97.5 -17.5q106 0 174 57t68 161q0 105 -139 214q-32 27 -114 92q-140 113 -140 250
t95 211t211 74q115 0 195 -47t78 -113q1 -43 -27 -71q-27 -27 -68 -27q-40 0 -65.5 25.5t-27.5 65.5q0 37 24 66.5t60 30.5q-46 35 -137 35q-232 0 -234 -207q0 -106 142 -212q69 -51 118 -89q142 -108 142 -236q0 -125 -82.5 -210.5t-208.5 -99.5l-74 -70q59 -6 117 -54
t57 -112q0 -57 -39.5 -97.5t-92 -57.5t-107.5 -17q-116 0 -183 53l15 13q73 -41 141 -41z" />
    <glyph glyph-name="Scaron" unicode="&#x160;" horiz-adv-x="1032" 
d="M979 1782l-236 -250h-100l-137 250h16l180 -142l261 142h16zM226 99q98 -93 226 -93q129 0 233 88q105 88 106 242q-3 161 -194 300q-12 9 -71 51t-90 65q-192 143 -192 305q0 189 136 286q137 99 310 99q175 0 357 -88l-54 -271h-8q-20 137 -104.5 229.5t-216.5 92.5
q-120 0 -206 -80q-85 -79 -85 -213q0 -154 195 -291l162 -114q196 -138 196 -321q0 -97 -44.5 -185t-123.5 -136q-152 -96 -334 -96q-90 2 -202 23.5t-181 56.5l63 340h9q17 -198 113 -290z" />
    <glyph glyph-name="scaron" unicode="&#x161;" horiz-adv-x="776" 
d="M772 1413l-235 -250h-101l-137 250h16l181 -141l260 141h16zM164 784q0 137 95 211t211 74q115 0 195 -47t78 -113q1 -43 -27 -71q-27 -27 -68 -27q-40 0 -65.5 25.5t-27.5 65.5q0 37 24 66.5t60 30.5q-46 35 -137 35q-232 0 -234 -207q0 -106 142 -212q69 -51 118 -89
q142 -108 142 -231q0 -148 -100 -233q-101 -86 -232 -87q-133 2 -220 59q-89 59 -89 130q0 44 28 74t71 30q42 0 71 -26t29 -68q0 -38 -24.5 -68.5t-62.5 -35.5q18 -25 76.5 -42.5t97.5 -17.5q106 0 174 57t68 161q0 105 -139 214q-32 27 -114 92q-140 114 -140 250z" />
    <glyph glyph-name="Tcommaaccent" unicode="&#x162;" horiz-adv-x="1306" 
d="M451 -183q-1 33 25 59t66 26t66 -29q26 -30 25 -68q0 -43 -27.5 -89t-70 -83.5t-86.5 -67t-84 -46.5l-7 4q40 35 82 88.5t42 88.5q0 24 -16 55q-15 30 -15 62zM756 1368h-228q-57 0 -111 -42q-58 -45 -212 -202h-8l98 289h1067l-16 -289h-9q-78 161 -112 202
q-35 42 -92 42h-252l-211 -1089q-27 -159 -5 -200q23 -43 126 -71l-3 -8h-473l2 8q117 29 158 74q42 46 70 197z" />
    <glyph glyph-name="tcommaaccent" unicode="&#x163;" horiz-adv-x="620" 
d="M207 -300q0 24 -16 55q-15 30 -15 62q0 37 27.5 61t64.5 24q39 0 65 -29q26 -30 25 -68q0 -43 -27.5 -89t-70 -83.5t-86.5 -67t-84 -46.5l-6 4q39 34 81 88t42 89zM555 137v-8q-162 -156 -269 -156t-117 100q-9 88 13 206l127 712h-205l-2 19l105 26q47 12 82.5 35.5
t60.5 61t40.5 72t33.5 85.5h57l-47 -246h273l-5 -49h-274l-137 -772q-14 -79 -1 -118.5t54 -38.5q89 -1 211 71z" />
    <glyph glyph-name="Tcaron" unicode="&#x164;" horiz-adv-x="1306" 
d="M1120 1782l-235 -250h-101l-137 250h17l180 -142l260 142h16zM756 1368h-228q-57 0 -111 -42q-58 -45 -212 -202h-8l98 289h1067l-16 -289h-9q-78 161 -112 202q-35 42 -92 42h-252l-211 -1089q-27 -159 -5 -200q23 -43 126 -71l-3 -8h-473l2 8q117 29 158 74
q42 46 70 197z" />
    <glyph glyph-name="tcaron" unicode="&#x165;" horiz-adv-x="620" 
d="M666 1344q0 25 -16 54q-15 30 -15 62q0 37 27 60.5t64 23.5q41 0 66 -28q26 -30 25 -68q0 -83 -88 -168.5t-180 -126.5l-6 4q38 34 80.5 92.5t42.5 94.5zM555 137v-8q-162 -156 -269 -156t-117 100q-9 88 13 206l127 712h-205l-2 19l105 26q47 12 82.5 35.5t60.5 61
t40.5 72t33.5 85.5h57l-47 -246h273l-5 -49h-274l-137 -772q-14 -79 -1 -118.5t54 -38.5q89 -1 211 71z" />
    <glyph glyph-name="Tbar" unicode="&#x166;" horiz-adv-x="1306" 
d="M756 1368h-228q-57 0 -111 -42q-58 -45 -212 -202h-8l98 289h1067l-16 -289h-9q-78 161 -112 202q-35 42 -92 42h-252l-119 -612h252l-10 -56h-252l-82 -421q-27 -159 -5 -200q23 -43 126 -71l-3 -8h-473l2 8q117 29 158 74q42 46 70 197l82 421h-246l10 56h246z" />
    <glyph glyph-name="tbar" unicode="&#x167;" horiz-adv-x="620" 
d="M555 137v-8q-162 -156 -269 -156t-117 100q-9 88 13 206l54 307h-195l10 49h195l63 356h-205l-2 19l105 26q47 12 82.5 35.5t60.5 61t40.5 72t33.5 85.5h57l-47 -246h273l-5 -49h-274l-63 -360h239l-10 -49h-240l-63 -363q-14 -79 -1 -118.5t54 -38.5q89 -1 211 71z" />
    <glyph glyph-name="Utilde" unicode="&#x168;" horiz-adv-x="1579" 
d="M1128 1634q-48 0 -133 30t-118 30q-89 0 -127 -62l-17 4q23 42 45 64.5t64 47.5q55 32 106 32q52 0 138 -27t120 -27q86 0 131 74l17 -4q-86 -162 -226 -162zM716 -31q-248 0 -386 111q-137 111 -101 301l152 774q26 125 0 173q-26 49 -127 77l2 8h479l-2 -8
q-112 -29 -154.5 -79.5t-66.5 -170.5l-158 -803q-30 -143 72 -230t309 -87q93 0 177 19.5t157.5 60t125.5 110t71 162.5l116 600q43 228 28 307q-15 78 -110 111l3 8h380l-2 -8q-106 -33 -151 -110q-45 -76 -90 -308l-119 -606q-21 -109 -79 -190.5t-141 -129t-179.5 -70.5
t-205.5 -22z" />
    <glyph glyph-name="utilde" unicode="&#x169;" 
d="M418 1264l-17 4q21 41 44.5 64.5t64.5 47.5q51 31 106 31q54 0 139 -27q83 -26 116 -26q90 0 135 74l16 -5q-86 -162 -225 -161q-47 0 -133 30q-85 29 -117 29q-91 0 -129 -61zM883 -27q-111 0 -111 136q0 19 10 106q-87 -86 -210.5 -164t-213.5 -78q-174 0 -174 207
q0 57 17 148l96 491q10 53 10 84q0 74 -53 74q-71 0 -193 -72v8q162 156 254 156q111 0 111 -135q0 -52 -20 -170l-93 -442q-14 -65 -14 -119q0 -144 113 -146q87 -1 189.5 59t186.5 138l146 788h119l-152 -819q-10 -53 -10 -84q0 -36 13.5 -54t39.5 -17q79 -1 191 65v-8
q-158 -152 -252 -152z" />
    <glyph glyph-name="Umacron" unicode="&#x16a;" horiz-adv-x="1579" 
d="M1276 1690l-14 -78h-512l14 78h512zM716 -31q-248 0 -386 111q-137 111 -101 301l152 774q26 125 0 173q-26 49 -127 77l2 8h479l-2 -8q-112 -29 -154.5 -79.5t-66.5 -170.5l-158 -803q-30 -143 72 -230t309 -87q93 0 177 19.5t157.5 60t125.5 110t71 162.5l116 600
q43 228 28 307q-15 78 -110 111l3 8h380l-2 -8q-106 -33 -151 -110q-45 -76 -90 -308l-119 -606q-21 -109 -79 -190.5t-141 -129t-179.5 -70.5t-205.5 -22z" />
    <glyph glyph-name="umacron" unicode="&#x16b;" 
d="M985 1321l-14 -78h-512l14 78h512zM883 -27q-111 0 -111 136q0 19 10 106q-87 -86 -210.5 -164t-213.5 -78q-174 0 -174 207q0 57 17 148l96 491q10 53 10 84q0 74 -53 74q-71 0 -193 -72v8q162 156 254 156q111 0 111 -135q0 -52 -20 -170l-93 -442q-14 -65 -14 -119
q0 -144 113 -146q87 -1 189.5 59t186.5 138l146 788h119l-152 -819q-10 -53 -10 -84q0 -36 13.5 -54t39.5 -17q79 -1 191 65v-8q-158 -152 -252 -152z" />
    <glyph glyph-name="Ubreve" unicode="&#x16c;" horiz-adv-x="1579" 
d="M1003 1546q-98 0 -150 67t-52 169h8q20 -63 77.5 -99t126.5 -36q72 0 146.5 38t112.5 97h8q-37 -102 -107.5 -169t-169.5 -67zM716 -31q-248 0 -386 111q-137 111 -101 301l152 774q26 125 0 173q-26 49 -127 77l2 8h479l-2 -8q-112 -29 -154.5 -79.5t-66.5 -170.5
l-158 -803q-30 -143 72 -230t309 -87q93 0 177 19.5t157.5 60t125.5 110t71 162.5l116 600q43 228 28 307q-15 78 -110 111l3 8h380l-2 -8q-106 -33 -151 -110q-45 -76 -90 -308l-119 -606q-21 -109 -79 -190.5t-141 -129t-179.5 -70.5t-205.5 -22z" />
    <glyph glyph-name="ubreve" unicode="&#x16d;" 
d="M475 1413h8q20 -63 78 -98t127 -35q73 0 146 36.5t112 96.5h8q-38 -103 -108 -169t-169 -66t-150.5 66.5t-51.5 168.5zM883 -27q-111 0 -111 136q0 19 10 106q-87 -86 -210.5 -164t-213.5 -78q-174 0 -174 207q0 57 17 148l96 491q10 53 10 84q0 74 -53 74
q-71 0 -193 -72v8q162 156 254 156q111 0 111 -135q0 -52 -20 -170l-93 -442q-14 -65 -14 -119q0 -144 113 -146q87 -1 189.5 59t186.5 138l146 788h119l-152 -819q-10 -53 -10 -84q0 -36 13.5 -54t39.5 -17q79 -1 191 65v-8q-158 -152 -252 -152z" />
    <glyph glyph-name="Uring" unicode="&#x16e;" horiz-adv-x="1579" 
d="M1038 1579q65 0 107.5 45.5t42.5 110.5q0 66 -42 110.5t-108 44.5q-65 0 -108 -45.5t-43 -110.5t43 -110t108 -45zM1251 1735q0 -86 -63 -147.5t-150 -61.5t-149.5 61t-62.5 147q0 87 62.5 148.5t149.5 61.5q86 0 150 -61.5t63 -147.5zM716 -31q-248 0 -386 111
q-137 111 -101 301l152 774q26 125 0 173q-26 49 -127 77l2 8h479l-2 -8q-112 -29 -154.5 -79.5t-66.5 -170.5l-158 -803q-30 -143 72 -230t309 -87q93 0 177 19.5t157.5 60t125.5 110t71 162.5l116 600q43 228 28 307q-15 78 -110 111l3 8h380l-2 -8q-106 -33 -151 -110
q-45 -76 -90 -308l-119 -606q-21 -109 -79 -190.5t-141 -129t-179.5 -70.5t-205.5 -22z" />
    <glyph glyph-name="uring" unicode="&#x16f;" 
d="M709 1210q65 0 107 45.5t42 110.5t-42 110.5t-107 45.5t-107.5 -45t-44.5 -111q2 -66 44.5 -111t107.5 -45zM922 1366q0 -86 -63.5 -147t-149.5 -61q-87 0 -150 60.5t-63 147.5q0 86 62.5 147t149.5 61q88 0 151 -60.5t63 -147.5zM883 -27q-111 0 -111 136q0 19 10 106
q-87 -86 -210.5 -164t-213.5 -78q-174 0 -174 207q0 57 17 148l96 491q10 53 10 84q0 74 -53 74q-71 0 -193 -72v8q162 156 254 156q111 0 111 -135q0 -52 -20 -170l-93 -442q-14 -65 -14 -119q0 -144 113 -146q87 -1 189.5 59t186.5 138l146 788h119l-152 -819
q-10 -53 -10 -84q0 -36 13.5 -54t39.5 -17q79 -1 191 65v-8q-158 -152 -252 -152z" />
    <glyph glyph-name="Uhungarumlaut" unicode="&#x170;" horiz-adv-x="1579" 
d="M1128 1532h-18q44 145 49 250h156q-64 -133 -187 -250zM885 1532h-19q44 145 49 250h156q-63 -133 -186 -250zM716 -31q-248 0 -386 111q-137 111 -101 301l152 774q26 125 0 173q-26 49 -127 77l2 8h479l-2 -8q-112 -29 -154.5 -79.5t-66.5 -170.5l-158 -803
q-30 -143 72 -230t309 -87q93 0 177 19.5t157.5 60t125.5 110t71 162.5l116 600q43 228 28 307q-15 78 -110 111l3 8h380l-2 -8q-106 -33 -151 -110q-45 -76 -90 -308l-119 -606q-21 -109 -79 -190.5t-141 -129t-179.5 -70.5t-205.5 -22z" />
    <glyph glyph-name="uhungarumlaut" unicode="&#x171;" 
d="M772 1163h-18q44 145 49 250h155q-63 -133 -186 -250zM528 1163h-18q44 145 49 250h156q-64 -133 -187 -250zM883 -27q-111 0 -111 136q0 19 10 106q-87 -86 -210.5 -164t-213.5 -78q-174 0 -174 207q0 57 17 148l96 491q10 53 10 84q0 74 -53 74q-71 0 -193 -72v8
q162 156 254 156q111 0 111 -135q0 -52 -20 -170l-93 -442q-14 -65 -14 -119q0 -144 113 -146q87 -1 189.5 59t186.5 138l146 788h119l-152 -819q-10 -53 -10 -84q0 -36 13.5 -54t39.5 -17q79 -1 191 65v-8q-158 -152 -252 -152z" />
    <glyph glyph-name="Uogonek" unicode="&#x172;" horiz-adv-x="1579" 
d="M760 -350l-2 -8q-70 -70 -142 -70q-61 0 -103 32t-42 91q0 33 22.5 68.5t51.5 63t75.5 59t74 47.5t67.5 38q-18 -2 -43 -2q-253 0 -389 111q-137 111 -101 301l152 774q26 125 0 173q-26 49 -127 77l2 8h479l-2 -8q-112 -29 -154.5 -79.5t-66.5 -170.5l-158 -803
q-30 -143 72 -230t309 -87q93 0 177 19.5t157.5 60t125.5 110t71 162.5l116 600q43 228 28 307q-15 78 -110 111l3 8h380l-2 -8q-106 -33 -151 -110q-45 -76 -90 -308l-119 -606q-19 -97 -67.5 -173.5t-119.5 -125t-156 -76.5t-183 -35q-195 -180 -195 -270q0 -61 82 -61
q29 0 78 10z" />
    <glyph glyph-name="uogonek" unicode="&#x173;" 
d="M1108 -350l-2 -8q-70 -70 -142 -70q-61 0 -103 32t-42 91q0 49 54 118q59 73 131 151q76 82 106 142q-136 -133 -227 -133q-111 0 -111 136q0 19 10 106q-87 -86 -210.5 -164t-213.5 -78q-174 0 -174 207q0 57 17 148l96 491q10 53 10 84q0 74 -53 74q-71 0 -193 -72v8
q162 156 254 156q111 0 111 -135q0 -52 -20 -170l-93 -442q-14 -65 -14 -119q0 -144 113 -146q87 -1 189.5 59t186.5 138l146 788h119l-152 -819q-10 -53 -10 -84q0 -36 13.5 -54t39.5 -17q79 0 191 65v-8q-24 -56 -71 -143q-116 -215 -116 -281q0 -61 82 -61q29 0 78 10z
" />
    <glyph glyph-name="Wcircumflex" unicode="&#x174;" horiz-adv-x="1947" 
d="M1260 1782l141 -250h-17l-184 141l-256 -141h-16l231 250h101zM1061 1296q0 48 -33 71q-31 21 -106 38l2 8h460l-2 -8q-98 -18 -128 -51.5t-30 -131.5q0 -97 23 -356l68 -710l354 714q178 360 178 441q0 43 -29 61q-30 18 -98 33l2 8h418l-2 -8q-79 -21 -124 -65.5
t-98 -133.5q-63 -105 -185 -344l-455 -893h-55l-115 1211l-629 -1211h-55l-72 891q-35 438 -87 499q-25 29 -97 46l2 8h446l-2 -8q-95 -18 -126.5 -49t-31.5 -121q0 -96 19 -369l49 -702l369 706q170 329 170 426z" />
    <glyph glyph-name="wcircumflex" unicode="&#x175;" horiz-adv-x="1597" 
d="M1006 1413l141 -250h-17l-184 142l-256 -142h-16l231 250h101zM297 1069q112 0 112 -135q-2 -55 -22 -170l-86 -485q-23 -123 9 -170q31 -46 110 -48q53 1 100 25t82.5 64.5t64.5 89.5t49.5 105.5t34 106t21.5 97.5l76 442h119l-125 -712q-23 -122 11 -169t114 -49
q70 0 138.5 44t121 113.5t90.5 139t63 136.5q62 173 64 319q0 54 -17 96q-32 -35 -86 -35q-49 0 -80 23t-31 70q0 46 33 73t81 29q54 0 102 -62t47 -179q0 -118 -42 -260q-102 -344 -299 -503q-113 -90 -241 -92q-76 -1 -136 49q-58 49 -58 154q0 30 14 109h-8
q-129 -311 -358 -312q-91 1 -140 59.5t-49 151.5q0 49 8 95l95 540q29 158 -43 158t-193 -72v8q162 156 254 156z" />
    <glyph glyph-name="Ycircumflex" unicode="&#x176;" horiz-adv-x="1292" 
d="M942 1782l141 -250h-16l-184 141l-256 -141h-17l232 250h100zM743 623l-67 -344q-14 -79 -14 -129q0 -60 35.5 -92.5t99.5 -49.5l-2 -8h-480l2 8q114 28 159 87t69 184l65 339l-135 365q-105 281 -167 349q-31 34 -53.5 48t-66.5 25l2 8h431l-3 -8q-68 -15 -96 -33
q-28 -17 -26 -74q0 -54 98 -309l125 -315l254 338q193 258 192 319q0 49 -102 74l2 8h393l-2 -8q-77 -11 -157 -86q-84 -80 -263 -313z" />
    <glyph glyph-name="ycircumflex" unicode="&#x177;" horiz-adv-x="970" 
d="M649 1413l142 -250h-17l-184 142l-256 -142h-17l232 250h100zM819 881v16q-19 -27 -62 -27q-42 0 -72 30t-30 72q0 48 29 72.5t78 24.5q107 0 106 -160q0 -119 -106 -383.5t-195 -421.5q-335 -596 -547 -596q-55 0 -94 28.5t-41 81.5q0 41 25.5 69t66.5 28
q101 0 103 -141q138 51 338 360q-22 266 -72 532q-50 269 -98 382q-48 117 -102 117t-158 -56v9q128 152 243 151q36 0 58 -16q62 -44 143 -445q53 -262 80 -530q157 298 231 508q76 210 76 295z" />
    <glyph glyph-name="Ydieresis" unicode="&#x178;" horiz-adv-x="1292" 
d="M788 1700q0 -40 -28 -68t-68 -28t-68 28t-28 68q0 39 28.5 67.5t67.5 28.5q40 0 68 -28t28 -68zM1083 1700q-2 -40 -29 -68t-67 -28t-67 28t-29 68q0 40 28.5 68t68.5 28q39 0 66 -28t29 -68zM743 623l-67 -344q-14 -79 -14 -129q0 -60 35.5 -92.5t99.5 -49.5l-2 -8h-480
l2 8q114 28 159 87t69 184l65 339l-135 365q-105 281 -167 349q-31 34 -53.5 48t-66.5 25l2 8h431l-3 -8q-68 -15 -96 -33q-28 -17 -26 -74q0 -54 98 -309l125 -315l254 338q193 258 192 319q0 49 -102 74l2 8h393l-2 -8q-77 -11 -157 -86q-84 -80 -263 -313z" />
    <glyph glyph-name="Zacute" unicode="&#x179;" horiz-adv-x="1159" 
d="M657 1532h-10q120 91 166 250h172q-117 -159 -328 -250zM1073 1368h-530q-80 0 -130 -38q-48 -36 -204 -206h-8l98 289h967l-2 -8l-1110 -1360h557q88 0 142 45q55 46 210 232h8l-102 -322h-1014l2 8z" />
    <glyph glyph-name="zacute" unicode="&#x17a;" horiz-adv-x="835" 
d="M420 1163h-10q119 90 165 250h173q-117 -159 -328 -250zM665 4q-23 -24 -69 -24q-56 0 -263 10q-206 10 -366 10v8l746 934h-357q-102 0 -139 -9t-84 -56h-16l57 167h678v-8l-750 -940q282 0 400 9q103 8 160.5 30t109.5 90l14 -2q-18 -52 -32 -82q-10 -19 -28 -57
q-14 -29 -26 -43q-4 -5 -16.5 -18t-18.5 -19z" />
    <glyph glyph-name="Zdotaccent" unicode="&#x17b;" horiz-adv-x="1159" 
d="M885 1683q0 -41 -28.5 -68.5t-70.5 -29.5q-42 0 -70 28.5t-28 70.5q0 40 29 69t69 29q41 0 70 -29t29 -70zM1073 1368h-530q-80 0 -130 -38q-48 -36 -204 -206h-8l98 289h967l-2 -8l-1110 -1360h557q88 0 142 45q55 46 210 232h8l-102 -322h-1014l2 8z" />
    <glyph glyph-name="zdotaccent" unicode="&#x17c;" horiz-adv-x="835" 
d="M625 1315q0 -41 -29.5 -70t-69.5 -29q-39 0 -68.5 30t-29.5 69q0 40 29 68t69 30q41 -2 70 -30t29 -68zM665 4q-23 -24 -69 -24q-56 0 -263 10q-206 10 -366 10v8l746 934h-357q-102 0 -139 -9t-84 -56h-16l57 167h678v-8l-750 -940q282 0 400 9q103 8 160.5 30t109.5 90
l14 -2q-18 -52 -32 -82q-10 -19 -28 -57q-14 -29 -26 -43q-4 -5 -16.5 -18t-18.5 -19z" />
    <glyph glyph-name="Zcaron" unicode="&#x17d;" horiz-adv-x="1159" 
d="M1042 1782l-235 -250h-100l-138 250h17l180 -142l260 142h16zM1073 1368h-530q-80 0 -130 -38q-48 -36 -204 -206h-8l98 289h967l-2 -8l-1110 -1360h557q88 0 142 45q55 46 210 232h8l-102 -322h-1014l2 8z" />
    <glyph glyph-name="zcaron" unicode="&#x17e;" horiz-adv-x="835" 
d="M795 1413l-236 -250h-100l-137 250h16l180 -141l260 141h17zM665 4q-23 -24 -69 -24q-56 0 -263 10q-206 10 -366 10v8l746 934h-357q-102 0 -139 -9t-84 -56h-16l57 167h678v-8l-750 -940q282 0 400 9q103 8 160.5 30t109.5 90l14 -2q-18 -52 -32 -82q-10 -19 -28 -57
q-14 -29 -26 -43q-4 -5 -16.5 -18t-18.5 -19z" />
    <glyph glyph-name="longs" unicode="&#x17f;" horiz-adv-x="622" 
d="M692 1544q100 0 152 -43t51 -96q0 -47 -24.5 -76t-70.5 -29q-43 0 -71.5 26t-28.5 69q0 77 84 102q-18 8 -55 8q-208 0 -266 -352l-19 -109h236l-8 -49h-236l-172 -1001q-62 -362 -393 -486l-2 11q95 57 163.5 168t88.5 227l188 1081h-203l29 49h182l15 80
q74 420 360 420z" />
    <glyph glyph-name="uni0180" unicode="&#x180;" horiz-adv-x="1130" 
d="M928 625q0 55 -7.5 105.5t-26.5 100.5t-48.5 86.5t-76.5 59t-107 22.5q-52 0 -127.5 -36.5t-131.5 -77.5l-143 -797q26 -19 92 -41q69 -23 103 -22q93 0 172 35.5t133.5 94.5t93 137t56.5 162.5t18 170.5zM512 1544h8l-51 -287h383l-10 -55h-383l-51 -284
q58 65 154.5 108t182.5 43q139 0 231 -117q92 -118 91 -290q0 -100 -31.5 -200.5t-90 -187t-135 -153.5t-174 -106t-200.5 -40q-67 0 -159 17t-154 41l211 1169h-127l10 55h123q6 78 -26 116t-128 71v8q110 7 204 43q28 11 41 15q10 2 44 18q33 16 37 16z" />
    <glyph glyph-name="uni0181" unicode="&#x181;" horiz-adv-x="1351" 
d="M389 45h244q128 0 228 41t161.5 131.5t60.5 220.5q0 73 -30 127t-82 83.5t-112 43t-130 13.5h-213zM526 750h193q182 0 303 105t121 284q0 66 -27.5 112.5t-75 71t-100.5 35t-115 10.5h-180zM309 1372q-60 0 -86 -14v-8q53 -27 53 -99q0 -39 -30.5 -61.5t-70.5 -24.5
q-43 0 -68 31t-25 74q0 143 291 143h501q59 0 113.5 -8t109 -28.5t94 -52t64.5 -82t25 -114.5q0 -181 -120 -266q-118 -84 -261 -119l-2 -8q64 -6 123 -29.5t107 -61.5t76.5 -94.5t29.5 -123.5q0 -244 -189 -340q-169 -86 -415 -86h-553l2 8q61 16 99.5 36.5t63 55.5t37 74
t25.5 105l174 901q25 123 -4 158q-28 34 -164 34z" />
    <glyph glyph-name="uni0182" unicode="&#x182;" horiz-adv-x="1228" 
d="M281 45h243q126 0 228 45.5t164.5 139.5t62.5 221q0 73 -31 126.5t-84 81.5t-112.5 41t-128.5 13h-213zM201 287l164 848q14 75 14 130q0 62 -34 92t-101 48l2 8h962l-57 -289h-8q-9 27 -21 59l-17 51q-31 94 -67 113q-34 18 -59 20q-15 1 -47 1h-395l-119 -610h221
q56 0 108 -5t110 -17t105.5 -35t87 -56t61.5 -83t22 -113q0 -100 -36.5 -179t-96 -129t-141 -82.5t-165 -45.5t-174.5 -13h-549l2 8q112 27 155 82q45 58 73 197z" />
    <glyph glyph-name="uni0183" unicode="&#x183;" horiz-adv-x="1130" 
d="M928 625q0 55 -7.5 105.5t-26.5 100.5t-48.5 86.5t-76.5 59t-107 22.5q-52 0 -127.5 -36.5t-131.5 -77.5l-143 -797q26 -19 92 -41q69 -23 103 -22q93 0 172 35.5t133.5 94.5t93 137t56.5 162.5t18 170.5zM123 33l199 1102q14 75 14 130q0 62 -34 92t-101 48l2 8h880
l-57 -289h-8q-9 27 -21 59l-17 51q-31 94 -67 113q-34 18 -59 20q-15 1 -47 1h-320l-79 -450q58 65 154.5 108t182.5 43q139 0 231 -117q92 -118 91 -290q0 -100 -31.5 -200.5t-90 -187t-135 -153.5t-174 -106t-200.5 -40q-67 0 -159 17t-154 41z" />
    <glyph glyph-name="uni0184" unicode="&#x184;" horiz-adv-x="1228" 
d="M418 758h221q56 0 108 -5t110 -17t105.5 -35t87 -56t61.5 -83t22 -113q0 -100 -36.5 -179t-96 -129t-141 -82.5t-165 -45.5t-174.5 -13h-549l2 8q112 27 155 82q45 58 73 197l135 698l-164 199l6 37l359 221h18zM281 45h243q126 0 228 45.5t164.5 139.5t62.5 221
q0 73 -31 126.5t-84 81.5t-112.5 41t-128.5 13h-213z" />
    <glyph glyph-name="uni0185" unicode="&#x185;" horiz-adv-x="1130" 
d="M928 625q0 55 -7.5 105.5t-26.5 100.5t-48.5 86.5t-76.5 59t-107 22.5q-52 0 -127.5 -36.5t-131.5 -77.5l-143 -797q26 -19 92 -41q69 -23 103 -22q93 0 172 35.5t133.5 94.5t93 137t56.5 162.5t18 170.5zM745 1069q139 0 231 -117q92 -118 91 -290q0 -100 -31.5 -200.5
t-90 -187t-135 -153.5t-174 -106t-200.5 -40q-67 0 -159 17t-154 41l170 952l-164 199l6 37l348 221h19l-94 -524q58 65 154.5 108t182.5 43z" />
    <glyph glyph-name="uni0186" unicode="&#x186;" horiz-adv-x="1394" 
d="M434 4q295 0 510 254t215 608q0 113 -30 209.5t-87 171t-148.5 117t-207.5 43.5q-87 0 -163.5 -26t-139.5 -75t-113.5 -106.5t-99.5 -134.5h-8l82 291q83 40 213 63t237 23q283 0 454 -168t171 -430q0 -285 -163 -498t-439 -317q-162 -59 -289 -59q-257 0 -418 79l53 270
h9q37 -153 123.5 -234t238.5 -81z" />
    <glyph glyph-name="uni0187" unicode="&#x187;" horiz-adv-x="1394" 
d="M739 -31q-327 0 -499 210t-111 528q44 224 188 394q135 159 318 250t385 91q187 0 360 -64q34 160 91 234q56 71 168 71q50 0 91.5 -19.5t41.5 -63.5q0 -34 -23 -61t-57 -28q-32 0 -75 40t-67 40q-82 0 -127 -221l-55 -278h-8q-56 315 -365 315q-255 0 -451 -199
q-195 -198 -254 -500q-58 -299 68 -502q126 -202 390 -202q84 0 160 27t139.5 78t113.5 107t101 130h8l-82 -291q-75 -36 -200 -61q-132 -26 -249 -25z" />
    <glyph glyph-name="uni0188" unicode="&#x188;" horiz-adv-x="843" 
d="M643 930q0 49 45 94q0 8 -51 8q-147 0 -273 -171t-126 -435q0 -177 68 -266q67 -88 172 -88q98 0 162 38.5t144 125.5l13 -15q-50 -92 -149 -170q-97 -76 -230 -76q-131 0 -224 109q-92 109 -94 295q0 285 178 487q178 201 379 203q20 0 45 -4q68 238 225 239
q78 0 115 -23t35 -59q1 -35 -23 -63q-22 -25 -50 -27q-37 0 -81 40q-43 40 -67 40q-66 0 -111 -155q94 -31 95 -107q0 -48 -28 -81t-74 -33q-92 0 -95 94z" />
    <glyph glyph-name="uni0189" unicode="&#x189;" horiz-adv-x="1540" 
d="M293 45h293q305 0 507 174.5t260 477.5q58 302 -80 487q-138 184 -407 184h-317l-119 -612h303l-10 -56h-303zM569 0h-589l2 8q115 28 156 74q40 45 69 197l82 421h-201l10 56h201l74 379q27 158 5 199q-23 43 -126 71l2 8h612q332 0 520 -201q188 -200 124 -534
t-319 -506q-254 -172 -622 -172z" />
    <glyph glyph-name="uni018A" unicode="&#x18a;" horiz-adv-x="1636" 
d="M389 45h293q305 0 507 174.5t260 477.5q58 302 -80 487q-138 184 -406 184h-318zM666 0h-590l2 8q115 28 156 74q40 45 69 197l176 901q25 123 -4 158q-28 34 -164 34q-60 0 -86 -14v-8q53 -27 54 -99q0 -38 -31 -61t-71 -25q-43 0 -68 31t-25 74q0 143 291 143h588
q333 0 520 -201q188 -200 124 -534t-319 -506q-254 -172 -622 -172z" />
    <glyph glyph-name="uni018B" unicode="&#x18b;" horiz-adv-x="1228" 
d="M528 45h240l129 668h-227q-99 -1 -182 -25t-146.5 -72t-99 -126.5t-35.5 -180.5q-1 -136 88.5 -199t232.5 -65zM1063 0h-551q-459 0 -459 309q0 209 154 329q155 120 463 120h235l119 610h-391q-89 0 -115 -20q-8 -6 -20 -15.5t-16 -12.5q-34 -23 -154 -196h-9l58 289
h962l-2 -8q-62 -16 -100.5 -36t-63.5 -54.5t-38 -73.5t-25 -106l-164 -848q-16 -83 -16 -139q0 -60 35.5 -91.5t99.5 -48.5z" />
    <glyph glyph-name="uni018C" unicode="&#x18c;" horiz-adv-x="1181" 
d="M647 1022q-153 0 -279 -209t-126 -481q0 -44 6 -84.5t21 -84.5t47.5 -70t78.5 -25q175 0 365 225l114 655q-35 31 -105 52.5t-122 21.5zM334 -25q-95 1 -166 93q-68 92 -68 263q0 176 86.5 345.5t227.5 279.5q143 111 299 113q75 0 182 -25l57 324h-299q-89 0 -115 -20
q-8 -6 -20 -15.5t-16 -12.5q-34 -24 -154 -196h-8l57 289h867l-2 -8q-62 -16 -101 -36t-64 -54.5t-37.5 -73.5t-25.5 -106l-168 -912q-14 -78 -3.5 -117t46.5 -38q78 0 193 69v-8q-162 -156 -255 -156t-105 79q-12 78 8 186q-47 -58 -113.5 -115.5t-151 -102t-151.5 -45.5z
" />
    <glyph glyph-name="uni018D" unicode="&#x18d;" horiz-adv-x="1046" 
d="M596 1030q-58 0 -113.5 -29.5t-98.5 -78t-75 -101.5t-52 -107q-46 -125 -46 -241q0 -170 201 -383q186 56 300 205q114 151 113 389q0 58 -11.5 114.5t-36.5 110.5t-71.5 87.5t-109.5 33.5zM82 -442q-98 39 -98 102q0 36 25 61t61 25q49 0 112 -92q31 -44 88 -67t117 -23
q70 0 119 45.5t49 114.5q0 103 -166 242q-69 59 -139 124q-74 70 -120 158.5t-46 181.5q0 269 170 454q169 183 360 185q144 0 246 -129q101 -128 103 -299q-2 -117 -46.5 -222.5t-129.5 -179.5q-157 -138 -353 -171q66 -66 90 -92q36 -39 46 -49q87 -93 92 -175
q0 -60 -33.5 -107t-86.5 -73t-110 -39.5t-112 -13.5q-140 0 -238 39z" />
    <glyph glyph-name="uni018E" unicode="&#x18e;" horiz-adv-x="1136" 
d="M289 45h387l127 660h-307q-70 0 -108 -27q-40 -29 -107 -109h-9l62 316h8q37 -82 66 -109q29 -26 98 -26h307l119 618h-330q-89 0 -115 -20q-8 -6 -20 -15.5t-16 -12.5q-34 -24 -154 -196h-8l57 289h901l-2 -8q-62 -16 -100.5 -36t-63.5 -54.5t-38 -73.5t-25 -106
l-166 -856q-27 -159 -5 -200q23 -43 126 -71l-2 -8h-959l23 322h8q7 -19 29 -67q23 -50 26 -57q22 -58 42 -82l21 -27q13 -17 24 -21q19 -8 29 -14q18 -9 65 -9h10z" />
    <glyph glyph-name="uni018F" unicode="&#x18f;" horiz-adv-x="1488" 
d="M370 127q110 -123 271 -123q160 0 354 143q111 83 185.5 222t103.5 290l6 37l-1009 -28q-19 -100 -21 -195q0 -222 110 -346zM761 1348q-248 0 -532 -187l-10 10q323 269 643 271q160 0 289.5 -62t213.5 -189q87 -131 87 -304q0 -119 -37.5 -246t-99.5 -233
q-157 -271 -441 -388q-124 -51 -241 -51q-200 -1 -351 139t-149 392q0 118 33 231h1128q8 50 9 109q1 247 -145.5 377.5t-396.5 130.5z" />
    <glyph glyph-name="uni0190" unicode="&#x190;" horiz-adv-x="1208" 
d="M838 1407q-172 0 -284 -101.5t-112 -271.5q0 -125 86 -193.5t215 -68.5h88l-10 -47h-125q-201 0 -323.5 -110t-122.5 -308q0 -79 30.5 -139t83 -95t118 -52t141.5 -17q176 0 297 91q120 90 155 186q-47 -41 -94 -41t-75 24t-27 66q0 58 41 96.5t100 38.5q55 0 84 -31.5
t29 -86.5q0 -117 -132 -241q-74 -69 -189.5 -103t-231.5 -34q-222 1 -354 99t-132 260q0 199 142 308q144 111 337 124l2 12q-279 77 -278 291q0 85 36 152t93 108.5t133.5 69t150 38.5t150.5 11q104 0 220 -20t188 -60l-54 -270h-8q-80 315 -368 315z" />
    <glyph glyph-name="uni0191" unicode="&#x191;" horiz-adv-x="1116" 
d="M780 705h-374l-152 -766q-12 -66 -32 -125.5t-53.5 -116.5t-75.5 -98t-102 -66t-130 -25q-58 0 -99 23q-40 22 -32 57q17 74 82 74q30 0 37 -6q5 -4 21 -20q61 -64 89 -64q104 0 152 252l254 1311q27 141 3 191q-25 51 -124 79l2 8h962l-57 -289h-8q-9 27 -21 59l-17 51
q-31 94 -67 113q-34 18 -59 20q-15 1 -47 1h-397l-119 -618h375q69 0 107 26t106 109h8l-62 -316h-8q-34 82 -63 109t-99 27z" />
    <glyph glyph-name="florin" unicode="&#x192;" horiz-adv-x="1167" 
d="M999 1442q80 0 135 -35q54 -35 54 -81q0 -42 -27.5 -71t-69.5 -29q-36 0 -62.5 21t-27.5 56q0 60 76 100q-29 8 -57 8q-54 0 -96 -16.5t-69.5 -42.5t-48 -67t-32.5 -80.5t-22 -92.5l-68 -350h328l-11 -55h-329l-162 -840q-33 -175 -123 -267t-260 -92q-81 0 -133 36
q-53 36 -53 82q0 42 27 70t69 28q35 0 62 -23t28 -57q0 -55 -76 -97q29 -8 58 -8q66 1 114 24.5t77.5 68.5t46 91.5t30.5 114.5l168 869h-291l10 55h291l63 321q32 174 122 266.5t259 92.5z" />
    <glyph glyph-name="uni0193" unicode="&#x193;" horiz-adv-x="1472" 
d="M698 -31q-311 0 -470 217q-159 218 -95 543q63 325 323 519t554 194q200 0 379 -60q34 156 91 230q57 71 165 71q50 0 91.5 -19.5t41.5 -63.5q0 -34 -23 -61t-57 -28q-32 0 -75 40t-75 40q-30 0 -64 -58q-35 -59 -54 -163l-54 -278h-8q-42 158 -133.5 236t-251.5 79
q-230 0 -432 -194t-260 -501q-59 -309 71 -507q130 -199 373 -199q79 0 183 17t167 45l70 360q27 126 2 184q-26 59 -123 86l2 9h441l-2 -9q-85 -28 -123 -80q-37 -50 -64 -190l-71 -375q-257 -84 -519 -84z" />
    <glyph glyph-name="uni0194" unicode="&#x194;" horiz-adv-x="1394" 
d="M594 -16l-72 -127q-59 -107 -59 -183q0 -38 15 -57t46 -18q46 0 78.5 47t32.5 96q0 41 -2 51zM174 1405v8h459v-8q-44 -9 -65.5 -15.5t-42.5 -21.5t-28.5 -40t-7.5 -66q0 -80 64 -396l129 -671l385 675q118 208 167 308q46 93 46 136q0 42 -27 60q-26 17 -88 31v8h408v-8
q-73 -19 -122 -59q-97 -79 -329 -484l-426 -739l37 -186q12 -73 12 -117q2 -129 -69 -215t-160 -86q-65 0 -94 44t-29 113q0 74 80 205l105 178l-164 801q-54 264 -83 364q-25 86 -54 124t-103 57z" />
    <glyph glyph-name="uni0195" unicode="&#x195;" horiz-adv-x="1685" 
d="M1352 262l98 504q18 102 18 142q0 37 -5 59q-11 37 -111 69l2 8h270l-147 -759q-58 -306 -406 -308q-287 0 -287 226q0 53 13 108l86 410q14 65 14 119q0 145 -113 145q-90 0 -191 -59t-183 -138l-148 -788h-117l222 1231q12 63 12 112t-33 69q-34 20 -119 32l2 8
q177 26 312 92h8l-133 -715q88 87 209 163.5t213 76.5q174 0 174 -207q0 -56 -17 -147l-84 -426q-16 -73 -16 -135q0 -130 185 -130q185 2 233 105q21 47 39 133z" />
    <glyph glyph-name="uni0196" unicode="&#x196;" horiz-adv-x="587" 
d="M147 225l195 1006q12 63 12 112t-32 70q-35 21 -119 31l2 8q178 26 311 92h8l-256 -1323q-19 -106 -9 -143t56 -37q90 0 146 158h20q-61 -227 -225 -228q-86 -1 -111 63q-25 63 2 191z" />
    <glyph glyph-name="uni0197" unicode="&#x197;" horiz-adv-x="614" 
d="M444 8l-2 -8h-471l2 8q51 13 84 27t56 31t38 46t24 60.5t20 85.5l86 442h-205l10 56h205l78 399q25 89 13 140q-10 49 -38 69q-28 21 -100 41l2 8h473l-2 -8q-63 -15 -100 -31.5t-61.5 -47.5t-36.5 -67.5t-25 -103.5l-78 -399h202l-10 -56h-202l-87 -442
q-44 -159 25 -210q26 -19 100 -40z" />
    <glyph glyph-name="uni0198" unicode="&#x198;" horiz-adv-x="1425" 
d="M739 1442q73 0 132 -38q58 -37 47 -95q-5 -27 -30.5 -45t-53.5 -18q-31 0 -53 22q-25 22 -33 48q-9 30 -32 50t-54 20q-62 0 -106 -86q-45 -88 -85 -296l-84 -424l555 475q248 215 236 284q-7 39 -115 66l2 8h498l-2 -8q-119 -27 -210 -87q-87 -57 -317 -249l-221 -186
l268 -527q101 -201 147 -256q38 -46 61 -60t85 -32l-2 -8h-495l2 8q96 16 126 42q29 26 15 92q-13 65 -90 214l-223 439l-332 -279l-49 -258q-44 -159 24 -210q26 -18 101 -40l-2 -8h-478l2 8q51 13 84 27t56 31t38 46t24 60.5t20 85.5l143 739q39 196 151 320
q113 125 250 125z" />
    <glyph glyph-name="uni0199" unicode="&#x199;" horiz-adv-x="1019" 
d="M735 1544q75 0 130 -37q56 -38 44 -94q-3 -27 -28 -44t-53 -17q-27 0 -51.5 20.5t-34.5 47.5q-24 68 -85 69q-143 0 -215 -383l-202 -1106h-117l196 1100q34 191 155 318q120 126 261 126zM793 -27q-64 2 -107 51t-108 199l-150 344q273 118 440 297q-37 7 -61.5 37
t-24.5 68q0 41 30 70.5t71 29.5q43 0 74.5 -31.5t33.5 -74.5q0 -76 -106 -163q-106 -86 -340 -220l178 -355q44 -85 76 -120q33 -36 86 -36t157 66l2 -6q-109 -156 -251 -156z" />
    <glyph glyph-name="uni019A" unicode="&#x19a;" horiz-adv-x="587" 
d="M262 -27q-111 0 -110 136q0 52 20 170l76 421h-152l10 56h152l84 475q12 63 12 112t-32 70q-35 21 -119 31l2 8q178 26 311 92h8l-145 -788h182l-10 -56h-182l-88 -477q-9 -48 -11 -84q0 -71 56 -71q74 0 190 69v-8q-162 -156 -254 -156z" />
    <glyph glyph-name="uni019B" unicode="&#x19b;" horiz-adv-x="999" 
d="M482 1544q37 0 63 -16.5t41 -48.5t22 -58.5t13 -66.5l16 -109l264 176v-75l-254 -168l58 -387q79 -547 81 -555q19 -109 52 -139q31 -27 125 -27h49l-2 -9q-102 -82 -187 -81q-48 0 -64 25q-33 52 -46 119q-12 63 -20 182q-7 112 -12 186t-9 135l-25 288l-459 -749
q-75 -121 -94 -166h-155l673 1024q-7 73 -14 121l-317 -209v76l307 202q-18 96 -45 162q-72 -25 -121 -25q-51 0 -72 28q-20 30 -13 67q9 46 52 72t93 26z" />
    <glyph glyph-name="uni019C" unicode="&#x19c;" horiz-adv-x="1822" 
d="M1348 -25l30 155q-233 -155 -379 -155q-95 0 -161.5 38.5t-82.5 123.5q-245 -161 -393 -161q-154 -1 -213 86.5t-24 263.5l164 850q13 69 14 104q2 38 -12 62t-37 35q-28 13 -70 28l2 8h420l-2 -8q-56 -16 -88.5 -31.5t-53.5 -44t-30.5 -60.5t-21.5 -93l-164 -846
q-27 -137 27 -203q53 -66 171 -66q119 0 307 97q-9 69 11 168l164 850q13 69 14 104q2 38 -12 62t-37 35q-28 13 -70 28l2 8h420l-2 -8q-56 -16 -88.5 -31.5t-53.5 -44t-30.5 -60.5t-21.5 -93l-164 -846q-27 -137 27 -203t171 -66t301 94l201 1031q12 66 15 102t-14 59
q-16 25 -36 33q-33 13 -71 25l2 8h419l-2 -8q-105 -29 -136 -63q-32 -35 -56 -156l-178 -914q-10 -53 -10 -90q0 -38 4 -55q9 -45 139 -72l-2 -8q-153 -17 -301 -72h-8z" />
    <glyph glyph-name="uni019D" unicode="&#x19d;" horiz-adv-x="1611" 
d="M-137 -492q-58 0 -99 23q-40 22 -32 57q16 73 82 74q27 0 36 -6q6 -4 22 -20q61 -64 91 -64q90 0 141 252l271 1382q12 59 -29 118q-40 58 -135 81l2 8h307l780 -1231l156 805q45 244 31 316q-13 71 -111 102l2 8h381l-2 -8q-76 -23 -114 -59t-67 -110q-30 -80 -63 -249
l-196 -1007h-60l-813 1290l-266 -1370q-44 -224 -110 -308q-68 -84 -205 -84z" />
    <glyph glyph-name="uni019E" unicode="&#x19e;" 
d="M897 851q0 134 -121 134q-168 0 -368 -197q0 -2 -5 -24l-141 -764h-119l152 819q10 53 10 84q0 74 -55 74q-76 0 -189 -68v9q157 152 256 151q105 0 107 -137q0 -44 -10 -103q245 240 428 240q92 0 134 -52q42 -53 38 -131q-5 -84 -19 -171l-231 -1186h-125l244 1192
q14 65 14 130z" />
    <glyph glyph-name="uni019F" unicode="&#x19f;" horiz-adv-x="1617" 
d="M1333 1219q-122 188 -349 188q-228 0 -422 -188q-193 -187 -261 -469h1112q41 283 -80 469zM712 4q237 0 436 202q201 204 259 499h-1114q-59 -296 61 -498q120 -203 358 -203zM1252 169q-257 -200 -544 -200q-288 0 -465 218q-178 218 -116 532q39 203 176.5 374
t328.5 262q182 87 336 87q219 0 381 -123.5t215 -336.5q36 -145 5 -304q-62 -311 -317 -509z" />
    <glyph glyph-name="Ohorn" unicode="&#x1a0;" horiz-adv-x="1617" 
d="M354 208q120 -204 359 -204t437 203q199 203 257 500q57 297 -64 499t-359 201q-238 0 -436 -203q-197 -203 -256 -498q-58 -293 62 -498zM1252 169q-257 -200 -544 -200q-288 0 -465 218q-178 218 -116 532q28 145 110.5 278.5t198 231t261.5 155.5t294 58q72 0 204 -14
q127 -13 187 -15q174 0 174 74q0 20 -26 55q-27 34 -27 67q0 35 27.5 58t63.5 23q43 0 72.5 -32.5t29.5 -76.5q0 -207 -322 -207q-76 0 -135 10q182 -85 279 -277q96 -191 51 -429q-62 -311 -317 -509z" />
    <glyph glyph-name="ohorn" unicode="&#x1a1;" horiz-adv-x="1073" 
d="M463 14q167 0 275 210t108 474q0 155 -68 244q-67 88 -172 88q-166 0 -274 -210q-107 -209 -109 -474q0 -155 68 -244q67 -88 172 -88zM1077 1114q0 20 -26 55q-27 35 -27 67q0 34 27 56.5t63 24.5q44 0 73.5 -32.5t29.5 -76.5q0 -203 -322 -202q-35 0 -90 4
q91 -63 137.5 -169t46.5 -225q0 -236 -169 -438q-169 -201 -376 -203q-150 0 -258 130t-108 323q0 235 170 438q169 201 377 203l278 -25q174 0 174 70z" />
    <glyph glyph-name="uni01A2" unicode="&#x1a2;" horiz-adv-x="1884" 
d="M989 1407q-232 0 -435 -200q-201 -198 -263 -521q-57 -287 76 -484q133 -198 378 -198q198 2 304 64l249 1282q-130 57 -309 57zM1563 1341h-133l-250 -1278q-203 -66 -281 -79q-70 -11 -235 -13q-294 0 -445 205q-153 206 -93 513q60 309 303 531t550 222q83 0 253 -27
q165 -26 221 -26q165 0 359 53h15l-322 -1655q-44 -161 26 -210q28 -19 101 -40l-2 -8h-479l2 8q63 15 99.5 32t61 47.5t36 67t24.5 103.5l256 1317q26 141 12 189t-79 48z" />
    <glyph glyph-name="uni01A3" unicode="&#x1a3;" horiz-adv-x="1585" 
d="M995 483l92 471q-140 76 -311 76q-169 0 -300 -140q-130 -140 -171 -354q-40 -214 33 -368t228 -154q87 0 163 43t128.5 113t87 150t50.5 163zM558 -25q-213 0 -334 151q-122 152 -72 402t231 396q183 146 399 145q107 0 242 -43t213 -43q155 0 301 86h8l-246 -1262
q-26 -142 -8 -191q18 -51 105 -79l-2 -8h-447l2 8q114 27 154 78q42 53 70 192l200 1039q11 56 -3 83.5t-54 26.5h-113l-92 -471q-46 -233 -186 -371.5t-368 -138.5z" />
    <glyph glyph-name="uni01A4" unicode="&#x1a4;" horiz-adv-x="1306" 
d="M309 1372q-60 0 -86 -14v-8q53 -27 53 -99q0 -39 -30.5 -61.5t-70.5 -24.5q-43 0 -68 31t-25 74q0 143 291 143h579q230 0 332 -106t66 -299q-46 -231 -225 -305q-151 -62 -355 -62h-266l-70 -362q-35 -183 24 -221q43 -28 138 -50l-2 -8h-518l2 8q115 28 156 74
q40 45 69 197l174 901q25 123 -4 158q-28 34 -164 34zM512 684h231q397 0 461 336q33 170 -42 259t-251 89h-266z" />
    <glyph glyph-name="uni01A5" unicode="&#x1a5;" horiz-adv-x="1130" 
d="M928 637q0 163 -71 263q-70 100 -179 100t-266 -109l-152 -807q112 -62 205 -64q199 0 331 193t132 424zM745 1544q76 0 131 -37q56 -38 44 -94q-5 -27 -29.5 -44t-52.5 -17q-31 0 -53 22q-26 23 -33 46q-22 68 -84 69q-143 0 -215 -383l-33 -176q67 59 155.5 99
t169.5 40q139 0 231 -117q92 -118 91 -290q0 -263 -190 -474q-191 -212 -435 -213q-70 0 -198 25l-47 -244q-18 -95 -11 -127t36 -52q27 -19 102 -40l-2 -8h-445l2 8q104 30 136 68.5t55 150.5l260 1344q41 193 158 318q118 126 257 126z" />
    <glyph glyph-name="uni01A6" unicode="&#x1a6;" horiz-adv-x="1333" 
d="M399 479h217q176 0 299.5 88t155.5 254q57 301 -295 301h-252zM1311 -319h-101h-10q-160 0 -204 25q-45 25 -101 161l-242 569h-262l-31 -157q-27 -159 -5 -200q23 -43 126 -71v-8h-477v8q115 28 156 74q40 45 69 197l166 856q27 158 5 199q-23 43 -126 71l2 8h480l-2 -8
q-114 -28 -154.5 -73t-67.5 -165h283q221 0 327 -91t75 -272q-8 -47 -27 -87.5t-42 -70t-58.5 -55t-67 -42.5t-77.5 -33.5t-79.5 -26t-83.5 -22.5l254 -549q38 -83 67 -123t78 -66.5t132 -39.5z" />
    <glyph glyph-name="uni01A7" unicode="&#x1a7;" horiz-adv-x="1032" 
d="M435 -31q-183 -1 -298 105t-78 291q25 117 109.5 206t205.5 147q175 85 226 109q116 54 202 137t105 190q20 110 -40 180q-59 69 -174 71q-67 0 -132 -28.5t-118.5 -77t-95.5 -102.5t-75 -114h-8l55 281q215 78 347 78q173 0 274 -98q100 -97 68 -263q-22 -112 -107 -198
t-203 -143q-38 -18 -112.5 -55.5t-111.5 -55.5q-268 -132 -310 -343q-24 -120 56 -200t198 -80q120 0 242 92q123 93 214 291h9l-66 -340q-201 -80 -382 -80z" />
    <glyph glyph-name="uni01A8" unicode="&#x1a8;" horiz-adv-x="870" 
d="M745 330l-51 -271q-170 -84 -334 -84t-246 84t-57 213q18 91 86 160t164 112q90 40 180 78q215 92 240 218q14 83 -34 136q-48 54 -132 54q-70 0 -138 -43.5t-114 -100.5t-80 -124h-10l49 248q156 59 284 59q131 0 213 -76q83 -77 58 -202q-18 -91 -86.5 -161.5
t-162.5 -113.5q-106 -48 -178 -79q-212 -91 -238 -222q-16 -82 34 -141q50 -60 148 -60q99 0 208 80q108 79 189 236h8z" />
    <glyph glyph-name="uni01A9" unicode="&#x1a9;" horiz-adv-x="1167" 
d="M918 1368h-490l438 -594l-2 -14l-739 -664h559q124 0 186 40t205 216h8l-125 -352h-1011l2 8l786 709l-499 686l2 10h1017l-57 -289h-8q-63 176 -100 210t-172 34z" />
    <glyph glyph-name="uni01AA" unicode="&#x1aa;" horiz-adv-x="800" 
d="M462 1445q-32 38 -87 38q-54 0 -95 -36.5t-52 -90.5q-10 -52 22 -91q33 -38 86 -38q54 0 95 36.5t52 90.5q11 53 -21 91zM317 1163q-71 2 -120 61q-50 60 -33 140q17 82 79.5 131t147.5 49q121 0 167 -100q46 -99 13 -260l-264 -1360q-51 -252 47 -252q25 0 109 57l29 21
q20 12 48 12t43 -19q15 -20 8 -55q-9 -41 -59.5 -60.5t-101.5 -19.5q-146 0 -207 108q-61 107 -20 323l246 1267q-61 -43 -132 -43z" />
    <glyph glyph-name="uni01AB" unicode="&#x1ab;" horiz-adv-x="620" 
d="M360 -176l35 180q-90 -31 -127 -31q-36 0 -65 26q-61 55 -21 280l127 712h-205l-2 19l105 26q47 12 82.5 35.5t60.5 61t40.5 72t33.5 85.5h57l-47 -246h273l-5 -49h-274l-137 -772q-14 -79 -1 -118.5t54 -38.5q89 0 211 71l-43 -198q-19 -84 -48 -154.5t-75 -136
t-115.5 -103t-156.5 -37.5q-58 0 -99 23q-40 22 -32 57q17 74 80 74q30 0 37 -6q13 -11 49 -45q40 -39 65 -39q92 0 143 252z" />
    <glyph glyph-name="uni01AC" unicode="&#x1ac;" horiz-adv-x="1306" 
d="M756 1368h-307q-68 0 -87 -10v-8q52 -27 54 -99q0 -38 -31 -61t-71 -25q-42 0 -66.5 31t-26.5 74q0 143 291 143h850l-16 -289h-9q-78 161 -112 202q-35 42 -92 42h-252l-211 -1089q-27 -159 -5 -200q23 -43 126 -71l-3 -8h-473l2 8q117 29 158 74q42 46 70 197z" />
    <glyph glyph-name="uni01AD" unicode="&#x1ad;" horiz-adv-x="620" 
d="M743 1544q75 0 130 -37t45 -94q-5 -27 -29.5 -44t-52.5 -17q-31 0 -53 22q-26 23 -33 46q-22 67 -88 69q-67 0 -125 -91q-59 -92 -93 -292l-10 -62h273l-5 -49h-274l-137 -772q-14 -79 -1 -118.5t54 -38.5q89 -1 211 71v-8q-162 -156 -269 -156t-117 100q-9 88 13 206
l127 712h-205l-2 19l105 26q78 22 123 70q38 191 155 314q118 124 258 124z" />
    <glyph glyph-name="uni01AE" unicode="&#x1ae;" horiz-adv-x="1306" 
d="M756 1368h-228q-57 0 -111 -42q-58 -45 -212 -202h-8l98 289h1067l-16 -289h-9q-78 161 -112 202q-35 42 -92 42h-252l-301 -1544q-51 -252 47 -252q29 0 106 57l31 21q20 12 48 12t43 -19q15 -20 8 -55q-9 -41 -59.5 -60.5t-101.5 -19.5q-144 0 -204 108
q-60 107 -19 323z" />
    <glyph glyph-name="Uhorn" unicode="&#x1af;" horiz-adv-x="1579" 
d="M1303 1413h290q152 0 152 74q0 21 -27 55q-55 70 -1 123q25 25 65 25q43 0 72.5 -32.5t29.5 -76.5q0 -177 -258 -197q-74 -36 -110 -116q-35 -77 -76 -281l-119 -606q-21 -109 -79 -190.5t-141 -129t-179.5 -70.5t-205.5 -22q-248 0 -386 111q-137 111 -101 301l152 774
q26 125 0 173q-26 49 -127 77l2 8h479l-2 -8q-112 -29 -154.5 -79.5t-66.5 -170.5l-158 -803q-30 -143 72 -230t309 -87q93 0 177 19.5t157.5 60t125.5 110t71 162.5l116 600q43 228 28 307q-15 78 -110 111z" />
    <glyph glyph-name="uhorn" unicode="&#x1b0;" 
d="M883 -27q-111 0 -111 136q0 19 10 106q-87 -86 -210.5 -164t-213.5 -78q-174 0 -174 207q0 57 17 148l96 491q10 53 10 84q0 74 -53 74q-71 0 -193 -72v8q162 156 254 156q111 0 111 -135q0 -52 -20 -170l-93 -442q-14 -65 -14 -119q0 -144 113 -146q87 -1 189.5 59
t186.5 138l142 770l74 6q176 12 176 84q0 20 -27 55t-27 67q0 35 27.5 57t63.5 24q39 0 71 -30q32 -31 31 -79q0 -182 -272 -196l-146 -789q-10 -53 -10 -84q0 -36 13.5 -54t39.5 -17q79 -1 191 65v-8q-158 -152 -252 -152z" />
    <glyph glyph-name="uni01B1" unicode="&#x1b1;" horiz-adv-x="1601" 
d="M360 168q130 -162 360 -162t425 162q237 197 254 515q3 83 -19 179q-24 103 -50 165q-20 48 -41 101q-15 38 -50 104q-11 20 -21 39t-17 32t-9 17q-23 44 -47 85l2 8h498l-9 -254h-8q-57 106 -89 129t-122 23h-166q34 -72 104 -188q69 -115 111 -189q41 -72 67 -179
q26 -108 7 -206q-35 -177 -180 -313q-130 -123 -298 -193t-342 -70q-186 0 -350.5 98.5t-229.5 264.5q-46 118 -24 236q37 200 226 383q21 20 81 78t99 95q111 106 176 183h-166q-90 0 -131 -23q-42 -23 -137 -129h-8l90 254h498l-2 -8q-112 -119 -171 -183
q-73 -82 -126 -147t-113 -152t-99.5 -176.5t-56.5 -177.5q-47 -239 84 -401z" />
    <glyph glyph-name="uni01B2" unicode="&#x1b2;" horiz-adv-x="1533" 
d="M670 39q362 0 524 371q80 183 176 673q23 122 -23 191q-46 70 -104 69q-12 -2 -76 -35q-64 -34 -97 -34q-32 0 -47 22t-9 54q18 92 186 92q314 0 240 -369q-96 -499 -209 -725q-195 -377 -607 -378q-203 0 -325 104q-121 106 -82 311l152 770q25 89 13 140q-10 49 -38 69
q-28 21 -100 41l2 8h479l-2 -8q-63 -15 -100 -31.5t-61.5 -47.5t-36.5 -67.5t-25 -103.5l-152 -782q-35 -175 53 -254q89 -80 269 -80z" />
    <glyph glyph-name="uni01B3" unicode="&#x1b3;" horiz-adv-x="1292" 
d="M323 1348q-30 53 -69 53q-40 0 -59 -10l-2 -9q49 -37 49 -82q0 -42 -33 -72t-76 -30q-36 0 -59 23q-22 23 -21 57q1 59 63 112q61 52 158 52t140 -58q45 -60 137 -294l166 -416l254 338q194 254 192 317q0 29 -24 45q-25 16 -80 31l2 8h393l-2 -8q-76 -10 -155 -85
q-74 -70 -263 -314l-295 -383l-65 -344q-14 -81 -14 -129q-1 -105 135 -142l-2 -8h-480l2 8q112 28 158 87.5t70 183.5l65 339l-176 467q-78 203 -109 263z" />
    <glyph glyph-name="uni01B4" unicode="&#x1b4;" horiz-adv-x="1146" 
d="M979 963v14q-34 -28 -68 -93q-38 -72 -148 -350q-109 -274 -196 -430q-335 -596 -547 -596q-55 0 -94 28.5t-41 81.5q0 41 25.5 69t66.5 28q101 0 103 -141q138 51 338 360q-22 266 -72 532q-50 269 -98 382q-48 117 -102 117t-158 -56v9q128 152 243 151q36 0 58 -16
q62 -44 143 -445q53 -262 80 -530q134 258 241 536q110 284 173 370q63 85 172 85q47 0 79.5 -33t32.5 -80q0 -46 -35.5 -80t-81.5 -34q-49 0 -81.5 36t-32.5 85z" />
    <glyph glyph-name="uni01B5" unicode="&#x1b5;" horiz-adv-x="1159" 
d="M1073 1368h-530q-80 0 -130 -38q-48 -36 -204 -206h-8l98 289h967l-2 -8l-531 -649h416l-10 -56h-451l-534 -655h557q88 0 142 45q55 46 210 232h8l-102 -322h-1014l2 8l567 692h-395l10 56h430z" />
    <glyph glyph-name="uni01B6" unicode="&#x1b6;" horiz-adv-x="835" 
d="M665 4q-23 -24 -69 -24q-56 0 -263 10q-206 10 -366 10v8l393 494h-333l10 55h369l307 385h-357q-102 0 -139 -9t-84 -56h-16l57 167h678v-8l-383 -479h373l-11 -55h-405l-324 -406q282 0 400 9q103 8 160.5 30t109.5 90l14 -2q-18 -52 -32 -82q-10 -19 -28 -57
q-14 -29 -26 -43q-4 -5 -16.5 -18t-18.5 -19z" />
    <glyph glyph-name="uni01B7" unicode="&#x1b7;" horiz-adv-x="1167" 
d="M967 509q0 -152 -84.5 -279.5t-224.5 -195.5q-131 -63 -281 -65q-147 0 -249 69q-101 69 -101 146q0 50 34.5 84.5t84.5 34.5q45 0 76.5 -30.5t31.5 -75.5q0 -96 -121 -123q31 -31 100.5 -48t126.5 -18q172 0 312 132q139 132 139 341q0 285 -383 285l-4 6l450 516h-616
l25 125h761l-2 -8l-464 -528q77 -9 146 -37t124.5 -72.5t87.5 -111.5t31 -147z" />
    <glyph glyph-name="uni01B8" unicode="&#x1b8;" horiz-adv-x="1032" 
d="M876 271q28 -31 19 -85q-17 -81 -136 -148q-120 -68 -276 -69q-217 0 -337 136t-78 352q25 123 110.5 215.5t195.5 140.5t238 64l-260 528l2 8h762l-24 -125h-616l249 -516l-4 -6q-213 0 -347 -91q-138 -94 -174 -277q-36 -182 63 -285q99 -105 245 -105t237 66
q-41 11 -63 44t-14 80q7 45 45 75t84 30q50 0 79 -32z" />
    <glyph glyph-name="uni01B9" unicode="&#x1b9;" horiz-adv-x="1032" 
d="M263 -256q99 -104 245 -104q145 0 237 65q-41 11 -63 44t-14 80q7 47 45.5 76t86.5 29q47 0 76 -32q28 -31 19 -84q-17 -80 -136 -149q-121 -69 -276 -68q-217 0 -337 136q-120 137 -78 351q25 123 110.5 215.5t195.5 140.5t238 64l-260 528l2 8h762l-24 -124h-616
l249 -517l-4 -6q-208 4 -347 -91q-138 -94 -174 -276t63 -286z" />
    <glyph glyph-name="uni01BA" unicode="&#x1ba;" horiz-adv-x="1005" 
d="M782 433q0 69 -101 95q-96 25 -302 25h-17l9 41l471 350h-639l18 100h846l-4 -22l-522 -408q354 -32 354 -180q0 -101 -92 -151q-89 -48 -338 -74q-66 -7 -129 -28.5t-118.5 -58t-89.5 -94t-34 -126.5q0 -121 71.5 -182.5t194.5 -61.5q126 0 259.5 95.5t207.5 215.5h15
q-32 -81 -84 -154t-119 -131t-151.5 -92t-171.5 -34q-95 0 -170.5 29t-124.5 95t-50 162q0 344 494 412q35 5 68.5 11t81.5 20.5t82.5 32.5t59.5 48t25 65z" />
    <glyph glyph-name="uni01BB" unicode="&#x1bb;" horiz-adv-x="1167" 
d="M934 1122q0 126 -84 188q-85 62 -196 62q-99 0 -193 -41.5t-150 -116.5q23 4 57 4q40 0 65.5 -34t25.5 -76q0 -49 -34.5 -80t-83.5 -31q-47 0 -79.5 32.5t-32.5 79.5q0 88 121 205q69 67 172.5 97.5t215.5 30.5q136 0 241 -84q106 -84 106 -228q0 -192 -188 -374h246
l-10 -56h-295q-24 -22 -104 -88q-65 -54 -99 -86l-451 -399h701l-25 -127h-860l2 12l522 482q124 116 207 206h-602l10 56h639q156 195 156 366z" />
    <glyph glyph-name="uni01BC" unicode="&#x1bc;" horiz-adv-x="1167" 
d="M293 733l84 422q14 73 14 123q0 31 -11 53.5t-33.5 36.5t-43 21.5t-53.5 15.5l2 8h870l-24 -125h-639l-90 -463h329q143 0 229.5 -87t86.5 -230q0 -105 -33.5 -194t-92.5 -152t-138 -107t-170 -65t-190 -21q-116 0 -205 68t-89 149q0 53 36.5 91.5t89.5 38.5
q44 0 76 -27.5t32 -71.5q0 -89 -119 -133q57 -80 197 -80q186 0 328 129q141 128 143 359q-1 235 -275 239z" />
    <glyph glyph-name="uni01BD" unicode="&#x1bd;" horiz-adv-x="921" 
d="M258 614h225q80 0 147.5 -26t112.5 -84.5t45 -140.5q0 -305 -327 -376q-235 -50 -369 31q-82 48 -82 114q0 57 31 96.5t87 39.5q45 0 81.5 -29t36.5 -73q0 -86 -123 -129q55 -31 162 -31q157 0 254.5 97t97.5 255q0 188 -229 189h-230l47 239q15 70 15 124t-30 79
q-28 24 -110 47l2 8h752l-25 -124h-512z" />
    <glyph glyph-name="uni01BE" unicode="&#x1be;" horiz-adv-x="776" 
d="M283 801q0 -94 136 -196q37 -28 113 -86q138 -107 138 -224q0 -148 -100 -233q-101 -86 -232 -87q-133 2 -220 59q-89 59 -89 130q0 44 28 74t71 30q42 0 71 -26t29 -68t-28 -71q-25 -30 -59 -33q18 -25 76.5 -42.5t97.5 -17.5q105 0 173.5 57t68.5 159t-140 215
q-57 47 -117 93q-142 111 -142 228q0 14 4 37l35 192h-205l-2 19l104 26q47 12 82.5 35.5t60.5 61t40.5 72t33.5 85.5h58l-47 -246h272l-4 -49h-275l-30 -168q-2 -14 -2 -26z" />
    <glyph glyph-name="uni01BF" unicode="&#x1bf;" horiz-adv-x="1144" 
d="M53 -205l183 932q20 112 20 153q0 43 -29 66q-31 21 -116 43l2 10q134 7 313 70l-45 -238q84 97 226 167q145 71 239 71q139 0 214 -70t75 -207q1 -136 -57 -260t-147 -210q-238 -232 -722 -367l-62 -315l-313 -121l2 16l31 12q87 35 127 92t59 156zM991 778
q0 196 -189 196q-190 0 -431 -186l-152 -788q189 49 379 163q134 80 241 209.5t135 267.5q18 92 17 138z" />
    <glyph glyph-name="clickdental" unicode="&#x1c0;" horiz-adv-x="409" 
d="M457 1544l-346 -1780h-76l344 1780h78z" />
    <glyph glyph-name="clicklateral" unicode="&#x1c1;" horiz-adv-x="819" 
d="M866 1544l-346 -1780h-76l344 1780h78zM457 1544l-346 -1780h-76l344 1780h78z" />
    <glyph glyph-name="uni01C2" unicode="&#x1c2;" horiz-adv-x="571" 
d="M295 467l-90 -467h-109l90 467h-209l23 111h209l37 196h-211l20 109h211l99 503h108l-98 -503h213l-21 -109h-213l-37 -196h213l-22 -111h-213z" />
    <glyph glyph-name="uni01C3" unicode="&#x1c3;" horiz-adv-x="520" 
d="M281 84q0 -47 -34 -81t-81 -34t-81 34t-34 81t34 81t81 34t81 -34t34 -81zM419 1442q68 0 68 -73q1 -50 -113 -454q-120 -425 -149 -542h-14q14 122 41 408q28 298 74 571q6 35 32 62.5t61 27.5z" />
    <glyph glyph-name="uni01C4" unicode="&#x1c4;" horiz-adv-x="2617" 
d="M2492 1782l-235 -250h-100l-138 250h17l180 -142l260 142h16zM2531 1368h-530q-80 0 -130 -38q-48 -36 -204 -206h-8l98 289h967l-2 -8l-1110 -1360h557q88 0 142 45q55 46 210 232h8l-102 -322h-1014l2 8zM293 45h293q305 0 507 174.5t260 477.5q58 302 -80 487
q-138 184 -407 184h-317zM569 0h-589l2 8q115 28 156 74q40 45 69 197l166 856q27 158 5 199q-23 43 -126 71l2 8h612q332 0 520 -201q188 -200 124 -534t-319 -506q-254 -172 -622 -172z" />
    <glyph glyph-name="uni01C5" unicode="&#x1c5;" horiz-adv-x="2375" 
d="M2310 1413l-235 -250h-101l-137 250h16l181 -141l260 141h16zM2206 4q-24 -24 -70 -24q-56 0 -263 10q-206 10 -366 10v8l746 934h-357q-102 0 -139 -9t-84 -56h-16l57 167h678v-8l-750 -940q282 0 400 9q103 8 160.5 30t109.5 90l15 -2q-10 -29 -29 -71q-18 -39 -33 -72
q-15 -32 -59 -76zM293 45h293q305 0 507 174.5t260 477.5q58 302 -80 487q-138 184 -407 184h-317zM569 0h-589l2 8q115 28 156 74q40 45 69 197l166 856q27 158 5 199q-23 43 -126 71l2 8h612q332 0 520 -201q188 -200 124 -534t-319 -506q-254 -172 -622 -172z" />
    <glyph glyph-name="uni01C6" unicode="&#x1c6;" horiz-adv-x="2017" 
d="M1976 1413l-235 -250h-101l-137 250h17l180 -141l260 141h16zM1777 -20q-57 0 -263 10t-365 10v8l745 934h-356q-100 0 -138 -9t-85 -56h-17l58 167h678v-8l-750 -940q282 0 400 9q103 8 159.5 30t110.5 90l14 -2q-18 -52 -32 -82q-10 -19 -28 -57q-14 -29 -26 -43
q-8 -9 -36 -37q-24 -24 -69 -24zM647 1022q-153 0 -279 -209t-126 -481q0 -44 6 -84.5t21 -84.5t47.5 -70t78.5 -25q175 0 365 225l114 655q-35 31 -105 52.5t-122 21.5zM334 -25q-95 1 -166 93q-68 92 -68 263q0 176 86.5 345.5t227.5 279.5q143 111 299 113q75 0 182 -25
l33 187q25 128 -2 165q-27 36 -138 48l3 8q178 26 311 92h8l-244 -1321q-14 -78 -3.5 -117t46.5 -38q78 0 193 69v-8q-162 -156 -255 -156t-105 79q-12 78 8 186q-47 -58 -113.5 -115.5t-151 -102t-151.5 -45.5z" />
    <glyph glyph-name="uni01C7" unicode="&#x1c7;" horiz-adv-x="1701" 
d="M1026 -428l-2 6q196 123 252 399l223 1158q15 73 20 127q3 44 -15 74q-19 31 -43 41q-32 13 -83 28l2 8h473l-2 -8q-115 -28 -157 -73q-40 -43 -70 -197l-213 -1098q-26 -143 -85 -239t-174 -164q-41 -25 -126 -62zM279 45h372q76 0 149 58q71 56 206 219h8l-105 -322
h-938l2 8q113 29 155 79t67 171l174 897q26 125 0 173q-26 49 -125 77l2 8h473l-2 -8q-115 -29 -157.5 -79t-65.5 -171z" />
    <glyph glyph-name="uni01C8" unicode="&#x1c8;" horiz-adv-x="1644" 
d="M1399 903q0 74 -53 74q-78 0 -191 -68v9q159 152 252 151q111 0 111 -135q0 -54 -21 -170l-137 -770q-68 -380 -352 -486l-2 11q86 51 140.5 162t76.5 233l166 905q10 53 10 84zM1649 1343q0 -40 -29 -68t-70 -30q-40 0 -69 29.5t-29 69.5q0 39 29.5 68.5t68.5 29.5
q40 0 69.5 -29.5t29.5 -69.5zM279 45h372q76 0 149 58q71 56 206 219h8l-105 -322h-938l2 8q113 29 155 79t67 171l174 897q26 125 0 173q-26 49 -125 77l2 8h473l-2 -8q-115 -29 -157.5 -79t-65.5 -171z" />
    <glyph glyph-name="uni01C9" unicode="&#x1c9;" horiz-adv-x="1138" 
d="M893 903q0 74 -53 74q-78 0 -191 -68v9q159 152 252 151q111 0 111 -135q0 -54 -21 -170l-137 -770q-68 -380 -352 -486l-2 11q86 51 140.5 162t76.5 233l166 905q10 53 10 84zM1143 1343q0 -41 -28.5 -68.5t-70.5 -29.5q-42 0 -70 28.5t-28 70.5q0 40 29 69t69 29
q41 0 70 -29t29 -70zM262 -27q-111 0 -110 136q0 52 20 170l170 952q12 63 12 112t-32 70q-35 21 -119 31l2 8q178 26 311 92h8l-243 -1321q-9 -48 -11 -84q0 -71 56 -71q74 0 190 69v-8q-162 -156 -254 -156z" />
    <glyph glyph-name="uni01CA" unicode="&#x1ca;" horiz-adv-x="2220" 
d="M1544 -428l-2 6q196 123 252 399l223 1158q15 73 20 127q3 44 -15 74q-19 31 -43 41q-32 13 -83 28l2 8h474l-2 -8q-115 -28 -157 -73q-39 -42 -71 -197l-213 -1098q-27 -143 -85.5 -238.5t-173.5 -164.5q-41 -25 -126 -62zM1513 987l-196 -1007h-60l-813 1290l-163 -844
q-45 -244 -31 -316q13 -70 110 -102l-2 -8h-378l2 8q110 33 152 105q43 74 89 313l152 780q16 81 -23 128q-38 45 -141 71l2 8h307l780 -1231l156 805q45 244 31 316q-13 71 -111 102l2 8h381l-2 -8q-76 -23 -114 -59t-67 -110q-30 -80 -63 -249z" />
    <glyph glyph-name="uni01CB" unicode="&#x1cb;" horiz-adv-x="2162" 
d="M1917 903q0 74 -53 74q-78 0 -191 -68v9q159 152 252 151q111 0 111 -135q0 -54 -21 -170l-137 -770q-68 -380 -352 -486l-2 11q86 51 140.5 162t76.5 233l166 905q10 53 10 84zM2167 1343q0 -41 -28.5 -68.5t-70.5 -29.5q-42 0 -70 28.5t-28 70.5q0 40 29 69t69 29
q41 0 70 -29t29 -70zM1513 987l-196 -1007h-60l-813 1290l-163 -844q-45 -244 -31 -316q13 -70 110 -102l-2 -8h-378l2 8q110 33 152 105q43 74 89 313l152 780q16 81 -23 128q-38 45 -141 71l2 8h307l780 -1231l156 805q45 244 31 316q-13 71 -111 102l2 8h381l-2 -8
q-76 -23 -114 -59t-67 -110q-30 -80 -63 -249z" />
    <glyph glyph-name="uni01CC" unicode="&#x1cc;" horiz-adv-x="1722" 
d="M1423 977q-77 0 -190 -68v9q159 152 252 151q111 0 110 -135q0 -52 -20 -170l-137 -770q-67 -379 -353 -486l-2 11q60 35 107 106t72 142t38 147l166 905q9 48 11 84q0 74 -54 74zM1726 1343q0 -40 -29 -68t-69 -30q-40 0 -69 29.5t-29 69.5q0 39 29.5 68.5t68.5 29.5
q40 0 69 -29.5t29 -69.5zM877 -27q-105 0 -107 138q0 72 21 168l92 442q14 65 14 130q0 134 -121 134q-168 0 -368 -197l-146 -788h-119l152 819q10 53 10 84q0 74 -55 74q-76 0 -189 -68v9q157 152 256 151q105 0 107 -137q0 -44 -10 -103q245 240 428 240q92 0 134 -52
q42 -53 38 -131q-5 -84 -19 -171l-96 -492q-10 -53 -10 -86q0 -69 55 -69q75 0 191 69v-8q-161 -156 -258 -156z" />
    <glyph glyph-name="uni01CD" unicode="&#x1cd;" horiz-adv-x="1384" 
d="M1167 1782l-235 -250h-101l-137 250h17l180 -142l260 142h16zM424 571h502l-115 686zM1292 8l-2 -8h-456l2 8q128 24 142 96q13 70 -44 418h-539q-179 -321 -196 -396q-17 -74 47 -101q36 -10 65 -17l-2 -8h-415l2 8q72 20 120 60q95 80 326 483l516 893h55l152 -891
q45 -268 71 -359q29 -102 57 -136q29 -33 99 -50z" />
    <glyph glyph-name="uni01CE" unicode="&#x1ce;" horiz-adv-x="1157" 
d="M993 1413l-235 -250h-101l-137 250h17l180 -141l260 141h16zM647 1022q-153 0 -279 -209t-126 -481q0 -44 6 -84.5t21 -84.5t47.5 -70t78.5 -25q152 0 346 227l113 653q-40 32 -98 53t-109 21zM825 -27q-111 0 -110 136q0 59 12 124q-49 -61 -108 -115t-139 -98.5
t-148 -44.5q-97 2 -164 93q-68 92 -68 263q0 176 86.5 345.5t227.5 279.5q143 111 299 113q70 0 128 -16q60 -17 81 -17q22 0 65 33h8l-151 -846q-10 -53 -10 -84q0 -71 55 -71q75 0 190 69v-8q-162 -156 -254 -156z" />
    <glyph glyph-name="uni01CF" unicode="&#x1cf;" horiz-adv-x="614" 
d="M766 1782l-236 -250h-100l-137 250h16l180 -142l261 142h16zM444 8l-2 -8h-471l2 8q51 13 84 27t56 31t38 46t24 60.5t20 85.5l174 897q25 89 13 140q-10 49 -38 69q-28 21 -100 41l2 8h473l-2 -8q-63 -15 -100 -31.5t-61.5 -47.5t-36.5 -67.5t-25 -103.5l-175 -897
q-44 -159 25 -210q26 -19 100 -40z" />
    <glyph glyph-name="uni01D0" unicode="&#x1d0;" horiz-adv-x="602" 
d="M662 1413l-236 -250h-100l-138 250h17l180 -141l260 141h17zM285 -27q-113 0 -113 138q0 61 23 168l116 540q9 39 11 84q0 74 -54 74q-77 0 -190 -68v9q159 152 252 151q114 0 112 -137q0 -65 -22 -168l-117 -541q-10 -41 -10 -84q0 -71 55 -71q76 0 191 69v-8
q-162 -156 -254 -156z" />
    <glyph glyph-name="uni01D1" unicode="&#x1d1;" horiz-adv-x="1617" 
d="M1270 1782l-236 -250h-100l-137 250h16l180 -142l260 142h17zM354 208q120 -204 359 -204t437 203q199 203 257 500q57 297 -64 499t-359 201q-238 0 -436 -203q-197 -203 -256 -498q-58 -293 62 -498zM1252 169q-257 -200 -544 -200q-288 0 -465 218q-178 218 -116 532
q39 203 176.5 374t328.5 262q182 87 336 87q219 0 381 -123.5t215 -336.5q36 -145 5 -304q-62 -311 -317 -509z" />
    <glyph glyph-name="uni01D2" unicode="&#x1d2;" horiz-adv-x="1073" 
d="M901 1413l-235 -250h-101l-137 250h16l181 -141l260 141h16zM444 -25q-150 0 -258 130t-108 323q0 235 170 438q169 201 377 203q149 0 257 -130q108 -131 107 -323q0 -236 -169 -438q-169 -201 -376 -203zM463 14q167 0 275 210t108 474q0 155 -68 244q-67 88 -172 88
q-166 0 -274 -210q-107 -209 -109 -474q0 -155 68 -244q67 -88 172 -88z" />
    <glyph glyph-name="uni01D3" unicode="&#x1d3;" horiz-adv-x="1579" 
d="M1280 1782l-236 -250h-100l-137 250h16l181 -142l260 142h16zM716 -31q-248 0 -386 111q-137 111 -101 301l152 774q26 125 0 173q-26 49 -127 77l2 8h479l-2 -8q-112 -29 -154.5 -79.5t-66.5 -170.5l-158 -803q-30 -143 72 -230t309 -87q93 0 177 19.5t157.5 60
t125.5 110t71 162.5l116 600q43 228 28 307q-15 78 -110 111l3 8h380l-2 -8q-106 -33 -151 -110q-45 -76 -90 -308l-119 -606q-21 -109 -79 -190.5t-141 -129t-179.5 -70.5t-205.5 -22z" />
    <glyph glyph-name="uni01D4" unicode="&#x1d4;" 
d="M956 1413l-235 -250h-100l-138 250h17l180 -141l260 141h16zM883 -27q-111 0 -111 136q0 19 10 106q-87 -86 -210.5 -164t-213.5 -78q-174 0 -174 207q0 57 17 148l96 491q10 53 10 84q0 74 -53 74q-71 0 -193 -72v8q162 156 254 156q111 0 111 -135q0 -52 -20 -170
l-93 -442q-14 -65 -14 -119q0 -144 113 -146q87 -1 189.5 59t186.5 138l146 788h119l-152 -819q-10 -53 -10 -84q0 -36 13.5 -54t39.5 -17q79 -1 191 65v-8q-158 -152 -252 -152z" />
    <glyph glyph-name="uni01D5" unicode="&#x1d5;" horiz-adv-x="1579" 
d="M1321 1864l-14 -66h-574l15 66h573zM952 1618q0 -40 -28 -68t-68 -28t-68 28q-29 29 -28 68q0 40 28 68t68 28t68 -28t28 -68zM1247 1618q-2 -40 -29 -68t-67 -28t-68 28q-29 29 -28 68q0 40 27.5 68t68.5 28t68.5 -28t27.5 -68zM716 -31q-248 0 -386 111
q-137 111 -101 301l152 774q26 125 0 173q-26 49 -127 77l2 8h479l-2 -8q-112 -29 -154.5 -79.5t-66.5 -170.5l-158 -803q-30 -143 72 -230t309 -87q93 0 177 19.5t157.5 60t125.5 110t71 162.5l116 600q43 228 28 307q-15 78 -110 111l3 8h380l-2 -8q-106 -33 -151 -110
q-45 -76 -90 -308l-119 -606q-21 -109 -79 -190.5t-141 -129t-179.5 -70.5t-205.5 -22z" />
    <glyph glyph-name="uni01D6" unicode="&#x1d6;" 
d="M1001 1516l-14 -66h-573l14 66h573zM633 1270q0 -40 -28.5 -68t-68.5 -28q-39 0 -67.5 28.5t-28.5 67.5q0 40 28.5 68t68.5 28t67 -28t29 -68zM928 1270q0 -40 -28.5 -68t-68.5 -28t-67 28t-29 68q0 40 28.5 68t68.5 28q39 0 67.5 -28.5t28.5 -67.5zM883 -27
q-111 0 -111 136q0 19 10 106q-87 -86 -210.5 -164t-213.5 -78q-174 0 -174 207q0 57 17 148l96 491q10 53 10 84q0 74 -53 74q-71 0 -193 -72v8q162 156 254 156q111 0 111 -135q0 -52 -20 -170l-93 -442q-14 -65 -14 -119q0 -144 113 -146q87 -1 189.5 59t186.5 138
l146 788h119l-152 -819q-10 -53 -10 -84q0 -36 13.5 -54t39.5 -17q79 -1 191 65v-8q-158 -152 -252 -152z" />
    <glyph glyph-name="uni01D7" unicode="&#x1d7;" horiz-adv-x="1579" 
d="M897 1737h-10q120 91 166 250h172q-117 -159 -328 -250zM952 1618q0 -40 -28 -68t-68 -28t-68 28q-29 29 -28 68q0 40 28 68t68 28t68 -28t28 -68zM1247 1618q-2 -40 -29 -68t-67 -28t-68 28q-29 29 -28 68q0 40 27.5 68t68.5 28t68.5 -28t27.5 -68zM716 -31
q-248 0 -386 111q-137 111 -101 301l152 774q26 125 0 173q-26 49 -127 77l2 8h479l-2 -8q-112 -29 -154.5 -79.5t-66.5 -170.5l-158 -803q-30 -143 72 -230t309 -87q93 0 177 19.5t157.5 60t125.5 110t71 162.5l116 600q43 228 28 307q-15 78 -110 111l3 8h380l-2 -8
q-106 -33 -151 -110q-45 -76 -90 -308l-119 -606q-21 -109 -79 -190.5t-141 -129t-179.5 -70.5t-205.5 -22z" />
    <glyph glyph-name="uni01D8" unicode="&#x1d8;" 
d="M610 1389h-10q120 91 166 249h172q-116 -158 -328 -249zM633 1270q0 -40 -28.5 -68t-68.5 -28q-39 0 -67.5 28.5t-28.5 67.5q0 40 28.5 68t68.5 28t67 -28t29 -68zM928 1270q0 -40 -28.5 -68t-68.5 -28t-67 28t-29 68q0 40 28.5 68t68.5 28q39 0 67.5 -28.5t28.5 -67.5z
M883 -27q-111 0 -111 136q0 19 10 106q-87 -86 -210.5 -164t-213.5 -78q-174 0 -174 207q0 57 17 148l96 491q10 53 10 84q0 74 -53 74q-71 0 -193 -72v8q162 156 254 156q111 0 111 -135q0 -52 -20 -170l-93 -442q-14 -65 -14 -119q0 -144 113 -146q87 -1 189.5 59
t186.5 138l146 788h119l-152 -819q-10 -53 -10 -84q0 -36 13.5 -54t39.5 -17q79 -1 191 65v-8q-158 -152 -252 -152z" />
    <glyph glyph-name="uni01D9" unicode="&#x1d9;" horiz-adv-x="1579" 
d="M1313 2007l-236 -250h-100l-137 250h16l180 -141l260 141h17zM952 1618q0 -40 -28 -68t-68 -28t-68 28q-29 29 -28 68q0 40 28 68t68 28t68 -28t28 -68zM1247 1618q-2 -40 -29 -68t-67 -28t-68 28q-29 29 -28 68q0 40 27.5 68t68.5 28t68.5 -28t27.5 -68zM716 -31
q-248 0 -386 111q-137 111 -101 301l152 774q26 125 0 173q-26 49 -127 77l2 8h479l-2 -8q-112 -29 -154.5 -79.5t-66.5 -170.5l-158 -803q-30 -143 72 -230t309 -87q93 0 177 19.5t157.5 60t125.5 110t71 162.5l116 600q43 228 28 307q-15 78 -110 111l3 8h380l-2 -8
q-106 -33 -151 -110q-45 -76 -90 -308l-119 -606q-21 -109 -79 -190.5t-141 -129t-179.5 -70.5t-205.5 -22z" />
    <glyph glyph-name="uni01DA" unicode="&#x1da;" 
d="M985 1659l-235 -250h-101l-137 250h16l181 -141l260 141h16zM633 1270q0 -40 -28.5 -68t-68.5 -28q-39 0 -67.5 28.5t-28.5 67.5q0 40 28.5 68t68.5 28t67 -28t29 -68zM928 1270q0 -40 -28.5 -68t-68.5 -28t-67 28t-29 68q0 40 28.5 68t68.5 28q39 0 67.5 -28.5
t28.5 -67.5zM883 -27q-111 0 -111 136q0 19 10 106q-87 -86 -210.5 -164t-213.5 -78q-174 0 -174 207q0 57 17 148l96 491q10 53 10 84q0 74 -53 74q-71 0 -193 -72v8q162 156 254 156q111 0 111 -135q0 -52 -20 -170l-93 -442q-14 -65 -14 -119q0 -144 113 -146
q87 -1 189.5 59t186.5 138l146 788h119l-152 -819q-10 -53 -10 -84q0 -36 13.5 -54t39.5 -17q79 -1 191 65v-8q-158 -152 -252 -152z" />
    <glyph glyph-name="uni01DB" unicode="&#x1db;" horiz-adv-x="1579" 
d="M1245 1737h-10q-211 91 -328 250h172q46 -159 166 -250zM973 1618q0 -40 -28.5 -68t-68.5 -28q-39 0 -67.5 28.5t-28.5 67.5q0 40 28.5 68t68.5 28t67 -28t29 -68zM1268 1618q0 -40 -28.5 -68t-68.5 -28t-67 28t-29 68q0 40 28.5 68t68.5 28q39 0 67.5 -28.5t28.5 -67.5z
M716 -31q-248 0 -386 111q-137 111 -101 301l152 774q26 125 0 173q-26 49 -127 77l2 8h479l-2 -8q-112 -29 -154.5 -79.5t-66.5 -170.5l-158 -803q-30 -143 72 -230t309 -87q93 0 177 19.5t157.5 60t125.5 110t71 162.5l116 600q43 228 28 307q-15 78 -110 111l3 8h380
l-2 -8q-106 -33 -151 -110q-45 -76 -90 -308l-119 -606q-21 -109 -79 -190.5t-141 -129t-179.5 -70.5t-205.5 -22z" />
    <glyph glyph-name="uni01DC" unicode="&#x1dc;" 
d="M897 1389h-10q-212 91 -328 249h172q46 -158 166 -249zM633 1270q0 -40 -28.5 -68t-68.5 -28q-39 0 -67.5 28.5t-28.5 67.5q0 40 28.5 68t68.5 28t67 -28t29 -68zM928 1270q0 -40 -28.5 -68t-68.5 -28t-67 28t-29 68q0 40 28.5 68t68.5 28q39 0 67.5 -28.5t28.5 -67.5z
M883 -27q-111 0 -111 136q0 19 10 106q-87 -86 -210.5 -164t-213.5 -78q-174 0 -174 207q0 57 17 148l96 491q10 53 10 84q0 74 -53 74q-71 0 -193 -72v8q162 156 254 156q111 0 111 -135q0 -52 -20 -170l-93 -442q-14 -65 -14 -119q0 -144 113 -146q87 -1 189.5 59
t186.5 138l146 788h119l-152 -819q-10 -53 -10 -84q0 -36 13.5 -54t39.5 -17q79 -1 191 65v-8q-158 -152 -252 -152z" />
    <glyph glyph-name="uni01DD" unicode="&#x1dd;" horiz-adv-x="921" 
d="M310 442q-128 -98 -128 -259q0 -80 40 -120.5t120 -39.5q132 0 235 153q103 154 115 365q-255 -2 -382 -99zM692 575v13q0 194 -70 288q-72 95 -178 95q-103 0 -176.5 -40.5t-144.5 -125.5l-12 14q51 94 157 172t241 78q136 0 227 -115q92 -117 91 -307q2 -260 -165 -466
t-369 -206q-96 2 -166 53t-70 143q0 85 29 148q111 233 606 256z" />
    <glyph glyph-name="uni01DE" unicode="&#x1de;" horiz-adv-x="1384" 
d="M1210 1823l-14 -66h-573l14 66h573zM846 1618q0 -39 -28.5 -67.5t-67.5 -28.5q-40 0 -68.5 28t-28.5 68t28.5 68t68.5 28t68 -28t28 -68zM1141 1618q0 -40 -28.5 -68t-68.5 -28t-68 28t-28 68q0 39 28.5 67.5t67.5 28.5q40 0 68.5 -28t28.5 -68zM424 571h502l-115 686z
M1292 8l-2 -8h-456l2 8q128 24 142 96q13 70 -44 418h-539q-179 -321 -196 -396q-17 -74 47 -101q36 -10 65 -17l-2 -8h-415l2 8q72 20 120 60q95 80 326 483l516 893h55l152 -891q45 -268 71 -359q29 -102 57 -136q29 -33 99 -50z" />
    <glyph glyph-name="uni01DF" unicode="&#x1df;" horiz-adv-x="1157" 
d="M1057 1516l-15 -66h-573l14 66h574zM692 1270q0 -40 -28 -68t-68 -28t-68 28q-29 29 -28 68q0 40 28 68t68 28t68 -28t28 -68zM987 1270q0 -40 -28.5 -68t-68.5 -28q-39 0 -67 28q-29 29 -28 68q2 40 29 68t67 28t67 -28t29 -68zM647 1022q-153 0 -279 -209t-126 -481
q0 -44 6 -84.5t21 -84.5t47.5 -70t78.5 -25q152 0 346 227l113 653q-40 32 -98 53t-109 21zM825 -27q-111 0 -110 136q0 59 12 124q-49 -61 -108 -115t-139 -98.5t-148 -44.5q-97 2 -164 93q-68 92 -68 263q0 176 86.5 345.5t227.5 279.5q143 111 299 113q70 0 128 -16
q60 -17 81 -17q22 0 65 33h8l-151 -846q-10 -53 -10 -84q0 -71 55 -71q75 0 190 69v-8q-162 -156 -254 -156z" />
    <glyph glyph-name="uni01E0" unicode="&#x1e0;" horiz-adv-x="1384" 
d="M1180 1874l-15 -78h-512l15 78h512zM995 1622q-2 -42 -29 -70t-69 -28t-70 28q-29 29 -28 70q0 42 28 70t70 28t70 -28t28 -70zM424 571h502l-115 686zM1292 8l-2 -8h-456l2 8q128 24 142 96q13 70 -44 418h-539q-179 -321 -196 -396q-17 -74 47 -101q36 -10 65 -17
l-2 -8h-415l2 8q72 20 120 60q95 80 326 483l516 893h55l152 -891q45 -268 71 -359q29 -102 57 -136q29 -33 99 -50z" />
    <glyph glyph-name="uni01E1" unicode="&#x1e1;" horiz-adv-x="1157" 
d="M1006 1567l-15 -78h-512l15 78h512zM840 1315q0 -41 -29 -70t-70 -29t-68.5 29t-29.5 70q0 41 29 68.5t70 29.5q41 -2 69.5 -29.5t28.5 -68.5zM647 1022q-153 0 -279 -209t-126 -481q0 -44 6 -84.5t21 -84.5t47.5 -70t78.5 -25q152 0 346 227l113 653q-40 32 -98 53
t-109 21zM825 -27q-111 0 -110 136q0 59 12 124q-49 -61 -108 -115t-139 -98.5t-148 -44.5q-97 2 -164 93q-68 92 -68 263q0 176 86.5 345.5t227.5 279.5q143 111 299 113q70 0 128 -16q60 -17 81 -17q22 0 65 33h8l-151 -846q-10 -53 -10 -84q0 -71 55 -71q75 0 190 69v-8
q-162 -156 -254 -156z" />
    <glyph glyph-name="uni01E2" unicode="&#x1e2;" horiz-adv-x="1878" 
d="M1499 1618l-14 -66h-574l15 66h573zM492 571h462l156 797h-12zM1571 1368h-330l-119 -618h308q70 0 108 26q37 25 104 109h9l-62 -316h-8q-34 82 -63 109q-28 27 -99 27h-307l-127 -660h387q83 2 113 23q51 36 92 80q46 50 149 174h9l-105 -322h-960l2 8q117 28 158 74
q40 45 69 197l47 243h-491q-233 -308 -273 -388t25 -109q16 -8 55 -17l-2 -8h-405l2 8q105 28 215 132q106 100 344 411l446 584q113 147 78 197q-25 36 -110 60q-20 5 -35 10q-8 2 -13 3l2 8h1063l-57 -289h-8q-9 27 -21 59l-17 51q-31 94 -67 113q-34 18 -59 20
q-15 1 -47 1z" />
    <glyph glyph-name="uni01E3" unicode="&#x1e3;" horiz-adv-x="1576" 
d="M1266 1331l-15 -65h-573l14 65h574zM1275 603q128 98 128 258q0 161 -160 161q-132 0 -235 -154q-105 -156 -115 -364q255 2 382 99zM647 1022q-153 0 -279 -209t-126 -481q0 -44 6 -84.5t21 -84.5t47.5 -70t78.5 -25q156 0 371 254q-4 23 -4 85q0 57 14 138l78 403
q-40 32 -98 53t-109 21zM1088 -25q-132 0 -214.5 88.5t-103.5 225.5l-43 -56q-49 -61 -108 -115t-139 -98.5t-148 -44.5q-97 2 -164 93q-68 92 -68 263q0 176 86.5 345.5t227.5 279.5q143 111 299 113q87 0 196 -33l78 33h8l-37 -168q158 168 334 168q95 0 165.5 -51.5
t70.5 -143.5q0 -86 -29 -149q-111 -233 -606 -256v-12q0 -193 71 -288t177 -95q103 0 175.5 40t145.5 126l13 -15q-51 -94 -157 -172t-230 -78z" />
    <glyph glyph-name="uni01E4" unicode="&#x1e4;" horiz-adv-x="1472" 
d="M698 -31q-311 0 -470 217q-159 218 -95 543q63 325 323 519t554 194q92 0 220.5 -21.5t199.5 -54.5l-54 -274h-8q-42 158 -133.5 236t-251.5 79q-230 0 -432 -194t-260 -501q-59 -309 71 -507q130 -199 373 -199q76 0 185.5 17.5t164.5 44.5l52 264h-291l10 55h291l8 41
q27 126 2 184q-26 59 -123 86l2 9h441l-2 -9q-85 -28 -123 -80q-37 -50 -64 -190l-8 -41h176l-10 -55h-176l-53 -279q-257 -84 -519 -84z" />
    <glyph glyph-name="uni01E5" unicode="&#x1e5;" horiz-adv-x="903" 
d="M420 373q129 0 204 126q75 127 74 332q0 92 -49 145q-49 54 -117 54q-65 0 -119.5 -39t-87.5 -99.5t-51 -127t-18 -126.5q0 -263 164 -265zM88 -386q102 -60 230 -60q51 0 109 11t117 33t100.5 63.5t47.5 94.5h-270l10 56h258q-6 32 -23 56.5t-45 41t-52 25.5t-60 20
l-256 80q-202 -86 -245 -169q-24 -47 -23 -106q0 -86 102 -146zM284 -492q-161 0 -301 73q-140 74 -141 169q0 187 375 299q-100 45 -100 113q0 95 190 192q-84 31 -129 95t-45 153q0 116 47.5 221t141 175t210.5 71q103 0 185 -68h49q81 0 130.5 21t100.5 80q37 -44 37 -85
q0 -40 -34 -73q-20 -18 -60 -18q-52 0 -137 30q-45 16 -60 21q82 -86 82 -237q-2 -151 -119 -276q-118 -126 -288 -126q-41 0 -76 8q-42 -26 -74 -70q-31 -43 -30 -77q0 -54 63 -70l213 -63q159 -48 224 -96q63 -47 65 -130l-2 -28h231l-10 -56h-234q-24 -65 -81.5 -115
t-131.5 -78t-148 -41.5t-143 -13.5z" />
    <glyph glyph-name="Gcaron" unicode="&#x1e6;" horiz-adv-x="1472" 
d="M1262 1782l-236 -250h-100l-138 250h17l180 -142l260 142h17zM698 -31q-311 0 -470 217q-159 218 -95 543q63 325 323 519t554 194q92 0 220.5 -21.5t199.5 -54.5l-54 -274h-8q-42 158 -133.5 236t-251.5 79q-230 0 -432 -194t-260 -501q-59 -309 71 -507
q130 -199 373 -199q79 0 183 17t167 45l70 360q27 126 2 184q-26 59 -123 86l2 9h441l-2 -9q-85 -28 -123 -80q-37 -50 -64 -190l-71 -375q-257 -84 -519 -84z" />
    <glyph glyph-name="gcaron" unicode="&#x1e7;" horiz-adv-x="903" 
d="M827 1413l-235 -250h-100l-138 250h17l180 -141l260 141h16zM420 373q129 0 204 126q75 127 74 332q0 92 -49 145q-49 54 -117 54q-65 0 -119.5 -39t-87.5 -99.5t-51 -127t-18 -126.5q0 -263 164 -265zM88 -386q102 -60 263 -60t279 96q64 52 64 126q0 73 -43 110
q-43 38 -141 69l-256 80q-202 -86 -245 -169q-24 -47 -23 -106q0 -86 102 -146zM803 -172q0 -94 -82 -172q-155 -148 -461 -148q-138 0 -277 73q-140 74 -141 169q0 187 375 299q-100 45 -100 113q0 95 190 192q-84 31 -129 95t-45 153q0 116 47.5 221t141 175t210.5 71
q103 0 185 -68h49q81 0 130.5 21t100.5 80q37 -44 37 -85q0 -40 -34 -73q-20 -18 -60 -18q-52 0 -137 30q-45 16 -60 21q82 -86 82 -237q-2 -151 -119 -276q-118 -126 -288 -126q-41 0 -76 8q-59 -39 -90 -88q-62 -95 57 -131l205 -61q159 -48 224 -96q63 -47 65 -142z" />
    <glyph glyph-name="uni01E8" unicode="&#x1e8;" horiz-adv-x="1425" 
d="M1143 1782l-236 -250h-100l-137 250h16l180 -142l260 142h17zM1374 8l-2 -8h-495l2 8q96 16 126 42q29 26 15 92q-13 65 -90 214l-223 439l-332 -279l-49 -258q-44 -159 24 -210q26 -18 101 -40l-2 -8h-478l2 8q51 13 84 27t56 31t38 46t24 60.5t20 85.5l174 897
q25 89 13 140q-10 49 -38 69q-28 21 -100 41l2 8h479l-2 -8q-63 -15 -100 -31.5t-61.5 -47.5t-36.5 -67.5t-25 -103.5l-113 -575l555 475q248 215 236 284q-7 39 -115 66l2 8h498l-2 -8q-119 -27 -210 -87q-87 -57 -317 -249l-221 -186l268 -527q101 -201 147 -256
q38 -46 61 -60t85 -32z" />
    <glyph glyph-name="uni01E9" unicode="&#x1e9;" horiz-adv-x="1019" 
d="M950 1823l-235 -250h-101l-137 250h17l180 -142l260 142h16zM123 0l219 1231q12 63 12 112t-32 70q-35 21 -119 31l2 8q178 26 311 92h8l-284 -1544h-117zM793 -27q-64 2 -107 51t-108 199l-150 344q273 118 440 297q-37 7 -61.5 37t-24.5 68q0 41 30 70.5t71 29.5
q43 0 74.5 -31.5t33.5 -74.5q0 -76 -106 -163q-106 -86 -340 -220l178 -355q44 -85 76 -120q33 -36 86 -36t157 66l2 -6q-109 -156 -251 -156z" />
    <glyph glyph-name="uni01EA" unicode="&#x1ea;" horiz-adv-x="1617" 
d="M354 208q120 -204 359 -204t437 203q199 203 257 500q57 297 -64 499t-359 201q-238 0 -436 -203q-197 -203 -256 -498q-58 -293 62 -498zM776 -350v-8q-55 -70 -135 -70q-81 0 -121 40q-41 41 -41 93q0 116 238 264h-10q-287 0 -464 218q-178 218 -116 532
q39 203 176.5 374t328.5 262q182 87 336 87q219 0 381 -123.5t215 -336.5q36 -145 5 -304q-59 -300 -300 -496q-243 -198 -521 -211q-140 -160 -142 -250q0 -81 94 -81q32 0 76 10z" />
    <glyph glyph-name="uni01EB" unicode="&#x1eb;" horiz-adv-x="1073" 
d="M463 14q167 0 275 210t108 474q0 155 -68 244q-67 88 -172 88q-166 0 -274 -210q-107 -209 -109 -474q0 -155 68 -244q67 -88 172 -88zM537 -350v-8q-55 -70 -135 -70q-68 0 -115 34t-47 99q0 117 249 275q-14 -2 -45 -5q-150 0 -258 130t-108 323q0 235 170 438
q169 201 377 203q149 0 257 -130q108 -131 108 -333q0 -203 -142 -393q-141 -190 -328 -229q-155 -168 -153 -263q0 -81 94 -81q32 0 76 10z" />
    <glyph glyph-name="uni01EC" unicode="&#x1ec;" horiz-adv-x="1617" 
d="M1214 1690l-14 -78h-512l14 78h512zM354 208q120 -204 359 -204t437 203q199 203 257 500q57 297 -64 499t-359 201q-238 0 -436 -203q-197 -203 -256 -498q-58 -293 62 -498zM776 -350v-8q-55 -70 -135 -70q-81 0 -121 40q-41 41 -41 93q0 116 238 264h-10
q-287 0 -464 218q-178 218 -116 532q39 203 176.5 374t328.5 262q182 87 336 87q219 0 381 -123.5t215 -336.5q36 -145 5 -304q-59 -300 -300 -496q-243 -198 -521 -211q-140 -160 -142 -250q0 -81 94 -81q32 0 76 10z" />
    <glyph glyph-name="uni01ED" unicode="&#x1ed;" horiz-adv-x="1089" 
d="M911 1321l-14 -78h-512l14 78h512zM463 14q167 0 275 210t108 474q0 155 -68 244q-67 88 -172 88q-166 0 -274 -210q-107 -209 -109 -474q0 -155 68 -244q67 -88 172 -88zM537 -350v-8q-55 -70 -135 -70q-68 0 -115 34t-47 99q0 117 249 275q-14 -2 -45 -5
q-150 0 -258 130t-108 323q0 235 170 438q169 201 377 203q149 0 257 -130q108 -131 108 -333q0 -203 -142 -393q-141 -190 -328 -229q-155 -168 -153 -263q0 -81 94 -81q32 0 76 10z" />
    </font>
</defs>
</svg>
