<?xml version="1.0" standalone="no"?>
<!DOCTYPE svg PUBLIC "-//W3C//DTD SVG 1.1//EN" "http://www.w3.org/Graphics/SVG/1.1/DTD/svg11.dtd" >
<svg xmlns="http://www.w3.org/2000/svg" xmlns:xlink="http://www.w3.org/1999/xlink" version="1.1">
<metadata>
Created by FontForge 20170731 at Thu Mar 21 20:31:04 2019
 By Aleksey,,,
Copyright (c) 2013 by Jonas Hecksher, Playtype, e-Types AS. All rights reserved.
</metadata>
<defs>
<font id="BerlingskeSerif-SemBdIta" horiz-adv-x="1167" >
  <font-face 
    font-family="Berlingske Serif SemBd"
    font-weight="600"
    font-style="italic"
    font-stretch="normal"
    units-per-em="2048"
    panose-1="2 0 7 3 8 0 0 9 0 4"
    ascent="1638"
    descent="-410"
    x-height="1044"
    cap-height="1413"
    bbox="-737 -709 3805 2114"
    underline-thickness="102"
    underline-position="-510"
    slope="-11"
    unicode-range="U+0020-FB06"
  />
<missing-glyph horiz-adv-x="1341" 
d="M1260 1413v-1413h-1117v1413h1117zM301 596h258v8q-46 14 -59 38.5t-15 78.5v156h72q102 0 163.5 46.5t61.5 143.5q0 172 -223 172h-258v-8q34 -12 45 -35q10 -21 10 -84v-393q0 -62 -10 -83t-45 -32v-8zM991 715v313h103v43h-103v111h-10q-38 -69 -131 -125l-33 -21v-8
h53v-289q0 -76 29.5 -114t87.5 -37q67 0 123 63l-4 11q-24 -11 -51 -13q-63 0 -64 66zM535 907h-50v299h58q111 0 111 -150q0 -75 -30 -112.5t-89 -36.5z" />
    <glyph glyph-name="f_f" unicode="ff" horiz-adv-x="1255" 
d="M926 1274q-32 -31 -85 -31q-54 0 -91 32.5t-37 84.5q0 92 114 135q-27 8 -55 8q-39 -1 -71.5 -17t-55 -46t-39 -61.5t-28.5 -75t-18.5 -73.5t-12.5 -69l-19 -117h340l17 89q17 92 41 141zM739 1544q57 0 106.5 -15.5t86 -55t37.5 -97.5q0 -13 -4 -28q128 197 368 196
q109 0 169 -48t60 -114q0 -61 -33.5 -100t-93.5 -39q-54 0 -91 32.5t-37 84.5q0 92 114 135q-27 8 -55 8q-39 -1 -71.5 -17t-55 -46t-39 -61.5t-28.5 -75t-18.5 -73.5t-12.5 -69l-19 -117h217l-18 -96h-215l-156 -917q-44 -265 -273 -417q-75 -49 -210 -106l-4 13
q87 53 143 169t78 240l170 1018h-342l-156 -917q-44 -265 -273 -417q-75 -49 -210 -106l-4 13q87 53 143 169t78 240l170 1018h-174l39 96h149l17 89q39 216 166 313q128 98 282 98z" />
    <glyph glyph-name="f_f_i" unicode="ffi" horiz-adv-x="1812" 
d="M936 1286q-37 -43 -92 -43t-93 31.5t-38 85.5q0 92 114 135q-27 8 -55 8q-39 -1 -71.5 -17t-55 -46t-39 -61.5t-28.5 -75t-18.5 -73.5t-12.5 -69l-19 -117h340l4 27q18 122 64 215zM1315 141q0 60 14 138l98 524q9 48 11 82q0 63 -47 63h-285l-150 -874
q-16 -95 -55.5 -188t-98.5 -161q-115 -133 -335 -217l-4 13q87 53 143 168.5t78 240.5l170 1018h-342l-156 -917q-44 -265 -273 -417q-75 -49 -210 -106l-4 13q87 53 143 169t78 240l170 1018h-174l39 96h149l17 89q39 216 166 313q128 98 282 98q57 0 106.5 -15.5t86 -55
t37.5 -97.5q0 -27 -6 -45q135 213 479 213q134 0 207 -51t73 -121q0 -63 -38.5 -100t-102.5 -37q-52 0 -87.5 27.5t-35.5 78.5q0 111 129 138q-48 20 -129 20q-141 0 -215 -83q-73 -82 -108 -296l-13 -76h111q95 0 192 12q56 7 111 13q137 0 137 -170q0 -42 -14 -135
l-90 -485q-10 -54 -10 -89q0 -33 13 -49.5t38 -15.5q48 0 151 51v-8q-54 -68 -144.5 -131t-162.5 -64q-139 0 -139 168z" />
    <glyph glyph-name="f_f_l" unicode="ffl" horiz-adv-x="1806" 
d="M932 1280q-37 -37 -90 -37q-54 0 -91.5 32t-37.5 85q0 92 114 135q-27 8 -55 8q-39 -1 -71.5 -17t-55 -46t-39 -61.5t-28.5 -75t-18.5 -73.5t-12.5 -69l-19 -117h340l17 89q13 78 47 147zM1313 143q0 38 14 136l174 964q-52 0 -85.5 32.5t-33.5 84.5q0 87 119 131
q-45 12 -84 12q-58 0 -103.5 -20.5t-73.5 -51t-48.5 -79t-31 -91t-19.5 -100.5l-19 -117h217l-18 -96h-215l-148 -864q-72 -420 -491 -576l-4 13q87 53 143 168.5t78 240.5l170 1018h-342l-156 -917q-44 -265 -273 -417q-75 -49 -210 -106l-4 13q87 53 143 169t78 240
l170 1018h-174l39 96h149l17 89q39 216 166 313q128 98 282 98q57 0 106.5 -15.5t86 -55t37.5 -97.5q0 -16 -4 -39q135 207 428 207q152 0 213 -76q76 21 182 76h10l-225 -1265q-10 -53 -10 -86q0 -68 49 -68q50 0 153 51l2 -8q-54 -67 -146 -130.5t-161 -63.5
q-147 0 -147 169z" />
    <glyph glyph-name="f_b" unicode="fb" horiz-adv-x="1792" 
d="M1044 39q170 0 297 171q127 170 127 388q0 159 -65 248q-66 88 -164 88q-68 0 -158 -45l-145 -819q46 -31 108 -31zM784 1360q0 87 119 131q-45 12 -84 12q-58 0 -103.5 -20.5t-73.5 -51t-48.5 -79t-31 -91t-19.5 -100.5l-19 -117h217l-18 -96h-215l-146 -858
q-24 -146 -93 -267.5t-182 -200.5q-84 -59 -218 -114l-4 13q87 53 143 168.5t78 240.5l170 1018h-174l39 96h149l17 89q41 216 180 313q140 98 309 98q171 0 232 -76q67 19 182 76h8l-111 -622q147 147 294 147q146 0 247 -113q100 -112 100 -290q0 -130 -63 -257.5
t-162.5 -222t-229.5 -153t-258 -58.5q-72 0 -170 19t-163 47l217 1202q-51 0 -83 33t-32 84z" />
    <glyph glyph-name="f_h" unicode="fh" horiz-adv-x="1781" 
d="M1403 805q0 125 -88 125q-67 0 -139.5 -66t-122.5 -143l-129 -721h-246l221 1243q-49 6 -82 36.5t-33 78.5q0 92 119 133q-45 12 -80 12q-59 0 -105 -20t-75 -50t-50 -78t-31 -91.5t-19 -102.5l-19 -117h217l-18 -96h-215l-148 -864q-72 -420 -491 -576l-4 13
q87 53 143 168.5t78 240.5l170 1018h-174l39 96h149l17 89q27 151 109 245q81 93 181 129.5t235 36.5t196 -76q76 21 182 76h8l-131 -733q63 105 158.5 181.5t200.5 76.5t161 -75.5t58 -184.5q0 -41 -11 -94l-84 -436q-10 -54 -10 -91q0 -63 50 -63t153 51l2 -8
q-51 -67 -146 -130.5t-167 -64.5q-137 0 -138 166q0 67 15 140l86 444q8 56 8 82z" />
    <glyph glyph-name="f_i" unicode="fi" horiz-adv-x="1214" 
d="M717 141q0 60 14 138l98 524q9 48 11 82q0 63 -47 63h-285l-150 -874q-16 -95 -55.5 -188t-98.5 -161q-115 -133 -335 -217l-4 13q87 53 143 168.5t78 240.5l170 1018h-174l39 96h149l4 27q37 257 184 366q146 108 386 107q134 0 207 -51t73 -121q0 -63 -38.5 -100
t-102.5 -37q-52 0 -87.5 27.5t-35.5 78.5q0 111 129 138q-48 20 -129 20q-141 0 -215 -83q-73 -82 -108 -296l-13 -76h111q95 0 192 12q56 7 111 13q137 0 137 -170q0 -42 -14 -135l-90 -485q-10 -54 -10 -89q0 -33 13 -49.5t38 -15.5q48 0 151 51v-8q-54 -68 -144.5 -131
t-162.5 -64q-139 0 -139 168z" />
    <glyph glyph-name="f_j" unicode="fj" horiz-adv-x="1187" 
d="M786 948h-278l-156 -917q-18 -113 -73.5 -212.5t-143.5 -164.5q-131 -95 -268 -146l-2 11q87 53 143 169t78 240l170 1020h-174l39 96h149l9 48q43 239 180.5 345.5t384.5 106.5q134 0 207 -51t73 -121q0 -64 -37 -106.5t-100 -42.5q-51 0 -89 34t-38 84q0 111 129 138
q-48 20 -129 20q-141 0 -215 -83q-73 -82 -108 -296l-13 -76h152q78 0 164 12q49 7 98 13q135 0 135 -168q0 -42 -14 -137l-125 -733q-63 -371 -485 -523l-3 11q86 52 143 169t79 240l155 875q9 48 11 82q0 63 -48 63z" />
    <glyph glyph-name="f_k" unicode="fk" horiz-adv-x="1767" 
d="M1538 1069q56 0 99.5 -39t43.5 -95q-2 -53 -23 -89q-37 -61 -156 -127q-63 -35 -110 -59q-23 -12 -104 -54l180 -370q11 -24 21.5 -41t26 -36t36 -29t44.5 -10q41 0 130 40v-8q-49 -66 -139.5 -122t-164.5 -56q-76 0 -122 48t-108 201l-131 328q288 147 424 248
q-43 18 -67 54.5t-24 84.5q0 54 45 92.5t99 38.5zM784 1360q0 87 119 131q-45 12 -84 12q-58 0 -103.5 -20.5t-73.5 -51t-48.5 -79t-31 -91t-19.5 -100.5l-19 -117h217l-18 -96h-215l-148 -864q-72 -420 -491 -576l-4 13q87 53 143 168.5t78 240.5l170 1018h-174l39 96h149
l17 89q41 216 180 313q140 98 309 98q171 0 232 -76q76 21 182 76h10l-276 -1544h-246l225 1243q-52 0 -85.5 32.5t-33.5 84.5z" />
    <glyph glyph-name="f_l" unicode="fl" horiz-adv-x="1208" 
d="M715 143q0 38 14 136l174 964q-52 0 -85.5 32.5t-33.5 84.5q0 87 119 131q-45 12 -84 12q-58 0 -103.5 -20.5t-73.5 -51t-48.5 -79t-31 -91t-19.5 -100.5l-19 -117h217l-18 -96h-215l-148 -864q-72 -420 -491 -576l-4 13q87 53 143 168.5t78 240.5l170 1018h-174l39 96
h149l17 89q41 216 180 313q140 98 309 98q171 0 232 -76q76 21 182 76h10l-225 -1265q-10 -53 -10 -86q0 -68 49 -68q50 0 153 51l2 -8q-54 -67 -146 -130.5t-161 -63.5q-147 0 -147 169z" />
    <glyph glyph-name="f_t" unicode="ft" horiz-adv-x="1261" 
d="M856 -27q-135 0 -135 174q0 37 14 132l117 669h-340l-156 -917q-44 -265 -273 -417q-75 -49 -210 -106l-4 13q87 53 143 169t78 240l170 1018h-174l39 96h149l17 89q39 216 166 313q128 98 282 98q109 0 169 -48t60 -114q0 -61 -33.5 -100t-93.5 -39q-54 0 -91 32.5
t-37 84.5q0 92 114 135q-27 8 -55 8q-39 -1 -71.5 -17t-55 -46t-39 -61.5t-28.5 -75t-18.5 -73.5t-12.5 -69l-19 -117h326q94 78 141 179h142l-35 -179h219l-14 -110h-222l-118 -655q-6 -32 -6 -58q1 -81 67 -81q67 0 193 61v-8q-61 -77 -171 -148.5t-194 -71.5z" />
    <glyph glyph-name="f_f_b" unicode="ffb" horiz-adv-x="2390" 
d="M932 1280q-37 -37 -90 -37q-54 0 -91.5 32t-37.5 85q0 92 114 135q-27 8 -55 8q-39 -1 -71.5 -17t-55 -46t-39 -61.5t-28.5 -75t-18.5 -73.5t-12.5 -69l-19 -117h340l17 89q13 78 47 147zM1642 39q170 0 297 171q127 170 127 388q0 159 -65 248q-66 88 -164 88
q-68 0 -158 -45l-145 -819q46 -31 108 -31zM1382 1360q0 87 119 131q-45 12 -84 12q-58 0 -103.5 -20.5t-73.5 -51t-48.5 -79t-31 -91t-19.5 -100.5l-19 -117h217l-18 -96h-215l-145 -858q-24 -146 -93 -267.5t-183 -200.5q-84 -59 -218 -114l-4 13q87 53 143 168.5
t78 240.5l170 1018h-342l-156 -917q-44 -265 -273 -417q-75 -49 -210 -106l-4 13q87 53 143 169t78 240l170 1018h-174l39 96h149l17 89q39 216 166 313q128 98 282 98q57 0 106.5 -15.5t86 -55t37.5 -97.5q0 -16 -4 -39q135 207 428 207q152 0 213 -76q67 19 182 76h8
l-110 -622q148 147 294 147q145 0 246 -113q100 -112 100 -290q0 -130 -63 -257.5t-162.5 -222t-229.5 -153t-258 -58.5q-72 0 -170 19t-163 47l217 1202q-51 0 -83 33t-32 84z" />
    <glyph glyph-name="f_f_f" unicode="fff" horiz-adv-x="1849" 
d="M1520 1274q-32 -31 -85 -31q-54 0 -91 32.5t-37 84.5q0 92 114 135q-27 8 -55 8q-39 -1 -71.5 -17t-55 -46t-39 -61.5t-28.5 -75t-18.5 -73.5t-12.5 -69l-19 -117h340l17 89q17 92 41 141zM926 1274q-32 -31 -85 -31q-54 0 -91 32.5t-37 84.5q0 92 114 135q-27 8 -55 8
q-39 -1 -71.5 -17t-55 -46t-39 -61.5t-28.5 -75t-18.5 -73.5t-12.5 -69l-19 -117h340l17 89q17 92 41 141zM739 1544q57 0 106.5 -15.5t86 -55t37.5 -97.5q0 -13 -4 -28q128 197 368 196q57 0 106.5 -15.5t86 -55t37.5 -97.5q0 -13 -4 -28q128 197 368 196q109 0 169 -48
t60 -114q0 -61 -33.5 -100t-93.5 -39q-51 0 -91 32q-39 32 -37 85q0 92 114 135q-27 8 -55 8q-39 -1 -71.5 -17t-55 -46t-39 -61.5t-28.5 -75t-18.5 -73.5t-12.5 -69l-19 -117h217l-18 -96h-215l-156 -917q-44 -265 -273 -417q-75 -49 -210 -106l-4 13q87 53 143 169t78 240
l170 1018h-342l-156 -917q-44 -265 -273 -417q-75 -49 -210 -106l-4 13q87 53 143 169t78 240l170 1018h-342l-156 -917q-44 -265 -273 -417q-75 -49 -210 -106l-4 13q87 53 143 169t78 240l170 1018h-174l39 96h149l17 89q39 216 166 313q128 98 282 98z" />
    <glyph glyph-name="f_f_h" unicode="ffh" horiz-adv-x="2379" 
d="M930 1278q-40 -35 -90 -35q-53 0 -90 32.5t-37 84.5q0 92 114 135q-27 8 -55 8q-39 -1 -71.5 -17t-55 -46t-39 -61.5t-28.5 -75t-18.5 -73.5t-12.5 -69l-19 -117h340l17 89q16 83 45 145zM2001 805q0 125 -88 125q-67 0 -139.5 -66t-122.5 -143l-129 -721h-246l221 1243
q-49 6 -82 36.5t-33 78.5q0 92 119 133q-45 12 -80 12q-59 0 -105 -20t-75 -50t-50 -78t-31 -91.5t-19 -102.5l-19 -117h217l-18 -96h-215l-148 -864q-72 -420 -491 -576l-4 13q87 53 143 168.5t78 240.5l170 1018h-342l-156 -917q-44 -265 -273 -417q-75 -49 -210 -106
l-4 13q87 53 143 169t78 240l170 1018h-174l39 96h149l17 89q39 216 166 313q128 98 282 98q57 0 106.5 -15.5t86 -55t37.5 -97.5q0 -18 -4 -37q135 205 430 205q150 0 211 -76q76 21 182 76h8l-131 -733q63 105 158.5 181.5t200.5 76.5t161 -75.5t58 -184.5q0 -41 -11 -94
l-84 -436q-10 -54 -10 -91q0 -63 50 -63t153 51l2 -8q-51 -67 -146 -130.5t-167 -64.5q-137 0 -138 166q0 67 15 140l86 444q8 56 8 82z" />
    <glyph glyph-name="f_f_j" unicode="ffj" horiz-adv-x="1785" 
d="M936 1284q-38 -41 -92 -41q-55 0 -93 31.5t-38 85.5q0 92 114 135q-27 8 -55 8q-39 -1 -71.5 -17t-55 -46t-39 -61.5t-28.5 -75t-18.5 -73.5t-12.5 -69l-19 -117h340l9 48q18 108 59 192zM1384 948h-278l-156 -917q-18 -113 -73.5 -212.5t-143.5 -164.5
q-131 -95 -268 -146l-2 11q87 53 143 169t78 240l170 1020h-342l-156 -917q-44 -265 -273 -417q-75 -49 -210 -106l-4 13q87 53 143 169t78 240l170 1018h-174l39 96h149l17 89q39 216 166 313q128 98 282 98q57 0 106.5 -15.5t86 -55t37.5 -97.5q0 -25 -6 -43
q133 211 479 211q134 0 207 -51t73 -121q0 -64 -37 -106.5t-100 -42.5q-51 0 -89 34t-38 84q0 111 129 138q-48 20 -129 20q-141 0 -215 -83q-73 -82 -108 -296l-13 -76h152q78 0 164 12q49 7 98 13q135 0 135 -168q0 -42 -14 -137l-125 -733q-63 -371 -485 -523l-3 11
q86 52 143 169t79 240l155 875q9 48 11 82q0 63 -48 63z" />
    <glyph glyph-name="f_f_k" unicode="ffk" horiz-adv-x="2365" 
d="M932 1280q-37 -37 -90 -37q-54 0 -91.5 32t-37.5 85q0 92 114 135q-27 8 -55 8q-39 -1 -71.5 -17t-55 -46t-39 -61.5t-28.5 -75t-18.5 -73.5t-12.5 -69l-19 -117h340l17 89q13 78 47 147zM1382 1360q0 87 119 131q-45 12 -84 12q-58 0 -103.5 -20.5t-73.5 -51t-48.5 -79
t-31 -91t-19.5 -100.5l-19 -117h217l-18 -96h-215l-148 -864q-72 -420 -491 -576l-4 13q87 53 143 168.5t78 240.5l170 1018h-342l-156 -917q-44 -265 -273 -417q-75 -49 -210 -106l-4 13q87 53 143 169t78 240l170 1018h-174l39 96h149l17 89q39 216 166 313q128 98 282 98
q57 0 106.5 -15.5t86 -55t37.5 -97.5q0 -16 -4 -39q135 207 428 207q152 0 213 -76q76 21 182 76h10l-276 -1544h-246l225 1243q-52 0 -85.5 32.5t-33.5 84.5zM2136 1069q56 0 99.5 -39t43.5 -95q-2 -53 -23 -89q-37 -61 -156 -127q-63 -35 -110 -59q-23 -12 -104 -54
l180 -370q11 -24 21.5 -41t26 -36t36 -29t44.5 -10q41 0 130 40v-8q-49 -66 -139.5 -122t-164.5 -56q-76 0 -122 48t-108 201l-131 328q288 147 424 248q-43 18 -67 54.5t-24 84.5q0 54 45 92.5t99 38.5z" />
    <glyph glyph-name=".notdef" horiz-adv-x="1341" 
d="M1260 1413v-1413h-1117v1413h1117zM301 596h258v8q-46 14 -59 38.5t-15 78.5v156h72q102 0 163.5 46.5t61.5 143.5q0 172 -223 172h-258v-8q34 -12 45 -35q10 -21 10 -84v-393q0 -62 -10 -83t-45 -32v-8zM991 715v313h103v43h-103v111h-10q-38 -69 -131 -125l-33 -21v-8
h53v-289q0 -76 29.5 -114t87.5 -37q67 0 123 63l-4 11q-24 -11 -51 -13q-63 0 -64 66zM535 907h-50v299h58q111 0 111 -150q0 -75 -30 -112.5t-89 -36.5z" />
    <glyph glyph-name=".null" horiz-adv-x="0" 
 />
    <glyph glyph-name="nonmarkingreturn" horiz-adv-x="682" 
 />
    <glyph glyph-name="space" unicode=" " horiz-adv-x="430" 
 />
    <glyph glyph-name="exclam" unicode="!" horiz-adv-x="522" 
d="M168 -29q-62 0 -105 42.5t-43 104.5q0 60 45.5 104t105.5 44q61 0 103.5 -42.5t42.5 -103.5t-44 -104t-105 -45zM227 397h-18q18 209 18 432q0 211 5 346q4 121 40 195q34 72 134 72q53 0 86 -34q33 -35 32 -91q0 -99 -137 -466q-140 -375 -160 -454z" />
    <glyph glyph-name="quotedbl" unicode="&#x22;" horiz-adv-x="831" 
d="M633 1008q-1 45 -21 170q-20 128 -20 160q0 42 34 73t76 31q45 0 80 -31.5t35 -75.5q1 -39 -73 -176q-75 -138 -97 -225l-20 2q6 26 6 72zM289 934l-21 2q6 26 6 72q0 42 -20 170t-20 160q0 43 33 73.5t77 30.5q45 0 80 -31.5t35 -75.5q1 -39 -73 -176q-75 -138 -97 -225
z" />
    <glyph glyph-name="numbersign" unicode="#" 
d="M430 567h238l98 279h-238zM725 479l-168 -479h-88l168 479h-238l-168 -479h-88l168 479h-213l17 88h227l98 279h-276l16 88h293l168 479h88l-168 -479h238l168 479h88l-168 -479h215l-17 -88h-231l-98 -279h280l-16 -88h-295z" />
    <glyph glyph-name="dollar" unicode="$" 
d="M614 528l-86 -481q100 19 167 91t67 172q0 103 -148 218zM424 1096q0 -112 168 -234l84 467q-89 0 -170.5 -72.5t-81.5 -160.5zM207 991q0 75 28 140.5t75 112t109 80.5t130 52.5t139 22.5l25 145h82l-25 -145q155 -11 317 -82l-53 -299h-8q-90 260 -270 305
q-53 -298 -90 -512q210 -146 253 -209q68 -101 66 -196q0 -94 -40 -173.5t-107 -132t-150 -84.5t-174 -41l-25 -147h-81l24 141q-93 2 -209.5 25.5t-179.5 62.5l61 355h9q106 -360 331 -373l97 543q-7 6 -51 36q-16 11 -34.5 23t-20.5 14q-71 51 -97 79l-9.5 9.5l-15 15
l-16.5 16.5q-29 27 -39 49q-9 19 -30 58q-20 38 -21 109z" />
    <glyph glyph-name="percent" unicode="%" horiz-adv-x="1769" 
d="M1165 51q125 0 235 165q110 166 109 310q0 68 -29 117t-91 49q-117 0 -225 -170t-107 -329q0 -62 25 -102t83 -40zM1128 -25q-117 0 -187.5 67t-70.5 183q0 185 159 365t343 180q104 0 159.5 -60.5t57.5 -166.5q0 -124 -65 -251.5t-163 -215.5q-111 -99 -233 -101z
M846 1185q0 179 -132 179q-43 0 -88 -31t-81 -78t-63 -93t-43 -87q-46 -116 -46 -211q1 -141 107 -141q83 0 166 81t131.5 188.5t48.5 192.5zM209 897q0 177 155 361q154 182 341 184q104 0 175 -71t191 -71q198 0 410 199h80l-1250 -1595h-100l1106 1411l-8 4
q-42 -22 -61 -35q-21 -16 -36 -20q-11 -4 -33 -14q-18 -8 -29 -11q-8 -1 -31 -8q-19 -6 -78 -6q-57 0 -123 32l2 -43q0 -100 -56 -232q-25 -59 -64.5 -116.5t-90 -107.5t-114 -81t-127.5 -31q-116 0 -188 68t-71 183z" />
    <glyph glyph-name="ampersand" unicode="&#x26;" horiz-adv-x="1476" 
d="M983 1221q0 75 -37.5 120t-111.5 45q-56 0 -103 -47.5t-70 -107.5t-26 -115q-2 -30 -2 -90q0 -66 45 -188q120 60 212.5 163.5t92.5 219.5zM602 76q116 0 236 49q-108 112 -206 270.5t-151 306.5q-101 -55 -156 -124q-55 -67 -55 -186q0 -118 90 -216q90 -100 242 -100z
M1438 4l-2 -4q-146 -18 -268 -18q-107 0 -159 18t-128 84q-237 -115 -428 -115q-191 2 -305 99q-115 98 -113 239q0 61 17 113.5t51.5 94.5t71 74t92.5 62t97.5 48.5t102.5 43.5q-49 160 -49 265q0 189 127 308.5t317 119.5q55 0 106.5 -13.5t96 -39.5t71.5 -71.5t27 -103.5
q0 -142 -159 -254q-130 -87 -310 -161q112 -302 340 -533q152 152 152 310t-127 243q0 18 100 25q106 0 161.5 -44.5t55.5 -147.5q0 -79 -49 -167t-111 -152.5t-133 -117.5q181 -172 355 -201v-4z" />
    <glyph glyph-name="quotesingle" unicode="'" horiz-adv-x="452" 
d="M289 934l-21 2q6 26 6 72q0 42 -20 170t-20 160q0 43 33 73.5t77 30.5q45 0 80 -31.5t35 -75.5q1 -39 -73 -176q-75 -138 -97 -225z" />
    <glyph glyph-name="parenleft" unicode="(" horiz-adv-x="700" 
d="M505 976q-130 -323 -130 -652q0 -327 141 -611h-37q-215 249 -291 523q-35 131 -34 256q0 538 645 1056h37q-200 -244 -331 -572z" />
    <glyph glyph-name="parenright" unicode=")" horiz-adv-x="702" 
d="M322 926q0 334 -138 622h37q332 -374 332 -757q0 -537 -651 -1078h-35q211 249 333 571t122 642z" />
    <glyph glyph-name="asterisk" unicode="*" horiz-adv-x="802" 
d="M518 1055l215 -224l-155 -90l-101 291l-147 -256l-142 121l254 166l-309 82l74 164l258 -201l-41 319l182 -20l-102 -303l287 127l45 -174z" />
    <glyph glyph-name="plus" unicode="+" 
d="M1016 651l-27 -147h-352l-64 -352h-147l63 352h-352l27 147h352l64 353h147l-63 -353h352z" />
    <glyph glyph-name="comma" unicode="," horiz-adv-x="471" 
d="M88 -14q0 38 -22 83q-23 48 -23 90q0 49 36 80t86 31q57 0 96.5 -46.5t39.5 -104.5q1 -54 -32.5 -112t-86 -105.5t-108 -84t-105.5 -57.5l-6 7q44 41 84.5 105.5t40.5 113.5z" />
    <glyph glyph-name="hyphen" unicode="-" horiz-adv-x="587" 
d="M549 676l-33 -178h-485l32 178h486z" />
    <glyph glyph-name="period" unicode="." horiz-adv-x="479" 
d="M187 -27q-63 0 -105.5 43t-42.5 106q0 62 44 105t106 43t105.5 -42t43.5 -104q0 -63 -44 -107t-107 -44z" />
    <glyph glyph-name="slash" unicode="/" horiz-adv-x="804" 
d="M942 1434l-934 -1457h-110l931 1457h113z" />
    <glyph glyph-name="zero" unicode="0" 
d="M463 23q223 0 332 645q41 254 41 419q0 300 -140 302q-41 0 -79 -25.5t-67 -68t-48 -81t-34 -80.5q-70 -192 -112.5 -410t-42.5 -409q0 -292 150 -292zM453 -31q-83 -1 -149 30.5t-107.5 82t-69 120t-38.5 140.5t-11 147q0 147 45 313q102 374 322 546q122 94 253 94
q129 0 214 -80q159 -151 161 -473q0 -149 -43 -306q-98 -361 -317 -525q-122 -89 -260 -89z" />
    <glyph glyph-name="one" unicode="1" 
d="M786 0h-602v4l2 4q123 31 170.5 87.5t69.5 185.5l154 862q-109 -41 -275 -84l-4 22q143 45 293 142.5t274 214.5h9l-207 -1157q-12 -68 -12 -121q-2 -110 130 -152z" />
    <glyph glyph-name="two" unicode="2" 
d="M809 1087q0 117 -72.5 186t-190.5 69q-122 0 -231 -105q76 0 129.5 -40.5t53.5 -113.5q0 -67 -43.5 -111t-110.5 -44q-65 0 -108.5 46.5t-45.5 112.5q0 127 142 241t328 114q184 0 296 -91t111 -234q0 -143 -114 -268q-81 -90 -267 -248q-96 -81 -160 -142l-266 -254h653
l-49 -205h-858l8 53l494 504q301 307 301 530z" />
    <glyph glyph-name="three" unicode="3" 
d="M355 -31q-150 0 -247 68q-96 67 -96 166q0 68 43.5 114.5t110.5 46.5q64 0 108.5 -40.5t44.5 -103.5q0 -59 -41.5 -100t-103.5 -63q58 -33 152 -32q161 -2 277.5 105.5t115.5 267.5q0 158 -110 236q-109 79 -247 91l-6 10l414 465h-541l37 213h783v-8l-426 -477
q149 -30 257 -155.5t108 -276.5q0 -117 -57.5 -218t-149 -167t-203 -103.5t-223.5 -38.5z" />
    <glyph glyph-name="four" unicode="4" 
d="M846 379l-66 -379h-231l65 379h-606l2 8l944 1051h74l-160 -928h150l-23 -131h-149zM215 510h424l98 584z" />
    <glyph glyph-name="five" unicode="5" 
d="M432 1200l-137 -442q160 127 319 127q160 0 264.5 -110t106.5 -271q2 -225 -195 -380t-436 -155q-152 0 -244 65t-92 150q0 86 48 130q49 44 109 44q61 0 107 -40.5t46 -100.5q0 -106 -140 -168q72 -27 148 -26q86 0 161 40t124 104.5t77 145.5t29 164q0 127 -68 205
t-193 78q-119 0 -247 -98l-14 6l221 745h631l-37 -213h-588z" />
    <glyph glyph-name="six" unicode="6" 
d="M502 23q94 -1 163 81q126 148 126 377q2 143 -57 233t-160 89q-102 0 -203 -72q-59 -186 -59 -355q0 -36 2.5 -69.5t9 -76.5t20 -78t33.5 -65.5t52 -47.5t73 -16zM675 887q166 -2 266.5 -100t100.5 -263q0 -227 -164 -391t-370 -164q-109 1 -195 41.5t-140 111
t-82.5 161.5t-29.5 197q1 121 44 240.5t116.5 220.5t166.5 185t198 146q226 132 477 170l-6 -31q-220 -49 -401.5 -229t-268.5 -406q121 111 288 111z" />
    <glyph glyph-name="seven" unicode="7" 
d="M227 1413h936v-8q-230 -306 -433 -691q-202 -384 -324 -714h-246q105 230 286 491q168 243 338 469l177 236h-771z" />
    <glyph glyph-name="eight" unicode="8" 
d="M509 31q115 0 203.5 79.5t88.5 192.5q0 105 -53 167q-55 61 -177 140l-86 56q-242 -163 -241 -361q0 -118 73.5 -195.5t191.5 -78.5zM1030 393q0 -187 -161 -306q-160 -118 -355 -118q-61 0 -125.5 11t-131 36.5t-118 62t-84 93.5t-32.5 125q0 47 10.5 84t36.5 70t48 54
t65 56q42 35 126 69q83 34 144 60q-125 90 -191 176t-65 197q0 92 41.5 166t109.5 119.5t150.5 69.5t169.5 24q191 0 321 -92q129 -91 129 -220q0 -212 -391 -339q141 -87 222 -177t81 -221zM893 1135q0 107 -64.5 176t-170.5 69q-98 0 -166 -75.5t-68 -174.5q0 -98 62 -166
t204 -153q203 156 203 324z" />
    <glyph glyph-name="nine" unicode="9" 
d="M637 1386q-47 0 -90 -25t-74.5 -66.5t-53.5 -85.5t-35 -89q-30 -102 -30 -214q0 -110 65 -195.5t172 -85.5q103 0 187 41q54 163 56 362q0 358 -197 358zM473 543q-149 0 -259 101t-110 265q0 211 164 372t374 161q89 0 163 -28t125 -76t86 -115t51.5 -143.5t16.5 -161.5
q0 -237 -142 -447.5t-360 -336.5q-221 -128 -476 -165l9 31q221 43 393 217.5t256 403.5q-142 -78 -291 -78z" />
    <glyph glyph-name="colon" unicode=":" horiz-adv-x="479" 
d="M300 772q-62 0 -105 42t-43 104q0 63 43.5 107t106.5 44t106 -43q44 -44 43 -105q0 -63 -44 -106t-107 -43zM187 -27q-63 0 -105.5 43t-42.5 106q0 62 44 105t106 43t105.5 -42t43.5 -104q0 -63 -44 -107t-107 -44z" />
    <glyph glyph-name="semicolon" unicode=";" horiz-adv-x="471" 
d="M300 772q-62 0 -105 42t-43 104q0 63 43.5 107t106.5 44t106 -43q44 -44 43 -105q0 -63 -44 -106t-107 -43zM88 -14q0 38 -22 83q-23 46 -23 89q0 49 37.5 80.5t86.5 31.5q57 0 95.5 -45.5t38.5 -103.5q1 -54 -33 -112.5t-86 -106t-108 -84.5t-107 -58l-6 7
q44 40 85.5 105.5t41.5 113.5z" />
    <glyph glyph-name="less" unicode="&#x3c;" horiz-adv-x="1257" 
d="M926 162l-2 -17l-777 420l7 25l923 420l-2 -17l-649 -424z" />
    <glyph glyph-name="equal" unicode="=" 
d="M1042 799l-26 -148h-852l26 148h852zM989 504l-26 -148h-852l26 148h852z" />
    <glyph glyph-name="greater" unicode="&#x3e;" horiz-adv-x="1257" 
d="M1004 590l-7 -25l-923 -420l2 17l649 424l-500 407l2 17z" />
    <glyph glyph-name="question" unicode="?" horiz-adv-x="952" 
d="M520 122q0 -63 -43.5 -106t-106.5 -43t-106 43t-43 106t43 105.5t106 42.5q62 0 106 -43t44 -105zM717 1142q1 105 -61 164q-61 58 -162 58t-199 -94q65 -6 108 -49t43 -107q0 -65 -40.5 -105t-105.5 -40q-64 0 -105 43.5t-41 107.5q0 121 127 221q128 101 299 101
q78 0 145 -18.5t120.5 -56t84 -100t30.5 -143.5q0 -152 -121 -276q-87 -89 -236 -213q-146 -121 -181 -252h-21q16 100 64.5 205t114.5 189q137 179 137 365z" />
    <glyph glyph-name="at" unicode="@" horiz-adv-x="1570" 
d="M1016 874q-90 0 -174.5 -60t-141 -149.5t-90.5 -191.5t-34 -189q0 -114 53 -114q34 0 87.5 50.5t94.5 101.5q16 20 100 133l39 53l115 360q-18 6 -49 6zM1104 -72l6 -12q-212 -143 -454 -143q-243 0 -428 169q-185 170 -185 431q0 227 126.5 426.5t331.5 314.5
q206 116 445 117q239 0 415 -155q175 -154 175 -392q0 -144 -63.5 -277t-176.5 -215q-209 -151 -399 -151q-82 0 -82 45q0 18 21 80l67 211q-226 -336 -362 -336q-47 -1 -80.5 22t-50.5 62.5t-24 79.5t-7 84q0 259 193 461q194 203 446 202q62 0 145 -24l107 18l8 -2
l-162 -481l-76 -270q-12 -38 -12 -53t29 -15q39 0 99.5 45t104.5 90q71 74 108.5 188t37.5 226q0 204 -127 334.5t-330 130.5q-200 0 -365.5 -115.5t-262.5 -301.5q-96 -184 -96 -401t137.5 -349t355.5 -132q216 0 385 88z" />
    <glyph glyph-name="A" unicode="A" horiz-adv-x="1447" 
d="M434 582h451l-111 684zM1331 8v-8h-538v8q83 18 111 66t28 140q0 100 -35 290h-502q-145 -297 -145 -387q0 -49 28 -71t84 -38v-8h-458v8q94 38 165 132q71 96 236 413l447 860h233l174 -1024q33 -191 70 -269q37 -79 102 -112z" />
    <glyph glyph-name="B" unicode="B" horiz-adv-x="1280" 
d="M520 0h-565v8q56 15 93.5 37.5t61 58.5t35.5 75t23 100l147 856q13 79 13 130q1 103 -135 140v8h491q49 0 97 -4t101.5 -14t100 -25.5t90 -41.5t74 -59.5t49 -81t18.5 -104.5q0 -263 -358 -327l-2 -8q129 -18 230.5 -115.5t101.5 -222.5q0 -92 -35.5 -162.5t-100 -115
t-137 -70.5t-164.5 -43q-107 -19 -229 -19zM504 762h88q103 0 186 36.5t134.5 112.5t52.5 181q0 126 -78 186.5t-207 60.5h-76zM385 74h139q75 0 143.5 17.5t126 53t92 96.5t34.5 140q0 147 -96 228t-226 81h-106z" />
    <glyph glyph-name="C" unicode="C" horiz-adv-x="1431" 
d="M803 -31q-141 1 -269.5 47t-227.5 128t-157.5 205t-58.5 267q0 242 147 443t377 300q192 83 392 83q94 0 223 -23.5t203 -58.5l-50 -299h-8q-98 311 -395 311q-181 0 -324 -116t-216 -294t-72 -380q0 -244 126 -395q126 -152 320 -150q273 0 485 336h11l-82 -318
q-77 -36 -193 -61q-123 -26 -231 -25z" />
    <glyph glyph-name="D" unicode="D" horiz-adv-x="1591" 
d="M582 0h-619v8q56 17 92 40t58 59.5t33.5 74t21.5 99.5l149 854q11 71 11 121q0 59 -33 94t-94 55v8h614q306 0 518 -167q211 -166 211 -447q0 -235 -134.5 -420t-357.5 -283q-218 -96 -470 -96zM385 74h209q291 0 481 219q189 218 191 520q0 143 -51 260t-157 191
t-251 75h-203z" />
    <glyph glyph-name="E" unicode="E" horiz-adv-x="1187" 
d="M971 0h-1002v8q45 14 77.5 33t53 40t35 54t22.5 64.5t17 81.5l150 854q8 46 8 109q0 67 -29.5 103t-95.5 58v8h948l-53 -315h-10q-54 154 -104 198q-49 43 -165 43h-213l-100 -575h217q82 0 132 31t110 104h8l-57 -344h-9q-36 76 -75.5 104.5t-120.5 28.5h-217l-107 -614
h232q125 0 195 45q69 44 243 227h8z" />
    <glyph glyph-name="F" unicode="F" horiz-adv-x="1142" 
d="M567 8v-8h-604v8q56 17 92 40t58 59.5t33.5 74t21.5 99.5l147 854q13 62 13 119q0 60 -32.5 94t-94.5 57v8h973l-54 -315h-8q-62 160 -107 202q-43 39 -171 39h-230l-104 -596h256q85 0 135.5 31.5t109.5 106.5h9l-60 -351h-10q-37 79 -76.5 108.5t-120.5 29.5h-256
l-67 -387q-10 -59 -10 -115q0 -113 157 -158z" />
    <glyph glyph-name="G" unicode="G" horiz-adv-x="1548" 
d="M1061 104l57 326q10 59 10 112q0 60 -32.5 93t-94.5 53v8h523v-8q-82 -32 -114 -78t-54 -180l-70 -397q-67 -11 -196 -34q-169 -30 -310 -30q-279 -1 -484 181q-204 182 -204 477q0 226 132.5 413t343.5 294q211 106 448 108q104 0 240.5 -21.5t220.5 -56.5l-54 -299h-8
q-121 307 -403 307q-186 0 -337.5 -114.5t-230.5 -293.5q-78 -177 -77 -368q0 -245 130 -390q131 -146 332 -147q123 0 232 45z" />
    <glyph glyph-name="H" unicode="H" horiz-adv-x="1646" 
d="M1466 8v-8h-575v8q103 32 143 88q42 59 64 185l67 401h-667l-76 -432q-6 -34 -6 -90q2 -113 127 -152v-8h-574v8q45 14 77.5 33t53 40t35 54t22.5 64.5t17 81.5l148 854q12 77 12 127q0 101 -127 143v8h575v-8q-106 -33 -147.5 -91t-61.5 -179l-63 -369h672l63 369
q12 76 12 127q0 58 -33 90.5t-94 52.5v8h576v-8q-108 -32 -148.5 -89.5t-60.5 -180.5l-147 -854q-12 -77 -12 -125q-1 -106 128 -148z" />
    <glyph glyph-name="I" unicode="I" horiz-adv-x="724" 
d="M543 8v-8h-574v8q56 17 92 40t58 58.5t33 72.5t22 100l148 856q12 65 12 119q0 60 -32.5 94t-94.5 57v8h575v-8q-105 -32 -145.5 -90.5t-61.5 -179.5l-149 -856q-12 -67 -12 -121q0 -61 32.5 -95.5t96.5 -54.5z" />
    <glyph glyph-name="J" unicode="J" horiz-adv-x="720" 
d="M123 -18l199 1153q10 50 10 113q0 64 -30.5 99.5t-94.5 57.5v8h575v-8q-106 -32 -146 -90t-61 -180l-182 -1053q-41 -234 -218 -356q-141 -96 -290 -154l-2 6q190 112 240 404z" />
    <glyph glyph-name="K" unicode="K" horiz-adv-x="1478" 
d="M1407 8v-8h-586v8q59 14 89 36t30 74t-78 220l-178 377l-221 -203l-43 -233q-12 -62 -12 -118q0 -62 33 -96.5t98 -56.5v-8h-576v8q55 17 91 40t58 59t33.5 73t22.5 99l149 856q11 69 11 120q0 61 -32 95t-95 55v8h575v-8q-105 -33 -146.5 -92t-62.5 -178l-88 -510
l463 440q160 151 160 238q0 66 -101 102v8h562v-8q-116 -39 -209 -100q-83 -55 -277 -232l-209 -190l306 -619q51 -108 97.5 -164.5t135.5 -91.5z" />
    <glyph glyph-name="L" unicode="L" horiz-adv-x="1128" 
d="M940 0h-977v8q55 17 91 40t58 59t33.5 73t22.5 99l147 856q13 62 13 119q0 60 -32.5 94t-94.5 57v8h575v-8q-106 -32 -146 -90t-61 -180l-184 -1061h184q92 0 141.5 14.5t115.5 67.5q70 56 204 190h8z" />
    <glyph glyph-name="M" unicode="M" horiz-adv-x="1929" 
d="M1782 8v-8h-553v8q115 44 147 108q32 66 56 273l90 813l-703 -1202h-100l-254 1212h-6l-189 -800q-41 -181 -41 -242q0 -67 31.5 -102.5t99.5 -59.5v-8h-442v8q106 34 151 113q44 80 95 291l153 628q35 152 35 208q0 60 -25.5 95.5t-82.5 61.5v8h432l225 -1087l635 1087
h414v-8q-117 -46 -150 -116q-33 -69 -51 -247l-68 -632q-16 -147 -16 -224q0 -72 25 -109.5t92 -68.5z" />
    <glyph glyph-name="N" unicode="N" horiz-adv-x="1601" 
d="M426 1194l-131 -752q-29 -171 -29 -248q0 -75 25.5 -117t93.5 -69v-8h-428v8q73 26 110 64q74 75 126 370l126 746q1 10 3 33q0 137 -158 184v8h416l663 -1069l111 629q28 158 28 243q0 76 -25 118t-93 71v8h428v-8q-71 -27 -111 -65q-74 -73 -125 -367l-172 -987h-110z
" />
    <glyph glyph-name="O" unicode="O" horiz-adv-x="1648" 
d="M350 551q0 -74 14 -145.5t44.5 -138t75.5 -117t111.5 -80.5t146.5 -31q183 0 319 124q141 129 207 311t66 391q0 74 -14 144.5t-44.5 137t-75 116t-110.5 79.5t-146 30q-180 0 -317 -120q-142 -125 -209.5 -309.5t-67.5 -391.5zM1604 791q0 -132 -48 -258.5t-132.5 -227
t-193.5 -177t-238 -118t-259 -41.5q-261 0 -458 174t-195 465q0 204 105 381.5t283 295.5q236 157 487 157q250 0 449 -181q200 -182 200 -470z" />
    <glyph glyph-name="P" unicode="P" horiz-adv-x="1247" 
d="M492 692h141q168 0 268 109t100 242q0 137 -67 218.5t-201 81.5h-129zM567 8v-8h-604v8q56 17 92 40t58 59.5t33.5 74t21.5 99.5l149 854q11 71 11 121q0 59 -33 94t-94 55v8h559q76 0 144 -10.5t133 -37t112 -67t76 -105t30 -146.5q0 -213 -168 -319t-421 -105h-185
l-61 -342q-8 -46 -8 -109q0 -70 40.5 -107t114.5 -57z" />
    <glyph glyph-name="Q" unicode="Q" horiz-adv-x="1673" 
d="M350 551q0 -74 14 -145.5t44.5 -138t75.5 -117t111.5 -80.5t146.5 -31q183 0 319 124q141 129 207 311t66 391q0 74 -14 144.5t-44.5 137t-75 116t-110.5 79.5t-146 30q-180 0 -317 -120q-142 -125 -209.5 -309.5t-67.5 -391.5zM468 1285q238 157 487 157q250 0 449 -181
q200 -182 200 -463q0 -282 -192 -504t-464 -296q309 -145 563.5 -219t534.5 -74q149 0 299 33l-2 -8q-62 -73 -207 -152q-146 -80 -298 -80t-380 83q-225 82 -477 257l-193 133l-53 -2q-264 0 -460 175t-195 464q0 204 105 381.5t283 295.5z" />
    <glyph glyph-name="R" unicode="R" horiz-adv-x="1333" 
d="M494 698h122q165 0 274.5 100t108.5 263q0 126 -73.5 204t-198.5 78h-123zM1278 8v-8h-145q-129 0 -181 12q-53 12 -81 46q-31 36 -74 135l-199 442h-115l-63 -354q-12 -63 -12 -123q0 -111 131 -150v-8h-576v8q56 17 92 40t58 59.5t33.5 74t21.5 99.5l149 854
q27 149 -16 207q-27 38 -100 63v8h536q75 0 144.5 -9.5t140 -35t122 -64.5t84.5 -103t34 -146q0 -291 -435 -377l242 -455q68 -124 101 -160q34 -37 108 -55z" />
    <glyph glyph-name="S" unicode="S" horiz-adv-x="1048" 
d="M436 39q112 0 188 70t76 161q0 156 -184 304q-65 52 -152 129q-186 162 -186 339q0 176 153 288q152 112 337 112q184 0 360 -84l-51 -299h-8q-19 58 -47.5 110.5t-68.5 99.5t-94.5 75t-116.5 28q-98 0 -168.5 -62t-70.5 -159q0 -122 147 -242q143 -117 225 -194
q157 -148 157 -325q0 -178 -153 -299q-154 -122 -363 -122q-97 -1 -220 25q-118 25 -178 63l62 355h8q16 -54 35.5 -102t50.5 -99t67.5 -87t87 -60t107.5 -25z" />
    <glyph glyph-name="T" unicode="T" horiz-adv-x="1331" 
d="M846 8v-8h-576v8q107 33 147.5 92t61.5 181l183 1058h-93q-122 0 -178 -37q-57 -37 -239 -229h-9l95 340h1124l-23 -340h-8q-12 21 -45 76q-30 50 -35 61q-6 14 -25.5 44t-27.5 36q-16 13 -26 22q-17 16 -29 16q-8 1 -34 6q-27 5 -44 5h-152l-182 -1058q-12 -63 -12 -120
q0 -61 32 -96t95 -57z" />
    <glyph glyph-name="U" unicode="U" horiz-adv-x="1552" 
d="M1184 391l102 582q25 144 25 235q0 80 -24.5 123t-94.5 74v8h434v-8q-75 -28 -113 -64q-75 -72 -127 -368l-102 -588q-72 -416 -582 -416q-80 -1 -151 9t-140 36.5t-118.5 68t-80 108.5t-30.5 153q0 47 8 90l127 701q29 146 -16 206q-27 37 -100 64v8h575v-8
q-106 -32 -146 -90t-61 -180l-127 -729q-6 -33 -6 -95q0 -72 24 -121.5t69.5 -75t98.5 -36t124 -10.5q168 0 286 81.5t146 241.5z" />
    <glyph glyph-name="V" unicode="V" horiz-adv-x="1447" 
d="M135 1405v8h541v-8q-75 -21 -107.5 -64t-32.5 -121q0 -74 42 -335l116 -738l361 721q93 183 130 274q36 88 36 142q0 82 -109 121v8h457v-8q-96 -40 -171 -136q-72 -93 -235 -411l-442 -858h-238l-176 1042q-32 181 -68 253q-38 75 -104 110z" />
    <glyph glyph-name="W" unicode="W" horiz-adv-x="2129" 
d="M147 1405v8h539v-8q-80 -26 -106.5 -78.5t-28.5 -146.5q0 -88 14 -289l56 -737l327 714q127 275 127 396q0 97 -110 141v8h501v-8q-44 -15 -71.5 -36.5t-41.5 -53t-18.5 -63.5t-5.5 -81q0 -33 4 -88l82 -901l332 686q137 289 137 392q0 105 -106 145v8h475v-8
q-93 -40 -170 -139q-79 -102 -230 -408l-428 -858h-215l-98 995l-471 -995h-235l-89 866q-32 294 -65 396q-34 105 -105 143z" />
    <glyph glyph-name="X" unicode="X" horiz-adv-x="1411" 
d="M1298 8v-8h-583v8q137 53 137 139q0 49 -23 97l-180 358l-252 -295q-115 -133 -114 -196q-1 -30 23 -53q22 -21 79 -50v-8h-473v8q98 44 175 113q70 63 261 274l260 287l-237 481q-83 165 -215 242v8h581v-10q-137 -45 -137 -139q0 -51 23 -95l165 -331l230 278
q101 122 106 193q0 53 -98 94v10h467v-8q-98 -44 -170 -105q-71 -60 -225 -237l-271 -303l258 -510q46 -92 91 -146.5t122 -95.5z" />
    <glyph glyph-name="Y" unicode="Y" horiz-adv-x="1306" 
d="M838 8v-8h-576v8q106 33 146 92t61 181l59 340l-139 393q-72 204 -124 286q-49 78 -120 105v8h547v-8q-64 -18 -92.5 -53t-28.5 -100q0 -66 50 -214l112 -342l211 334q133 211 133 281q0 61 -100 94v8h446v-8q-81 -18 -163 -103q-79 -82 -218 -288l-262 -391l-59 -342
q-12 -79 -11 -127q2 -104 128 -146z" />
    <glyph glyph-name="Z" unicode="Z" horiz-adv-x="1157" 
d="M958 0h-1015v4l946 1335h-250q-142 -2 -210 -35q-74 -36 -263 -206h-8l94 315h971l-2 -4v-4l-938 -1331h278q170 0 259 65q87 63 231 209h8z" />
    <glyph glyph-name="bracketleft" unicode="[" horiz-adv-x="776" 
d="M549 -215l-12 -72h-457l328 1835h456l-14 -71h-234l-301 -1692h234z" />
    <glyph glyph-name="backslash" unicode="\" horiz-adv-x="829" 
d="M702 -29h-108q-46 159 -209 702q-132 439 -229 769h108q47 -159 230 -769q137 -456 208 -702z" />
    <glyph glyph-name="bracketright" unicode="]" horiz-adv-x="776" 
d="M700 1548l-327 -1835h-457l12 72h234l301 1692h-234l15 71h456z" />
    <glyph glyph-name="asciicircum" unicode="^" horiz-adv-x="860" 
d="M641 1413l125 -485h-35l-182 342l-303 -342h-47l286 485h156z" />
    <glyph glyph-name="underscore" unicode="_" horiz-adv-x="942" 
d="M727 -168l-29 -147h-788l27 147h790z" />
    <glyph glyph-name="grave" unicode="`" horiz-adv-x="493" 
d="M532 1176l-10 -2q-292 71 -401 239l215 12q42 -131 196 -249z" />
    <glyph glyph-name="a" unicode="a" horiz-adv-x="1142" 
d="M465 135q102 0 231 160l113 655q-58 62 -121 64q-139 0 -250 -198q-111 -199 -110 -431q0 -247 137 -250zM813 -27q-131 0 -131 156q0 41 8 94q-179 -248 -336 -248q-110 1 -192 93q-82 91 -82 262q0 174 94.5 347.5t239.5 280.5q149 110 295 111q47 0 121 -15
q71 -16 97 -16q23 0 122 31h22l-141 -790q-24 -145 36 -145q58 0 160 50v-8q-59 -74 -148 -138t-165 -65z" />
    <glyph glyph-name="b" unicode="b" horiz-adv-x="1193" 
d="M446 39q168 0 296 171q128 172 128 388q0 158 -66 247q-68 89 -163 89q-68 0 -158 -45l-147 -819q50 -31 110 -31zM84 41l203 1124q14 73 14 127q0 34 -12.5 59.5t-39 43t-47.5 27t-59 22.5l2 8q101 6 226 31.5t221 60.5h8l-113 -622q151 147 296 147q144 0 245 -113
q100 -112 100 -290q0 -172 -105.5 -333.5t-271.5 -259.5t-337 -98q-70 0 -168 19.5t-162 46.5z" />
    <glyph glyph-name="c" unicode="c" horiz-adv-x="911" 
d="M88 383q0 275 190 480q191 206 412 206q80 0 143 -41.5t64 -117.5q0 -61 -36.5 -104.5t-96.5 -43.5q-61 0 -97 36.5t-36 97.5q0 66 71 116v8q-170 0 -269 -164t-99 -362t61 -277q62 -80 164 -80q133 0 283 164l12 -14q-175 -310 -422 -312q-84 0 -151 34t-108.5 91.5
t-63 129.5t-21.5 153z" />
    <glyph glyph-name="d" unicode="d" horiz-adv-x="1183" 
d="M696 1014q-142 0 -257 -198q-116 -200 -115 -423q0 -42 6 -81.5t21 -81.5t46.5 -68t75.5 -27q125 0 250 174l115 662q-58 43 -142 43zM707 143q0 34 10 97q-193 -263 -357 -265q-110 2 -198 95q-88 94 -88 262q0 176 95.5 346.5t242.5 279.5q152 113 305 111
q56 0 135 -14l20 110q12 71 12 127q0 36 -13 62t-40 43t-50 26.5t-62 20.5l2 8q229 12 453 92h8l-224 -1265q-10 -54 -10 -86q0 -63 51 -64q52 0 154 51v-8q-62 -76 -150 -137t-167 -62q-129 0 -129 170z" />
    <glyph glyph-name="e" unicode="e" horiz-adv-x="964" 
d="M614 1016q-99 0 -191 -152q-91 -152 -99 -354q92 6 176 45.5t132 108.5q82 116 83 225q0 53 -25.5 90t-75.5 37zM78 395q0 263 192 468q194 206 410 206q108 0 179 -54t71 -159q0 -108 -121 -223q-78 -72 -212.5 -111t-274.5 -51q2 -61 16 -116.5t41.5 -105.5t76.5 -80
t113 -30q165 0 301 162l15 -14q-61 -115 -174 -213t-273 -98q-114 0 -197.5 60t-123 153.5t-39.5 205.5z" />
    <glyph glyph-name="f" unicode="f" horiz-adv-x="661" 
d="M739 1544q109 0 169 -48t60 -114q0 -61 -33.5 -100t-93.5 -39q-54 0 -91 32.5t-37 84.5q0 92 114 135q-27 8 -55 8q-39 -1 -71.5 -17t-55 -46t-39 -61.5t-28.5 -75t-18.5 -73.5t-12.5 -69l-19 -117h217l-18 -96h-215l-156 -917q-44 -265 -273 -417q-75 -49 -210 -106
l-4 13q87 53 143 169t78 240l170 1018h-174l39 96h149l17 89q39 216 166 313q128 98 282 98z" />
    <glyph glyph-name="g" unicode="g" horiz-adv-x="968" 
d="M334 581q0 -34 5 -64.5t17.5 -61t37.5 -49t60 -19.5q60 0 110 78q88 141 87 348q0 33 -5 65t-17.5 64.5t-38 52t-60.5 19.5q-60 0 -109 -79q-87 -149 -87 -354zM502 -98l-275 90q-143 -68 -143 -186t98 -180t220 -62q46 0 95 8.5t99 27t82 55.5t33 87q0 56 -48 90
q-50 36 -161 70zM193 10q-84 54 -84 118q0 72 60.5 132.5t137.5 95.5q-96 33 -151 105t-56 172q0 112 63.5 213.5t166.5 162t215 60.5q129 0 217 -70q16 -2 35 -2q130 0 200 103q68 -44 68 -94q0 -47 -23.5 -78t-69.5 -31q-42 0 -149 39q53 -72 54 -172q1 -172 -139 -300
t-308 -128q-34 0 -68 6q-70 -40 -69 -90q0 -58 229 -118q46 -11 80.5 -21.5t80.5 -28t78.5 -39t62.5 -50t45.5 -67t15.5 -84.5q0 -103 -83 -183q-160 -153 -444 -153q-187 0 -336 76q-150 77 -149 195q2 165 320 231z" />
    <glyph glyph-name="h" unicode="h" horiz-adv-x="1189" 
d="M835 1069q69 0 119.5 -41t74 -100t24.5 -127q0 -33 -11 -86l-84 -436q-10 -43 -10 -99q0 -53 50 -55q50 0 153 51v-8q-56 -72 -148 -133t-169 -62q-130 0 -132 174q0 57 15 132l86 444q8 43 8 92q0 109 -94 109q-115 0 -250 -160l-135 -764h-246l213 1198q8 45 8 96
q0 34 -12.5 59t-38 42.5t-48 27.5t-58.5 21l2 8q230 13 446 92h8l-123 -688q70 90 162 151t190 62z" />
    <glyph glyph-name="i" unicode="i" horiz-adv-x="641" 
d="M439 1460q56 0 96 -40t40 -96q2 -56 -39 -95q-40 -39 -96 -39q-57 0 -96 38.5t-39 95.5q0 56 39 96t95 40zM141 147q0 57 15 132l90 485q27 145 -41 145q-42 0 -158 -51v8q68 78 154.5 140.5t163.5 62.5q174 0 118 -305l-90 -485q-10 -59 -10 -89q0 -33 13 -49.5
t38 -15.5q48 0 152 51v-8q-57 -72 -146.5 -133t-165.5 -62q-133 0 -133 174z" />
    <glyph glyph-name="j" unicode="j" horiz-adv-x="624" 
d="M442 1190q-57 0 -96 38.5t-39 95.5t39 96.5t96 39.5q56 0 96 -40t40 -96t-40 -95t-96 -39zM266 844q0 65 -51 65q-47 0 -156 -51v8q60 71 151 136.5t163 66.5q135 0 135 -174q0 -53 -12 -131l-115 -670q-11 -64 -37 -151q-94 -301 -457 -435l-4 13q86 52 143 169t80 240
l152 834q8 43 8 80z" />
    <glyph glyph-name="k" unicode="k" horiz-adv-x="1120" 
d="M938 1069q56 0 99.5 -39t43.5 -95q-2 -53 -23 -89q-37 -61 -156 -127q-63 -35 -110 -59q-24 -12 -104 -54l180 -370q11 -24 21.5 -41t26 -36t36 -29t44.5 -10q41 0 130 40v-8q-49 -66 -139.5 -122t-164.5 -56q-76 0 -122 48t-108 201l-131 328q288 147 424 248
q-43 18 -67 54.5t-24 84.5q0 54 45 92.5t99 38.5zM78 0l207 1165q14 89 14 134q0 31 -13.5 56t-39.5 41.5t-49 26.5t-56 21l2 8q229 13 447 92h8l-274 -1544h-246z" />
    <glyph glyph-name="l" unicode="l" horiz-adv-x="606" 
d="M111 152q0 54 12 127l158 886q14 89 14 134q0 31 -13 55.5t-39.5 41.5t-47.5 26.5t-56 21.5v8q227 13 445 92h8l-225 -1265q-9 -48 -11 -84q0 -70 54 -70q48 0 151 51l2 -8q-57 -70 -147.5 -132t-163.5 -63q-141 0 -141 179z" />
    <glyph glyph-name="m" unicode="m" horiz-adv-x="1771" 
d="M1311 279l84 444q8 42 8 87q0 44 -22.5 82t-63.5 38q-117 0 -260 -213l-123 -717h-240l127 723q6 40 6 88q0 45 -22 82t-64 37q-119 0 -260 -205l-125 -725h-243l135 764q10 53 10 82q0 63 -49 63q-48 0 -158 -51v8q65 78 151.5 140.5t162.5 62.5q135 0 135 -170
q0 -42 -8 -92q39 66 90.5 121.5t123 97.5t142.5 43q98 0 156 -73t57 -191v-5q41 69 91.5 126t123.5 100t147 43q105 0 162 -77.5t57 -186.5q0 -41 -10 -90l-80 -436q-10 -54 -10 -89q0 -33 13 -49.5t38 -15.5q49 0 152 51v-8q-60 -72 -149.5 -133t-165.5 -62
q-132 0 -134 170q0 61 15 136z" />
    <glyph glyph-name="n" unicode="n" horiz-adv-x="1196" 
d="M735 924q-113 0 -252 -162l-133 -762h-241l135 764q8 46 8 78q0 34 -12 51t-37 16q-41 0 -156 -51v8q63 73 152 138.5t159 65.5q75 0 108.5 -51t33.5 -130q0 -23 -6 -58q178 238 360 238q126 0 181 -93q56 -94 26 -261l-84 -436q-8 -53 -8 -91q0 -63 49 -63t151 51l2 -8
q-58 -74 -149 -134t-171 -60q-81 0 -112 79q-31 78 -2 226l88 442q44 203 -90 203z" />
    <glyph glyph-name="o" unicode="o" horiz-adv-x="1144" 
d="M500 29q47 0 88 26.5t70 70.5t48.5 87t32.5 89q63 217 65 383q2 329 -165 329q-129 0 -215 -210q-86 -211 -86 -474q0 -37 3 -72t13.5 -78.5t27.5 -75t47.5 -53.5t70.5 -22zM489 -25q-120 0 -213.5 62t-141.5 162t-48 219q0 256 174 454q174 199 395 197q168 0 286 -124
t118 -318q-2 -257 -173 -454q-172 -198 -397 -198z" />
    <glyph glyph-name="p" unicode="p" horiz-adv-x="1224" 
d="M485 39q168 0 292 175t124 390q0 149 -65 238q-66 88 -157 88t-173 -45q0 -49 -8 -92l-129 -723q56 -31 116 -31zM428 -463v-8h-514v8q74 27 106 83q33 58 58 187l170 957q8 61 8 82q0 63 -49 63q-48 0 -158 -51v8q60 72 150.5 138t162.5 66q146 -2 146 -152
q157 152 304 152q148 0 248 -115q99 -111 101 -293q0 -179 -109 -341t-274 -255q-160 -89 -309 -91q-39 0 -117 9l-30 -177q-26 -155 14 -211q21 -33 92 -59z" />
    <glyph glyph-name="q" unicode="q" horiz-adv-x="1163" 
d="M719 301l121 666q-62 47 -150 47q-55 0 -107 -33t-91.5 -86t-68 -106t-47.5 -105q-52 -144 -52 -282q0 -44 5.5 -84t20 -84t47 -71t78.5 -28q115 0 244 166zM958 -463v-8h-518v8q52 19 86 42.5t55 59.5t31.5 72t20.5 96l74 420q-179 -252 -342 -252q-115 -1 -203 93
t-88 263q0 176 95 348t243 279q151 109 305 111q47 0 229 -31q53 0 131 31h23l-221 -1262q-15 -83 -15 -131q0 -53 22.5 -86t71.5 -53z" />
    <glyph glyph-name="r" unicode="r" horiz-adv-x="847" 
d="M250 846q0 63 -49 63t-158 -51v8q60 74 150.5 138.5t164.5 64.5q123 0 123 -166q0 -36 -14 -129q118 295 274 295q61 0 105 -41q45 -41 43 -97q0 -54 -36 -93t-90 -39q-52 0 -93 34t-52 85q-69 -60 -108 -152.5t-68 -216.5l-94 -549h-244l136 762q10 53 10 84z" />
    <glyph glyph-name="s" unicode="s" horiz-adv-x="813" 
d="M162 82q58 -51 149 -51q80 0 142.5 44.5t62.5 122.5q0 115 -134 216q-54 39 -113 86q-134 108 -134 254q0 147 113 231t238 84t210 -58q86 -59 86 -145q0 -55 -35.5 -93t-90.5 -38q-52 0 -89 35.5t-37 86.5q0 50 34.5 87.5t84.5 38.5q-53 29 -131 29q-73 0 -128.5 -40
t-55.5 -110q0 -109 137 -210q62 -46 113 -87q137 -111 137 -262t-120 -240q-119 -88 -258 -88q-138 0 -232 70q-93 70 -95 166q0 58 35.5 97.5t92.5 39.5q56 0 98 -39t41 -94q0 -53 -34.5 -91t-86.5 -42z" />
    <glyph glyph-name="t" unicode="t" horiz-adv-x="663" 
d="M258 -27q-135 0 -135 174q0 56 14 132l119 661h-162l-4 18l123 60q56 27 88 78q29 47 80 194h172l-49 -246h219l-14 -110h-222l-118 -655q-5 -28 -7 -58q0 -82 72 -82q64 2 189 62v-8q-61 -77 -171 -148.5t-194 -71.5z" />
    <glyph glyph-name="u" unicode="u" horiz-adv-x="1189" 
d="M846 -27q-131 0 -131 162q0 47 8 109q-65 -106 -161 -188.5t-197 -82.5q-129 0 -184 90q-54 90 -21 265l80 436q16 74 8 114q-8 38 -53 38q-44 0 -150 -50v8q63 73 152.5 134t164.5 61q173 0 117 -305l-82 -445q-20 -104 0 -156.5t78 -51.5q112 0 258 215l129 718h240
l-137 -765q-15 -81 -7 -114q8 -32 56 -32t147 51l2 -8q-61 -75 -151.5 -139.5t-165.5 -63.5z" />
    <glyph glyph-name="v" unicode="v" horiz-adv-x="1075" 
d="M250 846q0 63 -49 63t-158 -51v8q69 81 155.5 142t168.5 61q123 0 122 -166q0 -63 -14 -139l-88 -494q-6 -31 -6 -59q0 -115 100 -115q64 0 125.5 37.5t107.5 97.5t80 121.5t56 123.5q54 151 53 276q0 65 -16 98q-47 -47 -109 -47q-59 0 -99 34.5t-40 92.5q0 57 40 98
t97 41q50 0 87.5 -21t59 -52.5t35.5 -76.5t18.5 -85t4.5 -86q0 -179 -84.5 -360t-220.5 -296q-142 -119 -295 -119q-99 2 -167 53q-69 52 -69 171q1 43 9 82l86 485q10 49 10 82z" />
    <glyph glyph-name="w" unicode="w" horiz-adv-x="1622" 
d="M934 190q0 -88 92 -88q72 0 140 46.5t118 120.5t88.5 162t58 173.5t19.5 153.5q0 54 -16 92q-42 -47 -104 -47q-59 0 -101.5 36.5t-42.5 94.5q0 56 39 95.5t94 39.5q92 0 150 -76q59 -77 59 -245q0 -176 -86 -357.5t-222 -298.5q-140 -119 -294 -119q-213 0 -213 246
q0 25 2 47h-4q-29 -51 -66 -99t-84 -93.5t-104 -73t-113 -27.5q-197 0 -199 209q0 49 9 97l86 485q8 46 8 80q0 65 -49 65q-41 0 -156 -51v8q69 81 155.5 142t168.5 61q123 0 122 -168q0 -44 -14 -137l-88 -490q-4 -23 -4 -63q0 -88 78 -88q159 0 247 288q56 185 88 363
q31 169 33 181q2 10 3 17l2.5 10t1.5 9h225l-121 -717q-6 -42 -6 -84z" />
    <glyph glyph-name="x" unicode="x" horiz-adv-x="1056" 
d="M338 104q0 -59 -44 -96t-104 -37q-63 0 -108 41t-45 103q0 87 94 175q97 90 297 230l-111 285q-26 64 -48 89q-23 26 -63 26q-41 0 -140 -46l4 9q56 68 140.5 127t154.5 59q69 0 111 -58q43 -60 89 -192l68 -188q108 83 198 176q-53 8 -87 45t-34 89q0 57 44.5 92.5
t103.5 35.5q57 0 101.5 -37t44.5 -93q0 -59 -19.5 -90t-73.5 -80q-61 -54 -258 -191q23 -57 66 -171q15 -39 37 -97t30 -78q25 -64 46 -88q23 -26 63 -26q43 0 154 52v-8q-64 -72 -146.5 -130t-154.5 -58q-71 0 -111 52q-43 56 -94 197q-28 70 -94 244q-138 -101 -250 -231
q139 -22 139 -132z" />
    <glyph glyph-name="y" unicode="y" horiz-adv-x="1026" 
d="M866 827v9q-41 -29 -88 -29q-51 0 -88 38.5t-37 90.5q0 63 39.5 98t103.5 35q77 0 120 -56t45 -136q0 -201 -336 -785q-341 -584 -609 -584q-85 0 -128 43q-44 44 -44 99q0 58 37 96.5t94 38.5q64 0 100 -47.5t38 -114.5q148 52 307 283q-44 474 -148 805
q-63 204 -131 202q-46 0 -147 -55v8q72 83 159.5 143t172.5 60q86 0 130 -107q45 -109 86 -338q43 -240 62 -425q243 451 262 628z" />
    <glyph glyph-name="z" unicode="z" horiz-adv-x="897" 
d="M649 850h-295q-100 0 -138 -9t-87 -57h-16l67 260h729v-8l-680 -848q243 0 343 10q98 10 155 32.5t104 86.5l17 -2q-11 -25 -36 -95q-8 -22 -21.5 -60.5t-19.5 -54.5q-17 -48 -49 -86.5t-74 -38.5q-54 0 -284 10t-391 10l-2 8z" />
    <glyph glyph-name="braceleft" unicode="{" horiz-adv-x="638" 
d="M358 -119q0 -141 117 -168l-2 -8q-72 5 -126 19.5t-99 44.5t-68.5 82.5t-23.5 125.5q0 69 10 119l33 178q20 120 20 186q0 71 -28 108.5t-97 47.5l2 17q81 10 128.5 71t67.5 150q18 75 34 158l32 178q36 198 136 268q99 69 299 86v-8q-97 -19 -145 -105q-49 -87 -77 -266
l-26 -159q-26 -156 -115.5 -245.5t-247.5 -135.5q236 -77 236 -295q0 -44 -6 -94l-31 -160q-23 -126 -23 -195z" />
    <glyph glyph-name="bar" unicode="|" horiz-adv-x="411" 
d="M403 1544l-309 -1780h-80l312 1780h77z" />
    <glyph glyph-name="braceright" unicode="}" horiz-adv-x="636" 
d="M512 1272q0 -55 -10 -119l-31 -178q-20 -122 -20 -188q2 -71 28.5 -108t93.5 -46l-2 -17q-79 -8 -123 -66q-66 -88 -104 -312l-33 -179q-16 -82 -42.5 -141t-61 -97.5t-86.5 -62.5t-108.5 -35.5t-137.5 -17.5l2 8q95 19 141 105q46 85 78 266l27 160q46 292 362 381
q-239 72 -237 293q0 46 8 96l29 160q23 123 22 192q0 145 -112 170v8q160 -13 239 -74q78 -60 78 -198z" />
    <glyph glyph-name="asciitilde" unicode="~" 
d="M414 725q78 0 222 -57q143 -58 184 -58q40 0 98 31t81 64l41 -41q-134 -189 -292 -191q-70 0 -212 57q-141 58 -190 58q-45 0 -99.5 -27t-78.5 -63l-49 43q130 184 295 184z" />
    <glyph glyph-name="exclamdown" unicode="&#xa1;" horiz-adv-x="522" 
d="M420 1073q61 0 104 -42.5t43 -103.5t-44.5 -105t-105.5 -44t-104 42.5t-43 103.5t44 105t106 44zM360 209q0 -204 -5 -339q-4 -119 -40 -195q-34 -72 -136 -72q-54 0 -85 35t-31 90q0 99 137 466q140 375 160 453h19q-19 -215 -19 -438z" />
    <glyph glyph-name="cent" unicode="&#xa2;" 
d="M475 951q-90 -132 -90 -342q0 -209 170 -283q30 161 143 804q-132 -46 -223 -179zM119 573q0 195 102 339.5t286 230.5q100 46 206 63l37 207h81l-34 -196h32q114 -2 193 -55q80 -54 80 -126q0 -65 -39 -108.5t-103 -44.5q-55 2 -92 32.5t-37 84.5q0 45 24.5 84t64.5 61
q-14 14 -56 14t-80 -6l-151 -854q37 -8 97 -8q61 2 145.5 26t134.5 56l12 -11q-212 -204 -420 -233l-53 -301h-82l53 297q-164 6 -282 132q-117 125 -119 316z" />
    <glyph glyph-name="sterling" unicode="&#xa3;" horiz-adv-x="1110" 
d="M664 0h-680v8q332 226 331 547q0 37 -10 147h-180l12 70h160q-8 66 -8 166q0 103 47.5 207t125.5 167q158 128 349 128q126 0 205 -67q80 -68 80 -141q0 -67 -35.5 -106.5t-101.5 -40.5q-56 0 -92 32t-36 87q0 102 123 139q-41 41 -123 41q-145 0 -219 -110
q-74 -111 -73 -287q0 -37 18 -215h328l-13 -70h-311q-1 -184 -69 -283t-236 -218h467q105 0 143 20q37 19 64 84h8q0 -157 -80 -231t-194 -74z" />
    <glyph glyph-name="currency" unicode="&#xa4;" 
d="M579 1122q-166 0 -273.5 -115.5t-107.5 -283.5t120.5 -292t288.5 -124q165 0 271.5 115t106.5 282q0 108 -54.5 204.5t-149 155t-202.5 58.5zM1032 195l-114 116q-116 -104 -304 -104t-307 104l-108 -116l-109 104l109 117q-115 130 -115 315q0 183 90 287l-121 110
l101 107l116 -113q118 100 298 100t313 -100l106 113l107 -107l-105 -110q113 -125 113 -310q0 -186 -88 -292l116 -117z" />
    <glyph glyph-name="yen" unicode="&#xa5;" 
d="M770 8v-8h-584l2 8q56 17 93.5 40t61 58.5t36.5 74.5t24 100l17 92h-254l12 69h254l31 170h-254l12 72h223l-96 330q-64 217 -106 290q-44 76 -113 101l2 8h535l-2 -8q-69 -18 -97.5 -50.5t-28.5 -100.5q0 -69 44 -234l84 -322l190 322q123 207 123 285q0 71 -111 100
l2 8h453l-2 -8q-81 -18 -151 -97q-72 -82 -209 -294l-211 -330h219l-13 -72h-245l-31 -170h246l-13 -69h-245l-17 -92q-12 -67 -12 -123q0 -63 33 -96.5t98 -53.5z" />
    <glyph glyph-name="brokenbar" unicode="&#xa6;" horiz-adv-x="417" 
d="M414 1544l-135 -756h-78l135 756h78zM231 520l-135 -756h-78l136 756h77z" />
    <glyph glyph-name="section" unicode="&#xa7;" horiz-adv-x="1052" 
d="M258 780q0 -84 80 -141l338 -250q31 0 49 2q84 66 84 158q0 67 -84 129l-313 221q-38 25 -56 41q-43 -23 -70.5 -67.5t-27.5 -92.5zM981 635q0 -53 -22.5 -100t-61.5 -81.5t-83.5 -59.5t-94.5 -42q94 -94 94 -200q0 -74 -33.5 -135.5t-88.5 -100t-122.5 -59.5t-138.5 -21
q-161 0 -268 85q-108 85 -109 188q0 61 37.5 96t98.5 35q59 0 99 -39.5t40 -98.5q0 -88 -133 -133q30 -30 92.5 -49.5t111.5 -19.5q54 0 106 17.5t91 58t39 95.5q0 78 -100 154q-188 147 -330 256q-111 84 -111 215q0 184 242 265q-76 80 -76 195q0 114 92 198t242 84
t247 -72t97 -172q0 -55 -33.5 -90t-87.5 -35q-51 0 -92 37.5t-41 87.5q0 92 123 123q-64 59 -161 59q-51 0 -97.5 -13t-83.5 -48.5t-37 -87.5q0 -91 131 -180l283 -193q139 -94 139 -219z" />
    <glyph glyph-name="dieresis" unicode="&#xa8;" horiz-adv-x="712" 
d="M766 1320q0 -52 -36.5 -88t-88.5 -36q-51 0 -87 36t-36 87t36 88t87 37q52 0 88.5 -36t36.5 -88zM322 1444q52 0 88 -36t36 -88t-36 -88t-88 -36q-50 0 -88 36q-36 36 -35 87q0 52 35.5 88.5t87.5 36.5z" />
    <glyph glyph-name="copyright" unicode="&#xa9;" horiz-adv-x="1630" 
d="M825 63q249 -1 422 191q172 191 172 450t-172 450q-172 192 -422 192q-249 0 -422 -192q-172 -191 -172 -449q0 -259 172 -450q173 -192 422 -192zM825 -31q-299 0 -505 216t-205 519q0 303 206 520q207 216 505 216t504 -216q206 -217 206 -519t-206 -519
q-205 -215 -505 -217zM1130 383l19 -23q-141 -129 -312 -129t-292 127t-121 346t130 346q131 128 300 128q124 0 240 -52v-165h-9q-26 36 -45 58.5t-47 48t-60.5 38t-70.5 12.5q-57 0 -102.5 -28.5t-72.5 -72t-44.5 -101t-24 -109.5t-6.5 -103q0 -57 10 -111t33 -104.5
t56.5 -88.5t84 -60.5t112.5 -22.5q136 0 222 66z" />
    <glyph glyph-name="ordfeminine" unicode="&#xaa;" horiz-adv-x="770" 
d="M333 1252q-73 -125 -73 -280q0 -154 94 -155q24 2 52.5 16t44.5 33q5 7 49 54l80 432q-39 26 -78 26q-96 0 -169 -126zM592 713q-52 0 -78 25t-25 75q0 34 5 59q-122 -158 -224 -157q-90 0 -140 65t-50 158q0 171 139 323q140 153 297 152q20 0 146 -20q38 7 90 20h14
l-98 -504q-4 -20 -4 -59q0 -35 36 -35t105 33v-4q-38 -45 -102 -88t-111 -43zM717 602l-15 -76h-649l13 76h651z" />
    <glyph glyph-name="guillemotleft" unicode="&#xab;" horiz-adv-x="919" 
d="M649 532l148 -315h-15l-358 326l473 325h12zM434 217h-12l-371 326l484 325h12l-262 -336q44 -94 75 -158q50 -106 74 -157z" />
    <glyph glyph-name="logicalnot" unicode="&#xac;" 
d="M1016 651l-90 -499h-148l64 352h-705l27 147h852z" />
    <glyph glyph-name="registered" unicode="&#xae;" horiz-adv-x="1630" 
d="M401 258q170 -188 420 -188q168 0 305 89t211 233.5t74 311.5q0 124 -44 240t-120.5 203t-187.5 139.5t-238 52.5q-168 0 -305 -89t-211 -233.5t-74 -311.5q0 -259 170 -447zM821 -25q-299 0 -503 213q-204 212 -204 516t204 517t503 213t503 -213t204 -516t-204 -517
q-204 -215 -503 -213zM713 1100v-389h110q83 0 133 53t50 137q0 83 -48.5 140.5t-130.5 58.5h-114zM1196 262v-8h-172l-223 397h-88v-231q0 -80 10 -101q11 -23 55 -57v-8h-274v8q44 30 55 54q10 23 10 104v571q0 34 -1.5 51t-7 39t-19.5 38.5t-37 31.5v8h327
q59 0 113.5 -13t102.5 -39.5t77 -74.5t29 -110q0 -106 -61 -167q-62 -60 -148 -87z" />
    <glyph glyph-name="macron" unicode="&#xaf;" horiz-adv-x="571" 
d="M664 1352l-19 -109h-504l19 109h504z" />
    <glyph glyph-name="degree" unicode="&#xb0;" horiz-adv-x="835" 
d="M385 877q94 0 151.5 66.5t57.5 162.5q0 95 -57 161.5t-151 66.5q-95 0 -152.5 -66t-57.5 -162t57.5 -162.5t151.5 -66.5zM721 1106q0 -138 -97.5 -234t-235.5 -96q-139 0 -236.5 95.5t-97.5 234.5q0 138 97.5 234t235.5 96q139 0 236 -95.5t98 -234.5z" />
    <glyph glyph-name="plusminus" unicode="&#xb1;" 
d="M1028 713l-29 -148h-352l-61 -352h-148l62 352h-353l29 148h352l62 352h147l-61 -352h352zM926 147l-25 -147h-852l25 147h852z" />
    <glyph glyph-name="twosuperior" unicode="&#xb2;" horiz-adv-x="806" 
d="M455 1356q-64 0 -123 -37q45 -7 74.5 -42.5t29.5 -81.5q0 -49 -34 -80.5t-84 -31.5q-52 0 -85 37q-33 38 -32 86q0 85 100 152q101 68 229 68q49 0 98 -11.5t93.5 -34t72.5 -63.5t29 -94q0 -87 -57 -155q-59 -69 -175 -146q-115 -75 -155 -111l-139 -121h426l-37 -158
h-610l8 41l317 297q198 184 203 340q0 66 -41.5 106t-107.5 40z" />
    <glyph glyph-name="threesuperior" unicode="&#xb3;" horiz-adv-x="806" 
d="M325 518q-99 0 -163 45t-64 101q0 53 35 85.5t88 32.5q46 0 79.5 -30t33.5 -76q0 -63 -80 -111q23 -4 55 -4q98 0 175 67t77 163q0 98 -58 144t-130 46q-25 0 -33 -2l-12 14l256 262h-351l29 158h557l-2 -8l-282 -283q101 -17 170 -93t69 -177q0 -99 -74 -179
q-69 -75 -169 -115t-206 -40z" />
    <glyph glyph-name="acute" unicode="&#xb4;" horiz-adv-x="501" 
d="M164 1174l-10 2q146 124 174 249l213 -12q-95 -168 -377 -239z" />
    <glyph glyph-name="mu" unicode="&#xb5;" horiz-adv-x="1181" 
d="M842 -27q-133 0 -133 162q0 45 10 109q-65 -106 -161 -188.5t-196 -82.5q-94 0 -151 62v-23q0 -71 20 -196q21 -122 21 -174q0 -54 -33.5 -94t-86.5 -40q-52 0 -78 29q-27 29 -27 51q0 24 4 47l209 1153q6 37 6 62q0 65 -53 65q-47 0 -152 -49v8q64 74 152.5 134.5
t164.5 60.5q131 0 131 -168q0 -61 -14 -137l-82 -445q-10 -49 -10 -96q0 -44 23 -78t65 -34q112 0 258 215l129 718h242l-139 -765q-8 -44 -9 -82q0 -66 50 -66q49 0 155 53l2 -8q-61 -75 -151.5 -139.5t-165.5 -63.5z" />
    <glyph glyph-name="paragraph" unicode="&#xb6;" horiz-adv-x="1077" 
d="M477 1413h639l-2 -8q-97 -41 -113 -135l-309 -1741h-94l322 1796h-340l-322 -1796h-92l229 1276q-141 0 -208 65q-70 66 -68 170q0 144 95 259q94 114 263 114z" />
    <glyph glyph-name="periodcentered" unicode="&#xb7;" horiz-adv-x="479" 
d="M255 584q-63 0 -107 42.5t-44 105.5t43.5 106t106.5 43t106 -43t43 -106q0 -62 -43 -105t-105 -43z" />
    <glyph glyph-name="cedilla" unicode="&#xb8;" horiz-adv-x="421" 
d="M-117 -375l29 23q54 -27 112 -27q51 0 91.5 22t40.5 69q0 45 -58.5 74t-109.5 30l178 184h57l-88 -104q60 -6 115 -50t53 -106q0 -56 -42.5 -100t-99.5 -57q-52 -11 -102 -11q-109 0 -176 53z" />
    <glyph glyph-name="onesuperior" unicode="&#xb9;" horiz-adv-x="806" 
d="M625 543l-2 -11h-457l2 5v6q86 23 119 75q32 52 55 181l78 430q-89 -19 -187 -33l-2 21q186 51 426 221h9l-115 -639q-16 -83 -16 -137q0 -88 90 -119z" />
    <glyph glyph-name="ordmasculine" unicode="&#xba;" horiz-adv-x="847" 
d="M762 602l-12 -76h-697l13 76h696zM438 754q63 0 111 73q87 137 88 344q0 31 -4 61t-14.5 64t-33 55t-55.5 21q-84 0 -141 -133t-57 -289q0 -196 106 -196zM430 713q-126 0 -210.5 81t-84.5 207q0 163 124 287q125 125 265 125q133 0 223.5 -76.5t90.5 -206.5
q0 -167 -124 -292q-125 -126 -284 -125z" />
    <glyph glyph-name="guillemotright" unicode="&#xbb;" horiz-adv-x="919" 
d="M16 252h-8l221 301q-109 261 -118 283h10q228 -210 321 -293q-45 -31 -426 -291zM434 903l408 -360l-533 -359h-18l305 369l-178 350h16z" />
    <glyph glyph-name="onequarter" unicode="&#xbc;" horiz-adv-x="1986" 
d="M1731 92q0 -63 67 -84v-8h-387v8q62 17 88 53q27 38 45 148l4 27h-409l2 12l598 645h129l-101 -565h107l-16 -92h-107l-10 -58q-10 -53 -10 -86zM1315 328h250l59 338zM625 543l-2 -11h-457l2 5v6q86 23 119 75q32 52 55 181l78 430q-89 -19 -187 -33l-2 21
q186 51 426 221h9l-115 -639q-16 -83 -16 -137q0 -88 90 -119zM1694 1499l-1254 -1595h-114l1255 1595h113z" />
    <glyph glyph-name="onehalf" unicode="&#xbd;" horiz-adv-x="1986" 
d="M1575 823q-64 0 -123 -37q45 -7 74.5 -42.5t29.5 -81.5q0 -49 -33.5 -80t-83.5 -31q-51 0 -84.5 36t-33.5 87q0 85 100 152q98 67 229 67q128 0 211 -57q83 -59 83 -146q0 -89 -58 -154q-60 -68 -175 -146q-114 -76 -155 -111l-139 -121h426l-37 -158h-610l8 41l318 297
q199 184 202 340q0 66 -41.5 104.5t-107.5 40.5zM625 543l-2 -11h-457l2 5v6q86 23 119 75q32 52 55 181l78 430q-89 -19 -187 -33l-2 21q186 51 426 221h9l-115 -639q-16 -83 -16 -137q0 -88 90 -119zM1694 1499l-1254 -1595h-114l1255 1595h113z" />
    <glyph glyph-name="threequarters" unicode="&#xbe;" horiz-adv-x="1986" 
d="M325 518q-99 0 -163 45t-64 101q0 53 35 85.5t88 32.5q46 0 79.5 -30t33.5 -76q0 -63 -80 -111q23 -4 55 -4q98 0 175 67t77 163q0 98 -58 144t-130 46q-25 0 -33 -2l-12 14l256 262h-351l29 158h557l-2 -8l-282 -283q101 -17 170 -93t69 -177q0 -99 -74 -179
q-69 -75 -169 -115t-206 -40zM1731 92q0 -63 67 -84v-8h-387v8q62 17 88 53q27 38 45 148l4 27h-409l2 12l598 645h129l-101 -565h107l-16 -92h-107l-10 -58q-10 -53 -10 -86zM1315 328h250l59 338zM1694 1499l-1254 -1595h-114l1255 1595h113z" />
    <glyph glyph-name="questiondown" unicode="&#xbf;" horiz-adv-x="952" 
d="M559 923q0 63 44 105.5t107 42.5q62 0 105 -43t43 -105t-43 -105.5t-105 -43.5q-63 0 -107 43t-44 106zM362 -98q0 -102 60 -161.5t162 -59.5q100 0 200 94q-64 6 -107.5 49t-43.5 106q0 64 40.5 105t105.5 41t106 -43.5t41 -108.5q0 -121 -127 -221t-299 -100
q-76 0 -143 18t-121 54.5t-85.5 97.5t-31.5 141q0 158 136 297q68 70 175 159q45 38 72 63.5t62.5 64t58 79.5t34.5 85h21q-16 -100 -64 -204t-114 -191q-138 -175 -138 -365z" />
    <glyph glyph-name="Agrave" unicode="&#xc0;" horiz-adv-x="1447" 
d="M1063 1544l-10 -2q-291 70 -402 240l215 12q44 -133 197 -250zM434 582h451l-111 684zM1331 8v-8h-538v8q83 18 111 66t28 140q0 100 -35 290h-502q-145 -297 -145 -387q0 -49 28 -71t84 -38v-8h-458v8q94 38 165 132q71 96 236 413l447 860h233l174 -1024
q33 -191 70 -269q37 -79 102 -112z" />
    <glyph glyph-name="Aacute" unicode="&#xc1;" horiz-adv-x="1447" 
d="M721 1542l-10 2q145 124 174 250l213 -12q-96 -169 -377 -240zM434 582h451l-111 684zM1331 8v-8h-538v8q83 18 111 66t28 140q0 100 -35 290h-502q-145 -297 -145 -387q0 -49 28 -71t84 -38v-8h-458v8q94 38 165 132q71 96 236 413l447 860h233l174 -1024
q33 -191 70 -269q37 -79 102 -112z" />
    <glyph glyph-name="Acircumflex" unicode="&#xc2;" horiz-adv-x="1447" 
d="M950 1796l146 -264h-17l-202 115l-259 -115h-16l232 264h116zM434 582h451l-111 684zM1331 8v-8h-538v8q83 18 111 66t28 140q0 100 -35 290h-502q-145 -297 -145 -387q0 -49 28 -71t84 -38v-8h-458v8q94 38 165 132q71 96 236 413l447 860h233l174 -1024
q33 -191 70 -269q37 -79 102 -112z" />
    <glyph glyph-name="Atilde" unicode="&#xc3;" horiz-adv-x="1447" 
d="M961 1573q-55 0 -141 36q-85 36 -115 36q-80 0 -138 -76l-12 4q32 82 100 142q70 61 123 61t137 -33t119 -33q88 0 137 72l13 -4q-32 -73 -94.5 -139t-128.5 -66zM434 582h451l-111 684zM1331 8v-8h-538v8q83 18 111 66t28 140q0 100 -35 290h-502q-145 -297 -145 -387
q0 -49 28 -71t84 -38v-8h-458v8q94 38 165 132q71 96 236 413l447 860h233l174 -1024q33 -191 70 -269q37 -79 102 -112z" />
    <glyph glyph-name="Adieresis" unicode="&#xc4;" horiz-adv-x="1447" 
d="M1153 1689q0 -52 -36.5 -88t-88.5 -36q-51 0 -87 36t-36 87q0 52 35.5 88t88.5 36q52 0 88 -35.5t36 -87.5zM834 1689q0 -52 -36.5 -88t-88.5 -36q-51 0 -87 36t-36 87q0 52 36 88t88 36t88 -35.5t36 -87.5zM434 582h451l-111 684zM1331 8v-8h-538v8q83 18 111 66t28 140
q0 100 -35 290h-502q-145 -297 -145 -387q0 -49 28 -71t84 -38v-8h-458v8q94 38 165 132q71 96 236 413l447 860h233l174 -1024q33 -191 70 -269q37 -79 102 -112z" />
    <glyph glyph-name="Aring" unicode="&#xc5;" horiz-adv-x="1447" 
d="M864 1364q55 0 93 40t38 95t-38 95t-93 40t-93 -40t-38 -95t38 -95t93 -40zM434 582h451l-111 684zM1331 8v-8h-538v8q83 18 111 66t28 140q0 100 -35 290h-502q-145 -297 -145 -387q0 -49 28 -71t84 -38v-8h-458v8q94 38 165 132q71 96 236 413l408 784q-72 66 -72 158
t65.5 157.5t157.5 65.5q95 0 159.5 -66t64.5 -161q0 -97 -89 -162l160 -940q33 -191 70 -269q37 -79 102 -112z" />
    <glyph glyph-name="AE" unicode="&#xc6;" horiz-adv-x="1955" 
d="M559 582h438l131 761h-10zM375 8v-8h-477l2 8q96 37 199 145q101 105 323 400l436 582q112 151 18 213q-43 28 -137 57l2 8h1182l-53 -315h-10q-16 48 -28 78t-33 64.5t-45 53.5t-60.5 32t-83.5 13h-234l-98 -575h217q79 0 132 32.5t108 102.5h10l-57 -344h-11
q-35 72 -77.5 102.5t-118.5 30.5h-215l-107 -614h246q109 0 183 48q75 49 241 224h8l-100 -346h-1006l2 8q75 23 117.5 60t60.5 83t33 130l37 213h-485q-218 -295 -220 -381q0 -63 99 -105z" />
    <glyph glyph-name="Ccedilla" unicode="&#xc7;" horiz-adv-x="1431" 
d="M950 -260q0 -56 -42.5 -100t-99.5 -57q-52 -11 -101 -11q-110 0 -177 53l29 23q55 -27 113 -27q51 0 91 22t40 69q0 31 -31.5 56t-69 36t-67.5 12l147 153q-286 4 -490 187q-202 181 -202 460q0 242 147 443t377 300q192 83 392 83q94 0 223 -23.5t203 -58.5l-50 -299h-8
q-98 311 -395 311q-181 0 -324 -116t-216 -294t-72 -380q0 -244 126 -395q126 -152 320 -150q273 0 485 336h11l-82 -318q-151 -73 -383 -84l-62 -75q63 -6 115.5 -51t52.5 -105z" />
    <glyph glyph-name="Egrave" unicode="&#xc8;" horiz-adv-x="1187" 
d="M940 1544l-10 -2q-291 70 -402 240l215 12q44 -133 197 -250zM971 0h-1002v8q45 14 77.5 33t53 40t35 54t22.5 64.5t17 81.5l150 854q8 46 8 109q0 67 -29.5 103t-95.5 58v8h948l-53 -315h-10q-54 154 -104 198q-49 43 -165 43h-213l-100 -575h217q82 0 132 31t110 104h8
l-57 -344h-9q-36 76 -75.5 104.5t-120.5 28.5h-217l-107 -614h232q125 0 195 45q69 44 243 227h8z" />
    <glyph glyph-name="Eacute" unicode="&#xc9;" horiz-adv-x="1187" 
d="M614 1542l-10 2q145 124 174 250l213 -12q-96 -169 -377 -240zM971 0h-1002v8q45 14 77.5 33t53 40t35 54t22.5 64.5t17 81.5l150 854q8 46 8 109q0 67 -29.5 103t-95.5 58v8h948l-53 -315h-10q-54 154 -104 198q-49 43 -165 43h-213l-100 -575h217q82 0 132 31t110 104
h8l-57 -344h-9q-36 76 -75.5 104.5t-120.5 28.5h-217l-107 -614h232q125 0 195 45q69 44 243 227h8z" />
    <glyph glyph-name="Ecircumflex" unicode="&#xca;" horiz-adv-x="1187" 
d="M825 1796l146 -264h-17l-202 115l-258 -115h-17l232 264h116zM971 0h-1002v8q45 14 77.5 33t53 40t35 54t22.5 64.5t17 81.5l150 854q8 46 8 109q0 67 -29.5 103t-95.5 58v8h948l-53 -315h-10q-54 154 -104 198q-49 43 -165 43h-213l-100 -575h217q82 0 132 31t110 104h8
l-57 -344h-9q-36 76 -75.5 104.5t-120.5 28.5h-217l-107 -614h232q125 0 195 45q69 44 243 227h8z" />
    <glyph glyph-name="Edieresis" unicode="&#xcb;" horiz-adv-x="1187" 
d="M1018 1689q0 -52 -36.5 -88t-88.5 -36q-51 0 -87 36t-36 87q0 52 36 88t88 36t88 -35.5t36 -87.5zM663 1777q35 -37 35 -88q0 -53 -36 -88.5t-88 -35.5t-88 36t-35 87q0 53 35.5 88.5t87.5 35.5q51 0 89 -35zM971 0h-1002v8q45 14 77.5 33t53 40t35 54t22.5 64.5t17 81.5
l150 854q8 46 8 109q0 67 -29.5 103t-95.5 58v8h948l-53 -315h-10q-54 154 -104 198q-49 43 -165 43h-213l-100 -575h217q82 0 132 31t110 104h8l-57 -344h-9q-36 76 -75.5 104.5t-120.5 28.5h-217l-107 -614h232q125 0 195 45q69 44 243 227h8z" />
    <glyph glyph-name="Igrave" unicode="&#xcc;" horiz-adv-x="724" 
d="M692 1544l-10 -2q-292 71 -401 240l215 12q43 -132 196 -250zM543 8v-8h-574v8q56 17 92 40t58 58.5t33 72.5t22 100l148 856q12 65 12 119q0 60 -32.5 94t-94.5 57v8h575v-8q-105 -32 -145.5 -90.5t-61.5 -179.5l-149 -856q-12 -67 -12 -121q0 -61 32.5 -95.5
t96.5 -54.5z" />
    <glyph glyph-name="Iacute" unicode="&#xcd;" horiz-adv-x="724" 
d="M389 1542l-10 2q145 124 174 250l213 -12q-96 -169 -377 -240zM543 8v-8h-574v8q56 17 92 40t58 58.5t33 72.5t22 100l148 856q12 65 12 119q0 60 -32.5 94t-94.5 57v8h575v-8q-105 -32 -145.5 -90.5t-61.5 -179.5l-149 -856q-12 -67 -12 -121q0 -61 32.5 -95.5
t96.5 -54.5z" />
    <glyph glyph-name="Icircumflex" unicode="&#xce;" horiz-adv-x="724" 
d="M604 1796l146 -264h-17l-203 115l-258 -115h-16l231 264h117zM543 8v-8h-574v8q56 17 92 40t58 58.5t33 72.5t22 100l148 856q12 65 12 119q0 60 -32.5 94t-94.5 57v8h575v-8q-105 -32 -145.5 -90.5t-61.5 -179.5l-149 -856q-12 -67 -12 -121q0 -61 32.5 -95.5
t96.5 -54.5z" />
    <glyph glyph-name="Idieresis" unicode="&#xcf;" horiz-adv-x="724" 
d="M821 1689q0 -52 -36.5 -88t-88.5 -36q-51 0 -87 36t-36 87q0 52 35.5 88t88.5 36q52 0 88 -35.5t36 -87.5zM502 1689q0 -52 -36.5 -88t-88.5 -36q-51 0 -87 36t-36 87q0 52 36 88t88 36t88 -35.5t36 -87.5zM543 8v-8h-574v8q56 17 92 40t58 58.5t33 72.5t22 100l148 856
q12 65 12 119q0 60 -32.5 94t-94.5 57v8h575v-8q-105 -32 -145.5 -90.5t-61.5 -179.5l-149 -856q-12 -67 -12 -121q0 -61 32.5 -95.5t96.5 -54.5z" />
    <glyph glyph-name="Eth" unicode="&#xd0;" horiz-adv-x="1566" 
d="M385 74h209q291 0 481 219q189 218 191 520q0 143 -51 260t-157 191t-251 75h-203l-98 -567h248l-15 -88h-250zM582 0h-621l2 8q56 17 92 40t58 59.5t33.5 74t21.5 99.5l70 403h-136l17 88h135l57 311q17 97 17 161q0 67 -30 103t-97 58l2 8h612q306 0 518 -167
q211 -166 211 -447q0 -235 -134.5 -420t-357.5 -283q-218 -96 -470 -96z" />
    <glyph glyph-name="Ntilde" unicode="&#xd1;" horiz-adv-x="1601" 
d="M1063 1573q-55 0 -140 36q-86 36 -116 36q-80 0 -137 -76l-13 4q32 82 100 142q68 61 123 61q54 0 138 -33t119 -33q87 0 137 72l12 -4q-32 -73 -94.5 -139t-128.5 -66zM426 1194l-131 -752q-29 -171 -29 -248q0 -75 25.5 -117t93.5 -69v-8h-428v8q73 26 110 64
q74 75 126 370l126 746q1 10 3 33q0 137 -158 184v8h416l663 -1069l111 629q28 158 28 243q0 76 -25 118t-93 71v8h428v-8q-71 -27 -111 -65q-74 -73 -125 -367l-172 -987h-110z" />
    <glyph glyph-name="Ograve" unicode="&#xd2;" horiz-adv-x="1648" 
d="M1147 1544l-10 -2q-291 70 -402 240l215 12q44 -133 197 -250zM350 551q0 -74 14 -145.5t44.5 -138t75.5 -117t111.5 -80.5t146.5 -31q183 0 319 124q141 129 207 311t66 391q0 74 -14 144.5t-44.5 137t-75 116t-110.5 79.5t-146 30q-180 0 -317 -120
q-142 -125 -209.5 -309.5t-67.5 -391.5zM1604 791q0 -132 -48 -258.5t-132.5 -227t-193.5 -177t-238 -118t-259 -41.5q-261 0 -458 174t-195 465q0 204 105 381.5t283 295.5q236 157 487 157q250 0 449 -181q200 -182 200 -470z" />
    <glyph glyph-name="Oacute" unicode="&#xd3;" horiz-adv-x="1648" 
d="M834 1542l-11 2q145 124 174 250l213 -12q-94 -169 -376 -240zM350 551q0 -74 14 -145.5t44.5 -138t75.5 -117t111.5 -80.5t146.5 -31q183 0 319 124q141 129 207 311t66 391q0 74 -14 144.5t-44.5 137t-75 116t-110.5 79.5t-146 30q-180 0 -317 -120
q-142 -125 -209.5 -309.5t-67.5 -391.5zM1604 791q0 -132 -48 -258.5t-132.5 -227t-193.5 -177t-238 -118t-259 -41.5q-261 0 -458 174t-195 465q0 204 105 381.5t283 295.5q236 157 487 157q250 0 449 -181q200 -182 200 -470z" />
    <glyph glyph-name="Ocircumflex" unicode="&#xd4;" horiz-adv-x="1648" 
d="M1069 1796l145 -264h-16l-203 115l-258 -115h-16l231 264h117zM350 551q0 -74 14 -145.5t44.5 -138t75.5 -117t111.5 -80.5t146.5 -31q183 0 319 124q141 129 207 311t66 391q0 74 -14 144.5t-44.5 137t-75 116t-110.5 79.5t-146 30q-180 0 -317 -120
q-142 -125 -209.5 -309.5t-67.5 -391.5zM1604 791q0 -132 -48 -258.5t-132.5 -227t-193.5 -177t-238 -118t-259 -41.5q-261 0 -458 174t-195 465q0 204 105 381.5t283 295.5q236 157 487 157q250 0 449 -181q200 -182 200 -470z" />
    <glyph glyph-name="Otilde" unicode="&#xd5;" horiz-adv-x="1648" 
d="M1065 1573q-55 0 -140 36q-86 36 -116 36q-80 0 -137 -76l-13 4q26 58 86 130q61 73 126 73t149 -33t119 -33q86 0 137 72l12 -4q-32 -73 -94.5 -139t-128.5 -66zM350 551q0 -74 14 -145.5t44.5 -138t75.5 -117t111.5 -80.5t146.5 -31q183 0 319 124q141 129 207 311
t66 391q0 74 -14 144.5t-44.5 137t-75 116t-110.5 79.5t-146 30q-180 0 -317 -120q-142 -125 -209.5 -309.5t-67.5 -391.5zM1604 791q0 -132 -48 -258.5t-132.5 -227t-193.5 -177t-238 -118t-259 -41.5q-261 0 -458 174t-195 465q0 204 105 381.5t283 295.5q236 157 487 157
q250 0 449 -181q200 -182 200 -470z" />
    <glyph glyph-name="Odieresis" unicode="&#xd6;" horiz-adv-x="1648" 
d="M1257 1689q-2 -52 -37 -88t-87 -36q-51 0 -87 36t-36 87q0 52 35.5 88t87.5 36q53 0 88.5 -35.5t35.5 -87.5zM938 1689q0 -52 -36.5 -88t-88.5 -36q-51 0 -87 36t-36 87q0 52 35.5 88t87.5 36q51 0 88 -36t37 -87zM350 551q0 -74 14 -145.5t44.5 -138t75.5 -117
t111.5 -80.5t146.5 -31q183 0 319 124q141 129 207 311t66 391q0 74 -14 144.5t-44.5 137t-75 116t-110.5 79.5t-146 30q-180 0 -317 -120q-142 -125 -209.5 -309.5t-67.5 -391.5zM1604 791q0 -132 -48 -258.5t-132.5 -227t-193.5 -177t-238 -118t-259 -41.5
q-261 0 -458 174t-195 465q0 204 105 381.5t283 295.5q236 157 487 157q250 0 449 -181q200 -182 200 -470z" />
    <glyph glyph-name="multiply" unicode="&#xd7;" 
d="M987 299l-104 -104l-279 278l-278 -278l-105 104l279 279l-279 278l105 105l278 -279l279 279l104 -105l-278 -278z" />
    <glyph glyph-name="Oslash" unicode="&#xd8;" horiz-adv-x="1648" 
d="M430 227l772 1028q-104 117 -271 117q-89 0 -171.5 -35.5t-146 -96t-112.5 -134t-81 -156.5q-70 -180 -70 -382q0 -199 80 -341zM1251 1190l-774 -1030q103 -121 275 -121q173 0 309 124q138 126 205.5 306t67.5 381q0 200 -83 340zM80 608q0 176 82 336q152 296 487 435
q152 63 313 63q162 0 314 -90l98 131l68 -41l-101 -133q127 -90 195 -225.5t68 -292.5q0 -220 -127 -411t-329 -301q-200 -110 -396 -110q-195 0 -355 86l-98 -129l-63 45l96 127q-252 180 -252 510z" />
    <glyph glyph-name="Ugrave" unicode="&#xd9;" horiz-adv-x="1552" 
d="M1128 1544l-10 -2q-292 71 -401 240l215 12q43 -132 196 -250zM1184 391l102 582q25 144 25 235q0 80 -24.5 123t-94.5 74v8h434v-8q-75 -28 -113 -64q-75 -72 -127 -368l-102 -588q-72 -416 -582 -416q-80 -1 -151 9t-140 36.5t-118.5 68t-80 108.5t-30.5 153q0 47 8 90
l127 701q29 146 -16 206q-27 37 -100 64v8h575v-8q-106 -32 -146 -90t-61 -180l-127 -729q-6 -33 -6 -95q0 -72 24 -121.5t69.5 -75t98.5 -36t124 -10.5q168 0 286 81.5t146 241.5z" />
    <glyph glyph-name="Uacute" unicode="&#xda;" horiz-adv-x="1552" 
d="M819 1542l-10 2q145 124 174 250l213 -12q-96 -169 -377 -240zM1184 391l102 582q25 144 25 235q0 80 -24.5 123t-94.5 74v8h434v-8q-75 -28 -113 -64q-75 -72 -127 -368l-102 -588q-72 -416 -582 -416q-80 -1 -151 9t-140 36.5t-118.5 68t-80 108.5t-30.5 153q0 47 8 90
l127 701q29 146 -16 206q-27 37 -100 64v8h575v-8q-106 -32 -146 -90t-61 -180l-127 -729q-6 -33 -6 -95q0 -72 24 -121.5t69.5 -75t98.5 -36t124 -10.5q168 0 286 81.5t146 241.5z" />
    <glyph glyph-name="Ucircumflex" unicode="&#xdb;" horiz-adv-x="1552" 
d="M1038 1796l146 -264h-17l-202 115l-258 -115h-17l232 264h116zM1184 391l102 582q25 144 25 235q0 80 -24.5 123t-94.5 74v8h434v-8q-75 -28 -113 -64q-75 -72 -127 -368l-102 -588q-72 -416 -582 -416q-80 -1 -151 9t-140 36.5t-118.5 68t-80 108.5t-30.5 153q0 47 8 90
l127 701q29 146 -16 206q-27 37 -100 64v8h575v-8q-106 -32 -146 -90t-61 -180l-127 -729q-6 -33 -6 -95q0 -72 24 -121.5t69.5 -75t98.5 -36t124 -10.5q168 0 286 81.5t146 241.5z" />
    <glyph glyph-name="Udieresis" unicode="&#xdc;" horiz-adv-x="1552" 
d="M1237 1689q0 -52 -36.5 -88t-88.5 -36q-51 0 -87 36t-36 87q0 52 35.5 88t87.5 36q51 0 88 -36t37 -87zM918 1689q0 -52 -36.5 -88t-88.5 -36q-51 0 -87 36t-36 87q0 52 35.5 88t87.5 36q51 0 88 -36t37 -87zM1184 391l102 582q25 144 25 235q0 80 -24.5 123t-94.5 74v8
h434v-8q-75 -28 -113 -64q-75 -72 -127 -368l-102 -588q-72 -416 -582 -416q-80 -1 -151 9t-140 36.5t-118.5 68t-80 108.5t-30.5 153q0 47 8 90l127 701q29 146 -16 206q-27 37 -100 64v8h575v-8q-106 -32 -146 -90t-61 -180l-127 -729q-6 -33 -6 -95q0 -72 24 -121.5
t69.5 -75t98.5 -36t124 -10.5q168 0 286 81.5t146 241.5z" />
    <glyph glyph-name="Yacute" unicode="&#xdd;" horiz-adv-x="1306" 
d="M672 1542l-10 2q145 124 174 250l213 -12q-96 -169 -377 -240zM838 8v-8h-576v8q106 33 146 92t61 181l59 340l-139 393q-72 204 -124 286q-49 78 -120 105v8h547v-8q-64 -18 -92.5 -53t-28.5 -100q0 -66 50 -214l112 -342l211 334q133 211 133 281q0 61 -100 94v8h446
v-8q-81 -18 -163 -103q-79 -82 -218 -288l-262 -391l-59 -342q-12 -79 -11 -127q2 -104 128 -146z" />
    <glyph glyph-name="Thorn" unicode="&#xde;" horiz-adv-x="1259" 
d="M442 391h162q155 0 253.5 113t98.5 270q0 106 -63 185t-180 79h-158zM571 8v-8h-612v8q106 32 147 92t62 181l149 854q13 79 13 128q2 101 -131 142v8h583v-8q-105 -32 -145 -87q-41 -56 -66 -183l-4 -27h205q68 0 129.5 -10.5t119 -36t98.5 -63t65.5 -96.5t23.5 -132
q0 -225 -160 -337t-409 -111h-209l-8 -41q-10 -47 -10 -111q0 -69 41.5 -105t117.5 -57z" />
    <glyph glyph-name="germandbls" unicode="&#xdf;" horiz-adv-x="1230" 
d="M793 138q98 122 98 250q0 65 -26 126t-71 108.5t-98.5 84.5t-113.5 63l-4 12q151 87 247.5 219t96.5 291q0 80 -32.5 134.5t-107.5 54.5q-42 -1 -78 -18t-61 -42.5t-47 -66t-35.5 -75t-26 -83.5t-18 -79t-12.5 -73l-164 -948q-51 -285 -218 -424q-70 -58 -131.5 -94.5
t-144.5 -69.5l-4 13q60 36 109 109.5t75 148t40 151.5l192 1082q39 221 180 377t363 155q146 0 235 -76q90 -76 90 -187t-78 -195q-31 -33 -77 -77q-28 -27 -152 -110l-2 -8q328 -160 328 -426q1 -215 -183 -351t-417 -139l4 29q145 12 244 134z" />
    <glyph glyph-name="agrave" unicode="&#xe0;" horiz-adv-x="1142" 
d="M907 1176l-10 -2q-292 71 -401 239l215 12q42 -131 196 -249zM465 135q102 0 231 160l113 655q-58 62 -121 64q-139 0 -250 -198q-111 -199 -110 -431q0 -247 137 -250zM813 -27q-131 0 -131 156q0 41 8 94q-179 -248 -336 -248q-110 1 -192 93q-82 91 -82 262
q0 174 94.5 347.5t239.5 280.5q149 110 295 111q47 0 121 -15q71 -16 97 -16q23 0 122 31h22l-141 -790q-24 -145 36 -145q58 0 160 50v-8q-59 -74 -148 -138t-165 -65z" />
    <glyph glyph-name="aacute" unicode="&#xe1;" horiz-adv-x="1142" 
d="M629 1174l-11 2q145 124 175 249l213 -12q-95 -168 -377 -239zM465 135q102 0 231 160l113 655q-58 62 -121 64q-139 0 -250 -198q-111 -199 -110 -431q0 -247 137 -250zM813 -27q-131 0 -131 156q0 41 8 94q-179 -248 -336 -248q-110 1 -192 93q-82 91 -82 262
q0 174 94.5 347.5t239.5 280.5q149 110 295 111q47 0 121 -15q71 -16 97 -16q23 0 122 31h22l-141 -790q-24 -145 36 -145q58 0 160 50v-8q-59 -74 -148 -138t-165 -65z" />
    <glyph glyph-name="acircumflex" unicode="&#xe2;" horiz-adv-x="1142" 
d="M842 1427l145 -264h-16l-203 115l-258 -115h-16l231 264h117zM465 135q102 0 231 160l113 655q-58 62 -121 64q-139 0 -250 -198q-111 -199 -110 -431q0 -247 137 -250zM813 -27q-131 0 -131 156q0 41 8 94q-179 -248 -336 -248q-110 1 -192 93q-82 91 -82 262
q0 174 94.5 347.5t239.5 280.5q149 110 295 111q47 0 121 -15q71 -16 97 -16q23 0 122 31h22l-141 -790q-24 -145 36 -145q58 0 160 50v-8q-59 -74 -148 -138t-165 -65z" />
    <glyph glyph-name="atilde" unicode="&#xe3;" horiz-adv-x="1142" 
d="M834 1204q-54 0 -140 36q-85 36 -116 36q-80 0 -138 -76l-12 4q32 82 100 142q70 61 123 61t137 -33t119 -33q87 0 137 72l13 -4q-32 -73 -94.5 -139t-128.5 -66zM465 135q102 0 231 160l113 655q-58 62 -121 64q-139 0 -250 -198q-111 -199 -110 -431q0 -247 137 -250z
M813 -27q-131 0 -131 156q0 41 8 94q-179 -248 -336 -248q-110 1 -192 93q-82 91 -82 262q0 174 94.5 347.5t239.5 280.5q149 110 295 111q47 0 121 -15q71 -16 97 -16q23 0 122 31h22l-141 -790q-24 -145 36 -145q58 0 160 50v-8q-59 -74 -148 -138t-165 -65z" />
    <glyph glyph-name="adieresis" unicode="&#xe4;" horiz-adv-x="1142" 
d="M1016 1320q0 -52 -36.5 -88t-88.5 -36q-51 0 -87 36t-36 87t36 88t87 37q52 0 88.5 -36t36.5 -88zM696 1320q0 -52 -36.5 -88t-88.5 -36q-51 0 -87 36t-35 87q0 51 35.5 88t86.5 37q52 0 88.5 -36t36.5 -88zM465 135q102 0 231 160l113 655q-58 62 -121 64
q-139 0 -250 -198q-111 -199 -110 -431q0 -247 137 -250zM813 -27q-131 0 -131 156q0 41 8 94q-179 -248 -336 -248q-110 1 -192 93q-82 91 -82 262q0 174 94.5 347.5t239.5 280.5q149 110 295 111q47 0 121 -15q71 -16 97 -16q23 0 122 31h22l-141 -790q-24 -145 36 -145
q58 0 160 50v-8q-59 -74 -148 -138t-165 -65z" />
    <glyph glyph-name="aring" unicode="&#xe5;" horiz-adv-x="1142" 
d="M766 1235q52 0 88.5 38.5t36.5 90.5t-36.5 90.5t-88.5 38.5t-88.5 -38.5t-36.5 -90.5t36.5 -90.5t88.5 -38.5zM979 1364q1 -86 -62.5 -147t-150.5 -61q-86 0 -150 60q-65 62 -63 148q0 87 63 147.5t150 60.5q86 0 150 -60q65 -62 63 -148zM465 135q102 0 231 160l113 655
q-58 62 -121 64q-139 0 -250 -198q-111 -199 -110 -431q0 -247 137 -250zM813 -27q-131 0 -131 156q0 41 8 94q-179 -248 -336 -248q-110 1 -192 93q-82 91 -82 262q0 174 94.5 347.5t239.5 280.5q149 110 295 111q47 0 121 -15q71 -16 97 -16q23 0 122 31h22l-141 -790
q-24 -145 36 -145q58 0 160 50v-8q-59 -74 -148 -138t-165 -65z" />
    <glyph glyph-name="ae" unicode="&#xe6;" horiz-adv-x="1593" 
d="M1343 889q0 55 -24.5 91t-77.5 36q-97 0 -189 -152q-93 -153 -100 -354q202 44 297 156q94 112 94 223zM688 1014q-139 0 -250 -198q-110 -199 -110 -440q0 -121 34.5 -181.5t102.5 -59.5q105 0 211 178q31 55 57 191l80 469q-58 41 -125 41zM709 1069q97 0 209 -31
q6 1 100 31h22l-20 -102q146 102 270 102q75 0 132.5 -18.5t96.5 -67.5t40 -125q0 -105 -130 -217q-129 -111 -479 -170q3 -61 16.5 -116t41 -105.5t76 -80.5t112.5 -30q168 0 303 162l14 -14q-70 -129 -183 -220.5t-242 -91.5q-146 0 -234.5 83t-118.5 231
q-211 -312 -379 -314q-111 1 -194 93q-82 91 -82 262q0 174 94.5 347.5t239.5 280.5q149 110 295 111z" />
    <glyph glyph-name="ccedilla" unicode="&#xe7;" horiz-adv-x="911" 
d="M573 -260q0 -56 -42.5 -100t-99.5 -57q-52 -11 -101 -11q-111 0 -176 53l28 23q54 -27 112 -27q51 0 91.5 22t40.5 69q0 31 -31.5 56t-69 36t-67.5 12l154 159q-142 7 -234 119q-90 111 -90 289q0 275 190 480q191 206 412 206q80 0 143 -41.5t64 -117.5
q0 -61 -36.5 -104.5t-96.5 -43.5q-61 0 -97 36.5t-36 97.5q0 66 71 116v8q-170 0 -269 -164t-99 -362t61 -277q62 -80 164 -80q133 0 283 164l12 -14q-162 -285 -379 -310l-69 -81q64 -6 115.5 -50.5t51.5 -105.5z" />
    <glyph glyph-name="egrave" unicode="&#xe8;" horiz-adv-x="956" 
d="M881 1176l-11 -2q-292 71 -401 239l215 12q44 -132 197 -249zM610 1016q-100 0 -192 -152t-99 -354q93 6 177 45t132 109q82 116 83 225q0 53 -25.5 90t-75.5 37zM74 395q0 263 192 468q194 206 410 206q108 0 179 -54t71 -159q0 -108 -121 -223q-78 -72 -213 -111
t-275 -51q2 -61 16 -116.5t41.5 -105.5t76.5 -80t114 -30q165 0 301 162l15 -14q-61 -115 -174 -213t-273 -98q-114 0 -197.5 60t-123 153.5t-39.5 205.5z" />
    <glyph glyph-name="eacute" unicode="&#xe9;" horiz-adv-x="956" 
d="M526 1174l-10 2q146 124 174 249l213 -12q-95 -168 -377 -239zM610 1016q-100 0 -192 -152t-99 -354q93 6 177 45t132 109q82 116 83 225q0 53 -25.5 90t-75.5 37zM74 395q0 263 192 468q194 206 410 206q108 0 179 -54t71 -159q0 -108 -121 -223q-78 -72 -213 -111
t-275 -51q2 -61 16 -116.5t41.5 -105.5t76.5 -80t114 -30q165 0 301 162l15 -14q-61 -115 -174 -213t-273 -98q-114 0 -197.5 60t-123 153.5t-39.5 205.5z" />
    <glyph glyph-name="ecircumflex" unicode="&#xea;" horiz-adv-x="956" 
d="M745 1427l146 -264h-17l-202 115l-258 -115h-17l232 264h116zM610 1016q-100 0 -192 -152t-99 -354q93 6 177 45t132 109q82 116 83 225q0 53 -25.5 90t-75.5 37zM74 395q0 263 192 468q194 206 410 206q108 0 179 -54t71 -159q0 -108 -121 -223q-78 -72 -213 -111
t-275 -51q2 -61 16 -116.5t41.5 -105.5t76.5 -80t114 -30q165 0 301 162l15 -14q-61 -115 -174 -213t-273 -98q-114 0 -197.5 60t-123 153.5t-39.5 205.5z" />
    <glyph glyph-name="edieresis" unicode="&#xeb;" horiz-adv-x="956" 
d="M946 1320q0 -52 -36.5 -88t-88.5 -36q-51 0 -87 36t-36 87t36 88t87 37q52 0 88.5 -36t36.5 -88zM627 1320q0 -52 -36.5 -88t-88.5 -36q-51 0 -87 36t-36 87t36 88t87 37q52 0 88.5 -36t36.5 -88zM610 1016q-100 0 -192 -152t-99 -354q93 6 177 45t132 109q82 116 83 225
q0 53 -25.5 90t-75.5 37zM74 395q0 263 192 468q194 206 410 206q108 0 179 -54t71 -159q0 -108 -121 -223q-78 -72 -213 -111t-275 -51q2 -61 16 -116.5t41.5 -105.5t76.5 -80t114 -30q165 0 301 162l15 -14q-61 -115 -174 -213t-273 -98q-114 0 -197.5 60t-123 153.5
t-39.5 205.5z" />
    <glyph glyph-name="igrave" unicode="&#xec;" horiz-adv-x="632" 
d="M137 143q0 74 13 136l92 485q10 53 10 82q0 63 -50 63t-159 -51v8q59 71 150.5 136.5t162.5 66.5q136 0 138 -170q0 -45 -15 -135l-90 -485q-10 -54 -10 -89q0 -33 13 -49.5t38 -15.5q48 0 152 51v-8q-55 -69 -145.5 -131.5t-162.5 -63.5q-137 0 -137 170zM600 1176
l-10 -2q-292 71 -402 239l215 12q44 -132 197 -249z" />
    <glyph glyph-name="iacute" unicode="&#xed;" horiz-adv-x="632" 
d="M137 143q0 74 13 136l92 485q10 53 10 82q0 63 -50 63t-159 -51v8q59 71 150.5 136.5t162.5 66.5q136 0 138 -170q0 -45 -15 -135l-90 -485q-10 -54 -10 -89q0 -33 13 -49.5t38 -15.5q48 0 152 51v-8q-55 -69 -145.5 -131.5t-162.5 -63.5q-137 0 -137 170zM268 1174
l-10 2q146 124 174 249l213 -12q-95 -168 -377 -239z" />
    <glyph glyph-name="icircumflex" unicode="&#xee;" horiz-adv-x="632" 
d="M479 1427l146 -264h-17l-202 115l-259 -115h-16l231 264h117zM137 143q0 74 13 136l92 485q10 53 10 82q0 63 -50 63t-159 -51v8q59 71 150.5 136.5t162.5 66.5q136 0 138 -170q0 -45 -15 -135l-90 -485q-10 -54 -10 -89q0 -33 13 -49.5t38 -15.5q48 0 152 51v-8
q-55 -69 -145.5 -131.5t-162.5 -63.5q-137 0 -137 170z" />
    <glyph glyph-name="idieresis" unicode="&#xef;" horiz-adv-x="632" 
d="M137 143q0 74 13 136l92 485q10 53 10 82q0 63 -50 63t-159 -51v8q59 71 150.5 136.5t162.5 66.5q136 0 138 -170q0 -45 -15 -135l-90 -485q-10 -54 -10 -89q0 -33 13 -49.5t38 -15.5q48 0 152 51v-8q-55 -69 -145.5 -131.5t-162.5 -63.5q-137 0 -137 170zM709 1320
q0 -52 -36.5 -88t-88.5 -36q-51 0 -87 36t-36 87t36 88t87 37q52 0 88.5 -36t36.5 -88zM389 1320q0 -52 -36.5 -88t-88.5 -36q-51 0 -87 36t-36 87t36 88t87 37q52 0 88.5 -36t36.5 -88z" />
    <glyph glyph-name="eth" unicode="&#xf0;" horiz-adv-x="1144" 
d="M338 347q0 -318 161 -318q47 -1 87.5 24.5t69.5 70.5t52 95.5t39 110.5t25.5 103t15.5 85q42 283 -25 413q-42 83 -127 83q-53 0 -99.5 -38.5t-78.5 -99.5t-52 -116t-32 -107q-36 -156 -36 -306zM1063 659q0 -269 -170 -477q-169 -207 -401 -207q-174 0 -290 125
t-116 320q0 256 174 452q173 195 393 197q55 0 107 -33q-46 147 -164 305l-180 -73l-33 57l172 70q-30 38 -129 149h12q100 -62 180 -123l199 82l35 -57l-176 -72q387 -326 387 -715z" />
    <glyph glyph-name="ntilde" unicode="&#xf1;" horiz-adv-x="1187" 
d="M787 1204q-55 0 -141 36t-116 36q-80 0 -137 -76l-12 4q32 82 100 142q70 61 123 61t137 -33t119 -33q88 0 137 72l13 -4q-32 -73 -94.5 -139t-128.5 -66zM731 924q-113 0 -252 -162l-133 -762h-242l136 764q8 46 8 78q0 34 -12 51t-37 16q-41 0 -156 -51v8
q62 73 151 138.5t159 65.5q74 0 108.5 -51.5t34.5 -129.5q0 -26 -7 -58q178 238 361 238q126 0 181 -93q56 -94 26 -261l-84 -436q-8 -53 -8 -91q0 -63 49 -63t151 51l2 -8q-58 -74 -149 -134t-171 -60q-81 0 -112 79q-31 78 -2 226l88 442q44 203 -90 203z" />
    <glyph glyph-name="ograve" unicode="&#xf2;" horiz-adv-x="1136" 
d="M868 1176l-10 -2q-292 71 -401 239l215 12q42 -131 196 -249zM496 29q47 0 88 26.5t70 70.5t48.5 87t32.5 89q63 217 65 383q2 329 -165 329q-129 0 -215 -210q-86 -211 -86 -474q0 -37 3 -72t13.5 -78.5t27.5 -75t47.5 -53.5t70.5 -22zM485 -25q-120 0 -213.5 62
t-141.5 162t-48 219q0 256 174 454q174 199 395 197q168 0 286 -124t118 -318q-2 -257 -173 -454q-172 -198 -397 -198z" />
    <glyph glyph-name="oacute" unicode="&#xf3;" horiz-adv-x="1136" 
d="M532 1174l-10 2q146 124 174 249l213 -12q-95 -168 -377 -239zM496 29q47 0 88 26.5t70 70.5t48.5 87t32.5 89q63 217 65 383q2 329 -165 329q-129 0 -215 -210q-86 -211 -86 -474q0 -37 3 -72t13.5 -78.5t27.5 -75t47.5 -53.5t70.5 -22zM485 -25q-120 0 -213.5 62
t-141.5 162t-48 219q0 256 174 454q174 199 395 197q168 0 286 -124t118 -318q-2 -257 -173 -454q-172 -198 -397 -198z" />
    <glyph glyph-name="ocircumflex" unicode="&#xf4;" horiz-adv-x="1136" 
d="M750 1427l145 -264h-16l-203 115l-258 -115h-17l232 264h117zM496 29q47 0 88 26.5t70 70.5t48.5 87t32.5 89q63 217 65 383q2 329 -165 329q-129 0 -215 -210q-86 -211 -86 -474q0 -37 3 -72t13.5 -78.5t27.5 -75t47.5 -53.5t70.5 -22zM485 -25q-120 0 -213.5 62
t-141.5 162t-48 219q0 256 174 454q174 199 395 197q168 0 286 -124t118 -318q-2 -257 -173 -454q-172 -198 -397 -198z" />
    <glyph glyph-name="otilde" unicode="&#xf5;" horiz-adv-x="1136" 
d="M778 1204q-56 0 -140 36q-86 36 -116 36q-80 0 -137 -76l-12 4q26 58 86 130q61 73 125 73t149 -33q84 -33 119 -33q86 0 137 72l12 -4q-32 -74 -94.5 -139.5t-128.5 -65.5zM496 29q47 0 88 26.5t70 70.5t48.5 87t32.5 89q63 217 65 383q2 329 -165 329q-129 0 -215 -210
q-86 -211 -86 -474q0 -37 3 -72t13.5 -78.5t27.5 -75t47.5 -53.5t70.5 -22zM485 -25q-120 0 -213.5 62t-141.5 162t-48 219q0 256 174 454q174 199 395 197q168 0 286 -124t118 -318q-2 -257 -173 -454q-172 -198 -397 -198z" />
    <glyph glyph-name="odieresis" unicode="&#xf6;" horiz-adv-x="1136" 
d="M950 1320q0 -52 -36.5 -88t-88.5 -36q-51 0 -87 36t-36 87t36 88t87 37q52 0 88.5 -36t36.5 -88zM631 1320q0 -52 -36.5 -88t-88.5 -36q-51 0 -87 36t-36 87t36 88t87 37q52 0 88.5 -36t36.5 -88zM496 29q47 0 88 26.5t70 70.5t48.5 87t32.5 89q63 217 65 383
q2 329 -165 329q-129 0 -215 -210q-86 -211 -86 -474q0 -37 3 -72t13.5 -78.5t27.5 -75t47.5 -53.5t70.5 -22zM485 -25q-120 0 -213.5 62t-141.5 162t-48 219q0 256 174 454q174 199 395 197q168 0 286 -124t118 -318q-2 -257 -173 -454q-172 -198 -397 -198z" />
    <glyph glyph-name="divide" unicode="&#xf7;" 
d="M653 852q-56 0 -96.5 40t-40.5 95t37.5 92t92.5 37t95.5 -40t40.5 -95t-37 -92t-92 -37zM635 152q0 -55 -36.5 -92t-91.5 -37q-54 -2 -95 39t-41 96t36.5 92t91.5 37t95.5 -40t40.5 -95zM1016 651l-27 -147h-852l27 147h852z" />
    <glyph glyph-name="oslash" unicode="&#xf8;" horiz-adv-x="1144" 
d="M803 745l-453 -555q17 -81 55 -121.5t97 -39.5q66 0 120.5 55t87 135.5t55 178.5t31.5 176.5t9 136.5q0 20 -2 34zM639 1014q-129 0 -215 -210q-86 -211 -86 -474v-39l453 555q-37 168 -152 168zM655 1069q136 0 246 -88l111 135l57 -45l-117 -141q105 -126 107 -303
q0 -257 -172 -454q-173 -198 -398 -198q-139 0 -245 84l-105 -129l-59 43l113 138q-105 122 -107 307q0 256 174 454q174 199 395 197z" />
    <glyph glyph-name="ugrave" unicode="&#xf9;" horiz-adv-x="1181" 
d="M881 1176l-11 -2q-292 71 -401 239l215 12q44 -132 197 -249zM842 -27q-131 0 -131 162q0 47 8 109q-29 -48 -66 -92.5t-83.5 -86.5t-101.5 -67t-108 -25q-129 0 -183 90t-21 265l80 436q16 74 8 114q-8 38 -53 38q-44 0 -150 -50v8q64 74 152.5 134.5t164.5 60.5
q173 0 117 -305l-82 -445q-20 -104 0 -156.5t78 -51.5q112 0 258 215l129 718h240l-137 -765q-15 -81 -7 -114q8 -32 56 -32t147 51l2 -8q-61 -75 -151.5 -139.5t-165.5 -63.5z" />
    <glyph glyph-name="uacute" unicode="&#xfa;" horiz-adv-x="1181" 
d="M522 1174l-10 2q146 124 174 249l213 -12q-95 -168 -377 -239zM842 -27q-131 0 -131 162q0 47 8 109q-29 -48 -66 -92.5t-83.5 -86.5t-101.5 -67t-108 -25q-129 0 -183 90t-21 265l80 436q16 74 8 114q-8 38 -53 38q-44 0 -150 -50v8q64 74 152.5 134.5t164.5 60.5
q173 0 117 -305l-82 -445q-20 -104 0 -156.5t78 -51.5q112 0 258 215l129 718h240l-137 -765q-15 -81 -7 -114q8 -32 56 -32t147 51l2 -8q-61 -75 -151.5 -139.5t-165.5 -63.5z" />
    <glyph glyph-name="ucircumflex" unicode="&#xfb;" horiz-adv-x="1181" 
d="M762 1427l145 -264h-16l-203 115l-258 -115h-16l231 264h117zM842 -27q-131 0 -131 162q0 47 8 109q-29 -48 -66 -92.5t-83.5 -86.5t-101.5 -67t-108 -25q-129 0 -183 90t-21 265l80 436q16 74 8 114q-8 38 -53 38q-44 0 -150 -50v8q64 74 152.5 134.5t164.5 60.5
q173 0 117 -305l-82 -445q-20 -104 0 -156.5t78 -51.5q112 0 258 215l129 718h240l-137 -765q-15 -81 -7 -114q8 -32 56 -32t147 51l2 -8q-61 -75 -151.5 -139.5t-165.5 -63.5z" />
    <glyph glyph-name="udieresis" unicode="&#xfc;" horiz-adv-x="1181" 
d="M963 1320q0 -52 -36.5 -88t-88.5 -36q-51 0 -87 36t-36 87t36 88t87 37q52 0 88.5 -36t36.5 -88zM643 1320q0 -52 -36.5 -88t-88.5 -36q-51 0 -87 36t-36 87t36 88t87 37q52 0 88.5 -36t36.5 -88zM842 -27q-131 0 -131 162q0 47 8 109q-29 -48 -66 -92.5t-83.5 -86.5
t-101.5 -67t-108 -25q-129 0 -183 90t-21 265l80 436q16 74 8 114q-8 38 -53 38q-44 0 -150 -50v8q64 74 152.5 134.5t164.5 60.5q173 0 117 -305l-82 -445q-20 -104 0 -156.5t78 -51.5q112 0 258 215l129 718h240l-137 -765q-15 -81 -7 -114q8 -32 56 -32t147 51l2 -8
q-61 -75 -151.5 -139.5t-165.5 -63.5z" />
    <glyph glyph-name="yacute" unicode="&#xfd;" horiz-adv-x="1017" 
d="M446 1174l-10 2q146 124 174 249l213 -12q-95 -168 -377 -239zM862 827v9q-41 -29 -88 -29q-51 0 -88 38.5t-37 90.5q0 63 39.5 98t103.5 35q77 0 120.5 -56.5t43.5 -135.5q0 -201 -335 -785q-341 -584 -609 -584q-85 0 -128 43q-44 44 -44 99q0 58 37 96.5t94 38.5
q64 0 100 -47.5t38 -114.5q148 52 307 283q-44 474 -148 805q-63 204 -131 202q-46 0 -147 -55v8q72 83 159.5 143t172.5 60q86 0 130 -107q45 -109 86 -338q43 -240 62 -425q243 451 262 628z" />
    <glyph glyph-name="thorn" unicode="&#xfe;" horiz-adv-x="1200" 
d="M457 39q173 0 297 174q125 175 125 387q0 157 -67 243q-68 87 -171 87q-73 0 -156 -45l-141 -815q56 -31 113 -31zM403 -463v-8h-514v8q30 11 53.5 26.5t40 38.5t27 42t19.5 51.5t13 52.5t11 59l238 1358q14 89 14 134q0 31 -13 55t-40 41.5t-47.5 27t-54.5 21.5v8
q228 13 444 92h8l-110 -620q154 145 299 145t245 -114q100 -112 100 -293q0 -179 -109 -342.5t-273 -253.5q-160 -89 -312 -91q-38 0 -114 9l-31 -177q-8 -43 -8 -111q2 -70 25 -103t89 -56z" />
    <glyph glyph-name="ydieresis" unicode="&#xff;" horiz-adv-x="1017" 
d="M895 1320q0 -52 -36.5 -88t-88.5 -36q-51 0 -87 36t-36 87q0 52 36 88.5t88 36.5q53 0 88.5 -36t35.5 -88zM452 1444q52 0 88 -36t35 -88q-2 -52 -37 -88t-87 -36q-51 0 -87 36t-36 87q0 52 36 88.5t88 36.5zM862 827v9q-41 -29 -88 -29q-51 0 -88 38.5t-37 90.5
q0 63 39.5 98t103.5 35q77 0 120.5 -56.5t43.5 -135.5q0 -201 -335 -785q-341 -584 -609 -584q-85 0 -128 43q-44 44 -44 99q0 58 37 96.5t94 38.5q64 0 100 -47.5t38 -114.5q148 52 307 283q-44 474 -148 805q-63 204 -131 202q-46 0 -147 -55v8q72 83 159.5 143t172.5 60
q86 0 130 -107q45 -109 86 -338q43 -240 62 -425q243 451 262 628z" />
    <glyph glyph-name="Amacron" unicode="&#x100;" horiz-adv-x="1447" 
d="M1130 1720l-18 -108h-504l19 108h503zM434 582h451l-111 684zM1331 8v-8h-538v8q83 18 111 66t28 140q0 100 -35 290h-502q-145 -297 -145 -387q0 -49 28 -71t84 -38v-8h-458v8q94 38 165 132q71 96 236 413l447 860h233l174 -1024q33 -191 70 -269q37 -79 102 -112z" />
    <glyph glyph-name="amacron" unicode="&#x101;" horiz-adv-x="1142" 
d="M1006 1352l-19 -109h-504l19 109h504zM465 135q102 0 231 160l113 655q-58 62 -121 64q-139 0 -250 -198q-111 -199 -110 -431q0 -247 137 -250zM813 -27q-131 0 -131 156q0 41 8 94q-179 -248 -336 -248q-110 1 -192 93q-82 91 -82 262q0 174 94.5 347.5t239.5 280.5
q149 110 295 111q47 0 121 -15q71 -16 97 -16q23 0 122 31h22l-141 -790q-24 -145 36 -145q58 0 160 50v-8q-59 -74 -148 -138t-165 -65z" />
    <glyph glyph-name="Abreve" unicode="&#x102;" horiz-adv-x="1447" 
d="M874 1528q-102 0 -152 81t-54 187h8q17 -67 77 -100t134 -33t145 36t107 97h8q-94 -268 -273 -268zM434 582h451l-111 684zM1331 8v-8h-538v8q83 18 111 66t28 140q0 100 -35 290h-502q-145 -297 -145 -387q0 -49 28 -71t84 -38v-8h-458v8q94 38 165 132q71 96 236 413
l447 860h233l174 -1024q33 -191 70 -269q37 -79 102 -112z" />
    <glyph glyph-name="abreve" unicode="&#x103;" horiz-adv-x="1142" 
d="M719 1159q-53 0 -93.5 23.5t-64 63.5t-35.5 85t-14 96h8q16 -64 76.5 -98.5t130.5 -34.5q76 0 147.5 35.5t108.5 97.5h8q-94 -268 -272 -268zM465 135q102 0 231 160l113 655q-58 62 -121 64q-139 0 -250 -198q-111 -199 -110 -431q0 -247 137 -250zM813 -27
q-131 0 -131 156q0 41 8 94q-179 -248 -336 -248q-110 1 -192 93q-82 91 -82 262q0 174 94.5 347.5t239.5 280.5q149 110 295 111q47 0 121 -15q71 -16 97 -16q23 0 122 31h22l-141 -790q-24 -145 36 -145q58 0 160 50v-8q-59 -74 -148 -138t-165 -65z" />
    <glyph glyph-name="Aogonek" unicode="&#x104;" horiz-adv-x="1447" 
d="M434 582h451l-111 684zM1245 -344v-8q-75 -76 -147 -76t-107 36q-35 37 -35 79q0 41 25 82.5t67 76.5t80 60t81 47q76 40 89 47h-505v8q83 18 111 66t28 140q0 100 -35 290h-502q-145 -297 -145 -387q0 -49 28 -71t84 -38v-8h-458v8q94 38 165 132q71 96 236 413l447 860
h233l174 -1024q33 -191 70 -269q37 -79 102 -112v-8q-77 -59 -141 -137.5t-64 -148.5q0 -65 82 -64q19 0 37 6z" />
    <glyph glyph-name="aogonek" unicode="&#x105;" horiz-adv-x="1142" 
d="M688 1014q-139 0 -250 -198q-111 -199 -110 -431q0 -247 137 -250q102 0 231 160l117 678q-58 41 -125 41zM1032 -344v-8q-76 -76 -148 -76t-106 36q-35 37 -35 79q0 75 102 190q42 47 104 112q70 71 95 101v14q-151 -131 -231 -131q-131 0 -131 156q0 41 8 94
q-179 -248 -336 -248q-110 1 -192 93q-82 91 -82 262q0 174 94.5 347.5t239.5 280.5q149 110 295 111q47 0 121 -15q71 -16 97 -16q23 0 122 31h22l-141 -790q-24 -145 36 -145q58 0 160 50v-8q-57 -80 -135 -238.5t-78 -224.5q0 -63 82 -63q19 0 37 6z" />
    <glyph glyph-name="Cacute" unicode="&#x106;" horiz-adv-x="1431" 
d="M825 1542l-10 2q145 124 174 250l213 -12q-96 -169 -377 -240zM803 -31q-141 1 -269.5 47t-227.5 128t-157.5 205t-58.5 267q0 242 147 443t377 300q192 83 392 83q94 0 223 -23.5t203 -58.5l-50 -299h-8q-98 311 -395 311q-181 0 -324 -116t-216 -294t-72 -380
q0 -244 126 -395q126 -152 320 -150q273 0 485 336h11l-82 -318q-77 -36 -193 -61q-123 -26 -231 -25z" />
    <glyph glyph-name="cacute" unicode="&#x107;" horiz-adv-x="903" 
d="M518 1174l-10 2q146 124 174 249l213 -12q-95 -168 -377 -239zM84 383q0 275 190 480q191 206 412 206q80 0 143 -41.5t64 -117.5q0 -61 -36.5 -104.5t-96.5 -43.5q-61 0 -97 36.5t-36 97.5q0 66 71 116v8q-170 0 -269 -164t-99 -362t61 -277q62 -80 164 -80
q133 0 283 164l12 -14q-175 -310 -422 -312q-84 0 -151 34t-108.5 91.5t-63 129.5t-21.5 153z" />
    <glyph glyph-name="Ccircumflex" unicode="&#x108;" horiz-adv-x="1431" 
d="M1069 1796l145 -264h-16l-203 115l-258 -115h-16l231 264h117zM803 -31q-141 1 -269.5 47t-227.5 128t-157.5 205t-58.5 267q0 242 147 443t377 300q192 83 392 83q94 0 223 -23.5t203 -58.5l-50 -299h-8q-98 311 -395 311q-181 0 -324 -116t-216 -294t-72 -380
q0 -244 126 -395q126 -152 320 -150q273 0 485 336h11l-82 -318q-77 -36 -193 -61q-123 -26 -231 -25z" />
    <glyph glyph-name="ccircumflex" unicode="&#x109;" horiz-adv-x="903" 
d="M737 1427l146 -264h-17l-202 115l-258 -115h-17l232 264h116zM84 383q0 275 190 480q191 206 412 206q80 0 143 -41.5t64 -117.5q0 -61 -36.5 -104.5t-96.5 -43.5q-61 0 -97 36.5t-36 97.5q0 66 71 116v8q-170 0 -269 -164t-99 -362t61 -277q62 -80 164 -80
q133 0 283 164l12 -14q-175 -310 -422 -312q-84 0 -151 34t-108.5 91.5t-63 129.5t-21.5 153z" />
    <glyph glyph-name="Cdotaccent" unicode="&#x10a;" horiz-adv-x="1431" 
d="M1124 1681q0 -57 -41 -97t-98 -40q-58 0 -97.5 39.5t-39.5 97.5q0 60 40.5 100t99.5 40q56 0 96 -42t40 -98zM803 -31q-141 1 -269.5 47t-227.5 128t-157.5 205t-58.5 267q0 242 147 443t377 300q192 83 392 83q94 0 223 -23.5t203 -58.5l-50 -299h-8q-98 311 -395 311
q-181 0 -324 -116t-216 -294t-72 -380q0 -244 126 -395q126 -152 320 -150q273 0 485 336h11l-82 -318q-77 -36 -193 -61q-123 -26 -231 -25z" />
    <glyph glyph-name="cdotaccent" unicode="&#x10b;" horiz-adv-x="903" 
d="M801 1313q0 -57 -41 -97t-98 -40q-59 0 -98.5 39t-39.5 97q0 59 40 99.5t98 40.5t98.5 -40.5t40.5 -98.5zM84 383q0 275 190 480q191 206 412 206q80 0 143 -41.5t64 -117.5q0 -61 -36.5 -104.5t-96.5 -43.5q-61 0 -97 36.5t-36 97.5q0 66 71 116v8q-170 0 -269 -164
t-99 -362t61 -277q62 -80 164 -80q133 0 283 164l12 -14q-175 -310 -422 -312q-84 0 -151 34t-108.5 91.5t-63 129.5t-21.5 153z" />
    <glyph glyph-name="Ccaron" unicode="&#x10c;" horiz-adv-x="1431" 
d="M1268 1796l-238 -264h-117l-139 264h17l198 -115l262 115h17zM803 -31q-141 1 -269.5 47t-227.5 128t-157.5 205t-58.5 267q0 242 147 443t377 300q192 83 392 83q94 0 223 -23.5t203 -58.5l-50 -299h-8q-98 311 -395 311q-181 0 -324 -116t-216 -294t-72 -380
q0 -244 126 -395q126 -152 320 -150q273 0 485 336h11l-82 -318q-77 -36 -193 -61q-123 -26 -231 -25z" />
    <glyph glyph-name="ccaron" unicode="&#x10d;" horiz-adv-x="903" 
d="M907 1427l-237 -264h-117l-139 264h16l199 -114l262 114h16zM84 383q0 275 190 480q191 206 412 206q80 0 143 -41.5t64 -117.5q0 -61 -36.5 -104.5t-96.5 -43.5q-61 0 -97 36.5t-36 97.5q0 66 71 116v8q-170 0 -269 -164t-99 -362t61 -277q62 -80 164 -80q133 0 283 164
l12 -14q-175 -310 -422 -312q-84 0 -151 34t-108.5 91.5t-63 129.5t-21.5 153z" />
    <glyph glyph-name="Dcaron" unicode="&#x10e;" horiz-adv-x="1591" 
d="M1184 1796l-238 -264h-117l-139 264h17l198 -115l262 115h17zM582 0h-619v8q56 17 92 40t58 59.5t33.5 74t21.5 99.5l149 854q11 71 11 121q0 59 -33 94t-94 55v8h614q306 0 518 -167q211 -166 211 -447q0 -235 -134.5 -420t-357.5 -283q-218 -96 -470 -96zM385 74h209
q291 0 481 219q189 218 191 520q0 143 -51 260t-157 191t-251 75h-203z" />
    <glyph glyph-name="dcaron" unicode="&#x10f;" horiz-adv-x="1368" 
d="M1311 1079l-21 2q4 36 4 88q0 44 -17 143t-17 133q0 42 29.5 70.5t71.5 28.5t72.5 -30t30.5 -72q0 -38 -66 -155q-66 -119 -87 -208zM692 1014q-142 0 -257 -198q-116 -199 -116 -423q0 -42 6 -81.5t21 -81.5t46.5 -68t76.5 -27q125 0 250 174l115 662q-58 43 -142 43z
M702 143q0 28 11 97q-193 -263 -357 -265q-110 2 -198 95q-88 94 -88 262q0 176 95.5 346.5t242.5 279.5q152 113 305 111q56 0 135 -14l20 110q12 71 12 127q0 36 -13 62t-40 43t-50 26.5t-62 20.5l2 8q230 12 452 92h9l-224 -1265q-10 -54 -10 -86q0 -63 51 -64
q52 0 154 51v-8q-61 -75 -150 -136.5t-168 -62.5q-129 0 -129 170z" />
    <glyph glyph-name="Dcroat" unicode="&#x110;" horiz-adv-x="1591" 
d="M385 74h209q291 0 481 219q189 218 191 520q0 143 -51 260t-157 191t-251 75h-203l-98 -567h248l-15 -88h-250zM582 0h-621l2 8q56 17 92 40t58 59.5t33.5 74t21.5 99.5l70 403h-136q4 19 8 40t6 32t3 16h135q6 35 39 199q32 159 34 251q1 87 -28 124q-29 36 -98 59v4
l2 4h612q306 0 518 -167q211 -166 211 -447q0 -235 -134.5 -420t-357.5 -283q-218 -96 -470 -96z" />
    <glyph glyph-name="dcroat" unicode="&#x111;" horiz-adv-x="1183" 
d="M838 971q-59 43 -148 43q-55 0 -107 -33t-91.5 -86t-68 -106t-47.5 -105q-52 -144 -52 -282q0 -44 5.5 -84t20 -84t47 -71t78.5 -28q114 2 250 187q54 305 113 649zM840 -27q-133 0 -133 164q0 40 10 103q-187 -263 -352 -265q-115 -1 -203 93t-88 263q0 176 95 346.5
t243 280.5q152 113 305 111q56 0 135 -14q1 7 6.5 36.5t9.5 51.5l9 41h-259l15 86h252q0 79 -39 113t-127 61l2 8q229 12 453 92h8l-49 -274h145l-14 -86h-146l-160 -905q-10 -54 -10 -86q0 -63 48 -63q46 0 157 50v-8q-57 -72 -147.5 -135t-165.5 -64z" />
    <glyph glyph-name="Emacron" unicode="&#x112;" horiz-adv-x="1187" 
d="M1014 1720l-19 -108h-503l18 108h504zM971 0h-1002v8q45 14 77.5 33t53 40t35 54t22.5 64.5t17 81.5l150 854q8 46 8 109q0 67 -29.5 103t-95.5 58v8h948l-53 -315h-10q-54 154 -104 198q-49 43 -165 43h-213l-100 -575h217q82 0 132 31t110 104h8l-57 -344h-9
q-36 76 -75.5 104.5t-120.5 28.5h-217l-107 -614h232q125 0 195 45q69 44 243 227h8z" />
    <glyph glyph-name="emacron" unicode="&#x113;" horiz-adv-x="956" 
d="M940 1352l-18 -109h-504l18 109h504zM610 1016q-100 0 -192 -152t-99 -354q93 6 177 45t132 109q82 116 83 225q0 53 -25.5 90t-75.5 37zM74 395q0 263 192 468q194 206 410 206q108 0 179 -54t71 -159q0 -108 -121 -223q-78 -72 -213 -111t-275 -51q2 -61 16 -116.5
t41.5 -105.5t76.5 -80t114 -30q165 0 301 162l15 -14q-61 -115 -174 -213t-273 -98q-114 0 -197.5 60t-123 153.5t-39.5 205.5z" />
    <glyph glyph-name="Ebreve" unicode="&#x114;" horiz-adv-x="1187" 
d="M752 1528q-53 0 -93.5 23.5t-64 63.5t-35.5 85t-14 96h8q15 -66 76 -99.5t135 -33.5t144.5 36t107.5 97h8q-94 -268 -272 -268zM971 0h-1002v8q45 14 77.5 33t53 40t35 54t22.5 64.5t17 81.5l150 854q8 46 8 109q0 67 -29.5 103t-95.5 58v8h948l-53 -315h-10
q-54 154 -104 198q-49 43 -165 43h-213l-100 -575h217q82 0 132 31t110 104h8l-57 -344h-9q-36 76 -75.5 104.5t-120.5 28.5h-217l-107 -614h232q125 0 195 45q69 44 243 227h8z" />
    <glyph glyph-name="ebreve" unicode="&#x115;" horiz-adv-x="956" 
d="M666 1159q-53 0 -93.5 23.5t-64 63.5t-35.5 85t-14 96h8q15 -64 75.5 -98.5t131.5 -34.5q75 0 146 36t110 97h8q-94 -268 -272 -268zM610 1016q-100 0 -192 -152t-99 -354q93 6 177 45t132 109q82 116 83 225q0 53 -25.5 90t-75.5 37zM74 395q0 263 192 468
q194 206 410 206q108 0 179 -54t71 -159q0 -108 -121 -223q-78 -72 -213 -111t-275 -51q2 -61 16 -116.5t41.5 -105.5t76.5 -80t114 -30q165 0 301 162l15 -14q-61 -115 -174 -213t-273 -98q-114 0 -197.5 60t-123 153.5t-39.5 205.5z" />
    <glyph glyph-name="Edotaccent" unicode="&#x116;" horiz-adv-x="1187" 
d="M893 1681q0 -57 -41 -97t-98 -40q-58 0 -98 39.5t-40 97.5q0 60 40.5 100t100.5 40q56 0 96 -41.5t40 -98.5zM971 0h-1002v8q45 14 77.5 33t53 40t35 54t22.5 64.5t17 81.5l150 854q8 46 8 109q0 67 -29.5 103t-95.5 58v8h948l-53 -315h-10q-54 154 -104 198
q-49 43 -165 43h-213l-100 -575h217q82 0 132 31t110 104h8l-57 -344h-9q-36 76 -75.5 104.5t-120.5 28.5h-217l-107 -614h232q125 0 195 45q69 44 243 227h8z" />
    <glyph glyph-name="edotaccent" unicode="&#x117;" horiz-adv-x="956" 
d="M811 1313q0 -57 -41 -97t-98 -40q-59 0 -98.5 39t-39.5 97q0 59 40 99.5t98 40.5t98.5 -40.5t40.5 -98.5zM610 1016q-100 0 -192 -152t-99 -354q93 6 177 45t132 109q82 116 83 225q0 53 -25.5 90t-75.5 37zM74 395q0 263 192 468q194 206 410 206q108 0 179 -54t71 -159
q0 -108 -121 -223q-78 -72 -213 -111t-275 -51q2 -61 16 -116.5t41.5 -105.5t76.5 -80t114 -30q165 0 301 162l15 -14q-61 -115 -174 -213t-273 -98q-114 0 -197.5 60t-123 153.5t-39.5 205.5z" />
    <glyph glyph-name="Eogonek" unicode="&#x118;" horiz-adv-x="1187" 
d="M891 -344v-8q-75 -76 -147 -76t-107 36q-35 37 -35 79q0 41 25 82.5t67 76.5t80 60t81 47q76 40 89 47h-975v8q45 14 77.5 33t53 40t35 54t22.5 64.5t17 81.5l150 854q8 46 8 109q0 67 -29.5 103t-95.5 58v8h948l-53 -315h-10q-54 154 -104 198q-49 43 -165 43h-213
l-100 -575h217q82 0 132 31t110 104h8l-57 -344h-9q-36 76 -75.5 104.5t-120.5 28.5h-217l-107 -614h232q125 0 195 45q69 44 243 227h8l-98 -346q-78 -63 -138.5 -139.5t-60.5 -146.5q0 -65 82 -64q19 0 37 6z" />
    <glyph glyph-name="eogonek" unicode="&#x119;" horiz-adv-x="956" 
d="M608 1016q-100 0 -190 -152t-99 -354q203 44 297 156q93 111 95 223q0 54 -25.5 90.5t-77.5 36.5zM815 -344v-8q-75 -76 -153 -76q-69 0 -112.5 31t-43.5 97q0 58 57 135q53 71 146 183q89 106 135 207q-169 -250 -404 -250q-114 0 -199 58t-126 150.5t-41 205.5
q0 172 89 332.5t235 256.5q137 91 260 91q72 0 129.5 -18t98 -66t40.5 -121q0 -122 -140 -230q-138 -107 -469 -163q0 -149 69 -241q69 -91 177 -91q167 0 303 162l15 -14q-27 -97 -116 -283q-91 -189 -91 -266q0 -88 94 -88q29 0 47 6z" />
    <glyph glyph-name="Ecaron" unicode="&#x11a;" horiz-adv-x="1187" 
d="M1022 1796l-238 -264h-116l-140 264h17l198 -115l263 115h16zM971 0h-1002v8q45 14 77.5 33t53 40t35 54t22.5 64.5t17 81.5l150 854q8 46 8 109q0 67 -29.5 103t-95.5 58v8h948l-53 -315h-10q-54 154 -104 198q-49 43 -165 43h-213l-100 -575h217q82 0 132 31t110 104h8
l-57 -344h-9q-36 76 -75.5 104.5t-120.5 28.5h-217l-107 -614h232q125 0 195 45q69 44 243 227h8z" />
    <glyph glyph-name="ecaron" unicode="&#x11b;" horiz-adv-x="956" 
d="M946 1427l-237 -264h-117l-139 264h16l199 -114l262 114h16zM610 1016q-100 0 -192 -152t-99 -354q93 6 177 45t132 109q82 116 83 225q0 53 -25.5 90t-75.5 37zM74 395q0 263 192 468q194 206 410 206q108 0 179 -54t71 -159q0 -108 -121 -223q-78 -72 -213 -111
t-275 -51q2 -61 16 -116.5t41.5 -105.5t76.5 -80t114 -30q165 0 301 162l15 -14q-61 -115 -174 -213t-273 -98q-114 0 -197.5 60t-123 153.5t-39.5 205.5z" />
    <glyph glyph-name="Gcircumflex" unicode="&#x11c;" horiz-adv-x="1548" 
d="M1071 1796l146 -264h-17l-203 115l-258 -115h-16l231 264h117zM1061 104l57 326q10 59 10 112q0 60 -32.5 93t-94.5 53v8h523v-8q-82 -32 -114 -78t-54 -180l-70 -397q-67 -11 -196 -34q-169 -30 -310 -30q-279 -1 -484 181q-204 182 -204 477q0 226 132.5 413t343.5 294
q211 106 448 108q104 0 240.5 -21.5t220.5 -56.5l-54 -299h-8q-121 307 -403 307q-186 0 -337.5 -114.5t-230.5 -293.5q-78 -177 -77 -368q0 -245 130 -390q131 -146 332 -147q123 0 232 45z" />
    <glyph glyph-name="gcircumflex" unicode="&#x11d;" horiz-adv-x="960" 
d="M651 1427l146 -264h-17l-202 115l-259 -115h-16l232 264h116zM359 441q32 -54 91 -54t109 78q88 139 88 348q0 33 -5.5 65t-18 64t-38 52t-61.5 20q-60 0 -108 -79q-86 -145 -86 -355q0 -83 29 -139zM498 -98l-275 90q-143 -68 -143 -186t98 -180t220 -62q46 0 95 8.5
t99 27t82 55.5t33 87q0 56 -48 90q-50 36 -161 70zM188 10q-84 54 -84 118q0 71 60.5 131t138.5 97q-96 33 -151 105t-56 172q0 113 63.5 214.5t166.5 161.5t215 60q129 0 217 -70q16 -2 35 -2q130 0 200 103q68 -44 68 -94q0 -47 -23.5 -78t-69.5 -31q-42 0 -149 39
q53 -73 53 -172q0 -173 -139 -300q-140 -128 -307 -128q-34 0 -68 6q-70 -40 -69 -90q0 -58 229 -118q46 -11 80.5 -21.5t80.5 -28t78.5 -39t62.5 -50t45.5 -67t15.5 -84.5q0 -103 -83 -183q-160 -153 -444 -153q-187 0 -336 76q-150 77 -149 195q0 165 319 231z" />
    <glyph glyph-name="Gbreve" unicode="&#x11e;" horiz-adv-x="1548" 
d="M1010 1528q-53 0 -93.5 23.5t-64 63.5t-35.5 85t-14 96h8q15 -66 76 -99.5t135 -33.5t144.5 36t107.5 97h8q-94 -268 -272 -268zM1061 104l57 326q10 59 10 112q0 60 -32.5 93t-94.5 53v8h523v-8q-82 -32 -114 -78t-54 -180l-70 -397q-67 -11 -196 -34q-169 -30 -310 -30
q-279 -1 -484 181q-204 182 -204 477q0 226 132.5 413t343.5 294q211 106 448 108q104 0 240.5 -21.5t220.5 -56.5l-54 -299h-8q-121 307 -403 307q-186 0 -337.5 -114.5t-230.5 -293.5q-78 -177 -77 -368q0 -245 130 -390q131 -146 332 -147q123 0 232 45z" />
    <glyph glyph-name="gbreve" unicode="&#x11f;" horiz-adv-x="960" 
d="M575 1159q-103 0 -152 81q-50 81 -54 187h8q15 -64 75.5 -98.5t131.5 -34.5q75 0 146 36t110 97h8q-94 -268 -273 -268zM359 441q32 -54 91 -54t109 78q88 139 88 348q0 33 -5.5 65t-18 64t-38 52t-61.5 20q-60 0 -108 -79q-86 -145 -86 -355q0 -83 29 -139zM498 -98
l-275 90q-143 -68 -143 -186t98 -180t220 -62q46 0 95 8.5t99 27t82 55.5t33 87q0 56 -48 90q-50 36 -161 70zM188 10q-84 54 -84 118q0 71 60.5 131t138.5 97q-96 33 -151 105t-56 172q0 113 63.5 214.5t166.5 161.5t215 60q129 0 217 -70q16 -2 35 -2q130 0 200 103
q68 -44 68 -94q0 -47 -23.5 -78t-69.5 -31q-42 0 -149 39q53 -73 53 -172q0 -173 -139 -300q-140 -128 -307 -128q-34 0 -68 6q-70 -40 -69 -90q0 -58 229 -118q46 -11 80.5 -21.5t80.5 -28t78.5 -39t62.5 -50t45.5 -67t15.5 -84.5q0 -103 -83 -183q-160 -153 -444 -153
q-187 0 -336 76q-150 77 -149 195q0 165 319 231z" />
    <glyph glyph-name="Gdotaccent" unicode="&#x120;" horiz-adv-x="1548" 
d="M1151 1681q0 -57 -41 -97t-98 -40q-58 0 -98 39.5t-40 97.5q0 60 40.5 100t100.5 40q56 0 96 -41.5t40 -98.5zM1061 104l57 326q10 59 10 112q0 60 -32.5 93t-94.5 53v8h523v-8q-82 -32 -114 -78t-54 -180l-70 -397q-67 -11 -196 -34q-169 -30 -310 -30q-279 -1 -484 181
q-204 182 -204 477q0 226 132.5 413t343.5 294q211 106 448 108q104 0 240.5 -21.5t220.5 -56.5l-54 -299h-8q-121 307 -403 307q-186 0 -337.5 -114.5t-230.5 -293.5q-78 -177 -77 -368q0 -245 130 -390q131 -146 332 -147q123 0 232 45z" />
    <glyph glyph-name="gdotaccent" unicode="&#x121;" horiz-adv-x="960" 
d="M709 1313q0 -57 -41 -97t-98 -40t-97.5 39.5t-40.5 96.5q0 58 39.5 99t97.5 41q56 0 99 -41t41 -98zM359 441q32 -54 91 -54t109 78q88 139 88 348q0 33 -5.5 65t-18 64t-38 52t-61.5 20q-60 0 -108 -79q-86 -145 -86 -355q0 -83 29 -139zM498 -98l-275 90
q-143 -68 -143 -186t98 -180t220 -62q46 0 95 8.5t99 27t82 55.5t33 87q0 56 -48 90q-50 36 -161 70zM188 10q-84 54 -84 118q0 71 60.5 131t138.5 97q-96 33 -151 105t-56 172q0 113 63.5 214.5t166.5 161.5t215 60q129 0 217 -70q16 -2 35 -2q130 0 200 103q68 -44 68 -94
q0 -47 -23.5 -78t-69.5 -31q-42 0 -149 39q53 -73 53 -172q0 -173 -139 -300q-140 -128 -307 -128q-34 0 -68 6q-70 -40 -69 -90q0 -58 229 -118q46 -11 80.5 -21.5t80.5 -28t78.5 -39t62.5 -50t45.5 -67t15.5 -84.5q0 -103 -83 -183q-160 -153 -444 -153q-187 0 -336 76
q-150 77 -149 195q0 165 319 231z" />
    <glyph glyph-name="Gcommaaccent" unicode="&#x122;" horiz-adv-x="1548" 
d="M672 -340q0 20 -18 59q-17 40 -17 79q0 44 33 73t78 29q50 0 85 -39t35 -90t-29.5 -99.5t-78 -85.5t-96.5 -63t-97 -45l-4 6q109 91 109 176zM1061 104l57 326q10 59 10 112q0 60 -32.5 93t-94.5 53v8h523v-8q-82 -32 -114 -78t-54 -180l-70 -397q-67 -11 -196 -34
q-169 -30 -310 -30q-279 -1 -484 181q-204 182 -204 477q0 226 132.5 413t343.5 294q211 106 448 108q104 0 240.5 -21.5t220.5 -56.5l-54 -299h-8q-121 307 -403 307q-186 0 -337.5 -114.5t-230.5 -293.5q-78 -177 -77 -368q0 -245 130 -390q131 -146 332 -147
q123 0 232 45z" />
    <glyph glyph-name="gcommaaccent" unicode="&#x123;" horiz-adv-x="960" 
d="M686 1391q0 -19 18 -59q17 -39 19 -78q0 -43 -36 -74t-80 -31q-50 0 -85 40t-35 91q1 51 31 99t78.5 84.5t97 63t97.5 44.5l4 -6q-109 -96 -109 -174zM359 441q32 -54 91 -54t109 78q88 139 88 348q0 33 -5.5 65t-18 64t-38 52t-61.5 20q-60 0 -108 -79
q-86 -145 -86 -355q0 -83 29 -139zM498 -98l-275 90q-143 -68 -143 -186t98 -180t220 -62q46 0 95 8.5t99 27t82 55.5t33 87q0 56 -48 90q-50 36 -161 70zM188 10q-84 54 -84 118q0 71 60.5 131t138.5 97q-96 33 -151 105t-56 172q0 113 63.5 214.5t166.5 161.5t215 60
q129 0 217 -70q16 -2 35 -2q130 0 200 103q68 -44 68 -94q0 -47 -23.5 -78t-69.5 -31q-42 0 -149 39q53 -73 53 -172q0 -173 -139 -300q-140 -128 -307 -128q-34 0 -68 6q-70 -40 -69 -90q0 -58 229 -118q46 -11 80.5 -21.5t80.5 -28t78.5 -39t62.5 -50t45.5 -67t15.5 -84.5
q0 -103 -83 -183q-160 -153 -444 -153q-187 0 -336 76q-150 77 -149 195q0 165 319 231z" />
    <glyph glyph-name="Hcircumflex" unicode="&#x124;" horiz-adv-x="1646" 
d="M1049 1796l145 -264h-16l-203 115l-258 -115h-17l232 264h117zM1466 8v-8h-575v8q103 32 143 88q42 59 64 185l67 401h-667l-76 -432q-6 -34 -6 -90q2 -113 127 -152v-8h-574v8q45 14 77.5 33t53 40t35 54t22.5 64.5t17 81.5l148 854q12 77 12 127q0 101 -127 143v8h575
v-8q-106 -33 -147.5 -91t-61.5 -179l-63 -369h672l63 369q12 76 12 127q0 58 -33 90.5t-94 52.5v8h576v-8q-108 -32 -148.5 -89.5t-60.5 -180.5l-147 -854q-12 -77 -12 -125q-1 -106 128 -148z" />
    <glyph glyph-name="hcircumflex" unicode="&#x125;" horiz-adv-x="1181" 
d="M565 1845l146 -264h-17l-202 115l-259 -115h-16l232 264h116zM831 1069q69 0 119.5 -41t74 -100t24.5 -127q0 -33 -11 -86l-84 -436q-10 -43 -10 -99q0 -53 50 -55q50 0 153 51v-8q-56 -71 -148.5 -132.5t-169.5 -62.5q-131 0 -131 174q0 57 15 132l86 444q8 43 8 92
q0 109 -94 109q-115 0 -250 -160l-135 -764h-246l213 1198q8 45 8 96q0 34 -12.5 59.5t-38.5 42.5t-48.5 26.5t-58.5 21.5l2 8q229 13 447 92h8l-123 -688q70 90 162 151t190 62z" />
    <glyph glyph-name="Hbar" unicode="&#x126;" horiz-adv-x="1646" 
d="M510 766h672l41 238h-672zM1466 8v-8h-575v8q103 32 143 88q42 59 64 185l67 401h-667l-76 -432q-6 -34 -6 -90q2 -113 127 -152v-8h-574v8q45 14 77.5 33t53 40t35 54t22.5 64.5t17 81.5l125 723h-160l13 79h159l11 52q12 77 12 127q0 101 -127 143v8h575v-8
q-106 -33 -147.5 -91t-61.5 -179l-10 -52h672l10 52q12 76 12 127q0 58 -33 90.5t-94 52.5v8h576v-8q-108 -32 -148.5 -89.5t-60.5 -180.5l-10 -52h172l-12 -79h-172l-125 -723q-12 -77 -12 -125q-1 -106 128 -148z" />
    <glyph glyph-name="hbar" unicode="&#x127;" horiz-adv-x="1189" 
d="M840 -27q-139 0 -140 166q0 50 17 140l86 444q20 120 -10 163q-29 44 -77 44q-62 0 -136 -69t-121 -140l-127 -721h-246l211 1184h-127l16 86h121q0 137 -157 174l2 8q230 13 446 92h8l-49 -274h274l-16 -86h-274l-66 -373q62 105 158 181.5t200 76.5t160 -76t58 -184
q0 -53 -9 -94l-84 -436q-12 -61 -12 -90q0 -64 50 -64t155 51v-8q-52 -67 -145.5 -130.5t-165.5 -64.5z" />
    <glyph glyph-name="Itilde" unicode="&#x128;" horiz-adv-x="724" 
d="M633 1573q-55 0 -140 36t-116 36q-80 0 -137 -76l-13 4q26 58 86 130q61 73 125 73t150 -33q84 -33 119 -33q87 0 137 72l12 -4q-32 -73 -94.5 -139t-128.5 -66zM543 8v-8h-574v8q56 17 92 40t58 58.5t33 72.5t22 100l148 856q12 65 12 119q0 60 -32.5 94t-94.5 57v8h575
v-8q-105 -32 -145.5 -90.5t-61.5 -179.5l-149 -856q-12 -67 -12 -121q0 -61 32.5 -95.5t96.5 -54.5z" />
    <glyph glyph-name="itilde" unicode="&#x129;" horiz-adv-x="632" 
d="M137 143q0 74 13 136l92 485q10 53 10 82q0 63 -50 63t-159 -51v8q59 71 150.5 136.5t162.5 66.5q136 0 138 -170q0 -45 -15 -135l-90 -485q-10 -54 -10 -89q0 -33 13 -49.5t38 -15.5q48 0 152 51v-8q-55 -69 -145.5 -131.5t-162.5 -63.5q-137 0 -137 170zM486 1204
q-56 0 -141 36t-116 36q-80 0 -137 -76l-12 4q32 82 100 142q70 61 123 61t137 -33t119 -33q87 0 137 72l13 -4q-32 -73 -94.5 -139t-128.5 -66z" />
    <glyph glyph-name="Imacron" unicode="&#x12a;" horiz-adv-x="724" 
d="M791 1720l-19 -108h-504l19 108h504zM543 8v-8h-574v8q56 17 92 40t58 58.5t33 72.5t22 100l148 856q12 65 12 119q0 60 -32.5 94t-94.5 57v8h575v-8q-105 -32 -145.5 -90.5t-61.5 -179.5l-149 -856q-12 -67 -12 -121q0 -61 32.5 -95.5t96.5 -54.5z" />
    <glyph glyph-name="imacron" unicode="&#x12b;" horiz-adv-x="632" 
d="M137 143q0 74 13 136l92 485q10 53 10 82q0 63 -50 63t-159 -51v8q59 71 150.5 136.5t162.5 66.5q136 0 138 -170q0 -45 -15 -135l-90 -485q-10 -54 -10 -89q0 -33 13 -49.5t38 -15.5q48 0 152 51v-8q-55 -69 -145.5 -131.5t-162.5 -63.5q-137 0 -137 170zM682 1352
l-18 -109h-504l18 109h504z" />
    <glyph glyph-name="Ibreve" unicode="&#x12c;" horiz-adv-x="724" 
d="M510 1528q-53 0 -93.5 23.5t-64 63.5t-35.5 85t-14 96h8q15 -66 76 -99.5t135 -33.5t144.5 36t107.5 97h8q-94 -268 -272 -268zM543 8v-8h-574v8q56 17 92 40t58 58.5t33 72.5t22 100l148 856q12 65 12 119q0 60 -32.5 94t-94.5 57v8h575v-8q-105 -32 -145.5 -90.5
t-61.5 -179.5l-149 -856q-12 -67 -12 -121q0 -61 32.5 -95.5t96.5 -54.5z" />
    <glyph glyph-name="ibreve" unicode="&#x12d;" horiz-adv-x="632" 
d="M137 143q0 74 13 136l92 485q10 53 10 82q0 63 -50 63t-159 -51v8q59 71 150.5 136.5t162.5 66.5q136 0 138 -170q0 -45 -15 -135l-90 -485q-10 -54 -10 -89q0 -33 13 -49.5t38 -15.5q48 0 152 51v-8q-55 -69 -145.5 -131.5t-162.5 -63.5q-137 0 -137 170zM395 1159
q-103 0 -152 81q-51 83 -55 187h9q16 -64 75.5 -98.5t130.5 -34.5q76 0 147.5 35.5t108.5 97.5h9q-94 -268 -273 -268z" />
    <glyph glyph-name="Iogonek" unicode="&#x12e;" horiz-adv-x="724" 
d="M453 -344v-8q-75 -76 -147 -76t-107 36q-35 37 -35 79q0 41 25 82.5t67 76.5t80 60t81 47q76 40 89 47h-537v8q56 17 92 40t58 58.5t33 72.5t22 100l148 856q12 65 12 119q0 60 -32.5 94t-94.5 57v8h575v-8q-105 -32 -145.5 -90.5t-61.5 -179.5l-149 -856
q-12 -67 -12 -121q0 -61 32.5 -95.5t96.5 -54.5v-8q-79 -56 -144 -134t-65 -151q0 -66 82 -65q19 0 37 6z" />
    <glyph glyph-name="iogonek" unicode="&#x12f;" horiz-adv-x="641" 
d="M439 1460q56 0 96 -40t40 -96q2 -56 -39 -95q-40 -39 -96 -39q-57 0 -96 38.5t-39 95.5q0 56 39 96t95 40zM496 -344v-8q-76 -76 -148 -76t-106 36q-35 37 -35 79q0 71 101 190q46 51 105 112q70 71 95 101v14q-151 -131 -232 -131q-135 0 -135 174q0 57 15 132l90 485
q6 34 6 90q0 55 -45 55q-44 0 -160 -51v8q68 78 154.5 140.5t163.5 62.5q131 0 131 -176q0 -70 -13 -129l-90 -485q-25 -145 35 -145q59 0 162 50v-8q-57 -80 -135 -238.5t-78 -224.5q0 -63 82 -63q19 0 37 6z" />
    <glyph glyph-name="Idotaccent" unicode="&#x130;" horiz-adv-x="724" 
d="M674 1681q0 -57 -41 -97t-98 -40q-58 0 -98 39.5t-40 97.5q0 60 40 100t100 40q57 0 97 -41.5t40 -98.5zM543 8v-8h-574v8q56 17 92 40t58 58.5t33 72.5t22 100l148 856q12 65 12 119q0 60 -32.5 94t-94.5 57v8h575v-8q-105 -32 -145.5 -90.5t-61.5 -179.5l-149 -856
q-12 -67 -12 -121q0 -61 32.5 -95.5t96.5 -54.5z" />
    <glyph glyph-name="dotlessi" unicode="&#x131;" horiz-adv-x="641" 
d="M256 846q0 63 -50 63t-159 -51v8q59 71 150.5 136.5t162.5 66.5q136 0 138 -170q0 -45 -15 -135l-90 -485q-10 -54 -10 -89q0 -33 13 -49.5t38 -15.5q48 0 152 51v-8q-54 -68 -144.5 -131t-162.5 -64q-136 0 -138 170q0 74 13 136l92 485q10 53 10 82z" />
    <glyph glyph-name="IJ" unicode="&#x132;" horiz-adv-x="1447" 
d="M848 -18l199 1153q10 50 10 113q0 64 -30.5 99.5t-94.5 57.5v8h575v-8q-106 -32 -146 -90t-61 -180l-182 -1053q-41 -234 -218 -356q-136 -95 -290 -154l-2 6q190 112 240 404zM543 8v-8h-574v8q56 17 92 40t58 58.5t33 72.5t22 100l148 856q12 65 12 119q0 60 -32.5 94
t-94.5 57v8h575v-8q-105 -32 -145.5 -90.5t-61.5 -179.5l-149 -856q-12 -67 -12 -121q0 -61 32.5 -95.5t96.5 -54.5z" />
    <glyph glyph-name="ij" unicode="&#x133;" horiz-adv-x="1251" 
d="M1071 1190q-57 0 -96 38.5t-39 95.5t39 96.5t96 39.5t96 -39.5t39 -96.5t-39 -95.5t-96 -38.5zM895 844q0 65 -51 65q-46 0 -156 -51v8q61 71 152 136.5t161 66.5q135 0 136 -174q0 -56 -13 -131l-114 -670q-11 -64 -37 -151q-94 -301 -457 -435l-4 13q86 52 143 169
t80 240l152 834q8 43 8 80zM571 1324q0 -56 -40 -95t-96 -39t-95 39t-39 95t39 96t95 40t96 -40t40 -96zM137 147q0 57 15 132l90 485q27 145 -41 145q-43 0 -158 -51v8q66 77 153.5 140t163.5 63q175 0 119 -305l-90 -485q-10 -59 -10 -89q0 -33 13 -49.5t38 -15.5
q48 0 152 51v-8q-57 -72 -146.5 -133t-165.5 -62q-133 0 -133 174z" />
    <glyph glyph-name="Jcircumflex" unicode="&#x134;" horiz-adv-x="720" 
d="M608 1796l146 -264h-17l-202 115l-259 -115h-16l232 264h116zM123 -18l199 1153q10 50 10 113q0 64 -30.5 99.5t-94.5 57.5v8h575v-8q-106 -32 -146 -90t-61 -180l-182 -1053q-41 -234 -218 -356q-141 -96 -290 -154l-2 6q190 112 240 404z" />
    <glyph glyph-name="jcircumflex" unicode="&#x135;" horiz-adv-x="616" 
d="M477 1427l146 -264h-17l-203 115l-258 -115h-16l231 264h117zM274 846q0 63 -49 63t-157 -51v8q56 71 147.5 136.5t163.5 66.5q137 0 137 -170q0 -57 -12 -135l-119 -686q-73 -418 -491 -570l-3 13q87 53 144 169t80 240l149 834q10 53 10 82z" />
    <glyph glyph-name="Kcommaaccent" unicode="&#x136;" horiz-adv-x="1478" 
d="M676 -100q51 0 86 -39t35 -90t-29.5 -99.5t-78 -85.5t-96.5 -63t-97 -45l-4 6q110 92 108 176q0 19 -17 59t-17 79q0 45 32.5 73.5t77.5 28.5zM1407 8v-8h-586v8q59 14 89 36t30 74t-78 220l-178 377l-221 -203l-43 -233q-12 -62 -12 -118q0 -62 33 -96.5t98 -56.5v-8
h-576v8q55 17 91 40t58 59t33.5 73t22.5 99l149 856q11 69 11 120q0 61 -32 95t-95 55v8h575v-8q-105 -33 -146.5 -92t-62.5 -178l-88 -510l463 440q160 151 160 238q0 66 -101 102v8h562v-8q-116 -39 -209 -100q-83 -55 -277 -232l-209 -190l306 -619q51 -108 97.5 -164.5
t135.5 -91.5z" />
    <glyph glyph-name="kcommaaccent" unicode="&#x137;" horiz-adv-x="1112" 
d="M423 -281q-17 40 -17 79q0 45 32.5 73.5t77.5 28.5q51 0 86 -39t35 -90t-29.5 -99.5t-78 -85.5t-96.5 -63t-97 -45l-4 6q110 92 108 176q0 19 -17 59zM934 1069q56 0 99.5 -39t43.5 -95q-2 -53 -23 -89q-37 -61 -156 -127q-52 -29 -111 -59q-80 -41 -103 -54l180 -370
q11 -24 21.5 -41t26 -36t36 -29t44.5 -10q41 0 130 40v-8q-49 -66 -139.5 -122t-164.5 -56q-76 0 -122 48t-108 201l-131 328q288 147 424 248q-43 18 -67 54.5t-24 84.5q0 54 45 92.5t99 38.5zM74 0l207 1165q14 89 14 134q0 31 -13.5 56t-39.5 41.5t-49 26.5t-56 21l2 8
q229 13 447 92h8l-275 -1544h-245z" />
    <glyph glyph-name="kgreenlandic" unicode="&#x138;" horiz-adv-x="1339" 
d="M1230 649q-50 0 -85 40t-35 91t30 99t79 84.5t97 63t97 44.5l4 -6q-109 -96 -108 -174q0 -19 18 -59q19 -39 19 -78q0 -43 -36 -74t-80 -31zM938 1069q56 0 99.5 -39t43.5 -95q-2 -53 -23 -89q-37 -61 -156 -127q-63 -35 -110 -59q-24 -12 -104 -54l180 -370
q11 -24 21.5 -41t26 -36t36 -29t44.5 -10q41 0 130 40v-8q-49 -66 -139.5 -122t-164.5 -56q-76 0 -122 48t-108 201l-131 328q288 147 424 248q-43 18 -67 54.5t-24 84.5q0 54 45 92.5t99 38.5zM250 844q0 65 -47 65q-51 0 -162 -51v8q59 71 150.5 136.5t162.5 66.5
q136 0 138 -170q0 -63 -15 -135l-147 -764h-234l144 762q10 59 10 82z" />
    <glyph glyph-name="Lacute" unicode="&#x139;" horiz-adv-x="1128" 
d="M401 1542l-10 2q145 124 174 250l213 -12q-96 -169 -377 -240zM940 0h-977v8q55 17 91 40t58 59t33.5 73t22.5 99l147 856q13 62 13 119q0 60 -32.5 94t-94.5 57v8h575v-8q-106 -32 -146 -90t-61 -180l-184 -1061h184q92 0 141.5 14.5t115.5 67.5q70 56 204 190h8z" />
    <glyph glyph-name="lacute" unicode="&#x13a;" horiz-adv-x="598" 
d="M336 1565l-10 2q145 124 174 250l213 -13q-95 -168 -377 -239zM352 195q0 -70 54 -70q48 0 151 51l2 -8q-57 -70 -147.5 -132t-163.5 -63q-140 0 -142 179q0 56 13 127l157 886q14 89 14 134q0 31 -13 55.5t-39.5 41.5t-47 26.5t-55.5 21.5v8q227 13 445 92h8l-226 -1265
q-10 -53 -10 -84z" />
    <glyph glyph-name="Lcommaaccent" unicode="&#x13b;" horiz-adv-x="1128" 
d="M426 -340q0 19 -17 59t-17 79q0 45 32.5 73.5t77.5 28.5q51 0 86 -39t35 -90t-29.5 -99.5t-78 -85.5t-96.5 -63t-97 -45l-5 6q109 91 109 176zM940 0h-977v8q55 17 91 40t58 59t33.5 73t22.5 99l147 856q13 62 13 119q0 60 -32.5 94t-94.5 57v8h575v-8q-106 -32 -146 -90
t-61 -180l-184 -1061h184q92 0 141.5 14.5t115.5 67.5q70 56 204 190h8z" />
    <glyph glyph-name="lcommaaccent" unicode="&#x13c;" horiz-adv-x="598" 
d="M211 -100q51 0 86 -39t35 -90t-29.5 -99.5t-78 -85.5t-96.5 -63t-97 -45l-4 6q110 92 108 176q0 19 -17 59q-18 39 -18 79q0 44 33 73t78 29zM352 195q0 -70 54 -70q48 0 151 51l2 -8q-57 -70 -147.5 -132t-163.5 -63q-140 0 -142 179q0 56 13 127l157 886q14 89 14 134
q0 31 -13 55.5t-39.5 41.5t-47 26.5t-55.5 21.5v8q227 13 445 92h8l-226 -1265q-10 -53 -10 -84z" />
    <glyph glyph-name="Lcaron" unicode="&#x13d;" horiz-adv-x="1128" 
d="M913 977l-20 2q4 36 4 88q0 45 -17 142q-18 94 -18 133q0 41 30.5 70.5t71.5 29.5q44 0 74 -32q31 -32 29 -70q0 -38 -67 -156q-68 -118 -87 -207zM940 0h-977v8q55 17 91 40t58 59t33.5 73t22.5 99l147 856q13 62 13 119q0 60 -32.5 94t-94.5 57v8h575v-8
q-106 -32 -146 -90t-61 -180l-184 -1061h184q92 0 141.5 14.5t115.5 67.5q70 56 204 190h8z" />
    <glyph glyph-name="lcaron" unicode="&#x13e;" horiz-adv-x="765" 
d="M711 1169q1 45 -17 143q-18 96 -18 133q0 42 30 70.5t72 28.5q41 0 72 -30.5t31 -71.5q0 -39 -67 -155q-68 -119 -87 -208l-20 2q4 36 4 88zM352 195q0 -70 54 -70q48 0 151 51l2 -8q-57 -70 -147.5 -132t-163.5 -63q-140 0 -142 179q0 56 13 127l157 886q14 89 14 134
q0 31 -13 55.5t-39.5 41.5t-47 26.5t-55.5 21.5v8q227 13 445 92h8l-226 -1265q-10 -53 -10 -84z" />
    <glyph glyph-name="Ldot" unicode="&#x13f;" horiz-adv-x="1128" 
d="M742 874q63 0 106 -43q44 -44 43 -105q1 -61 -43 -105q-43 -43 -106 -43q-62 0 -106 43t-44 105t44 105t106 43zM940 0h-977v8q55 17 91 40t58 59t33.5 73t22.5 99l147 856q13 62 13 119q0 60 -32.5 94t-94.5 57v8h575v-8q-106 -32 -146 -90t-61 -180l-184 -1061h184
q92 0 141.5 14.5t115.5 67.5q70 56 204 190h8z" />
    <glyph glyph-name="ldot" unicode="&#x140;" horiz-adv-x="784" 
d="M683 584q-62 0 -106.5 43t-44.5 105q0 63 44 106t107 43t105.5 -43t42.5 -106q0 -62 -43 -105t-105 -43zM352 195q0 -70 54 -70q48 0 151 51l2 -8q-57 -70 -147.5 -132t-163.5 -63q-140 0 -142 179q0 56 13 127l157 886q14 89 14 134q0 31 -13 55.5t-39.5 41.5t-47 26.5
t-55.5 21.5v8q227 13 445 92h8l-226 -1265q-10 -53 -10 -84z" />
    <glyph glyph-name="Lslash" unicode="&#x141;" horiz-adv-x="1128" 
d="M940 0h-979l2 8q94 28 140.5 88t62.5 162l47 283l-145 -45l16 94l145 45l86 500q13 62 13 119q0 60 -32.5 94t-94.5 57v4l2 4h575v-4l-2 -4q-107 -33 -147 -90.5t-60 -179.5l-71 -416l237 76l-16 -95l-238 -75l-96 -551h279q74 0 144 52q72 54 222 220h8z" />
    <glyph glyph-name="lslash" unicode="&#x142;" horiz-adv-x="606" 
d="M250 -27q-141 0 -141 179q0 38 14 127l94 532l-154 -53l17 100l158 53l43 254q12 72 12 127q0 34 -12.5 59t-38 43t-47 27.5t-58.5 22.5l2 8q227 13 445 92h8l-96 -540l163 59l-18 -100l-164 -60l-115 -647q-6 -35 -6 -61q0 -70 48 -70q47 0 157 51v-8
q-52 -67 -145.5 -130.5t-165.5 -64.5z" />
    <glyph glyph-name="Nacute" unicode="&#x143;" horiz-adv-x="1601" 
d="M801 1542l-10 2q145 124 174 250l213 -12q-96 -169 -377 -240zM426 1194l-131 -752q-29 -171 -29 -248q0 -75 25.5 -117t93.5 -69v-8h-428v8q73 26 110 64q74 75 126 370l126 746q1 10 3 33q0 137 -158 184v8h416l663 -1069l111 629q28 158 28 243q0 76 -25 118t-93 71v8
h428v-8q-71 -27 -111 -65q-74 -73 -125 -367l-172 -987h-110z" />
    <glyph glyph-name="nacute" unicode="&#x144;" horiz-adv-x="1187" 
d="M539 1174l-11 2q146 124 174 249l213 -12q-94 -168 -376 -239zM731 924q-113 0 -252 -162l-133 -762h-242l136 764q8 46 8 78q0 34 -12 51t-37 16q-41 0 -156 -51v8q62 73 151 138.5t159 65.5q74 0 108.5 -51.5t34.5 -129.5q0 -26 -7 -58q178 238 361 238q126 0 181 -93
q56 -94 26 -261l-84 -436q-8 -53 -8 -91q0 -63 49 -63t151 51l2 -8q-58 -74 -149 -134t-171 -60q-81 0 -112 79q-31 78 -2 226l88 442q44 203 -90 203z" />
    <glyph glyph-name="Ncommaaccent" unicode="&#x145;" horiz-adv-x="1601" 
d="M664 -340q0 20 -18 59q-17 40 -17 79q0 45 32.5 73.5t77.5 28.5q51 0 86 -39t35 -90t-29.5 -99.5t-78 -85.5t-96.5 -63t-97 -45l-4 6q109 91 109 176zM426 1194l-131 -752q-29 -171 -29 -248q0 -75 25.5 -117t93.5 -69v-8h-428v8q73 26 110 64q74 75 126 370l126 746
q1 10 3 33q0 137 -158 184v8h416l663 -1069l111 629q28 158 28 243q0 76 -25 118t-93 71v8h428v-8q-71 -27 -111 -65q-74 -73 -125 -367l-172 -987h-110z" />
    <glyph glyph-name="ncommaaccent" unicode="&#x146;" horiz-adv-x="1187" 
d="M457 -340q0 20 -18 59q-17 40 -17 79q0 44 32.5 73t77.5 29q51 0 86 -39t35 -90t-29.5 -99.5t-78 -85.5t-96.5 -63t-97 -45l-4 6q109 91 109 176zM731 924q-113 0 -252 -162l-133 -762h-242l136 764q8 46 8 78q0 34 -12 51t-37 16q-41 0 -156 -51v8q62 73 151 138.5
t159 65.5q74 0 108.5 -51.5t34.5 -129.5q0 -26 -7 -58q178 238 361 238q126 0 181 -93q56 -94 26 -261l-84 -436q-8 -53 -8 -91q0 -63 49 -63t151 51l2 -8q-58 -74 -149 -134t-171 -60q-81 0 -112 79q-31 78 -2 226l88 442q44 203 -90 203z" />
    <glyph glyph-name="Ncaron" unicode="&#x147;" horiz-adv-x="1601" 
d="M1241 1796l-237 -264h-117l-139 264h16l199 -115l262 115h16zM426 1194l-131 -752q-29 -171 -29 -248q0 -75 25.5 -117t93.5 -69v-8h-428v8q73 26 110 64q74 75 126 370l126 746q1 10 3 33q0 137 -158 184v8h416l663 -1069l111 629q28 158 28 243q0 76 -25 118t-93 71v8
h428v-8q-71 -27 -111 -65q-74 -73 -125 -367l-172 -987h-110z" />
    <glyph glyph-name="ncaron" unicode="&#x148;" horiz-adv-x="1187" 
d="M977 1427l-238 -264h-116l-140 264h17l198 -114l263 114h16zM731 924q-113 0 -252 -162l-133 -762h-242l136 764q8 46 8 78q0 34 -12 51t-37 16q-41 0 -156 -51v8q62 73 151 138.5t159 65.5q74 0 108.5 -51.5t34.5 -129.5q0 -26 -7 -58q178 238 361 238q126 0 181 -93
q56 -94 26 -261l-84 -436q-8 -53 -8 -91q0 -63 49 -63t151 51l2 -8q-58 -74 -149 -134t-171 -60q-81 0 -112 79q-31 78 -2 226l88 442q44 203 -90 203z" />
    <glyph glyph-name="napostrophe" unicode="&#x149;" horiz-adv-x="1187" 
d="M383 1321q0 19 -17 59q-18 39 -18 78q0 43 34 74t78 31q50 0 86 -40t36 -91t-30 -99t-79 -84.5t-97 -63t-97 -44.5l-5 6q109 91 109 174zM731 924q-113 0 -252 -162l-133 -762h-242l136 764q8 46 8 78q0 34 -12 51t-37 16q-41 0 -156 -51v8q62 73 151 138.5t159 65.5
q74 0 108.5 -51.5t34.5 -129.5q0 -26 -7 -58q178 238 361 238q126 0 181 -93q56 -94 26 -261l-84 -436q-8 -53 -8 -91q0 -63 49 -63t151 51l2 -8q-58 -74 -149 -134t-171 -60q-81 0 -112 79q-31 78 -2 226l88 442q44 203 -90 203z" />
    <glyph glyph-name="Eng" unicode="&#x14a;" horiz-adv-x="1601" 
d="M164 1405v8h416l663 -1069l111 629q52 276 -1 364q-26 41 -89 68v8h428v-8q-107 -38 -150 -116q-44 -81 -86 -316l-147 -842q-14 -77 -35.5 -147.5t-59 -144t-85.5 -127.5t-117.5 -88.5t-151.5 -35.5q-49 0 -87 21t-38 67q0 41 37 82q60 -28 111 -29q88 -4 163 63
q69 64 97 149l20 63l-737 1190l-131 -752q-29 -163 -29 -244q0 -80 24 -121.5t95 -68.5v-8h-428v8q71 25 112 69q74 82 134 429l116 682l3 31q0 139 -158 186z" />
    <glyph glyph-name="eng" unicode="&#x14b;" horiz-adv-x="1196" 
d="M831 807q0 123 -92 123q-44 0 -99 -37.5t-93.5 -79t-69.5 -84.5l-127 -729h-241l135 764q10 49 10 82q0 63 -49 63q-48 0 -158 -51v8q60 74 150.5 138.5t164.5 64.5q135 0 136 -166q0 -27 -9 -92q62 103 160.5 180t202.5 78q98 0 158 -73q60 -74 59 -189q0 -49 -8 -92
l-121 -684q-67 -376 -485 -523l-2 11q86 52 143 169t80 240l147 795q8 61 8 84z" />
    <glyph glyph-name="Omacron" unicode="&#x14c;" horiz-adv-x="1648" 
d="M1235 1720l-18 -108h-504l18 108h504zM350 551q0 -74 14 -145.5t44.5 -138t75.5 -117t111.5 -80.5t146.5 -31q183 0 319 124q141 129 207 311t66 391q0 74 -14 144.5t-44.5 137t-75 116t-110.5 79.5t-146 30q-180 0 -317 -120q-142 -125 -209.5 -309.5t-67.5 -391.5z
M1604 791q0 -132 -48 -258.5t-132.5 -227t-193.5 -177t-238 -118t-259 -41.5q-261 0 -458 174t-195 465q0 204 105 381.5t283 295.5q236 157 487 157q250 0 449 -181q200 -182 200 -470z" />
    <glyph glyph-name="omacron" unicode="&#x14d;" horiz-adv-x="1136" 
d="M944 1352l-18 -109h-504l18 109h504zM496 29q47 0 88 26.5t70 70.5t48.5 87t32.5 89q63 217 65 383q2 329 -165 329q-129 0 -215 -210q-86 -211 -86 -474q0 -37 3 -72t13.5 -78.5t27.5 -75t47.5 -53.5t70.5 -22zM485 -25q-120 0 -213.5 62t-141.5 162t-48 219
q0 256 174 454q174 199 395 197q168 0 286 -124t118 -318q-2 -257 -173 -454q-172 -198 -397 -198z" />
    <glyph glyph-name="Obreve" unicode="&#x14e;" horiz-adv-x="1648" 
d="M963 1528q-53 0 -93.5 23.5t-64 63.5t-35.5 85t-14 96h8q17 -67 77 -100t134 -33t145 36t107 97h8q-94 -268 -272 -268zM350 551q0 -74 14 -145.5t44.5 -138t75.5 -117t111.5 -80.5t146.5 -31q183 0 319 124q141 129 207 311t66 391q0 74 -14 144.5t-44.5 137t-75 116
t-110.5 79.5t-146 30q-180 0 -317 -120q-142 -125 -209.5 -309.5t-67.5 -391.5zM1604 791q0 -132 -48 -258.5t-132.5 -227t-193.5 -177t-238 -118t-259 -41.5q-261 0 -458 174t-195 465q0 204 105 381.5t283 295.5q236 157 487 157q250 0 449 -181q200 -182 200 -470z" />
    <glyph glyph-name="obreve" unicode="&#x14f;" horiz-adv-x="1136" 
d="M668 1159q-53 0 -93.5 23.5t-64 63.5t-35.5 85t-14 96h8q15 -64 75.5 -98.5t131.5 -34.5q75 0 146 36t110 97h8q-94 -268 -272 -268zM496 29q47 0 88 26.5t70 70.5t48.5 87t32.5 89q63 217 65 383q2 329 -165 329q-129 0 -215 -210q-86 -211 -86 -474q0 -37 3 -72
t13.5 -78.5t27.5 -75t47.5 -53.5t70.5 -22zM485 -25q-120 0 -213.5 62t-141.5 162t-48 219q0 256 174 454q174 199 395 197q168 0 286 -124t118 -318q-2 -257 -173 -454q-172 -198 -397 -198z" />
    <glyph glyph-name="Ohungarumlaut" unicode="&#x150;" horiz-adv-x="1648" 
d="M1061 1532h-19q76 153 91 250h157q-84 -148 -229 -250zM817 1532h-18q77 155 90 250h158q-83 -147 -230 -250zM350 551q0 -74 14 -145.5t44.5 -138t75.5 -117t111.5 -80.5t146.5 -31q183 0 319 124q141 129 207 311t66 391q0 74 -14 144.5t-44.5 137t-75 116t-110.5 79.5
t-146 30q-180 0 -317 -120q-142 -125 -209.5 -309.5t-67.5 -391.5zM1604 791q0 -132 -48 -258.5t-132.5 -227t-193.5 -177t-238 -118t-259 -41.5q-261 0 -458 174t-195 465q0 204 105 381.5t283 295.5q236 157 487 157q250 0 449 -181q200 -182 200 -470z" />
    <glyph glyph-name="ohungarumlaut" unicode="&#x151;" horiz-adv-x="1136" 
d="M748 1163h-19q77 155 90 250h158q-84 -148 -229 -250zM504 1163h-19q77 155 90 250h158q-84 -148 -229 -250zM496 29q47 0 88 26.5t70 70.5t48.5 87t32.5 89q63 217 65 383q2 329 -165 329q-129 0 -215 -210q-86 -211 -86 -474q0 -37 3 -72t13.5 -78.5t27.5 -75
t47.5 -53.5t70.5 -22zM485 -25q-120 0 -213.5 62t-141.5 162t-48 219q0 256 174 454q174 199 395 197q168 0 286 -124t118 -318q-2 -257 -173 -454q-172 -198 -397 -198z" />
    <glyph glyph-name="OE" unicode="&#x152;" horiz-adv-x="2263" 
d="M350 552q0 -75 14 -146.5t44.5 -138t75.5 -117t111.5 -80.5t146.5 -31q183 0 319 124q141 129 207 310.5t66 390.5q0 74 -13.5 145t-44.5 137t-75.5 116t-110.5 80t-146 30q-180 0 -317 -120q-143 -125 -210 -308.5t-67 -391.5zM1898 1339h-212l-101 -575h215
q83 0 134 31t110 104h8l-57 -344h-10q-36 76 -75.5 104.5t-119.5 28.5h-217l-107 -614h183q165 0 233 39t254 233h8l-100 -346h-844l27 158q-212 -188 -483 -188q-272 0 -469 173q-197 174 -195 465q0 176 82 336q152 296 487 435q151 61 295 63q306 0 461 -264l43 235h782
l-55 -315h-8q-57 154 -105 198q-46 43 -164 43z" />
    <glyph glyph-name="oe" unicode="&#x153;" horiz-adv-x="1654" 
d="M1405 889q0 54 -25 90.5t-77 36.5q-97 0 -189 -152q-93 -153 -100 -354q202 44 297 156q94 112 94 223zM338 347q0 -318 161 -318q47 -1 87.5 24.5t69.5 70.5t52 95.5t39 110.5t25.5 103t15.5 85q42 283 -25 413q-42 83 -127 83q-53 0 -99.5 -38.5t-78.5 -99.5t-52 -116
t-32 -107q-36 -156 -36 -306zM86 420q0 256 174 452q173 195 392 197q218 0 311 -213q84 95 187.5 154t216.5 59q106 0 179.5 -51.5t73.5 -153.5q0 -122 -139 -230q-139 -107 -469 -163q0 -60 13.5 -116.5t41.5 -106t77 -79.5t113 -30q167 0 304 162l14 -14
q-72 -133 -187 -222.5t-251 -89.5q-201 0 -295 181q-148 -180 -336 -180q-192 0 -306 125t-114 319z" />
    <glyph glyph-name="Racute" unicode="&#x154;" horiz-adv-x="1333" 
d="M655 1542l-10 2q145 124 174 250l213 -12q-96 -169 -377 -240zM494 698h122q165 0 274.5 100t108.5 263q0 126 -73.5 204t-198.5 78h-123zM1278 8v-8h-145q-129 0 -181 12q-53 12 -81 46q-31 36 -74 135l-199 442h-115l-63 -354q-12 -63 -12 -123q0 -111 131 -150v-8
h-576v8q56 17 92 40t58 59.5t33.5 74t21.5 99.5l149 854q27 149 -16 207q-27 38 -100 63v8h536q75 0 144.5 -9.5t140 -35t122 -64.5t84.5 -103t34 -146q0 -291 -435 -377l242 -455q68 -124 101 -160q34 -37 108 -55z" />
    <glyph glyph-name="racute" unicode="&#x155;" horiz-adv-x="839" 
d="M406 1174l-11 2q145 124 174 249l213 -12q-94 -168 -376 -239zM246 846q0 63 -49 63t-158 -51v8q61 75 150.5 139t164.5 64q123 0 123 -166q0 -36 -14 -129q118 295 274 295q61 0 105 -41q45 -41 43 -97q0 -54 -36 -93t-90 -39q-52 0 -93 34t-52 85q-69 -60 -108 -152.5
t-68 -216.5l-94 -549h-244l136 762q10 53 10 84z" />
    <glyph glyph-name="Rcommaaccent" unicode="&#x156;" horiz-adv-x="1333" 
d="M511 -281q-17 40 -17 79q0 45 32.5 73.5t77.5 28.5q51 0 86 -39t35 -90t-29.5 -99.5t-78 -85.5t-96.5 -63t-97 -45l-4 6q110 92 108 176q0 19 -17 59zM494 698h122q165 0 274.5 100t108.5 263q0 126 -73.5 204t-198.5 78h-123zM1278 8v-8h-145q-129 0 -181 12
q-53 12 -81 46q-31 36 -74 135l-199 442h-115l-63 -354q-12 -63 -12 -123q0 -111 131 -150v-8h-576v8q56 17 92 40t58 59.5t33.5 74t21.5 99.5l149 854q27 149 -16 207q-27 38 -100 63v8h536q75 0 144.5 -9.5t140 -35t122 -64.5t84.5 -103t34 -146q0 -291 -435 -377
l242 -455q68 -124 101 -160q34 -37 108 -55z" />
    <glyph glyph-name="rcommaaccent" unicode="&#x157;" horiz-adv-x="839" 
d="M117 -340q0 20 -18 59q-17 40 -17 79q0 44 32.5 73t77.5 29q48 0 86 -38q37 -38 35 -91q0 -51 -29.5 -99.5t-78 -85.5t-96.5 -63t-97 -45l-4 6q109 91 109 176zM246 846q0 63 -49 63t-158 -51v8q61 75 150.5 139t164.5 64q123 0 123 -166q0 -36 -14 -129q118 295 274 295
q61 0 105 -41q45 -41 43 -97q0 -54 -36 -93t-90 -39q-52 0 -93 34t-52 85q-69 -60 -108 -152.5t-68 -216.5l-94 -549h-244l136 762q10 53 10 84z" />
    <glyph glyph-name="Rcaron" unicode="&#x158;" horiz-adv-x="1333" 
d="M1059 1796l-238 -264h-116l-140 264h17l198 -115l262 115h17zM494 698h122q165 0 274.5 100t108.5 263q0 126 -73.5 204t-198.5 78h-123zM1278 8v-8h-145q-129 0 -181 12q-53 12 -81 46q-31 36 -74 135l-199 442h-115l-63 -354q-12 -63 -12 -123q0 -111 131 -150v-8h-576
v8q56 17 92 40t58 59.5t33.5 74t21.5 99.5l149 854q27 149 -16 207q-27 38 -100 63v8h536q75 0 144.5 -9.5t140 -35t122 -64.5t84.5 -103t34 -146q0 -291 -435 -377l242 -455q68 -124 101 -160q34 -37 108 -55z" />
    <glyph glyph-name="rcaron" unicode="&#x159;" horiz-adv-x="839" 
d="M811 1427l-238 -264h-116l-140 264h17l198 -114l263 114h16zM246 846q0 63 -49 63t-158 -51v8q61 75 150.5 139t164.5 64q123 0 123 -166q0 -36 -14 -129q118 295 274 295q61 0 105 -41q45 -41 43 -97q0 -54 -36 -93t-90 -39q-52 0 -93 34t-52 85q-69 -60 -108 -152.5
t-68 -216.5l-94 -549h-244l136 762q10 53 10 84z" />
    <glyph glyph-name="Sacute" unicode="&#x15a;" horiz-adv-x="1048" 
d="M561 1542l-10 2q145 124 174 250l213 -12q-96 -169 -377 -240zM436 39q112 0 188 70t76 161q0 156 -184 304q-65 52 -152 129q-186 162 -186 339q0 176 153 288q152 112 337 112q184 0 360 -84l-51 -299h-8q-19 58 -47.5 110.5t-68.5 99.5t-94.5 75t-116.5 28
q-98 0 -168.5 -62t-70.5 -159q0 -122 147 -242q143 -117 225 -194q157 -148 157 -325q0 -178 -153 -299q-154 -122 -363 -122q-97 -1 -220 25q-118 25 -178 63l62 355h8q16 -54 35.5 -102t50.5 -99t67.5 -87t87 -60t107.5 -25z" />
    <glyph glyph-name="sacute" unicode="&#x15b;" horiz-adv-x="804" 
d="M371 1174l-11 2q145 124 175 249l213 -12q-95 -168 -377 -239zM158 82q58 -51 149 -51q80 0 142.5 44.5t62.5 122.5q0 115 -134 216q-54 39 -113 86q-134 108 -134 254q0 147 113 231t238 84t210 -58q86 -59 86 -145q0 -55 -35.5 -93t-90.5 -38q-52 0 -89 35.5t-37 86.5
q0 50 34.5 87.5t84.5 38.5q-53 29 -131 29q-73 0 -128.5 -40t-55.5 -110q0 -109 137 -210q62 -46 113 -87q137 -111 137 -262t-120 -240q-119 -88 -258 -88t-233 70t-94 166q0 58 35.5 97.5t92.5 39.5q56 0 98 -39t41 -94q0 -53 -34.5 -91t-86.5 -42z" />
    <glyph glyph-name="Scircumflex" unicode="&#x15c;" horiz-adv-x="1048" 
d="M758 1796l145 -264h-16l-203 115l-258 -115h-16l231 264h117zM436 39q112 0 188 70t76 161q0 156 -184 304q-65 52 -152 129q-186 162 -186 339q0 176 153 288q152 112 337 112q184 0 360 -84l-51 -299h-8q-19 58 -47.5 110.5t-68.5 99.5t-94.5 75t-116.5 28
q-98 0 -168.5 -62t-70.5 -159q0 -122 147 -242q143 -117 225 -194q157 -148 157 -325q0 -178 -153 -299q-154 -122 -363 -122q-97 -1 -220 25q-118 25 -178 63l62 355h8q16 -54 35.5 -102t50.5 -99t67.5 -87t87 -60t107.5 -25z" />
    <glyph glyph-name="scircumflex" unicode="&#x15d;" horiz-adv-x="804" 
d="M600 1427l145 -264h-16l-203 115l-258 -115h-16l231 264h117zM158 82q58 -51 149 -51q80 0 142.5 44.5t62.5 122.5q0 115 -134 216q-54 39 -113 86q-134 108 -134 254q0 147 113 231t238 84t210 -58q86 -59 86 -145q0 -55 -35.5 -93t-90.5 -38q-52 0 -89 35.5t-37 86.5
q0 50 34.5 87.5t84.5 38.5q-53 29 -131 29q-73 0 -128.5 -40t-55.5 -110q0 -109 137 -210q62 -46 113 -87q137 -111 137 -262t-120 -240q-119 -88 -258 -88t-233 70t-94 166q0 58 35.5 97.5t92.5 39.5q56 0 98 -39t41 -94q0 -53 -34.5 -91t-86.5 -42z" />
    <glyph glyph-name="Scedilla" unicode="&#x15e;" horiz-adv-x="1048" 
d="M137 -375l29 23q54 -27 112 -27q51 0 91.5 22t40.5 69q0 45 -58.5 74t-109.5 30l147 153q-93 4 -201.5 27t-169.5 61l62 355h8q16 -54 35.5 -102t50.5 -99t67.5 -87t87 -60t107.5 -25q112 0 188 70t76 161q0 156 -184 304q-65 52 -152 129q-186 162 -186 339
q0 176 153 288q152 112 337 112q184 0 360 -84l-51 -299h-8q-19 58 -47.5 110.5t-68.5 99.5t-94.5 75t-116.5 28q-98 0 -168.5 -62t-70.5 -159q0 -122 147 -242q143 -117 225 -194q157 -148 157 -322q0 -76 -27.5 -142.5t-74 -115.5t-108 -85t-130.5 -55.5t-141 -23.5
l-62 -75q60 -6 115 -50t53 -106q0 -56 -42.5 -100t-99.5 -57q-52 -11 -102 -11q-109 0 -176 53z" />
    <glyph glyph-name="scedilla" unicode="&#x15f;" horiz-adv-x="813" 
d="M55 -375l29 23q54 -27 112 -27q51 0 91.5 22t40.5 69q0 45 -58.5 74t-109.5 30l153 159q-123 6 -210 75t-87 161q0 58 35.5 97.5t92.5 39.5q56 0 98 -39t41 -94q0 -53 -34.5 -91t-86.5 -42q58 -51 149 -51q80 0 142.5 44.5t62.5 122.5q0 115 -134 216q-54 39 -113 86
q-134 108 -134 254q0 147 113 231t238 84t210 -58q86 -59 86 -145q0 -55 -35.5 -93t-90.5 -38q-52 0 -89 35.5t-37 86.5q0 50 34.5 87.5t84.5 38.5q-53 29 -131 29q-73 0 -128.5 -40t-55.5 -110q0 -109 137 -210q62 -46 113 -87q137 -111 137 -262q1 -139 -103 -225
t-241 -101l-70 -81q60 -6 115 -50t53 -106q0 -56 -42.5 -100t-99.5 -57q-52 -11 -102 -11q-109 0 -176 53z" />
    <glyph glyph-name="Scaron" unicode="&#x160;" horiz-adv-x="1048" 
d="M967 1796l-238 -264h-117l-139 264h16l199 -115l262 115h17zM436 39q112 0 188 70t76 161q0 156 -184 304q-65 52 -152 129q-186 162 -186 339q0 176 153 288q152 112 337 112q184 0 360 -84l-51 -299h-8q-19 58 -47.5 110.5t-68.5 99.5t-94.5 75t-116.5 28
q-98 0 -168.5 -62t-70.5 -159q0 -122 147 -242q143 -117 225 -194q157 -148 157 -325q0 -178 -153 -299q-154 -122 -363 -122q-97 -1 -220 25q-118 25 -178 63l62 355h8q16 -54 35.5 -102t50.5 -99t67.5 -87t87 -60t107.5 -25z" />
    <glyph glyph-name="scaron" unicode="&#x161;" horiz-adv-x="804" 
d="M788 1427l-237 -264h-117l-139 264h16l199 -114l262 114h16zM158 82q58 -51 149 -51q80 0 142.5 44.5t62.5 122.5q0 115 -134 216q-54 39 -113 86q-134 108 -134 254q0 147 113 231t238 84t210 -58q86 -59 86 -145q0 -55 -35.5 -93t-90.5 -38q-52 0 -89 35.5t-37 86.5
q0 50 34.5 87.5t84.5 38.5q-53 29 -131 29q-73 0 -128.5 -40t-55.5 -110q0 -109 137 -210q62 -46 113 -87q137 -111 137 -262t-120 -240q-119 -88 -258 -88t-233 70t-94 166q0 58 35.5 97.5t92.5 39.5q56 0 98 -39t41 -94q0 -53 -34.5 -91t-86.5 -42z" />
    <glyph glyph-name="Tcommaaccent" unicode="&#x162;" horiz-adv-x="1331" 
d="M549 -100q51 0 86 -39t35 -90t-29.5 -99.5t-78 -85.5t-96.5 -63t-97 -45l-4 6q110 92 108 176q0 19 -17 59q-18 39 -18 79q0 44 33 73t78 29zM846 8v-8h-576v8q107 33 147.5 92t61.5 181l183 1058h-93q-122 0 -178 -37q-57 -37 -239 -229h-9l95 340h1124l-23 -340h-8
q-12 21 -45 76q-30 50 -35 61q-6 14 -25.5 44t-27.5 36q-16 13 -26 22q-17 16 -29 16q-8 1 -34 6q-27 5 -44 5h-152l-182 -1058q-12 -63 -12 -120q0 -61 32 -96t95 -57z" />
    <glyph glyph-name="tcommaaccent" unicode="&#x163;" horiz-adv-x="655" 
d="M173 -281q-17 40 -17 79q0 45 32.5 73.5t77.5 28.5q51 0 86 -39t35 -90t-29.5 -99.5t-78 -85.5t-96.5 -63t-97 -45l-4 6q110 92 108 176q0 19 -17 59zM254 -27q-135 0 -135 174q0 56 14 132l119 661h-162l-4 18l123 60q56 27 88 78q29 47 80 194h172l-49 -246h219
l-14 -110h-222l-118 -655q-5 -28 -7 -58q0 -82 72 -82q63 2 188 62v-8q-63 -78 -171.5 -149t-192.5 -71z" />
    <glyph glyph-name="Tcaron" unicode="&#x164;" horiz-adv-x="1331" 
d="M1104 1796l-238 -264h-116l-140 264h17l198 -115l262 115h17zM846 8v-8h-576v8q107 33 147.5 92t61.5 181l183 1058h-93q-122 0 -178 -37q-57 -37 -239 -229h-9l95 340h1124l-23 -340h-8q-12 21 -45 76q-30 50 -35 61q-6 14 -25.5 44t-27.5 36q-16 13 -26 22
q-17 16 -29 16q-8 1 -34 6q-27 5 -44 5h-152l-182 -1058q-12 -63 -12 -120q0 -61 32 -96t95 -57z" />
    <glyph glyph-name="tcaron" unicode="&#x165;" horiz-adv-x="655" 
d="M651 1206q0 43 -17 142q-18 96 -18 134q0 41 30.5 70t71.5 29t72.5 -30t31.5 -71q0 -37 -68 -156q-67 -120 -86 -208l-21 2q4 36 4 88zM254 -27q-135 0 -135 174q0 56 14 132l119 661h-162l-4 18l123 60q56 27 88 78q29 47 80 194h172l-49 -246h219l-14 -110h-222
l-118 -655q-5 -28 -7 -58q0 -82 72 -82q63 2 188 62v-8q-63 -78 -171.5 -149t-192.5 -71z" />
    <glyph glyph-name="Tbar" unicode="&#x166;" horiz-adv-x="1331" 
d="M801 686l-70 -405q-12 -63 -12 -120q0 -61 32 -96t95 -57v-8h-578l2 8q107 33 147.5 92t61.5 181l70 405h-203q15 80 16 88h201l99 565h-95l-91 -2q-18 0 -36 -8q-20 -9 -29 -10q-14 -3 -31 -19q-15 -13 -30 -23q-14 -9 -39 -35q-18 -19 -57 -58q-30 -30 -102 -111h-9
l95 340h1124l-23 -340h-8q-109 197 -152 233q-38 33 -149 33h-117l-98 -565h203q-1 -13 -17 -88h-200z" />
    <glyph glyph-name="tbar" unicode="&#x167;" horiz-adv-x="663" 
d="M258 -27q-133 0 -133 170q0 71 12 136l45 249h-155l20 107h156l53 305h-162l-4 18l123 60q56 27 88 78q29 47 80 194h172l-49 -246h219l-14 -110h-222l-53 -299h260l-20 -107h-260l-43 -249q-6 -35 -6 -58q-1 -81 67 -81q69 0 191 61v-8q-61 -77 -171 -148.5t-194 -71.5z
" />
    <glyph glyph-name="Utilde" unicode="&#x168;" horiz-adv-x="1552" 
d="M1063 1573q-55 0 -140 36q-86 36 -116 36q-80 0 -137 -76l-13 4q32 82 100 142q68 61 123 61q54 0 138 -33t119 -33q87 0 137 72l12 -4q-32 -73 -94.5 -139t-128.5 -66zM1184 391l102 582q25 144 25 235q0 80 -24.5 123t-94.5 74v8h434v-8q-75 -28 -113 -64
q-75 -72 -127 -368l-102 -588q-72 -416 -582 -416q-80 -1 -151 9t-140 36.5t-118.5 68t-80 108.5t-30.5 153q0 47 8 90l127 701q29 146 -16 206q-27 37 -100 64v8h575v-8q-106 -32 -146 -90t-61 -180l-127 -729q-6 -33 -6 -95q0 -72 24 -121.5t69.5 -75t98.5 -36t124 -10.5
q168 0 286 81.5t146 241.5z" />
    <glyph glyph-name="utilde" unicode="&#x169;" horiz-adv-x="1181" 
d="M787 1204q-55 0 -141 36t-116 36q-80 0 -137 -76l-12 4q32 82 100 142q70 61 123 61t137 -33t119 -33q88 0 137 72l13 -4q-32 -73 -94.5 -139t-128.5 -66zM842 -27q-131 0 -131 162q0 47 8 109q-29 -48 -66 -92.5t-83.5 -86.5t-101.5 -67t-108 -25q-129 0 -183 90
t-21 265l80 436q16 74 8 114q-8 38 -53 38q-44 0 -150 -50v8q64 74 152.5 134.5t164.5 60.5q173 0 117 -305l-82 -445q-20 -104 0 -156.5t78 -51.5q112 0 258 215l129 718h240l-137 -765q-15 -81 -7 -114q8 -32 56 -32t147 51l2 -8q-61 -75 -151.5 -139.5t-165.5 -63.5z" />
    <glyph glyph-name="Umacron" unicode="&#x16a;" horiz-adv-x="1552" 
d="M1239 1720l-18 -108h-504l18 108h504zM1184 391l102 582q25 144 25 235q0 80 -24.5 123t-94.5 74v8h434v-8q-75 -28 -113 -64q-75 -72 -127 -368l-102 -588q-72 -416 -582 -416q-80 -1 -151 9t-140 36.5t-118.5 68t-80 108.5t-30.5 153q0 47 8 90l127 701q29 146 -16 206
q-27 37 -100 64v8h575v-8q-106 -32 -146 -90t-61 -180l-127 -729q-6 -33 -6 -95q0 -72 24 -121.5t69.5 -75t98.5 -36t124 -10.5q168 0 286 81.5t146 241.5z" />
    <glyph glyph-name="umacron" unicode="&#x16b;" horiz-adv-x="1181" 
d="M936 1352l-18 -109h-504l18 109h504zM842 -27q-131 0 -131 162q0 47 8 109q-29 -48 -66 -92.5t-83.5 -86.5t-101.5 -67t-108 -25q-129 0 -183 90t-21 265l80 436q16 74 8 114q-8 38 -53 38q-44 0 -150 -50v8q64 74 152.5 134.5t164.5 60.5q173 0 117 -305l-82 -445
q-20 -104 0 -156.5t78 -51.5q112 0 258 215l129 718h240l-137 -765q-15 -81 -7 -114q8 -32 56 -32t147 51l2 -8q-61 -75 -151.5 -139.5t-165.5 -63.5z" />
    <glyph glyph-name="Ubreve" unicode="&#x16c;" horiz-adv-x="1552" 
d="M952 1528q-102 0 -152 81q-51 83 -55 187h9q17 -67 76.5 -100t133.5 -33q75 0 146 36t107 97h8q-94 -268 -273 -268zM1184 391l102 582q25 144 25 235q0 80 -24.5 123t-94.5 74v8h434v-8q-75 -28 -113 -64q-75 -72 -127 -368l-102 -588q-72 -416 -582 -416q-80 -1 -151 9
t-140 36.5t-118.5 68t-80 108.5t-30.5 153q0 47 8 90l127 701q29 146 -16 206q-27 37 -100 64v8h575v-8q-106 -32 -146 -90t-61 -180l-127 -729q-6 -33 -6 -95q0 -72 24 -121.5t69.5 -75t98.5 -36t124 -10.5q168 0 286 81.5t146 241.5z" />
    <glyph glyph-name="ubreve" unicode="&#x16d;" horiz-adv-x="1181" 
d="M662 1159q-53 0 -93.5 23.5t-64 63.5t-35.5 85t-14 96h8q15 -64 75.5 -98.5t131.5 -34.5q75 0 146 36t110 97h8q-94 -268 -272 -268zM842 -27q-131 0 -131 162q0 47 8 109q-29 -48 -66 -92.5t-83.5 -86.5t-101.5 -67t-108 -25q-129 0 -183 90t-21 265l80 436q16 74 8 114
q-8 38 -53 38q-44 0 -150 -50v8q64 74 152.5 134.5t164.5 60.5q173 0 117 -305l-82 -445q-20 -104 0 -156.5t78 -51.5q112 0 258 215l129 718h240l-137 -765q-15 -81 -7 -114q8 -32 56 -32t147 51l2 -8q-61 -75 -151.5 -139.5t-165.5 -63.5z" />
    <glyph glyph-name="Uring" unicode="&#x16e;" horiz-adv-x="1552" 
d="M948 1604q52 0 88.5 38t36.5 90q0 53 -36 91.5t-89 38.5q-52 0 -88.5 -38.5t-36.5 -90.5t36.5 -90.5t88.5 -38.5zM1161 1733q0 -86 -63 -147.5t-150 -61.5t-149.5 61t-62.5 147q0 87 62.5 148.5t149.5 61.5q86 0 150 -61.5t63 -147.5zM1184 391l102 582q25 144 25 235
q0 80 -24.5 123t-94.5 74v8h434v-8q-75 -28 -113 -64q-75 -72 -127 -368l-102 -588q-72 -416 -582 -416q-80 -1 -151 9t-140 36.5t-118.5 68t-80 108.5t-30.5 153q0 47 8 90l127 701q29 146 -16 206q-27 37 -100 64v8h575v-8q-106 -32 -146 -90t-61 -180l-127 -729
q-6 -33 -6 -95q0 -72 24 -121.5t69.5 -75t98.5 -36t124 -10.5q168 0 286 81.5t146 241.5z" />
    <glyph glyph-name="uring" unicode="&#x16f;" horiz-adv-x="1181" 
d="M672 1235q52 0 88.5 38.5t36.5 90.5t-36.5 90.5t-88.5 38.5t-88.5 -38.5t-36.5 -90.5t36.5 -90.5t88.5 -38.5zM885 1364q1 -86 -62.5 -147t-150.5 -61q-86 0 -150 60q-65 62 -63 148q0 87 63 147.5t150 60.5q86 0 150 -60q65 -62 63 -148zM842 -27q-131 0 -131 162
q0 47 8 109q-29 -48 -66 -92.5t-83.5 -86.5t-101.5 -67t-108 -25q-129 0 -183 90t-21 265l80 436q16 74 8 114q-8 38 -53 38q-44 0 -150 -50v8q64 74 152.5 134.5t164.5 60.5q173 0 117 -305l-82 -445q-20 -104 0 -156.5t78 -51.5q112 0 258 215l129 718h240l-137 -765
q-15 -81 -7 -114q8 -32 56 -32t147 51l2 -8q-61 -75 -151.5 -139.5t-165.5 -63.5z" />
    <glyph glyph-name="Uhungarumlaut" unicode="&#x170;" horiz-adv-x="1552" 
d="M1022 1532h-18q77 155 90 250h157q-84 -148 -229 -250zM778 1532h-18q77 155 90 250h158q-83 -147 -230 -250zM1184 391l102 582q25 144 25 235q0 80 -24.5 123t-94.5 74v8h434v-8q-75 -28 -113 -64q-75 -72 -127 -368l-102 -588q-72 -416 -582 -416q-80 -1 -151 9
t-140 36.5t-118.5 68t-80 108.5t-30.5 153q0 47 8 90l127 701q29 146 -16 206q-27 37 -100 64v8h575v-8q-106 -32 -146 -90t-61 -180l-127 -729q-6 -33 -6 -95q0 -72 24 -121.5t69.5 -75t98.5 -36t124 -10.5q168 0 286 81.5t146 241.5z" />
    <glyph glyph-name="uhungarumlaut" unicode="&#x171;" horiz-adv-x="1181" 
d="M725 1163h-18q77 155 90 250h157q-84 -148 -229 -250zM481 1163h-18q77 155 90 250h158q-83 -147 -230 -250zM842 -27q-131 0 -131 162q0 47 8 109q-29 -48 -66 -92.5t-83.5 -86.5t-101.5 -67t-108 -25q-129 0 -183 90t-21 265l80 436q16 74 8 114q-8 38 -53 38
q-44 0 -150 -50v8q64 74 152.5 134.5t164.5 60.5q173 0 117 -305l-82 -445q-20 -104 0 -156.5t78 -51.5q112 0 258 215l129 718h240l-137 -765q-15 -81 -7 -114q8 -32 56 -32t147 51l2 -8q-61 -75 -151.5 -139.5t-165.5 -63.5z" />
    <glyph glyph-name="Uogonek" unicode="&#x172;" horiz-adv-x="1552" 
d="M782 -344v-8q-76 -76 -147 -76t-107 36q-35 37 -34 85q0 125 288 280q-47 -4 -80 -4q-80 -1 -151 9t-140 36.5t-118.5 68t-80 108.5t-30.5 153q0 47 8 90l127 701q29 146 -16 206q-27 37 -100 64v8h575v-8q-106 -32 -146 -90t-61 -180l-127 -729q-6 -33 -6 -95
q0 -72 24 -121.5t69.5 -75t98.5 -36t124 -10.5q168 0 286 81.5t146 241.5l102 582q25 144 25 235q0 80 -24.5 123t-94.5 74v8h436l-2 -4v-4q-75 -28 -113 -64q-75 -72 -127 -368l-102 -588q-63 -362 -463 -408q-158 -163 -157 -262q0 -67 81 -65q19 0 37 6z" />
    <glyph glyph-name="uogonek" unicode="&#x173;" horiz-adv-x="1189" 
d="M1067 -344v-8q-75 -76 -147 -76t-107 36q-35 37 -35 79q0 75 102 190q42 47 104 112q70 71 95 101v14q-151 -131 -231 -131q-133 0 -133 162q0 47 8 109q-65 -106 -161 -188.5t-197 -82.5q-129 0 -184 90q-54 90 -21 265l80 436q16 74 8 114q-8 38 -53 38q-44 0 -150 -50
v8q63 73 152.5 134t164.5 61q173 0 117 -305l-82 -445q-20 -104 0 -156.5t78 -51.5q112 0 258 215l129 718h240l-137 -765q-25 -145 35 -145q59 0 161 50v-8q-57 -80 -135 -238.5t-78 -224.5q0 -63 82 -63q19 0 37 6z" />
    <glyph glyph-name="Wcircumflex" unicode="&#x174;" horiz-adv-x="2129" 
d="M1292 1796l146 -264h-17l-202 115l-258 -115h-17l232 264h116zM147 1405v8h539v-8q-80 -26 -106.5 -78.5t-28.5 -146.5q0 -88 14 -289l56 -737l327 714q127 275 127 396q0 97 -110 141v8h501v-8q-44 -15 -71.5 -36.5t-41.5 -53t-18.5 -63.5t-5.5 -81q0 -33 4 -88l82 -901
l332 686q137 289 137 392q0 105 -106 145v8h475v-8q-93 -40 -170 -139q-79 -102 -230 -408l-428 -858h-215l-98 995l-471 -995h-235l-89 866q-32 294 -65 396q-34 105 -105 143z" />
    <glyph glyph-name="wcircumflex" unicode="&#x175;" horiz-adv-x="1613" 
d="M995 1427l146 -264h-17l-202 115l-258 -115h-17l232 264h116zM930 190q0 -88 92 -88q72 0 140 46.5t118 120.5t88.5 162t58 173.5t19.5 153.5q0 54 -16 92q-42 -47 -104 -47q-59 0 -101.5 36.5t-42.5 94.5q0 56 39 95.5t94 39.5q92 0 150 -76q59 -77 59 -245
q0 -176 -86 -357.5t-222 -298.5q-140 -119 -294 -119q-213 0 -213 246q0 25 2 47h-4q-29 -51 -66 -99t-84 -93.5t-104 -73t-113 -27.5q-197 0 -199 209q0 49 9 97l86 485q8 46 8 80q0 65 -49 65q-41 0 -156 -51v8q70 81 156 142t167 61q123 0 123 -168q0 -44 -14 -137
l-88 -490q-4 -23 -4 -63q0 -88 78 -88q41 -1 78 18.5t61.5 48t47 71t35 76t24.5 74.5q48 159 65 241q18 88 36 192t21 111q2 10 3 17t3 19h226l-121 -717q-6 -42 -6 -84z" />
    <glyph glyph-name="Ycircumflex" unicode="&#x176;" horiz-adv-x="1306" 
d="M883 1796l145 -264h-16l-203 115l-258 -115h-16l231 264h117zM838 8v-8h-576v8q106 33 146 92t61 181l59 340l-139 393q-72 204 -124 286q-49 78 -120 105v8h547v-8q-64 -18 -92.5 -53t-28.5 -100q0 -66 50 -214l112 -342l211 334q133 211 133 281q0 61 -100 94v8h446v-8
q-81 -18 -163 -103q-79 -82 -218 -288l-262 -391l-59 -342q-12 -79 -11 -127q2 -104 128 -146z" />
    <glyph glyph-name="ycircumflex" unicode="&#x177;" horiz-adv-x="1017" 
d="M705 1427l145 -264h-16l-203 115l-258 -115h-17l232 264h117zM862 827v9q-41 -29 -88 -29q-51 0 -88 38.5t-37 90.5q0 63 39.5 98t103.5 35q77 0 120.5 -56.5t43.5 -135.5q0 -201 -335 -785q-341 -584 -609 -584q-85 0 -128 43q-44 44 -44 99q0 58 37 96.5t94 38.5
q64 0 100 -47.5t38 -114.5q148 52 307 283q-44 474 -148 805q-63 204 -131 202q-46 0 -147 -55v8q72 83 159.5 143t172.5 60q86 0 130 -107q45 -109 86 -338q43 -240 62 -425q243 451 262 628z" />
    <glyph glyph-name="Ydieresis" unicode="&#x178;" horiz-adv-x="1306" 
d="M1098 1689q0 -52 -36.5 -88t-88.5 -36q-51 0 -87 36t-36 87q0 52 35.5 88t87.5 36q51 0 88 -36t37 -87zM778 1689q0 -52 -36.5 -88t-88.5 -36q-51 0 -87 36t-36 87q0 52 35.5 88t87.5 36q51 0 88 -36t37 -87zM838 8v-8h-576v8q106 33 146 92t61 181l59 340l-139 393
q-72 204 -124 286q-49 78 -120 105v8h547v-8q-64 -18 -92.5 -53t-28.5 -100q0 -66 50 -214l112 -342l211 334q133 211 133 281q0 61 -100 94v8h446v-8q-81 -18 -163 -103q-79 -82 -218 -288l-262 -391l-59 -342q-12 -79 -11 -127q2 -104 128 -146z" />
    <glyph glyph-name="Zacute" unicode="&#x179;" horiz-adv-x="1157" 
d="M559 1542l-10 2q145 124 174 250l213 -12q-96 -169 -377 -240zM958 0h-1015v4l946 1335h-250q-142 -2 -210 -35q-74 -36 -263 -206h-8l94 315h971l-2 -4v-4l-938 -1331h278q170 0 259 65q87 63 231 209h8z" />
    <glyph glyph-name="zacute" unicode="&#x17a;" horiz-adv-x="888" 
d="M385 1174l-10 2q145 124 174 249l213 -12q-95 -168 -377 -239zM645 850h-295q-100 0 -138 -9t-87 -57h-16l67 260h729v-8l-680 -848q243 0 343 10q98 10 155 32.5t104 86.5l17 -2q-11 -25 -36 -95l-22 -60.5t-19 -54.5q-17 -48 -49 -86.5t-74 -38.5q-54 0 -284 10
t-391 10l-2 8z" />
    <glyph glyph-name="Zdotaccent" unicode="&#x17b;" horiz-adv-x="1157" 
d="M838 1681q0 -58 -41 -97.5t-99 -39.5t-97.5 39.5t-39.5 97.5t39.5 99t97.5 41t99 -41t41 -99zM958 0h-1015v4l946 1335h-250q-142 -2 -210 -35q-74 -36 -263 -206h-8l94 315h971l-2 -4v-4l-938 -1331h278q170 0 259 65q87 63 231 209h8z" />
    <glyph glyph-name="zdotaccent" unicode="&#x17c;" horiz-adv-x="888" 
d="M662 1313q0 -58 -41 -97.5t-99 -39.5q-57 0 -97 39.5t-40 96.5q0 58 39.5 99t97.5 41q57 0 98.5 -41t41.5 -98zM645 850h-295q-100 0 -138 -9t-87 -57h-16l67 260h729v-8l-680 -848q243 0 343 10q98 10 155 32.5t104 86.5l17 -2q-11 -25 -36 -95l-22 -60.5t-19 -54.5
q-17 -48 -49 -86.5t-74 -38.5q-54 0 -284 10t-391 10l-2 8z" />
    <glyph glyph-name="Zcaron" unicode="&#x17d;" horiz-adv-x="1157" 
d="M989 1796l-237 -264h-117l-139 264h16l199 -115l262 115h16zM958 0h-1015v4l946 1335h-250q-142 -2 -210 -35q-74 -36 -263 -206h-8l94 315h971l-2 -4v-4l-938 -1331h278q170 0 259 65q87 63 231 209h8z" />
    <glyph glyph-name="zcaron" unicode="&#x17e;" horiz-adv-x="888" 
d="M819 1427l-237 -264h-117l-139 264h16l199 -114l262 114h16zM645 850h-295q-100 0 -138 -9t-87 -57h-16l67 260h729v-8l-680 -848q243 0 343 10q98 10 155 32.5t104 86.5l17 -2q-11 -25 -36 -95l-22 -60.5t-19 -54.5q-17 -48 -49 -86.5t-74 -38.5q-54 0 -284 10t-391 10
l-2 8z" />
    <glyph glyph-name="longs" unicode="&#x17f;" horiz-adv-x="653" 
d="M900 1495q65 -50 65 -115q0 -59 -34.5 -98t-92.5 -39q-51 0 -90 32.5t-39 82.5q0 94 114 137q-27 8 -55 8q-39 -1 -71.5 -17t-55 -46.5t-39 -61t-28.5 -75t-18 -73t-13 -69.5l-178 -1059q-57 -319 -272 -474q-91 -66 -224 -120l-4 13q88 53 144.5 168.5t78.5 240.5
l188 1119h-98q8 24 17 43h88q11 104 59 204.5t125 155.5q129 92 274 92q95 0 159 -49z" />
    <glyph glyph-name="uni0180" unicode="&#x180;" horiz-adv-x="1193" 
d="M446 39q168 0 296 171q128 172 128 388q0 158 -66 247q-68 89 -163 89q-68 0 -158 -45l-147 -819q50 -31 110 -31zM190 1270h111v12q0 67 -34 98q-37 33 -124 64l2 8q101 6 226 31.5t221 60.5h8l-51 -274h287l-17 -86h-284l-48 -262q151 147 296 147q144 0 245 -113
q100 -112 100 -290q0 -172 -105.5 -333.5t-271.5 -259.5t-337 -98q-70 0 -168 19.5t-162 46.5l203 1124l2 19h-115z" />
    <glyph glyph-name="uni0181" unicode="&#x181;" horiz-adv-x="1357" 
d="M610 0h-567l2 8q109 29 150.5 88t62.5 183l129 753q21 128 21 199q0 135 -148 135q-70 0 -100 -12v-4q33 -21 54.5 -58t21.5 -76q0 -49 -40 -81.5t-90 -32.5q-52 0 -89 34q-36 35 -35 87q0 190 360 190h432q72 0 138.5 -7.5t140 -30t127 -57.5t89 -95.5t36.5 -139.5
q0 -262 -359 -327q-2 -2 -2 -8q129 -18 230.5 -115.5t101.5 -222.5q0 -92 -35.5 -162.5t-100 -115t-137 -70.5t-164.5 -43q-107 -19 -229 -19zM594 762h88q103 0 186 36.5t134.5 112.5t52.5 181q0 126 -78 186.5t-207 60.5h-76zM475 74h139q75 0 143.5 17.5t126 53t92 96.5
t34.5 140q0 147 -96 228t-226 81h-106q-91 -529 -107 -616z" />
    <glyph glyph-name="uni0182" unicode="&#x182;" horiz-adv-x="1253" 
d="M551 0h-582v8q75 23 117.5 60t60.5 83t33 130l148 854q14 90 12 108q0 66 -31.5 102t-97.5 60l2 4v4h963l-54 -315h-10q-63 161 -108 202q-43 39 -175 39h-211l-98 -551h170q71 0 134.5 -9t127 -32.5t109 -60t74 -96.5t28.5 -137q-1 -102 -36 -182t-93 -130t-138.5 -82.5
t-165 -45.5t-179.5 -13zM393 68h142q182 0 276 112t94 275q0 114 -62 191q-62 75 -210 75h-125z" />
    <glyph glyph-name="uni0183" unicode="&#x183;" horiz-adv-x="1193" 
d="M94 41l199 1094q10 50 10 113q0 64 -32 99.5t-97 57.5l2 4v4h954l-55 -315h-8q-63 162 -109 202q-46 39 -176 39h-209l-73 -417q148 147 294 147q145 0 246 -113q100 -112 100 -290q0 -173 -105 -334.5t-271 -259t-338 -97.5q-69 0 -169.5 19.5t-162.5 46.5zM457 39
q169 0 297 171q127 170 127 388q0 158 -66 247t-162 89q-69 0 -159 -45l-146 -819q46 -31 109 -31z" />
    <glyph glyph-name="uni0184" unicode="&#x184;" horiz-adv-x="1253" 
d="M393 68h142q182 0 276 112t94 275q0 114 -62 191q-62 75 -210 75h-125zM551 0h-584l2 8q75 23 117.5 60t60.5 83t33 130l123 704l-184 199l2 37l479 221h39l-119 -654h170q71 0 134.5 -9t127 -32.5t109 -60t74 -96.5t28.5 -137q-1 -102 -36 -182t-93 -130t-138.5 -82.5
t-165 -45.5t-179.5 -13z" />
    <glyph glyph-name="uni0185" unicode="&#x185;" horiz-adv-x="1193" 
d="M457 39q169 0 297 171q127 170 127 388q0 158 -66 247t-162 89q-69 0 -159 -45l-146 -819q46 -31 109 -31zM600 1493l-100 -571q148 147 294 147q145 0 246 -113q100 -112 100 -290q0 -173 -105 -334.5t-271 -259t-338 -97.5q-69 0 -169.5 19.5t-162.5 46.5l180 995
l-184 199l4 37l473 221h33z" />
    <glyph glyph-name="uni0186" unicode="&#x186;" horiz-adv-x="1468" 
d="M469 37q128 0 248 58q114 55 199.5 141t136.5 191t75.5 220.5t24.5 242.5q0 95 -27.5 181t-79 153.5t-132.5 107.5t-179 40q-284 0 -493 -311h-9l54 299q86 35 221.5 58.5t234.5 23.5q282 0 485 -169q204 -169 204 -452q0 -186 -82 -349q-158 -312 -526 -441
q-292 -103 -603 -36q-121 25 -184 60l29 314h8q96 -332 395 -332z" />
    <glyph glyph-name="uni0187" unicode="&#x187;" horiz-adv-x="1431" 
d="M813 -31q-293 -1 -503 181q-208 181 -208 466q0 232 132.5 426t348.5 298q207 101 403 102q196 0 345 -45q36 150 111.5 228.5t218.5 78.5q61 0 119 -36t57 -90q0 -47 -27.5 -80.5t-73.5 -33.5q-75 0 -94 105q-10 55 -22 55q-38 0 -67.5 -19.5t-48 -55t-28.5 -66
t-19 -71.5q-17 -77 -37 -194q-17 -108 -27 -157h-9q-46 147 -145 229t-248 82q-180 0 -323.5 -116t-216.5 -294q-74 -180 -74 -402t126 -373t322 -150q270 0 486 336h8l-80 -318q-181 -86 -426 -86z" />
    <glyph glyph-name="uni0188" unicode="&#x188;" horiz-adv-x="911" 
d="M989 1335q61 0 119 -36t57 -90q-2 -47 -28 -80t-72 -33q-35 0 -58.5 23t-27.5 58q-10 82 -39 80q-96 0 -141 -204q109 -43 108 -148q0 -57 -35.5 -100t-91.5 -43q-58 0 -98.5 38t-40.5 96q0 63 74 116l-6 6q-170 0 -267 -163q-98 -164 -98 -359t62 -278q62 -81 163 -81
q137 0 283 164l14 -14q-175 -310 -422 -312q-84 0 -151 34t-108.5 91.5t-63 129.5t-21.5 153q0 275 190 480q191 206 412 206l29 -2q15 61 32.5 104t46 82.5t73.5 60t106 21.5z" />
    <glyph glyph-name="uni0189" unicode="&#x189;" horiz-adv-x="1591" 
d="M385 74h209q291 0 481 219q189 218 191 520q0 143 -51 260t-157 191t-251 75h-203l-98 -567h248l-15 -88h-250zM582 0h-621l2 8q56 17 92 40t58 59.5t33.5 74t21.5 99.5l70 403h-136q4 19 8 40t6 32t3 16h135q6 35 39 199q32 159 34 251q1 87 -28 124q-29 36 -98 59v4
l2 4h612q306 0 518 -167q211 -166 211 -447q0 -235 -134.5 -420t-357.5 -283q-218 -96 -470 -96z" />
    <glyph glyph-name="uni018A" unicode="&#x18a;" horiz-adv-x="1669" 
d="M475 74h209q288 0 479 219q189 218 191 520q0 143 -51 260t-157 191t-251 75h-203zM672 0h-623v4l2 4q102 32 144 88q41 58 65 196q68 393 71 413q56 319 62 357q37 223 -24 272q-40 32 -109 32q-70 0 -100 -12v-4q33 -21 54.5 -58t21.5 -76q0 -49 -40 -81.5t-90 -32.5
q-52 0 -89 34q-36 35 -35 87q0 190 374 190h549q306 0 518 -167q211 -166 211 -447q0 -235 -134.5 -420t-357.5 -283q-218 -96 -470 -96z" />
    <glyph glyph-name="uni018B" unicode="&#x18b;" horiz-adv-x="1269" 
d="M1118 8v-8h-604q-70 0 -132.5 8t-126 30.5t-109 57.5t-74.5 93.5t-29 134.5q0 104 34 185.5t91 133t137.5 85t167 47t186.5 13.5h170l99 551h-160q-136 0 -192 -12q-57 -12 -110 -58q-55 -48 -149 -171h-8l56 315h1001v-8q-56 -17 -93.5 -39.5t-61 -58t-36.5 -74.5
t-24 -100l-156 -885q-8 -61 -8 -74q0 -71 30.5 -107.5t100.5 -58.5zM817 721h-125q-189 0 -290 -120q-99 -119 -101 -279q0 -109 60 -182q59 -72 200 -72h141z" />
    <glyph glyph-name="uni018C" unicode="&#x18c;" horiz-adv-x="1183" 
d="M709 1014q-141 0 -258 -198t-117 -423q0 -43 6 -82.5t21 -81t47 -67.5t77 -27q121 0 250 174l115 662q-62 43 -141 43zM836 -20q-117 0 -117 163q0 41 8 97q-187 -263 -356 -265q-109 1 -197 95t-88 262q0 175 95 346t242 280q151 112 304 111q56 0 135 -14l53 284h-208
q-130 0 -189 -40t-184 -201h-8l55 315h954v-8q-56 -17 -93.5 -39.5t-61 -58t-36.5 -74.5t-24 -100l-151 -854q-9 -49 -11 -86q0 -63 52 -64q53 0 155 51v-8q-66 -77 -155.5 -134.5t-173.5 -57.5z" />
    <glyph glyph-name="uni018D" unicode="&#x18d;" horiz-adv-x="1222" 
d="M807 743q0 47 -7 89.5t-23.5 86t-51.5 69.5t-85 26q-47 0 -91.5 -32.5t-76 -83t-53.5 -101t-33 -95.5q-32 -126 -32 -239q0 -177 160 -340q79 43 137.5 113.5t91.5 155t48.5 172t15.5 179.5zM782 -231q0 -67 -36 -118t-93.5 -78.5t-119 -41t-123.5 -13.5q-37 0 -75 3
t-89.5 13t-90 26t-66 47t-28.5 71q0 45 33.5 83t78.5 38q42 0 80.5 -33t64.5 -78q65 -110 182 -110q63 0 118.5 39t55.5 99q0 97 -159 196q-158 98 -274 207q-71 65 -112 152.5t-41 181.5q0 235 174 426q174 190 391 190q173 0 297 -101q123 -100 123 -288q1 -225 -153 -382
t-365 -214q13 -11 54 -50t55 -51q118 -100 118 -214z" />
    <glyph glyph-name="uni018E" unicode="&#x18e;" horiz-adv-x="1216" 
d="M457 74h188l113 614h-223q-87 0 -139 -29.5t-111 -103.5h-11q35 180 64 344h10q35 -76 77.5 -105.5t123.5 -29.5h223l107 575h-222q-114 0 -181 -44q-65 -43 -183 -197h-8l57 315h977v-8q-110 -32 -153 -89.5t-66 -180.5q-42 -237 -158 -854q-14 -81 -14 -128
q0 -103 131 -145l-2 -8h-1034l22 346h8q66 -116 93 -154q30 -43 76.5 -76t93.5 -38q39 -4 141 -4z" />
    <glyph glyph-name="uni018F" unicode="&#x18f;" horiz-adv-x="1544" 
d="M692 41q151 0 294 143q142 142 202 475l2 15q-272 -11 -784 -27q-20 -103 -21 -198q0 -66 8.5 -122.5t30 -110.5t55.5 -91.5t88.5 -60t124.5 -23.5zM1200 797q0 219 -132 333q-131 113 -331 115q-273 0 -508 -125l-10 10q315 310 668 312q247 0 409 -164t162 -430
q0 -188 -65.5 -354t-194.5 -292.5t-306 -189.5q-120 -43 -241 -43q-203 -1 -351 141t-148 400q-1 142 28 221h1016q4 40 4 66z" />
    <glyph glyph-name="uni0190" unicode="&#x190;" horiz-adv-x="1273" 
d="M770 782h88l-12 -67h-125q-183 1 -277 -105q-95 -107 -108 -256q-14 -150 74 -235q88 -84 233 -84q198 -1 315 67q116 68 158 158q-62 -53 -120 -53q-57 0 -92 38q-34 38 -29 101q5 65 58.5 108.5t119.5 43.5q71 0 111 -48q40 -47 34 -118q-12 -132 -165 -248
q-152 -115 -411 -115t-419 112q-162 113 -146 294q7 120 91 210q151 162 409 175l2 12q-174 46 -252 121q-76 73 -67 182q14 184 192 275q179 92 428 92q98 0 226 -21.5t196 -58.5l-51 -297h-8q-111 323 -369 321q-137 0 -232 -90t-108 -227q-13 -141 54 -214t202 -73z" />
    <glyph glyph-name="uni0191" unicode="&#x191;" horiz-adv-x="1142" 
d="M743 668h-256l-133 -748q-34 -196 -171 -304t-310 -108q-83 0 -145 52q-64 52 -64 116q0 58 32 97t89 39q52 0 88.5 -33t36.5 -84q0 -91 -96 -137q27 -7 59 -9q170 0 227 342l215 1244q13 62 13 119q0 60 -32.5 94t-94.5 57v8h973l-54 -315h-8q-62 160 -107 202
q-43 39 -171 39h-230l-104 -596h256q85 0 135.5 31.5t109.5 106.5h9l-60 -351h-10q-37 79 -76.5 108.5t-120.5 29.5z" />
    <glyph glyph-name="florin" unicode="&#x192;" 
d="M983 1442q82 0 147 -52q66 -52 66 -116q0 -61 -33.5 -98t-93.5 -37q-52 0 -86.5 32t-34.5 84q0 89 96 138q-27 8 -57 8q-102 0 -149 -95q-47 -96 -95 -341l-43 -230h224l-17 -96h-223l-129 -719q-34 -196 -171 -304q-136 -108 -310 -108q-82 0 -146 52t-63 116
q0 58 32 97t89 39q52 0 88.5 -33t36.5 -84q0 -91 -97 -137q27 -8 60 -9q38 0 70 16t54.5 47t39.5 62.5t30 76t19.5 73t13.5 67.5l133 748h-198l38 96h179l53 293q34 197 169 306q133 108 308 108z" />
    <glyph glyph-name="uni0193" unicode="&#x193;" horiz-adv-x="1548" 
d="M1016 692v4h520v-4l-2 -4q-82 -32 -114 -78t-54 -180l-66 -379q-240 -82 -515 -82q-271 -1 -478 181q-205 181 -205 477q0 225 134.5 413t346.5 294q214 106 421 108q208 0 370 -43q36 148 112.5 226.5t217.5 78.5q62 0 120 -35t58 -93q0 -48 -29 -80t-77 -32
q-41 0 -65 37t-30 83q-6 40 -14 40q-28 0 -52 -11t-40.5 -26t-31 -42t-22.5 -47.5t-16.5 -55t-11.5 -51.5t-8 -48l-49 -280h-9q-115 309 -405 309q-186 0 -337 -114t-229 -294q-75 -173 -77 -368q0 -245 130 -390q131 -146 333 -147q120 0 229 45l57 326q12 73 12 118
q2 99 -126 140z" />
    <glyph glyph-name="uni0194" unicode="&#x194;" horiz-adv-x="1435" 
d="M1239 1284q0 88 -121 121l2 8h463l-2 -8q-95 -32 -159 -119q-71 -98 -259 -434l-395 -702q57 -205 57 -283q0 -151 -71.5 -236.5t-218.5 -85.5q-77 0 -125 43.5t-48 120.5q0 79 73 197q19 29 30 49q4 7 34 53q7 11 14.5 22t11.5 17t5 8l-155 793q-65 324 -104 425
q-37 97 -117 132l2 8h563l-2 -8q-129 -35 -129 -180q0 -84 41 -316l114 -641l326 598q170 311 170 418zM508 -365q40 -1 62 45q22 45 22 95q0 51 -16 105q-15 50 -17 71q-109 -172 -109 -244t58 -72z" />
    <glyph glyph-name="uni0195" unicode="&#x195;" horiz-adv-x="1718" 
d="M835 1069q69 0 119.5 -41t74 -100t24.5 -127q0 -33 -11 -86l-84 -424q-12 -55 -12 -112q0 -122 162 -122q104 1 144 51q40 49 61 156l92 502q14 89 14 132q0 97 -104 138l2 8h385l-139 -757q-14 -75 -44 -130t-70 -89t-96 -55t-114.5 -28.5t-134.5 -7.5q-216 -1 -308 53
q-91 54 -91 171q0 37 10 86l88 436q8 43 8 92q0 109 -94 109q-115 0 -250 -160l-135 -764h-246l213 1198q8 45 8 96q0 34 -12.5 59t-38 42.5t-48 27.5t-58.5 21l2 8q230 13 446 92h8l-123 -688q70 90 162 151t190 62z" />
    <glyph glyph-name="uni0196" unicode="&#x196;" horiz-adv-x="606" 
d="M299 -29q-182 0 -182 176q0 43 8 89l158 876q25 147 24 168q0 72 -37.5 104.5t-119.5 59.5v8q101 6 225 31.5t221 60.5h8l-231 -1294q-9 -54 -11 -94q0 -70 60 -70q45 0 82 40.5t55 90.5h21q-27 -110 -100 -178.5t-181 -67.5z" />
    <glyph glyph-name="uni0197" unicode="&#x197;" horiz-adv-x="724" 
d="M543 8v-8h-574v8q56 17 92 40t58 58.5t33 72.5t22 100l70 405h-201l14 88h201l64 363q12 65 12 119q0 60 -32.5 94t-94.5 57v8h575v-8q-105 -32 -145.5 -90.5t-61.5 -179.5l-63 -363h205l-15 -88h-206l-70 -405q-12 -67 -12 -121q0 -61 32.5 -95.5t96.5 -54.5z" />
    <glyph glyph-name="uni0198" unicode="&#x198;" horiz-adv-x="1478" 
d="M635 1320q-36 -68 -68 -255l-75 -440l460 440q162 155 162 238q0 63 -102 102v4l2 4h561l-2 -4v-4q-121 -41 -207 -99q-90 -61 -276 -233l-209 -190l268 -553q78 -164 131 -226q52 -61 137 -96v-8h-586l3 8q61 14 88.5 36.5t27.5 77.5q0 57 -76 216l-178 377l-223 -203
l-41 -233q-10 -59 -10 -119q0 -62 32 -97t95 -55l-2 -8h-576l2 8q106 33 146 91t61 180l131 757q33 186 160 295.5t315 110.5q44 0 88.5 -16.5t78 -51.5t34.5 -80q0 -53 -29.5 -86.5t-81.5 -33.5q-43 0 -71.5 33t-28.5 77l8 86q0 14 -3 18q-3 3 -11 3q-97 0 -135 -71z" />
    <glyph glyph-name="uni0199" unicode="&#x199;" horiz-adv-x="1120" 
d="M949 1069q56 0 100.5 -39.5t44.5 -95.5q0 -39 -15 -72t-43.5 -59.5t-55.5 -44.5t-66 -39q-63 -35 -110 -59q-23 -12 -104 -54l179 -370q32 -63 58 -91q25 -25 70 -25q39 1 130 40l2 -4v-4q-50 -67 -141 -120.5t-168 -53.5q-76 0 -122 48q-47 50 -104 197l-133 328
q283 141 426 248q-44 18 -68.5 55t-24.5 84q0 54 45 92.5t100 38.5zM979 1376q0 -59 -33 -97t-91 -38q-53 0 -88.5 32.5t-35.5 84.5q0 88 96 137q-27 8 -57 8q-103 0 -152 -97q-50 -99 -92 -339l-190 -1067h-246l199 1130q34 198 169 307q134 108 308 107q83 0 148 -52
q66 -53 65 -116z" />
    <glyph glyph-name="uni019A" unicode="&#x19a;" horiz-adv-x="606" 
d="M111 152q0 54 12 127l72 405h-146l17 88h143l72 393q14 89 14 134q0 31 -13 55.5t-39.5 41.5t-47.5 26.5t-56 21.5v8q227 13 445 92h8l-139 -772h196l-16 -88h-195l-71 -405q-9 -48 -11 -84q0 -70 54 -70q48 0 151 51l2 -8q-57 -70 -147.5 -132t-163.5 -63
q-141 0 -141 179z" />
    <glyph glyph-name="uni019B" unicode="&#x19b;" horiz-adv-x="1009" 
d="M1001 80h35v-10q-23 -43 -79 -66.5t-111 -23.5q-129 2 -151 175q-12 96 -13 293q-1 196 -16 332q-218 -370 -328 -553q-85 -141 -123 -227h-289l684 1044q-4 18 -7 46q-5 39 -9 55l-334 -219v86l311 205q-11 32 -32 79q-123 -24 -171 -24q-51 0 -88.5 43t-37.5 95
q0 54 49 94t133 40q52 0 91 -20t63.5 -57.5t38 -76.5t24.5 -92q0 -15 4 -32l236 155v-86l-219 -145q2 -13 6.5 -38.5t11.5 -68t14 -81.5q24 -140 39 -211l68 -365q46 -247 85 -296q39 -50 115 -50z" />
    <glyph glyph-name="uni019C" unicode="&#x19c;" horiz-adv-x="1918" 
d="M133 231q0 51 12 109l152 827q8 46 8 94q0 57 -24 90t-78 54v8h526v-4l-2 -4q-91 -32 -128 -87q-38 -57 -62 -183l-152 -816l-6 -59q0 -75 36 -112.5t107 -36.5q112 0 254 69q-4 17 -4 68q5 46 12 92l152 827q8 46 8 94q0 57 -24 90t-78 54v8h526v-4l-2 -4
q-91 -32 -128 -87q-38 -57 -62 -183l-152 -816l-6 -63q0 -145 139 -145q115 0 234 63l178 961q9 43 14 129q0 100 -104 141v4l2 4h524v-8q-41 -14 -71 -34t-49.5 -42t-34 -54.5t-22.5 -63t-16 -76.5l-143 -781q-16 -52 -16 -122q-1 -67 29 -99t100 -57l-2 -8
q-177 -11 -412 -93h-8l31 168q-85 -66 -189 -115.5t-190 -50.5q-202 0 -234 179q-88 -69 -203.5 -124.5t-205.5 -56.5q-236 0 -236 256z" />
    <glyph glyph-name="uni019D" unicode="&#x19d;" horiz-adv-x="1601" 
d="M-188 -166q53 0 93 -33.5t40 -85.5q0 -100 -125 -157q26 -8 55 -9q169 2 227 345q143 822 184 1045q48 259 48 282q0 137 -158 184v4l2 4h412l665 -1069q8 54 76 416q62 333 62 434q0 89 -22.5 134t-96.5 77v4l2 4h430l-2 -4v-4q-106 -39 -152 -118q-46 -78 -85 -309
q-38 -213 -171 -992h-112l-748 1208q-138 -772 -225 -1286q-39 -216 -108 -308q-68 -90 -209 -92q-103 0 -164 52q-62 53 -62 123q0 64 40.5 107.5t103.5 43.5z" />
    <glyph glyph-name="uni019E" unicode="&#x19e;" horiz-adv-x="1165" 
d="M735 924q-113 0 -252 -162l-133 -762h-241l135 764q8 46 8 78q0 34 -12 51t-37 16q-41 0 -156 -51v8q63 73 152 138.5t159 65.5q75 0 108.5 -51t33.5 -130q0 -23 -6 -58q178 238 360 238q96 0 156 -73q60 -74 59 -189q0 -49 -8 -92l-234 -1186h-239l237 1192
q41 203 -90 203z" />
    <glyph glyph-name="uni019F" unicode="&#x19f;" horiz-adv-x="1648" 
d="M935 1372q-91 0 -173 -37t-143 -97.5t-110.5 -140.5t-80 -163t-47.5 -168h960q2 18 5 80q0 83 -13.5 157t-44 142.5t-77 118t-117.5 79t-159 29.5zM776 39q94 0 178.5 40.5t146 106t110.5 151t78 173t42 174.5h-962q-5 -51 -7 -117q0 -230 104 -379q103 -147 310 -149z
M90 608q0 176 82 336q152 296 483 431q161 66 310 66q170 0 314.5 -80t238.5 -223q98 -155 98 -360q0 -159 -76 -310t-197.5 -259.5t-278.5 -174t-314 -65.5q-268 0 -464 174t-196 465z" />
    <glyph glyph-name="Ohorn" unicode="&#x1a0;" horiz-adv-x="1648" 
d="M362 551q0 -75 13.5 -146t44 -137.5t75 -117t111 -80.5t146.5 -31q183 0 320 124q141 128 207.5 310.5t66.5 391.5q0 94 -23 181t-68 161.5t-122.5 119.5t-176.5 45q-183 0 -319 -121q-142 -126 -208.5 -309t-66.5 -391zM1616 778q0 -213 -129 -402.5t-326 -296.5
q-202 -110 -393 -110q-389 0 -582 295q-96 150 -96 335q0 263 158.5 469t413.5 311q154 63 270 63q121 0 262 -16q134 -15 208 -17q17 0 37.5 2.5t46.5 8t43 18t17 30.5q0 25 -37 62t-37 83q0 49 35 81t84 32q60 0 100 -38.5t40 -98.5q0 -66 -28 -114t-76.5 -72.5
t-102.5 -35.5t-117 -11q-71 0 -145 10q170 -86 262 -241t92 -347z" />
    <glyph glyph-name="ohorn" unicode="&#x1a1;" horiz-adv-x="1144" 
d="M500 29q47 0 88 26.5t70 70.5t48.5 87t32.5 89q63 217 65 383q2 329 -165 329q-129 0 -215 -210q-86 -211 -86 -474q0 -37 3 -72t13.5 -78.5t27.5 -75t47.5 -53.5t70.5 -22zM1059 627q0 -257 -172 -454q-173 -198 -398 -198q-120 0 -213.5 62t-141.5 162t-48 219
q0 256 174 454q174 199 395 197q59 0 194 -16q79 -9 123 -9q79 0 79 37q0 19 -29 63t-29 91q0 52 42 85.5t95 33.5q60 0 103 -37.5t43 -97.5q0 -61 -27.5 -106t-74.5 -69t-98.5 -35.5t-108.5 -11.5q-35 2 -101 9q94 -63 142.5 -162t50.5 -217z" />
    <glyph glyph-name="uni01A2" unicode="&#x1a2;" horiz-adv-x="2013" 
d="M989 1370q-202 0 -359 -175q-158 -176 -218 -460q-25 -121 -25 -211q-2 -219 105 -353t284 -134q178 0 283 63q97 559 217 1231q-168 39 -287 39zM1812 -434h-550v8q101 34 142 89q40 53 70 223q46 260 107 608q77 440 99 561q22 119 22 174q0 102 -72 102h-112
q-120 -687 -224 -1268q-199 -64 -299 -77q-102 -13 -278 -15q-265 0 -441 169q-176 170 -176 408q0 237 122 440.5t330 329.5q205 124 433 124q81 0 256 -27q173 -26 231 -26q296 0 492 53h41l-283 -1606q-12 -49 -12 -112q0 -61 23.5 -94t81.5 -56v-4z" />
    <glyph glyph-name="uni01A3" unicode="&#x1a3;" horiz-adv-x="1597" 
d="M522 29q52 -1 96.5 20.5t77 60t58 82.5t43.5 99.5t29 99.5t20 92l82 471q-100 60 -231 60t-233 -192q-103 -193 -110 -492q0 -301 168 -301zM1225 932h-60q-19 -123 -78 -447q-45 -249 -203 -380q-157 -130 -374 -130q-174 0 -290 116t-116 317q0 156 58 295.5t173 230.5
q169 135 378 135q72 0 243 -43t240 -43q82 0 186 24t166 62h37l-223 -1270q-8 -29 -8 -55v-8q-4 -20 -4 -60q0 -100 92 -139v-4l-2 -4h-535v4l2 4q102 38 141 92.5t58 169.5l180 1018l2 39q0 76 -63 76z" />
    <glyph glyph-name="uni01A4" unicode="&#x1a4;" horiz-adv-x="1325" 
d="M655 0h-606v4l2 4q106 33 146 92t61 181l131 757l14 90q5 40 7 78q0 83 -33.5 121.5t-114.5 38.5q-70 0 -102 -12v-4q33 -21 54.5 -58t21.5 -76q0 -49 -40 -81.5t-90 -32.5q-52 0 -89 34q-36 35 -35 87q0 190 356 190h512q76 0 144 -10.5t134 -37t113 -67t76 -105
t29 -146.5q0 -213 -169 -319t-423 -105h-185l-59 -342q-10 -50 -10 -113q0 -67 42 -103.5t115 -56.5zM582 692h94q196 0 306 102t110 267q0 117 -66 200q-65 82 -203 82h-129z" />
    <glyph glyph-name="uni01A5" unicode="&#x1a5;" horiz-adv-x="1224" 
d="M496 39q170 0 294 175q124 176 123 390q0 150 -66 238q-67 88 -156 88t-171 -45q-3 -23 -5 -40q-4 -40 -7 -59l-129 -716q56 -31 117 -31zM440 -471h-514v4l-2 4q76 27 109 84q32 56 55 186l231 1323q34 198 169 307q134 108 309 107q82 0 147 -52q66 -52 66 -116
q0 -59 -33 -97t-91 -38q-53 0 -88.5 32.5t-35.5 84.5q0 88 96 137q-27 8 -57 8q-101 0 -149 -95q-49 -96 -95 -341l-25 -137q155 139 298 139q142 0 241 -114q100 -112 100 -293q0 -179 -109 -341t-274 -255q-160 -89 -307 -91q-41 0 -119 9l-30 -177q-8 -53 -8 -113
q0 -68 24.5 -100.5t89.5 -56.5v-4z" />
    <glyph glyph-name="uni01A6" unicode="&#x1a6;" horiz-adv-x="1366" 
d="M477 500h86q165 0 287 70q75 42 111 121t36 173q0 105 -62 169t-167 65h-184zM555 0h-584v4q110 39 150.5 95.5t62.5 181.5l152 852q12 63 12 117q0 109 -133 155l2 4v4h588l-2 -4v-4q-99 -31 -143.5 -83t-63.5 -155h160q51 0 94.5 -2.5t97 -10.5t96 -21t84.5 -36
t70.5 -54t46 -77t17.5 -102q0 -67 -24.5 -130t-70.5 -108q-83 -81 -342 -143l260 -534q73 -148 115 -195q44 -49 119 -65v-4l-2 -4h-150h-13q-175 0 -223 27q-49 28 -108 165l-235 563h-121l-29 -155q-12 -69 -12 -123q0 -60 34 -94t97 -56z" />
    <glyph glyph-name="uni01A7" unicode="&#x1a7;" horiz-adv-x="1071" 
d="M930 412l-66 -355q-179 -88 -390 -88q-86 0 -160.5 18.5t-137.5 56.5t-99.5 106t-35.5 158q0 73 28 141.5t76.5 125t104 101.5t120.5 83q116 67 228 129q45 25 86.5 54.5t84 69t68 87.5t25.5 95q0 84 -50.5 131t-135.5 47q-209 0 -428 -313h-8l53 299q217 84 375 84
q95 0 182 -34t147 -107.5t60 -170.5q0 -136 -84 -241q-83 -105 -205 -179q-128 -78 -241 -141q-287 -164 -287 -340q0 -88 60 -139t151 -51q221 0 471 373h8z" />
    <glyph glyph-name="uni01A8" unicode="&#x1a8;" horiz-adv-x="868" 
d="M766 340l-57 -291q-165 -74 -335 -74q-171 0 -263 80t-81 205q10 124 81 207q70 82 161 126q87 42 182 81q220 89 230 200q6 66 -35 104t-104 38q-139 0 -346 -262h-9l48 258q156 57 296 57t230 -78q89 -78 76 -205q-7 -86 -54.5 -160.5t-123.5 -116.5
q-126 -73 -295 -144q-155 -66 -169 -188q-8 -65 39 -107q46 -42 119 -43q168 0 402 313h8z" />
    <glyph glyph-name="uni01A9" unicode="&#x1a9;" horiz-adv-x="1148" 
d="M215 178h447q104 0 166 35q64 36 208 180h8l-120 -393h-1000l2 8l664 654l-420 741l2 10h1016l-49 -289h-9q-52 141 -99 178q-46 37 -159 37h-383l324 -579l-2 -15z" />
    <glyph glyph-name="uni01AA" unicode="&#x1aa;" horiz-adv-x="966" 
d="M311 1163q-75 0 -117 45.5t-42 121.5q0 79 68 147q67 67 169 67q94 0 160.5 -53t95.5 -131t29 -170q0 -70 -10 -119l-222 -1180q-18 -100 -18 -170q0 -172 127 -172q35 0 78 13q-86 26 -86 119q0 54 35 92.5t89 38.5t91 -33.5t37 -87.5q0 -51 -26 -89t-68.5 -57t-87 -28
t-92.5 -9q-131 0 -229 84q-97 84 -97 242q0 43 8 86l239 1286q-61 -43 -131 -43zM443 1448q-29 29 -79 29t-96 -43q-47 -44 -45 -94q0 -49 28 -77t77 -30q47 0 95 39q48 38 48 118q0 29 -28 58z" />
    <glyph glyph-name="uni01AB" unicode="&#x1ab;" horiz-adv-x="663" 
d="M123 147q0 56 14 132l119 661h-162l-4 18l123 60q56 27 88 78q29 47 80 194h172l-49 -246h219l-14 -110h-222l-118 -655q-5 -28 -7 -58q0 -82 72 -82q60 0 189 62v-8l-52 -281q-13 -73 -30 -129t-46.5 -109.5t-68.5 -88t-97.5 -55.5t-133.5 -22q-102 0 -163 52
q-62 53 -62 123q0 65 40 108t104 43q53 0 92.5 -33.5t39.5 -85.5q0 -100 -125 -157q26 -8 55 -9q37 1 68.5 16.5t54 45t38.5 59.5t29 73.5t19 70.5t14 67l27 148q-100 -54 -168 -56q-135 0 -135 174z" />
    <glyph glyph-name="uni01AC" unicode="&#x1ac;" horiz-adv-x="1331" 
d="M856 0h-575v8q105 32 145 88q40 57 63 185l183 1058h-187q-112 0 -172 -22v-6q37 -19 62 -61.5t25 -84.5q0 -50 -40 -83.5t-91 -33.5q-53 0 -89.5 38t-36.5 92q-1 106 97 171q97 64 280 64h852l-20 -340h-9q-12 23 -47 81q-5 9 -54 92q-27 45 -40 52q-11 6 -30 20
q-26 21 -134 21h-112q-117 -676 -165 -952q-30 -172 -30 -227q0 -61 32.5 -96.5t94.5 -55.5z" />
    <glyph glyph-name="uni01AD" unicode="&#x1ad;" horiz-adv-x="663" 
d="M270 -27q-135 0 -135 172q0 59 15 134l116 653h-164v26q148 63 183 103l12 59q38 186 162 305.5t307 118.5q83 0 148 -52q66 -53 65 -116q0 -59 -33 -97t-91 -38q-53 0 -88.5 32.5t-35.5 84.5q0 88 96 137q-27 8 -57 8q-102 0 -154 -106q-52 -105 -100 -353h219l-14 -110
h-221l-119 -655q-6 -35 -6 -58q1 -81 67 -81q67 0 193 61l-2 -8q-60 -76 -170.5 -148t-192.5 -72z" />
    <glyph glyph-name="uni01AE" unicode="&#x1ae;" horiz-adv-x="1331" 
d="M782 -451q35 0 78 13q-86 26 -86 119q0 54 35 92.5t89 38.5t91 -33.5t37 -87.5q0 -51 -26 -89t-68.5 -57t-87 -28t-92.5 -9q-132 0 -232 84t-100 242q0 43 8 86l244 1419h-146q-81 0 -139 -41q-56 -40 -223 -225h-8l92 340h1124l-20 -340h-9q-29 56 -57 101
q-38 60 -43 69q-17 29 -25 36q-11 8 -22 23q-12 16 -24 19q-12 1 -27 9q-13 7 -35 7l-90 2h-94l-252 -1448q-17 -97 -19 -170q0 -172 127 -172z" />
    <glyph glyph-name="Uhorn" unicode="&#x1af;" horiz-adv-x="1552" 
d="M1196 391l100 582q25 140 25 231q0 80 -25 126t-94 75l2 4v4h293q16 1 34 3t41 8t37.5 18t14.5 28q0 24 -38 60q-38 38 -38 84q0 49 36 80.5t86 31.5q59 0 98.5 -40t39.5 -99q0 -203 -258 -225q-54 -38 -89 -123q-35 -84 -63 -256q-39 -236 -104 -598q-72 -416 -579 -416
q-76 0 -145 9.5t-139.5 35t-121.5 64.5t-83 103t-33 147q0 47 10 106l125 701q10 54 10 115q0 63 -31.5 97t-95.5 58l2 4v4h575l-2 -4v-4q-105 -32 -145 -90.5t-61 -179.5l-127 -729q-5 -31 -7 -95q0 -73 24.5 -122.5t71 -75t99.5 -35.5t124 -10q168 0 286 82t145 241z" />
    <glyph glyph-name="uhorn" unicode="&#x1b0;" horiz-adv-x="1189" 
d="M965 279l-11 -76q0 -70 54 -70t153 51l2 -4v-4q-61 -75 -151.5 -139.5t-165.5 -63.5q-131 0 -131 162q0 47 8 109q-66 -108 -162 -189.5t-199 -81.5q-105 0 -158.5 77.5t-53.5 187.5q0 41 10 90l80 436q10 49 10 92q0 59 -50 59q-51 0 -155 -49v8q63 73 152.5 134
t164.5 61q130 0 132 -170q0 -61 -15 -135l-82 -445q-10 -43 -10 -79q0 -129 88 -129q112 0 258 215l127 702q154 0 236 13q86 14 86 57q0 20 -39 56t-39 78q0 49 38.5 79.5t88.5 30.5q59 0 95 -32.5t36 -90.5q0 -212 -266 -220z" />
    <glyph glyph-name="uni01B1" unicode="&#x1b1;" horiz-adv-x="1656" 
d="M504 932q-139 -253 -139 -460q0 -193 98.5 -312t286.5 -119q248 0 410 195q162 196 161 508q0 312 -182 661v8h514v-323h-8q-65 106 -95 130q-27 21 -114 21h-154q34 -75 118 -189q84 -113 138 -220q53 -104 53 -236q0 -136 -89.5 -262.5t-217.5 -199.5
q-281 -163 -541 -163q-109 0 -223 41t-207 109q-99 73 -158.5 177.5t-60.5 221.5q0 108 53.5 213t139.5 182q175 154 183 161q110 96 167 165h-154q-87 0 -122 -21q-38 -24 -140 -130h-8l94 323h531l-2 -4v-4q-190 -215 -332 -473z" />
    <glyph glyph-name="uni01B2" unicode="&#x1b2;" horiz-adv-x="1529" 
d="M1223 1263q0 -59 -38.5 -96t-98.5 -37q-71 0 -114.5 38t-43.5 108q0 45 28.5 79t73 52t89 26.5t85.5 8.5q246 0 246 -264q0 -70 -10 -123q-16 -89 -28.5 -153.5t-36.5 -163t-48.5 -172.5t-62.5 -162t-80.5 -152.5t-101 -122.5t-125.5 -92q-131 -68 -337 -68
q-87 0 -163 15.5t-145 50.5t-109.5 101.5t-40.5 158.5q0 37 6 96l137 780q6 47 6 91q0 92 -118 141v10h583v-10q-107 -38 -153 -93.5t-66 -168.5l-137 -770l-6 -52q0 -130 78.5 -190.5t212.5 -60.5q272 0 416 231t222 766q7 35 7 113q0 74 -39 125.5t-111 52.5v-4
q23 -40 23 -89z" />
    <glyph glyph-name="uni01B3" unicode="&#x1b3;" horiz-adv-x="1452" 
d="M987 0h-584q0 2 3 8q108 32 148.5 91t61.5 182l60 340l-139 395q-101 285 -161 329q-27 18 -85 29v-4q33 -46 33 -103q0 -56 -38.5 -97.5t-93.5 -41.5q-62 0 -98.5 41t-36.5 104q0 69 74 119t175 50q96 0 157.5 -13.5t120.5 -60.5q105 -82 192 -348l109 -324l241 373
q103 163 105 236q0 45 -24.5 65.5t-73.5 34.5v8h454l-2 -4v-4q-81 -18 -164 -103q-82 -84 -223 -288l-266 -391q-6 -35 -39 -201t-33 -242q0 -73 29 -110t100 -62z" />
    <glyph glyph-name="uni01B4" unicode="&#x1b4;" horiz-adv-x="1191" 
d="M468 962q44 -110 86 -342q42 -235 60 -421q48 86 112 226q81 179 108 239q51 111 104 200q118 205 272 205q64 0 106 -44.5t42 -108.5q0 -65 -43 -111.5t-107 -46.5q-63 0 -108.5 42t-46.5 105q-19 -16 -90 -161q-26 -54 -84.5 -174.5t-82.5 -170.5q-433 -891 -769 -891
q-85 0 -128 43q-44 44 -44 99q0 58 37.5 96.5t95.5 38.5q64 0 99.5 -48t35.5 -114q149 52 309 283q-40 459 -148 804q-65 205 -130 203q-47 0 -148 -55v8q63 73 155 140q87 63 173 63q90 0 134 -107z" />
    <glyph glyph-name="uni01B5" unicode="&#x1b5;" horiz-adv-x="1157" 
d="M958 0h-1015v4l481 680h-332l14 88h379l404 567h-250q-142 -2 -210 -35q-74 -36 -263 -206h-8l94 315h971l-2 -4v-4l-447 -633h336l-14 -88h-383l-430 -610h278q170 0 259 65q87 63 231 209h8z" />
    <glyph glyph-name="uni01B6" unicode="&#x1b6;" horiz-adv-x="897" 
d="M649 850h-295q-100 0 -138 -9t-87 -57h-16l67 260h729v-8l-368 -458h325l-16 -86h-377l-244 -304q243 0 343 10q98 10 155 32.5t104 86.5l17 -2q-11 -25 -36 -95q-8 -22 -21.5 -60.5t-19.5 -54.5q-17 -48 -49 -86.5t-74 -38.5q-54 0 -284 10t-391 10l-2 8l389 484h-303
l17 86h356z" />
    <glyph glyph-name="uni01B7" unicode="&#x1b7;" horiz-adv-x="1120" 
d="M252 324q36 -42 24 -102q-10 -58 -49.5 -101t-97.5 -64q59 -31 135 -30q154 0 280 96q125 96 154 261q28 164 -82 253q-110 88 -274 88l-6 10l426 465h-557l39 213h809l-2 -8l-441 -477q172 -28 285 -155t82 -298q-20 -112 -89.5 -208.5t-166.5 -160.5t-211 -100
t-225 -37q-160 0 -248 70t-70 176q9 63 62 106.5t117 43.5q70 0 106 -41z" />
    <glyph glyph-name="uni01B8" unicode="&#x1b8;" horiz-adv-x="1021" 
d="M637 27q79 0 147 30q-48 16 -74 61t-16 103q11 62 62.5 102t115.5 42q64 0 103 -44q40 -44 26 -106q-18 -106 -133 -176t-274 -70q-240 -1 -392 143t-116 363q21 116 103 215.5t192.5 159.5t228.5 78l-272 477l2 8h809l-39 -213h-557l262 -465l-8 -10q-166 0 -308 -88
q-143 -89 -171 -254q-29 -167 59 -261q89 -95 250 -95z" />
    <glyph glyph-name="uni01B9" unicode="&#x1b9;" horiz-adv-x="1021" 
d="M575 -342q82 0 148 31q-48 18 -74 61q-27 44 -17 102q11 62 62.5 103t115.5 41q66 0 104 -44t26 -106q-18 -106 -133 -176q-114 -69 -275 -69q-240 0 -392 143t-115 362q21 116 103 215.5t192.5 159.5t228.5 78l-273 477l3 8h808l-38 -213h-557l262 -464l-9 -11
q-166 0 -308 -88q-143 -89 -171 -254q-28 -166 60 -260q88 -96 249 -96z" />
    <glyph glyph-name="uni01BA" unicode="&#x1ba;" horiz-adv-x="1005" 
d="M640 -314q-149 -122 -309 -122q-96 0 -175 31t-131.5 100t-53.5 166q0 193 122 283t370 122q221 29 221 174q0 66 -74 90q-73 23 -254 23l6 41l353 289h-535l29 161h846l-8 -43l-453 -387q35 -3 61 -6.5t63.5 -11.5t64.5 -20.5t53 -31t40 -46t15 -62.5q0 -109 -90 -161
q-89 -52 -342 -76q-117 -12 -193 -88q-76 -75 -76 -167q0 -99 64.5 -144.5t168.5 -45.5q125 0 233 69.5t175 182.5h15q-59 -200 -206 -320z" />
    <glyph glyph-name="uni01BB" unicode="&#x1bb;" 
d="M141 772h547q121 173 121 300q0 125 -69 197.5t-194 72.5q-122 0 -231 -105q76 0 129.5 -40.5t53.5 -113.5q0 -67 -43.5 -111t-110.5 -44q-65 0 -108.5 46.5t-45.5 112.5q0 127 142 241t328 114q81 0 153 -20.5t130 -60t91.5 -105.5t32.5 -151q0 -154 -188 -333h266
l-17 -88h-346q-182 -153 -256 -225l-266 -254h653l-49 -205h-858l8 53l494 504q62 65 115 127h-498z" />
    <glyph glyph-name="uni01BC" unicode="&#x1bc;" 
d="M397 1200l-73 -418q160 49 318 49q157 0 266.5 -95t109.5 -249q0 -101 -40.5 -195t-115.5 -156q-95 -78 -219.5 -121t-251.5 -45q-162 -2 -247 58q-86 61 -85 145q2 86 53 135q53 50 118 50q60 0 101.5 -33.5t41.5 -91.5q0 -117 -142 -184q72 -27 129 -26q165 2 281 125
q117 124 117 315q0 115 -73 178.5t-191 65.5h-261l76 428q10 64 10 121q0 60 -34 94t-97 55l2 8h916l-39 -213h-670z" />
    <glyph glyph-name="uni01BD" unicode="&#x1bd;" horiz-adv-x="1009" 
d="M293 565q118 51 277 51q158 0 241 -72q84 -72 84 -187q0 -225 -185 -313q-154 -73 -358 -75q-140 2 -223 55q-84 54 -84 134q0 72 38.5 118t108.5 46q58 0 98 -32t40 -89q0 -96 -131 -156q49 -25 133 -25q137 0 230 75t93 229q0 92 -63 134t-160 42h-231l49 266
q14 79 14 125q0 103 -131 145l2 8h830q-23 -124 -39 -208h-582q-19 -95 -51 -271z" />
    <glyph glyph-name="uni01BE" unicode="&#x1be;" horiz-adv-x="884" 
d="M805 303q0 -152 -121 -240t-259 -88t-232 67q-93 67 -95 163q0 58 38.5 100.5t95.5 42.5q56 0 96 -37t39 -91q0 -52 -35.5 -93t-87.5 -45q63 -51 151 -51q80 0 141.5 45t61.5 122q0 115 -152 220q-56 39 -121 90q-144 113 -116 258l29 166l-162 8l-4 18l123 60
q56 28 88 80q30 49 79 192h173l-50 -246h220l-15 -110h-221l-14 -84q-18 -104 105 -200q36 -28 110 -86q61 -48 98 -117t37 -144z" />
    <glyph glyph-name="uni01BF" unicode="&#x1bf;" horiz-adv-x="1191" 
d="M958 737q0 178 -172 178q-132 0 -260 -90l-151 -839q210 66 397 269q186 202 186 482zM268 995q99 49 181 49q81 0 110 -53l-24 -129q77 85 199 146.5t230 61.5q126 0 192.5 -83t66.5 -213q0 -119 -55.5 -235.5t-144 -208.5t-204.5 -173.5t-229.5 -138.5t-227.5 -96
q-28 -168 -45 -252q-216 -79 -409 -155v22q90 33 130.5 95.5t59.5 168.5l174 934q28 128 -8 160q-20 18 -59 18t-82 -6l2 11q35 24 143 77z" />
    <glyph glyph-name="clickdental" unicode="&#x1c0;" horiz-adv-x="409" 
d="M403 1544l-309 -1780h-80l312 1780h77z" />
    <glyph glyph-name="clicklateral" unicode="&#x1c1;" horiz-adv-x="819" 
d="M403 1544l-309 -1780h-80l312 1780h77zM813 1544l-309 -1780h-80l311 1780h78z" />
    <glyph glyph-name="uni01C2" unicode="&#x1c2;" horiz-adv-x="571" 
d="M297 467l-86 -467h-109l86 467h-208l20 111h209l35 196h-211l20 109h211l94 503h109l-94 -503h213l-21 -109h-213l-35 -196h213l-20 -111h-213z" />
    <glyph glyph-name="uni01C3" unicode="&#x1c3;" horiz-adv-x="522" 
d="M168 -29q-62 0 -105 42.5t-43 104.5q0 60 45.5 104t105.5 44q61 0 103.5 -42.5t42.5 -103.5t-44 -104t-105 -45zM227 397h-18q18 209 18 432q0 211 5 346q4 121 40 195q34 72 134 72q53 0 86 -34q33 -35 32 -91q0 -99 -137 -466q-140 -375 -160 -454z" />
    <glyph glyph-name="uni01C4" unicode="&#x1c4;" horiz-adv-x="2654" 
d="M2486 1796l-237 -264h-117l-139 264h16l199 -115l262 115h16zM2456 0h-1016l2 8l944 1331h-250q-142 -2 -210 -35q-74 -36 -263 -206h-8l94 315h971v-4l-940 -1335h278q170 0 259 65q87 63 231 209h8zM582 0h-619v8q56 17 92 40t58 59.5t33.5 74t21.5 99.5l149 854
q11 71 11 121q0 59 -33 94t-94 55v8h614q306 0 518 -167q211 -166 211 -447q0 -235 -134.5 -420t-357.5 -283q-218 -96 -470 -96zM385 74h209q291 0 481 219q189 218 191 520q0 143 -51 260t-157 191t-251 75h-203z" />
    <glyph glyph-name="uni01C5" unicode="&#x1c5;" horiz-adv-x="2488" 
d="M2413 1427l-238 -264h-117l-139 264h16l199 -114l262 114h17zM2241 850h-295q-102 0 -140 -9t-86 -57h-16l68 260h729v-8l-680 -848q243 0 343 10q98 10 155 32.5t104 86.5l16 -2q-11 -25 -36 -95q-8 -22 -22 -61t-19 -54q-17 -48 -49 -86.5t-73 -38.5q-54 0 -284 10
t-391 10l-2 8zM582 0h-619v8q56 17 92 40t58 59.5t33.5 74t21.5 99.5l149 854q11 71 11 121q0 59 -33 94t-94 55v8h614q306 0 518 -167q211 -166 211 -447q0 -235 -134.5 -420t-357.5 -283q-218 -96 -470 -96zM385 74h209q291 0 481 219q189 218 191 520q0 143 -51 260
t-157 191t-251 75h-203z" />
    <glyph glyph-name="uni01C6" unicode="&#x1c6;" horiz-adv-x="2060" 
d="M1989 1427l-238 -264h-117l-139 264h16l199 -114l262 114h17zM1812 850h-294q-100 0 -138 -9q-39 -9 -88 -57h-16l67 260h730v-8l-680 -848q243 0 343 10q98 10 155 32.5t104 86.5l16 -2q-11 -25 -36 -95q-8 -22 -21.5 -60.5t-19.5 -54.5q-17 -48 -49 -86.5t-73 -38.5
q-54 0 -284 10t-391 10l-2 8zM696 1014q-142 0 -257 -198q-116 -200 -115 -423q0 -42 6 -81.5t21 -81.5t46.5 -68t75.5 -27q125 0 250 174l115 662q-58 43 -142 43zM707 143q0 34 10 97q-193 -263 -357 -265q-110 2 -198 95q-88 94 -88 262q0 176 95.5 346.5t242.5 279.5
q152 113 305 111q56 0 135 -14l20 110q12 71 12 127q0 36 -13 62t-40 43t-50 26.5t-62 20.5l2 8q229 12 453 92h8l-224 -1265q-10 -54 -10 -86q0 -63 51 -64q52 0 154 51v-8q-62 -76 -150 -137t-167 -62q-129 0 -129 170z" />
    <glyph glyph-name="uni01C7" unicode="&#x1c7;" horiz-adv-x="1759" 
d="M940 0h-977v8q55 17 91 40t58 59t33.5 73t22.5 99l147 856q13 62 13 119q0 60 -32.5 94t-94.5 57v8h575v-8q-106 -32 -146 -90t-61 -180l-184 -1061h184q92 0 141.5 14.5t115.5 67.5q70 56 204 190h8zM1159 -18l199 1153q10 50 10 113q0 64 -30.5 99.5t-94.5 57.5v8h576
v-8q-107 -32 -146.5 -89.5t-60.5 -180.5l-182 -1053q-41 -235 -219 -356q-143 -98 -289 -154l-2 6q189 112 239 404z" />
    <glyph glyph-name="uni01C8" unicode="&#x1c8;" horiz-adv-x="1703" 
d="M1520 1190q-57 0 -96.5 38.5t-39.5 95.5q0 58 39.5 97t96.5 39t96 -39.5t39 -96.5t-39 -95.5t-96 -38.5zM1343 844q0 65 -51 65q-47 0 -155 -51v8q59 71 150.5 136.5t162.5 66.5q135 0 135 -174q0 -53 -12 -131l-115 -670q-11 -64 -37 -151q-95 -301 -456 -435l-4 13
q86 52 143 169t80 240l151 834q8 43 8 80zM940 0h-977v8q55 17 91 40t58 59t33.5 73t22.5 99l147 856q13 62 13 119q0 60 -32.5 94t-94.5 57v8h575v-8q-106 -32 -146 -90t-61 -180l-184 -1061h184q92 0 141.5 14.5t115.5 67.5q70 56 204 190h8z" />
    <glyph glyph-name="uni01C9" unicode="&#x1c9;" horiz-adv-x="1222" 
d="M111 152q0 54 12 127l158 886q14 89 14 134q0 31 -13 55.5t-39.5 41.5t-47.5 26.5t-56 21.5v8q227 13 445 92h8l-225 -1265q-9 -48 -11 -84q0 -70 54 -70q48 0 151 51l2 -8q-57 -70 -147.5 -132t-163.5 -63q-141 0 -141 179zM1038 1190q-57 0 -96 38.5t-39 95.5t39 96.5
t96 39.5q56 0 96 -40t40 -96t-40 -95t-96 -39zM862 844q0 65 -51 65q-47 0 -156 -51v8q60 71 151 136.5t163 66.5q135 0 135 -174q0 -53 -12 -131l-115 -670q-11 -64 -37 -151q-94 -301 -457 -435l-4 13q86 52 143 169t80 240l152 834q8 43 8 80z" />
    <glyph glyph-name="uni01CA" unicode="&#x1ca;" horiz-adv-x="2304" 
d="M426 1194l-131 -752q-29 -171 -29 -248q0 -75 25.5 -117t93.5 -69v-8h-428v8q73 26 110 64q74 75 126 370l126 746q1 10 3 33q0 137 -158 184v8h416l663 -1069l111 629q28 158 28 243q0 76 -25 118t-93 71v8h428v-8q-71 -27 -111 -65q-74 -73 -125 -367l-172 -987h-110z
M1704 -18l199 1153q10 50 10 113q0 64 -30.5 99.5t-94.5 57.5v8h575v-8q-107 -32 -146 -89.5t-60 -180.5l-183 -1053q-41 -234 -218 -356q-136 -95 -290 -154l-2 6q190 112 240 404z" />
    <glyph glyph-name="uni01CB" unicode="&#x1cb;" horiz-adv-x="2217" 
d="M2034 1190q-57 0 -96.5 38.5t-39.5 95.5q0 58 39.5 97t96.5 39t96 -39.5t39 -96.5t-39 -95.5t-96 -38.5zM1964 1069q135 0 135 -174q0 -53 -12 -131l-115 -670q-11 -64 -37 -151q-95 -301 -456 -435l-4 13q86 52 143 169t80 240l151 834q7 40 9 80q0 65 -52 65
q-47 0 -155 -51v8q59 71 150.5 136.5t162.5 66.5zM426 1194l-131 -752q-29 -171 -29 -248q0 -75 25.5 -117t93.5 -69v-8h-428v8q73 26 110 64q74 75 126 370l126 746q1 10 3 33q0 137 -158 184v8h416l663 -1069l111 629q28 158 28 243q0 76 -25 118t-93 71v8h428v-8
q-71 -27 -111 -65q-74 -73 -125 -367l-172 -987h-110z" />
    <glyph glyph-name="uni01CC" unicode="&#x1cc;" horiz-adv-x="1820" 
d="M735 924q-113 0 -252 -162l-133 -762h-241l135 764q8 46 8 78q0 34 -12 51t-37 16q-41 0 -156 -51v8q63 73 152 138.5t159 65.5q75 0 108.5 -51t33.5 -130q0 -23 -6 -58q178 238 360 238q126 0 181 -93q56 -94 26 -261l-84 -436q-8 -53 -8 -91q0 -63 49 -63t151 51l2 -8
q-58 -74 -149 -134t-171 -60q-81 0 -112 79q-31 78 -2 226l88 442q44 203 -90 203zM1638 1190q-57 0 -96 38.5t-39 95.5t39 96.5t96 39.5q56 0 96 -40t40 -96t-40 -95t-96 -39zM1462 844q0 65 -51 65q-47 0 -156 -51v8q60 71 151 136.5t163 66.5q135 0 135 -174
q0 -53 -12 -131l-115 -670q-11 -64 -37 -151q-94 -301 -457 -435l-4 13q59 36 107.5 110.5t75 148t41.5 150.5l151 834q8 43 8 80z" />
    <glyph glyph-name="uni01CD" unicode="&#x1cd;" horiz-adv-x="1447" 
d="M1180 1796l-240 -264h-117l-137 264h16l203 -115l258 115h17zM446 582h451l-113 684zM1339 0h-538l2 8q85 17 112 67t27 146q0 36 -14 134q-16 111 -19 149h-501q-146 -300 -148 -385q0 -48 29.5 -72t83.5 -39v-4l-2 -4h-457v4q72 35 113 74q93 89 290 475l445 860h235
l148 -874q44 -290 83 -389q41 -105 113 -142z" />
    <glyph glyph-name="uni01CE" unicode="&#x1ce;" horiz-adv-x="1179" 
d="M1040 1427l-239 -264h-117l-137 264h16l203 -114l258 114h16zM477 135q103 0 232 160l112 661q-70 57 -137 58q-129 0 -237 -199q-107 -200 -107 -439t137 -241zM703 1069q94 0 227 -31q44 5 131 31h20l-143 -813q-6 -31 -6 -53q0 -70 49 -70q55 0 158 51v-8
q-58 -74 -148.5 -138t-167.5 -65q-129 0 -129 172q0 35 6 78q-179 -248 -333 -248q-113 2 -194 93q-81 92 -81 240q0 140 53 276.5t147 246.5q80 94 193.5 166t217.5 72z" />
    <glyph glyph-name="uni01CF" unicode="&#x1cf;" horiz-adv-x="724" 
d="M803 1796l-238 -264h-116l-140 264h17l202 -115l258 115h17zM553 0h-576q0 2 3 8q56 17 92 40t58 58.5t33.5 73t22.5 99.5l148 856q10 69 10 123q0 104 -127 147v4l2 4h576v-4l-2 -4q-56 -17 -92 -40t-58 -58.5t-33 -72.5t-22 -99l-150 -856q-12 -66 -12 -120
q0 -61 33.5 -96.5t95.5 -54.5z" />
    <glyph glyph-name="uni01D0" unicode="&#x1d0;" horiz-adv-x="641" 
d="M152 143q0 58 14 136l90 485q10 53 10 82q0 63 -49 63t-158 -51v8q55 70 147.5 136t164.5 67q137 0 137 -170q0 -60 -14 -135l-91 -485q-10 -54 -10 -89q1 -66 51 -66q51 0 152 52l2 -8q-57 -70 -146 -132t-161 -63q-139 0 -139 170zM690 1427l-239 -264h-117l-137 264
h16l203 -114l258 114h16z" />
    <glyph glyph-name="uni01D1" unicode="&#x1d1;" horiz-adv-x="1648" 
d="M1264 1796l-240 -264h-117l-137 264h16l203 -115l258 115h17zM186 264q-96 148 -96 334q0 177 75.5 333t202.5 268t294 180q155 62 299 63q256 0 455 -181q200 -182 200 -470q0 -221 -126.5 -411.5t-328.5 -300.5t-393 -110q-389 0 -582 295zM1346 865q0 94 -23 181
t-68 161.5t-122.5 119.5t-176.5 45q-183 0 -319 -121q-142 -126 -208.5 -309t-66.5 -391q0 -75 13.5 -146t44 -137.5t75 -117t111 -80.5t146.5 -31q183 0 320 124q141 128 207.5 310.5t66.5 391.5z" />
    <glyph glyph-name="uni01D2" unicode="&#x1d2;" horiz-adv-x="1144" 
d="M961 1427l-240 -264h-117l-137 264h16l203 -114l258 114h17zM803 729q0 45 -7 89.5t-23.5 91t-51 75.5t-82.5 29q-106 0 -183 -140q-118 -214 -118 -544q0 -37 3 -72t13.5 -78.5t27.5 -75t47.5 -53.5t70.5 -22q114 0 187 150q116 234 116 550zM293 907q168 162 348 162
q186 0 301 -127t117 -315q0 -286 -207 -490q-164 -162 -350 -162q-189 0 -301.5 126t-114.5 317q0 290 207 489z" />
    <glyph glyph-name="uni01D3" unicode="&#x1d3;" horiz-adv-x="1552" 
d="M1260 1796l-238 -264h-117l-139 264h16l203 -115l258 115h17zM1196 391l100 582q25 140 25 231q0 80 -25 126t-94 75l2 4v4h434v-8q-76 -28 -112 -64q-83 -80 -129 -368q-33 -201 -103 -588q-72 -416 -579 -416q-67 0 -127 7t-120.5 23t-108.5 44.5t-85.5 68.5t-58 99.5
t-20.5 132.5q0 47 8 90l125 701q12 49 12 112q0 65 -31.5 100.5t-97.5 57.5l2 4v4h575l-2 -4v-4q-105 -32 -145 -90.5t-61 -179.5l-127 -729q-8 -32 -9 -103q0 -237 312 -235q112 0 202 32t155 106.5t83 184.5z" />
    <glyph glyph-name="uni01D4" unicode="&#x1d4;" horiz-adv-x="1189" 
d="M981 1427l-238 -264h-116l-140 264h17l203 -114l258 114h16zM858 -27q-131 0 -131 168q0 47 8 103q-68 -108 -163.5 -189.5t-197.5 -81.5q-104 0 -158 75.5t-54 184.5q0 49 8 95l80 436q10 41 10 86q0 66 -51 66q-50 0 -152 -50v8q59 72 150 133.5t166 61.5
q131 0 131 -172q0 -71 -12 -133l-84 -445q-5 -44 -7 -88q0 -61 21.5 -91t64.5 -29q45 0 99.5 40.5t91 84.5t65.5 90l129 718h242q-145 -785 -145 -850q-2 -62 49 -62t156 52v-8q-56 -72 -148.5 -137t-167.5 -66z" />
    <glyph glyph-name="uni01D5" unicode="&#x1d5;" horiz-adv-x="1552" 
d="M1237 1648q0 -52 -36.5 -88t-88.5 -36q-51 0 -87 36t-36 87t36 88t87 37q52 0 88.5 -36t36.5 -88zM918 1648q0 -52 -36.5 -88t-88.5 -36q-51 0 -87 36t-36 87t36 88t87 37q52 0 88.5 -36t36.5 -88zM1249 1956l-18 -109h-504l18 109h504zM1184 391l102 582q25 144 25 235
q0 80 -24.5 123t-94.5 74v8h434v-8q-75 -28 -113 -64q-75 -72 -127 -368l-102 -588q-72 -416 -582 -416q-80 -1 -151 9t-140 36.5t-118.5 68t-80 108.5t-30.5 153q0 47 8 90l127 701q29 146 -16 206q-27 37 -100 64v8h575v-8q-106 -32 -146 -90t-61 -180l-127 -729
q-6 -33 -6 -95q0 -72 24 -121.5t69.5 -75t98.5 -36t124 -10.5q168 0 286 81.5t146 241.5z" />
    <glyph glyph-name="uni01D6" unicode="&#x1d6;" horiz-adv-x="1181" 
d="M963 1320q0 -52 -36.5 -88t-88.5 -36q-51 0 -87 36t-36 87t36 88t87 37q52 0 88.5 -36t36.5 -88zM643 1320q0 -52 -36.5 -88t-88.5 -36q-51 0 -87 36t-36 87t36 88t87 37q52 0 88.5 -36t36.5 -88zM983 1628l-18 -108h-504l18 108h504zM842 -27q-131 0 -131 162
q0 47 8 109q-29 -48 -66 -92.5t-83.5 -86.5t-101.5 -67t-108 -25q-129 0 -183 90t-21 265l80 436q16 74 8 114q-8 38 -53 38q-44 0 -150 -50v8q64 74 152.5 134.5t164.5 60.5q173 0 117 -305l-82 -445q-20 -104 0 -156.5t78 -51.5q112 0 258 215l129 718h240l-137 -765
q-15 -81 -7 -114q8 -32 56 -32t147 51l2 -8q-61 -75 -151.5 -139.5t-165.5 -63.5z" />
    <glyph glyph-name="uni01D7" unicode="&#x1d7;" horiz-adv-x="1552" 
d="M1237 1657q0 -51 -37 -87t-88 -36t-87 36t-36 87t36 88t87 37q52 0 88.5 -36.5t36.5 -88.5zM918 1657q0 -51 -37 -87t-88 -36t-87 36t-36 87t36 88t87 37q52 0 88.5 -36.5t36.5 -88.5zM877 1808l-11 2q145 124 174 250l213 -12q-94 -169 -376 -240zM1184 391l102 582
q25 144 25 235q0 80 -24.5 123t-94.5 74v8h434v-8q-75 -28 -113 -64q-75 -72 -127 -368l-102 -588q-72 -416 -582 -416q-80 -1 -151 9t-140 36.5t-118.5 68t-80 108.5t-30.5 153q0 47 8 90l127 701q29 146 -16 206q-27 37 -100 64v8h575v-8q-106 -32 -146 -90t-61 -180
l-127 -729q-6 -33 -6 -95q0 -72 24 -121.5t69.5 -75t98.5 -36t124 -10.5q168 0 286 81.5t146 241.5z" />
    <glyph glyph-name="uni01D8" unicode="&#x1d8;" horiz-adv-x="1181" 
d="M963 1320q0 -52 -36.5 -88t-88.5 -36q-51 0 -87 36t-36 87t36 88t87 37q52 0 88.5 -36t36.5 -88zM643 1320q0 -52 -36.5 -88t-88.5 -36q-51 0 -87 36t-36 87t36 88t87 37q52 0 88.5 -36t36.5 -88zM621 1491l-11 2q145 124 174 250l213 -12q-94 -169 -376 -240zM842 -27
q-131 0 -131 162q0 47 8 109q-29 -48 -66 -92.5t-83.5 -86.5t-101.5 -67t-108 -25q-129 0 -183 90t-21 265l80 436q16 74 8 114q-8 38 -53 38q-44 0 -150 -50v8q64 74 152.5 134.5t164.5 60.5q173 0 117 -305l-82 -445q-20 -104 0 -156.5t78 -51.5q112 0 258 215l129 718
h240l-137 -765q-15 -81 -7 -114q8 -32 56 -32t147 51l2 -8q-61 -75 -151.5 -139.5t-165.5 -63.5z" />
    <glyph glyph-name="uni01D9" unicode="&#x1d9;" horiz-adv-x="1552" 
d="M1249 1648q0 -52 -36.5 -88t-88.5 -36t-88.5 36t-36.5 88t36.5 88t88.5 36t88.5 -36t36.5 -88zM930 1648q0 -52 -36.5 -88t-88.5 -36t-88.5 36t-36.5 88t36.5 88t88.5 36t88.5 -36t36.5 -88zM1280 2062l-238 -264h-116l-140 264h17l203 -114l258 114h16zM1196 391
l100 582q25 140 25 231q0 80 -25 126t-94 75l2 4v4h434v-8q-76 -28 -112 -64q-83 -80 -129 -368q-33 -201 -103 -588q-72 -416 -579 -416q-67 0 -127 7t-120.5 23t-108.5 44.5t-85.5 68.5t-58 99.5t-20.5 132.5q0 47 8 90l125 701q12 49 12 112q0 65 -31.5 100.5t-97.5 57.5
l2 4v4h575l-2 -4v-4q-105 -32 -145 -90.5t-61 -179.5l-127 -729q-8 -32 -9 -103q0 -237 312 -235q112 0 202 32t155 106.5t83 184.5z" />
    <glyph glyph-name="uni01DA" unicode="&#x1da;" horiz-adv-x="1181" 
d="M975 1320q0 -52 -36.5 -88t-88.5 -36t-88.5 36t-36.5 88t36.5 88t88.5 36t88.5 -36t36.5 -88zM655 1320q0 -52 -36.5 -88t-88.5 -36t-88 36t-36 88t36 88t88 36t88.5 -36t36.5 -88zM999 1745l-237 -264h-117l-139 264h16l203 -115l258 115h16zM854 -27q-131 0 -131 168
q0 47 8 103q-68 -108 -163.5 -189.5t-197.5 -81.5q-104 0 -158 75.5t-54 184.5q0 49 8 95l80 436q10 41 10 86q0 66 -51 66q-50 0 -152 -50v8q59 72 150 133.5t166 61.5q131 0 131 -172q0 -74 -13 -133l-84 -445q-6 -49 -6 -88q0 -61 21.5 -91t64.5 -29q45 0 99.5 40.5
t91 84.5t65.5 90l129 718h242q-145 -785 -145 -850q0 -62 49 -62q50 0 155 52v-8q-57 -73 -148.5 -137.5t-166.5 -65.5z" />
    <glyph glyph-name="uni01DB" unicode="&#x1db;" horiz-adv-x="1552" 
d="M1237 1648q0 -52 -36.5 -88t-88.5 -36q-51 0 -87 36t-36 87t36 88t87 37q52 0 88.5 -36t36.5 -88zM918 1648q0 -52 -36.5 -88t-88.5 -36q-51 0 -87 36t-36 87t36 88t87 37q52 0 88.5 -36t36.5 -88zM1153 1800l-10 -2q-291 70 -402 240l215 12q44 -133 197 -250zM1184 391
l102 582q25 144 25 235q0 80 -24.5 123t-94.5 74v8h434v-8q-75 -28 -113 -64q-75 -72 -127 -368l-102 -588q-72 -416 -582 -416q-80 -1 -151 9t-140 36.5t-118.5 68t-80 108.5t-30.5 153q0 47 8 90l127 701q29 146 -16 206q-27 37 -100 64v8h575v-8q-106 -32 -146 -90
t-61 -180l-127 -729q-6 -33 -6 -95q0 -72 24 -121.5t69.5 -75t98.5 -36t124 -10.5q168 0 286 81.5t146 241.5z" />
    <glyph glyph-name="uni01DC" unicode="&#x1dc;" horiz-adv-x="1181" 
d="M963 1320q0 -52 -36.5 -88t-88.5 -36q-51 0 -87 36t-36 87t36 88t87 37q52 0 88.5 -36t36.5 -88zM643 1320q0 -52 -36.5 -88t-88.5 -36q-51 0 -87 36t-36 87t36 88t87 37q52 0 88.5 -36t36.5 -88zM856 1493l-10 -2q-291 71 -402 240l215 12q44 -133 197 -250zM842 -27
q-131 0 -131 162q0 47 8 109q-29 -48 -66 -92.5t-83.5 -86.5t-101.5 -67t-108 -25q-129 0 -183 90t-21 265l80 436q16 74 8 114q-8 38 -53 38q-44 0 -150 -50v8q64 74 152.5 134.5t164.5 60.5q173 0 117 -305l-82 -445q-20 -104 0 -156.5t78 -51.5q112 0 258 215l129 718
h240l-137 -765q-15 -81 -7 -114q8 -32 56 -32t147 51l2 -8q-61 -75 -151.5 -139.5t-165.5 -63.5z" />
    <glyph glyph-name="uni01DD" unicode="&#x1dd;" horiz-adv-x="964" 
d="M653 535q-131 -9 -229.5 -77t-140.5 -188q-49 -142 5 -210q28 -34 74 -33q100 0 192 152q91 153 99 356zM897 647q-2 -261 -193 -466q-192 -206 -401 -206q-113 2 -184 53.5t-72 159.5q0 109 121 224q78 72 213 111t274 50q-3 60 -17 115t-41 105.5t-75.5 81t-111.5 30.5
q-170 0 -306 -162l-12 15q69 131 187 221t253 90q87 0 157.5 -34.5t115 -93.5t68 -134.5t24.5 -159.5z" />
    <glyph glyph-name="uni01DE" unicode="&#x1de;" horiz-adv-x="1447" 
d="M1153 1648q0 -52 -36.5 -88t-88.5 -36q-51 0 -87 36t-36 87q0 52 36 88.5t88 36.5q53 0 88.5 -36t35.5 -88zM834 1648q0 -52 -36.5 -88t-88.5 -36q-51 0 -87 36t-36 87q0 52 36 88.5t88 36.5t88 -36t36 -88zM1167 1946l-18 -109h-504l19 109h503zM434 582h451l-111 684z
M1331 8v-8h-538v8q83 18 111 66t28 140q0 100 -35 290h-502q-145 -297 -145 -387q0 -49 28 -71t84 -38v-8h-458v8q94 38 165 132q71 96 236 413l447 860h233l174 -1024q33 -191 70 -269q37 -79 102 -112z" />
    <glyph glyph-name="uni01DF" unicode="&#x1df;" horiz-adv-x="1171" 
d="M1012 1320q0 -52 -36.5 -88t-88.5 -36q-51 0 -87 36t-36 87t36 88t87 37q52 0 88.5 -36t36.5 -88zM692 1320q0 -52 -36.5 -88t-88.5 -36q-51 0 -87 36t-36 87t36 88t87 37q52 0 88.5 -36t36.5 -88zM1049 1628l-19 -108h-504l19 108h504zM461 135q102 0 231 160l113 655
q-58 62 -121 64q-139 0 -250 -198q-111 -199 -110 -431q0 -247 137 -250zM809 -27q-131 0 -131 156q0 41 8 94q-179 -248 -336 -248q-110 1 -192 93q-82 91 -82 262q0 174 94.5 347.5t239.5 280.5q149 110 295 111q47 0 121 -15q71 -16 96 -16q23 0 122 31h23l-141 -790
q-24 -145 36 -145q58 0 160 50v-8q-59 -74 -148 -138t-165 -65z" />
    <glyph glyph-name="uni01E0" unicode="&#x1e0;" horiz-adv-x="1447" 
d="M1024 1661q0 -57 -41 -97t-98 -40q-58 0 -98 40t-39 97q0 58 39 98.5t97 40.5t99 -40.5t41 -98.5zM1178 1976l-19 -108h-504l19 108h504zM434 582h451l-111 684zM1331 8v-8h-538v8q83 18 111 66t28 140q0 100 -35 290h-502q-145 -297 -145 -387q0 -49 28 -71t84 -38v-8
h-458v8q94 38 165 132q71 96 236 413l447 860h233l174 -1024q33 -191 70 -269q37 -79 102 -112z" />
    <glyph glyph-name="uni01E1" unicode="&#x1e1;" horiz-adv-x="1179" 
d="M899 1313q0 -57 -41 -97t-98 -40t-97 39.5t-40 96.5q0 58 39.5 99t97.5 41q57 0 98 -41t41 -98zM1032 1649l-18 -109h-504l18 109h504zM465 135q102 0 231 160l113 655q-58 62 -121 64q-139 0 -250 -198q-111 -199 -110 -431q0 -247 137 -250zM813 -27q-131 0 -131 156
q0 41 8 94q-179 -248 -336 -248q-110 1 -192 93q-82 91 -82 262q0 174 94.5 347.5t239.5 280.5q149 110 295 111q47 0 121 -15q71 -16 97 -16q23 0 122 31h22l-141 -790q-24 -145 36 -145q58 0 160 50v-8q-59 -74 -148 -138t-165 -65z" />
    <glyph glyph-name="uni01E2" unicode="&#x1e2;" horiz-adv-x="1955" 
d="M1585 1645l-18 -109h-504l18 109h504zM559 582h438l131 761h-10zM375 8v-8h-477l2 8q96 37 199 145q101 105 323 400l436 582q112 151 18 213q-43 28 -137 57l2 8h1182l-53 -315h-10q-16 48 -28 78t-33 64.5t-45 53.5t-60.5 32t-83.5 13h-234l-98 -575h217q79 0 132 32.5
t108 102.5h10l-57 -344h-11q-35 72 -77.5 102.5t-118.5 30.5h-215l-107 -614h246q109 0 183 48q75 49 241 224h8l-100 -346h-1006l2 8q75 23 117.5 60t60.5 83t33 130l37 213h-485q-218 -295 -220 -381q0 -63 99 -105z" />
    <glyph glyph-name="uni01E3" unicode="&#x1e3;" horiz-adv-x="1593" 
d="M1235 1352l-18 -109h-504l18 109h504zM1343 889q0 55 -24.5 91t-77.5 36q-97 0 -189 -152q-93 -153 -100 -354q202 44 297 156q94 112 94 223zM688 1014q-139 0 -250 -198q-110 -199 -110 -440q0 -121 34.5 -181.5t102.5 -59.5q105 0 211 178q31 55 57 191l80 469
q-58 41 -125 41zM709 1069q97 0 209 -31q6 1 100 31h22l-20 -102q146 102 270 102q75 0 132.5 -18.5t96.5 -67.5t40 -125q0 -105 -130 -217q-129 -111 -479 -170q3 -61 16.5 -116t41 -105.5t76 -80.5t112.5 -30q168 0 303 162l14 -14q-70 -129 -183 -220.5t-242 -91.5
q-146 0 -234.5 83t-118.5 231q-211 -312 -379 -314q-111 1 -194 93q-82 91 -82 262q0 174 94.5 347.5t239.5 280.5q149 110 295 111z" />
    <glyph glyph-name="uni01E4" unicode="&#x1e4;" horiz-adv-x="1548" 
d="M92 627q0 226 132.5 413t343.5 294q211 106 448 108q104 0 240.5 -21.5t220.5 -56.5l-54 -299h-8q-121 307 -403 307q-186 0 -337.5 -114.5t-230.5 -293.5q-78 -177 -77 -368q0 -245 130 -390q131 -146 332 -147q123 0 232 45l35 201h-219q9 51 16 98h221l4 27
q10 59 10 112q0 60 -32.5 93t-94.5 53v8h523v-8q-82 -32 -114 -78t-54 -180l-4 -27h192q-10 -53 -16 -98h-195l-47 -272q-67 -11 -196 -34q-169 -30 -310 -30q-279 -1 -484 181q-204 182 -204 477z" />
    <glyph glyph-name="uni01E5" unicode="&#x1e5;" horiz-adv-x="968" 
d="M334 581q0 -34 5 -64.5t17.5 -61t37.5 -49t60 -19.5q60 0 110 78q88 141 87 348q0 33 -5 65t-17.5 64.5t-38 52t-60.5 19.5q-60 0 -109 -79q-87 -149 -87 -354zM502 -98l-275 90q-143 -68 -143 -186t98 -180t210 -62q43 0 86.5 6t90 20t82.5 42t51 67h-296q9 51 16 98
h272q-33 53 -192 105zM-127 -221q0 166 320 231q-84 54 -84 118q0 72 60.5 132.5t137.5 95.5q-96 33 -151 105t-56 172q0 112 63.5 213.5t166.5 162t215 60.5q129 0 217 -70q16 -2 35 -2q130 0 200 103q68 -44 68 -94q0 -47 -23.5 -78t-69.5 -31q-42 0 -149 39
q53 -72 54 -172q1 -172 -139 -300t-308 -128q-34 0 -68 6q-70 -40 -69 -90q0 -58 229 -118q46 -11 80.5 -21.5t80.5 -28t78.5 -39t62.5 -50t45.5 -67t15.5 -84.5q0 -23 -6 -47h194q-10 -53 -16 -98h-221q-73 -99 -212.5 -145t-286.5 -46q-166 0 -315 76q-150 77 -149 195z
" />
    <glyph glyph-name="Gcaron" unicode="&#x1e6;" horiz-adv-x="1548" 
d="M1315 1796l-240 -264h-117l-137 264h17l202 -115l258 115h17zM785 -31q-271 -1 -478 181q-205 181 -205 477q0 141 53 269.5t144 226t208.5 170t251.5 110.5t269 39q102 0 244 -22.5t217 -57.5l-53 -297h-9q-125 305 -405 305q-186 0 -336.5 -113.5t-229.5 -292.5
q-78 -177 -77 -368q0 -245 130 -390q131 -146 333 -147q120 0 229 45l57 326q12 73 12 118q2 99 -126 140l2 8h520l-2 -8q-81 -31 -113 -78q-31 -45 -55 -180l-66 -379q-240 -82 -515 -82z" />
    </font>
</defs>
</svg>
