<?xml version="1.0" standalone="no"?>
<!DOCTYPE svg PUBLIC "-//W3C//DTD SVG 1.1//EN" "http://www.w3.org/Graphics/SVG/1.1/DTD/svg11.dtd" >
<svg xmlns="http://www.w3.org/2000/svg" xmlns:xlink="http://www.w3.org/1999/xlink" version="1.1">
<metadata>
Created by FontForge 20170731 at Thu Mar 21 20:31:54 2019
 By Aleksey,,,
Copyright (c) 2013 by Jonas Hecksher, Playtype, e-Types AS. All rights reserved.
</metadata>
<defs>
<font id="BerlingskeSerif-Blk" horiz-adv-x="1204" >
  <font-face 
    font-family="BerlingskeSerif-Blk"
    font-weight="900"
    font-stretch="normal"
    units-per-em="2048"
    panose-1="2 0 10 3 8 0 0 2 0 4"
    ascent="1638"
    descent="-410"
    x-height="1044"
    cap-height="1413"
    bbox="-737 -709 4221 2374"
    underline-thickness="102"
    underline-position="-510"
    unicode-range="U+0020-FB06"
  />
<missing-glyph horiz-adv-x="1024" 
d="M1024 1413v-1413h-1024v1413h1024zM78 78h868v1255h-868v-1255zM762 682q-40 0 -69 29t-27 90v254h-43v8q72 39 131 125h12v-94h106v-39h-106v-252q0 -72 65 -72q30 1 62 21l4 -11q-17 -24 -60 -41.5t-75 -17.5zM430 698v-8h-287v8q51 14 65.5 45.5t14.5 92.5v258
q0 62 -14 91.5t-66 45.5v8h271q97 0 145 -36t47 -107q0 -82 -57 -122t-143 -40h-70v-98q0 -63 18 -93.5t76 -44.5zM336 1206v-241h57q50 0 75.5 37.5t25.5 89.5q0 51 -23 82.5t-72 31.5h-63z" />
    <glyph glyph-name="f_f" unicode="ff" horiz-adv-x="1374" 
d="M526 1044h279v52h-21q-68 0 -116.5 42t-49.5 109q0 60 34.5 107t90.5 71q-25 5 -51 7q-61 0 -100 -37.5t-52.5 -87t-13.5 -109.5v-154zM1329 8v-8h-629v8q70 40 87 94q17 52 18 177v647h-279v-647q0 -121 24 -175t116 -96v-8h-631v8q73 41 92 96q20 57 20 175v647h-161
l2 8l159 110v43q0 134 82 225q145 163 439 163q195 0 264 -119q145 119 397 119q126 0 204 -57q79 -58 79 -141q0 -78 -46.5 -129.5t-123.5 -51.5q-68 0 -117 42t-49 109q0 60 34.5 107t90.5 71q-25 5 -51 7q-61 0 -100 -37.5t-52.5 -87t-13.5 -109.5v-154h182v-118h-182
v-647q0 -120 25 -174q25 -53 120 -97z" />
    <glyph glyph-name="f_f_i" unicode="ffi" horiz-adv-x="1961" 
d="M526 1044h279v52h-21q-68 0 -116.5 42t-49.5 109q0 60 34.5 107t90.5 71q-25 5 -51 7q-61 0 -100 -37.5t-52.5 -87t-13.5 -109.5v-154zM1946 8v-8h-596v8q73 41 92 96q20 57 20 175v456q0 189 -98 191h-180v-647q0 -119 22 -173t103 -98v-8h-617v8q73 41 92 96
q20 56 21 175v647h-279v-647q0 -121 24 -175t116 -96v-8h-631v8q73 41 92 96q20 57 20 175v647h-161l2 8l159 110v43q0 134 82 225q145 163 439 163q185 0 258 -109q140 109 481 109q389 0 389 -197q0 -74 -50 -120t-125 -46q-73 0 -124 39.5t-51 110.5q0 109 117 151
q-45 17 -136 19q-245 0 -243 -234v-154h248q147 0 393 25h8v-790q0 -118 20 -175q19 -56 93 -96z" />
    <glyph glyph-name="f_f_l" unicode="ffl" horiz-adv-x="1970" 
d="M526 1044h279v52h-21q-68 0 -116.5 42t-49.5 109q0 60 34.5 107t90.5 71q-25 5 -51 7q-61 0 -100 -37.5t-52.5 -87t-13.5 -109.5v-154zM1954 8v-8h-594v8q69 38 86 92q16 51 16 179v817h-20q-68 0 -117 42t-49 109q0 60 34.5 107t90.5 71q-25 5 -51 7q-61 0 -100 -37.5
t-52.5 -87t-13.5 -109.5v-154h182v-118h-182v-647q0 -125 22 -176t115 -95v-8h-629v8q73 41 92 96q20 56 21 175v647h-279v-647q0 -121 24 -175t116 -96v-8h-631v8q73 41 92 96q20 57 20 175v647h-161l2 8l159 110v43q0 134 82 225q145 163 439 163q195 0 264 -119
q146 119 393 119q188 0 260 -113q88 31 248 113h8v-1196q2 -120 21 -175t92 -96z" />
    <glyph glyph-name="f_b" unicode="fb" horiz-adv-x="1933" 
d="M1284 45q102 0 163 123q60 122 60 326q0 45 -3 85.5t-11 90.5t-25 89.5t-41.5 74.5t-64 54t-89.5 19q-43 0 -89 -24v-813q44 -25 100 -25zM805 61v1035h-21q-68 0 -116.5 42t-49.5 109q0 60 34.5 107t90.5 71q-25 5 -51 7q-61 0 -100 -37.5t-52.5 -87t-13.5 -109.5v-154
h183v-118h-183v-647q0 -121 23 -175q22 -52 115 -96v-8h-629v8q73 41 92 96q20 57 20 175v647h-161l2 8l159 110v43q0 134 82 225q145 163 439 163q189 0 260 -113q97 34 248 113h8v-570q137 164 318 164q103 0 179.5 -42t119.5 -114t63 -157t20 -183q0 -168 -77 -299
t-224 -213q-151 -85 -317 -86q-101 1 -232.5 26t-228.5 60z" />
    <glyph glyph-name="f_h" unicode="fh" horiz-adv-x="1943" 
d="M1927 8v-8h-596v8q73 41 92 96q20 56 21 175v452q0 74 -39.5 123t-112.5 49q-62 0 -108 -12v-612q0 -118 20 -175q19 -55 92 -96v-8h-604v8q73 41 92 96q20 56 21 175v817h-21q-68 0 -116.5 42t-49.5 109q0 60 34.5 107t90.5 71q-25 5 -51 7q-61 0 -100 -37.5t-52.5 -87
t-13.5 -109.5v-154h183v-118h-183v-647q0 -121 23 -175q22 -52 115 -96v-8h-629v8q73 41 92 96q20 57 20 175v647h-161l2 8l159 110v43q0 134 82 225q145 163 439 163q188 0 260 -113q88 31 248 113h8v-564q65 76 159 117t196 41q113 0 195 -80q81 -79 81 -258v-452
q0 -118 20 -175q19 -55 92 -96z" />
    <glyph glyph-name="f_i" unicode="fi" horiz-adv-x="1304" 
d="M1288 8v-8h-596v8q73 41 92 96q20 56 21 175v456q0 189 -98 191h-181v-647q0 -116 23 -173q23 -56 102 -98v-8h-616v8q73 41 92 96q20 57 20 175v647h-161l2 8l159 110v43q0 229 175 313q148 73 428 75q389 0 389 -197q0 -74 -50 -120t-125 -46q-73 0 -124 39.5
t-52 110.5q0 109 117 151q-45 17 -135 19q-244 0 -244 -234v-154h248q147 0 393 25h9v-790q0 -118 20 -175q19 -55 92 -96z" />
    <glyph glyph-name="f_j" unicode="fj" horiz-adv-x="1304" 
d="M805 37v698q0 189 -98 191h-181v-647q0 -116 23 -173q23 -56 102 -98v-8h-616v8q73 41 92 96q20 57 20 175v647h-161l2 8l159 110v43q0 229 175 313q148 73 428 75q389 0 389 -197q0 -74 -50 -120t-125 -46q-73 0 -124 39.5t-52 110.5q0 109 117 151q-45 17 -135 19
q-244 0 -244 -234v-154h248q147 0 393 25h17v-868q0 -101 -43 -201t-115 -175q-147 -153 -410 -255l-6 12q80 50 138 173q57 125 57 282z" />
    <glyph glyph-name="f_k" unicode="fk" horiz-adv-x="1990" 
d="M1995 8v-8h-297q-130 0 -173 31t-141 192l-178 297l205 213q68 71 74 125q6 55 -31 92q-35 35 -117 80v14h643v-8q-125 -23 -200.5 -71t-167.5 -154l-119 -133l303 -447q83 -123 121 -165q36 -39 78 -58zM1296 8v-8h-594v8q69 38 86 92q15 49 17 179v817h-21
q-68 0 -116.5 42t-49.5 109q0 60 34.5 107t90.5 71q-25 5 -51 7q-61 0 -100 -37.5t-52.5 -87t-13.5 -109.5v-154h183v-118h-183v-647q0 -121 23 -175q22 -52 115 -96v-8h-629v8q73 41 92 96q20 57 20 175v647h-161l2 8l159 110v43q0 134 82 225q145 163 439 163
q188 0 260 -113q88 31 248 113h8v-1196q0 -118 20 -175q19 -55 92 -96z" />
    <glyph glyph-name="f_l" unicode="fl" horiz-adv-x="1312" 
d="M1296 8v-8h-594v8q69 38 86 92q15 49 17 179v817h-21q-68 0 -116.5 42t-49.5 109q0 60 34.5 107t90.5 71q-25 5 -51 7q-61 0 -100 -37.5t-52.5 -87t-13.5 -109.5v-154h183v-118h-183v-647q0 -121 23 -175q22 -52 115 -96v-8h-629v8q73 41 92 96q20 57 20 175v647h-161
l2 8l159 110v43q0 134 82 225q145 163 439 163q188 0 260 -113q88 31 248 113h8v-1196q0 -118 20 -175q19 -55 92 -96z" />
    <glyph glyph-name="f_t" unicode="ft" horiz-adv-x="1431" 
d="M1135 -16q-330 0 -330 321v621h-279v-647q0 -118 26 -173t120 -98v-8h-637v8q73 41 92 96q20 57 20 175v647h-161l2 8l159 110v43q0 134 82 225q145 163 443 163q126 0 204 -57q78 -58 78 -141q0 -78 -46.5 -129.5t-123.5 -51.5q-68 0 -116.5 42t-49.5 109q0 60 34.5 107
t90.5 71q-25 5 -51 7q-61 0 -100 -37.5t-52.5 -87t-13.5 -109.5v-154h252q72 0 115.5 12.5t108.5 49.5q32 18 80 70t75 92h19v-224h239v-118h-239v-619q0 -76 43.5 -121t119.5 -45q49 0 109 21l8 -10q-142 -168 -321 -168z" />
    <glyph glyph-name="f_f_b" unicode="ffb" horiz-adv-x="2590" 
d="M526 1044h279v52h-21q-68 0 -116.5 42t-49.5 109q0 60 34.5 107t90.5 71q-25 5 -51 7q-61 0 -100 -37.5t-52.5 -87t-13.5 -109.5v-154zM1942 45q102 0 162 123q60 122 60 326q0 413 -234 413q-42 0 -89 -24v-813q44 -25 101 -25zM1462 61v1035h-20q-68 0 -117 42t-49 109
q0 60 34.5 107t90.5 71q-25 5 -51 7q-61 0 -100 -37.5t-52.5 -87t-13.5 -109.5v-154h182v-118h-182v-647q0 -125 22 -176t115 -95v-8h-629v8q73 41 92 96q20 56 21 175v647h-279v-647q0 -121 24 -175t116 -96v-8h-631v8q73 41 92 96q20 57 20 175v647h-161l2 8l159 110v43
q0 134 82 225q145 163 439 163q195 0 264 -119q146 119 393 119q189 0 260 -113q97 34 248 113h8v-570q137 164 318 164q83 0 149 -28t108.5 -75t71.5 -112t41 -134.5t13 -146.5q0 -343 -301 -512q-151 -85 -318 -86q-100 1 -232.5 26t-228.5 60z" />
    <glyph glyph-name="f_f_f" unicode="fff" horiz-adv-x="2031" 
d="M1184 1044h278v52h-20q-68 0 -117 42t-49 109q0 60 34.5 107t90.5 71q-25 5 -51 7q-61 0 -100 -37.5t-52.5 -87t-13.5 -109.5v-154zM1462 926h-278v-647q0 -120 25 -174q25 -53 120 -97v-8h-629v8q70 40 87 94q17 52 18 177v647h-279v-647q0 -121 24 -175t116 -96v-8
h-631v8q73 41 92 96q20 57 20 175v647h-161l2 8l159 110v43q0 134 82 225q145 163 439 163q195 0 264 -119q146 119 393 119q195 0 264 -119q145 119 397 119q126 0 204 -57q79 -58 79 -141q0 -78 -46.5 -129.5t-123.5 -51.5q-68 0 -117 42t-49 109q0 60 34.5 107t90.5 71
q-25 5 -51 7q-61 0 -100 -37.5t-52.5 -87t-13.5 -109.5v-154h182v-118h-182v-647q0 -118 26 -173t120 -98v-8h-629v8q70 40 87 94t17 177v647zM526 1044h279v52h-21q-68 0 -116.5 42t-49.5 109q0 60 34.5 107t90.5 71q-25 5 -51 7q-61 0 -100 -37.5t-52.5 -87t-13.5 -109.5
v-154z" />
    <glyph glyph-name="f_f_h" unicode="ffh" horiz-adv-x="2600" 
d="M526 1044h279v52h-21q-68 0 -116.5 42t-49.5 109q0 60 34.5 107t90.5 71q-25 5 -51 7q-61 0 -100 -37.5t-52.5 -87t-13.5 -109.5v-154zM2585 8v-8h-596v8q73 41 92 96q20 57 20 175v452q0 74 -39.5 123t-112.5 49q-61 0 -108 -12v-612q2 -120 21 -175t92 -96v-8h-604v8
q73 41 92 96q20 57 20 175v817h-20q-68 0 -117 42t-49 109q0 60 34.5 107t90.5 71q-25 5 -51 7q-61 0 -100 -37.5t-52.5 -87t-13.5 -109.5v-154h182v-118h-182v-647q0 -125 22 -176t115 -95v-8h-629v8q73 41 92 96q20 56 21 175v647h-279v-647q0 -121 24 -175t116 -96v-8
h-631v8q73 41 92 96q20 57 20 175v647h-161l2 8l159 110v43q0 134 82 225q145 163 439 163q195 0 264 -119q146 119 393 119q188 0 260 -113q88 31 248 113h8v-564q65 76 159 117t196 41q113 0 195 -80q81 -79 81 -258v-452q0 -118 20 -175q20 -56 93 -96z" />
    <glyph glyph-name="f_f_j" unicode="ffj" horiz-adv-x="1961" 
d="M526 1044h279v52h-21q-68 0 -116.5 42t-49.5 109q0 60 34.5 107t90.5 71q-25 5 -51 7q-61 0 -100 -37.5t-52.5 -87t-13.5 -109.5v-154zM1462 37v698q0 189 -98 191h-180v-647q0 -119 22 -173t103 -98v-8h-617v8q73 41 92 96q20 56 21 175v647h-279v-647q0 -121 24 -175
t116 -96v-8h-631v8q73 41 92 96q20 57 20 175v647h-161l2 8l159 110v43q0 134 82 225q145 163 439 163q185 0 258 -109q140 109 481 109q389 0 389 -197q0 -74 -50 -120t-125 -46q-73 0 -124 39.5t-51 110.5q0 109 117 151q-45 17 -136 19q-245 0 -243 -234v-154h248
q147 0 393 25h16v-868q0 -101 -43 -200.5t-116 -175.5q-147 -153 -408 -255l-6 12q66 41 111.5 122.5t64 165.5t18.5 167z" />
    <glyph glyph-name="f_f_k" unicode="ffk" horiz-adv-x="2648" 
d="M526 1044h279v52h-21q-68 0 -116.5 42t-49.5 109q0 60 34.5 107t90.5 71q-25 5 -51 7q-61 0 -100 -37.5t-52.5 -87t-13.5 -109.5v-154zM1954 8v-8h-594v8q69 38 86 92q16 51 16 179v817h-20q-68 0 -117 42t-49 109q0 60 34.5 107t90.5 71q-25 5 -51 7q-61 0 -100 -37.5
t-52.5 -87t-13.5 -109.5v-154h182v-118h-182v-647q0 -125 22 -176t115 -95v-8h-629v8q73 41 92 96q20 56 21 175v647h-279v-647q0 -121 24 -175t116 -96v-8h-631v8q73 41 92 96q20 57 20 175v647h-161l2 8l159 110v43q0 134 82 225q145 163 439 163q195 0 264 -119
q146 119 393 119q188 0 260 -113q88 31 248 113h8v-1196q2 -120 21 -175t92 -96zM2652 8v-8h-297q-130 0 -173 31q-44 32 -140 192l-178 297l204 213q68 71 74 125q6 55 -31 92q-37 36 -116 80v14h643v-8q-86 -16 -149 -45t-110 -69t-110 -111l-119 -133l304 -447
q86 -127 120 -165q36 -39 78 -58z" />
    <glyph glyph-name=".notdef" horiz-adv-x="1024" 
d="M1024 1413v-1413h-1024v1413h1024zM78 78h868v1255h-868v-1255zM762 682q-40 0 -69 29t-27 90v254h-43v8q72 39 131 125h12v-94h106v-39h-106v-252q0 -72 65 -72q30 1 62 21l4 -11q-17 -24 -60 -41.5t-75 -17.5zM430 698v-8h-287v8q51 14 65.5 45.5t14.5 92.5v258
q0 62 -14 91.5t-66 45.5v8h271q97 0 145 -36t47 -107q0 -82 -57 -122t-143 -40h-70v-98q0 -63 18 -93.5t76 -44.5zM336 1206v-241h57q50 0 75.5 37.5t25.5 89.5q0 51 -23 82.5t-72 31.5h-63z" />
    <glyph glyph-name=".null" horiz-adv-x="0" 
 />
    <glyph glyph-name="nonmarkingreturn" horiz-adv-x="682" 
 />
    <glyph glyph-name="space" unicode=" " horiz-adv-x="430" 
 />
    <glyph glyph-name="exclam" unicode="!" horiz-adv-x="612" 
d="M518 179q0 -86 -63 -144.5t-149 -58.5q-87 0 -149.5 58.5t-62.5 144.5t62 145t149 61q87 0 150 -59.5t63 -146.5zM94 1235q0 86 62 146.5t149 60.5t150 -60.5t63 -146.5q0 -131 -92 -377t-107 -403h-26q-15 157 -107 403t-92 377z" />
    <glyph glyph-name="quotedbl" unicode="&#x22;" horiz-adv-x="917" 
d="M395 1274q-2 -62 -73 -212t-76 -261h-25q-6 107 -81 258q-74 154 -74 215q0 66 50 114t116 50q65 0 114 -49.5t49 -114.5zM591 1059q-75 153 -75 215q0 66 50 114t116 50q65 0 114.5 -49t49.5 -115q0 -62 -73 -212q-72 -149 -77 -261h-24q-6 107 -81 258z" />
    <glyph glyph-name="numbersign" unicode="#" horiz-adv-x="1269" 
d="M438 567h340l49 279h-340zM336 479h-213v88h227l49 279h-276v88h293l84 479h88l-84 -479h340l84 479h88l-84 -479h215v-88h-232l-49 -279h281v-88h-295l-84 -479h-88l84 479h-340l-84 -479h-88z" />
    <glyph glyph-name="dollar" unicode="$" horiz-adv-x="1269" 
d="M371 1163q0 -42 17.5 -77.5t52 -65t62.5 -47t72 -41.5v438q-86 -15 -145 -69.5t-59 -137.5zM670 504v-465q89 17 148.5 77.5t59.5 147.5q0 79 -52 132q-54 54 -156 108zM121 256q0 82 54.5 136t137.5 54q87 0 139 -56t52 -144q0 -92 -117 -185q94 -31 191 -30v522
q-24 12 -150 74q-78 38 -112 68q-13 11 -41 34.5t-41 34.5q-46 38 -64 72q-51 94 -51 174q0 74 25.5 139.5t70 114.5t103 86.5t125.5 59.5t137 28v106h88v-102q184 -6 297 -89t113 -179q0 -85 -48 -138t-132 -53q-72 0 -117.5 38.5t-45.5 108.5q0 64 41 112.5t105 72.5
q-111 55 -213 61v-489q228 -109 307 -168q159 -122 160 -279q1 -128 -64.5 -231t-170 -161.5t-230.5 -72.5l2 -149h-92l-2 143q-215 5 -336 85q-121 81 -121 202z" />
    <glyph glyph-name="percent" unicode="%" horiz-adv-x="1722" 
d="M1294 72q47 0 85.5 45t60.5 109.5t33.5 125.5t11.5 104q0 30 -4.5 70t-15 89.5t-34 82.5t-55.5 33q-80 2 -128 -151q-48 -151 -48 -310q0 -25 4 -55t13.5 -64t29.5 -56.5t47 -22.5zM1215 -25q-125 2 -213 95q-88 94 -87 239q0 198 121 349q122 152 297 153
q121 0 194 -90.5t73 -214.5q0 -126 -43.5 -242.5t-127.5 -200.5q-88 -88 -214 -88zM502 702q84 0 137 138q53 139 53 246q0 31 -4.5 70.5t-15 89.5t-33.5 83t-55 33q-80 0 -128 -152t-48 -309q0 -25 4 -55.5t13.5 -64.5t29.5 -56.5t47 -22.5zM926 1225q-64 0 -142 32
q18 -47 18 -147q0 -114 -46 -226.5t-126 -192.5q-87 -87 -209 -87q-121 0 -210 98q-88 97 -88 265q0 167 121 321t288 154q95 0 196 -71t208 -71q202 0 377 199h82l-989 -1595h-99l877 1411l-6 4q-12 -5 -48 -27q-104 -64 -204 -67z" />
    <glyph glyph-name="ampersand" unicode="&#x26;" horiz-adv-x="1591" 
d="M706 1182q0 -100 121 -287q91 53 131 123.5t40 175.5q0 82 -35 141t-111 59q-53 0 -87.5 -35t-46.5 -80t-12 -97zM383 559q0 -122 103 -259q104 -138 221 -138q89 0 163 53l-374 502q-57 -30 -85 -65t-28 -93zM1595 8v-8h-563l-131 174q-229 -205 -495 -205
q-150 0 -258 128q-108 129 -108 267t86 215q88 78 339 181q-103 162 -105 270q0 188 166 300t334 112q51 0 101.5 -8t101.5 -27.5t89.5 -48t63 -74.5t23.5 -102q0 -118 -96 -192q-96 -73 -287 -138q29 -41 125 -166l143 -182q106 165 43 270q-32 54 -118 68v8h542v-8
q-125 -33 -281 -209q-80 -88 -140 -163q-2 -2 -5.5 -6.5t-5.5 -6.5l123 -154q135 -172 194 -230q53 -51 119 -65z" />
    <glyph glyph-name="quotesingle" unicode="'" horiz-adv-x="466" 
d="M399 1274q-2 -62 -73 -212t-76 -261h-25q-6 107 -81 258q-74 154 -74 215q0 66 50 114t116 50q66 0 113.5 -49t49.5 -115z" />
    <glyph glyph-name="parenleft" unicode="(" horiz-adv-x="753" 
d="M492 624q0 -266 58 -473t195 -438h-8q-185 119 -381 339q-103 118 -168.5 269t-65.5 295q0 128 44.5 256t121.5 238q184 264 449 438h8q-135 -241 -194 -450t-59 -474z" />
    <glyph glyph-name="parenright" unicode=")" horiz-adv-x="753" 
d="M262 624q0 265 -59 475.5t-195 448.5h8q272 -183 450 -438q165 -234 165 -494q0 -109 -35.5 -218.5t-98.5 -206.5t-135.5 -178.5t-159.5 -157.5q-89 -79 -186 -142h-8q138 232 196 438.5t58 472.5z" />
    <glyph glyph-name="asterisk" unicode="*" horiz-adv-x="808" 
d="M453 1030l264 -178l-213 -154l-101 297l-102 -297l-211 152l266 180l-327 19l86 241l262 -203l-96 326h258l-107 -326l268 203l80 -241z" />
    <glyph glyph-name="plus" unicode="+" horiz-adv-x="1269" 
d="M707 504v-418h-148v418h-416v147h416v416h148v-416h417v-147h-417z" />
    <glyph glyph-name="comma" unicode="," horiz-adv-x="546" 
d="M186 -2q0 42 -47 103t-47 123q0 71 52.5 116t125.5 45q88 0 138 -61.5t50 -151.5q0 -99 -112 -232q-115 -137 -237 -235l-11 4q88 140 88 289z" />
    <glyph glyph-name="hyphen" unicode="-" horiz-adv-x="567" 
d="M526 696v-231h-485v231h485z" />
    <glyph glyph-name="period" unicode="." horiz-adv-x="546" 
d="M481 179q0 -86 -61.5 -144.5t-147.5 -58.5q-87 0 -146.5 58.5t-59.5 145.5q0 86 60 146t146 59q87 0 148 -59.5t61 -146.5z" />
    <glyph glyph-name="slash" unicode="/" horiz-adv-x="823" 
d="M823 1413l-692 -1413h-131l692 1413h131z" />
    <glyph glyph-name="zero" unicode="0" horiz-adv-x="1269" 
d="M635 1442q102 0 190.5 -39.5t153.5 -109t111.5 -153.5t74.5 -182q37 -121 37 -226q0 -218 -87 -402q-166 -361 -493 -361q-126 0 -239 73.5t-179 187.5q-136 237 -135 480t141 477q69 116 181.5 185.5t243.5 69.5zM471 694q0 -667 164 -667t164 667q0 447 -74 610
q-38 80 -90 80q-28 0 -51.5 -23.5t-39.5 -64.5t-28.5 -90.5t-20 -111t-13 -115.5t-7.5 -114t-3 -97.5t-1 -73.5z" />
    <glyph glyph-name="one" unicode="1" horiz-adv-x="1269" 
d="M993 8v-8h-669v8q93 43 118 100q26 59 27 179v800q-126 -36 -264 -47l-6 19q143 34 322.5 146t318.5 233h8v-1151q0 -120 26 -178q26 -57 119 -101z" />
    <glyph glyph-name="two" unicode="2" horiz-adv-x="1269" 
d="M1090 0h-963v55l408 502q213 263 213 498q0 111 -75 197.5t-184 86.5q-52 0 -112 -21t-86 -56q99 -6 169 -63.5t70 -152.5q0 -87 -55.5 -143.5t-142.5 -56.5q-94 0 -150.5 60.5t-56.5 154.5q0 143 153 262q154 119 354 119q71 0 140 -13.5t134.5 -43.5t114.5 -73t79 -107
t30 -141q0 -177 -185 -326q-79 -64 -169 -123q-64 -41 -174 -118q-85 -59 -131 -118l-49 -62h723z" />
    <glyph glyph-name="three" unicode="3" horiz-adv-x="1269" 
d="M707 1124h-535v289h905v-8l-389 -453q91 -18 172 -58.5t146 -99.5t103 -142t38 -177q1 -119 -61 -220q-82 -131 -244 -208.5t-325 -77.5q-45 0 -88.5 4t-94 13.5t-92.5 28.5t-77 45.5t-55 68t-20 92.5q0 82 54.5 136.5t137.5 54.5q82 0 138.5 -55.5t56.5 -137.5
q0 -111 -98 -188q28 -8 55 -7q99 0 194 73q71 54 109.5 139t38.5 178q0 166 -110 240q-94 63 -221 63q-14 0 -42 -2l-14 24z" />
    <glyph glyph-name="four" unicode="4" horiz-adv-x="1269" 
d="M1178 8v-8h-660v8q92 42 119 100t27 179v82h-586v8l604 1036h350v-858h139v-186h-139v-82q0 -117 26.5 -176t119.5 -103zM297 555h367v643z" />
    <glyph glyph-name="five" unicode="5" horiz-adv-x="1269" 
d="M1040 1413v-289h-700l-45 -370q72 57 178.5 92t200.5 35t180 -26.5t153.5 -76.5t107.5 -129.5t40 -177.5q0 -116 -57 -215.5t-156 -161.5q-195 -123 -411 -125q-47 0 -90 3.5t-93.5 12.5t-91 27.5t-75.5 44.5t-54.5 68t-20.5 94q0 82 58.5 137.5t140.5 55.5q83 0 135 -54
t54 -137q0 -113 -99 -190q149 -32 265 74q116 105 116 305q0 155 -82 234q-80 79 -211 79q-129 0 -239 -86l-41 18l100 758h737z" />
    <glyph glyph-name="six" unicode="6" horiz-adv-x="1269" 
d="M471 778q-8 -59 -8 -189q-2 -134 27 -284q52 -283 174 -282q44 -1 75.5 44t45.5 115t19.5 123t6.5 98q0 136 -74 269q-73 131 -168 133q-41 0 -98 -27zM1192 480q0 -190 -150 -350q-150 -161 -376 -161q-136 0 -248.5 48t-188 132t-117 199.5t-40.5 249.5q0 180 77 339.5
t220 265.5q275 206 647 239l2 -37q-220 -24 -360.5 -183t-178.5 -388q149 67 281 67q191 0 311.5 -115.5t120.5 -305.5z" />
    <glyph glyph-name="seven" unicode="7" horiz-adv-x="1269" 
d="M907 1104h-796v309h1011v-8q-184 -312 -313.5 -689.5t-157.5 -715.5h-358q29 132 107.5 287t173.5 292q261 378 333 525z" />
    <glyph glyph-name="eight" unicode="8" horiz-adv-x="1269" 
d="M813 1110q-1 262 -193 262q-98 0 -146 -59t-48 -160q0 -174 301 -303q86 125 86 260zM371 342q2 -127 61.5 -216t179.5 -89q104 0 172 63t68 199q0 101 -90 171q-88 69 -266 148q-125 -130 -125 -276zM96 1073q0 164 160 266q160 103 369 103q210 0 361 -94
q152 -95 153 -214q1 -68 -32.5 -123t-90 -88.5t-115.5 -54t-125 -30.5q189 -83 301 -188q111 -103 111 -257q0 -64 -26.5 -124t-72 -106.5t-99.5 -81.5t-114 -59q-122 -48 -252 -53q-128 -4 -260 36q-124 38 -208 127t-84 210q-1 119 93 197.5t281 115.5l-2 4
q-77 35 -133 69.5t-108.5 84t-79.5 115t-27 145.5z" />
    <glyph glyph-name="nine" unicode="9" horiz-adv-x="1269" 
d="M586 1386q-46 0 -79 -47t-48 -117.5t-21 -126.5t-6 -101q0 -147 71 -259q70 -110 184 -110q43 0 89 24q48 275 -30 547q-12 44 -30 82.5t-53 73t-77 34.5zM51 933q0 187 153 348q155 161 398 161q244 0 413 -171q169 -170 169 -437q0 -153 -55 -287t-148.5 -232.5
t-217.5 -173t-261.5 -117t-280.5 -55.5l-2 31q195 19 345 178q148 157 202 416q-146 -62 -272 -64q-126 0 -225 45.5t-158.5 138t-59.5 219.5z" />
    <glyph glyph-name="colon" unicode=":" horiz-adv-x="546" 
d="M481 863q0 -86 -61.5 -144.5t-147.5 -58.5q-87 0 -146.5 58.5t-59.5 145.5t59.5 146t146.5 59t148 -59.5t61 -146.5zM481 179q0 -86 -61.5 -144.5t-147.5 -58.5q-87 0 -146.5 58.5t-59.5 145.5q0 86 60 146t146 59q87 0 148 -59.5t61 -146.5z" />
    <glyph glyph-name="semicolon" unicode=";" horiz-adv-x="546" 
d="M481 863q0 -86 -61.5 -144.5t-147.5 -58.5q-87 0 -146.5 58.5t-59.5 145.5t59.5 146t146.5 59t148 -59.5t61 -146.5zM186 -2q0 42 -47 103t-47 123q0 71 52.5 116t125.5 45q88 0 138 -61.5t50 -151.5q0 -99 -112 -232q-115 -137 -237 -235l-11 4q88 140 88 289z" />
    <glyph glyph-name="less" unicode="&#x3c;" horiz-adv-x="1269" 
d="M1124 328v-170l-981 323v197l981 323v-170l-821 -251z" />
    <glyph glyph-name="equal" unicode="=" horiz-adv-x="1269" 
d="M1124 446v-147h-981v147h981zM1124 856v-147h-981v147h981z" />
    <glyph glyph-name="greater" unicode="&#x3e;" horiz-adv-x="1269" 
d="M1124 678v-197l-981 -323v170l822 252l-822 251v170z" />
    <glyph glyph-name="question" unicode="?" horiz-adv-x="976" 
d="M696 179q0 -86 -61 -144.5t-147 -58.5q-87 0 -147 58.5t-60 145.5q0 86 60 146t146 59q87 0 148 -59.5t61 -146.5zM502 455h-29q0 197 57 391q58 192 58 290t-58 166q-58 70 -135 70t-157 -51q76 -23 131 -80.5t55 -131.5q0 -77 -53.5 -128t-130.5 -51q-87 0 -139 55.5
t-52 142.5q0 130 132 222q133 92 298 92q225 0 344 -87t119 -236t-108 -245q-127 -113 -220 -191q-112 -96 -112 -228z" />
    <glyph glyph-name="at" unicode="@" horiz-adv-x="1656" 
d="M874 524q-57 0 -88.5 -61t-31.5 -124q0 -76 32 -129q31 -52 70 -52q36 0 68 18v342q-44 6 -50 6zM1157 -113l37 -26q-144 -90 -360 -90q-214 0 -389 85.5t-291 256.5q-114 170 -113 389q0 299 238 515q239 216 569 216q199 0 375 -83.5t287 -239.5q110 -155 110 -341
q0 -149 -64.5 -267t-181 -184t-266.5 -67q-76 0 -118 19.5t-58 83.5q-118 -113 -260 -113q-97 0 -161 55.5t-65 151.5q0 116 132 208t346 117v80q0 103 -45.5 165t-145.5 63q-37 0 -98 -15q53 -17 87 -60.5t34 -97.5q0 -55 -42 -95t-98 -42q-60 0 -101.5 39.5t-41.5 98.5
q0 104 116 176t294 71q358 0 358 -299v-399q0 -110 51 -108q43 0 73.5 50t44 125.5t19 134.5t5.5 105q0 166 -75.5 304.5t-211 220t-301.5 81.5t-301.5 -97.5t-204.5 -254.5q-66 -150 -66 -313q0 -296 159 -489q160 -194 405 -193q188 0 319 63z" />
    <glyph glyph-name="A" unicode="A" horiz-adv-x="1638" 
d="M494 610h421l-210 631zM1628 8v-8h-710v8q70 13 100 39t29 99q0 76 -82 319l-21 57h-479q-80 -248 -80 -341q0 -47 8.5 -76.5t30 -48.5t49 -29t74.5 -19v-8h-539v8q77 17 120 52q88 71 241 503l297 850h344l336 -948q127 -357 198 -418q32 -27 84 -39z" />
    <glyph glyph-name="B" unicode="B" horiz-adv-x="1386" 
d="M582 1343v-579h32q123 0 196 83.5t73 208.5q0 128 -77 208q-76 79 -173 79h-51zM582 692v-620h39q130 0 209 90.5t77 222.5q0 132 -78 219.5t-208 87.5h-39zM631 0h-602v8q94 42 119 100q26 60 26 179v848q0 118 -26 173q-25 53 -119 97v8h635q315 0 468 -76
q155 -77 154 -260q0 -68 -37 -125.5t-96.5 -95t-123.5 -61t-128 -33.5v-10q175 -14 305 -108q131 -95 131 -228q1 -208 -176 -312t-530 -104z" />
    <glyph glyph-name="C" unicode="C" horiz-adv-x="1472" 
d="M897 -31q-161 0 -309 49.5t-264 139.5t-185 227t-69 301q0 435 390 642q213 114 444 114t435 -86l15 -346h-8q-206 356 -447 356q-186 0 -297 -165q-110 -166 -110 -480q0 -315 120 -496q121 -180 308 -180q57 1 115.5 26.5t106.5 64.5t94 91.5t79 102t61 100.5h13
l-35 -369q-186 -92 -457 -92z" />
    <glyph glyph-name="D" unicode="D" horiz-adv-x="1644" 
d="M758 0h-729v8q94 42 119 100q26 60 26 179v848q0 118 -26 173q-25 53 -119 97v8h749q336 0 557 -170t221 -485q0 -237 -102 -410t-281 -260.5t-415 -87.5zM563 1337v-1261h148q98 0 176 39.5t126.5 103t80.5 149t45 170t14 174.5q0 281 -121 453t-297 172h-172z" />
    <glyph glyph-name="E" unicode="E" horiz-adv-x="1277" 
d="M1157 0h-1128v8q94 42 119 100q26 60 26 179v848q0 118 -26 173q-25 53 -119 97v8h1069v-389h-15q-79 120 -100 150q-34 48 -80.5 92.5t-89.5 57.5t-115 13h-135v-573h94q122 0 196 38.5t138 139.5h15v-424h-15q-65 98 -139 134t-195 36h-94v-612h146q99 0 145 24
q36 19 81 44q33 18 128 135q97 117 121 145h14z" />
    <glyph glyph-name="F" unicode="F" horiz-adv-x="1230" 
d="M750 8v-8h-721v8q94 42 119 100q26 60 26 179v848q0 118 -26 173q-25 53 -119 97v8h1110v-389h-15q-79 120 -100 150q-34 48 -80.5 92.5t-89.5 57.5t-115 13h-176v-594h135q127 0 196 37t138 142h15v-424h-15q-68 100 -139 135t-195 35h-135v-381q0 -117 39.5 -175.5
t147.5 -103.5z" />
    <glyph glyph-name="G" unicode="G" horiz-adv-x="1605" 
d="M1466 436v-375q-324 -92 -619 -92q-155 0 -293.5 51t-241 141t-162.5 222t-60 287q0 424 399 647q229 125 486 125t452 -86l13 -346h-8q-242 356 -482 356q-87 0 -156.5 -28t-116.5 -78.5t-80 -112.5t-51 -139t-26 -148.5t-8 -149.5q0 -316 120 -483q120 -166 329 -166
q82 0 135 13v358q0 87 -29 135.5t-106 89.5v9h620v-9q-79 -40 -97 -78q-18 -37 -18 -143z" />
    <glyph glyph-name="H" unicode="H" horiz-adv-x="1658" 
d="M1630 8v-8h-680v8q92 42 119 100t27 179v391h-533v-391q0 -117 26.5 -176t119.5 -103v-8h-680v8q94 42 119 100q26 60 26 179v848q0 118 -26 173q-25 53 -119 97v8h680v-8q-95 -44 -120 -97q-26 -55 -26 -173v-365h533v365q0 118 -26 173q-25 53 -120 97v8h680v-8
q-95 -44 -120 -97q-26 -56 -25 -173v-848q1 -121 27 -178t118 -101z" />
    <glyph glyph-name="I" unicode="I" horiz-adv-x="737" 
d="M709 8v-8h-680v8q94 44 119 97q26 55 26 174v856q0 118 -26 173q-25 53 -119 97v8h680v-8q-95 -44 -120 -97q-26 -55 -26 -173v-856q0 -118 26 -173t120 -98z" />
    <glyph glyph-name="J" unicode="J" horiz-adv-x="770" 
d="M174 -2v1137q0 118 -26 173q-25 53 -119 97v8h680v-8q-95 -44 -120 -97q-26 -55 -26 -173v-975q0 -88 -44 -174q-109 -213 -397 -362q-65 -33 -120 -52l-6 6q94 50 136 170t42 250z" />
    <glyph glyph-name="K" unicode="K" horiz-adv-x="1593" 
d="M1599 8v-8h-765v8q32 14 48 22t36 25.5t32 40.5q28 54 -49 193l-209 362l-129 -141v-231q0 -118 26 -173t120 -98v-8h-680v8q94 44 119 97q26 55 26 174v856q0 118 -26 173q-25 53 -119 97v8h680v-8q-95 -44 -120 -97q-26 -55 -26 -173v-519l379 451q218 260 -70 338v8
h670v-8q-98 -36 -175.5 -84t-133.5 -98t-139 -138l-158 -172l418 -661q55 -89 109 -145t136 -99z" />
    <glyph glyph-name="L" unicode="L" horiz-adv-x="1187" 
d="M1116 0h-1087v8q94 44 119 97q26 55 26 174v856q0 118 -26 173q-25 53 -119 97v8h680v-8q-95 -44 -120 -97q-26 -55 -26 -173v-1059h105q99 0 186 37q29 11 68 47.5t65 69.5l74 92q61 78 82 102h14z" />
    <glyph glyph-name="M" unicode="M" horiz-adv-x="2082" 
d="M2066 8v-8h-714v10q106 46 134 104q28 57 17 226l-51 766l-446 -1106h-183l-450 1145l-41 -645q-16 -247 14 -343q30 -95 148 -149v-8h-492v8q122 52 160 144q37 90 55 346l33 481q14 209 -17 282q-32 75 -151 144v8h594l391 -989l395 989h529v-8q-106 -58 -137 -103
q-32 -47 -23 -145l57 -819q12 -166 44 -226q31 -57 134 -104z" />
    <glyph glyph-name="N" unicode="N" horiz-adv-x="1701" 
d="M1485 930v-930h-156l-989 1126v-634q0 -324 78 -408q39 -42 108 -76v-8h-493v8q71 33 109 76q78 88 77 408v643q0 72 -20 121.5t-58.5 83t-105.5 65.5v8h530l799 -899v416q0 312 -78 401q-35 40 -108 74v8h493v-8q-73 -34 -109 -74q-79 -89 -77 -401z" />
    <glyph glyph-name="O" unicode="O" horiz-adv-x="1724" 
d="M1655 705q0 -243 -135.5 -421.5t-371.5 -264.5q-141 -50 -286 -50t-284 49.5t-255 141.5q-114 90 -184 232t-69 313q0 220 121 392q118 165 293 255t378 90q154 0 298.5 -56t253.5 -152t175 -234.5t66 -294.5zM655 139q85 -94 207 -94t207 94q164 179 164 566
q0 64 -6.5 130t-21 143.5t-43 144t-67.5 122.5t-99 88.5t-134 32.5q-63 0 -116.5 -25t-91 -65.5t-66.5 -97.5t-47 -116t-29 -125.5t-15.5 -122.5t-4.5 -109q0 -387 163 -566z" />
    <glyph glyph-name="P" unicode="P" horiz-adv-x="1366" 
d="M563 1337v-671h96q57 0 103 22.5t74.5 59t47.5 86t26.5 99t7.5 102.5q0 122 -63.5 212t-178.5 90h-113zM750 8v-8h-721v8q94 42 119 100q26 60 26 179v848q0 118 -26 173q-25 53 -119 97v8h725q93 0 169 -9.5t150.5 -37t125 -72t81.5 -118.5t31 -172q-1 -96 -34.5 -170.5
t-87.5 -120t-131 -74.5t-155 -40t-168 -11h-172v-301q0 -117 39.5 -175.5t147.5 -103.5z" />
    <glyph glyph-name="Q" unicode="Q" horiz-adv-x="1683" 
d="M842 45q117 0 200 95q150 174 150 565q0 54 -3.5 107.5t-13 120.5t-25.5 126t-43 116.5t-62.5 98.5t-87.5 66.5t-115 25.5t-115 -25.5t-87.5 -66.5t-62.5 -98.5t-43 -116.5t-25.5 -126t-13 -120.5t-3.5 -107.5q0 -390 149 -565q83 -95 201 -95zM842 1442q200 0 372 -90
t283 -254q117 -173 117 -412q0 -238 -142 -420.5t-372 -255.5q319 -115 592.5 -179t541.5 -64q149 0 287 53v-8q-45 -98 -147 -204q-63 -65 -146 -102.5t-170 -37.5q-335 0 -940 370l-219 133l-57 -2q-158 0 -299.5 54.5t-246 150t-165.5 233t-61 295.5q0 223 116 396
q112 164 284 254t372 90z" />
    <glyph glyph-name="R" unicode="R" horiz-adv-x="1466" 
d="M563 1337v-651h64q116 0 199 92q81 90 83 240q0 148 -75 234q-76 85 -187 85h-84zM1485 8v-8h-375q-106 0 -144 30q-38 31 -128 183l-234 405h-41v-331q0 -117 26.5 -176t119.5 -103v-8h-680v8q94 42 119 100q26 60 26 179v848q0 118 -26 173q-25 53 -119 97v8h639
q643 0 643 -387q0 -242 -355 -360l347 -480q67 -94 105 -132q39 -39 77 -46z" />
    <glyph glyph-name="S" unicode="S" horiz-adv-x="1171" 
d="M92 63v404h10q132 -205 236 -315q102 -108 210 -107q106 0 174.5 55.5t68.5 159.5q-1 44 -32.5 90t-69 77t-81.5 57q-194 114 -336 222q-81 61 -131.5 145.5t-50.5 178.5q0 78 32 146.5t85 116t121 82t141.5 51t146.5 16.5q206 0 398 -80v-354h-8q-104 170 -198 264
t-196 94q-92 0 -151 -47t-59 -137q0 -80 72 -147q74 -68 176 -124q115 -64 206 -121q109 -68 179.5 -163t70.5 -207q0 -110 -46 -198t-123.5 -142t-174 -82.5t-201.5 -28.5q-122 2 -250.5 25t-218.5 69z" />
    <glyph glyph-name="T" unicode="T" horiz-adv-x="1413" 
d="M1047 8v-8h-680v8q94 42 119 100q26 60 26 179v1056h-35q-117 0 -193 -61t-235 -268h-10l24 399h1287l24 -399h-10q-156 203 -235 267q-77 62 -193 62h-35v-1056q0 -117 26.5 -176t119.5 -103z" />
    <glyph glyph-name="U" unicode="U" horiz-adv-x="1634" 
d="M1276 403v527q0 270 -56 356q-30 46 -60 68.5t-91 50.5v8h524v-8q-61 -28 -91 -50.5t-60 -68.5q-55 -86 -56 -356v-533q0 -428 -569 -428q-95 0 -178.5 9.5t-171.5 38.5t-150.5 75t-102.5 124t-40 181v738q0 118 -26 173q-25 53 -119 97v8h680v-8q-95 -44 -120 -97
q-26 -55 -26 -173v-766q0 -75 27.5 -130t76 -86t108 -46t131.5 -15q80 0 145 17t116.5 53t80 97t28.5 144z" />
    <glyph glyph-name="V" unicode="V" horiz-adv-x="1556" 
d="M8 1405v8h682v-8q-61 -17 -82 -47q-50 -69 56 -410l233 -762l213 676q54 172 72 276q33 183 -56 234q-34 20 -108 33v8h530v-8q-76 -16 -116 -52q-82 -73 -224 -503l-276 -850h-326l-315 948q-121 358 -196 418q-31 26 -87 39z" />
    <glyph glyph-name="W" unicode="W" horiz-adv-x="2355" 
d="M-8 1405v8h641v-8q-82 -10 -99 -67t19 -214l227 -929l211 667q162 516 -133 543v8h653v-8q-82 -10 -99 -67q-17 -58 20 -214l227 -929l211 667q162 516 -133 543v8h610v-8q-45 -5 -82 -30t-78 -67q-109 -110 -221 -458l-276 -850h-324l-258 930l-301 -930h-320l-294 1067
q-53 189 -93 256q-41 69 -108 82z" />
    <glyph glyph-name="X" unicode="X" horiz-adv-x="1599" 
d="M1630 8v-8h-764v8q75 25 114 52q36 26 36 69t-51 115l-244 344l-221 -309q-47 -67 -47 -115q0 -88 161 -156v-8h-610v8q206 102 318 244l344 418l-328 467q-141 201 -277 268v8h775v-8q-30 -11 -49.5 -20t-45 -25t-38.5 -38t-13 -49q0 -45 66 -143l176 -253l172 258
q59 91 59 143q0 76 -143 127v8h567v-8q-206 -101 -315 -244l-287 -358l389 -553q63 -92 119.5 -150t136.5 -92z" />
    <glyph glyph-name="Y" unicode="Y" horiz-adv-x="1441" 
d="M1053 8v-8h-680v8q92 42 119 100q27 60 26 179v340l-229 424q-76 142 -132 213t-165 141v8h743v-8q-71 -35 -72 -35q-20 -11 -45 -37q-26 -27 -24 -59q11 -92 80 -223l174 -336l153 334q86 193 47 263q-24 39 -58.5 58.5t-90.5 34.5v8h551v-8q-100 -38 -169 -110
q-64 -67 -161 -253l-213 -415v-340q0 -117 26.5 -176t119.5 -103z" />
    <glyph glyph-name="Z" unicode="Z" horiz-adv-x="1261" 
d="M1192 0h-1151v8l723 1329h-209q-120 0 -209 -62q-86 -59 -268 -251h-8l41 389h1101v-8l-714 -1329h229q75 0 113 6q50 8 107.5 51t104.5 94q55 61 171 203h10z" />
    <glyph glyph-name="bracketleft" unicode="[" horiz-adv-x="747" 
d="M694 -219v-68h-538v1835h538v-67h-176v-1700h176z" />
    <glyph glyph-name="backslash" unicode="\" horiz-adv-x="823" 
d="M131 1413l692 -1413h-131l-692 1413h131z" />
    <glyph glyph-name="bracketright" unicode="]" horiz-adv-x="747" 
d="M592 1548v-1835h-539v68h176v1700h-176v67h539z" />
    <glyph glyph-name="asciicircum" unicode="^" horiz-adv-x="874" 
d="M514 1413l211 -485h-41l-248 270l-246 -270h-40l206 485h158z" />
    <glyph glyph-name="underscore" unicode="_" horiz-adv-x="913" 
d="M852 -168v-147h-791v147h791z" />
    <glyph glyph-name="grave" unicode="`" horiz-adv-x="542" 
d="M461 1163h-23q-197 77 -389 250h262q37 -109 150 -250z" />
    <glyph glyph-name="a" unicode="a" horiz-adv-x="1097" 
d="M805 -25q-167 0 -199 158q-129 -158 -291 -158q-119 0 -201 65t-81 181q0 322 571 391v136q0 115 -64.5 177t-177.5 62q-54 0 -120 -20q78 -15 120 -63q42 -49 41 -112q0 -67 -51.5 -114t-118.5 -47q-71 0 -119 45.5t-48 116.5q0 123 133 199q132 75 345 77
q97 0 172 -17.5t135 -57t92 -110.5t32 -171v-422q1 -53 5 -80.5t17.5 -53.5t42 -39t76.5 -20v-8q-62 -49 -149.5 -82t-161.5 -33zM545 563q-57 0 -101 -62q-44 -63 -43 -159q0 -99 40 -149q41 -51 84 -51q46 0 79 16v395q-39 10 -59 10z" />
    <glyph glyph-name="b" unicode="b" horiz-adv-x="1249" 
d="M600 45q102 0 163 123q60 121 60 326q0 45 -3 85.5t-11 90.5t-25 89.5t-41.5 74.5t-64 54t-89.5 19q-43 0 -89 -24v-813q44 -25 100 -25zM121 61v1035q0 136 -25 187q-25 52 -108 91v8q219 20 504 93h8v-570q137 164 318 164q103 0 179.5 -42t119.5 -114t63 -157t20 -183
q0 -168 -77 -299t-224 -213q-151 -85 -317 -86q-101 1 -232.5 26t-228.5 60z" />
    <glyph glyph-name="c" unicode="c" horiz-adv-x="931" 
d="M25 516q0 238 157 395q158 158 387 158q149 0 241 -68q91 -67 91 -161q0 -87 -47 -144t-132 -57q-73 0 -129 46t-56 117q0 64 32 121t88 85q-22 7 -47 7q-75 0 -145 -73q-92 -97 -92 -309q0 -214 91 -324q90 -111 210 -111t233 81l8 -7q-41 -95 -134 -194
q-95 -101 -271 -101q-154 0 -265.5 73t-165.5 193.5t-54 272.5z" />
    <glyph glyph-name="d" unicode="d" horiz-adv-x="1243" 
d="M627 1014q-95 0 -151 -129q-56 -130 -56 -319q0 -45 4 -88t13 -93.5t27.5 -92t44.5 -76.5t67 -55t92 -20q39 2 75 19v784q-43 70 -116 70zM752 -25h-9v162q-131 -162 -299 -162q-168 -1 -282 137q-114 139 -113 376q2 239 149 409q148 172 398 172q57 0 147 -12v39
q0 134 -24 187q-25 52 -109 91v8q206 18 496 93h8v-1121q0 -134 24 -187q24 -52 109 -91v-8q-207 -18 -495 -93z" />
    <glyph glyph-name="e" unicode="e" horiz-adv-x="1007" 
d="M641 645v121q1 238 -97 238q-52 0 -80 -34q-58 -70 -58 -362v-8zM41 504q0 233 143 399q142 166 348 166q201 0 311 -97t109 -294v-117h-546q3 -73 17.5 -133.5t45.5 -114t86.5 -84t131.5 -30.5q72 0 150.5 24t129.5 66l8 -6q-44 -73 -86.5 -124.5t-97.5 -95t-123.5 -65
t-151.5 -21.5q-152 1 -261 72t-161.5 188t-52.5 267z" />
    <glyph glyph-name="f" unicode="f" horiz-adv-x="716" 
d="M672 8v-8h-637v8q73 41 92 96q20 57 20 175v647h-161l2 8l159 110v43q0 134 82 225q145 163 443 163q126 0 204 -57q78 -58 78 -141q0 -78 -46.5 -129.5t-123.5 -51.5q-68 0 -116.5 42t-49.5 109q0 60 34.5 107t90.5 71q-25 5 -51 7q-61 0 -100 -37.5t-52.5 -87
t-13.5 -109.5v-154h183v-118h-183v-647q0 -118 26 -173t120 -98z" />
    <glyph glyph-name="g" unicode="g" horiz-adv-x="1003" 
d="M406 498q24 -72 83 -72t82 72q23 74 23 223q0 291 -106 291t-105 -291q-1 -150 23 -223zM604 -41h-315q-72 -41 -72 -129t66 -148t210 -60t244 64q101 65 101 138q0 27 -8.5 48.5t-20.5 35t-32.5 23.5t-38.5 15.5t-45 8t-44.5 3.5t-44.5 1zM397 254h262q92 0 173 -31.5
t136.5 -100.5t55.5 -163q0 -181 -179 -285t-383 -104t-357 72t-152 165q0 145 274 158q-184 31 -184 176q0 82 61 160t140 109q-213 80 -213 297q0 75 26 136.5t69.5 102.5t103 69.5t124.5 41t135 12.5q100 0 185 -22l373 18l-41 -139l-146 16q84 -90 84 -221
q0 -91 -39.5 -160.5t-106 -109t-144.5 -59t-165 -19.5q-140 0 -237 35q-6 -40 -9 -75t33 -57q37 -22 121 -22z" />
    <glyph glyph-name="h" unicode="h" horiz-adv-x="1280" 
d="M1264 8v-8h-596v8q73 41 92 96q20 57 20 175v452q0 74 -39.5 123t-112.5 49q-62 0 -108 -12v-612q0 -118 20 -175q20 -56 93 -96v-8h-604v8q73 41 92 96q20 57 20 175v817q0 134 -24 187q-25 52 -109 91v8q219 20 504 93h8v-564q67 76 160.5 117t195.5 41q114 0 194 -80
q81 -79 81 -258v-452q0 -118 20 -175q19 -56 93 -96z" />
    <glyph glyph-name="i" unicode="i" horiz-adv-x="649" 
d="M633 8v-8h-596v8q73 41 92 96q20 56 21 175v411q0 137 -25 188q-25 52 -109 91v8q203 18 496 92h8v-790q0 -118 20 -175q20 -56 93 -96zM328 1098q-77 0 -130 54.5t-55 131.5q2 77 55 130.5t130 53.5t131.5 -54t54.5 -130t-55 -131t-131 -55z" />
    <glyph glyph-name="j" unicode="j" horiz-adv-x="632" 
d="M141 37v653q0 136 -24 188q-25 52 -109 91v8q216 19 504 92h8v-868q0 -101 -43 -201t-115 -175q-147 -153 -409 -255l-6 12q66 41 111.5 122.5t64 165.5t18.5 167zM328 1098q-77 0 -130 54.5t-55 131.5q2 77 55 130.5t130 53.5t131.5 -54t54.5 -130t-55 -131t-131 -55z
" />
    <glyph glyph-name="k" unicode="k" horiz-adv-x="1284" 
d="M633 8v-8h-604v8q73 41 92 96q20 57 20 175v817q0 134 -24 187q-25 52 -109 91v8q219 20 504 93h8v-1196q0 -118 20 -175q20 -56 93 -96zM1331 8v-8h-297q-134 0 -183 33q-51 34 -130 190l-160 318l187 192q69 72 73 125q6 56 -30 93q-37 37 -117 81v12h643v-12
q-92 -24 -199.5 -88t-169.5 -133l-100 -113l285 -467q72 -119 111 -161q36 -39 87 -62z" />
    <glyph glyph-name="l" unicode="l" horiz-adv-x="649" 
d="M633 8v-8h-604v8q73 41 92 96q20 57 20 175v817q0 134 -24 187q-25 52 -109 91v8q219 20 504 93h8v-1196q0 -118 20 -175q20 -56 93 -96z" />
    <glyph glyph-name="m" unicode="m" horiz-adv-x="1910" 
d="M1894 8v-8h-596v8q72 40 93 96q20 57 20 175v452q0 78 -48.5 125t-127.5 47q-70 0 -109 -14q25 -65 25 -158v-452q0 -118 20 -175q19 -56 93 -96v-8h-596v8q73 41 92 96q20 57 20 175v452q0 74 -39.5 123t-112.5 49q-62 0 -108 -12v-612q0 -118 20 -175q20 -56 93 -96v-8
h-596v8q73 41 92 96q20 56 21 175v411q0 137 -25 188q-25 52 -109 91v8q203 18 496 92h8v-158q64 73 156 115.5t188 42.5q197 0 260 -170q63 78 169 124t210 46q116 0 198 -80q81 -79 81 -258v-452q0 -118 20 -175q19 -55 92 -96z" />
    <glyph glyph-name="n" unicode="n" horiz-adv-x="1280" 
d="M1264 8v-8h-596v8q73 41 92 96q20 57 20 175v452q0 74 -39.5 123t-112.5 49q-62 0 -108 -12v-612q0 -118 20 -175q20 -56 93 -96v-8h-596v8q73 41 92 96q20 56 21 175v411q0 137 -25 188q-25 52 -109 91v8q203 18 496 92h8v-158q67 76 160.5 117t195.5 41q114 0 194 -80
q81 -79 81 -258v-452q0 -118 20 -175q19 -56 93 -96z" />
    <glyph glyph-name="o" unicode="o" 
d="M995 918q160 -150 160 -392q0 -241 -156 -395t-397 -156q-241 0 -397.5 155.5t-155.5 395.5q0 242 160 393t393 151q232 0 393 -152zM602 39q105 0 135 142q29 145 29 341q0 482 -164 484q-164 0 -164 -484q0 -362 78 -445q35 -38 86 -38z" />
    <glyph glyph-name="p" unicode="p" horiz-adv-x="1271" 
d="M623 45q102 0 162 123q61 121 61 326q0 45 -3 85.5t-11.5 90.5t-25.5 89.5t-41.5 74.5t-64 54t-89.5 19q-43 0 -89 -24v-813q44 -25 101 -25zM666 -401v-9h-635v9q73 41 92 96q20 57 20 174v821q0 136 -24 188q-25 52 -109 91v8q216 19 504 92h8v-164q158 164 314 164
q104 0 181.5 -45t120.5 -121t63.5 -163.5t21.5 -186.5q0 -112 -37.5 -215.5t-113.5 -175.5q-193 -184 -468 -187q-21 0 -84 5v-111q0 -118 26 -173q25 -53 120 -97z" />
    <glyph glyph-name="q" unicode="q" horiz-adv-x="1243" 
d="M1227 -401v-9h-629v9q95 44 120 97q26 56 25 173v268q-135 -162 -301 -162q-166 1 -280 139q-114 139 -113 374q2 238 149 409q148 172 398 172q59 0 168 -16q107 -15 170 -15q53 1 172 31h8v-1200q0 -117 20 -174q20 -55 93 -96zM627 1014q-95 0 -151 -129
q-56 -130 -56 -319q0 -45 4 -88t13 -93.5t27.5 -92t44.5 -76.5t67 -55t92 -20q39 2 75 19v784q-43 70 -116 70z" />
    <glyph glyph-name="r" unicode="r" horiz-adv-x="917" 
d="M918 885q0 -77 -53.5 -128.5t-130.5 -51.5t-128 51t-51 128t51 131t128 54q76 0 130 -53.5t54 -130.5zM666 8v-8h-629v8q73 41 92 96q20 56 21 175v411q0 137 -25 188q-25 52 -109 91v8q203 18 496 92h8v-790q0 -118 26 -173t120 -98z" />
    <glyph glyph-name="s" unicode="s" horiz-adv-x="854" 
d="M553 192q0 35 -16.5 65t-47 52.5t-58 37.5t-63.5 29q-82 32 -154 66q-87 41 -136 112.5t-49 164.5q0 102 63.5 183.5t157 123.5t193.5 43q161 0 307 -51v-285h-9q-111 142 -176 202q-68 60 -134 60q-62 -2 -107 -31.5t-45 -86.5q0 -95 195 -174q44 -18 74.5 -31.5
t71 -35.5t68 -42t57 -48.5t46.5 -59t28.5 -70t11.5 -84.5q0 -85 -41.5 -154.5t-108 -112t-145.5 -65t-159 -22.5q-181 0 -334 47l-14 346h10q196 -318 350 -320q69 0 116.5 37t47.5 104z" />
    <glyph glyph-name="t" unicode="t" horiz-adv-x="755" 
d="M453 -16q-324 0 -324 321v621h-123v14q125 53 250 159.5t225 229.5h19v-285h254v-118h-254v-619q0 -76 41.5 -121t116.5 -45q48 0 108 21l8 -10q-142 -168 -321 -168z" />
    <glyph glyph-name="u" unicode="u" horiz-adv-x="1282" 
d="M791 -25h-9v156q-136 -156 -329 -156q-127 0 -215 81t-88 257v377q0 137 -25 188q-25 52 -109 91v8q203 18 496 92h8v-756q0 -85 52 -128q53 -44 114 -44q62 0 96 9v540q0 136 -24 188q-25 52 -109 91v8q203 18 496 92h8v-715q2 -136 25 -187q24 -52 108 -91v-8
q-207 -18 -495 -93z" />
    <glyph glyph-name="v" unicode="v" 
d="M2 1036v8h641v-8q-83 -10 -103 -66q-19 -55 23 -214l166 -541l84 279q147 525 -51 542v8h446v-8q-62 -7 -133 -132q-69 -122 -166 -423l-155 -481h-308l-243 698q-83 237 -115 282t-86 56z" />
    <glyph glyph-name="w" unicode="w" horiz-adv-x="1816" 
d="M2 1036v8h641v-8q-83 -10 -99 -66q-17 -57 19 -214l127 -529l82 267q67 211 80 262q-44 150 -80 210q-34 58 -82 70v8h600v-8q-82 -10 -99 -66q-17 -57 19 -214l127 -529l82 267q147 525 -51 542v8h447v-8q-62 -7 -133 -132q-69 -122 -166 -423l-156 -481h-287l-170 582
l-190 -582h-307l-203 698q-55 190 -94 257t-107 81z" />
    <glyph glyph-name="x" unicode="x" horiz-adv-x="1245" 
d="M1241 8v-8h-647v12q69 35 82 77q13 40 -41 126q-16 28 -60 94l-67 101l-72 -115q-95 -155 -39 -218q28 -31 90 -65v-12h-483v10q138 77 287 264l166 211l-209 316q-69 102 -113 151q-40 44 -112 84v8h632v-12q-43 -25 -58 -46q-17 -23 -11 -66t80 -156l45 -70l37 54
q103 150 54 220q-25 33 -87 64v12h473v-10q-48 -20 -90 -47.5t-82 -68t-65.5 -69.5t-69.5 -83l-121 -148l244 -374q104 -158 237 -236z" />
    <glyph glyph-name="y" unicode="y" 
d="M2 1036v8h641v-8q-83 -10 -103 -66q-19 -55 23 -214l166 -541l84 279q147 525 -51 542v8h446v-8q-67 -8 -134 -132q-68 -124 -165 -423l-182 -565q-16 -51 -30.5 -88.5t-41.5 -90t-55.5 -85.5t-71.5 -57.5t-92 -24.5q-96 0 -152 48t-56 116t44 111.5t112 43.5
q66 0 114.5 -43t52.5 -108q38 51 94 194l25 68h-224l-243 698q-83 237 -115 282t-86 56z" />
    <glyph glyph-name="z" unicode="z" horiz-adv-x="1077" 
d="M1008 0h-975v10l571 957h-182q-72 0 -172 -82l-178 -148h-11l41 307h947v-12l-562 -954h232q27 0 93 51q59 45 226 197h11z" />
    <glyph glyph-name="braceleft" unicode="{" horiz-adv-x="620" 
d="M166 78v178q0 171 -25 258q-26 89 -106 102v17q83 14 107 101t24 259v178q0 208 148 287q125 69 307 86v-10q-69 -20 -89 -85q-20 -66 -20 -239v-200q0 -64 -24 -120.5t-63.5 -98t-93.5 -75.5t-109.5 -55.5t-115.5 -35.5q60 -14 115.5 -35.5t109.5 -55.5t93.5 -75.5
t63.5 -98t24 -120.5v-201q0 -173 20 -239q20 -65 89 -85v-10q-182 17 -307 86q-148 81 -148 287z" />
    <glyph glyph-name="bar" unicode="|" horiz-adv-x="417" 
d="M248 1544v-1780h-78v1780h78z" />
    <glyph glyph-name="braceright" unicode="}" horiz-adv-x="620" 
d="M109 39v201q0 80 35.5 146.5t96 112.5t128.5 76.5t145 49.5q-60 14 -115.5 35.5t-109.5 55.5t-93.5 75t-63.5 98t-23 121v200q-2 175 -21 239q-20 65 -88 85v10q185 -17 306 -86q149 -83 149 -287v-178q-1 -170 23 -259q24 -88 108 -101v-17q-81 -13 -107 -102
q-25 -88 -24 -258v-178q0 -204 -149 -287q-129 -71 -306 -86v10q68 20 88 85q19 64 21 239z" />
    <glyph glyph-name="asciitilde" unicode="~" horiz-adv-x="1138" 
d="M756 473q-64 0 -234 57q-168 56 -231 58q-102 0 -150 -101l-22 13q119 225 262 225q78 0 253 -57q174 -56 212 -58q103 2 149 101l23 -13q-118 -225 -262 -225z" />
    <glyph glyph-name="exclamdown" unicode="&#xa1;" horiz-adv-x="612" 
d="M518 865q0 -86 -62.5 -145.5t-149.5 -59.5t-149.5 59.5t-62.5 145.5q0 87 62 145.5t149 58.5t150 -59t63 -145zM518 -190q0 -86 -62.5 -145.5t-149.5 -61.5q-88 0 -149.5 59.5t-62.5 147.5q0 130 92 376q92 247 107 404h26q15 -157 107 -404q92 -246 92 -376z" />
    <glyph glyph-name="cent" unicode="&#xa2;" horiz-adv-x="1269" 
d="M653 365v743q-180 -92 -180 -361t180 -382zM1149 1006q0 -80 -45.5 -135.5t-124.5 -55.5q-67 0 -119.5 42t-52.5 107q0 56 28.5 108t75.5 77q-29 4 -59 4q-22 0 -86 -8v-826q37 -8 102 -8q63 0 152.5 26t138.5 60l12 -8q-57 -82 -164 -163q-104 -79 -241 -97v-301h-113
v299q-202 20 -359 163q-158 145 -157 353q0 113 43.5 215t126.5 172q153 129 346 170v213h113v-196l49 2q132 0 233 -63q102 -65 101 -150z" />
    <glyph glyph-name="sterling" unicode="&#xa3;" horiz-adv-x="1269" 
d="M858 0h-684v8q69 58 135.5 185.5t67.5 213.5q0 89 -49 246h-203v125h162q-58 169 -60 244q0 190 151 305t390 115q162 0 254 -62t92 -158q0 -88 -50 -142t-137 -54q-74 0 -124.5 39.5t-50.5 110.5q0 67 43 118t110 72q-51 23 -125 23q-76 0 -132 -71q-58 -70 -58 -191
q0 -120 42 -272q12 -48 19 -77h340v-125h-315q2 -22 2 -47q0 -104 -82 -183q-83 -80 -182 -126h604q53 0 77.5 17t32.5 67h15q8 -34 8 -64q0 -144 -75.5 -230.5t-217.5 -86.5z" />
    <glyph glyph-name="currency" unicode="&#xa4;" horiz-adv-x="1269" 
d="M636 307q109 0 200 56t141.5 149.5t50.5 202.5q0 167 -113 287t-279 120q-111 0 -201.5 -55.5t-141.5 -149t-51 -203.5t51 -203t141.5 -148.5t201.5 -55.5zM1053 195l-111 116q-122 -104 -307 -104t-303 104l-113 -116l-104 104l114 117q-102 120 -102 306t102 296
l-114 110l104 107l113 -113q122 100 302 100t308 -100l111 113l102 -107l-111 -110q98 -112 98 -298t-98 -304l111 -117z" />
    <glyph glyph-name="yen" unicode="&#xa5;" horiz-adv-x="1269" 
d="M973 8v-8h-676v8q101 36 130.5 96t29.5 179v61h-228v105h228v131h-228v104h199l-156 342q-97 212 -143 274q-50 68 -127 105v8h674v-8q-73 -26 -96 -55q-53 -65 51 -320l123 -311l116 311q74 212 56 278q-18 67 -135 97v8h477v-8q-84 -26 -141 -100q-57 -78 -144 -281
l-145 -340h200v-104h-225v-131h225v-105h-225v-61q0 -60 5 -97t21 -73.5t48.5 -61t85.5 -43.5z" />
    <glyph glyph-name="brokenbar" unicode="&#xa6;" horiz-adv-x="417" 
d="M248 1544v-756h-78v756h78zM248 520v-756h-78v756h78z" />
    <glyph glyph-name="section" unicode="&#xa7;" horiz-adv-x="1269" 
d="M1020 475q0 75 -90 115l-463 213q-85 37 -150 84q-39 -38 -38 -78q0 -75 79 -109l498 -229q66 -31 123 -72q41 32 41 76zM96 667q0 87 52.5 150.5t138.5 95.5q-86 74 -86 198t128 225q127 102 315 102t301 -70q114 -70 114 -158q0 -81 -37 -131.5t-114 -50.5
q-70 0 -113 37t-43 106q0 97 102 170q-83 47 -177 47q-40 0 -78 -9t-72.5 -27t-55.5 -51t-20 -76q0 -98 135 -158l379 -162q90 -38 153.5 -109.5t63.5 -159.5q0 -82 -46 -155t-120 -114q88 -88 88 -214t-146 -236t-330 -110t-306 69t-123 181q0 81 47.5 133t127.5 52
q83 0 132 -50.5t49 -133.5q0 -86 -100 -162q101 -47 190 -44q90 3 150.5 55.5t60.5 140.5q0 87 -160 163l-405 188q-86 39 -140.5 109t-54.5 159z" />
    <glyph glyph-name="dieresis" unicode="&#xa8;" horiz-adv-x="763" 
d="M197 1442q66 0 110.5 -44t44.5 -110q0 -65 -44.5 -110t-109.5 -45t-111 45t-46 110q0 66 45 110t111 44zM723 1288q0 -65 -45 -110t-110 -45t-110.5 45t-45.5 110q0 64 45.5 109t110.5 45t110 -44.5t45 -109.5z" />
    <glyph glyph-name="copyright" unicode="&#xa9;" horiz-adv-x="1630" 
d="M395 258q170 -188 420 -188q168 0 305 89t211 233.5t74 311.5q0 124 -44 240t-120.5 203t-187.5 139.5t-238 52.5q-168 0 -305 -89t-211 -233.5t-74 -311.5q0 -259 170 -447zM815 -25q-299 0 -503 213q-204 212 -204 516t204 517t503 213t503 -213t204 -516t-204 -517
q-204 -215 -503 -213zM1155 618l-18 -223q-106 -55 -271 -55t-307 100q-141 101 -141 277q0 126 79 217q146 170 390 170q114 0 246 -53v-211h-7q-73 108 -128 161q-58 56 -115 58q-56 0 -96 -33.5t-59 -88t-26.5 -105t-7.5 -103.5q0 -161 58 -252q59 -92 136 -92
q79 0 143 76q35 39 116 157h8z" />
    <glyph glyph-name="ordfeminine" unicode="&#xaa;" horiz-adv-x="796" 
d="M723 602v-100h-664v100h664zM705 1178v-269q1 -70 21.5 -93t88.5 -34q-116 -65 -217 -65q-29 0 -58 7t-54.5 26t-30.5 47q-95 -84 -193 -84q-52 0 -98 14.5t-80.5 51.5t-34.5 91q0 47 19 85t54 63t72.5 42.5t88 28.5t87 16t81.5 9v70q0 74 -33.5 124t-103.5 50
q-63 0 -101 -23q39 -12 63 -39q24 -29 23 -62q0 -44 -31 -71t-76 -27q-55 0 -87 28q-32 29 -31 73q0 43 23 75.5t56.5 51t78.5 30t83 15.5t76 4q60 0 113.5 -12.5t100 -38.5t74 -73.5t26.5 -110.5zM420 1063q-113 0 -113 -120t103 -120q22 2 41 13v225q-14 2 -31 2z" />
    <glyph glyph-name="guillemotleft" unicode="&#xab;" horiz-adv-x="948" 
d="M725 543l152 -312h-9l-381 312l379 313h11zM342 543l225 -379h-16l-490 379l490 381h16z" />
    <glyph glyph-name="logicalnot" unicode="&#xac;" horiz-adv-x="1269" 
d="M1124 651v-565h-147v418h-834v147h981z" />
    <glyph glyph-name="uni00AD" unicode="&#xad;" horiz-adv-x="622" 
d="M588 1372v-129h-553v129h553z" />
    <glyph glyph-name="registered" unicode="&#xae;" horiz-adv-x="1630" 
d="M395 258q170 -188 420 -188q168 0 305 89t211 233.5t74 311.5q0 124 -44 240t-120.5 203t-187.5 139.5t-238 52.5q-168 0 -305 -89t-211 -233.5t-74 -311.5q0 -259 170 -447zM815 -25q-299 0 -503 213q-204 212 -204 516t204 517t503 213t503 -213t204 -516t-204 -517
q-204 -215 -503 -213zM803 1040h-15v-325q121 13 121 166q-1 38 -9 71t-33 60.5t-64 27.5zM1284 365v-9h-176q-98 0 -134 18q-35 18 -73 93l-104 207h-9v-123q0 -82 14 -121q13 -36 66 -65v-9h-417v9q22 13 37.5 29.5t23 30.5t11.5 38.5t4.5 40t0.5 47.5v340q0 32 -0.5 47.5
t-4.5 40t-11.5 39t-23 31.5t-37.5 30v8h362q359 0 361 -200q0 -111 -158 -182l176 -250q51 -73 92 -90z" />
    <glyph glyph-name="macron" unicode="&#xaf;" horiz-adv-x="593" 
d="M573 1352v-164h-553v164h553z" />
    <glyph glyph-name="degree" unicode="&#xb0;" horiz-adv-x="806" 
d="M401 926q73 0 123.5 53t50.5 127t-50.5 127t-123.5 53q-72 0 -123.5 -54t-51.5 -126q0 -73 51 -126.5t124 -53.5zM403 776q-138 0 -233.5 96t-95.5 234t95.5 234t233.5 96t233 -95.5t97 -234.5q0 -139 -95.5 -234.5t-234.5 -95.5z" />
    <glyph glyph-name="plusminus" unicode="&#xb1;" horiz-adv-x="1269" 
d="M1124 651v-147h-417v-295h-148v295h-416v147h416v416h148v-416h417zM1124 147v-147h-981v147h981z" />
    <glyph glyph-name="twosuperior" unicode="&#xb2;" horiz-adv-x="950" 
d="M797 532h-713v39l283 330q91 107 123 168t30 105q0 83 -52 126q-51 43 -112 43q-60 0 -108 -18q60 -6 96.5 -47t36.5 -101q0 -61 -43.5 -97t-105.5 -36q-64 0 -102 38t-38 102q0 92 113 167t285 75q171 0 268 -62q96 -61 96 -158q0 -96 -58 -153q-60 -58 -136 -83
q-94 -31 -184.5 -82.5t-141.5 -113.5h510z" />
    <glyph glyph-name="threesuperior" unicode="&#xb3;" horiz-adv-x="950" 
d="M551 1206h-391v207h669v-8l-229 -266q112 -39 188 -114t76 -181q0 -105 -77 -185q-136 -139 -392 -139q-50 0 -99 8.5t-99 28.5t-80.5 59t-30.5 93q0 63 43.5 103t106.5 40q66 0 103 -40q38 -41 38 -85q1 -45 -21 -84q-23 -39 -53 -55l6 -4q31 -6 60 -6q87 0 143 47
t56 133q0 88 -55 150t-144 79l-2 6z" />
    <glyph glyph-name="acute" unicode="&#xb4;" horiz-adv-x="542" 
d="M72 1163h-23q113 141 150 250h262q-192 -173 -389 -250z" />
    <glyph glyph-name="mu" unicode="&#xb5;" horiz-adv-x="1282" 
d="M791 -25h-9v156q-136 -156 -329 -156q-121 0 -199 66l4 -21q8 -53 60 -107q70 -72 98 -100q45 -45 47 -101q0 -56 -43.5 -99t-98.5 -43q-171 0 -171 166v954q0 137 -25 188q-25 52 -109 91v8q203 18 496 92h8v-756q0 -85 52 -128q53 -44 114 -44q62 0 96 9v540
q0 136 -24 188q-25 52 -109 91v8q203 18 496 92h8v-715q2 -136 25 -187q24 -52 108 -91v-8q-207 -18 -495 -93z" />
    <glyph glyph-name="paragraph" unicode="&#xb6;" horiz-adv-x="1077" 
d="M885 1270v-1741h-92v1796h-340v-1796h-93v1276q-162 0 -244 88q-82 89 -81 216q0 127 77 216q76 88 224 88h639v-8q-90 -41 -90 -135z" />
    <glyph glyph-name="periodcentered" unicode="&#xb7;" horiz-adv-x="546" 
d="M481 730q0 -86 -61.5 -145t-147.5 -59t-146 59.5t-60 145.5t60 145.5t146 59.5q87 0 148 -59.5t61 -146.5z" />
    <glyph glyph-name="cedilla" unicode="&#xb8;" horiz-adv-x="489" 
d="M285 -294q0 44 -53.5 76.5t-100.5 33.5l143 184h58l-68 -104q71 -7 133 -50q61 -42 61 -118q0 -56 -39.5 -93t-88.5 -50t-104 -13q-94 0 -167 53l25 23q48 -20 100 -20q53 0 78 20t23 58z" />
    <glyph glyph-name="onesuperior" unicode="&#xb9;" horiz-adv-x="950" 
d="M633 1446h10v-741q2 -68 21 -102.5t77 -57.5v-13h-524v13q66 18 85.5 52t21.5 108v501q-160 -33 -172 -37l-5 33q107 28 258 103t228 141z" />
    <glyph glyph-name="ordmasculine" unicode="&#xba;" horiz-adv-x="890" 
d="M815 602v-100h-756v100h756zM334 855q28 -75 110 -75t111 74q29 75 29 210q0 31 -1 55t-5 60.5t-14 62.5t-24.5 51.5t-39.5 39t-57 13.5q-77 0 -107 -72q-29 -71 -31 -208q2 -139 29 -211zM862 1067q0 -102 -64 -185.5t-159.5 -126.5t-195.5 -42q-101 0 -195 42.5
t-157 125t-62 185.5q0 103 63.5 184.5t157.5 122.5t194 40q100 1 194.5 -40t159 -122.5t64.5 -183.5z" />
    <glyph glyph-name="guillemotright" unicode="&#xbb;" horiz-adv-x="948" 
d="M82 856l379 -313l-381 -312h-8l151 312l-151 313h10zM397 924l490 -381l-490 -379h-16l225 379l-225 381h16z" />
    <glyph glyph-name="onequarter" unicode="&#xbc;" horiz-adv-x="2068" 
d="M1995 8v-8h-510v8q65 18 83.5 55t18.5 113v35h-413v14l458 660h269v-555h96v-119h-96v-35q0 -71 17.5 -108t76.5 -60zM1352 330h235v338zM1624 1499l-934 -1595h-151l936 1595h149zM633 1446h10v-741q2 -68 21 -102.5t77 -57.5v-13h-524v13q66 18 85.5 52t21.5 108v501
q-160 -33 -172 -37l-5 33q107 28 258 103t228 141z" />
    <glyph glyph-name="onehalf" unicode="&#xbd;" horiz-adv-x="2068" 
d="M1931 0h-712v39l282 330q154 176 154 272q0 83 -52 126q-53 44 -113 44t-108 -18q59 -4 96.5 -47t37.5 -102q0 -60 -44 -96t-106 -36q-63 0 -101 38t-38 101q0 92 112 167q111 75 290 75q169 0 263 -61q96 -61 96 -158q0 -88 -52.5 -148t-140.5 -89q-93 -31 -185 -82.5
t-142 -112.5h510zM1563 1499l-934 -1595h-152l936 1595h150zM633 1446h10v-741q2 -68 21 -102.5t77 -57.5v-13h-524v13q66 18 85.5 52t21.5 108v501q-160 -33 -172 -37l-5 33q107 28 258 103t228 141z" />
    <glyph glyph-name="threequarters" unicode="&#xbe;" horiz-adv-x="2068" 
d="M1645 1499l-934 -1595h-152l936 1595h150zM1995 8v-8h-510v8q65 18 83.5 55t18.5 113v35h-413v14l458 660h269v-555h96v-119h-96v-35q0 -71 17.5 -108t76.5 -60zM1352 330h235v338zM551 1206h-391v207h669v-8l-229 -266q112 -39 188 -114t76 -181q0 -105 -77 -185
q-136 -139 -392 -139q-50 0 -99 8.5t-99 28.5t-80.5 59t-30.5 93q0 63 43.5 103t106.5 40q66 0 103 -40q38 -41 38 -85q1 -45 -21 -84q-23 -39 -53 -55l6 -4q31 -6 60 -6q87 0 143 47t56 133q0 88 -55 150t-144 79l-2 6z" />
    <glyph glyph-name="questiondown" unicode="&#xbf;" horiz-adv-x="976" 
d="M295 865q0 87 61 145.5t148 58.5t146.5 -59t59.5 -146t-59.5 -145.5t-146.5 -58.5q-86 0 -148 60q-62 61 -61 145zM489 590h29q0 -196 -57 -390q-57 -193 -57 -292q0 -91 53.5 -163t141.5 -72q77 0 155 51q-76 23 -131 80t-55 131q0 77 53.5 128t130.5 51q87 0 138.5 -55
t51.5 -143q0 -130 -132 -221q-133 -92 -298 -92q-72 0 -135.5 9t-125 33t-105 61.5t-70.5 97.5t-27 137q0 66 31 128t84 109q99 87 211 181q111 98 114 231z" />
    <glyph glyph-name="Agrave" unicode="&#xc0;" horiz-adv-x="1638" 
d="M924 1532h-23q-197 77 -389 250h262q37 -109 150 -250zM494 610h421l-210 631zM1628 8v-8h-710v8q70 13 100 39t29 99q0 76 -82 319l-21 57h-479q-80 -248 -80 -341q0 -47 8.5 -76.5t30 -48.5t49 -29t74.5 -19v-8h-539v8q77 17 120 52q88 71 241 503l297 850h344
l336 -948q127 -357 198 -418q32 -27 84 -39z" />
    <glyph glyph-name="Aacute" unicode="&#xc1;" horiz-adv-x="1638" 
d="M635 1532h-23q113 141 150 250h262q-192 -173 -389 -250zM494 610h421l-210 631zM1628 8v-8h-710v8q70 13 100 39t29 99q0 76 -82 319l-21 57h-479q-80 -248 -80 -341q0 -47 8.5 -76.5t30 -48.5t49 -29t74.5 -19v-8h-539v8q77 17 120 52q88 71 241 503l297 850h344
l336 -948q127 -357 198 -418q32 -27 84 -39z" />
    <glyph glyph-name="Acircumflex" unicode="&#xc2;" horiz-adv-x="1638" 
d="M915 1782l191 -250h-21l-268 106l-266 -106h-21l187 250h198zM494 610h421l-210 631zM1628 8v-8h-710v8q70 13 100 39t29 99q0 76 -82 319l-21 57h-479q-80 -248 -80 -341q0 -47 8.5 -76.5t30 -48.5t49 -29t74.5 -19v-8h-539v8q77 17 120 52q88 71 241 503l297 850h344
l336 -948q127 -357 198 -418q32 -27 84 -39z" />
    <glyph glyph-name="Atilde" unicode="&#xc3;" horiz-adv-x="1638" 
d="M631 1606q-65 0 -109 -62l-10 4q10 35 25.5 71t39 74.5t56.5 62.5t69 24q56 0 164 -28t140 -28q65 2 108 62l10 -4q-20 -63 -37 -99t-53 -78q-46 -55 -101 -55q-58 0 -169 28t-133 28zM494 610h421l-210 631zM1628 8v-8h-710v8q70 13 100 39t29 99q0 76 -82 319l-21 57
h-479q-80 -248 -80 -341q0 -47 8.5 -76.5t30 -48.5t49 -29t74.5 -19v-8h-539v8q77 17 120 52q88 71 241 503l297 850h344l336 -948q127 -357 198 -418q32 -27 84 -39z" />
    <glyph glyph-name="Adieresis" unicode="&#xc4;" horiz-adv-x="1638" 
d="M477 1656q0 66 45.5 110t111.5 44t110 -44t44 -110q0 -65 -44.5 -110t-109.5 -45q-66 0 -111.5 44.5t-45.5 110.5zM1004 1810q66 0 109.5 -44t45.5 -110q0 -65 -44.5 -110t-109.5 -45q-66 0 -111.5 44.5t-45.5 110.5t45 110t111 44zM494 610h421l-210 631zM1628 8v-8
h-710v8q70 13 100 39t29 99q0 76 -82 319l-21 57h-479q-80 -248 -80 -341q0 -47 8.5 -76.5t30 -48.5t49 -29t74.5 -19v-8h-539v8q77 17 120 52q88 71 241 503l297 850h344l336 -948q127 -357 198 -418q32 -27 84 -39z" />
    <glyph glyph-name="Aring" unicode="&#xc5;" horiz-adv-x="1638" 
d="M819 1331q62 0 107 47t45 110t-44.5 110.5t-106.5 47.5t-107 -48t-45 -110t45 -110t106 -47zM494 610h421l-210 631zM1630 8v-8h-712v8q80 17 108 49q53 65 -61 408l-21 57h-479q-103 -314 -73 -409q7 -23 19 -40t24.5 -27.5t32.5 -18t36 -11t43 -8.5v-8h-539v8
q77 17 120 52q88 71 241 503l262 754q-68 73 -68 174q0 103 76 176.5t180 73.5q101 0 178.5 -72t77.5 -172q0 -97 -55 -164l307 -868q40 -116 100.5 -247t113.5 -171q35 -26 89 -39z" />
    <glyph glyph-name="AE" unicode="&#xc6;" horiz-adv-x="2076" 
d="M580 610h393v705zM1956 0h-1129v8q92 42 119 100t27 179v235h-443q-198 -367 -118 -456q35 -42 125 -58v-8h-545v8q99 19 173 114q70 90 269 441l324 572q113 201 -146 270v8h1284v-389h-14q-79 120 -100 150q-34 48 -80.5 92.5t-89.5 57.5t-115 13h-135v-573h156
q94 0 153 43t119 135h14v-424h-14q-55 85 -117.5 127.5t-154.5 42.5h-156v-612h145q74 0 116.5 14t110.5 55q32 20 128 135q94 112 120 144h15z" />
    <glyph glyph-name="Ccedilla" unicode="&#xc7;" horiz-adv-x="1472" 
d="M885 -294q0 44 -53.5 76.5t-100.5 33.5l119 155q-304 12 -536 195q-117 92 -180.5 231t-63.5 292q0 432 390 639q213 114 444 114t435 -86l15 -346h-8q-206 356 -447 356q-186 0 -297 -165q-110 -166 -110 -480q0 -315 120 -496q121 -180 308 -180q57 1 115.5 26.5
t106.5 64.5t94 91.5t79 102t61 100.5h13l-35 -369q-175 -91 -443 -92l-47 -73q71 -7 133 -50q61 -42 61 -118q0 -56 -39.5 -93t-88.5 -50t-104 -13q-94 0 -167 53l25 23q48 -20 100 -20q53 0 78 20t23 58z" />
    <glyph glyph-name="Egrave" unicode="&#xc8;" horiz-adv-x="1277" 
d="M750 1532h-23q-197 77 -389 250h262q37 -109 150 -250zM1157 0h-1128v8q94 42 119 100q26 60 26 179v848q0 118 -26 173q-25 53 -119 97v8h1069v-389h-15q-79 120 -100 150q-34 48 -80.5 92.5t-89.5 57.5t-115 13h-135v-573h94q122 0 196 38.5t138 139.5h15v-424h-15
q-65 98 -139 134t-195 36h-94v-612h146q99 0 145 24q36 19 81 44q33 18 128 135q97 117 121 145h14z" />
    <glyph glyph-name="Eacute" unicode="&#xc9;" horiz-adv-x="1277" 
d="M455 1532h-23q113 141 150 250h262q-192 -173 -389 -250zM1157 0h-1128v8q94 42 119 100q26 60 26 179v848q0 118 -26 173q-25 53 -119 97v8h1069v-389h-15q-79 120 -100 150q-34 48 -80.5 92.5t-89.5 57.5t-115 13h-135v-573h94q122 0 196 38.5t138 139.5h15v-424h-15
q-65 98 -139 134t-195 36h-94v-612h146q99 0 145 24q36 19 81 44q33 18 128 135q97 117 121 145h14z" />
    <glyph glyph-name="Ecircumflex" unicode="&#xca;" horiz-adv-x="1277" 
d="M735 1782l191 -250h-21l-268 106l-266 -106h-21l187 250h198zM1157 0h-1128v8q94 42 119 100q26 60 26 179v848q0 118 -26 173q-25 53 -119 97v8h1069v-389h-15q-79 120 -100 150q-34 48 -80.5 92.5t-89.5 57.5t-115 13h-135v-573h94q122 0 196 38.5t138 139.5h15v-424
h-15q-65 98 -139 134t-195 36h-94v-612h146q99 0 145 24q36 19 81 44q33 18 128 135q97 117 121 145h14z" />
    <glyph glyph-name="Edieresis" unicode="&#xcb;" horiz-adv-x="1277" 
d="M297 1656q0 66 45.5 110t111.5 44t110 -44t44 -110q0 -65 -44.5 -110t-109.5 -45q-66 0 -111.5 44.5t-45.5 110.5zM668 1656q0 66 45 110t111 44t110.5 -44t44.5 -110q0 -65 -45 -110t-110 -45t-110.5 45t-45.5 110zM1157 0h-1128v8q94 42 119 100q26 60 26 179v848
q0 118 -26 173q-25 53 -119 97v8h1069v-389h-15q-79 120 -100 150q-34 48 -80.5 92.5t-89.5 57.5t-115 13h-135v-573h94q122 0 196 38.5t138 139.5h15v-424h-15q-65 98 -139 134t-195 36h-94v-612h146q99 0 145 24q36 19 81 44q33 18 128 135q97 117 121 145h14z" />
    <glyph glyph-name="Igrave" unicode="&#xcc;" horiz-adv-x="737" 
d="M573 1532h-22q-197 77 -389 250h262q35 -108 149 -250zM709 8v-8h-680v8q94 44 119 97q26 55 26 174v856q0 118 -26 173q-25 53 -119 97v8h680v-8q-95 -44 -120 -97q-26 -55 -26 -173v-856q0 -118 26 -173t120 -98z" />
    <glyph glyph-name="Iacute" unicode="&#xcd;" horiz-adv-x="737" 
d="M184 1532h-22q114 142 149 250h262q-192 -173 -389 -250zM709 8v-8h-680v8q94 44 119 97q26 55 26 174v856q0 118 -26 173q-25 53 -119 97v8h680v-8q-95 -44 -120 -97q-26 -55 -26 -173v-856q0 -118 26 -173t120 -98z" />
    <glyph glyph-name="Icircumflex" unicode="&#xce;" horiz-adv-x="737" 
d="M465 1782l190 -250h-20l-268 106l-267 -106h-20l186 250h199zM709 8v-8h-680v8q94 44 119 97q26 55 26 174v856q0 118 -26 173q-25 53 -119 97v8h680v-8q-95 -44 -120 -97q-26 -55 -26 -173v-856q0 -118 26 -173t120 -98z" />
    <glyph glyph-name="Idieresis" unicode="&#xcf;" horiz-adv-x="737" 
d="M29 1656q0 66 44.5 110t110.5 44t111 -44t45 -110q0 -65 -44.5 -110t-109.5 -45q-66 0 -111.5 44.5t-45.5 110.5zM399 1656q0 66 45.5 110t111.5 44t110.5 -44t44.5 -110q0 -65 -45 -110t-110 -45q-66 0 -111.5 44.5t-45.5 110.5zM709 8v-8h-680v8q94 44 119 97
q26 55 26 174v856q0 118 -26 173q-25 53 -119 97v8h680v-8q-95 -44 -120 -97q-26 -55 -26 -173v-856q0 -118 26 -173t120 -98z" />
    <glyph glyph-name="Eth" unicode="&#xd0;" horiz-adv-x="1644" 
d="M563 678v-602h148q98 0 176 39.5t126.5 103t80.5 149t45 170t14 174.5q0 281 -121 453t-297 172h-172v-567h180v-92h-180zM758 0h-729v8q94 42 119 100q26 60 26 179v391h-106v92h106v365q0 118 -26 173q-25 53 -119 97v8h749q336 0 557 -170t221 -485q0 -237 -102 -410
t-281 -260.5t-415 -87.5z" />
    <glyph glyph-name="Ntilde" unicode="&#xd1;" horiz-adv-x="1701" 
d="M664 1606q-65 0 -109 -62l-10 4q19 63 36.5 99.5t52.5 77.5q46 55 101 55q56 0 164 -28t139 -28q66 2 109 62l10 -4q-11 -35 -26.5 -71t-39.5 -74.5t-56.5 -62.5t-68.5 -24q-58 0 -169 28t-133 28zM1485 930v-930h-156l-989 1126v-634q0 -324 78 -408q39 -42 108 -76v-8
h-493v8q71 33 109 76q78 88 77 408v643q0 72 -20 121.5t-58.5 83t-105.5 65.5v8h530l799 -899v416q0 312 -78 401q-35 40 -108 74v8h493v-8q-73 -34 -109 -74q-79 -89 -77 -401z" />
    <glyph glyph-name="Ograve" unicode="&#xd2;" horiz-adv-x="1724" 
d="M1067 1532h-23q-197 77 -389 250h263q35 -108 149 -250zM1655 705q0 -243 -135.5 -421.5t-371.5 -264.5q-141 -50 -286 -50t-284 49.5t-255 141.5q-114 90 -184 232t-69 313q0 220 121 392q118 165 293 255t378 90q154 0 298.5 -56t253.5 -152t175 -234.5t66 -294.5z
M655 139q85 -94 207 -94t207 94q164 179 164 566q0 64 -6.5 130t-21 143.5t-43 144t-67.5 122.5t-99 88.5t-134 32.5q-63 0 -116.5 -25t-91 -65.5t-66.5 -97.5t-47 -116t-29 -125.5t-15.5 -122.5t-4.5 -109q0 -387 163 -566z" />
    <glyph glyph-name="Oacute" unicode="&#xd3;" horiz-adv-x="1724" 
d="M678 1532h-23q113 141 150 250h262q-192 -173 -389 -250zM1655 705q0 -243 -135.5 -421.5t-371.5 -264.5q-141 -50 -286 -50t-284 49.5t-255 141.5q-114 90 -184 232t-69 313q0 220 121 392q118 165 293 255t378 90q154 0 298.5 -56t253.5 -152t175 -234.5t66 -294.5z
M655 139q85 -94 207 -94t207 94q164 179 164 566q0 64 -6.5 130t-21 143.5t-43 144t-67.5 122.5t-99 88.5t-134 32.5q-63 0 -116.5 -25t-91 -65.5t-66.5 -97.5t-47 -116t-29 -125.5t-15.5 -122.5t-4.5 -109q0 -387 163 -566z" />
    <glyph glyph-name="Ocircumflex" unicode="&#xd4;" horiz-adv-x="1724" 
d="M958 1782l191 -250h-21l-268 106l-266 -106h-21l187 250h198zM1655 705q0 -243 -135.5 -421.5t-371.5 -264.5q-141 -50 -286 -50t-284 49.5t-255 141.5q-114 90 -184 232t-69 313q0 220 121 392q118 165 293 255t378 90q154 0 298.5 -56t253.5 -152t175 -234.5t66 -294.5
zM655 139q85 -94 207 -94t207 94q164 179 164 566q0 64 -6.5 130t-21 143.5t-43 144t-67.5 122.5t-99 88.5t-134 32.5q-63 0 -116.5 -25t-91 -65.5t-66.5 -97.5t-47 -116t-29 -125.5t-15.5 -122.5t-4.5 -109q0 -387 163 -566z" />
    <glyph glyph-name="Otilde" unicode="&#xd5;" horiz-adv-x="1724" 
d="M674 1606q-65 0 -109 -62l-10 4q11 35 26.5 70.5t39.5 74.5t56.5 63t67.5 24q56 0 164 -28t140 -28q65 2 108 62l10 -4q-19 -63 -36.5 -99.5t-52.5 -77.5q-46 -55 -102 -55q-58 0 -169 28t-133 28zM1655 705q0 -243 -135.5 -421.5t-371.5 -264.5q-141 -50 -286 -50
t-284 49.5t-255 141.5q-114 90 -184 232t-69 313q0 220 121 392q118 165 293 255t378 90q154 0 298.5 -56t253.5 -152t175 -234.5t66 -294.5zM655 139q85 -94 207 -94t207 94q164 179 164 566q0 64 -6.5 130t-21 143.5t-43 144t-67.5 122.5t-99 88.5t-134 32.5
q-63 0 -116.5 -25t-91 -65.5t-66.5 -97.5t-47 -116t-29 -125.5t-15.5 -122.5t-4.5 -109q0 -387 163 -566z" />
    <glyph glyph-name="Odieresis" unicode="&#xd6;" horiz-adv-x="1724" 
d="M676 1810q66 0 109.5 -44t45.5 -110q0 -65 -44.5 -110t-109.5 -45q-66 0 -111.5 44.5t-45.5 110.5t45 110t111 44zM891 1656q0 66 45.5 110t111.5 44t110 -44t44 -110q0 -65 -44.5 -110t-109.5 -45q-66 0 -111.5 44.5t-45.5 110.5zM1655 705q0 -243 -135.5 -421.5
t-371.5 -264.5q-141 -50 -286 -50t-284 49.5t-255 141.5q-114 90 -184 232t-69 313q0 220 121 392q118 165 293 255t378 90q154 0 298.5 -56t253.5 -152t175 -234.5t66 -294.5zM655 139q85 -94 207 -94t207 94q164 179 164 566q0 64 -6.5 130t-21 143.5t-43 144t-67.5 122.5
t-99 88.5t-134 32.5q-63 0 -116.5 -25t-91 -65.5t-66.5 -97.5t-47 -116t-29 -125.5t-15.5 -122.5t-4.5 -109q0 -387 163 -566z" />
    <glyph glyph-name="multiply" unicode="&#xd7;" horiz-adv-x="1269" 
d="M1061 252l-103 -105l-325 326l-324 -323l-104 106l323 322l-323 323l104 105l322 -324l325 326l105 -107l-324 -323z" />
    <glyph glyph-name="Oslash" unicode="&#xd8;" horiz-adv-x="1724" 
d="M535 371l610 786q-101 209 -281 209q-74 0 -134 -32.5t-99.5 -88t-68 -122.5t-43 -144.5t-21 -143.5t-6.5 -130q0 -186 43 -334zM862 45q122 0 207 94q164 179 164 566q0 185 -43 335l-612 -786q101 -209 284 -209zM876 1442q205 0 402 -113l115 146l86 -62l-111 -143
q287 -218 287 -565q0 -243 -135.5 -421.5t-371.5 -264.5q-141 -50 -286 -50q-227 0 -420 109l-112 -146l-84 68l106 137q-283 211 -282 568q0 220 121 392q121 169 297.5 257t387.5 88z" />
    <glyph glyph-name="Ugrave" unicode="&#xd9;" horiz-adv-x="1634" 
d="M1022 1532h-23q-197 77 -389 250h262q37 -109 150 -250zM1276 403v527q0 270 -56 356q-30 46 -60 68.5t-91 50.5v8h524v-8q-61 -28 -91 -50.5t-60 -68.5q-55 -86 -56 -356v-533q0 -428 -569 -428q-95 0 -178.5 9.5t-171.5 38.5t-150.5 75t-102.5 124t-40 181v738
q0 118 -26 173q-25 53 -119 97v8h680v-8q-95 -44 -120 -97q-26 -55 -26 -173v-766q0 -75 27.5 -130t76 -86t108 -46t131.5 -15q80 0 145 17t116.5 53t80 97t28.5 144z" />
    <glyph glyph-name="Uacute" unicode="&#xda;" horiz-adv-x="1634" 
d="M633 1532h-23q113 141 150 250h262q-192 -173 -389 -250zM1276 403v527q0 270 -56 356q-30 46 -60 68.5t-91 50.5v8h524v-8q-61 -28 -91 -50.5t-60 -68.5q-55 -86 -56 -356v-533q0 -428 -569 -428q-95 0 -178.5 9.5t-171.5 38.5t-150.5 75t-102.5 124t-40 181v738
q0 118 -26 173q-25 53 -119 97v8h680v-8q-95 -44 -120 -97q-26 -55 -26 -173v-766q0 -75 27.5 -130t76 -86t108 -46t131.5 -15q80 0 145 17t116.5 53t80 97t28.5 144z" />
    <glyph glyph-name="Ucircumflex" unicode="&#xdb;" horiz-adv-x="1634" 
d="M913 1782l191 -250h-21l-268 106l-266 -106h-21l187 250h198zM1276 403v527q0 270 -56 356q-30 46 -60 68.5t-91 50.5v8h524v-8q-61 -28 -91 -50.5t-60 -68.5q-55 -86 -56 -356v-533q0 -428 -569 -428q-95 0 -178.5 9.5t-171.5 38.5t-150.5 75t-102.5 124t-40 181v738
q0 118 -26 173q-25 53 -119 97v8h680v-8q-95 -44 -120 -97q-26 -55 -26 -173v-766q0 -75 27.5 -130t76 -86t108 -46t131.5 -15q80 0 145 17t116.5 53t80 97t28.5 144z" />
    <glyph glyph-name="Udieresis" unicode="&#xdc;" horiz-adv-x="1634" 
d="M631 1810q67 0 111 -43.5t44 -110.5q0 -65 -44.5 -110t-109.5 -45q-66 0 -111.5 44.5t-45.5 110.5t45 110t111 44zM846 1656q0 65 45.5 109.5t110.5 44.5q66 0 110.5 -44t44.5 -110q0 -65 -45 -110t-110 -45t-110.5 45t-45.5 110zM1276 403v527q0 270 -56 356
q-30 46 -60 68.5t-91 50.5v8h524v-8q-61 -28 -91 -50.5t-60 -68.5q-55 -86 -56 -356v-533q0 -428 -569 -428q-95 0 -178.5 9.5t-171.5 38.5t-150.5 75t-102.5 124t-40 181v738q0 118 -26 173q-25 53 -119 97v8h680v-8q-95 -44 -120 -97q-26 -55 -26 -173v-766
q0 -75 27.5 -130t76 -86t108 -46t131.5 -15q80 0 145 17t116.5 53t80 97t28.5 144z" />
    <glyph glyph-name="Yacute" unicode="&#xdd;" horiz-adv-x="1441" 
d="M537 1532h-23q113 141 150 250h262q-192 -173 -389 -250zM1053 8v-8h-680v8q92 42 119 100q27 60 26 179v340l-229 424q-76 142 -132 213t-165 141v8h743v-8q-71 -35 -72 -35q-20 -11 -45 -37q-26 -27 -24 -59q11 -92 80 -223l174 -336l153 334q86 193 47 263
q-24 39 -58.5 58.5t-90.5 34.5v8h551v-8q-100 -38 -169 -110q-64 -67 -161 -253l-213 -415v-340q0 -117 26.5 -176t119.5 -103z" />
    <glyph glyph-name="Thorn" unicode="&#xde;" horiz-adv-x="1366" 
d="M563 1057v-672h96q130 2 194 107q65 107 65 243q0 60 -13.5 115t-41 102.5t-76 76t-111.5 28.5h-113zM750 8v-8h-721v8q94 42 119 100q26 60 26 179v848q0 118 -26 173q-25 53 -119 97v8h680v-8q-95 -44 -120 -97q-26 -55 -26 -175h191q94 0 169.5 -10t150 -37t125 -71.5
t81.5 -118.5t31 -173q-1 -96 -34.5 -170.5t-87.5 -120t-131 -74.5t-155 -40t-168 -11h-172v-20q0 -117 39.5 -175.5t147.5 -103.5z" />
    <glyph glyph-name="germandbls" unicode="&#xdf;" horiz-adv-x="1323" 
d="M715 -25v31q58 6 102.5 40t70 84t38 104.5t12.5 110.5q0 134 -93.5 246t-226.5 157l-6 16q152 103 190 218q38 116 38 239q0 260 -150 260q-110 0 -140 -89q-30 -88 -30 -348v-765q0 -67 2 -111q6 -97 49 -128q28 -18 70 -32v-8h-614v8q75 27 99 84t24 187v411
q0 141 -25 190q-26 50 -123 89v8l191 35q0 256 126 394t379 138q187 0 299 -91q113 -92 113 -216q0 -125 -99 -211q-69 -58 -159 -117v-8q83 -33 154.5 -79.5t132.5 -107.5t96 -140.5t35 -167.5q0 -86 -33 -158t-88 -121.5t-127 -84.5t-149.5 -51t-157.5 -16z" />
    <glyph glyph-name="agrave" unicode="&#xe0;" horiz-adv-x="1097" 
d="M764 1163h-23q-197 77 -389 250h262q37 -109 150 -250zM805 -25q-167 0 -199 158q-129 -158 -291 -158q-119 0 -201 65t-81 181q0 322 571 391v136q0 115 -64.5 177t-177.5 62q-54 0 -120 -20q78 -15 120 -63q42 -49 41 -112q0 -67 -51.5 -114t-118.5 -47
q-71 0 -119 45.5t-48 116.5q0 123 133 199q132 75 345 77q97 0 172 -17.5t135 -57t92 -110.5t32 -171v-422q1 -53 5 -80.5t17.5 -53.5t42 -39t76.5 -20v-8q-62 -49 -149.5 -82t-161.5 -33zM545 563q-57 0 -101 -62q-44 -63 -43 -159q0 -99 40 -149q41 -51 84 -51q46 0 79 16
v395q-39 10 -59 10z" />
    <glyph glyph-name="aacute" unicode="&#xe1;" horiz-adv-x="1097" 
d="M375 1163h-23q113 141 150 250h262q-192 -173 -389 -250zM805 -25q-167 0 -199 158q-129 -158 -291 -158q-119 0 -201 65t-81 181q0 322 571 391v136q0 115 -64.5 177t-177.5 62q-54 0 -120 -20q78 -15 120 -63q42 -49 41 -112q0 -67 -51.5 -114t-118.5 -47
q-71 0 -119 45.5t-48 116.5q0 123 133 199q132 75 345 77q97 0 172 -17.5t135 -57t92 -110.5t32 -171v-422q1 -53 5 -80.5t17.5 -53.5t42 -39t76.5 -20v-8q-62 -49 -149.5 -82t-161.5 -33zM545 563q-57 0 -101 -62q-44 -63 -43 -159q0 -99 40 -149q41 -51 84 -51q46 0 79 16
v395q-39 10 -59 10z" />
    <glyph glyph-name="acircumflex" unicode="&#xe2;" horiz-adv-x="1097" 
d="M655 1413l191 -250h-21l-268 107l-266 -107h-21l187 250h198zM805 -25q-167 0 -199 158q-129 -158 -291 -158q-119 0 -201 65t-81 181q0 322 571 391v136q0 115 -64.5 177t-177.5 62q-54 0 -120 -20q78 -15 120 -63q42 -49 41 -112q0 -67 -51.5 -114t-118.5 -47
q-71 0 -119 45.5t-48 116.5q0 123 133 199q132 75 345 77q97 0 172 -17.5t135 -57t92 -110.5t32 -171v-422q1 -53 5 -80.5t17.5 -53.5t42 -39t76.5 -20v-8q-62 -49 -149.5 -82t-161.5 -33zM545 563q-57 0 -101 -62q-44 -63 -43 -159q0 -99 40 -149q41 -51 84 -51q46 0 79 16
v395q-39 10 -59 10z" />
    <glyph glyph-name="atilde" unicode="&#xe3;" horiz-adv-x="1097" 
d="M673 1182q-58 0 -169 28q-113 29 -133 27q-66 0 -109 -61l-10 4q9 34 25.5 70.5t40 74.5t56.5 62t68 24q56 0 164 -28q105 -27 137 -27q67 0 111 61l10 -4q-20 -63 -37 -99t-53 -78q-46 -54 -101 -54zM805 -25q-167 0 -199 158q-129 -158 -291 -158q-119 0 -201 65
t-81 181q0 322 571 391v136q0 115 -64.5 177t-177.5 62q-54 0 -120 -20q78 -15 120 -63q42 -49 41 -112q0 -67 -51.5 -114t-118.5 -47q-71 0 -119 45.5t-48 116.5q0 123 133 199q132 75 345 77q97 0 172 -17.5t135 -57t92 -110.5t32 -171v-422q1 -53 5 -80.5t17.5 -53.5
t42 -39t76.5 -20v-8q-62 -49 -149.5 -82t-161.5 -33zM545 563q-57 0 -101 -62q-44 -63 -43 -159q0 -99 40 -149q41 -51 84 -51q46 0 79 16v395q-39 10 -59 10z" />
    <glyph glyph-name="adieresis" unicode="&#xe4;" horiz-adv-x="1097" 
d="M373 1442q66 0 110.5 -44t44.5 -110q0 -65 -44.5 -110t-109.5 -45t-111 45t-46 110q0 66 45 110t111 44zM899 1288q0 -65 -45 -110t-110 -45t-110.5 45t-45.5 110q0 64 45.5 109t110.5 45t110 -44.5t45 -109.5zM805 -25q-167 0 -199 158q-129 -158 -291 -158
q-119 0 -201 65t-81 181q0 322 571 391v136q0 115 -64.5 177t-177.5 62q-54 0 -120 -20q78 -15 120 -63q42 -49 41 -112q0 -67 -51.5 -114t-118.5 -47q-71 0 -119 45.5t-48 116.5q0 123 133 199q132 75 345 77q97 0 172 -17.5t135 -57t92 -110.5t32 -171v-422q1 -53 5 -80.5
t17.5 -53.5t42 -39t76.5 -20v-8q-62 -49 -149.5 -82t-161.5 -33zM545 563q-57 0 -101 -62q-44 -63 -43 -159q0 -99 40 -149q41 -51 84 -51q46 0 79 16v395q-39 10 -59 10z" />
    <glyph glyph-name="aring" unicode="&#xe5;" horiz-adv-x="1097" 
d="M559 1243q49 0 84 37t35 86t-35 86t-84 37t-84 -37t-35 -86t35 -86t84 -37zM772 1366q0 -86 -62.5 -147t-149.5 -61q-88 0 -150.5 60t-63.5 148q0 86 63.5 147t149.5 61q87 0 150 -60.5t63 -147.5zM805 -25q-167 0 -199 158q-129 -158 -291 -158q-119 0 -201 65t-81 181
q0 322 571 391v136q0 115 -64.5 177t-177.5 62q-54 0 -120 -20q78 -15 120 -63q42 -49 41 -112q0 -67 -51.5 -114t-118.5 -47q-71 0 -119 45.5t-48 116.5q0 123 133 199q132 75 345 77q97 0 172 -17.5t135 -57t92 -110.5t32 -171v-422q1 -53 5 -80.5t17.5 -53.5t42 -39
t76.5 -20v-8q-62 -49 -149.5 -82t-161.5 -33zM545 563q-57 0 -101 -62q-44 -63 -43 -159q0 -99 40 -149q41 -51 84 -51q46 0 79 16v395q-39 10 -59 10z" />
    <glyph glyph-name="ae" unicode="&#xe6;" horiz-adv-x="1492" 
d="M1153 645v121q0 192 -40 222q-19 16 -50 16t-56 -18q-67 -48 -67 -378v-8zM596 504v49q-39 10 -59 10q-57 0 -101 -62q-44 -64 -43 -159q0 -97 48 -140q49 -44 110 -44q63 0 119 28q-74 131 -74 318zM1464 561h-524q17 -362 294 -362q136 0 249 90l8 -6
q-45 -76 -83 -125.5t-90 -94t-118 -65.5t-149 -21q-236 0 -359 173q-208 -173 -364 -175q-76 0 -143.5 26.5t-113.5 84t-46 135.5q0 137 156 249q157 112 415 142v95q0 159 -111 239q-64 46 -138 46q-55 0 -114 -25q72 -13 117 -59t45 -116q0 -67 -51.5 -114t-118.5 -47
q-71 0 -119.5 46t-48.5 116q0 123 133 199q132 75 322 77q188 0 274 -102q123 102 299 102q184 0 281.5 -103t97.5 -288v-117z" />
    <glyph glyph-name="ccedilla" unicode="&#xe7;" horiz-adv-x="931" 
d="M433 -428q-94 0 -167 53l25 23q47 -20 104 -20q97 0 97 75q0 45 -52.5 78t-101.5 35l127 166q-108 9 -191.5 56t-133.5 121.5t-75 166.5t-24 198q0 152 63.5 275.5t182.5 196.5t272 73q149 0 241 -68q91 -67 91 -161q0 -87 -47 -144t-132 -57q-73 0 -129.5 46t-56.5 117
q0 63 33 122t88 84q-22 7 -46 7q-73 0 -140 -73q-88 -95 -88 -309t91 -324q92 -111 231 -111q141 0 253 91l8 -6q-42 -75 -80 -125t-89 -93t-116 -64.5t-147 -23.5l-53 -81q77 -8 136 -52t59 -116q0 -56 -39.5 -93t-89 -50t-104.5 -13z" />
    <glyph glyph-name="egrave" unicode="&#xe8;" horiz-adv-x="1007" 
d="M688 1163h-22q-196 77 -390 250h263q35 -108 149 -250zM641 645v121q1 238 -97 238q-52 0 -80 -34q-58 -70 -58 -362v-8zM41 504q0 233 143 399q142 166 348 166q201 0 311 -97t109 -294v-117h-546q3 -73 17.5 -133.5t45.5 -114t86.5 -84t131.5 -30.5q72 0 150.5 24
t129.5 66l8 -6q-44 -73 -86.5 -124.5t-97.5 -95t-123.5 -65t-151.5 -21.5q-152 1 -261 72t-161.5 188t-52.5 267z" />
    <glyph glyph-name="eacute" unicode="&#xe9;" horiz-adv-x="1007" 
d="M391 1163h-22q114 142 149 250h262q-192 -173 -389 -250zM641 645v121q1 238 -97 238q-52 0 -80 -34q-58 -70 -58 -362v-8zM41 504q0 233 143 399q142 166 348 166q201 0 311 -97t109 -294v-117h-546q3 -73 17.5 -133.5t45.5 -114t86.5 -84t131.5 -30.5q72 0 150.5 24
t129.5 66l8 -6q-44 -73 -86.5 -124.5t-97.5 -95t-123.5 -65t-151.5 -21.5q-152 1 -261 72t-161.5 188t-52.5 267z" />
    <glyph glyph-name="ecircumflex" unicode="&#xea;" horiz-adv-x="1007" 
d="M600 1413l191 -250h-21l-268 107l-266 -107h-21l186 250h199zM641 645v121q1 238 -97 238q-52 0 -80 -34q-58 -70 -58 -362v-8zM41 504q0 233 143 399q142 166 348 166q201 0 311 -97t109 -294v-117h-546q3 -73 17.5 -133.5t45.5 -114t86.5 -84t131.5 -30.5
q72 0 150.5 24t129.5 66l8 -6q-44 -73 -86.5 -124.5t-97.5 -95t-123.5 -65t-151.5 -21.5q-152 1 -261 72t-161.5 188t-52.5 267z" />
    <glyph glyph-name="edieresis" unicode="&#xeb;" horiz-adv-x="1007" 
d="M473 1288q0 -65 -45 -110t-110 -45t-110.5 45t-45.5 110q0 64 45.5 109t110.5 45t110 -44.5t45 -109.5zM844 1288q0 -65 -44.5 -110t-109.5 -45t-111.5 45t-46.5 110q0 64 45.5 109t110.5 45q66 0 111 -44t45 -110zM641 645v121q1 238 -97 238q-52 0 -80 -34
q-58 -70 -58 -362v-8zM41 504q0 233 143 399q142 166 348 166q201 0 311 -97t109 -294v-117h-546q3 -73 17.5 -133.5t45.5 -114t86.5 -84t131.5 -30.5q72 0 150.5 24t129.5 66l8 -6q-44 -73 -86.5 -124.5t-97.5 -95t-123.5 -65t-151.5 -21.5q-152 1 -261 72t-161.5 188
t-52.5 267z" />
    <glyph glyph-name="igrave" unicode="&#xec;" horiz-adv-x="649" 
d="M530 1163h-22q-197 77 -389 250h262q35 -108 149 -250zM633 8v-8h-596v8q73 41 92 96q20 56 21 175v411q0 137 -25 188q-25 52 -109 91v8q203 18 496 92h8v-790q0 -118 20 -175q20 -56 93 -96z" />
    <glyph glyph-name="iacute" unicode="&#xed;" horiz-adv-x="649" 
d="M141 1163h-22q114 142 149 250h262q-192 -173 -389 -250zM633 8v-8h-596v8q73 41 92 96q20 56 21 175v411q0 137 -25 188q-25 52 -109 91v8q203 18 496 92h8v-790q0 -118 20 -175q20 -56 93 -96z" />
    <glyph glyph-name="icircumflex" unicode="&#xee;" horiz-adv-x="649" 
d="M422 1413l190 -250h-20l-268 107l-267 -107h-20l186 250h199zM633 8v-8h-596v8q73 41 92 96q20 56 21 175v411q0 137 -25 188q-25 52 -109 91v8q203 18 496 92h8v-790q0 -118 20 -175q20 -56 93 -96z" />
    <glyph glyph-name="idieresis" unicode="&#xef;" horiz-adv-x="649" 
d="M295 1288q0 -65 -45 -110t-110 -45t-110.5 45t-45.5 110q0 66 45 110t111 44q65 0 110 -44.5t45 -109.5zM666 1288q0 -65 -44.5 -110t-109.5 -45q-66 0 -112 44.5t-46 110.5q0 65 46 109.5t111 44.5t110 -44.5t45 -109.5zM633 8v-8h-596v8q73 41 92 96q20 56 21 175v411
q0 137 -25 188q-25 52 -109 91v8q203 18 496 92h8v-790q0 -118 20 -175q20 -56 93 -96z" />
    <glyph glyph-name="eth" unicode="&#xf0;" 
d="M602 39q105 0 135 142q29 145 29 341q0 482 -164 484q-164 0 -164 -484q0 -362 78 -445q35 -38 86 -38zM1155 522q0 -157 -72 -282t-198 -194.5t-283 -70.5q-241 0 -397.5 155.5t-155.5 395.5q0 242 160 393q161 151 393 150q56 0 115 -27q-73 156 -193 297l-180 -71
l-31 57l166 66q-60 67 -155 153h12q114 -63 211 -125l209 84l30 -57l-176 -72q545 -387 545 -852z" />
    <glyph glyph-name="ntilde" unicode="&#xf1;" horiz-adv-x="1280" 
d="M755 1182q-58 0 -169 28q-113 29 -133 27q-66 0 -109 -61l-10 4q18 61 36 98t54 78q46 54 100 55q56 0 164 -28q105 -27 137 -27q67 0 111 61l10 -4q-20 -63 -37 -99t-53 -78q-46 -54 -101 -54zM1264 8v-8h-596v8q73 41 92 96q20 57 20 175v452q0 74 -39.5 123t-112.5 49
q-62 0 -108 -12v-612q0 -118 20 -175q20 -56 93 -96v-8h-596v8q73 41 92 96q20 56 21 175v411q0 137 -25 188q-25 52 -109 91v8q203 18 496 92h8v-158q67 76 160.5 117t195.5 41q114 0 194 -80q81 -79 81 -258v-452q0 -118 20 -175q19 -56 93 -96z" />
    <glyph glyph-name="ograve" unicode="&#xf2;" 
d="M807 1163h-23q-197 77 -389 250h262q37 -109 150 -250zM995 918q160 -150 160 -392q0 -241 -156 -395t-397 -156q-241 0 -397.5 155.5t-155.5 395.5q0 242 160 393t393 151q232 0 393 -152zM602 39q105 0 135 142q29 145 29 341q0 482 -164 484q-164 0 -164 -484
q0 -362 78 -445q35 -38 86 -38z" />
    <glyph glyph-name="oacute" unicode="&#xf3;" 
d="M418 1163h-23q113 141 150 250h262q-192 -173 -389 -250zM995 918q160 -150 160 -392q0 -241 -156 -395t-397 -156q-241 0 -397.5 155.5t-155.5 395.5q0 242 160 393t393 151q232 0 393 -152zM602 39q105 0 135 142q29 145 29 341q0 482 -164 484q-164 0 -164 -484
q0 -362 78 -445q35 -38 86 -38z" />
    <glyph glyph-name="ocircumflex" unicode="&#xf4;" 
d="M698 1413l191 -250h-21l-268 107l-266 -107h-21l187 250h198zM995 918q160 -150 160 -392q0 -241 -156 -395t-397 -156q-241 0 -397.5 155.5t-155.5 395.5q0 242 160 393t393 151q232 0 393 -152zM602 39q105 0 135 142q29 145 29 341q0 482 -164 484q-164 0 -164 -484
q0 -362 78 -445q35 -38 86 -38z" />
    <glyph glyph-name="otilde" unicode="&#xf5;" 
d="M716 1182q-58 0 -169 28q-113 29 -133 27q-66 0 -109 -61l-10 4q9 34 25.5 70.5t40 74.5t56.5 62t68 24q56 0 164 -28q105 -27 137 -27q67 0 111 61l10 -4q-12 -40 -27 -79q-21 -56 -66.5 -104t-97.5 -48zM995 918q160 -150 160 -392q0 -241 -156 -395t-397 -156
q-241 0 -397.5 155.5t-155.5 395.5q0 242 160 393t393 151q232 0 393 -152zM602 39q105 0 135 142q29 145 29 341q0 482 -164 484q-164 0 -164 -484q0 -362 78 -445q35 -38 86 -38z" />
    <glyph glyph-name="odieresis" unicode="&#xf6;" 
d="M417 1442q65 0 108.5 -44.5t45.5 -109.5q0 -65 -44.5 -110t-109.5 -45t-111 45t-46 110t46 109.5t111 44.5zM942 1288q0 -65 -44.5 -110t-109.5 -45t-111 45t-46 110t45 109.5t110 44.5q66 0 111 -44t45 -110zM995 918q160 -150 160 -392q0 -241 -156 -395t-397 -156
q-241 0 -397.5 155.5t-155.5 395.5q0 242 160 393t393 151q232 0 393 -152zM602 39q105 0 135 142q29 145 29 341q0 482 -164 484q-164 0 -164 -484q0 -362 78 -445q35 -38 86 -38z" />
    <glyph glyph-name="divide" unicode="&#xf7;" horiz-adv-x="1267" 
d="M634 852q-55 0 -93.5 38.5t-38.5 93.5t38.5 93.5t93.5 38.5t93.5 -38.5t38.5 -93.5t-38.5 -93.5t-93.5 -38.5zM766 155q0 -55 -38.5 -93.5t-93.5 -38.5q-55 2 -93.5 39.5t-38.5 91.5q0 55 38.5 94t93.5 39t93.5 -38.5t38.5 -93.5zM1124 651v-147h-981v147h981z" />
    <glyph glyph-name="oslash" unicode="&#xf8;" horiz-adv-x="1187" 
d="M430 522q0 -79 2 -139l309 403q-37 218 -147 220q-164 0 -164 -484zM594 39q105 0 135 142q29 145 29 267q0 135 -4 211l-310 -405q32 -215 150 -215zM141 0l82 106q-182 156 -182 409t160 404q161 151 393 150q164 0 301 -80l84 111l68 -56l-82 -106q182 -152 182 -403
q0 -246 -154 -402.5t-399 -157.5q-165 0 -301 80l-80 -104z" />
    <glyph glyph-name="ugrave" unicode="&#xf9;" horiz-adv-x="1282" 
d="M846 1163h-23q-197 77 -389 250h262q37 -109 150 -250zM791 -25h-9v156q-136 -156 -329 -156q-127 0 -215 81t-88 257v377q0 137 -25 188q-25 52 -109 91v8q203 18 496 92h8v-756q0 -85 52 -128q53 -44 114 -44q62 0 96 9v540q0 136 -24 188q-25 52 -109 91v8
q203 18 496 92h8v-715q2 -136 25 -187q24 -52 108 -91v-8q-207 -18 -495 -93z" />
    <glyph glyph-name="uacute" unicode="&#xfa;" horiz-adv-x="1282" 
d="M457 1163h-23q113 141 150 250h262q-192 -173 -389 -250zM791 -25h-9v156q-136 -156 -329 -156q-127 0 -215 81t-88 257v377q0 137 -25 188q-25 52 -109 91v8q203 18 496 92h8v-756q0 -85 52 -128q53 -44 114 -44q62 0 96 9v540q0 136 -24 188q-25 52 -109 91v8
q203 18 496 92h8v-715q2 -136 25 -187q24 -52 108 -91v-8q-207 -18 -495 -93z" />
    <glyph glyph-name="ucircumflex" unicode="&#xfb;" horiz-adv-x="1282" 
d="M737 1413l191 -250h-21l-268 107l-266 -107h-21l187 250h198zM791 -25h-9v156q-136 -156 -329 -156q-127 0 -215 81t-88 257v377q0 137 -25 188q-25 52 -109 91v8q203 18 496 92h8v-756q0 -85 52 -128q53 -44 114 -44q62 0 96 9v540q0 136 -24 188q-25 52 -109 91v8
q203 18 496 92h8v-715q2 -136 25 -187q24 -52 108 -91v-8q-207 -18 -495 -93z" />
    <glyph glyph-name="udieresis" unicode="&#xfc;" horiz-adv-x="1282" 
d="M455 1442q66 0 110.5 -44t44.5 -110q0 -65 -44.5 -110t-109.5 -45t-111 45t-46 110q0 66 45 110t111 44zM981 1288q0 -65 -45 -110t-110 -45t-110.5 45t-45.5 110q0 64 45.5 109t110.5 45t110 -44.5t45 -109.5zM791 -25h-9v156q-136 -156 -329 -156q-127 0 -215 81
t-88 257v377q0 137 -25 188q-25 52 -109 91v8q203 18 496 92h8v-756q0 -85 52 -128q53 -44 114 -44q62 0 96 9v540q0 136 -24 188q-25 52 -109 91v8q203 18 496 92h8v-715q2 -136 25 -187q24 -52 108 -91v-8q-207 -18 -495 -93z" />
    <glyph glyph-name="yacute" unicode="&#xfd;" 
d="M418 1163h-23q113 141 150 250h262q-192 -173 -389 -250zM2 1036v8h641v-8q-83 -10 -103 -66q-19 -55 23 -214l166 -541l84 279q147 525 -51 542v8h446v-8q-67 -8 -134 -132q-68 -124 -165 -423l-182 -565q-16 -51 -30.5 -88.5t-41.5 -90t-55.5 -85.5t-71.5 -57.5
t-92 -24.5q-96 0 -152 48t-56 116t44 111.5t112 43.5q66 0 114.5 -43t52.5 -108q38 51 94 194l25 68h-224l-243 698q-83 237 -115 282t-86 56z" />
    <glyph glyph-name="thorn" unicode="&#xfe;" horiz-adv-x="1271" 
d="M623 45q102 0 162 123q61 121 61 326q0 45 -3 85.5t-11.5 90.5t-25.5 89.5t-41.5 74.5t-64 54t-89.5 19q-43 0 -89 -24v-813q44 -25 101 -25zM666 -401v-9h-635v9q73 41 92 96q20 57 20 174v1227q0 134 -24 187q-25 52 -109 91v8q219 20 504 93h8v-570q158 164 314 164
q104 0 181.5 -45t120.5 -121t63.5 -163.5t21.5 -186.5q0 -112 -37.5 -215.5t-113.5 -175.5q-193 -184 -468 -187q-21 0 -84 5v-111q0 -118 26 -173q25 -53 120 -97z" />
    <glyph glyph-name="ydieresis" unicode="&#xff;" 
d="M417 1442q65 0 108.5 -44.5t45.5 -109.5q0 -65 -44.5 -110t-109.5 -45t-111 45t-46 110t46 109.5t111 44.5zM942 1288q0 -65 -44.5 -110t-109.5 -45t-111 45t-46 110t45 109.5t110 44.5q66 0 111 -44t45 -110zM2 1036v8h641v-8q-83 -10 -103 -66q-19 -55 23 -214
l166 -541l84 279q147 525 -51 542v8h446v-8q-67 -8 -134 -132q-68 -124 -165 -423l-182 -565q-16 -51 -30.5 -88.5t-41.5 -90t-55.5 -85.5t-71.5 -57.5t-92 -24.5q-96 0 -152 48t-56 116t44 111.5t112 43.5q66 0 114.5 -43t52.5 -108q38 51 94 194l25 68h-224l-243 698
q-83 237 -115 282t-86 56z" />
    <glyph glyph-name="Amacron" unicode="&#x100;" horiz-adv-x="1638" 
d="M1096 1720v-164h-553v164h553zM494 610h421l-210 631zM1628 8v-8h-710v8q70 13 100 39t29 99q0 76 -82 319l-21 57h-479q-80 -248 -80 -341q0 -47 8.5 -76.5t30 -48.5t49 -29t74.5 -19v-8h-539v8q77 17 120 52q88 71 241 503l297 850h344l336 -948q127 -357 198 -418
q32 -27 84 -39z" />
    <glyph glyph-name="amacron" unicode="&#x101;" horiz-adv-x="1097" 
d="M836 1352v-164h-553v164h553zM805 -25q-167 0 -199 158q-129 -158 -291 -158q-119 0 -201 65t-81 181q0 322 571 391v136q0 115 -64.5 177t-177.5 62q-54 0 -120 -20q78 -15 120 -63q42 -49 41 -112q0 -67 -51.5 -114t-118.5 -47q-71 0 -119 45.5t-48 116.5
q0 123 133 199q132 75 345 77q97 0 172 -17.5t135 -57t92 -110.5t32 -171v-422q1 -53 5 -80.5t17.5 -53.5t42 -39t76.5 -20v-8q-62 -49 -149.5 -82t-161.5 -33zM545 563q-57 0 -101 -62q-44 -63 -43 -159q0 -99 40 -149q41 -51 84 -51q46 0 79 16v395q-39 10 -59 10z" />
    <glyph glyph-name="Abreve" unicode="&#x102;" horiz-adv-x="1638" 
d="M819 1528q-103 0 -173 86t-87 196h8q49 -123 252 -123t252 123h8q-17 -110 -87 -196t-173 -86zM494 610h421l-210 631zM1628 8v-8h-710v8q70 13 100 39t29 99q0 76 -82 319l-21 57h-479q-80 -248 -80 -341q0 -47 8.5 -76.5t30 -48.5t49 -29t74.5 -19v-8h-539v8
q77 17 120 52q88 71 241 503l297 850h344l336 -948q127 -357 198 -418q32 -27 84 -39z" />
    <glyph glyph-name="abreve" unicode="&#x103;" horiz-adv-x="1097" 
d="M559 1159q-71 0 -128.5 44t-89 106.5t-42.5 132.5h8q49 -123 252 -123t252 123h8q-11 -70 -42.5 -132.5t-89 -106.5t-128.5 -44zM805 -25q-167 0 -199 158q-129 -158 -291 -158q-119 0 -201 65t-81 181q0 322 571 391v136q0 115 -64.5 177t-177.5 62q-54 0 -120 -20
q78 -15 120 -63q42 -49 41 -112q0 -67 -51.5 -114t-118.5 -47q-71 0 -119 45.5t-48 116.5q0 123 133 199q132 75 345 77q97 0 172 -17.5t135 -57t92 -110.5t32 -171v-422q1 -53 5 -80.5t17.5 -53.5t42 -39t76.5 -20v-8q-62 -49 -149.5 -82t-161.5 -33zM545 563
q-57 0 -101 -62q-44 -63 -43 -159q0 -99 40 -149q41 -51 84 -51q46 0 79 16v395q-39 10 -59 10z" />
    <glyph glyph-name="Aogonek" unicode="&#x104;" horiz-adv-x="1638" 
d="M494 610h421l-210 631zM1457 -428q-56 0 -99.5 38t-44.5 93q0 95 101 172q103 78 192 125h-688v8q70 13 100 39t29 99q0 76 -82 319l-21 57h-479q-80 -248 -80 -341q0 -47 8.5 -76.5t30 -48.5t49 -29t74.5 -19v-8h-539v8q77 17 120 52q88 71 241 503l297 850h344
l336 -948q127 -357 198 -418q32 -27 84 -39v-8q-113 -126 -112 -254q0 -30 23 -52.5t53 -22.5q14 0 38 7v-8q-22 -42 -73 -70t-100 -28z" />
    <glyph glyph-name="aogonek" unicode="&#x105;" horiz-adv-x="1118" 
d="M545 563q-57 0 -101 -62q-44 -63 -43 -159q0 -99 40 -149q41 -51 84 -51q46 0 79 16v395q-39 10 -59 10zM943 -428q-53 0 -98 36.5t-46 88.5q0 44 20 90q19 44 117 142q13 15 82 79l61 55q-139 -88 -274 -88q-167 0 -199 158q-129 -158 -291 -158q-119 0 -201 65t-81 181
q0 322 571 391v136q0 115 -64.5 177t-177.5 62q-54 0 -120 -20q78 -15 120 -63q42 -49 41 -112q0 -67 -51.5 -114t-118.5 -47q-71 0 -119 45.5t-48 116.5q0 123 133 199q132 75 345 77q97 0 172 -17.5t135 -57t92 -110.5t32 -171v-422q0 -99 25 -139.5t116 -53.5v-8
q-40 -53 -77.5 -157t-37.5 -167q0 -39 20 -67t57 -28q14 0 38 7v-8q-22 -42 -73 -70t-100 -28z" />
    <glyph glyph-name="Cacute" unicode="&#x106;" horiz-adv-x="1472" 
d="M768 1532h-23q113 141 150 250h262q-192 -173 -389 -250zM897 -31q-161 0 -309 49.5t-264 139.5t-185 227t-69 301q0 435 390 642q213 114 444 114t435 -86l15 -346h-8q-206 356 -447 356q-186 0 -297 -165q-110 -166 -110 -480q0 -315 120 -496q121 -180 308 -180
q57 1 115.5 26.5t106.5 64.5t94 91.5t79 102t61 100.5h13l-35 -369q-186 -92 -457 -92z" />
    <glyph glyph-name="cacute" unicode="&#x107;" horiz-adv-x="931" 
d="M373 1163h-23q113 141 150 250h262q-192 -173 -389 -250zM25 516q0 238 157 395q158 158 387 158q149 0 241 -68q91 -67 91 -161q0 -87 -47 -144t-132 -57q-73 0 -129 46t-56 117q0 64 32 121t88 85q-22 7 -47 7q-75 0 -145 -73q-92 -97 -92 -309q0 -214 91 -324
q90 -111 210 -111t233 81l8 -7q-41 -95 -134 -194q-95 -101 -271 -101q-154 0 -265.5 73t-165.5 193.5t-54 272.5z" />
    <glyph glyph-name="Ccircumflex" unicode="&#x108;" horiz-adv-x="1472" 
d="M950 1782l191 -250h-21l-268 106l-266 -106h-21l187 250h198zM897 -31q-161 0 -309 49.5t-264 139.5t-185 227t-69 301q0 435 390 642q213 114 444 114t435 -86l15 -346h-8q-206 356 -447 356q-186 0 -297 -165q-110 -166 -110 -480q0 -315 120 -496q121 -180 308 -180
q57 1 115.5 26.5t106.5 64.5t94 91.5t79 102t61 100.5h13l-35 -369q-186 -92 -457 -92z" />
    <glyph glyph-name="ccircumflex" unicode="&#x109;" horiz-adv-x="931" 
d="M608 1413l191 -250h-21l-268 107l-266 -107h-21l187 250h198zM25 516q0 238 157 395q158 158 387 158q149 0 241 -68q91 -67 91 -161q0 -87 -47 -144t-132 -57q-73 0 -129 46t-56 117q0 64 32 121t88 85q-22 7 -47 7q-75 0 -145 -73q-92 -97 -92 -309q0 -214 91 -324
q90 -111 210 -111t233 81l8 -7q-41 -95 -134 -194q-95 -101 -271 -101q-154 0 -265.5 73t-165.5 193.5t-54 272.5z" />
    <glyph glyph-name="Cdotaccent" unicode="&#x10a;" horiz-adv-x="1472" 
d="M900 1505q-69 0 -118 49.5t-49 118.5q0 70 48 118t118 48q69 0 118.5 -48.5t49.5 -117.5t-49 -118.5t-118 -49.5zM897 -31q-161 0 -309 49.5t-264 139.5t-185 227t-69 301q0 435 390 642q213 114 444 114t435 -86l15 -346h-8q-206 356 -447 356q-186 0 -297 -165
q-110 -166 -110 -480q0 -315 120 -496q121 -180 308 -180q57 1 115.5 26.5t106.5 64.5t94 91.5t79 102t61 100.5h13l-35 -369q-186 -92 -457 -92z" />
    <glyph glyph-name="cdotaccent" unicode="&#x10b;" horiz-adv-x="931" 
d="M523 1137q-68 0 -116.5 49.5t-50.5 118.5q0 70 48 117.5t118 47.5q69 0 118.5 -48.5t49.5 -117.5q0 -68 -49.5 -117.5t-117.5 -49.5zM25 516q0 238 157 395q158 158 387 158q149 0 241 -68q91 -67 91 -161q0 -87 -47 -144t-132 -57q-73 0 -129 46t-56 117q0 64 32 121
t88 85q-22 7 -47 7q-75 0 -145 -73q-92 -97 -92 -309q0 -214 91 -324q90 -111 210 -111t233 81l8 -7q-41 -95 -134 -194q-95 -101 -271 -101q-154 0 -265.5 73t-165.5 193.5t-54 272.5z" />
    <glyph glyph-name="Ccaron" unicode="&#x10c;" horiz-adv-x="1472" 
d="M1130 1782l-190 -250h-199l-186 250h20l267 -107l268 107h20zM897 -31q-161 0 -309 49.5t-264 139.5t-185 227t-69 301q0 435 390 642q213 114 444 114t435 -86l15 -346h-8q-206 356 -447 356q-186 0 -297 -165q-110 -166 -110 -480q0 -315 120 -496q121 -180 308 -180
q57 1 115.5 26.5t106.5 64.5t94 91.5t79 102t61 100.5h13l-35 -369q-186 -92 -457 -92z" />
    <glyph glyph-name="ccaron" unicode="&#x10d;" horiz-adv-x="931" 
d="M817 1413l-190 -250h-199l-186 250h20l266 -106l269 106h20zM25 516q0 238 157 395q158 158 387 158q149 0 241 -68q91 -67 91 -161q0 -87 -47 -144t-132 -57q-73 0 -129 46t-56 117q0 64 32 121t88 85q-22 7 -47 7q-75 0 -145 -73q-92 -97 -92 -309q0 -214 91 -324
q90 -111 210 -111t233 81l8 -7q-41 -95 -134 -194q-95 -101 -271 -101q-154 0 -265.5 73t-165.5 193.5t-54 272.5z" />
    <glyph glyph-name="Dcaron" unicode="&#x10e;" horiz-adv-x="1644" 
d="M1110 1782l-190 -250h-199l-186 250h20l266 -107l269 107h20zM758 0h-729v8q94 42 119 100q26 60 26 179v848q0 118 -26 173q-25 53 -119 97v8h749q336 0 557 -170t221 -485q0 -237 -102 -410t-281 -260.5t-415 -87.5zM563 1337v-1261h148q98 0 176 39.5t126.5 103
t80.5 149t45 170t14 174.5q0 281 -121 453t-297 172h-172z" />
    <glyph glyph-name="dcaron" unicode="&#x10f;" horiz-adv-x="1441" 
d="M1306 1438q56 0 96 -40t40 -96q0 -52 -60 -177q-61 -127 -65 -214h-21q-5 90 -65 214q-61 125 -61 177q0 56 40 96t96 40zM627 1014q-95 0 -151 -129q-56 -130 -56 -319q0 -45 4 -88t13 -93.5t27.5 -92t44.5 -76.5t67 -55t92 -20q39 2 75 19v784q-43 70 -116 70zM752 -25
h-9v162q-131 -162 -299 -162q-168 -1 -282 137q-114 139 -113 376q2 239 149 409q148 172 398 172q57 0 147 -12v39q0 134 -24 187q-25 52 -109 91v8q206 18 496 93h8v-1121q0 -134 24 -187q24 -52 109 -91v-8q-207 -18 -495 -93z" />
    <glyph glyph-name="Dcroat" unicode="&#x110;" horiz-adv-x="1644" 
d="M563 678v-602h148q98 0 176 39.5t126.5 103t80.5 149t45 170t14 174.5q0 281 -121 453t-297 172h-172v-567h180v-92h-180zM758 0h-729v8q94 42 119 100q26 60 26 179v391h-106v92h106v365q0 118 -26 173q-25 53 -119 97v8h749q336 0 557 -170t221 -485q0 -237 -102 -410
t-281 -260.5t-415 -87.5z" />
    <glyph glyph-name="dcroat" unicode="&#x111;" horiz-adv-x="1243" 
d="M627 1014q-95 0 -151 -129q-56 -130 -56 -319q0 -45 4 -88t13 -93.5t27.5 -92t44.5 -76.5t67 -55t92 -20q39 2 75 19v784q-43 70 -116 70zM752 -25h-9v162q-131 -162 -299 -162q-168 -1 -282 137q-114 139 -113 376q2 239 149 409q148 172 398 172q57 0 147 -12v39
q0 39 -2 65h-245v88h235q-13 47 -41.5 74.5t-79.5 50.5v8q206 18 496 93h8v-226h78v-88h-78v-807q0 -134 24 -187q24 -52 109 -91v-8q-207 -18 -495 -93z" />
    <glyph glyph-name="Emacron" unicode="&#x112;" horiz-adv-x="1277" 
d="M915 1720v-164h-553v164h553zM1157 0h-1128v8q94 42 119 100q26 60 26 179v848q0 118 -26 173q-25 53 -119 97v8h1069v-389h-15q-79 120 -100 150q-34 48 -80.5 92.5t-89.5 57.5t-115 13h-135v-573h94q122 0 196 38.5t138 139.5h15v-424h-15q-65 98 -139 134t-195 36h-94
v-612h146q99 0 145 24q36 19 81 44q33 18 128 135q97 117 121 145h14z" />
    <glyph glyph-name="emacron" unicode="&#x113;" horiz-adv-x="1007" 
d="M780 1352v-164h-553v164h553zM641 645v121q1 238 -97 238q-52 0 -80 -34q-58 -70 -58 -362v-8zM41 504q0 233 143 399q142 166 348 166q201 0 311 -97t109 -294v-117h-546q3 -73 17.5 -133.5t45.5 -114t86.5 -84t131.5 -30.5q72 0 150.5 24t129.5 66l8 -6
q-44 -73 -86.5 -124.5t-97.5 -95t-123.5 -65t-151.5 -21.5q-152 1 -261 72t-161.5 188t-52.5 267z" />
    <glyph glyph-name="Ebreve" unicode="&#x114;" horiz-adv-x="1277" 
d="M639 1528q-103 0 -173 86t-87 196h8q49 -123 252 -123t252 123h8q-17 -110 -87 -196t-173 -86zM1157 0h-1128v8q94 42 119 100q26 60 26 179v848q0 118 -26 173q-25 53 -119 97v8h1069v-389h-15q-79 120 -100 150q-34 48 -80.5 92.5t-89.5 57.5t-115 13h-135v-573h94
q122 0 196 38.5t138 139.5h15v-424h-15q-65 98 -139 134t-195 36h-94v-612h146q99 0 145 24q36 19 81 44q33 18 128 135q97 117 121 145h14z" />
    <glyph glyph-name="ebreve" unicode="&#x115;" horiz-adv-x="1007" 
d="M504 1159q-71 0 -128.5 44t-89 106.5t-42.5 132.5h8q50 -123 252 -123t252 123h8q-11 -70 -42.5 -132.5t-89 -106.5t-128.5 -44zM641 645v121q1 238 -97 238q-52 0 -80 -34q-58 -70 -58 -362v-8zM41 504q0 233 143 399q142 166 348 166q201 0 311 -97t109 -294v-117h-546
q3 -73 17.5 -133.5t45.5 -114t86.5 -84t131.5 -30.5q72 0 150.5 24t129.5 66l8 -6q-44 -73 -86.5 -124.5t-97.5 -95t-123.5 -65t-151.5 -21.5q-152 1 -261 72t-161.5 188t-52.5 267z" />
    <glyph glyph-name="Edotaccent" unicode="&#x116;" horiz-adv-x="1277" 
d="M638 1505q-69 0 -118 49.5t-49 118.5q0 70 48 118t118 48q69 0 118.5 -48.5t49.5 -117.5t-49 -118.5t-118 -49.5zM1157 0h-1128v8q94 42 119 100q26 60 26 179v848q0 118 -26 173q-25 53 -119 97v8h1069v-389h-15q-79 120 -100 150q-34 48 -80.5 92.5t-89.5 57.5t-115 13
h-135v-573h94q122 0 196 38.5t138 139.5h15v-424h-15q-65 98 -139 134t-195 36h-94v-612h146q99 0 145 24q36 19 81 44q33 18 128 135q97 117 121 145h14z" />
    <glyph glyph-name="edotaccent" unicode="&#x117;" horiz-adv-x="1007" 
d="M546 1137q-69 0 -118 49.5t-49 118.5q0 70 48 117.5t118 47.5q69 0 118.5 -48.5t49.5 -117.5q0 -68 -49.5 -117.5t-117.5 -49.5zM641 645v121q1 238 -97 238q-52 0 -80 -34q-58 -70 -58 -362v-8zM41 504q0 233 143 399q142 166 348 166q201 0 311 -97t109 -294v-117h-546
q3 -73 17.5 -133.5t45.5 -114t86.5 -84t131.5 -30.5q72 0 150.5 24t129.5 66l8 -6q-44 -73 -86.5 -124.5t-97.5 -95t-123.5 -65t-151.5 -21.5q-152 1 -261 72t-161.5 188t-52.5 267z" />
    <glyph glyph-name="Eogonek" unicode="&#x118;" horiz-adv-x="1277" 
d="M990 -428q-55 0 -99.5 38t-44.5 93q0 95 101 172q103 78 192 125h-1110v8q94 42 119 100q26 60 26 179v848q0 118 -26 173q-25 53 -119 97v8h1069v-389h-15q-79 120 -100 150q-34 48 -80.5 92.5t-89.5 57.5t-115 13h-135v-573h94q122 0 196 38.5t138 139.5h15v-424h-15
q-65 98 -139 134t-195 36h-94v-612h146q99 0 145 24q36 19 81 44q33 18 128 135q97 117 121 145h14l-41 -424q-109 -127 -108 -254q0 -30 23 -52.5t53 -22.5q13 0 38 7v-8q-22 -42 -73 -70t-100 -28z" />
    <glyph glyph-name="eogonek" unicode="&#x119;" horiz-adv-x="1007" 
d="M641 645v121q1 238 -97 238q-52 0 -80 -34q-58 -70 -58 -362v-8zM802 -428q-60 0 -102.5 40t-42.5 100t91 211q36 59 88 139q56 86 75 120q-150 -205 -383 -205q-155 1 -266.5 69.5t-166 185.5t-54.5 272q0 233 143 399q142 166 348 166q201 0 311 -97t109 -294v-117
h-546q3 -73 17.5 -133.5t45.5 -114t86.5 -84t131.5 -30.5q72 0 150.5 24t129.5 66l8 -6q-36 -67 -75.5 -258.5t-39.5 -278.5q0 -30 23.5 -52.5t53.5 -22.5q13 0 38 7v-8q-24 -43 -73.5 -70.5t-99.5 -27.5z" />
    <glyph glyph-name="Ecaron" unicode="&#x11a;" horiz-adv-x="1277" 
d="M926 1782l-191 -250h-198l-187 250h21l266 -107l268 107h21zM1157 0h-1128v8q94 42 119 100q26 60 26 179v848q0 118 -26 173q-25 53 -119 97v8h1069v-389h-15q-79 120 -100 150q-34 48 -80.5 92.5t-89.5 57.5t-115 13h-135v-573h94q122 0 196 38.5t138 139.5h15v-424
h-15q-65 98 -139 134t-195 36h-94v-612h146q99 0 145 24q36 19 81 44q33 18 128 135q97 117 121 145h14z" />
    <glyph glyph-name="ecaron" unicode="&#x11b;" horiz-adv-x="1007" 
d="M791 1413l-191 -250h-199l-186 250h21l266 -106l268 106h21zM641 645v121q1 238 -97 238q-52 0 -80 -34q-58 -70 -58 -362v-8zM41 504q0 233 143 399q142 166 348 166q201 0 311 -97t109 -294v-117h-546q3 -73 17.5 -133.5t45.5 -114t86.5 -84t131.5 -30.5q72 0 150.5 24
t129.5 66l8 -6q-44 -73 -86.5 -124.5t-97.5 -95t-123.5 -65t-151.5 -21.5q-152 1 -261 72t-161.5 188t-52.5 267z" />
    <glyph glyph-name="Gcircumflex" unicode="&#x11c;" horiz-adv-x="1605" 
d="M1030 1782l191 -250h-21l-268 106l-266 -106h-21l186 250h199zM1466 436v-375q-324 -92 -619 -92q-155 0 -293.5 51t-241 141t-162.5 222t-60 287q0 424 399 647q229 125 486 125t452 -86l13 -346h-8q-242 356 -482 356q-87 0 -156.5 -28t-116.5 -78.5t-80 -112.5
t-51 -139t-26 -148.5t-8 -149.5q0 -316 120 -483q120 -166 329 -166q82 0 135 13v358q0 87 -29 135.5t-106 89.5v9h620v-9q-79 -40 -97 -78q-18 -37 -18 -143z" />
    <glyph glyph-name="gcircumflex" unicode="&#x11d;" horiz-adv-x="1003" 
d="M598 1413l190 -250h-20l-268 107l-267 -107h-20l186 250h199zM406 498q24 -72 83 -72t82 72q23 74 23 223q0 291 -106 291t-105 -291q-1 -150 23 -223zM604 -41h-315q-72 -41 -72 -129t66 -148t210 -60t244 64q101 65 101 138q0 27 -8.5 48.5t-20.5 35t-32.5 23.5
t-38.5 15.5t-45 8t-44.5 3.5t-44.5 1zM397 254h262q92 0 173 -31.5t136.5 -100.5t55.5 -163q0 -181 -179 -285t-383 -104t-357 72t-152 165q0 145 274 158q-184 31 -184 176q0 82 61 160t140 109q-213 80 -213 297q0 75 26 136.5t69.5 102.5t103 69.5t124.5 41t135 12.5
q100 0 185 -22l373 18l-41 -139l-146 16q84 -90 84 -221q0 -91 -39.5 -160.5t-106 -109t-144.5 -59t-165 -19.5q-140 0 -237 35q-6 -40 -9 -75t33 -57q37 -22 121 -22z" />
    <glyph glyph-name="Gbreve" unicode="&#x11e;" horiz-adv-x="1605" 
d="M950 1528q-103 0 -173 86t-87 196h8q50 -123 252 -123t252 123h8q-17 -110 -87 -196t-173 -86zM1466 436v-375q-324 -92 -619 -92q-155 0 -293.5 51t-241 141t-162.5 222t-60 287q0 424 399 647q229 125 486 125t452 -86l13 -346h-8q-242 356 -482 356q-87 0 -156.5 -28
t-116.5 -78.5t-80 -112.5t-51 -139t-26 -148.5t-8 -149.5q0 -316 120 -483q120 -166 329 -166q82 0 135 13v358q0 87 -29 135.5t-106 89.5v9h620v-9q-79 -40 -97 -78q-18 -37 -18 -143z" />
    <glyph glyph-name="gbreve" unicode="&#x11f;" horiz-adv-x="1003" 
d="M502 1159q-71 0 -128.5 44t-89 106.5t-42.5 132.5h8q50 -123 252 -123t252 123h8q-11 -70 -42.5 -132.5t-89 -106.5t-128.5 -44zM406 498q24 -72 83 -72t82 72q23 74 23 223q0 291 -106 291t-105 -291q-1 -150 23 -223zM604 -41h-315q-72 -41 -72 -129t66 -148t210 -60
t244 64q101 65 101 138q0 27 -8.5 48.5t-20.5 35t-32.5 23.5t-38.5 15.5t-45 8t-44.5 3.5t-44.5 1zM397 254h262q92 0 173 -31.5t136.5 -100.5t55.5 -163q0 -181 -179 -285t-383 -104t-357 72t-152 165q0 145 274 158q-184 31 -184 176q0 82 61 160t140 109
q-213 80 -213 297q0 75 26 136.5t69.5 102.5t103 69.5t124.5 41t135 12.5q100 0 185 -22l373 18l-41 -139l-146 16q84 -90 84 -221q0 -91 -39.5 -160.5t-106 -109t-144.5 -59t-165 -19.5q-140 0 -237 35q-6 -40 -9 -75t33 -57q37 -22 121 -22z" />
    <glyph glyph-name="Gdotaccent" unicode="&#x120;" horiz-adv-x="1605" 
d="M951 1505q-68 0 -116.5 49.5t-50.5 118.5q0 70 48 118t118 48q69 0 118.5 -48.5t49.5 -117.5t-49 -118.5t-118 -49.5zM1466 436v-375q-324 -92 -619 -92q-155 0 -293.5 51t-241 141t-162.5 222t-60 287q0 424 399 647q229 125 486 125t452 -86l13 -346h-8
q-242 356 -482 356q-87 0 -156.5 -28t-116.5 -78.5t-80 -112.5t-51 -139t-26 -148.5t-8 -149.5q0 -316 120 -483q120 -166 329 -166q82 0 135 13v358q0 87 -29 135.5t-106 89.5v9h620v-9q-79 -40 -97 -78q-18 -37 -18 -143z" />
    <glyph glyph-name="gdotaccent" unicode="&#x121;" horiz-adv-x="1003" 
d="M500 1470q69 0 117.5 -48.5t50.5 -117.5q0 -68 -49.5 -117.5t-117.5 -49.5q-69 0 -118 49.5t-49 118.5q0 70 48 117.5t118 47.5zM406 498q24 -72 83 -72t82 72q23 74 23 223q0 291 -106 291t-105 -291q-1 -150 23 -223zM604 -41h-315q-72 -41 -72 -129t66 -148t210 -60
t244 64q101 65 101 138q0 27 -8.5 48.5t-20.5 35t-32.5 23.5t-38.5 15.5t-45 8t-44.5 3.5t-44.5 1zM397 254h262q92 0 173 -31.5t136.5 -100.5t55.5 -163q0 -181 -179 -285t-383 -104t-357 72t-152 165q0 145 274 158q-184 31 -184 176q0 82 61 160t140 109
q-213 80 -213 297q0 75 26 136.5t69.5 102.5t103 69.5t124.5 41t135 12.5q100 0 185 -22l373 18l-41 -139l-146 16q84 -90 84 -221q0 -91 -39.5 -160.5t-106 -109t-144.5 -59t-165 -19.5q-140 0 -237 35q-6 -40 -9 -75t33 -57q37 -22 121 -22z" />
    <glyph glyph-name="Gcommaaccent" unicode="&#x122;" horiz-adv-x="1605" 
d="M1466 436v-375q-324 -92 -619 -92q-155 0 -293.5 51t-241 141t-162.5 222t-60 287q0 424 399 647q229 125 486 125t452 -86l13 -346h-8q-242 356 -482 356q-87 0 -156.5 -28t-116.5 -78.5t-80 -112.5t-51 -139t-26 -148.5t-8 -149.5q0 -316 120 -483q120 -166 329 -166
q82 0 135 13v358q0 87 -29 135.5t-106 89.5v9h620v-9q-79 -40 -97 -78q-18 -37 -18 -143zM727 -434q0 34 -35 84t-35 103q0 60 44 100.5t105 40.5q75 0 114.5 -49t39.5 -127q0 -48 -32.5 -101t-83 -98t-100 -79t-95.5 -58l-6 4q84 106 84 180z" />
    <glyph glyph-name="gcommaaccent" unicode="&#x123;" horiz-adv-x="1003" 
d="M551 1462q0 -34 35 -84t35 -103q0 -60 -44 -100t-105 -40q-76 0 -115.5 49t-39.5 126q-1 49 31.5 102.5t83.5 98t101 79t96 57.5l6 -5q-84 -106 -84 -180zM406 498q24 -72 83 -72t82 72q23 74 23 223q0 291 -106 291t-105 -291q-1 -150 23 -223zM604 -41h-315
q-72 -41 -72 -129t66 -148t210 -60t244 64q101 65 101 138q0 27 -8.5 48.5t-20.5 35t-32.5 23.5t-38.5 15.5t-45 8t-44.5 3.5t-44.5 1zM397 254h262q92 0 173 -31.5t136.5 -100.5t55.5 -163q0 -181 -179 -285t-383 -104t-357 72t-152 165q0 145 274 158q-184 31 -184 176
q0 82 61 160t140 109q-213 80 -213 297q0 75 26 136.5t69.5 102.5t103 69.5t124.5 41t135 12.5q100 0 185 -22l373 18l-41 -139l-146 16q84 -90 84 -221q0 -91 -39.5 -160.5t-106 -109t-144.5 -59t-165 -19.5q-140 0 -237 35q-6 -40 -9 -75t33 -57q37 -22 121 -22z" />
    <glyph glyph-name="Hcircumflex" unicode="&#x124;" horiz-adv-x="1658" 
d="M926 1782l190 -250h-20l-269 106l-266 -106h-20l186 250h199zM1630 8v-8h-680v8q92 42 119 100t27 179v391h-533v-391q0 -117 26.5 -176t119.5 -103v-8h-680v8q94 42 119 100q26 60 26 179v848q0 118 -26 173q-25 53 -119 97v8h680v-8q-95 -44 -120 -97q-26 -55 -26 -173
v-365h533v365q0 118 -26 173q-25 53 -120 97v8h680v-8q-95 -44 -120 -97q-26 -56 -25 -173v-848q1 -121 27 -178t118 -101z" />
    <glyph glyph-name="hcircumflex" unicode="&#x125;" horiz-adv-x="1280" 
d="M416 1751l190 -250h-20l-269 107l-266 -107h-20l186 250h199zM1264 8v-8h-596v8q73 41 92 96q20 57 20 175v452q0 74 -39.5 123t-112.5 49q-62 0 -108 -12v-612q0 -118 20 -175q20 -56 93 -96v-8h-604v8q73 41 92 96q20 57 20 175v817q0 134 -24 187q-25 52 -109 91v8
q219 20 504 93h8v-564q67 76 160.5 117t195.5 41q114 0 194 -80q81 -79 81 -258v-452q0 -118 20 -175q19 -56 93 -96z" />
    <glyph glyph-name="Hbar" unicode="&#x126;" horiz-adv-x="1658" 
d="M563 770h533v215h-533v-215zM1630 8v-8h-680v8q92 42 119 100t27 179v391h-533v-391q0 -117 26.5 -176t119.5 -103v-8h-680v8q94 42 119 100q26 60 26 179v698h-92v92h92v58q0 118 -26 173q-25 53 -119 97v8h680v-8q-95 -44 -120 -97q-26 -55 -26 -173v-58h533v58
q0 118 -26 173q-25 53 -120 97v8h680v-8q-95 -44 -120 -97q-26 -56 -25 -173v-58h92v-92h-92v-698q1 -121 27 -178t118 -101z" />
    <glyph glyph-name="hbar" unicode="&#x127;" horiz-adv-x="1280" 
d="M1264 8v-8h-596v8q73 41 92 96q20 57 20 175v452q0 74 -39.5 123t-112.5 49q-62 0 -108 -12v-612q0 -118 20 -175q20 -56 93 -96v-8h-604v8q73 41 92 96q20 57 20 175v817q0 39 -2 65h-114v88h104q-13 47 -41.5 74.5t-79.5 50.5v8q219 20 504 93h8v-226h283v-88h-283
v-250q67 76 160.5 117t195.5 41q114 0 194 -80q81 -79 81 -258v-452q0 -118 20 -175q19 -56 93 -96z" />
    <glyph glyph-name="Itilde" unicode="&#x128;" horiz-adv-x="737" 
d="M180 1606q-66 0 -108 -62l-11 4q10 35 26 71t39.5 74.5t56.5 62.5t69 24q56 0 164 -28t139 -28q66 2 109 62l10 -4q-10 -36 -25.5 -72t-39.5 -74t-57 -62t-70 -24q-58 0 -169 28t-133 28zM709 8v-8h-680v8q94 44 119 97q26 55 26 174v856q0 118 -26 173q-25 53 -119 97v8
h680v-8q-95 -44 -120 -97q-26 -55 -26 -173v-856q0 -118 26 -173t120 -98z" />
    <glyph glyph-name="itilde" unicode="&#x129;" horiz-adv-x="649" 
d="M440 1182q-58 0 -170 28q-113 29 -133 27q-66 0 -108 -61l-11 4q14 48 37 96.5t65.5 91.5t88.5 43q56 0 164 -28q105 -27 137 -27q67 0 111 61l10 -4q-11 -35 -26.5 -70.5t-39 -74t-56.5 -62.5t-69 -24zM633 8v-8h-596v8q73 41 92 96q20 56 21 175v411q0 137 -25 188
q-25 52 -109 91v8q203 18 496 92h8v-790q0 -118 20 -175q20 -56 93 -96z" />
    <glyph glyph-name="Imacron" unicode="&#x12a;" horiz-adv-x="737" 
d="M645 1720v-164h-553v164h553zM709 8v-8h-680v8q94 44 119 97q26 55 26 174v856q0 118 -26 173q-25 53 -119 97v8h680v-8q-95 -44 -120 -97q-26 -55 -26 -173v-856q0 -118 26 -173t120 -98z" />
    <glyph glyph-name="imacron" unicode="&#x12b;" horiz-adv-x="649" 
d="M600 1352v-164h-553v164h553zM633 8v-8h-596v8q73 41 92 96q20 56 21 175v411q0 137 -25 188q-25 52 -109 91v8q203 18 496 92h8v-790q0 -118 20 -175q20 -56 93 -96z" />
    <glyph glyph-name="Ibreve" unicode="&#x12c;" horiz-adv-x="737" 
d="M369 1528q-103 0 -173 86t-87 196h8q49 -123 252 -123t252 123h8q-17 -110 -87 -196t-173 -86zM709 8v-8h-680v8q94 44 119 97q26 55 26 174v856q0 118 -26 173q-25 53 -119 97v8h680v-8q-95 -44 -120 -97q-26 -55 -26 -173v-856q0 -118 26 -173t120 -98z" />
    <glyph glyph-name="ibreve" unicode="&#x12d;" horiz-adv-x="649" 
d="M324 1159q-103 0 -173.5 86.5t-87.5 196.5h9q50 -123 252 -123t251 123h9q-11 -70 -42.5 -132.5t-89 -106.5t-128.5 -44zM633 8v-8h-596v8q73 41 92 96q20 56 21 175v411q0 137 -25 188q-25 52 -109 91v8q203 18 496 92h8v-790q0 -118 20 -175q20 -56 93 -96z" />
    <glyph glyph-name="Iogonek" unicode="&#x12e;" horiz-adv-x="737" 
d="M536 -428q-55 0 -100 38.5t-45 92.5q0 94 101 171q100 76 192 126h-655v8q94 44 119 97q26 55 26 174v856q0 118 -26 173q-25 53 -119 97v8h680v-8q-95 -44 -120 -97q-26 -55 -26 -173v-856q0 -118 26 -173t120 -98v-8q-115 -124 -115 -254q0 -30 23.5 -52.5t53.5 -22.5
q13 0 38 7v-8q-24 -43 -73.5 -70.5t-99.5 -27.5z" />
    <glyph glyph-name="iogonek" unicode="&#x12f;" horiz-adv-x="649" 
d="M328 1098q-77 0 -130 54.5t-55 131.5q2 77 55 130.5t130 53.5t131.5 -54t54.5 -130t-55 -131t-131 -55zM452 -428q-55 0 -100 38.5t-45 92.5q0 94 101 171q100 76 192 126h-563v8q73 41 92 96q20 56 21 175v411q0 137 -25 188q-25 52 -109 91v8q203 18 496 92h8v-790
q0 -118 20 -175q20 -56 93 -96v-8q-123 -122 -123 -254q0 -30 23.5 -52.5t53.5 -22.5q13 0 38 7v-8q-24 -43 -73.5 -70.5t-99.5 -27.5z" />
    <glyph glyph-name="Idotaccent" unicode="&#x130;" horiz-adv-x="737" 
d="M367 1839q70 0 118.5 -48t48.5 -118q0 -69 -48.5 -118.5t-117.5 -49.5t-118 49.5t-49 118.5q0 70 48 118t118 48zM709 8v-8h-680v8q94 44 119 97q26 55 26 174v856q0 118 -26 173q-25 53 -119 97v8h680v-8q-95 -44 -120 -97q-26 -55 -26 -173v-856q0 -118 26 -173
t120 -98z" />
    <glyph glyph-name="dotlessi" unicode="&#x131;" horiz-adv-x="649" 
d="M633 8v-8h-596v8q73 41 92 96q20 56 21 175v411q0 137 -25 188q-25 52 -109 91v8q203 18 496 92h8v-790q0 -118 20 -175q20 -56 93 -96z" />
    <glyph glyph-name="IJ" unicode="&#x132;" horiz-adv-x="1507" 
d="M911 -2v1137q0 120 -25 173t-120 97v8h680v-8q-95 -44 -120 -97q-26 -55 -26 -173v-975q0 -123 -81 -238t-198 -197q-157 -111 -282 -153l-6 6q94 50 136 170t42 250zM709 8v-8h-680v8q94 44 119 97q26 55 26 174v856q0 118 -26 173q-25 53 -119 97v8h680v-8
q-95 -44 -120 -97q-26 -55 -26 -173v-856q0 -118 26 -173t120 -98z" />
    <glyph glyph-name="ij" unicode="&#x133;" horiz-adv-x="1282" 
d="M791 37v653q0 137 -25 188q-25 52 -109 91v8q216 19 504 92h8v-868q0 -101 -43 -201t-115 -175q-145 -152 -409 -255l-6 12q66 41 111.5 122.5t64 165.5t19.5 167zM977 1098q-76 0 -130 54.5t-54 131.5q0 76 53.5 130t130.5 54t131.5 -54t54.5 -130t-54.5 -131
t-131.5 -55zM633 8v-8h-596v8q73 41 92 96q20 56 21 175v411q0 137 -25 188q-25 52 -109 91v8q203 18 496 92h8v-790q0 -118 20 -175q20 -56 93 -96zM328 1098q-77 0 -130 54.5t-55 131.5q2 77 55 130.5t130 53.5t131.5 -54t54.5 -130t-55 -131t-131 -55z" />
    <glyph glyph-name="Jcircumflex" unicode="&#x134;" horiz-adv-x="770" 
d="M481 1782l191 -250h-21l-268 106l-266 -106h-21l187 250h198zM174 -2v1137q0 118 -26 173q-25 53 -119 97v8h680v-8q-95 -44 -120 -97q-26 -55 -26 -173v-975q0 -88 -44 -174q-109 -213 -397 -362q-65 -33 -120 -52l-6 6q94 50 136 170t42 250z" />
    <glyph glyph-name="jcircumflex" unicode="&#x135;" horiz-adv-x="616" 
d="M406 1413l190 -250h-21l-268 107l-266 -107h-21l187 250h199zM133 37v653q0 136 -24 188q-25 52 -109 91v8q216 19 504 92h8v-868q0 -101 -43 -201t-115 -175q-147 -153 -409 -255l-6 12q66 41 111.5 122.5t64 165.5t18.5 167z" />
    <glyph glyph-name="Kcommaaccent" unicode="&#x136;" horiz-adv-x="1593" 
d="M1599 8v-8h-765v8q32 14 48 22t36 25.5t32 40.5q28 54 -49 193l-209 362l-129 -141v-231q0 -118 26 -173t120 -98v-8h-680v8q94 44 119 97q26 55 26 174v856q0 118 -26 173q-25 53 -119 97v8h680v-8q-95 -44 -120 -97q-26 -55 -26 -173v-519l379 451q218 260 -70 338v8
h670v-8q-98 -36 -175.5 -84t-133.5 -98t-139 -138l-158 -172l418 -661q55 -89 109 -145t136 -99zM721 -434q0 34 -35 84t-35 103q0 60 44 100.5t105 40.5q75 0 114.5 -49t39.5 -127q0 -48 -32.5 -101t-83.5 -98t-100 -79t-95 -58l-6 4q84 106 84 180z" />
    <glyph glyph-name="kcommaaccent" unicode="&#x137;" horiz-adv-x="1284" 
d="M633 8v-8h-604v8q73 41 92 96q20 57 20 175v817q0 134 -24 187q-25 52 -109 91v8q219 20 504 93h8v-1196q0 -118 20 -175q20 -56 93 -96zM1331 8v-8h-297q-134 0 -183 33q-51 34 -130 190l-160 318l187 192q69 72 73 125q6 56 -30 93q-37 37 -117 81v12h643v-12
q-92 -24 -199.5 -88t-169.5 -133l-100 -113l285 -467q72 -119 111 -161q36 -39 87 -62zM588 -434q0 34 -35 84t-35 103q0 60 44 100.5t104 40.5q76 0 115.5 -49t39.5 -127q0 -48 -32.5 -101t-83.5 -98t-100 -79t-95 -58l-6 4q84 106 84 180z" />
    <glyph glyph-name="kgreenlandic" unicode="&#x138;" horiz-adv-x="1327" 
d="M633 8v-8h-604v8q73 41 92 96q20 57 20 175v411q0 136 -24 188q-25 52 -109 91v8q216 19 504 92h8v-790q0 -118 20 -175q20 -56 93 -96zM1331 8v-8h-297q-130 0 -173 31q-44 32 -140 192l-178 297l205 213q69 72 73 125q6 55 -30 92q-35 35 -117 80v14h643v-8
q-86 -16 -149 -45t-110 -69t-110 -111l-119 -133l304 -447q88 -130 121 -165q37 -40 77 -58z" />
    <glyph glyph-name="Lacute" unicode="&#x139;" horiz-adv-x="1187" 
d="M223 1532h-22q114 142 149 250h262q-192 -173 -389 -250zM1116 0h-1087v8q94 44 119 97q26 55 26 174v856q0 118 -26 173q-25 53 -119 97v8h680v-8q-95 -44 -120 -97q-26 -55 -26 -173v-1059h105q99 0 186 37q29 11 68 47.5t65 69.5l74 92q61 78 82 102h14z" />
    <glyph glyph-name="lacute" unicode="&#x13a;" horiz-adv-x="649" 
d="M141 1475h-22q113 142 149 249h262q-193 -172 -389 -249zM633 8v-8h-604v8q73 41 92 96q20 57 20 175v817q0 134 -24 187q-25 52 -109 91v8q219 20 504 93h8v-1196q0 -118 20 -175q20 -56 93 -96z" />
    <glyph glyph-name="Lcommaaccent" unicode="&#x13b;" horiz-adv-x="1187" 
d="M1116 0h-1087v8q94 44 119 97q26 55 26 174v856q0 118 -26 173q-25 53 -119 97v8h680v-8q-95 -44 -120 -97q-26 -55 -26 -173v-1059h105q99 0 186 37q29 11 68 47.5t65 69.5l74 92q61 78 82 102h14zM518 -434q0 34 -35 84t-35 103q0 60 44 100.5t105 40.5q76 0 115.5 -49
t39.5 -127q0 -39 -22.5 -81.5t-56 -79t-77 -72t-82.5 -60.5t-74 -43l-6 4q84 106 84 180z" />
    <glyph glyph-name="lcommaaccent" unicode="&#x13c;" horiz-adv-x="649" 
d="M633 8v-8h-604v8q73 41 92 96q20 57 20 175v817q0 134 -24 187q-25 52 -109 91v8q219 20 504 93h8v-1196q0 -118 20 -175q20 -56 93 -96zM250 -434q0 34 -35 84t-35 103q0 60 44 100.5t105 40.5q67 0 111 -44t43 -132q0 -48 -32.5 -101t-83.5 -98t-100 -79t-95 -58l-6 4
q84 106 84 180z" />
    <glyph glyph-name="Lcaron" unicode="&#x13d;" horiz-adv-x="1187" 
d="M872 1438q55 0 95.5 -40.5t40.5 -95.5q0 -52 -60 -177q-61 -127 -65 -214h-21q-5 90 -65 214q-61 125 -61 177q0 56 40 96t96 40zM1116 0h-1087v8q94 44 119 97q26 55 26 174v856q0 118 -26 173q-25 53 -119 97v8h680v-8q-95 -44 -120 -97q-26 -55 -26 -173v-1059h105
q99 0 186 37q29 11 68 47.5t65 69.5l74 92q61 78 82 102h14z" />
    <glyph glyph-name="lcaron" unicode="&#x13e;" horiz-adv-x="854" 
d="M582 1302q0 55 41 95.5t96 40.5t95 -40.5t40 -95.5q0 -52 -60 -177q-61 -127 -65 -214h-20q-4 88 -66 214q-61 125 -61 177zM633 8v-8h-604v8q73 41 92 96q20 57 20 175v817q0 134 -24 187q-25 52 -109 91v8q219 20 504 93h8v-1196q0 -118 20 -175q20 -56 93 -96z" />
    <glyph glyph-name="Ldot" unicode="&#x13f;" horiz-adv-x="1187" 
d="M831 915q86 0 147.5 -59.5t61.5 -145.5t-61 -145t-147 -59q-87 0 -147 58.5t-60 145.5t59.5 146t146.5 59zM1116 0h-1087v8q94 44 119 97q26 55 26 174v856q0 118 -26 173q-25 53 -119 97v8h680v-8q-95 -44 -120 -97q-26 -55 -26 -173v-1059h105q99 0 186 37
q29 11 68 47.5t65 69.5l74 92q61 78 82 102h14z" />
    <glyph glyph-name="ldot" unicode="&#x140;" horiz-adv-x="825" 
d="M633 8v-8h-604v8q73 41 92 96q20 57 20 175v817q0 134 -24 187q-25 52 -109 91v8q219 20 504 93h8v-1196q0 -118 20 -175q20 -56 93 -96zM860 730q0 -59 -42 -98.5t-101 -39.5t-100.5 39.5t-41.5 98.5t41 99.5t100 40.5q60 0 102 -40.5t42 -99.5z" />
    <glyph glyph-name="Lslash" unicode="&#x141;" horiz-adv-x="1187" 
d="M1116 0h-1087v8q94 44 119 97q26 55 26 174v233l-92 -25v105l92 24v519q0 118 -26 173q-25 53 -119 97v8h680v-8q-95 -44 -120 -97q-26 -55 -26 -173v-414l277 76v-105l-277 -76v-540h105q99 0 186 37q29 11 68 47.5t65 69.5l74 92q61 78 82 102h14z" />
    <glyph glyph-name="lslash" unicode="&#x142;" horiz-adv-x="649" 
d="M633 8v-8h-604v8q73 41 92 96q20 57 20 175v516l-123 -41v104l123 41v197q0 134 -24 187q-25 52 -109 91v8q219 20 504 93h8v-451l113 39v-105l-113 -38v-641q0 -118 20 -175q20 -56 93 -96z" />
    <glyph glyph-name="Nacute" unicode="&#x143;" horiz-adv-x="1701" 
d="M668 1532h-23q113 141 150 250h262q-192 -173 -389 -250zM1485 930v-930h-156l-989 1126v-634q0 -324 78 -408q39 -42 108 -76v-8h-493v8q71 33 109 76q78 88 77 408v643q0 72 -20 121.5t-58.5 83t-105.5 65.5v8h530l799 -899v416q0 312 -78 401q-35 40 -108 74v8h493v-8
q-73 -34 -109 -74q-79 -89 -77 -401z" />
    <glyph glyph-name="nacute" unicode="&#x144;" horiz-adv-x="1280" 
d="M457 1163h-23q113 141 150 250h262q-192 -173 -389 -250zM1264 8v-8h-596v8q73 41 92 96q20 57 20 175v452q0 74 -39.5 123t-112.5 49q-62 0 -108 -12v-612q0 -118 20 -175q20 -56 93 -96v-8h-596v8q73 41 92 96q20 56 21 175v411q0 137 -25 188q-25 52 -109 91v8
q203 18 496 92h8v-158q67 76 160.5 117t195.5 41q114 0 194 -80q81 -79 81 -258v-452q0 -118 20 -175q19 -56 93 -96z" />
    <glyph glyph-name="Ncommaaccent" unicode="&#x145;" horiz-adv-x="1701" 
d="M1485 930v-930h-156l-989 1126v-634q0 -324 78 -408q39 -42 108 -76v-8h-493v8q71 33 109 76q78 88 77 408v643q0 72 -20 121.5t-58.5 83t-105.5 65.5v8h530l799 -899v416q0 312 -78 401q-35 40 -108 74v8h493v-8q-73 -34 -109 -74q-79 -89 -77 -401zM776 -434
q0 34 -35 84t-35 103q0 59 45 100t105 41q75 0 114.5 -49t39.5 -127q0 -39 -22.5 -81.5t-56 -79t-77 -72t-82.5 -60.5t-74 -43l-6 4q84 106 84 180z" />
    <glyph glyph-name="ncommaaccent" unicode="&#x146;" horiz-adv-x="1280" 
d="M1264 8v-8h-596v8q73 41 92 96q20 57 20 175v452q0 74 -39.5 123t-112.5 49q-62 0 -108 -12v-612q0 -118 20 -175q20 -56 93 -96v-8h-596v8q73 41 92 96q20 56 21 175v411q0 137 -25 188q-25 52 -109 91v8q203 18 496 92h8v-158q67 76 160.5 117t195.5 41q114 0 194 -80
q81 -79 81 -258v-452q0 -118 20 -175q19 -56 93 -96zM565 -434q0 34 -35 84q-34 49 -34 103q0 60 44 100.5t104 40.5q76 0 115.5 -49t39.5 -127q1 -48 -32 -101t-84.5 -98t-100.5 -79t-95 -58l-6 4q84 106 84 180z" />
    <glyph glyph-name="Ncaron" unicode="&#x147;" horiz-adv-x="1701" 
d="M1139 1782l-191 -250h-198l-187 250h21l266 -107l268 107h21zM1485 930v-930h-156l-989 1126v-634q0 -324 78 -408q39 -42 108 -76v-8h-493v8q71 33 109 76q78 88 77 408v643q0 72 -20 121.5t-58.5 83t-105.5 65.5v8h530l799 -899v416q0 312 -78 401q-35 40 -108 74v8
h493v-8q-73 -34 -109 -74q-79 -89 -77 -401z" />
    <glyph glyph-name="ncaron" unicode="&#x148;" horiz-adv-x="1280" 
d="M928 1413l-191 -250h-198l-187 250h21l266 -106l268 106h21zM1264 8v-8h-596v8q73 41 92 96q20 57 20 175v452q0 74 -39.5 123t-112.5 49q-62 0 -108 -12v-612q0 -118 20 -175q20 -56 93 -96v-8h-596v8q73 41 92 96q20 56 21 175v411q0 137 -25 188q-25 52 -109 91v8
q203 18 496 92h8v-158q67 76 160.5 117t195.5 41q114 0 194 -80q81 -79 81 -258v-452q0 -118 20 -175q19 -56 93 -96z" />
    <glyph glyph-name="napostrophe" unicode="&#x149;" horiz-adv-x="1280" 
d="M248 1229q0 34 -35 84t-35 103t41 97q40 43 111 43q77 0 114 -50.5t37 -130.5q0 -49 -32 -101.5t-83 -96t-100 -76.5t-96 -57l-6 5q84 107 84 180zM1264 8v-8h-596v8q73 41 92 96q20 57 20 175v452q0 74 -39.5 123t-112.5 49q-62 0 -108 -12v-612q0 -118 20 -175
q20 -56 93 -96v-8h-596v8q73 41 92 96q20 56 21 175v411q0 137 -25 188q-25 52 -109 91v8q203 18 496 92h8v-158q67 76 160.5 117t195.5 41q114 0 194 -80q81 -79 81 -258v-452q0 -118 20 -175q19 -56 93 -96z" />
    <glyph glyph-name="Eng" unicode="&#x14a;" horiz-adv-x="1701" 
d="M340 1126v-634q0 -324 78 -408q39 -42 108 -76v-8h-493v8q71 33 109 76q78 88 77 408v643q0 72 -20 121.5t-58.5 83t-105.5 65.5v8h530l799 -899v416q0 312 -78 401q-35 40 -108 74v8h493v-8q-73 -34 -109 -74q-79 -89 -77 -401v-836q0 -251 -113 -388
q-112 -136 -287 -136q-57 0 -102 27t-45 81q0 43 20 78q87 -41 179 -41q95 0 155.5 72t71.5 172z" />
    <glyph glyph-name="eng" unicode="&#x14b;" horiz-adv-x="1280" 
d="M780 37v694q0 74 -39.5 123t-112.5 49q-62 0 -108 -12v-612q0 -118 20 -175q20 -56 93 -96v-8h-596v8q73 41 92 96q20 56 21 175v411q0 137 -25 188q-25 52 -109 91v8q203 18 496 92h8v-158q67 76 160.5 117t195.5 41q114 0 194 -80q81 -79 81 -258l2 -530
q0 -100 -42 -201t-113 -175q-55 -57 -137 -115t-155 -92q-48 -22 -112 -48l-6 12q96 60 144 191.5t48 263.5z" />
    <glyph glyph-name="Omacron" unicode="&#x14c;" horiz-adv-x="1724" 
d="M1139 1720v-164h-553v164h553zM1655 705q0 -243 -135.5 -421.5t-371.5 -264.5q-141 -50 -286 -50t-284 49.5t-255 141.5q-114 90 -184 232t-69 313q0 220 121 392q118 165 293 255t378 90q154 0 298.5 -56t253.5 -152t175 -234.5t66 -294.5zM655 139q85 -94 207 -94
t207 94q164 179 164 566q0 64 -6.5 130t-21 143.5t-43 144t-67.5 122.5t-99 88.5t-134 32.5q-63 0 -116.5 -25t-91 -65.5t-66.5 -97.5t-47 -116t-29 -125.5t-15.5 -122.5t-4.5 -109q0 -387 163 -566z" />
    <glyph glyph-name="omacron" unicode="&#x14d;" 
d="M879 1352v-164h-553v164h553zM995 918q160 -150 160 -392q0 -241 -156 -395t-397 -156q-241 0 -397.5 155.5t-155.5 395.5q0 242 160 393t393 151q232 0 393 -152zM602 39q105 0 135 142q29 145 29 341q0 482 -164 484q-164 0 -164 -484q0 -362 78 -445q35 -38 86 -38z
" />
    <glyph glyph-name="Obreve" unicode="&#x14e;" horiz-adv-x="1724" 
d="M862 1528q-103 0 -173 86t-87 196h8q50 -123 252 -123t252 123h8q-17 -110 -87 -196t-173 -86zM1655 705q0 -243 -135.5 -421.5t-371.5 -264.5q-141 -50 -286 -50t-284 49.5t-255 141.5q-114 90 -184 232t-69 313q0 220 121 392q118 165 293 255t378 90q154 0 298.5 -56
t253.5 -152t175 -234.5t66 -294.5zM655 139q85 -94 207 -94t207 94q164 179 164 566q0 64 -6.5 130t-21 143.5t-43 144t-67.5 122.5t-99 88.5t-134 32.5q-63 0 -116.5 -25t-91 -65.5t-66.5 -97.5t-47 -116t-29 -125.5t-15.5 -122.5t-4.5 -109q0 -387 163 -566z" />
    <glyph glyph-name="obreve" unicode="&#x14f;" 
d="M602 1159q-71 0 -128.5 44t-89 106.5t-42.5 132.5h8q50 -123 252 -123t252 123h8q-11 -70 -42.5 -132.5t-89 -106.5t-128.5 -44zM995 918q160 -150 160 -392q0 -241 -156 -395t-397 -156q-241 0 -397.5 155.5t-155.5 395.5q0 242 160 393t393 151q232 0 393 -152zM602 39
q105 0 135 142q29 145 29 341q0 482 -164 484q-164 0 -164 -484q0 -362 78 -445q35 -38 86 -38z" />
    <glyph glyph-name="Ohungarumlaut" unicode="&#x150;" horiz-adv-x="1724" 
d="M1655 705q0 -243 -135.5 -421.5t-371.5 -264.5q-141 -50 -286 -50t-284 49.5t-255 141.5q-114 90 -184 232t-69 313q0 220 121 392q118 165 293 255t378 90q154 0 298.5 -56t253.5 -152t175 -234.5t66 -294.5zM655 139q85 -94 207 -94t207 94q164 179 164 566
q0 64 -6.5 130t-21 143.5t-43 144t-67.5 122.5t-99 88.5t-134 32.5q-63 0 -116.5 -25t-91 -65.5t-66.5 -97.5t-47 -116t-29 -125.5t-15.5 -122.5t-4.5 -109q0 -387 163 -566zM866 1532h-18q61 110 67 250h203q-64 -133 -252 -250zM623 1532h-19q60 109 68 250h202
q-62 -132 -251 -250z" />
    <glyph glyph-name="ohungarumlaut" unicode="&#x151;" 
d="M995 918q160 -150 160 -392q0 -241 -156 -395t-397 -156q-241 0 -397.5 155.5t-155.5 395.5q0 242 160 393t393 151q232 0 393 -152zM602 39q105 0 135 142q29 145 29 341q0 482 -164 484q-164 0 -164 -484q0 -362 78 -445q35 -38 86 -38zM606 1163h-18q61 110 67 250
h203q-64 -133 -252 -250zM362 1163h-18q60 109 68 250h202q-64 -133 -252 -250z" />
    <glyph glyph-name="OE" unicode="&#x152;" horiz-adv-x="2332" 
d="M655 139q85 -94 207 -94t207 94q164 179 164 566q0 64 -6.5 130t-21 143.5t-43 144t-67.5 122.5t-99 88.5t-134 32.5q-63 0 -116.5 -25t-91 -65.5t-66.5 -97.5t-47 -116t-29 -125.5t-15.5 -122.5t-4.5 -109q0 -387 163 -566zM2212 0h-983v127q-163 -158 -373 -158
q-212 0 -384.5 84.5t-287.5 254.5q-114 170 -114 394q0 223 116 396q115 170 288.5 257t383.5 87q208 0 371 -168v139h923v-389h-14q-79 120 -100 150q-34 48 -80.5 92.5t-89.5 57.5t-115 13h-135v-573h94q127 0 196 36.5t138 141.5h14v-424h-14q-68 100 -139 135t-195 35
h-94v-612h145q74 0 116.5 14t110.5 55q32 20 128 135q94 112 120 144h15z" />
    <glyph glyph-name="oe" unicode="&#x153;" horiz-adv-x="1722" 
d="M1356 645v121q0 238 -98 238q-52 0 -85 -41q-53 -65 -53 -355v-8zM602 39q105 0 135 142q29 145 29 341q0 482 -164 484q-164 0 -164 -484q0 -362 78 -445q35 -38 86 -38zM49 526q0 242 160 393t377 151t338 -148q136 147 333 147q194 0 302.5 -99.5t107.5 -291.5v-117
h-547q3 -73 18 -133.5t46 -114t86.5 -84t131.5 -30.5q73 0 150.5 23.5t128.5 66.5l9 -6q-93 -154 -199 -230t-271 -76q-195 0 -317 134q-121 -135 -301 -136q-241 0 -397.5 155.5t-155.5 395.5z" />
    <glyph glyph-name="Racute" unicode="&#x154;" horiz-adv-x="1466" 
d="M549 1532h-23q113 141 150 250h262q-192 -173 -389 -250zM563 1337v-651h64q116 0 199 92q81 90 83 240q0 148 -75 234q-76 85 -187 85h-84zM1485 8v-8h-375q-106 0 -144 30q-38 31 -128 183l-234 405h-41v-331q0 -117 26.5 -176t119.5 -103v-8h-680v8q94 42 119 100
q26 60 26 179v848q0 118 -26 173q-25 53 -119 97v8h639q643 0 643 -387q0 -242 -355 -360l347 -480q67 -94 105 -132q39 -39 77 -46z" />
    <glyph glyph-name="racute" unicode="&#x155;" horiz-adv-x="917" 
d="M274 1163h-22q114 142 149 250h263q-194 -173 -390 -250zM918 885q0 -77 -53.5 -128.5t-130.5 -51.5t-128 51t-51 128t51 131t128 54q76 0 130 -53.5t54 -130.5zM666 8v-8h-629v8q73 41 92 96q20 56 21 175v411q0 137 -25 188q-25 52 -109 91v8q203 18 496 92h8v-790
q0 -118 26 -173t120 -98z" />
    <glyph glyph-name="Rcommaaccent" unicode="&#x156;" horiz-adv-x="1466" 
d="M563 1337v-651h64q116 0 199 92q81 90 83 240q0 148 -75 234q-76 85 -187 85h-84zM1485 8v-8h-375q-106 0 -144 30q-38 31 -128 183l-234 405h-41v-331q0 -117 26.5 -176t119.5 -103v-8h-680v8q94 42 119 100q26 60 26 179v848q0 118 -26 173q-25 53 -119 97v8h639
q643 0 643 -387q0 -242 -355 -360l347 -480q67 -94 105 -132q39 -39 77 -46zM657 -434q-2 36 -35 84q-34 49 -34 103q0 60 44 100.5t104 40.5q76 0 115.5 -49t39.5 -127q0 -48 -32.5 -101t-83.5 -98t-100 -79t-95 -58l-7 4q84 106 84 180z" />
    <glyph glyph-name="rcommaaccent" unicode="&#x157;" horiz-adv-x="917" 
d="M918 885q0 -77 -53.5 -128.5t-130.5 -51.5t-128 51t-51 128t51 131t128 54q76 0 130 -53.5t54 -130.5zM666 8v-8h-629v8q73 41 92 96q20 56 21 175v411q0 137 -25 188q-25 52 -109 91v8q203 18 496 92h8v-790q0 -118 26 -173t120 -98zM272 -434q0 35 -34 84
q-33 48 -35 103q0 60 44.5 100.5t104.5 40.5q75 0 114.5 -49t39.5 -127q0 -48 -32.5 -101t-83.5 -98t-100 -79t-95 -58l-7 4q84 106 84 180z" />
    <glyph glyph-name="Rcaron" unicode="&#x158;" horiz-adv-x="1466" 
d="M1020 1782l-191 -250h-198l-187 250h21l266 -107l268 107h21zM563 1337v-651h64q116 0 199 92q81 90 83 240q0 148 -75 234q-76 85 -187 85h-84zM1485 8v-8h-375q-106 0 -144 30q-38 31 -128 183l-234 405h-41v-331q0 -117 26.5 -176t119.5 -103v-8h-680v8q94 42 119 100
q26 60 26 179v848q0 118 -26 173q-25 53 -119 97v8h639q643 0 643 -387q0 -242 -355 -360l347 -480q67 -94 105 -132q39 -39 77 -46z" />
    <glyph glyph-name="rcaron" unicode="&#x159;" horiz-adv-x="917" 
d="M745 1413l-190 -250h-199l-186 250h20l267 -106l268 106h20zM918 885q0 -77 -53.5 -128.5t-130.5 -51.5t-128 51t-51 128t51 131t128 54q76 0 130 -53.5t54 -130.5zM666 8v-8h-629v8q73 41 92 96q20 56 21 175v411q0 137 -25 188q-25 52 -109 91v8q203 18 496 92h8v-790
q0 -118 26 -173t120 -98z" />
    <glyph glyph-name="Sacute" unicode="&#x15a;" horiz-adv-x="1171" 
d="M401 1532h-22q114 142 149 250h263q-194 -173 -390 -250zM92 63v404h10q132 -205 236 -315q102 -108 210 -107q106 0 174.5 55.5t68.5 159.5q-1 44 -32.5 90t-69 77t-81.5 57q-194 114 -336 222q-81 61 -131.5 145.5t-50.5 178.5q0 78 32 146.5t85 116t121 82t141.5 51
t146.5 16.5q206 0 398 -80v-354h-8q-104 170 -198 264t-196 94q-92 0 -151 -47t-59 -137q0 -80 72 -147q74 -68 176 -124q115 -64 206 -121q109 -68 179.5 -163t70.5 -207q0 -110 -46 -198t-123.5 -142t-174 -82.5t-201.5 -28.5q-122 2 -250.5 25t-218.5 69z" />
    <glyph glyph-name="sacute" unicode="&#x15b;" horiz-adv-x="854" 
d="M244 1163h-23q113 141 150 250h262q-192 -173 -389 -250zM553 192q0 35 -16.5 65t-47 52.5t-58 37.5t-63.5 29q-82 32 -154 66q-87 41 -136 112.5t-49 164.5q0 102 63.5 183.5t157 123.5t193.5 43q161 0 307 -51v-285h-9q-111 142 -176 202q-68 60 -134 60
q-62 -2 -107 -31.5t-45 -86.5q0 -95 195 -174q44 -18 74.5 -31.5t71 -35.5t68 -42t57 -48.5t46.5 -59t28.5 -70t11.5 -84.5q0 -85 -41.5 -154.5t-108 -112t-145.5 -65t-159 -22.5q-181 0 -334 47l-14 346h10q196 -318 350 -320q69 0 116.5 37t47.5 104z" />
    <glyph glyph-name="Scircumflex" unicode="&#x15c;" horiz-adv-x="1171" 
d="M682 1782l190 -250h-20l-268 106l-267 -106h-20l186 250h199zM92 63v404h10q132 -205 236 -315q102 -108 210 -107q106 0 174.5 55.5t68.5 159.5q-1 44 -32.5 90t-69 77t-81.5 57q-194 114 -336 222q-81 61 -131.5 145.5t-50.5 178.5q0 78 32 146.5t85 116t121 82
t141.5 51t146.5 16.5q206 0 398 -80v-354h-8q-104 170 -198 264t-196 94q-92 0 -151 -47t-59 -137q0 -80 72 -147q74 -68 176 -124q115 -64 206 -121q109 -68 179.5 -163t70.5 -207q0 -110 -46 -198t-123.5 -142t-174 -82.5t-201.5 -28.5q-122 2 -250.5 25t-218.5 69z" />
    <glyph glyph-name="scircumflex" unicode="&#x15d;" horiz-adv-x="854" 
d="M524 1413l191 -250h-21l-268 107l-266 -107h-21l187 250h198zM553 192q0 35 -16.5 65t-47 52.5t-58 37.5t-63.5 29q-82 32 -154 66q-87 41 -136 112.5t-49 164.5q0 102 63.5 183.5t157 123.5t193.5 43q161 0 307 -51v-285h-9q-111 142 -176 202q-68 60 -134 60
q-62 -2 -107 -31.5t-45 -86.5q0 -95 195 -174q44 -18 74.5 -31.5t71 -35.5t68 -42t57 -48.5t46.5 -59t28.5 -70t11.5 -84.5q0 -85 -41.5 -154.5t-108 -112t-145.5 -65t-159 -22.5q-181 0 -334 47l-14 346h10q196 -318 350 -320q69 0 116.5 37t47.5 104z" />
    <glyph glyph-name="Scedilla" unicode="&#x15e;" horiz-adv-x="1171" 
d="M575 -31h-14q-117 0 -248.5 24t-220.5 70v404h10q132 -205 236 -315q102 -108 202 -107q100 -1 166 63q64 64 64 151t-70 153q-71 66 -170 124q-98 57 -200 124q-106 69 -173 163.5t-67 206.5q0 78 32 146.5t85 116t121 82t141.5 51t146.5 16.5q206 0 398 -80v-354h-8
q-104 170 -198 264t-198 94q-73 0 -127.5 -61t-54.5 -135q0 -133 178 -230q178 -99 324 -204q79 -56 127.5 -140t48.5 -176q0 -99 -37 -180.5t-102 -136t-148.5 -87.5t-179.5 -43l-49 -77q71 -7 133 -50q61 -42 61 -118q0 -43 -22 -75t-58 -48.5t-74 -24.5t-78 -8
q-94 0 -167 53l25 23q47 -20 103 -20q49 0 73.5 18.5t23.5 56.5q0 46 -52 78.5t-101 34.5z" />
    <glyph glyph-name="scedilla" unicode="&#x15f;" horiz-adv-x="854" 
d="M410 -294q0 43 -54 76t-100 34l125 161h-2q-185 0 -336 48l-14 346h10q196 -318 344 -320q69 0 113.5 38.5t44.5 106.5q1 65 -53 109q-53 43 -129 73q-86 34 -149 64q-85 39 -133 112t-48 165q0 102 63.5 183.5t157 123.5t193.5 43q161 0 307 -51v-285h-9
q-113 144 -174 203q-63 59 -127 59q-64 -2 -103.5 -33t-39.5 -92t55 -101q58 -44 134 -74q62 -25 104 -44.5t91.5 -52t79 -67.5t50 -86.5t20.5 -112.5q0 -77 -33 -141t-89 -106.5t-123.5 -68.5t-141.5 -34l-55 -86q77 -8 136 -52t59 -116q0 -56 -39.5 -93t-89 -50
t-104.5 -13q-94 0 -167 53l25 23q48 -20 101 -20q100 0 100 78z" />
    <glyph glyph-name="Scaron" unicode="&#x160;" horiz-adv-x="1171" 
d="M872 1782l-190 -250h-199l-186 250h20l267 -107l268 107h20zM92 63v404h10q132 -205 236 -315q102 -108 210 -107q106 0 174.5 55.5t68.5 159.5q-1 44 -32.5 90t-69 77t-81.5 57q-194 114 -336 222q-81 61 -131.5 145.5t-50.5 178.5q0 78 32 146.5t85 116t121 82
t141.5 51t146.5 16.5q206 0 398 -80v-354h-8q-104 170 -198 264t-196 94q-92 0 -151 -47t-59 -137q0 -80 72 -147q74 -68 176 -124q115 -64 206 -121q109 -68 179.5 -163t70.5 -207q0 -110 -46 -198t-123.5 -142t-174 -82.5t-201.5 -28.5q-122 2 -250.5 25t-218.5 69z" />
    <glyph glyph-name="scaron" unicode="&#x161;" horiz-adv-x="854" 
d="M715 1413l-191 -250h-198l-187 250h21l266 -106l268 106h21zM553 192q0 35 -16.5 65t-47 52.5t-58 37.5t-63.5 29q-82 32 -154 66q-87 41 -136 112.5t-49 164.5q0 102 63.5 183.5t157 123.5t193.5 43q161 0 307 -51v-285h-9q-111 142 -176 202q-68 60 -134 60
q-62 -2 -107 -31.5t-45 -86.5q0 -95 195 -174q44 -18 74.5 -31.5t71 -35.5t68 -42t57 -48.5t46.5 -59t28.5 -70t11.5 -84.5q0 -85 -41.5 -154.5t-108 -112t-145.5 -65t-159 -22.5q-181 0 -334 47l-14 346h10q196 -318 350 -320q69 0 116.5 37t47.5 104z" />
    <glyph glyph-name="Tcommaaccent" unicode="&#x162;" horiz-adv-x="1413" 
d="M1047 8v-8h-680v8q94 42 119 100q26 60 26 179v1056h-35q-117 0 -193 -61t-235 -268h-10l24 399h1287l24 -399h-10q-156 203 -235 267q-77 62 -193 62h-35v-1056q0 -117 26.5 -176t119.5 -103zM631 -434q0 34 -35 84t-35 103q0 60 44.5 100.5t104.5 40.5q75 0 114.5 -49
t39.5 -127q0 -48 -32.5 -101t-83.5 -98t-100 -79t-95 -58l-6 4q84 106 84 180z" />
    <glyph glyph-name="tcommaaccent" unicode="&#x163;" horiz-adv-x="755" 
d="M453 -16q-324 0 -324 321v621h-123v14q125 53 250 159.5t225 229.5h19v-285h254v-118h-254v-619q0 -76 41.5 -121t116.5 -45q48 0 108 21l8 -10q-142 -168 -321 -168zM303 -434q0 34 -35 84t-35 103q0 60 44 100.5t105 40.5q76 0 115.5 -49t39.5 -127q1 -48 -32 -101
t-84.5 -98t-100.5 -79t-95 -58l-6 4q84 106 84 180z" />
    <glyph glyph-name="Tcaron" unicode="&#x164;" horiz-adv-x="1413" 
d="M993 1782l-190 -250h-199l-186 250h20l267 -107l268 107h20zM1047 8v-8h-680v8q94 42 119 100q26 60 26 179v1056h-35q-117 0 -193 -61t-235 -268h-10l24 399h1287l24 -399h-10q-156 203 -235 267q-77 62 -193 62h-35v-1056q0 -117 26.5 -176t119.5 -103z" />
    <glyph glyph-name="tcaron" unicode="&#x165;" horiz-adv-x="755" 
d="M614 1314q-61 125 -61 177q0 54 41.5 94.5t95.5 40.5q55 0 95 -40t40 -95q-2 -52 -61 -177t-64 -214h-20q-4 88 -66 214zM453 -16q-324 0 -324 321v621h-123v14q125 53 250 159.5t225 229.5h19v-285h254v-118h-254v-619q0 -76 41.5 -121t116.5 -45q48 0 108 21l8 -10
q-142 -168 -321 -168z" />
    <glyph glyph-name="Tbar" unicode="&#x166;" horiz-adv-x="1413" 
d="M1047 8v-8h-680v8q94 42 119 100q26 60 26 179v391h-184v92h184v573h-35q-117 0 -193 -61t-235 -268h-10l24 399h1287l24 -399h-10q-156 203 -235 267q-77 62 -193 62h-35v-573h184v-92h-184v-391q0 -117 26.5 -176t119.5 -103z" />
    <glyph glyph-name="tbar" unicode="&#x167;" horiz-adv-x="755" 
d="M459 -16q-330 0 -330 321v209h-131v123h131v289h-143v14q126 54 264 164t231 225h19v-285h239v-118h-239v-289h235v-123h-235v-207q0 -76 43.5 -121t119.5 -45q49 0 109 21l8 -10q-142 -168 -321 -168z" />
    <glyph glyph-name="Utilde" unicode="&#x168;" horiz-adv-x="1634" 
d="M629 1606q-65 0 -109 -62l-10 4q10 35 25.5 71t39 74.5t56.5 62.5t69 24q56 0 164 -28t140 -28q65 2 108 62l10 -4q-20 -63 -37 -99t-53 -78q-46 -55 -101 -55q-58 0 -169 28t-133 28zM1276 403v527q0 270 -56 356q-30 46 -60 68.5t-91 50.5v8h524v-8q-61 -28 -91 -50.5
t-60 -68.5q-55 -86 -56 -356v-533q0 -428 -569 -428q-95 0 -178.5 9.5t-171.5 38.5t-150.5 75t-102.5 124t-40 181v738q0 118 -26 173q-25 53 -119 97v8h680v-8q-95 -44 -120 -97q-26 -55 -26 -173v-766q0 -75 27.5 -130t76 -86t108 -46t131.5 -15q80 0 145 17t116.5 53
t80 97t28.5 144z" />
    <glyph glyph-name="utilde" unicode="&#x169;" horiz-adv-x="1282" 
d="M755 1182q-58 0 -169 28q-113 29 -133 27q-66 0 -109 -61l-10 4q18 61 36 98t54 78q46 54 100 55q56 0 164 -28q105 -27 137 -27q67 0 111 61l10 -4q-20 -63 -37 -99t-53 -78q-46 -54 -101 -54zM791 -25h-9v156q-136 -156 -329 -156q-127 0 -215 81t-88 257v377
q0 137 -25 188q-25 52 -109 91v8q203 18 496 92h8v-756q0 -85 52 -128q53 -44 114 -44q62 0 96 9v540q0 136 -24 188q-25 52 -109 91v8q203 18 496 92h8v-715q2 -136 25 -187q24 -52 108 -91v-8q-207 -18 -495 -93z" />
    <glyph glyph-name="Umacron" unicode="&#x16a;" horiz-adv-x="1634" 
d="M1094 1720v-164h-553v164h553zM1276 403v527q0 270 -56 356q-30 46 -60 68.5t-91 50.5v8h524v-8q-61 -28 -91 -50.5t-60 -68.5q-55 -86 -56 -356v-533q0 -428 -569 -428q-95 0 -178.5 9.5t-171.5 38.5t-150.5 75t-102.5 124t-40 181v738q0 118 -26 173q-25 53 -119 97v8
h680v-8q-95 -44 -120 -97q-26 -55 -26 -173v-766q0 -75 27.5 -130t76 -86t108 -46t131.5 -15q80 0 145 17t116.5 53t80 97t28.5 144z" />
    <glyph glyph-name="umacron" unicode="&#x16b;" horiz-adv-x="1282" 
d="M918 1352v-164h-553v164h553zM791 -25h-9v156q-136 -156 -329 -156q-127 0 -215 81t-88 257v377q0 137 -25 188q-25 52 -109 91v8q203 18 496 92h8v-756q0 -85 52 -128q53 -44 114 -44q62 0 96 9v540q0 136 -24 188q-25 52 -109 91v8q203 18 496 92h8v-715
q2 -136 25 -187q24 -52 108 -91v-8q-207 -18 -495 -93z" />
    <glyph glyph-name="Ubreve" unicode="&#x16c;" horiz-adv-x="1634" 
d="M817 1528q-103 0 -173 86t-87 196h8q49 -123 252 -123t252 123h8q-17 -110 -87 -196t-173 -86zM1276 403v527q0 270 -56 356q-30 46 -60 68.5t-91 50.5v8h524v-8q-61 -28 -91 -50.5t-60 -68.5q-55 -86 -56 -356v-533q0 -428 -569 -428q-95 0 -178.5 9.5t-171.5 38.5
t-150.5 75t-102.5 124t-40 181v738q0 118 -26 173q-25 53 -119 97v8h680v-8q-95 -44 -120 -97q-26 -55 -26 -173v-766q0 -75 27.5 -130t76 -86t108 -46t131.5 -15q80 0 145 17t116.5 53t80 97t28.5 144z" />
    <glyph glyph-name="ubreve" unicode="&#x16d;" horiz-adv-x="1282" 
d="M641 1159q-71 0 -128.5 44t-89 106.5t-42.5 132.5h8q49 -123 252 -123t252 123h8q-11 -70 -42.5 -132.5t-89 -106.5t-128.5 -44zM791 -25h-9v156q-136 -156 -329 -156q-127 0 -215 81t-88 257v377q0 137 -25 188q-25 52 -109 91v8q203 18 496 92h8v-756q0 -85 52 -128
q53 -44 114 -44q62 0 96 9v540q0 136 -24 188q-25 52 -109 91v8q203 18 496 92h8v-715q2 -136 25 -187q24 -52 108 -91v-8q-207 -18 -495 -93z" />
    <glyph glyph-name="Uring" unicode="&#x16e;" horiz-adv-x="1634" 
d="M817 1612q49 0 84 37t35 86t-35 86t-84 37t-84 -37t-35 -86t35 -86t84 -37zM1030 1735q0 -86 -63 -147.5t-149 -61.5q-87 0 -150.5 61t-63.5 147t63.5 148t149.5 62t149.5 -61.5t63.5 -147.5zM1276 403v527q0 270 -56 356q-30 46 -60 68.5t-91 50.5v8h524v-8
q-61 -28 -91 -50.5t-60 -68.5q-55 -86 -56 -356v-533q0 -428 -569 -428q-95 0 -178.5 9.5t-171.5 38.5t-150.5 75t-102.5 124t-40 181v738q0 118 -26 173q-25 53 -119 97v8h680v-8q-95 -44 -120 -97q-26 -55 -26 -173v-766q0 -75 27.5 -130t76 -86t108 -46t131.5 -15
q80 0 145 17t116.5 53t80 97t28.5 144z" />
    <glyph glyph-name="uring" unicode="&#x16f;" horiz-adv-x="1282" 
d="M641 1243q49 0 84 37t35 86t-35 86t-84 37t-84 -37t-35 -86t35 -86t84 -37zM854 1366q0 -86 -62.5 -147t-149.5 -61q-88 0 -150.5 60t-63.5 148q0 86 63.5 147t149.5 61q87 0 150 -60.5t63 -147.5zM791 -25h-9v156q-136 -156 -329 -156q-127 0 -215 81t-88 257v377
q0 137 -25 188q-25 52 -109 91v8q203 18 496 92h8v-756q0 -85 52 -128q53 -44 114 -44q62 0 96 9v540q0 136 -24 188q-25 52 -109 91v8q203 18 496 92h8v-715q2 -136 25 -187q24 -52 108 -91v-8q-207 -18 -495 -93z" />
    <glyph glyph-name="Uhungarumlaut" unicode="&#x170;" horiz-adv-x="1634" 
d="M1276 403v527q0 270 -56 356q-30 46 -60 68.5t-91 50.5v8h524v-8q-61 -28 -91 -50.5t-60 -68.5q-55 -86 -56 -356v-533q0 -428 -569 -428q-95 0 -178.5 9.5t-171.5 38.5t-150.5 75t-102.5 124t-40 181v738q0 118 -26 173q-25 53 -119 97v8h680v-8q-95 -44 -120 -97
q-26 -55 -26 -173v-766q0 -75 27.5 -130t76 -86t108 -46t131.5 -15q80 0 145 17t116.5 53t80 97t28.5 144zM821 1532h-18q61 110 67 250h203q-64 -133 -252 -250zM578 1532h-19q60 109 68 250h202q-62 -132 -251 -250z" />
    <glyph glyph-name="uhungarumlaut" unicode="&#x171;" horiz-adv-x="1282" 
d="M791 -25h-9v156q-136 -156 -329 -156q-127 0 -215 81t-88 257v377q0 137 -25 188q-25 52 -109 91v8q203 18 496 92h8v-756q0 -85 52 -128q53 -44 114 -44q62 0 96 9v540q0 136 -24 188q-25 52 -109 91v8q203 18 496 92h8v-715q2 -136 25 -187q24 -52 108 -91v-8
q-207 -18 -495 -93zM645 1163h-18q61 110 67 250h203q-64 -133 -252 -250zM401 1163h-18q60 109 68 250h202q-64 -133 -252 -250z" />
    <glyph glyph-name="Uogonek" unicode="&#x172;" horiz-adv-x="1634" 
d="M834 -428q-58 0 -101 39.5t-43 97.5q0 120 248 266q-57 -6 -121 -6q-95 0 -178.5 9.5t-171.5 38.5t-150.5 75t-102.5 124t-40 181v738q0 118 -26 173q-25 53 -119 97v8h680v-8q-95 -44 -120 -97q-26 -55 -26 -173v-766q0 -75 27.5 -130t76 -86t108 -46t131.5 -15
q80 0 145 17t116.5 53t80 97t28.5 144v527q0 270 -56 356q-30 46 -60 68.5t-91 50.5v8h524v-8q-61 -28 -91 -50.5t-60 -68.5q-55 -86 -56 -356v-533q0 -360 -407 -417q-86 -119 -86 -234q0 -30 23.5 -52.5t53.5 -22.5q14 0 38 7v-8q-23 -43 -73.5 -70.5t-100.5 -27.5z" />
    <glyph glyph-name="uogonek" unicode="&#x173;" horiz-adv-x="1282" 
d="M1113 -428q-59 0 -101 39t-43 98q0 46 32.5 102t81 104.5t99 88t92.5 62.5q-194 -18 -483 -91h-9v156q-136 -156 -329 -156q-127 0 -215 81t-88 257v377q0 137 -25 188q-25 52 -109 91v8q203 18 496 92h8v-756q0 -85 52 -128q53 -44 114 -44q62 0 96 9v540q0 136 -24 188
q-25 52 -109 91v8q203 18 496 92h8v-715q0 -136 25 -187q25 -52 108 -91v-8q-42 -53 -78.5 -147.5t-36.5 -156.5q0 -39 20 -66t57 -27q14 0 38 7v-8q-22 -42 -73 -70t-100 -28z" />
    <glyph glyph-name="Wcircumflex" unicode="&#x174;" horiz-adv-x="2355" 
d="M1235 1782l190 -250h-20l-268 106l-267 -106h-20l186 250h199zM-8 1405v8h641v-8q-82 -10 -99 -67t19 -214l227 -929l211 667q162 516 -133 543v8h653v-8q-82 -10 -99 -67q-17 -58 20 -214l227 -929l211 667q162 516 -133 543v8h610v-8q-45 -5 -82 -30t-78 -67
q-109 -110 -221 -458l-276 -850h-324l-258 930l-301 -930h-320l-294 1067q-53 189 -93 256q-41 69 -108 82z" />
    <glyph glyph-name="wcircumflex" unicode="&#x175;" horiz-adv-x="1816" 
d="M1006 1413l190 -250h-20l-269 107l-266 -107h-20l186 250h199zM2 1036v8h641v-8q-83 -10 -99 -66q-17 -57 19 -214l127 -529l82 267q67 211 80 262q-44 150 -80 210q-34 58 -82 70v8h600v-8q-82 -10 -99 -66q-17 -57 19 -214l127 -529l82 267q147 525 -51 542v8h447v-8
q-62 -7 -133 -132q-69 -122 -166 -423l-156 -481h-287l-170 582l-190 -582h-307l-203 698q-55 190 -94 257t-107 81z" />
    <glyph glyph-name="Ycircumflex" unicode="&#x176;" horiz-adv-x="1441" 
d="M817 1782l191 -250h-21l-268 106l-266 -106h-21l186 250h199zM1053 8v-8h-680v8q92 42 119 100q27 60 26 179v340l-229 424q-76 142 -132 213t-165 141v8h743v-8q-71 -35 -72 -35q-20 -11 -45 -37q-26 -27 -24 -59q11 -92 80 -223l174 -336l153 334q86 193 47 263
q-24 39 -58.5 58.5t-90.5 34.5v8h551v-8q-100 -38 -169 -110q-64 -67 -161 -253l-213 -415v-340q0 -117 26.5 -176t119.5 -103z" />
    <glyph glyph-name="ycircumflex" unicode="&#x177;" 
d="M698 1413l191 -250h-21l-268 107l-266 -107h-21l187 250h198zM2 1036v8h641v-8q-83 -10 -103 -66q-19 -55 23 -214l166 -541l84 279q147 525 -51 542v8h446v-8q-67 -8 -134 -132q-68 -124 -165 -423l-182 -565q-16 -51 -30.5 -88.5t-41.5 -90t-55.5 -85.5t-71.5 -57.5
t-92 -24.5q-96 0 -152 48t-56 116t44 111.5t112 43.5q66 0 114.5 -43t52.5 -108q38 51 94 194l25 68h-224l-243 698q-83 237 -115 282t-86 56z" />
    <glyph glyph-name="Ydieresis" unicode="&#x178;" horiz-adv-x="1441" 
d="M379 1656q0 66 45.5 110t111.5 44t110 -44t44 -110q0 -65 -44.5 -110t-109.5 -45q-66 0 -111.5 44.5t-45.5 110.5zM750 1656q0 66 45 110t111 44t110.5 -44t44.5 -110q0 -65 -45 -110t-110 -45t-110.5 45t-45.5 110zM1053 8v-8h-680v8q92 42 119 100q27 60 26 179v340
l-229 424q-76 142 -132 213t-165 141v8h743v-8q-71 -35 -72 -35q-20 -11 -45 -37q-26 -27 -24 -59q11 -92 80 -223l174 -336l153 334q86 193 47 263q-24 39 -58.5 58.5t-90.5 34.5v8h551v-8q-100 -38 -169 -110q-64 -67 -161 -253l-213 -415v-340q0 -117 26.5 -176
t119.5 -103z" />
    <glyph glyph-name="Zacute" unicode="&#x179;" horiz-adv-x="1261" 
d="M446 1532h-22q114 142 149 250h263q-194 -173 -390 -250zM1192 0h-1151v8l723 1329h-209q-120 0 -209 -62q-86 -59 -268 -251h-8l41 389h1101v-8l-714 -1329h229q75 0 113 6q50 8 107.5 51t104.5 94q55 61 171 203h10z" />
    <glyph glyph-name="zacute" unicode="&#x17a;" horiz-adv-x="1097" 
d="M365 1163h-23q113 141 150 250h262q-192 -173 -389 -250zM1008 0h-975v10l571 957h-182q-72 0 -172 -82l-178 -148h-11l41 307h947v-12l-562 -954h232q27 0 93 51q59 45 226 197h11z" />
    <glyph glyph-name="Zdotaccent" unicode="&#x17b;" horiz-adv-x="1261" 
d="M630 1505q-69 0 -118 49.5t-49 118.5q0 70 48 118t118 48q69 0 118.5 -48.5t49.5 -117.5t-49 -118.5t-118 -49.5zM1192 0h-1151v8l723 1329h-209q-120 0 -209 -62q-86 -59 -268 -251h-8l41 389h1101v-8l-714 -1329h229q75 0 113 6q50 8 107.5 51t104.5 94q55 61 171 203
h10z" />
    <glyph glyph-name="zdotaccent" unicode="&#x17c;" horiz-adv-x="1097" 
d="M548 1137q-69 0 -118 49.5t-49 118.5q0 70 48 117.5t118 47.5q69 0 118.5 -48.5t49.5 -117.5q0 -68 -49.5 -117.5t-117.5 -49.5zM1008 0h-975v10l571 957h-182q-72 0 -172 -82l-178 -148h-11l41 307h947v-12l-562 -954h232q27 0 93 51q59 45 226 197h11z" />
    <glyph glyph-name="Zcaron" unicode="&#x17d;" horiz-adv-x="1261" 
d="M918 1782l-191 -250h-199l-186 250h20l267 -107l268 107h21zM1192 0h-1151v8l723 1329h-209q-120 0 -209 -62q-86 -59 -268 -251h-8l41 389h1101v-8l-714 -1329h229q75 0 113 6q50 8 107.5 51t104.5 94q55 61 171 203h10z" />
    <glyph glyph-name="zcaron" unicode="&#x17e;" horiz-adv-x="1097" 
d="M836 1413l-191 -250h-199l-186 250h21l266 -106l268 106h21zM1008 0h-975v10l571 957h-182q-72 0 -172 -82l-178 -148h-11l41 307h947v-12l-562 -954h232q27 0 93 51q59 45 226 197h11z" />
    <glyph glyph-name="longs" unicode="&#x17f;" horiz-adv-x="700" 
d="M664 8v-8h-637v8q73 41 92 96q20 57 20 175v647h-162l3 8l159 110v43q0 134 82 225q145 163 442 163q126 0 204 -57q79 -58 79 -141q0 -78 -46.5 -129.5t-123.5 -51.5q-68 0 -117 42t-49 109q0 60 34.5 107t90.5 71q-24 5 -51 7q-61 0 -100 -37.5t-52.5 -87t-13.5 -109.5
v-919q0 -118 26 -173t120 -98z" />
    <glyph glyph-name="uni0180" unicode="&#x180;" horiz-adv-x="1249" 
d="M600 45q102 0 163 123q60 121 60 326q0 45 -3 85.5t-11 90.5t-25 89.5t-41.5 74.5t-64 54t-89.5 19q-43 0 -89 -24v-813q44 -25 100 -25zM121 61v1035q0 39 -2 65h-94v88h84q-13 47 -41.5 74.5t-79.5 50.5v8q219 20 504 93h8v-226h303v-88h-303v-256q137 164 318 164
q103 0 179.5 -42t119.5 -114t63 -157t20 -183q0 -168 -77 -299t-224 -213q-151 -85 -317 -86q-101 1 -232.5 26t-228.5 60z" />
    <glyph glyph-name="uni0181" unicode="&#x181;" horiz-adv-x="1632" 
d="M827 1343v-579h33q123 0 195.5 83.5t72.5 208.5q0 129 -76 208t-173 79h-52zM827 692v-620h39q130 0 208.5 90t78.5 223q0 132 -78 219.5t-209 87.5h-39zM877 0h-603v8q92 42 119 100q27 59 27 179v850q0 127 -46.5 180t-170.5 53q-23 0 -51 -6q57 -25 90.5 -71.5
t33.5 -106.5q0 -68 -48.5 -110t-117.5 -42q-77 0 -123 51.5t-46 129.5q0 83 78 141q80 57 208 57h682q315 0 468 -76q155 -77 155 -260q0 -68 -37 -125.5t-96.5 -95t-123.5 -61t-128 -33.5v-10q175 -14 305 -108q131 -95 131 -228q1 -208 -176 -312t-530 -104z" />
    <glyph glyph-name="uni0182" unicode="&#x182;" horiz-adv-x="1366" 
d="M29 1413h1089v-389h-14q-79 120 -100 150q-34 48 -80.5 92.5t-89.5 57.5t-115 13h-156v-512h172q575 0 576 -376q-1 -108 -33.5 -188.5t-85.5 -129.5t-132 -79t-161.5 -41t-185.5 -11h-684v8q94 44 119 97q26 55 26 174v847q0 120 -27 178t-118 101v8zM563 743v-667h92
q261 0 263 344q0 96 -26.5 166t-89 113t-159.5 44h-80z" />
    <glyph glyph-name="uni0183" unicode="&#x183;" horiz-adv-x="1249" 
d="M600 45q102 0 163 114q60 113 60 315q0 392 -234 392q-43 0 -89 -24v-772q44 -25 100 -25zM121 61v1065q0 120 -27 178q-26 57 -119 101v8h1080v-348h-15q-116 174 -182 223q-67 49 -203 49h-155v-473q137 164 319 164q102 0 178 -38t119 -106t63.5 -150.5t20.5 -180.5
q0 -112 -37.5 -215t-112.5 -176q-194 -182 -468 -187q-101 1 -232.5 26t-228.5 60z" />
    <glyph glyph-name="uni0184" unicode="&#x184;" horiz-adv-x="1366" 
d="M713 0h-684v8q94 44 119 97q26 55 26 174l-2 706l-203 199v37l555 221h39v-617h172q575 0 576 -376q0 -108 -32.5 -188.5t-85.5 -129.5t-132.5 -79t-162 -41t-185.5 -11zM563 743v-667h92q261 0 263 344q0 96 -26.5 166t-89 113t-159.5 44h-80z" />
    <glyph glyph-name="uni0185" unicode="&#x185;" horiz-adv-x="1249" 
d="M600 45q102 0 163 123q60 121 60 326q0 45 -3 85.5t-11 90.5t-25 89.5t-41.5 74.5t-64 54t-89.5 19q-43 0 -89 -24v-813q44 -25 100 -25zM461 1475h39v-570q137 164 318 164q103 0 179.5 -42t119.5 -114t63 -157t20 -183q0 -168 -77 -299t-224 -213q-151 -85 -317 -86
q-101 1 -232.5 26t-228.5 60v957l-203 199v36z" />
    <glyph glyph-name="uni0186" unicode="&#x186;" horiz-adv-x="1472" 
d="M858 225q121 178 121 495q0 316 -111 481t-297 165q-242 0 -446 -356h-8l14 346q204 86 474 86q271 0 518 -157q135 -86 206.5 -230.5t71.5 -310.5q0 -169 -68 -315t-182 -245t-264.5 -156.5t-313.5 -58.5q-270 0 -456 92l-35 369h12q37 -66 81.5 -127.5t103 -122
t130 -97.5t142.5 -38q185 0 307 180z" />
    <glyph glyph-name="uni0187" unicode="&#x187;" horiz-adv-x="1472" 
d="M897 -31q-161 0 -309 49.5t-264 139.5t-185 227t-69 301q0 435 390 642q213 114 445 114q128 0 244 -25q27 287 303 287q113 0 178 -49q66 -49 66 -121q0 -68 -39.5 -112t-106.5 -44q-63 0 -102 37.5t-39 100.5q0 97 107 147q-33 4 -46 4q-68 0 -92 -50q-24 -49 -24 -157
v-450h-8q-206 356 -447 356q-186 0 -297 -165q-110 -166 -110 -480q0 -315 120 -496q121 -180 308 -180q57 1 115.5 26.5t106.5 64.5t94 91.5t79 102t61 100.5h13l-35 -369q-186 -92 -457 -92z" />
    <glyph glyph-name="uni0188" unicode="&#x188;" horiz-adv-x="931" 
d="M516 -23q-116 0 -208.5 42.5t-151.5 116.5t-90 171t-31 210q0 154 64.5 279t185 199t274.5 74q59 0 113 -12q8 246 228 247q57 0 108.5 -15.5t91.5 -55.5t41 -99q0 -67 -40 -111t-107 -44q-62 0 -101 37.5t-39 99.5q0 98 107 148q-33 4 -46 4q-69 0 -93 -50
q-24 -51 -23 -157v-60q92 -71 92 -162q0 -86 -47 -143t-132 -57q-73 0 -129.5 46t-56.5 117q0 63 33 122t88 84q-22 7 -46 7q-73 0 -140 -73q-88 -95 -88 -309t91 -324q90 -111 210 -111t233 81l8 -7q-123 -295 -399 -295z" />
    <glyph glyph-name="uni0189" unicode="&#x189;" horiz-adv-x="1644" 
d="M563 678v-602h148q98 0 176 39.5t126.5 103t80.5 149t45 170t14 174.5q0 281 -121 453t-297 172h-172v-567h180v-92h-180zM758 0h-729v8q94 42 119 100q26 60 26 179v391h-106v92h106v365q0 118 -26 173q-25 53 -119 97v8h749q336 0 557 -170t221 -485q0 -237 -102 -410
t-281 -260.5t-415 -87.5z" />
    <glyph glyph-name="uni018A" unicode="&#x18a;" horiz-adv-x="1890" 
d="M1004 0h-730v8q92 42 119 100q27 59 27 179v850q0 127 -46.5 180t-170.5 53q-23 0 -51 -6q57 -25 90.5 -71.5t33.5 -106.5q0 -68 -48.5 -110t-117.5 -42q-77 0 -123 51.5t-46 129.5q0 83 78 141q80 57 208 57h797q336 0 557 -170t221 -485q0 -237 -102 -410t-281 -260.5
t-415 -87.5zM809 1337v-1261h147q98 0 176.5 39.5t127 102.5t81 148.5t45.5 170.5t13 175q0 281 -121 453t-297 172h-172z" />
    <glyph glyph-name="uni018B" unicode="&#x18b;" horiz-adv-x="1366" 
d="M1337 8v-8h-684q-331 0 -464 96q-134 96 -134 304q0 96 33 171.5t87.5 122.5t131 77.5t155.5 42.5t169 11h172v512h-156q-73 0 -117.5 -14t-90.5 -60q-48 -49 -77 -89q-40 -57 -100 -150h-14v389h1089v-8q-94 -44 -119 -100q-26 -58 -26 -179v-847q0 -118 26 -173
q26 -54 119 -98zM711 76h92v667h-80q-135 0 -205 -91q-70 -92 -69 -246q0 -330 262 -330z" />
    <glyph glyph-name="uni018C" unicode="&#x18c;" horiz-adv-x="1243" 
d="M627 973q-49 0 -87 -31.5t-60 -78t-36 -106t-19 -108t-5 -90.5q0 -418 248 -418q39 2 75 19v743q-43 70 -116 70zM752 -25h-9v162q-131 -162 -300 -162q-168 0 -281 128q-111 126 -113 363q2 236 149 398q149 164 398 164q57 0 147 -12v321h-155q-136 0 -203 -49
q-69 -51 -182 -223h-15v348h1072v-8q-92 -44 -119 -100q-27 -57 -27 -179v-772q0 -134 24 -187q24 -52 109 -91v-8q-207 -18 -495 -93z" />
    <glyph glyph-name="uni018D" unicode="&#x18d;" horiz-adv-x="1243" 
d="M625 1006q-93 0 -130 -115q-38 -117 -38 -351q0 -236 207 -407q119 103 118 412q0 461 -157 461zM614 -430q-39 0 -84 3t-108 14t-111.5 29t-82.5 51t-33 77q0 52 29.5 84.5t81.5 32.5q51 0 100 -34t80 -82q32 -48 75.5 -82t92.5 -34q48 0 78 23.5t30 69.5q0 27 -19 55.5
t-49.5 52t-57.5 40t-54 29.5q-177 82 -334 210q-89 71 -134.5 183t-45.5 234q0 258 169 400q168 141 382 143q213 0 379 -117q89 -62 132.5 -163.5t45.5 -219.5q0 -180 -132 -306t-319 -177q29 -20 81 -54q157 -103 187 -160q13 -28 15 -60q0 -57 -26.5 -101.5t-67 -70
t-95.5 -42t-104.5 -22.5t-100.5 -6z" />
    <glyph glyph-name="uni018E" unicode="&#x18e;" horiz-adv-x="1277" 
d="M1249 8v-8h-1128l-41 424h14q50 -58 116 -140q86 -107 128 -134q71 -45 114 -59.5t117 -14.5h146v612h-94q-121 0 -195 -36t-139 -134h-15v424h15q64 -101 138 -139.5t196 -38.5h94v573h-135q-73 0 -117.5 -14t-90.5 -60q-48 -49 -77 -89q-40 -57 -100 -150h-15v389h1069
v-8q-95 -44 -120 -97q-26 -56 -25 -173v-848q0 -120 26 -178q26 -57 119 -101z" />
    <glyph glyph-name="uni018F" unicode="&#x18f;" horiz-adv-x="1595" 
d="M741 41q335 0 351 565l-617 -20q0 -278 74 -412q73 -133 192 -133zM764 1442q202 0 369.5 -81t274.5 -242q108 -163 108 -363q0 -266 -124.5 -456.5t-372.5 -280.5q-144 -50 -293 -50q-314 0 -481 157t-167 480q0 39 4 64h1010q-5 270 -152 382q-144 111 -350 111
q-136 0 -279.5 -32t-249.5 -93l-12 11q271 393 715 393z" />
    <glyph glyph-name="uni0190" unicode="&#x190;" horiz-adv-x="1351" 
d="M895 782v-67h-125q-164 0 -222 -85q-57 -84 -59 -222q0 -362 322 -363q361 0 432 201q-79 -75 -155 -75q-74 3 -124 57.5t-50 128.5q0 85 60.5 139.5t146.5 54.5q97 0 152.5 -59.5t57.5 -157.5q0 -143 -142 -254q-143 -111 -419 -111q-173 0 -334.5 44.5t-266.5 144.5
q-101 96 -101 223q0 72 30.5 132t84 101.5t112.5 69t130 47.5q83 24 173 29v12q-349 54 -434 184q-37 55 -37 131q0 113 111 197q209 158 563 158q103 0 218.5 -20.5t197.5 -59.5v-322h-9q-138 177 -225 251q-87 75 -193 75t-177 -68t-71 -211q0 -305 265 -305h88z" />
    <glyph glyph-name="uni0191" unicode="&#x191;" horiz-adv-x="1230" 
d="M1047 922v-424h-15q-68 100 -139 135t-195 35h-135l-2 -711q0 -133 -84 -224q-150 -163 -444 -163q-129 0 -208 57t-79 141q0 78 46 129.5t124 51.5q68 0 117 -42t49 -109q0 -60 -34 -107t-91 -72q29 -6 51 -6q61 1 100 38t52.5 86t13.5 109v1289q0 118 -26 173
q-25 53 -119 97v8h1110v-389h-15q-79 120 -100 150q-34 48 -80.5 92.5t-89.5 57.5t-115 13h-176v-594h135q127 0 196 37t138 142h15z" />
    <glyph glyph-name="florin" unicode="&#x192;" horiz-adv-x="1269" 
d="M283 791h139v260q0 133 82 224q147 163 438 163q129 0 208 -58t79 -140q0 -78 -46.5 -129.5t-123.5 -51.5q-68 0 -117 42t-49 109q0 60 34 107t91 72q-27 6 -51 6q-61 0 -100 -37.5t-52.5 -87t-13.5 -109.5v-370h182v-119h-182v-715q0 -95 -44 -174.5t-125 -125.5
q-154 -87 -349 -87q-129 0 -208 57t-79 141q0 78 46 129.5t124 51.5q68 0 117 -42t49 -109q0 -60 -34 -107t-91 -72q29 -6 51 -6q61 1 100 38t52.5 86t13.5 109l-2 826h-182z" />
    <glyph glyph-name="uni0193" unicode="&#x193;" horiz-adv-x="1605" 
d="M1466 436v-375q-324 -92 -619 -92q-155 0 -293.5 51t-241 141t-162.5 222t-60 287q0 424 399 647q229 125 472 125q133 0 274 -27q11 138 81.5 213.5t205.5 75.5q129 0 194 -49q66 -49 66 -121q0 -68 -39.5 -112t-106.5 -44q-63 0 -102 37.5t-39 100.5q0 97 107 147
q-33 4 -46 4q-68 0 -92 -50q-24 -49 -24 -157v-450h-8q-242 356 -482 356q-87 0 -156.5 -28t-116.5 -78.5t-80 -112.5t-51 -139t-26 -148.5t-8 -149.5q0 -316 120 -483q120 -166 329 -166q82 0 135 13v358q0 87 -29 135.5t-106 89.5v9h620v-9q-79 -40 -97 -78
q-18 -37 -18 -143z" />
    <glyph glyph-name="uni0194" unicode="&#x194;" horiz-adv-x="1576" 
d="M743 -154l-43 111q-57 -133 -57 -210t57 -77q56 0 58 90q-1 54 -15 86zM762 -428q-217 0 -217 195q0 105 112 299l-346 882q-139 354 -216 417q-34 28 -87 40v8h682v-8q-60 -17 -82 -48q-53 -74 76 -409l209 -545l176 459q85 226 105 338q18 112 -13 150t-123 55v8h531
v-8q-77 -16 -127 -51q-115 -81 -275 -504l-221 -582l53 -137q127 -331 -8 -478q-73 -81 -229 -81z" />
    <glyph glyph-name="uni0195" unicode="&#x195;" horiz-adv-x="1908" 
d="M1409 274v492q0 117 -20 174q-19 56 -93 96v8h484v-747q0 -170 -110 -245t-378 -75q-55 0 -100 2.5t-99.5 10.5t-97 22t-84.5 38.5t-69.5 57t-44.5 81t-17 108.5v434q0 74 -39.5 123t-112.5 49q-62 0 -108 -12v-612q0 -118 20 -175q20 -56 93 -96v-8h-604v8q73 41 92 96
q20 57 20 175v817q0 134 -24 187q-25 52 -109 91v8q219 20 504 93h8v-564q67 76 160.5 117t195.5 41q114 0 194 -80q81 -79 81 -258v-430q0 -116 29 -163q30 -46 104 -46q75 0 100 43q26 45 25 139z" />
    <glyph glyph-name="uni0196" unicode="&#x196;" horiz-adv-x="649" 
d="M504 0q-61 -26 -150 -25q-103 1 -157 64t-56 168v889q0 134 -24 187q-25 52 -109 91v8q219 20 504 93h8v-1143q0 -51 4 -80t18.5 -55t43 -38.5t76.5 -19.5v-8q-41 -53 -73 -80.5t-85 -50.5z" />
    <glyph glyph-name="uni0197" unicode="&#x197;" horiz-adv-x="737" 
d="M709 8v-8h-680v8q94 44 119 97q26 55 26 174v399h-127v92h127v365q0 118 -26 173q-25 53 -119 97v8h680v-8q-95 -44 -120 -97q-26 -55 -26 -173v-365h133v-92h-133v-399q0 -118 26 -173t120 -98z" />
    <glyph glyph-name="uni0198" unicode="&#x198;" horiz-adv-x="1593" 
d="M1599 8v-8h-765v8q32 14 48 22t36 25.5t32 40.5q28 54 -49 193l-209 362l-129 -141v-231q0 -118 26 -173t120 -98v-8h-680v8q94 44 119 97q26 55 26 174v808q0 79 29 141t76 101.5t111.5 65.5t131.5 36.5t140 10.5q113 0 178 -49q66 -50 66 -121q0 -68 -40 -112t-107 -44
q-62 0 -101.5 37.5t-39.5 99.5q0 98 107 148q-33 4 -45 4q-68 0 -92 -50q-23 -48 -25 -157v-582l379 451q218 260 -70 338v8h670v-8q-98 -36 -175.5 -84t-133.5 -98t-139 -138l-158 -172l418 -661q55 -89 109 -145t136 -99z" />
    <glyph glyph-name="uni0199" unicode="&#x199;" horiz-adv-x="1284" 
d="M633 8v-8h-604v8q73 41 92 96q20 57 20 175v808q0 134 82 225q146 163 443 163q128 0 204 -57q78 -58 78 -141q0 -78 -46.5 -129.5t-123.5 -51.5q-68 0 -117 42t-49 109q0 60 34.5 107t90.5 71q-25 5 -51 7q-61 0 -100 -37.5t-52.5 -87t-13.5 -109.5v-919q0 -118 20 -175
q20 -56 93 -96zM1331 8v-8h-297q-134 0 -183 33q-51 34 -130 190l-160 318l187 192q69 72 73 125q6 56 -30 93q-37 37 -117 81v12h643v-12q-92 -24 -199.5 -88t-169.5 -133l-100 -113l285 -467q72 -119 111 -161q36 -39 87 -62z" />
    <glyph glyph-name="uni019A" unicode="&#x19a;" horiz-adv-x="649" 
d="M633 8v-8h-604v8q73 41 92 96q20 57 20 175v399h-94v92h94v326q0 134 -24 187q-25 52 -109 91v8q219 20 504 93h8v-705h86v-92h-86v-399q0 -118 20 -175q20 -56 93 -96z" />
    <glyph glyph-name="uni019B" unicode="&#x19b;" horiz-adv-x="1089" 
d="M246 1544q211 0 307 -270l8 -23l258 170v-86l-233 -153l258 -733q15 -41 31.5 -78.5t43.5 -84t56.5 -79.5t69.5 -55.5t83 -22.5h23v-10q-18 -59 -69.5 -100.5t-112.5 -41.5q-188 0 -232 209q-11 56 -28 244q-17 191 -35 268l-199 -532q-36 -79 -53 -166h-447l553 1120
l-8 19l-321 -213v86l288 190q-16 27 -34 49q-54 -52 -93.5 -71.5t-107.5 -19.5q-87 0 -142.5 52t-55.5 138q0 81 55.5 137.5t136.5 56.5z" />
    <glyph glyph-name="uni019C" unicode="&#x19c;" horiz-adv-x="1910" 
d="M1399 -25h-8v158q-64 -72 -156 -114t-188 -44q-196 0 -261 170q-59 -78 -166 -123.5t-212 -45.5q-118 0 -198 79q-81 79 -81 258v822q0 117 -20 174q-19 55 -93 96v8h596v-8q-73 -41 -92 -96q-20 -57 -20 -174v-822q0 -79 49 -125.5t128 -46.5q73 0 107 15
q-25 66 -24 157v822q0 119 -21 174q-19 55 -92 96v8h596v-8q-73 -41 -92 -96t-21 -174v-822q0 -74 40.5 -123t112.5 -49q63 0 108 13v981q0 119 -21 174q-19 55 -92 96v8h596v-8q-73 -41 -92 -96q-20 -55 -21 -174v-781q2 -136 25 -187q24 -52 108 -91v-8q-207 -18 -495 -93
z" />
    <glyph glyph-name="uni019D" unicode="&#x19d;" horiz-adv-x="1701" 
d="M1485 930v-930h-156l-989 1126v-1169q0 -387 -264 -387q-128 0 -208 57q-79 57 -79 141q0 78 46 129.5t124 51.5q68 0 117 -42t49 -109q0 -60 -34 -107t-91 -72q28 -6 51 -6q61 1 100 38t52.5 86t13.5 109l2 1289q0 72 -20 121.5t-58.5 83t-105.5 65.5v8h530l799 -899
v416q0 312 -78 401q-35 40 -108 74v8h493v-8q-73 -34 -109 -74q-79 -89 -77 -401z" />
    <glyph glyph-name="uni019E" unicode="&#x19e;" horiz-adv-x="1280" 
d="M1151 731v-1141h-371v1141q0 74 -39.5 123t-112.5 49q-62 0 -108 -12v-612q0 -118 20 -175q20 -56 93 -96v-8h-596v8q73 41 92 96q20 56 21 175v411q0 137 -25 188q-25 52 -109 91v8q203 18 496 92h8v-158q67 76 160.5 117t195.5 41q114 0 194 -80q81 -79 81 -258z" />
    <glyph glyph-name="uni019F" unicode="&#x19f;" horiz-adv-x="1724" 
d="M862 1366q-68 0 -125 -28.5t-95.5 -78t-67 -108.5t-45.5 -129t-25.5 -131t-11.5 -121h739q-3 60 -11.5 120.5t-25.5 130.5t-45.5 129.5t-66.5 109t-95 78t-125 28.5zM660 135q86 -90 202 -90t202 90q160 169 169 543h-741q9 -370 168 -543zM1655 705
q0 -243 -135.5 -421.5t-371.5 -264.5q-141 -50 -286 -50t-284 49.5t-255 141.5q-114 90 -184 232t-69 313q0 220 121 392q118 165 293 255t378 90q154 0 298.5 -56t253.5 -152t175 -234.5t66 -294.5z" />
    <glyph glyph-name="Ohorn" unicode="&#x1a0;" horiz-adv-x="1724" 
d="M655 139q85 -94 207 -94t207 94q164 179 164 566q0 64 -6.5 130t-21 143.5t-43 144t-67.5 122.5t-99 88.5t-134 32.5q-63 0 -116.5 -25t-91 -65.5t-66.5 -97.5t-47 -116t-29 -125.5t-15.5 -122.5t-4.5 -109q0 -387 163 -566zM1655 705q0 -243 -135.5 -421.5
t-371.5 -264.5q-141 -50 -286 -50t-284 49.5t-255 141.5q-114 90 -184 232t-69 313q0 220 121 392q118 165 293 255t378 90q84 0 261 -14q171 -14 237 -15q67 0 94 7q27 8 27 33q0 27 -51 79q-52 52 -52 114q0 65 44.5 104.5t110.5 39.5q68 0 130 -50q61 -49 61 -145
q0 -74 -25 -125.5t-71.5 -78.5t-100.5 -38.5t-125 -11.5q-69 0 -171 13q196 -96 310 -266.5t114 -382.5z" />
    <glyph glyph-name="ohorn" unicode="&#x1a1;" 
d="M602 39q105 0 135 142q29 145 29 341q0 482 -164 484q-164 0 -164 -484q0 -362 78 -445q35 -38 86 -38zM987 1112q0 18 -35 62q-75 93 7 175q41 40 105 40q62 0 115 -39q52 -40 52 -138q0 -57 -27 -98.5t-72 -63.5t-94 -32t-102 -10q-38 0 -72 2q140 -71 215.5 -199.5
t75.5 -288.5q0 -157 -72 -282t-198 -194.5t-283 -70.5q-241 0 -397.5 155.5t-155.5 395.5q0 242 160 393q161 151 393 150l262 -20q123 0 123 63z" />
    <glyph glyph-name="uni01A2" unicode="&#x1a2;" horiz-adv-x="2099" 
d="M866 1360q-190 0 -282 -188q-92 -189 -92 -477q0 -69 7.5 -137.5t24 -144t47.5 -139t74 -116t107 -82t143 -29.5q69 2 110 14.5t99 49.5v1210q-174 39 -238 39zM2071 -401v-9h-629v9q95 44 120 97q26 56 25 173v1335q0 117 -80 117h-45v-1258q-211 -73 -435 -88
q-67 -4 -208 -4q-147 -1 -284.5 55t-239.5 151t-163.5 229.5t-61.5 281.5q0 301 233 528q232 226 547 226q84 0 268 -27t274 -27t271 15q181 13 264 39h31v-1573q0 -117 20 -174q20 -55 93 -96z" />
    <glyph glyph-name="uni01A3" unicode="&#x1a3;" horiz-adv-x="1759" 
d="M1743 -401v-9h-629v9q95 44 120 97q26 55 26 173v922q0 58 -20 87.5t-60 28.5h-39v-422q0 -245 -163 -377q-164 -132 -382 -132q-220 0 -384 151q-165 153 -165 401t167 394q166 145 388 147q108 0 250 -43t265 -43q112 0 267.5 22.5t214.5 63.5h31v-1200q0 -117 20 -174
q20 -55 93 -96zM766 483v471q-82 52 -166 52t-122 -120q-38 -122 -38 -363q0 -245 34 -363q34 -120 125 -121t129 107q38 109 38 337z" />
    <glyph glyph-name="uni01A4" unicode="&#x1a4;" horiz-adv-x="1611" 
d="M809 1337v-671h96q130 0 194 106q65 108 64 244q0 48 -8 92.5t-26.5 86.5t-45.5 73t-68.5 50t-92.5 19h-113zM995 8v-8h-721v8q92 42 119 100q27 59 27 179v850q0 127 -46.5 180t-170.5 53q-23 0 -51 -6q57 -25 90.5 -71.5t33.5 -106.5q0 -68 -48.5 -110t-117.5 -42
q-77 0 -123 51.5t-46 129.5q0 83 78 141q80 57 208 57h772q93 0 169 -9.5t150.5 -37t125 -72t81.5 -118.5t31 -172q0 -96 -33.5 -170.5t-88 -120t-131 -74.5t-155 -40t-167.5 -11h-172v-301q0 -116 39 -174.5t147 -104.5z" />
    <glyph glyph-name="uni01A5" unicode="&#x1a5;" horiz-adv-x="1271" 
d="M623 45q102 0 162 123q61 121 61 326q0 45 -3 85.5t-11.5 90.5t-25.5 89.5t-41.5 74.5t-64 54t-89.5 19q-43 0 -89 -24v-813q44 -25 101 -25zM666 -401v-9h-635v9q73 41 92 96q20 57 20 174v1218q0 134 82 225q145 163 443 163q128 0 204 -57q78 -58 78 -141
q0 -78 -46.5 -129.5t-123.5 -51.5q-68 0 -116.5 42t-49.5 109q0 60 34.5 107t90.5 71q-25 5 -51 7q-61 0 -100 -37.5t-52.5 -87t-13.5 -109.5v-293q158 164 314 164q104 0 181.5 -45t120.5 -121t63.5 -163.5t21.5 -186.5q0 -112 -37.5 -215.5t-113.5 -175.5
q-193 -184 -468 -187q-21 0 -84 5v-111q0 -118 26 -173q25 -53 120 -97z" />
    <glyph glyph-name="uni01A6" unicode="&#x1a6;" horiz-adv-x="1466" 
d="M563 1092v-590h64q133 0 206.5 84.5t75.5 219.5q0 132 -66 209t-196 77h-84zM1534 -311v-8h-375q-114 2 -155 31t-121 182l-279 540h-41v-147q0 -117 26.5 -176t119.5 -103v-8h-680v8q94 42 119 100q26 60 26 179v839q0 120 -27 178t-118 101v8h680v-8q-84 -38 -114 -90
t-32 -148h105q346 0 494 -87q147 -86 149 -267q0 -57 -22.5 -106t-55 -81.5t-84.5 -62t-93.5 -46.5t-99.5 -36l396 -614q102 -160 182 -178z" />
    <glyph glyph-name="uni01A7" unicode="&#x1a7;" horiz-adv-x="1171" 
d="M1087 467h11v-404q-90 -46 -218.5 -69t-250.5 -25q-105 0 -201.5 28.5t-174 82.5t-123.5 142t-46 198q0 92 48.5 176t127.5 140q152 107 326 205q176 97 176 228q0 74 -54.5 135.5t-127.5 61.5q-102 0 -196 -94q-92 -92 -200 -264h-8v354q192 80 398 80q73 0 146.5 -16.5
t141.5 -51t121 -82t85 -116t32 -146.5q0 -116 -70 -210q-72 -97 -170 -161q-110 -71 -200 -123q-241 -138 -240 -262q0 -102 64 -165t166 -63q100 0 202 107q99 105 235 314z" />
    <glyph glyph-name="uni01A8" unicode="&#x1a8;" horiz-adv-x="854" 
d="M25 332q0 96 50 171.5t138 120.5q80 41 157 72q74 29 134 73q55 42 55 101q0 60 -40.5 93t-102.5 33q-64 0 -127 -60q-62 -57 -174 -203h-9v285q145 51 308 51q74 0 147.5 -25t133 -69t96.5 -111.5t36 -144.5q0 -92 -48 -165t-133 -112q-65 -29 -150 -64
q-179 -70 -181 -177q0 -71 43 -110.5t115 -39.5q147 0 344 320h10l-14 -346q-153 -47 -334 -47q-80 0 -159 22.5t-145.5 65t-108 112t-41.5 154.5z" />
    <glyph glyph-name="uni01A9" unicode="&#x1a9;" horiz-adv-x="1251" 
d="M1139 0h-1116v8l503 572l-501 823v10h1093v-389h-8q-131 234 -161 255q-11 7 -41 31q-27 21 -97 23h-352l334 -559v-14l-441 -500h492q111 0 168 26q54 25 174 148h8z" />
    <glyph glyph-name="uni01AA" unicode="&#x1aa;" horiz-adv-x="1050" 
d="M317 1354q0 52 -34.5 87.5t-86.5 35.5q-51 0 -86.5 -35.5t-35.5 -86.5q0 -50 36 -86t86 -36q51 0 86 35t35 86zM317 -43v1249q-50 -43 -129 -43q-77 0 -130.5 56.5t-53.5 134.5q0 81 55.5 135.5t136.5 54.5q160 0 322 -135q87 -72 132.5 -189.5t45.5 -240.5v-1133
q0 -43 8 -82t26 -74.5t52 -56.5t80 -20q22 0 51 6q-57 25 -91 72t-34 107q0 66 49 108.5t117 42.5q77 0 123.5 -51.5t46.5 -129.5q0 -82 -78 -141q-80 -57 -209 -57q-291 0 -438 163q-82 91 -82 224z" />
    <glyph glyph-name="uni01AB" unicode="&#x1ab;" horiz-adv-x="755" 
d="M471 -186v170h-12q-330 0 -330 321v621h-143v14q126 54 264 164t231 225h19v-285h239v-118h-239v-619q0 -72 41.5 -119t112.5 -47q60 0 118 21l8 -10v-228q0 -354 -407 -354q-112 0 -177 49q-66 49 -67 121q0 68 39.5 112t106.5 44q62 0 101.5 -38t39.5 -100
q0 -97 -107 -147q33 -4 45 -4q68 2 92 51q23 48 25 156z" />
    <glyph glyph-name="uni01AC" unicode="&#x1ac;" horiz-adv-x="1413" 
d="M1047 8v-8h-680v8q94 42 119 100q26 60 26 179v1056h-285q-23 0 -51 -6q56 -24 90.5 -71t34.5 -107q0 -67 -49 -109t-117 -42q-80 0 -125 53t-45 135q0 90 76 154q74 63 211 63h1098l24 -399h-10q-156 203 -235 267q-77 62 -193 62h-35v-1056q0 -117 26.5 -176
t119.5 -103z" />
    <glyph glyph-name="uni01AD" unicode="&#x1ad;" horiz-adv-x="755" 
d="M459 -16q-330 0 -330 321v621h-143v14q50 21 135 74v176q0 82 29 145.5t76 102t112.5 63t131 34t140.5 9.5q87 0 159.5 -44.5t72.5 -125.5q0 -69 -40.5 -112t-108.5 -43q-62 0 -100 37.5t-38 99.5q0 97 107 147q-33 4 -46 4q-68 0 -92 -50q-24 -49 -24 -157v-256h239
v-118h-239v-619q0 -76 43.5 -121t119.5 -45q49 0 109 21l8 -10q-142 -168 -321 -168z" />
    <glyph glyph-name="uni01AE" unicode="&#x1ae;" horiz-adv-x="1413" 
d="M512 -43v1386h-35q-117 0 -193 -61t-235 -268h-10l24 399h1287l24 -399h-10q-156 203 -235 267q-77 62 -193 62h-35v-1497q0 -43 8 -82t25.5 -74.5t51 -56.5t79.5 -20q25 0 51 6q-57 25 -91 72t-34 107q0 67 49 109t117 42q77 0 123.5 -51.5t46.5 -129.5q0 -82 -79 -140
t-209 -58q-294 0 -443 163q-84 91 -84 224z" />
    <glyph glyph-name="Uhorn" unicode="&#x1af;" horiz-adv-x="1634" 
d="M1276 403v527q0 270 -56 356q-30 46 -60 68.5t-91 50.5v8h379q22 1 47.5 3.5t60 10t56.5 23t22 37.5q0 15 -35 61t-35 90q0 53 47 89t101 36q62 0 114 -39q52 -37 52 -112q0 -135 -106 -181q-81 -37 -236 -55q-81 -44 -115 -134q-35 -93 -35 -312v-533q0 -428 -569 -428
q-95 0 -178.5 9.5t-171.5 38.5t-150.5 75t-102.5 124t-40 181v738q0 118 -26 173q-25 53 -119 97v8h680v-8q-95 -44 -120 -97q-26 -55 -26 -173v-766q0 -75 27.5 -130t76 -86t108 -46t131.5 -15q80 0 145 17t116.5 53t80 97t28.5 144z" />
    <glyph glyph-name="uhorn" unicode="&#x1b0;" horiz-adv-x="1282" 
d="M791 -25h-9v156q-136 -156 -329 -156q-127 0 -215 81t-88 257v377q0 137 -25 188q-25 52 -109 91v8q203 18 496 92h8v-756q0 -85 52 -128q53 -44 114 -44q62 0 96 9v540q0 136 -24 188q-25 52 -109 91v8q140 16 215 27q197 31 242 76q18 18 18 38t-34 60q-33 39 -35 84
q0 53 46 89t101 38q62 0 114 -39t52 -125q0 -157 -215 -183v-688q2 -136 25 -187q24 -52 108 -91v-8q-207 -18 -495 -93z" />
    <glyph glyph-name="uni01B1" unicode="&#x1b1;" horiz-adv-x="1683" 
d="M872 1405v8h660l41 -375h-8q-57 62 -100 76t-140 14h-197q52 -50 156 -126q107 -79 166 -128q72 -60 118 -148t46 -177q0 -245 -217 -411q-218 -167 -555 -167t-555 167q-217 166 -217 411q0 89 45.5 177t117.5 148q67 56 165 128q108 80 157 126h-197q-96 0 -139 -14.5
t-100 -75.5h-8l41 375h659v-8q-98 -139 -155 -237q-59 -101 -112 -265q-52 -163 -52 -357q0 -65 12.5 -131t40.5 -131.5t67.5 -116t99 -82t130.5 -32.5q71 0 130.5 31.5t99 82.5t67.5 116.5t40.5 132.5t12.5 131q0 194 -52 356q-54 167 -112 265q-58 100 -156 237z" />
    <glyph glyph-name="uni01B2" unicode="&#x1b2;" horiz-adv-x="1540" 
d="M174 397v738q0 118 -26 173q-25 53 -119 97v8h680v-8q-95 -44 -120 -97q-26 -55 -26 -173v-766q0 -73 26.5 -127.5t74 -86.5t106.5 -47.5t129 -15.5q100 0 180 50.5t126 139.5q45 87 79 255q35 172 35 512q0 146 -49 232q-50 87 -185 93q115 -51 115 -155
q0 -71 -47 -114.5t-119 -43.5q-78 0 -124 51.5t-46 130.5q0 84 74 140q74 57 202 57t208 -104q80 -105 79 -298q0 -464 -61 -662q-62 -200 -177 -291q-152 -116 -378 -116q-95 0 -178 10t-170 38.5t-148.5 74.5t-101 124.5t-39.5 180.5z" />
    <glyph glyph-name="uni01B3" unicode="&#x1b3;" horiz-adv-x="1636" 
d="M1247 8v-8h-680v8q92 42 119 100t27 179v340l-230 424q-40 75 -107 173t-116 140q25 -54 25 -118q0 -61 -47 -111q-46 -49 -125 -49q-81 0 -131 47.5t-50 128.5q0 62 43 104.5t99 59t116 16.5q84 0 139 -3.5t116.5 -15t108 -34t96 -61t98.5 -94.5q66 -75 120 -183
l174 -336l154 334q86 192 46 263q-24 39 -57.5 58t-90.5 35v8h551v-8q-100 -38 -169 -110q-64 -67 -161 -253l-213 -415v-340q0 -120 26 -178q26 -57 119 -101z" />
    <glyph glyph-name="uni01B4" unicode="&#x1b4;" horiz-adv-x="1417" 
d="M2 1036v8h641v-8q-83 -10 -103 -66q-19 -55 23 -214l166 -541l70 229q20 69 34 112.5t44 126t57.5 137.5t67 112t79.5 85q73 52 171 52q87 0 150.5 -47t63.5 -131q0 -73 -51 -125.5t-124 -52.5q-77 0 -129 59t-52 137q-44 -37 -90 -138q-49 -107 -127 -347l-166 -508
q-16 -51 -30.5 -88.5t-41.5 -90t-55.5 -85.5t-71.5 -57.5t-92 -24.5q-96 0 -152 48t-56 116t44 111.5t112 43.5q66 0 114.5 -43t52.5 -108q38 51 94 194l25 68h-224l-243 698q-72 207 -105 266q-33 60 -96 72z" />
    <glyph glyph-name="uni01B5" unicode="&#x1b5;" horiz-adv-x="1261" 
d="M1192 0h-1151v8l365 670h-334v92h383l309 567h-209q-120 0 -209 -62q-86 -59 -268 -251h-8l41 389h1101v-8l-342 -635h332v-92h-381l-323 -602h229q75 0 113 6q50 8 107.5 51t104.5 94q55 61 171 203h10z" />
    <glyph glyph-name="uni01B6" unicode="&#x1b6;" horiz-adv-x="1097" 
d="M1008 0h-975v10l293 490h-254v92h309l223 375h-182q-72 0 -172 -82l-178 -148h-11l41 307h947v-12l-261 -440h277v-92h-330l-248 -422h232q27 0 93 51q59 45 226 197h11z" />
    <glyph glyph-name="uni01B7" unicode="&#x1b7;" horiz-adv-x="1269" 
d="M707 1124h-576v289h946v-8l-389 -453q91 -18 172 -58.5t146 -99.5t103 -142t38 -177q1 -119 -61 -220q-84 -135 -248 -210.5t-334 -75.5q-224 0 -339 84q-116 84 -116 209q0 83 55 136.5t138 53.5t138.5 -54.5t55.5 -137.5q0 -111 -98 -188q47 -24 100 -23q82 0 180 57
q75 45 116.5 130.5t41.5 177.5q0 166 -110 240q-94 63 -221 63q-14 0 -42 -2l-14 24z" />
    <glyph glyph-name="uni01B8" unicode="&#x1b8;" horiz-adv-x="1269" 
d="M481 414q0 -140 81 -238t220 -123q26 -4 37 -4q54 -1 101 23q-98 78 -98 174q0 90 52.5 148t141.5 58q83 0 137.5 -54t54.5 -136q0 -125 -116 -209q-115 -84 -338 -84t-424 126q-97 59 -158 159q-62 102 -61 221q0 94 38 176.5t102.5 142t146 100t171.5 58.5l-389 453v8
h946v-289h-575l317 -385l-14 -24q-26 2 -38 2q-131 0 -226 -64q-110 -74 -109 -239z" />
    <glyph glyph-name="uni01B9" unicode="&#x1b9;" horiz-adv-x="1120" 
d="M532 286q-92 -74 -92 -250q0 -177 135 -285q87 -69 171 -69q47 0 92 21q-98 78 -98 174q0 89 53 148t141 59q83 0 137.5 -54t54.5 -136q0 -125 -116 -209t-336 -84q-149 0 -280 58t-224 170q-100 118 -100 289q0 180 117.5 305t299.5 161l-389 452v8h946v-288h-575
l317 -385l-14 -25q-28 2 -41 2q-119 0 -199 -62z" />
    <glyph glyph-name="uni01BA" unicode="&#x1ba;" horiz-adv-x="1005" 
d="M458 -428q-191 0 -298 80q-106 79 -106 261q0 181 93 258q95 77 328 105q162 20 162 134q0 84 -72 114q-71 29 -250 29v41l214 207h-451v243h846v-43l-381 -387q179 -16 255 -63q76 -46 76 -141q0 -93 -86 -146q-84 -50 -305 -76q-152 -17 -151 -170q0 -88 56 -131
t147 -43q273 0 358 201h14q-10 -206 -129 -339.5t-320 -133.5z" />
    <glyph glyph-name="uni01BB" unicode="&#x1bb;" horiz-adv-x="1269" 
d="M1090 0h-963v55l408 502q50 61 86 121h-492v92h545q74 146 74 272t-77 212q-77 85 -182 85q-52 0 -112 -21t-86 -56q99 -6 169 -63.5t70 -152.5q0 -87 -55.5 -143.5t-142.5 -56.5q-94 0 -150.5 60.5t-56.5 154.5q0 143 153 262q154 119 354 119q86 0 170.5 -22t159.5 -64
t121.5 -114.5t46.5 -164.5q0 -164 -149 -307h221v-92h-334q-47 -35 -140 -95q-199 -130 -257 -204l-49 -62h723z" />
    <glyph glyph-name="uni01BC" unicode="&#x1bc;" horiz-adv-x="1269" 
d="M1040 1413v-289h-725v-303q174 19 373 19q92 0 173.5 -24.5t146 -71t102 -122.5t37.5 -171q-1 -118 -60.5 -214t-164.5 -154q-204 -114 -419 -114q-47 0 -89.5 3.5t-93.5 12.5t-92 27.5t-76 44.5t-54.5 68t-19.5 94q0 81 58 137t140 56t136 -54t53 -137q0 -113 -98 -190
q152 -31 277 65q124 96 124 293q0 293 -285 293h-260v453q0 120 -25 173t-120 97v8h962z" />
    <glyph glyph-name="uni01BD" unicode="&#x1bd;" horiz-adv-x="966" 
d="M836 1044v-272h-584v-197q112 37 284 37q59 0 112 -10t101 -33t83.5 -56.5t56 -84t20.5 -113.5q0 -79 -30 -140.5t-77.5 -99t-114.5 -62t-133 -34t-140 -10.5q-180 -1 -284 53t-105 162q0 73 50.5 122.5t123.5 49.5q75 0 125.5 -47t50.5 -121q0 -99 -113 -170
q305 -8 305 258q0 203 -205 203h-223v287q0 120 -25 173t-120 97v8h842z" />
    <glyph glyph-name="uni01BE" unicode="&#x1be;" horiz-adv-x="956" 
d="M643 196q0 65 -51.5 107.5t-129.5 74.5q-83 33 -150 64q-85 39 -133 112t-48 165l-2 207h-143v14q126 54 264 164t231 225h19v-285h239v-118h-239v-58q0 -95 153 -173q45 -23 71 -37t59 -37t58 -49.5t47 -61.5q46 -73 46 -178q0 -85 -41.5 -154.5t-108 -112t-145.5 -65
t-159 -22.5q-180 0 -335 47l-14 346h10q196 -318 344 -320q69 0 113.5 38.5t44.5 106.5z" />
    <glyph glyph-name="uni01BF" unicode="&#x1bf;" horiz-adv-x="1271" 
d="M753 124q93 133 93 458t-235 325q-43 0 -89 -24v-940q79 33 130 73t101 108zM143 -152v842q0 136 -24 188q-25 52 -109 91v8q216 19 504 92h8v-164q158 164 314 164q207 0 296.5 -107t89.5 -319q0 -225 -111 -386q-74 -101 -143 -152q-158 -115 -375 -193
q-56 -20 -71 -27v-247l-491 -68v8q73 41 92 96q20 57 20 174z" />
    <glyph glyph-name="clickdental" unicode="&#x1c0;" horiz-adv-x="409" 
d="M248 1544v-1780h-78v1780h78z" />
    <glyph glyph-name="clicklateral" unicode="&#x1c1;" horiz-adv-x="819" 
d="M657 1544v-1780h-77v1780h77zM248 1544v-1780h-78v1780h78z" />
    <glyph glyph-name="uni01C2" unicode="&#x1c2;" horiz-adv-x="571" 
d="M340 467v-467h-109v467h-211v111h211v196h-211v109h211v503h109v-503h213v-109h-213v-196h213v-111h-213z" />
    <glyph glyph-name="uni01C3" unicode="&#x1c3;" horiz-adv-x="612" 
d="M518 179q0 -86 -63 -144.5t-149 -58.5q-87 0 -149.5 58.5t-62.5 144.5t62 145t149 61q87 0 150 -59.5t63 -146.5zM94 1235q0 86 62 146.5t149 60.5t150 -60.5t63 -146.5q0 -131 -92 -377t-107 -403h-26q-15 157 -107 403t-92 377z" />
    <glyph glyph-name="uni01C4" unicode="&#x1c4;" horiz-adv-x="2754" 
d="M2431 1855l-190 -249h-199l-187 249h21l266 -106l268 106h21zM2685 0h-1151v8l723 1329h-209q-120 0 -209 -62q-86 -59 -268 -251h-8l41 389h1101v-8l-714 -1329h229q76 0 113 6q50 8 107.5 51t104.5 94q55 61 171 203h10zM758 0h-729v8q94 42 119 100q26 60 26 179v848
q0 118 -26 173q-25 53 -119 97v8h749q336 0 557 -170t221 -485q0 -237 -102 -410t-281 -260.5t-415 -87.5zM563 1337v-1261h148q98 0 176 39.5t126.5 103t80.5 149t45 170t14 174.5q0 281 -121 453t-297 172h-172z" />
    <glyph glyph-name="uni01C5" unicode="&#x1c5;" horiz-adv-x="2600" 
d="M2292 1413l-191 -250h-198l-187 250h21l266 -106l268 106h21zM2511 0h-975v10l571 957h-182q-72 0 -172 -82l-178 -148h-10l41 307h946v-12l-561 -954h231q28 0 94 51q59 45 226 197h10zM758 0h-729v8q94 42 119 100q26 60 26 179v848q0 118 -26 173q-25 53 -119 97v8
h749q336 0 557 -170t221 -485q0 -237 -102 -410t-281 -260.5t-415 -87.5zM563 1337v-1261h148q98 0 176 39.5t126.5 103t80.5 149t45 170t14 174.5q0 281 -121 453t-297 172h-172z" />
    <glyph glyph-name="uni01C6" unicode="&#x1c6;" horiz-adv-x="2304" 
d="M1997 1421l-191 -250h-198l-187 250h21l266 -106l268 106h21zM2214 0h-975v10l571 957h-182q-72 0 -172 -82l-178 -148h-10l41 307h946v-12l-561 -954h231q27 0 93 51t227 197h10zM627 1014q-95 0 -151 -129q-56 -130 -56 -319q0 -45 4 -88t13 -93.5t27.5 -92t44.5 -76.5
t67 -55t92 -20q39 2 75 19v784q-43 70 -116 70zM752 -25h-9v162q-131 -162 -299 -162q-168 -1 -282 137q-114 139 -113 376q2 239 149 409q148 172 398 172q57 0 147 -12v39q0 134 -24 187q-25 52 -109 91v8q206 18 496 93h8v-1121q0 -134 24 -187q24 -52 109 -91v-8
q-207 -18 -495 -93z" />
    <glyph glyph-name="uni01C7" unicode="&#x1c7;" horiz-adv-x="1816" 
d="M1221 -2v1137q0 118 -26 173q-25 53 -120 97v8h680v-8q-95 -44 -120 -97q-26 -56 -25 -173v-975q0 -123 -81.5 -238t-198.5 -197q-159 -112 -281 -153l-7 6q50 26 86.5 75.5t56 109.5t28 118.5t8.5 116.5zM1116 0h-1087v8q94 44 119 97q26 55 26 174v856q0 118 -26 173
q-25 53 -119 97v8h680v-8q-95 -44 -120 -97q-26 -55 -26 -173v-1059h105q99 0 186 37q29 11 68 47.5t65 69.5l74 92q61 78 82 102h14z" />
    <glyph glyph-name="uni01C8" unicode="&#x1c8;" horiz-adv-x="1699" 
d="M1208 37v653q0 136 -24 188q-25 52 -109 91v8q216 19 504 92h8v-868q0 -101 -43 -200.5t-116 -175.5q-147 -153 -408 -255l-6 12q66 41 111.5 122.5t64 165.5t18.5 167zM1395 1098q-77 0 -130 54.5t-55 131.5q0 77 54 130.5t131 53.5t131.5 -54t54.5 -130t-54.5 -131
t-131.5 -55zM1116 0h-1087v8q94 44 119 97q26 55 26 174v856q0 118 -26 173q-25 53 -119 97v8h680v-8q-95 -44 -120 -97q-26 -55 -26 -173v-1059h105q99 0 186 37q29 11 68 47.5t65 69.5l74 92q61 78 82 102h14z" />
    <glyph glyph-name="uni01C9" unicode="&#x1c9;" horiz-adv-x="1222" 
d="M731 37v653q0 136 -24 188q-25 52 -109 91v8q216 19 504 92h8v-868q0 -101 -43 -201t-115 -175q-147 -153 -409 -255l-6 12q66 41 111.5 122.5t64 165.5t18.5 167zM918 1098q-77 0 -131 54.5t-54 131.5t54 130.5t131 53.5t131.5 -54t54.5 -130t-55 -131t-131 -55zM633 8
v-8h-604v8q73 41 92 96q20 57 20 175v817q0 134 -24 187q-25 52 -109 91v8q219 20 504 93h8v-1196q0 -118 20 -175q20 -56 93 -96z" />
    <glyph glyph-name="uni01CA" unicode="&#x1ca;" horiz-adv-x="2428" 
d="M1833 -2v1137q0 118 -26 173q-25 53 -119 97v8h679v-8q-94 -44 -119 -97q-26 -55 -26 -173v-975q0 -88 -44 -174q-109 -213 -397 -362q-65 -33 -120 -52l-6 6q94 50 136 170t42 250zM1485 930v-930h-156l-989 1126v-634q0 -324 78 -408q39 -42 108 -76v-8h-493v8
q71 33 109 76q78 88 77 408v643q0 72 -20 121.5t-58.5 83t-105.5 65.5v8h530l799 -899v416q0 312 -78 401q-35 40 -108 74v8h493v-8q-73 -34 -109 -74q-79 -89 -77 -401z" />
    <glyph glyph-name="uni01CB" unicode="&#x1cb;" horiz-adv-x="2213" 
d="M1722 37v653q0 136 -24 188q-25 52 -109 91v8q216 19 504 92h8v-868q0 -101 -43 -201t-115 -175q-145 -152 -409 -255l-6 12q66 41 111.5 122.5t64 165.5t18.5 167zM1909 1098q-77 0 -130 54.5t-55 131.5q0 77 54 130.5t131 53.5t131.5 -54t54.5 -130t-54.5 -131
t-131.5 -55zM1485 930v-930h-156l-989 1126v-634q0 -324 78 -408q39 -42 108 -76v-8h-493v8q71 33 109 76q78 88 77 408v643q0 72 -20 121.5t-58.5 83t-105.5 65.5v8h530l799 -899v416q0 312 -78 401q-35 40 -108 74v8h493v-8q-73 -34 -109 -74q-79 -89 -77 -401z" />
    <glyph glyph-name="uni01CC" unicode="&#x1cc;" horiz-adv-x="1841" 
d="M1350 37v653q0 137 -25 188q-25 52 -108 91v8q217 19 503 92h9v-868q-1 -101 -44 -200.5t-115 -175.5q-145 -152 -409 -255l-6 12q66 41 111.5 122.5t64 165.5t19.5 167zM1536 1098q-76 0 -130 54.5t-54 131.5q0 76 54 130t130 54q77 0 131.5 -54t54.5 -130t-55 -131
t-131 -55zM1264 8v-8h-596v8q73 41 92 96q20 57 20 175v452q0 74 -39.5 123t-112.5 49q-62 0 -108 -12v-612q0 -118 20 -175q20 -56 93 -96v-8h-596v8q73 41 92 96q20 56 21 175v411q0 137 -25 188q-25 52 -109 91v8q203 18 496 92h8v-158q67 76 160.5 117t195.5 41
q114 0 194 -80q81 -79 81 -258v-452q0 -118 20 -175q19 -56 93 -96z" />
    <glyph glyph-name="uni01CD" unicode="&#x1cd;" horiz-adv-x="1638" 
d="M1106 1782l-191 -250h-198l-187 250h21l266 -107l268 107h21zM494 610h421l-210 631zM1628 8v-8h-710v8q70 13 100 39t29 99q0 76 -82 319l-21 57h-479q-80 -248 -80 -341q0 -47 8.5 -76.5t30 -48.5t49 -29t74.5 -19v-8h-539v8q77 17 120 52q88 71 241 503l297 850h344
l336 -948q127 -357 198 -418q32 -27 84 -39z" />
    <glyph glyph-name="uni01CE" unicode="&#x1ce;" horiz-adv-x="1097" 
d="M836 1413l-191 -250h-199l-186 250h21l266 -106l268 106h21zM805 -25q-167 0 -199 158q-129 -158 -291 -158q-119 0 -201 65t-81 181q0 322 571 391v136q0 115 -64.5 177t-177.5 62q-54 0 -120 -20q78 -15 120 -63q42 -49 41 -112q0 -67 -51.5 -114t-118.5 -47
q-71 0 -119 45.5t-48 116.5q0 123 133 199q132 75 345 77q97 0 172 -17.5t135 -57t92 -110.5t32 -171v-422q1 -53 5 -80.5t17.5 -53.5t42 -39t76.5 -20v-8q-62 -49 -149.5 -82t-161.5 -33zM545 563q-57 0 -101 -62q-44 -63 -43 -159q0 -99 40 -149q41 -51 84 -51q46 0 79 16
v395q-39 10 -59 10z" />
    <glyph glyph-name="uni01CF" unicode="&#x1cf;" horiz-adv-x="737" 
d="M655 1782l-190 -250h-199l-186 250h20l267 -107l268 107h20zM709 8v-8h-680v8q94 44 119 97q26 55 26 174v856q0 118 -26 173q-25 53 -119 97v8h680v-8q-95 -44 -120 -97q-26 -55 -26 -173v-856q0 -118 26 -173t120 -98z" />
    <glyph glyph-name="uni01D0" unicode="&#x1d0;" horiz-adv-x="649" 
d="M612 1413l-190 -250h-199l-186 250h20l267 -106l268 106h20zM633 8v-8h-596v8q73 41 92 96q20 56 21 175v411q0 137 -25 188q-25 52 -109 91v8q203 18 496 92h8v-790q0 -118 20 -175q20 -56 93 -96z" />
    <glyph glyph-name="uni01D1" unicode="&#x1d1;" horiz-adv-x="1724" 
d="M1149 1782l-191 -250h-198l-187 250h21l266 -107l268 107h21zM1655 705q0 -243 -135.5 -421.5t-371.5 -264.5q-141 -50 -286 -50t-284 49.5t-255 141.5q-114 90 -184 232t-69 313q0 220 121 392q118 165 293 255t378 90q154 0 298.5 -56t253.5 -152t175 -234.5t66 -294.5
zM655 139q85 -94 207 -94t207 94q164 179 164 566q0 64 -6.5 130t-21 143.5t-43 144t-67.5 122.5t-99 88.5t-134 32.5q-63 0 -116.5 -25t-91 -65.5t-66.5 -97.5t-47 -116t-29 -125.5t-15.5 -122.5t-4.5 -109q0 -387 163 -566z" />
    <glyph glyph-name="uni01D2" unicode="&#x1d2;" 
d="M889 1413l-191 -250h-198l-187 250h21l266 -106l268 106h21zM995 918q160 -150 160 -392q0 -241 -156 -395t-397 -156q-241 0 -397.5 155.5t-155.5 395.5q0 242 160 393t393 151q232 0 393 -152zM602 39q105 0 135 142q29 145 29 341q0 482 -164 484q-164 0 -164 -484
q0 -362 78 -445q35 -38 86 -38z" />
    <glyph glyph-name="uni01D3" unicode="&#x1d3;" horiz-adv-x="1634" 
d="M1104 1782l-191 -250h-198l-187 250h21l266 -107l268 107h21zM1276 403v527q0 270 -56 356q-30 46 -60 68.5t-91 50.5v8h524v-8q-61 -28 -91 -50.5t-60 -68.5q-55 -86 -56 -356v-533q0 -428 -569 -428q-95 0 -178.5 9.5t-171.5 38.5t-150.5 75t-102.5 124t-40 181v738
q0 118 -26 173q-25 53 -119 97v8h680v-8q-95 -44 -120 -97q-26 -55 -26 -173v-766q0 -75 27.5 -130t76 -86t108 -46t131.5 -15q80 0 145 17t116.5 53t80 97t28.5 144z" />
    <glyph glyph-name="uni01D4" unicode="&#x1d4;" horiz-adv-x="1282" 
d="M928 1413l-191 -250h-198l-187 250h21l266 -106l268 106h21zM791 -25h-9v156q-136 -156 -329 -156q-127 0 -215 81t-88 257v377q0 137 -25 188q-25 52 -109 91v8q203 18 496 92h8v-756q0 -85 52 -128q53 -44 114 -44q62 0 96 9v540q0 136 -24 188q-25 52 -109 91v8
q203 18 496 92h8v-715q2 -136 25 -187q24 -52 108 -91v-8q-207 -18 -495 -93z" />
    <glyph glyph-name="uni01D5" unicode="&#x1d5;" horiz-adv-x="1634" 
d="M1094 2028v-164h-553v164h553zM631 1810q67 0 111 -43.5t44 -110.5q0 -65 -44.5 -110t-109.5 -45q-66 0 -111.5 44.5t-45.5 110.5t45 110t111 44zM846 1656q0 65 45.5 109.5t110.5 44.5q66 0 110.5 -44t44.5 -110q0 -65 -45 -110t-110 -45t-110.5 45t-45.5 110zM1276 403
v527q0 270 -56 356q-30 46 -60 68.5t-91 50.5v8h524v-8q-61 -28 -91 -50.5t-60 -68.5q-55 -86 -56 -356v-533q0 -428 -569 -428q-95 0 -178.5 9.5t-171.5 38.5t-150.5 75t-102.5 124t-40 181v738q0 118 -26 173q-25 53 -119 97v8h680v-8q-95 -44 -120 -97q-26 -55 -26 -173
v-766q0 -75 27.5 -130t76 -86t108 -46t131.5 -15q80 0 145 17t116.5 53t80 97t28.5 144z" />
    <glyph glyph-name="uni01D6" unicode="&#x1d6;" horiz-adv-x="1282" 
d="M918 1679v-163h-553v163h553zM455 1442q66 0 110.5 -44t44.5 -110q0 -65 -44.5 -110t-109.5 -45t-111 45t-46 110q0 66 45 110t111 44zM981 1288q0 -65 -45 -110t-110 -45t-110.5 45t-45.5 110q0 64 45.5 109t110.5 45t110 -44.5t45 -109.5zM791 -25h-9v156
q-136 -156 -329 -156q-127 0 -215 81t-88 257v377q0 137 -25 188q-25 52 -109 91v8q203 18 496 92h8v-756q0 -85 52 -128q53 -44 114 -44q62 0 96 9v540q0 136 -24 188q-25 52 -109 91v8q203 18 496 92h8v-715q2 -136 25 -187q24 -52 108 -91v-8q-207 -18 -495 -93z" />
    <glyph glyph-name="uni01D7" unicode="&#x1d7;" horiz-adv-x="1634" 
d="M674 1860h-23q113 141 150 249h262q-193 -172 -389 -249zM631 1810q67 0 111 -43.5t44 -110.5q0 -65 -44.5 -110t-109.5 -45q-66 0 -111.5 44.5t-45.5 110.5t45 110t111 44zM846 1656q0 65 45.5 109.5t110.5 44.5q66 0 110.5 -44t44.5 -110q0 -65 -45 -110t-110 -45
t-110.5 45t-45.5 110zM1276 403v527q0 270 -56 356q-30 46 -60 68.5t-91 50.5v8h524v-8q-61 -28 -91 -50.5t-60 -68.5q-55 -86 -56 -356v-533q0 -428 -569 -428q-95 0 -178.5 9.5t-171.5 38.5t-150.5 75t-102.5 124t-40 181v738q0 118 -26 173q-25 53 -119 97v8h680v-8
q-95 -44 -120 -97q-26 -55 -26 -173v-766q0 -75 27.5 -130t76 -86t108 -46t131.5 -15q80 0 145 17t116.5 53t80 97t28.5 144z" />
    <glyph glyph-name="uni01D8" unicode="&#x1d8;" horiz-adv-x="1282" 
d="M477 1491h-22q114 142 149 250h262q-192 -173 -389 -250zM455 1442q66 0 110.5 -44t44.5 -110q0 -65 -44.5 -110t-109.5 -45t-111 45t-46 110q0 66 45 110t111 44zM981 1288q0 -65 -45 -110t-110 -45t-110.5 45t-45.5 110q0 64 45.5 109t110.5 45t110 -44.5t45 -109.5z
M791 -25h-9v156q-136 -156 -329 -156q-127 0 -215 81t-88 257v377q0 137 -25 188q-25 52 -109 91v8q203 18 496 92h8v-756q0 -85 52 -128q53 -44 114 -44q62 0 96 9v540q0 136 -24 188q-25 52 -109 91v8q203 18 496 92h8v-715q2 -136 25 -187q24 -52 108 -91v-8
q-207 -18 -495 -93z" />
    <glyph glyph-name="uni01D9" unicode="&#x1d9;" horiz-adv-x="1634" 
d="M1106 2136l-191 -250h-198l-187 250h21l266 -106l268 106h21zM634 1831q66 0 110 -44.5t44 -110.5q0 -64 -45 -109t-109 -45q-65 0 -111 44.5t-46 109.5t46 110t111 45zM1004 1831q65 0 109 -44.5t46 -110.5q0 -64 -44.5 -109t-109.5 -45t-111 44.5t-46 109.5
q0 66 45 110.5t111 44.5zM1276 403v527q0 270 -56 356q-30 46 -60 68.5t-91 50.5v8h524v-8q-61 -28 -91 -50.5t-60 -68.5q-55 -86 -56 -356v-533q0 -428 -569 -428q-95 0 -178.5 9.5t-171.5 38.5t-150.5 75t-102.5 124t-40 181v738q0 118 -26 173q-25 53 -119 97v8h680v-8
q-95 -44 -120 -97q-26 -55 -26 -173v-766q0 -75 27.5 -130t76 -86t108 -46t131.5 -15q80 0 145 17t116.5 53t80 97t28.5 144z" />
    <glyph glyph-name="uni01DA" unicode="&#x1da;" horiz-adv-x="1282" 
d="M930 1745l-191 -250h-198l-187 250h21l266 -107l268 107h21zM458 1442q65 0 109.5 -44.5t44.5 -109.5t-44.5 -110t-109.5 -45t-111 45t-46 110t46 109.5t111 44.5zM983 1288q0 -65 -45 -110t-110 -45t-110.5 45t-45.5 110q0 66 45 110t111 44q65 0 110 -44.5t45 -109.5z
M791 -25h-9v156q-136 -156 -329 -156q-127 0 -215 81t-88 257v377q0 137 -25 188q-25 52 -109 91v8q203 18 496 92h8v-756q0 -85 52 -128q53 -44 114 -44q62 0 96 9v540q0 136 -24 188q-25 52 -109 91v8q203 18 496 92h8v-715q2 -136 25 -187q24 -52 108 -91v-8
q-207 -18 -495 -93z" />
    <glyph glyph-name="uni01DB" unicode="&#x1db;" horiz-adv-x="1634" 
d="M995 1886h-22q-197 77 -389 250h262q35 -108 149 -250zM634 1831q66 0 110 -44.5t44 -110.5q0 -64 -45 -109t-109 -45q-65 0 -111 44.5t-46 109.5t46 110t111 45zM1004 1831q65 0 109 -44.5t46 -110.5q0 -64 -44.5 -109t-109.5 -45t-111 44.5t-46 109.5q0 66 45 110.5
t111 44.5zM1276 403v527q0 270 -56 356q-30 46 -60 68.5t-91 50.5v8h524v-8q-61 -28 -91 -50.5t-60 -68.5q-55 -86 -56 -356v-533q0 -428 -569 -428q-95 0 -178.5 9.5t-171.5 38.5t-150.5 75t-102.5 124t-40 181v738q0 118 -26 173q-25 53 -119 97v8h680v-8
q-95 -44 -120 -97q-26 -55 -26 -173v-766q0 -75 27.5 -130t76 -86t108 -46t131.5 -15q80 0 145 17t116.5 53t80 97t28.5 144z" />
    <glyph glyph-name="uni01DC" unicode="&#x1dc;" horiz-adv-x="1282" 
d="M821 1487h-22q-197 77 -389 250h262q35 -108 149 -250zM458 1442q65 0 109.5 -44.5t44.5 -109.5t-44.5 -110t-109.5 -45t-111 45t-46 110t46 109.5t111 44.5zM983 1288q0 -65 -45 -110t-110 -45t-110.5 45t-45.5 110q0 66 45 110t111 44q65 0 110 -44.5t45 -109.5z
M791 -25h-9v156q-136 -156 -329 -156q-127 0 -215 81t-88 257v377q0 137 -25 188q-25 52 -109 91v8q203 18 496 92h8v-756q0 -85 52 -128q53 -44 114 -44q62 0 96 9v540q0 136 -24 188q-25 52 -109 91v8q203 18 496 92h8v-715q2 -136 25 -187q24 -52 108 -91v-8
q-207 -18 -495 -93z" />
    <glyph glyph-name="uni01DD" unicode="&#x1dd;" horiz-adv-x="1007" 
d="M610 438v8l-235 -45v-120q0 -118 22 -178q23 -60 75 -60q96 0 117 122q21 121 21 273zM63 369v116h547q-2 56 -11.5 105.5t-30 97.5t-50.5 82.5t-77 56t-107 21.5q-73 0 -153 -24t-132 -66l-8 6q89 151 196 228t263 77q151 0 260 -70.5t162 -188t53 -266.5
q1 -233 -143 -400q-143 -165 -349 -167q-199 0 -310 98t-110 294z" />
    <glyph glyph-name="uni01DE" unicode="&#x1de;" horiz-adv-x="1638" 
d="M1096 2068v-163h-553v163h553zM635 1831q66 0 111 -44.5t45 -110.5q1 -64 -45 -109t-110 -45q-65 0 -111 44.5t-46 109.5q0 66 45 110.5t111 44.5zM1007 1831q65 0 108.5 -44.5t45.5 -110.5q0 -64 -44.5 -109t-109.5 -45t-111 44.5t-46 109.5t46 110t111 45zM494 610h421
l-210 631zM1628 8v-8h-710v8q70 13 100 39t29 99q0 76 -82 319l-21 57h-479q-80 -248 -80 -341q0 -47 8.5 -76.5t30 -48.5t49 -29t74.5 -19v-8h-539v8q77 17 120 52q88 71 241 503l297 850h344l336 -948q127 -357 198 -418q32 -27 84 -39z" />
    <glyph glyph-name="uni01DF" unicode="&#x1df;" horiz-adv-x="1097" 
d="M825 1700v-164h-553v164h553zM365 1442q66 0 110.5 -44t44.5 -110q0 -65 -44.5 -110t-109.5 -45t-111 45t-46 110q0 66 45 110t111 44zM891 1288q0 -65 -45 -110t-110 -45t-110.5 45t-45.5 110q0 64 45.5 109t110.5 45t110 -44.5t45 -109.5zM805 -25q-167 0 -199 158
q-129 -158 -291 -158q-119 0 -201 65t-81 181q0 322 571 391v136q0 115 -64.5 177t-177.5 62q-54 0 -120 -20q78 -15 120 -63q42 -49 41 -112q0 -67 -51.5 -114t-118.5 -47q-71 0 -119 45.5t-48 116.5q0 123 133 199q132 75 345 77q97 0 172 -17.5t135 -57t92 -110.5
t32 -171v-422q1 -53 5 -80.5t17.5 -53.5t42 -39t76.5 -20v-8q-62 -49 -149.5 -82t-161.5 -33zM545 563q-57 0 -101 -62q-44 -63 -43 -159q0 -99 40 -149q41 -51 84 -51q46 0 79 16v395q-39 10 -59 10z" />
    <glyph glyph-name="uni01E0" unicode="&#x1e0;" horiz-adv-x="1638" 
d="M1096 2109v-163h-553v163h553zM820 1526q-69 0 -118 49.5t-49 118.5t48 116.5t118 49.5q69 0 118.5 -48.5t49.5 -117.5t-49 -118.5t-118 -49.5zM494 610h421l-210 631zM1628 8v-8h-710v8q70 13 100 39t29 99q0 76 -82 319l-21 57h-479q-80 -248 -80 -341q0 -47 8.5 -76.5
t30 -48.5t49 -29t74.5 -19v-8h-539v8q77 17 120 52q88 71 241 503l297 850h344l336 -948q127 -357 198 -418q32 -27 84 -39z" />
    <glyph glyph-name="uni01E1" unicode="&#x1e1;" horiz-adv-x="1097" 
d="M825 1700v-164h-553v164h553zM550 1137q-69 0 -118 49.5t-49 118.5q0 70 48 117.5t118 47.5q69 0 118.5 -48.5t49.5 -117.5q0 -68 -49.5 -117.5t-117.5 -49.5zM805 -25q-167 0 -199 158q-129 -158 -291 -158q-119 0 -201 65t-81 181q0 322 571 391v136q0 115 -64.5 177
t-177.5 62q-54 0 -120 -20q78 -15 120 -63q42 -49 41 -112q0 -67 -51.5 -114t-118.5 -47q-71 0 -119 45.5t-48 116.5q0 123 133 199q132 75 345 77q97 0 172 -17.5t135 -57t92 -110.5t32 -171v-422q1 -53 5 -80.5t17.5 -53.5t42 -39t76.5 -20v-8q-62 -49 -149.5 -82
t-161.5 -33zM545 563q-57 0 -101 -62q-44 -63 -43 -159q0 -99 40 -149q41 -51 84 -51q46 0 79 16v395q-39 10 -59 10z" />
    <glyph glyph-name="uni01E2" unicode="&#x1e2;" horiz-adv-x="2076" 
d="M1473 1700v-164h-553v164h553zM580 610h393v705zM1956 0h-1129v8q92 42 119 100t27 179v235h-443q-198 -367 -118 -456q35 -42 125 -58v-8h-545v8q99 19 173 114q70 90 269 441l324 572q113 201 -146 270v8h1284v-389h-14q-79 120 -100 150q-34 48 -80.5 92.5t-89.5 57.5
t-115 13h-135v-573h156q94 0 153 43t119 135h14v-424h-14q-55 85 -117.5 127.5t-154.5 42.5h-156v-612h145q74 0 116.5 14t110.5 55q32 20 128 135q94 112 120 144h15z" />
    <glyph glyph-name="uni01E3" unicode="&#x1e3;" horiz-adv-x="1492" 
d="M1022 1352v-164h-553v164h553zM1153 645v121q0 192 -40 222q-19 16 -50 16t-56 -18q-67 -48 -67 -378v-8zM596 504v49q-39 10 -59 10q-57 0 -101 -62q-44 -64 -43 -159q0 -97 48 -140q49 -44 110 -44q63 0 119 28q-74 131 -74 318zM1464 561h-524q17 -362 294 -362
q136 0 249 90l8 -6q-45 -76 -83 -125.5t-90 -94t-118 -65.5t-149 -21q-236 0 -359 173q-208 -173 -364 -175q-76 0 -143.5 26.5t-113.5 84t-46 135.5q0 137 156 249q157 112 415 142v95q0 159 -111 239q-64 46 -138 46q-55 0 -114 -25q72 -13 117 -59t45 -116
q0 -67 -51.5 -114t-118.5 -47q-71 0 -119.5 46t-48.5 116q0 123 133 199q132 75 322 77q188 0 274 -102q123 102 299 102q184 0 281.5 -103t97.5 -288v-117z" />
    <glyph glyph-name="uni01E4" unicode="&#x1e4;" horiz-adv-x="1605" 
d="M1466 436v-28h121v-93h-121v-254q-324 -92 -619 -92q-155 0 -293.5 51t-241 141t-162.5 222t-60 287q0 424 399 647q229 125 486 125t452 -86l13 -346h-8q-242 356 -482 356q-87 0 -156.5 -28t-116.5 -78.5t-80 -112.5t-51 -139t-26 -148.5t-8 -149.5q0 -316 120 -483
q120 -166 329 -166q82 0 135 13v241h-205v93h205v24q0 87 -29 135.5t-106 89.5v9h620v-9q-79 -40 -97 -78q-18 -37 -18 -143z" />
    <glyph glyph-name="uni01E5" unicode="&#x1e5;" horiz-adv-x="1003" 
d="M406 498q24 -72 83 -72t82 72q23 74 23 223q0 291 -106 291t-105 -291q-1 -150 23 -223zM604 -41h-315q-72 -41 -72 -129t66 -148q67 -60 191 -60q235 0 331 124h-273v92h306q-2 33 -19.5 57t-40 36t-57 18.5t-59 8t-58.5 1.5zM397 254h262q92 0 173 -31.5t136.5 -100.5
t55.5 -163q0 -61 -27 -121h232v-92h-295q-87 -92 -226.5 -134t-287.5 -42q-162 0 -315 72t-152 165q0 145 274 158q-184 31 -184 176q0 82 61 160t140 109q-213 80 -213 297q0 75 26 136.5t69.5 102.5t103 69.5t124.5 41t135 12.5q100 0 185 -22l373 18l-41 -139l-146 16
q84 -90 84 -221q0 -91 -39.5 -160.5t-106 -109t-144.5 -59t-165 -19.5q-140 0 -237 35q-6 -40 -9 -75t33 -57q37 -22 121 -22z" />
    <glyph glyph-name="Gcaron" unicode="&#x1e6;" horiz-adv-x="1605" 
d="M1239 1782l-190 -250h-199l-186 250h20l266 -107l269 107h20zM1466 436v-375q-324 -92 -619 -92q-155 0 -293.5 51t-241 141t-162.5 222t-60 287q0 424 399 647q229 125 486 125t452 -86l13 -346h-8q-242 356 -482 356q-87 0 -156.5 -28t-116.5 -78.5t-80 -112.5
t-51 -139t-26 -148.5t-8 -149.5q0 -316 120 -483q120 -166 329 -166q82 0 135 13v358q0 87 -29 135.5t-106 89.5v9h620v-9q-79 -40 -97 -78q-18 -37 -18 -143z" />
    <glyph glyph-name="gcaron" unicode="&#x1e7;" horiz-adv-x="1003" 
d="M821 1421l-190 -250h-199l-186 250h20l266 -106l269 106h20zM406 498q24 -72 83 -72t82 72q23 74 23 223q0 291 -106 291t-105 -291q-1 -150 23 -223zM604 -41h-315q-72 -41 -72 -129t66 -148t210 -60t244 64q101 65 101 138q0 27 -8.5 48.5t-20.5 35t-32.5 23.5
t-38.5 15.5t-45 8t-44.5 3.5t-44.5 1zM397 254h262q92 0 173 -31.5t136.5 -100.5t55.5 -163q0 -181 -179 -285t-383 -104t-357 72t-152 165q0 145 274 158q-184 31 -184 176q0 82 61 160t140 109q-213 80 -213 297q0 75 26 136.5t69.5 102.5t103 69.5t124.5 41t135 12.5
q100 0 185 -22l373 18l-41 -139l-146 16q84 -90 84 -221q0 -91 -39.5 -160.5t-106 -109t-144.5 -59t-165 -19.5q-140 0 -237 35q-6 -40 -9 -75t33 -57q37 -22 121 -22z" />
    <glyph glyph-name="uni01E8" unicode="&#x1e8;" horiz-adv-x="1593" 
d="M1028 1782l-190 -250h-199l-186 250h20l266 -107l269 107h20zM1599 8v-8h-765v8q32 14 48 22t36 25.5t32 40.5q28 54 -49 193l-209 362l-129 -141v-231q0 -118 26 -173t120 -98v-8h-680v8q94 44 119 97q26 55 26 174v856q0 118 -26 173q-25 53 -119 97v8h680v-8
q-95 -44 -120 -97q-26 -55 -26 -173v-519l379 451q218 260 -70 338v8h670v-8q-98 -36 -175.5 -84t-133.5 -98t-139 -138l-158 -172l418 -661q55 -89 109 -145t136 -99z" />
    <glyph glyph-name="uni01E9" unicode="&#x1e9;" horiz-adv-x="1284" 
d="M889 1864l-191 -250h-198l-187 250h21l266 -107l268 107h21zM633 8v-8h-604v8q73 41 92 96q20 57 20 175v817q0 134 -24 187q-25 52 -109 91v8q219 20 504 93h8v-1196q0 -118 20 -175q20 -56 93 -96zM1331 8v-8h-297q-134 0 -183 33q-51 34 -130 190l-160 318l187 192
q69 72 73 125q6 56 -30 93q-37 37 -117 81v12h643v-12q-92 -24 -199.5 -88t-169.5 -133l-100 -113l285 -467q72 -119 111 -161q36 -39 87 -62z" />
    <glyph glyph-name="uni01EA" unicode="&#x1ea;" horiz-adv-x="1724" 
d="M655 139q85 -94 207 -94t207 94q164 179 164 566q0 64 -6.5 130t-21 143.5t-43 144t-67.5 122.5t-99 88.5t-134 32.5q-63 0 -116.5 -25t-91 -65.5t-66.5 -97.5t-47 -116t-29 -125.5t-15.5 -122.5t-4.5 -109q0 -387 163 -566zM830 -428q-58 0 -101 39.5t-43 97.5
q0 123 242 264q-40 -4 -66 -4q-145 0 -284 49.5t-255 141.5q-114 90 -184 232t-69 313q0 220 121 392q118 165 293 255t378 90q154 0 298.5 -56t253.5 -152t175 -234.5t66 -294.5q0 -301 -202 -497q-203 -196 -480 -231q-84 -121 -84 -231q0 -30 23.5 -52.5t53.5 -22.5
q14 0 38 7v-8q-23 -43 -73.5 -70.5t-100.5 -27.5z" />
    <glyph glyph-name="uni01EB" unicode="&#x1eb;" 
d="M602 39q105 0 135 142q29 145 29 341q0 482 -164 484q-164 0 -164 -484q0 -362 78 -445q35 -38 86 -38zM548 -428q-59 0 -102 39.5t-43 97.5q0 125 254 271l-55 -5q-241 0 -397.5 155.5t-155.5 395.5q0 242 160 393t393 151q152 0 278 -67t200.5 -189.5t74.5 -275.5
q0 -230 -129 -377q-129 -148 -332 -177q-88 -121 -88 -238q0 -30 23.5 -52.5t53.5 -22.5q13 0 38 7v-8q-24 -43 -73.5 -70.5t-99.5 -27.5z" />
    <glyph glyph-name="uni01EC" unicode="&#x1ec;" horiz-adv-x="1724" 
d="M1139 1720v-164h-553v164h553zM655 139q85 -94 207 -94t207 94q164 179 164 566q0 64 -6.5 130t-21 143.5t-43 144t-67.5 122.5t-99 88.5t-134 32.5q-63 0 -116.5 -25t-91 -65.5t-66.5 -97.5t-47 -116t-29 -125.5t-15.5 -122.5t-4.5 -109q0 -387 163 -566zM830 -428
q-58 0 -101 39.5t-43 97.5q0 123 242 264q-40 -4 -66 -4q-145 0 -284 49.5t-255 141.5q-114 90 -184 232t-69 313q0 220 121 392q118 165 293 255t378 90q154 0 298.5 -56t253.5 -152t175 -234.5t66 -294.5q0 -301 -202 -497q-203 -196 -480 -231q-84 -121 -84 -231
q0 -30 23.5 -52.5t53.5 -22.5q14 0 38 7v-8q-23 -43 -73.5 -70.5t-100.5 -27.5z" />
    <glyph glyph-name="uni01ED" unicode="&#x1ed;" 
d="M879 1352v-164h-553v164h553zM602 39q105 0 135 142q29 145 29 341q0 482 -164 484q-164 0 -164 -484q0 -362 78 -445q35 -38 86 -38zM548 -428q-59 0 -102 39.5t-43 97.5q0 125 254 271l-55 -5q-241 0 -397.5 155.5t-155.5 395.5q0 242 160 393t393 151q152 0 278 -67
t200.5 -189.5t74.5 -275.5q0 -230 -129 -377q-129 -148 -332 -177q-88 -121 -88 -238q0 -30 23.5 -52.5t53.5 -22.5q13 0 38 7v-8q-24 -43 -73.5 -70.5t-99.5 -27.5z" />
    <glyph glyph-name="uni01EE" unicode="&#x1ee;" horiz-adv-x="1269" 
d="M924 1782l-191 -250h-198l-187 250h21l266 -107l268 107h21zM707 1124h-576v289h946v-8l-389 -453q91 -18 172 -58.5t146 -99.5t103 -142t38 -177q1 -119 -61 -220q-84 -135 -248 -210.5t-334 -75.5q-224 0 -339 84q-116 84 -116 209q0 83 55 136.5t138 53.5t138.5 -54.5
t55.5 -137.5q0 -111 -98 -188q47 -24 100 -23q82 0 180 57q75 45 116.5 130.5t41.5 177.5q0 166 -110 240q-94 63 -221 63q-14 0 -42 -2l-14 24z" />
    <glyph glyph-name="uni01EF" unicode="&#x1ef;" horiz-adv-x="1120" 
d="M848 1413l-191 -250h-198l-187 250h21l266 -106l268 106h21zM686 756h-575v288h946v-8l-389 -452q182 -36 300 -161t118 -305q0 -169 -101 -290q-93 -111 -224.5 -169t-279.5 -58q-221 0 -337 84q-116 85 -115 209q0 82 54.5 136t137.5 54q89 0 142 -58.5t53 -148.5
q0 -97 -99 -174q45 -21 91 -21q85 0 172 69q135 108 135 285q0 176 -92 250q-80 62 -199 62q-13 0 -41 -2l-14 25z" />
    <glyph glyph-name="jcaron" unicode="&#x1f0;" horiz-adv-x="616" 
d="M596 1413l-190 -250h-199l-187 250h21l266 -106l268 106h21zM133 37v653q0 136 -24 188q-25 52 -109 91v8q216 19 504 92h8v-868q0 -101 -43 -201t-115 -175q-147 -153 -409 -255l-6 12q66 41 111.5 122.5t64 165.5t18.5 167z" />
    <glyph glyph-name="uni01F1" unicode="&#x1f1;" horiz-adv-x="2754" 
d="M2685 0h-1151v8l723 1329h-209q-120 0 -209 -62q-86 -59 -268 -251h-8l41 389h1101v-8l-714 -1329h229q76 0 113 6q50 8 107.5 51t104.5 94q55 61 171 203h10zM758 0h-729v8q94 42 119 100q26 60 26 179v848q0 118 -26 173q-25 53 -119 97v8h749q336 0 557 -170t221 -485
q0 -237 -102 -410t-281 -260.5t-415 -87.5zM563 1337v-1261h148q98 0 176 39.5t126.5 103t80.5 149t45 170t14 174.5q0 281 -121 453t-297 172h-172z" />
    <glyph glyph-name="uni01F2" unicode="&#x1f2;" horiz-adv-x="2600" 
d="M2511 0h-975v10l571 957h-182q-72 0 -172 -82l-178 -148h-10l41 307h946v-12l-561 -954h231q28 0 94 51q59 45 226 197h10zM758 0h-729v8q94 42 119 100q26 60 26 179v848q0 118 -26 173q-25 53 -119 97v8h749q336 0 557 -170t221 -485q0 -237 -102 -410t-281 -260.5
t-415 -87.5zM563 1337v-1261h148q98 0 176 39.5t126.5 103t80.5 149t45 170t14 174.5q0 281 -121 453t-297 172h-172z" />
    <glyph glyph-name="uni01F3" unicode="&#x1f3;" horiz-adv-x="2304" 
d="M2214 0h-975v10l571 957h-182q-72 0 -172 -82l-178 -148h-10l41 307h946v-12l-561 -954h231q27 0 93 51t227 197h10zM627 1014q-95 0 -151 -129q-56 -130 -56 -319q0 -45 4 -88t13 -93.5t27.5 -92t44.5 -76.5t67 -55t92 -20q39 2 75 19v784q-43 70 -116 70zM752 -25h-9
v162q-131 -162 -299 -162q-168 -1 -282 137q-114 139 -113 376q2 239 149 409q148 172 398 172q57 0 147 -12v39q0 134 -24 187q-25 52 -109 91v8q206 18 496 93h8v-1121q0 -134 24 -187q24 -52 109 -91v-8q-207 -18 -495 -93z" />
    <glyph glyph-name="uni01F4" unicode="&#x1f4;" horiz-adv-x="1605" 
d="M780 1532h-22q114 142 149 250h262q-192 -173 -389 -250zM1466 436v-375q-324 -92 -619 -92q-155 0 -293.5 51t-241 141t-162.5 222t-60 287q0 424 399 647q229 125 486 125t452 -86l13 -346h-8q-242 356 -482 356q-87 0 -156.5 -28t-116.5 -78.5t-80 -112.5t-51 -139
t-26 -148.5t-8 -149.5q0 -316 120 -483q120 -166 329 -166q82 0 135 13v358q0 87 -29 135.5t-106 89.5v9h620v-9q-79 -40 -97 -78q-18 -37 -18 -143z" />
    <glyph glyph-name="uni01F5" unicode="&#x1f5;" horiz-adv-x="1003" 
d="M385 1178h-23q112 141 150 249h262q-193 -172 -389 -249zM406 498q24 -72 83 -72t82 72q23 74 23 223q0 291 -106 291t-105 -291q-1 -150 23 -223zM604 -41h-315q-72 -41 -72 -129t66 -148t210 -60t244 64q101 65 101 138q0 27 -8.5 48.5t-20.5 35t-32.5 23.5t-38.5 15.5
t-45 8t-44.5 3.5t-44.5 1zM397 254h262q92 0 173 -31.5t136.5 -100.5t55.5 -163q0 -181 -179 -285t-383 -104t-357 72t-152 165q0 145 274 158q-184 31 -184 176q0 82 61 160t140 109q-213 80 -213 297q0 75 26 136.5t69.5 102.5t103 69.5t124.5 41t135 12.5q100 0 185 -22
l373 18l-41 -139l-146 16q84 -90 84 -221q0 -91 -39.5 -160.5t-106 -109t-144.5 -59t-165 -19.5q-140 0 -237 35q-6 -40 -9 -75t33 -57q37 -22 121 -22z" />
    <glyph glyph-name="uni01F6" unicode="&#x1f6;" horiz-adv-x="2467" 
d="M1968 274v492q0 117 -20 174q-20 56 -93 96v8h484v-747q0 -318 -596 -320q-50 0 -100 2.5t-116.5 11t-124 22.5t-115.5 38.5t-99 57t-66.5 81t-25.5 107.5v381h-533v-391q0 -117 26.5 -176t119.5 -103v-8h-680v8q94 42 119 100q26 60 26 179v848q0 118 -26 173
q-25 53 -119 97v8h680v-8q-95 -44 -120 -97q-26 -55 -26 -173v-365h533v365q0 118 -26 173q-25 53 -120 97v8h680v-8q-95 -44 -120 -97q-26 -56 -25 -173v-834q0 -209 258 -209q99 0 162 44t63 138z" />
    <glyph glyph-name="uni01F7" unicode="&#x1f7;" horiz-adv-x="1271" 
d="M846 858q0 65 -9.5 129t-32.5 134t-72 113.5t-118 43.5q-43 0 -92 -25v-1310q186 116 255 307q69 192 69 608zM143 -152v1213q0 135 -24 187q-25 52 -109 91v9q216 19 504 92h8v-164q158 164 314 164q81 0 147 -27.5t110 -74t73.5 -110t42.5 -133t13 -145.5
q0 -385 -117 -612q-34 -66 -88.5 -126t-124.5 -110.5t-133 -88t-141 -77.5q-82 -42 -96 -51v-247l-491 -68v8q73 41 92 96q20 57 20 174z" />
    <glyph glyph-name="uni01F8" unicode="&#x1f8;" horiz-adv-x="1701" 
d="M1042 1532h-22q-197 77 -389 250h262q35 -108 149 -250zM1485 930v-930h-156l-989 1126v-634q0 -324 78 -408q39 -42 108 -76v-8h-493v8q71 33 109 76q78 88 77 408v643q0 72 -20 121.5t-58.5 83t-105.5 65.5v8h530l799 -899v416q0 312 -78 401q-35 40 -108 74v8h493v-8
q-73 -34 -109 -74q-79 -89 -77 -401z" />
    <glyph glyph-name="uni01F9" unicode="&#x1f9;" horiz-adv-x="1280" 
d="M889 1163h-23q-197 77 -389 250h262q37 -109 150 -250zM1264 8v-8h-596v8q73 41 92 96q20 57 20 175v452q0 74 -39.5 123t-112.5 49q-62 0 -108 -12v-612q0 -118 20 -175q20 -56 93 -96v-8h-596v8q73 41 92 96q20 56 21 175v411q0 137 -25 188q-25 52 -109 91v8
q203 18 496 92h8v-158q67 76 160.5 117t195.5 41q114 0 194 -80q81 -79 81 -258v-452q0 -118 20 -175q19 -56 93 -96z" />
    <glyph glyph-name="Aringacute" unicode="&#x1fa;" horiz-adv-x="1640" 
d="M659 1757h-22q114 142 149 250h263q-194 -173 -390 -250zM819 1331q62 0 107 47t45 110t-44.5 110.5t-106.5 47.5t-107 -48t-45 -110t45 -110t106 -47zM494 610h421l-210 631zM1630 8v-8h-712v8q80 17 108 49q53 65 -61 408l-21 57h-479q-103 -314 -73 -409q7 -23 19 -40
t24.5 -27.5t32.5 -18t36 -11t43 -8.5v-8h-539v8q77 17 120 52q88 71 241 503l262 754q-68 73 -68 174q0 103 76 176.5t180 73.5q101 0 178.5 -72t77.5 -172q0 -97 -55 -164l307 -868q40 -116 100.5 -247t113.5 -171q35 -26 89 -39z" />
    <glyph glyph-name="aringacute" unicode="&#x1fb;" horiz-adv-x="1097" 
d="M383 1614h-23q113 141 150 250h262q-192 -173 -389 -250zM535 1243q49 0 82.5 36.5t35.5 86.5q0 49 -35 86t-84 37t-83.5 -37t-34.5 -86t35 -86t84 -37zM748 1366q0 -86 -63.5 -147t-149.5 -61q-87 0 -150 60.5t-63 147.5q0 86 62.5 147t149.5 61q88 0 151 -60.5
t63 -147.5zM805 -25q-167 0 -199 158q-129 -158 -291 -158q-119 0 -201 65t-81 181q0 322 571 391v136q0 115 -64.5 177t-177.5 62q-54 0 -120 -20q78 -15 120 -63q42 -49 41 -112q0 -67 -51.5 -114t-118.5 -47q-71 0 -119 45.5t-48 116.5q0 123 133 199q132 75 345 77
q97 0 172 -17.5t135 -57t92 -110.5t32 -171v-422q1 -53 5 -80.5t17.5 -53.5t42 -39t76.5 -20v-8q-62 -49 -149.5 -82t-161.5 -33zM545 563q-57 0 -101 -62q-44 -63 -43 -159q0 -99 40 -149q41 -51 84 -51q46 0 79 16v395q-39 10 -59 10z" />
    <glyph glyph-name="AEacute" unicode="&#x1fc;" horiz-adv-x="2076" 
d="M1090 1532h-23q113 141 150 250h262q-192 -173 -389 -250zM580 610h393v705zM1956 0h-1129v8q92 42 119 100t27 179v235h-443q-198 -367 -118 -456q35 -42 125 -58v-8h-545v8q99 19 173 114q70 90 269 441l324 572q113 201 -146 270v8h1284v-389h-14q-79 120 -100 150
q-34 48 -80.5 92.5t-89.5 57.5t-115 13h-135v-573h156q94 0 153 43t119 135h14v-424h-14q-55 85 -117.5 127.5t-154.5 42.5h-156v-612h145q74 0 116.5 14t110.5 55q32 20 128 135q94 112 120 144h15z" />
    <glyph glyph-name="aeacute" unicode="&#x1fd;" horiz-adv-x="1492" 
d="M639 1163h-23q113 141 150 250h262q-192 -173 -389 -250zM1153 645v121q0 192 -40 222q-19 16 -50 16t-56 -18q-67 -48 -67 -378v-8zM596 504v49q-39 10 -59 10q-57 0 -101 -62q-44 -64 -43 -159q0 -97 48 -140q49 -44 110 -44q63 0 119 28q-74 131 -74 318zM1464 561
h-524q17 -362 294 -362q136 0 249 90l8 -6q-45 -76 -83 -125.5t-90 -94t-118 -65.5t-149 -21q-236 0 -359 173q-208 -173 -364 -175q-76 0 -143.5 26.5t-113.5 84t-46 135.5q0 137 156 249q157 112 415 142v95q0 159 -111 239q-64 46 -138 46q-55 0 -114 -25q72 -13 117 -59
t45 -116q0 -67 -51.5 -114t-118.5 -47q-71 0 -119.5 46t-48.5 116q0 123 133 199q132 75 322 77q188 0 274 -102q123 102 299 102q184 0 281.5 -103t97.5 -288v-117z" />
    </font>
</defs>
</svg>
