<?xml version="1.0" standalone="no"?>
<!DOCTYPE svg PUBLIC "-//W3C//DTD SVG 1.1//EN" "http://www.w3.org/Graphics/SVG/1.1/DTD/svg11.dtd" >
<svg xmlns="http://www.w3.org/2000/svg" xmlns:xlink="http://www.w3.org/1999/xlink" version="1.1">
<metadata>
Created by FontForge 20170731 at Thu Mar 21 20:30:03 2019
 By Aleksey,,,
Copyright (c) 2013 by Jonas Hecksher, Playtype, e-Types AS. All rights reserved.
</metadata>
<defs>
<font id="BerlingskeSerif-Lt" horiz-adv-x="1167" >
  <font-face 
    font-family="BerlingskeSerif-Lt"
    font-weight="300"
    font-stretch="normal"
    units-per-em="2048"
    panose-1="2 0 3 3 8 0 0 2 0 4"
    ascent="1638"
    descent="-410"
    x-height="1044"
    cap-height="1413"
    bbox="-737 -551 3596 2036"
    underline-thickness="102"
    underline-position="-510"
    unicode-range="U+0020-FB06"
  />
<missing-glyph horiz-adv-x="1116" 
d="M1116 1413v-1413h-1116v1413h1116zM924 662q-61 0 -62 61v297h101v51h-101v119h-8q-71 -91 -152 -141l-34 -21v-8h43v-289q0 -143 127 -143q80 0 137 78l-4 8q-19 -12 -47 -12zM135 596h277v8q-43 17 -54.5 42.5t-11.5 78.5v143h64q105 0 169 46t64 147q0 178 -225 178
h-283v-8q31 -12 40 -35q9 -22 9 -80v-397q0 -63 -7 -81q-8 -21 -42 -34v-8zM379 903h-33v299h41q94 0 94 -150q0 -75 -25.5 -112.5t-76.5 -36.5z" />
    <glyph glyph-name="f_f" unicode="ff" horiz-adv-x="1204" 
d="M1126 8v-8h-446v8q90 28 120 77t29 173v737h-202l20 49h182v142q0 358 326 358q87 0 142 -35q55 -34 55 -81q0 -42 -25.5 -70t-67.5 -29q-41 0 -64.5 25.5t-25.5 67.5q0 44 56 83q-29 8 -58 8q-54 0 -93 -17t-61.5 -43t-35.5 -67t-17 -80t-4 -92v-170h236v-49h-236v-737
q0 -126 32 -175q32 -48 138 -75zM524 8v-8h-446v8q90 28 120 77t29 173v737h-202l20 49h182v142q0 358 326 358q87 0 142 -35q55 -34 55 -81q0 -42 -25.5 -70t-67.5 -29q-41 0 -64.5 25.5t-25.5 67.5q0 44 56 83q-29 8 -58 8q-54 0 -93 -17t-61.5 -43t-35.5 -67t-17 -80
t-4 -92v-170h236v-49h-236v-737q0 -126 32 -175q32 -48 138 -75z" />
    <glyph glyph-name="f_f_i" unicode="ffi" horiz-adv-x="1755" 
d="M1702 8v-8h-420v8q43 13 69 26t43.5 27.5t25 39.5t10 51.5t2.5 74.5v545q0 60 -6 96.5t-24 68t-54.5 45t-94.5 13.5h-297v-737q0 -126 32 -175q32 -48 138 -75v-8h-446v8q90 28 120 77t29 173v737h-202l20 49h182v142q0 207 139 288q119 70 274 70q34 0 65.5 -1.5
t80 -9.5t83 -21t60 -39.5t25.5 -61.5q0 -39 -28 -65.5t-67 -26.5q-40 0 -63.5 25.5t-23.5 66.5q0 45 56 84q-40 18 -160 18q-312 0 -314 -299v-170h318q219 0 270 25h8v-842q0 -121 27 -155q26 -34 123 -64zM524 8v-8h-446v8q90 28 120 77t29 173v737h-202l20 49h182v142
q0 358 326 358q87 0 142 -35q55 -34 55 -81q0 -42 -25.5 -70t-67.5 -29q-41 0 -64.5 25.5t-25.5 67.5q0 44 56 83q-29 8 -58 8q-54 0 -93 -17t-61.5 -43t-35.5 -67t-17 -80t-4 -92v-170h236v-49h-236v-737q0 -126 32 -175q32 -48 138 -75z" />
    <glyph glyph-name="f_f_l" unicode="ffl" horiz-adv-x="1740" 
d="M524 8v-8h-446v8q90 28 120 77t29 173v737h-202l20 49h182v142q0 358 326 358q87 0 142 -35q55 -34 55 -81q0 -42 -25.5 -70t-67.5 -29q-41 0 -64.5 25.5t-25.5 67.5q0 44 56 83q-29 8 -58 8q-54 0 -93 -17t-61.5 -43t-35.5 -67t-17 -80t-4 -92v-170h236v-49h-236v-737
q0 -126 32 -175q32 -48 138 -75zM1702 8v-8h-426v8q95 28 123 64q27 35 26 153v1098q-13 -4 -37 -4q-22 -1 -49 23t-27 69t56 84q-39 18 -119 18q-293 0 -293 -299v-170h236v-49h-236v-737q0 -126 32 -175q32 -48 138 -75v-8h-446v8q90 28 120 77t29 173v737h-202l20 49h182
v142q0 358 408 358q152 0 213 -43q46 17 94 43h8v-1319q0 -47 2.5 -74t10.5 -51t25.5 -38.5t43 -27.5t68.5 -26z" />
    <glyph glyph-name="f_b" unicode="fb" horiz-adv-x="1880" 
d="M1507 154q127 139 127 368q0 228 -114 350q-114 121 -275 123q-162 0 -295 -100v-832q38 -19 116.5 -33t131.5 -16q181 0 309 140zM786 1319q-22 -1 -49 23t-27 69t56 84q-39 18 -119 18q-293 0 -293 -299v-170h236v-49h-236v-737q0 -126 32 -175q32 -48 138 -75v-8h-446
v8q90 28 120 77t29 173v737h-202l20 49h182v142q0 358 408 358q152 0 213 -43q46 17 94 43h8v-620q157 145 383 145q179 0 311 -133t132 -350q0 -138 -47 -262t-144 -204q-175 -145 -403 -145q-76 0 -180.5 15.5t-178.5 38.5v1294q-13 -4 -37 -4z" />
    <glyph glyph-name="f_h" unicode="fh" horiz-adv-x="1812" 
d="M1774 8v-8h-420v8q95 28 123 67q28 38 26 163v477q1 135 -69 201t-194 67q-124 0 -290 -96v-649q0 -126 27 -163q28 -39 123 -67v-8h-426v8q95 28 123 67q28 38 26 163v1085q-13 -4 -37 -4q-22 -1 -49 23t-27 69t56 84q-39 18 -119 18q-293 0 -293 -299v-170h236v-49
h-236v-737q0 -126 32 -175q32 -48 138 -75v-8h-446v8q90 28 120 77t29 173v737h-202l20 49h182v142q0 358 408 358q152 0 213 -43q46 17 94 43h8v-633q206 158 377 158q131 0 214 -84q83 -85 83 -266v-481q0 -126 27 -163q28 -39 123 -67z" />
    <glyph glyph-name="f_i" unicode="fi" horiz-adv-x="1153" 
d="M1100 8v-8h-420v8q95 28 123 64q27 35 26 155v545q0 130 -36 176q-38 47 -142 47h-297v-737q0 -126 32 -175q32 -48 138 -75v-8h-446v8q90 28 120 77t29 173v737h-202l20 49h182v142q0 207 139 288q119 70 274 70q34 0 65.5 -1.5t80 -9.5t83 -21t60 -39.5t25.5 -61.5
q0 -39 -28 -65.5t-67 -26.5q-40 0 -63.5 25.5t-23.5 66.5q0 45 55 84q-41 18 -159 18q-312 0 -314 -299v-170h318q219 0 270 25h8v-842q0 -121 27 -155q26 -34 123 -64z" />
    <glyph glyph-name="f_j" unicode="fj" horiz-adv-x="1153" 
d="M829 -86v858q0 130 -36 176q-38 47 -142 47h-297v-737q0 -126 32 -175q32 -48 138 -75v-8h-446v8q90 28 120 77t29 173v737h-202l20 49h182v142q0 207 139 288q119 70 274 70q34 0 65.5 -1.5t80 -9.5t83 -21t60 -39.5t25.5 -61.5q0 -39 -28 -65.5t-67 -26.5
q-40 0 -63.5 25.5t-23.5 66.5q0 45 55 84q-41 18 -159 18q-312 0 -314 -299v-170h318q225 0 276 25h8v-1075q1 -376 -278 -486l-6 11q58 35 95 107t49.5 143t12.5 145z" />
    <glyph glyph-name="f_k" unicode="fk" horiz-adv-x="1775" 
d="M1796 8v-8h-168q-89 0 -110 8q-24 9 -30 10q-11 1 -26 16q-12 12 -22 20q-7 4 -27 29q-18 24 -29 35q-10 10 -36 45q-33 42 -43 54l-279 344l193 178q76 69 125 122q95 104 30 139q-34 19 -119 30v14h498v-8q-167 -39 -399 -239l-207 -181l326 -385q68 -83 135 -133
q54 -39 90.5 -57t97.5 -33zM1100 8v-8h-426v8q95 28 123 64q27 35 26 153v1098q-13 -4 -37 -4q-22 -1 -49 23t-27 69t56 84q-39 18 -119 18q-293 0 -293 -299v-170h236v-49h-236v-737q0 -126 32 -175q32 -48 138 -75v-8h-446v8q90 28 120 77t29 173v737h-202l20 49h182v142
q0 358 408 358q152 0 213 -43q46 17 94 43h8v-1319q0 -47 2.5 -74t10.5 -51t25.5 -38.5t43 -27.5t68.5 -26z" />
    <glyph glyph-name="f_l" unicode="fl" horiz-adv-x="1138" 
d="M1100 8v-8h-426v8q95 28 123 64q27 35 26 153v1098q-13 -4 -37 -4q-22 -1 -49 23t-27 69t56 84q-39 18 -119 18q-293 0 -293 -299v-170h236v-49h-236v-737q0 -126 32 -175q32 -48 138 -75v-8h-446v8q90 28 120 77t29 173v737h-202l20 49h182v142q0 358 408 358
q152 0 213 -43q46 17 94 43h8v-1319q0 -47 2.5 -74t10.5 -51t25.5 -38.5t43 -27.5t68.5 -26z" />
    <glyph glyph-name="f_t" unicode="ft" horiz-adv-x="1251" 
d="M1006 -16q-211 0 -211 268v743h-441v-737q0 -126 32 -175q32 -48 138 -75v-8h-446v8q90 28 120 77t29 173v737h-202l20 49h182v142q0 358 326 358q87 0 142 -35q55 -34 55 -81q0 -42 -25.5 -70t-67.5 -29q-41 0 -64.5 25.5t-25.5 67.5q0 44 56 83q-29 8 -58 8
q-54 0 -93 -17t-61.5 -43t-35.5 -67t-17 -80t-4 -92v-170h422q45 38 69 78t66 168h9v-246h292v-49h-292v-735q0 -122 71 -169q36 -23 105 -21q71 2 172 28l8 -10q-151 -104 -270 -104z" />
    <glyph glyph-name="f_f_b" unicode="ffb" horiz-adv-x="2482" 
d="M524 8v-8h-446v8q90 28 120 77t29 173v737h-202l20 49h182v142q0 358 326 358q87 0 142 -35q55 -34 55 -81q0 -42 -25.5 -70t-67.5 -29q-41 0 -64.5 25.5t-25.5 67.5q0 44 56 83q-29 8 -58 8q-54 0 -93 -17t-61.5 -43t-35.5 -67t-17 -80t-4 -92v-170h236v-49h-236v-737
q0 -126 32 -175q32 -48 138 -75zM2109 154q127 139 127 368q0 228 -114 350q-114 121 -275 123q-162 0 -295 -100v-832q38 -19 116.5 -33t131.5 -16q181 0 309 140zM1388 1319q-22 -1 -49 23t-27 69t56 84q-39 18 -119 18q-293 0 -293 -299v-170h236v-49h-236v-737
q0 -126 32 -175q32 -48 138 -75v-8h-446v8q90 28 120 77t29 173v737h-202l20 49h182v142q0 358 408 358q152 0 213 -43q46 17 94 43h8v-620q157 145 383 145q179 0 311 -133t132 -350q0 -137 -47 -261t-143 -205q-177 -146 -404 -145q-76 0 -180.5 15.5t-178.5 38.5v1294
q-13 -4 -37 -4z" />
    <glyph glyph-name="f_f_f" unicode="fff" horiz-adv-x="1806" 
d="M1729 8v-8h-447v8q41 13 68.5 30.5t44 36.5t24.5 49.5t10.5 59t2.5 74.5v737h-203l20 49h183v142q0 358 325 358q88 0 143 -35q54 -35 54 -81q0 -42 -25.5 -70t-66.5 -29q-36 0 -64 24q-26 26 -26 69q0 44 55 83q-29 8 -58 8q-54 0 -93 -17t-61.5 -43t-35 -67t-16.5 -80
t-4 -92v-170h235v-49h-235v-737q-1 -126 31 -175q31 -48 139 -75zM1126 8v-8h-446v8q90 28 120 77t29 173v737h-202l20 49h182v142q0 358 326 358q87 0 142 -35q55 -34 55 -81q0 -42 -25.5 -70t-67.5 -29q-41 0 -64.5 25.5t-25.5 67.5q0 44 56 83q-29 8 -58 8q-54 0 -93 -17
t-61.5 -43t-35.5 -67t-17 -80t-4 -92v-170h236v-49h-236v-737q0 -126 32 -175q32 -48 138 -75zM524 8v-8h-446v8q90 28 120 77t29 173v737h-202l20 49h182v142q0 358 326 358q87 0 142 -35q55 -34 55 -81q0 -42 -25.5 -70t-67.5 -29q-41 0 -64.5 25.5t-25.5 67.5q0 44 56 83
q-29 8 -58 8q-54 0 -93 -17t-61.5 -43t-35.5 -67t-17 -80t-4 -92v-170h236v-49h-236v-737q0 -126 32 -175q32 -48 138 -75z" />
    <glyph glyph-name="f_f_h" unicode="ffh" horiz-adv-x="2414" 
d="M524 8v-8h-446v8q90 28 120 77t29 173v737h-202l20 49h182v142q0 358 326 358q87 0 142 -35q55 -34 55 -81q0 -42 -25.5 -70t-67.5 -29q-41 0 -64.5 25.5t-25.5 67.5q0 44 56 83q-29 8 -58 8q-54 0 -93 -17t-61.5 -43t-35.5 -67t-17 -80t-4 -92v-170h236v-49h-236v-737
q0 -126 32 -175q32 -48 138 -75zM2376 8v-8h-420v8q95 28 123 67q28 38 26 163v477q1 135 -69 201t-194 67q-124 0 -290 -96v-649q0 -126 27 -163q28 -39 123 -67v-8h-426v8q95 28 123 67q28 38 26 163v1085q-13 -4 -37 -4q-22 -1 -49 23t-27 69t56 84q-39 18 -119 18
q-293 0 -293 -299v-170h236v-49h-236v-737q0 -126 32 -175q32 -48 138 -75v-8h-446v8q90 28 120 77t29 173v737h-202l20 49h182v142q0 358 408 358q152 0 213 -43q46 17 94 43h8v-633q206 158 377 158q131 0 214 -84q83 -85 83 -266v-481q0 -126 27 -163q28 -39 123 -67z
" />
    <glyph glyph-name="f_f_j" unicode="ffj" horiz-adv-x="1755" 
d="M1432 -86v858q0 60 -6 96.5t-24 68t-54.5 45t-94.5 13.5h-297v-737q0 -126 32 -175q32 -48 138 -75v-8h-446v8q90 28 120 77t29 173v737h-202l20 49h182v142q0 207 139 288q119 70 274 70q34 0 65.5 -1.5t80 -9.5t83 -21t60 -39.5t25.5 -61.5q0 -39 -28 -65.5t-67 -26.5
q-40 0 -63.5 25.5t-23.5 66.5q0 45 56 84q-40 18 -160 18q-312 0 -314 -299v-170h318q225 0 276 25h9v-1075q0 -376 -279 -486l-6 11q58 36 95 107.5t50 142t13 145.5zM524 8v-8h-446v8q90 28 120 77t29 173v737h-202l20 49h182v142q0 358 326 358q87 0 142 -35
q55 -34 55 -81q0 -42 -25.5 -70t-67.5 -29q-41 0 -64.5 25.5t-25.5 67.5q0 44 56 83q-29 8 -58 8q-54 0 -93 -17t-61.5 -43t-35.5 -67t-17 -80t-4 -92v-170h236v-49h-236v-737q0 -126 32 -175q32 -48 138 -75z" />
    <glyph glyph-name="f_f_k" unicode="ffk" horiz-adv-x="2377" 
d="M2398 8v-8h-168q-90 0 -109 8q-24 9 -31 10q-11 1 -26 16q-12 12 -22 20q-7 4 -27 29q-21 28 -28 35q-8 8 -37 45q-33 42 -43 54l-279 344l193 178q84 78 125 122t53 82q12 37 -23 57q-34 19 -118 30v14h497v-8q-167 -39 -399 -239l-207 -181l326 -385q68 -83 135 -133
q54 -39 90.5 -57t97.5 -33zM524 8v-8h-446v8q90 28 120 77t29 173v737h-202l20 49h182v142q0 358 326 358q87 0 142 -35q55 -34 55 -81q0 -42 -25.5 -70t-67.5 -29q-41 0 -64.5 25.5t-25.5 67.5q0 44 56 83q-29 8 -58 8q-54 0 -93 -17t-61.5 -43t-35.5 -67t-17 -80t-4 -92
v-170h236v-49h-236v-737q0 -126 32 -175q32 -48 138 -75zM1702 8v-8h-426v8q95 28 123 64q27 35 26 153v1098q-13 -4 -37 -4q-22 -1 -49 23t-27 69t56 84q-39 18 -119 18q-293 0 -293 -299v-170h236v-49h-236v-737q0 -126 32 -175q32 -48 138 -75v-8h-446v8q90 28 120 77
t29 173v737h-202l20 49h182v142q0 358 408 358q152 0 213 -43q46 17 94 43h8v-1319q0 -47 2.5 -74t10.5 -51t25.5 -38.5t43 -27.5t68.5 -26z" />
    <glyph glyph-name=".notdef" horiz-adv-x="1116" 
d="M1116 1413v-1413h-1116v1413h1116zM924 662q-61 0 -62 61v297h101v51h-101v119h-8q-71 -91 -152 -141l-34 -21v-8h43v-289q0 -143 127 -143q80 0 137 78l-4 8q-19 -12 -47 -12zM135 596h277v8q-43 17 -54.5 42.5t-11.5 78.5v143h64q105 0 169 46t64 147q0 178 -225 178
h-283v-8q31 -12 40 -35q9 -22 9 -80v-397q0 -63 -7 -81q-8 -21 -42 -34v-8zM379 903h-33v299h41q94 0 94 -150q0 -75 -25.5 -112.5t-76.5 -36.5z" />
    <glyph glyph-name=".null" horiz-adv-x="0" 
 />
    <glyph glyph-name="nonmarkingreturn" horiz-adv-x="682" 
 />
    <glyph glyph-name="space" unicode=" " horiz-adv-x="430" 
 />
    <glyph glyph-name="exclam" unicode="!" horiz-adv-x="520" 
d="M375 84q0 -47 -34 -81t-81 -34t-81 34t-34 81t34 81t81 34t81 -34t34 -81zM178 1364q0 35 23.5 56.5t58.5 21.5t57.5 -21.5t22.5 -56.5q0 -100 -74 -991h-14q-74 891 -74 991z" />
    <glyph glyph-name="quotedbl" unicode="&#x22;" horiz-adv-x="804" 
d="M576 1442q32 0 58 -23t26 -55q0 -30 -36 -172q-33 -137 -38 -223h-21q-5 81 -39 223q-34 140 -34 173q0 32 25.5 54.5t58.5 22.5zM145 1365q0 32 26 54.5t59 22.5q32 0 58 -23t26 -55q0 -30 -36 -172q-33 -137 -38 -223h-21q-5 81 -39 223q-35 145 -35 173z" />
    <glyph glyph-name="numbersign" unicode="#" 
d="M416 547h278l56 319h-279zM336 479h-213v68h225l55 319h-280v68h293l84 479h67l-84 -479h279l84 479h67l-84 -479h215v-68h-227l-55 -319h282v-68h-294l-84 -479h-68l84 479h-279l-84 -479h-67z" />
    <glyph glyph-name="dollar" unicode="$" 
d="M299 1110q1 -60 20.5 -108.5t58.5 -86t79 -63.5t98 -55v567q-110 -2 -183.5 -73.5t-72.5 -180.5zM614 625v-615q114 18 186 96t72 191q0 119 -66 193t-192 135zM614 -27v-145h-59v141q-194 0 -381 80v340h8q54 -196 154 -287q100 -92 219 -96v647q-186 89 -246 135
q-125 101 -125 253q0 155 106.5 251.5t264.5 106.5v145h59v-143q124 -5 314 -78v-281h-8q-42 119 -119 206.5t-187 109.5v-590q73 -36 113 -54q31 -13 96 -56q173 -114 171 -287q-1 -171 -111 -275q-111 -102 -269 -123z" />
    <glyph glyph-name="percent" unicode="%" horiz-adv-x="1681" 
d="M1196 25q125 0 209 144q84 146 84 275q0 37 -4.5 73t-17 74.5t-32 67.5t-51.5 47.5t-73 18.5q-119 0 -198 -150q-79 -149 -79 -289q0 -261 162 -261zM1178 -25q-136 -1 -210.5 97.5t-74.5 239.5q0 154 119 306q118 154 282 154q124 0 192 -87t66 -214q0 -176 -103 -336
t-271 -160zM264 955q0 -261 167 -261q59 0 114 44t89 100.5t52 114.5q33 101 33 193q0 58 -17.5 112.5t-59.5 95.5t-101 41q-119 0 -198 -150q-79 -149 -79 -290zM1060 1264q-69 -39 -145 -39q-75 0 -151 32q18 -47 18 -137q0 -107 -47 -213t-126 -180q-88 -82 -209 -82
q-126 0 -201.5 94.5t-75.5 223.5q0 109 50 218.5t144.5 185t206.5 75.5q106 0 190 -81q82 -81 218 -81q49 0 97 19t94.5 57t76.5 67.5t72 75.5h82l-989 -1595h-78l876 1411l-6 4q-13 -7 -97 -55z" />
    <glyph glyph-name="ampersand" unicode="&#x26;" horiz-adv-x="1468" 
d="M866 1171q0 105 -57 161q-58 56 -138 56q-82 0 -134 -56t-54 -140q0 -194 129 -363q254 129 254 342zM254 446q0 -92 42 -180t121 -146.5t173 -58.5q138 0 311 168l-385 506q-150 -79 -207 -142q-55 -61 -55 -147zM1513 8v-8h-403q-77 60 -178 190q-230 -221 -445 -221
q-172 0 -277 128q-106 128 -106 267q0 138 78 210q77 71 283 184q12 6 27 14q-131 200 -132 338q0 145 90 238.5t234 93.5q135 0 215 -61t80 -191q0 -121 -88 -212q-89 -93 -254 -181l362 -459q207 249 190 398q-10 94 -161 106v8h481v-8q-81 -25 -151 -103
q-66 -73 -161 -218q-93 -141 -165 -224q113 -132 222 -203t259 -86z" />
    <glyph glyph-name="quotesingle" unicode="'" horiz-adv-x="458" 
d="M145 1365q0 32 26 54.5t59 22.5q32 0 58 -23t26 -55q0 -30 -36 -172q-33 -137 -38 -223h-21q-5 81 -39 223q-35 145 -35 173z" />
    <glyph glyph-name="parenleft" unicode="(" horiz-adv-x="710" 
d="M219 626q0 223 76.5 412t228.5 379q59 74 117 131h37q-145 -220 -230 -437q-86 -219 -86 -485q0 -268 84 -484q85 -218 232 -429h-37q-117 111 -198 239.5t-144 289.5q-80 207 -80 384z" />
    <glyph glyph-name="parenright" unicode=")" horiz-adv-x="710" 
d="M348 637q0 266 -84 482t-231 429h37q116 -110 197.5 -238.5t144.5 -289.5q80 -205 80 -384q0 -332 -171 -600q-129 -201 -251 -323h-37q144 216 230 439q85 219 85 485z" />
    <glyph glyph-name="asterisk" unicode="*" horiz-adv-x="796" 
d="M422 1063l231 -209l-116 -84l-136 285l-139 -285l-115 82l238 211l-326 53l50 133l280 -157l-55 323h143l-61 -323l280 157l43 -133z" />
    <glyph glyph-name="plus" unicode="+" 
d="M641 524v-393h-115v393h-368v107h368v393h115v-393h369v-107h-369z" />
    <glyph glyph-name="comma" unicode="," horiz-adv-x="393" 
d="M147 -55q1 27 -27 67t-28 84t30.5 72.5t74.5 28.5q47 0 73.5 -34t28.5 -83q0 -90 -77 -193t-165 -163l-6 4q96 123 96 217z" />
    <glyph glyph-name="hyphen" unicode="-" horiz-adv-x="595" 
d="M541 653v-116h-486v116h486z" />
    <glyph glyph-name="period" unicode="." horiz-adv-x="393" 
d="M311 84q0 -46 -34.5 -80.5t-80.5 -34.5t-80 34.5t-34 80.5t34 80.5t81 34.5q46 0 79 -34t35 -81z" />
    <glyph glyph-name="slash" unicode="/" horiz-adv-x="790" 
d="M776 1442l-692 -1473h-70l693 1473h69z" />
    <glyph glyph-name="zero" unicode="0" 
d="M584 4q74 0 132 52.5t90.5 129.5t53.5 176t28 179t7 153q0 66 -6.5 145t-27.5 183t-53.5 186t-90.5 140t-133 59q-57 0 -104.5 -34t-78 -83.5t-54.5 -115.5t-35.5 -119t-18.5 -106q-36 -264 -5 -474q5 -39 11.5 -76t19 -86t28 -90t39 -83t51 -70.5t65.5 -47t82 -18.5z
M584 -31q-77 0 -147 35.5t-120.5 95t-87 127t-58.5 141.5q-48 161 -48 326q0 176 52.5 339t159.5 285q109 124 249 124q76 0 145.5 -39t120 -102t87 -132.5t57.5 -141.5q50 -168 50 -333q0 -173 -49.5 -331t-154.5 -275q-108 -119 -256 -119z" />
    <glyph glyph-name="one" unicode="1" 
d="M872 8v-8h-510v8q141 28 179 73q37 43 37 198v942q-92 -67 -265 -125l-6 34q75 28 149.5 74.5t123.5 101.5q43 49 110 132h8v-1159q0 -151 32 -197q32 -45 142 -74z" />
    <glyph glyph-name="two" unicode="2" 
d="M1001 127v-127h-860v12l428 482q151 169 224 298q72 128 71 255q0 163 -102 243q-103 80 -224 80q-122 0 -202 -47q-81 -47 -115 -111q7 1 37 5q51 0 88 -30.5t37 -80.5q0 -48 -32 -79.5t-80 -31.5t-83 35t-34 86q0 101 119 214q121 112 311 112q88 0 164 -21.5
t135.5 -64.5t94 -113.5t34.5 -161.5q0 -80 -20 -134q-44 -119 -138 -225q-25 -28 -55 -63q-9 -10 -125 -133l-373 -399h700z" />
    <glyph glyph-name="three" unicode="3" 
d="M760 1288h-617v125h762v-8l-362 -528q189 -22 326 -129q135 -106 137 -291q0 -144 -68 -255.5t-183.5 -171.5t-258.5 -61q-156 0 -263 69q-106 69 -106 148q0 50 34 83.5t84 33.5q48 0 79.5 -29t31.5 -76q0 -45 -29 -79t-73 -45q78 -66 224 -66q145 0 266 104
q118 103 118 286q0 96 -34 168.5t-94 115.5t-137.5 64t-169.5 20h-13l-4 6z" />
    <glyph glyph-name="four" unicode="4" 
d="M1044 8v-8h-516v8q141 28 179 73q37 43 36 198v131h-671v8l704 1016h94v-930h193v-94h-193v-131q0 -151 32 -197q32 -45 142 -74zM197 504h546v792z" />
    <glyph glyph-name="five" unicode="5" 
d="M922 1413v-125h-570l-69 -538q148 137 321 137t283.5 -113t110.5 -286q0 -171 -80 -290q-76 -113 -190 -170.5t-253 -57.5q-133 0 -237 72q-104 74 -105 159q0 48 34.5 81.5t82.5 33.5t79 -30q32 -31 31 -77q0 -87 -92 -125q71 -80 224 -80q154 0 263 120
q109 119 109 309q0 189 -96 275q-95 85 -242 85q-146 0 -295 -125l-6 2l97 743h600z" />
    <glyph glyph-name="six" unicode="6" 
d="M907 414q0 173 -88 285.5t-256 111.5q-155 0 -252 -74q-44 -187 -7 -400q57 -333 302 -333q67 0 120 24t86 63.5t55 94t31 110.5t9 118zM322 780q128 111 305 111q179 0 300 -112q122 -113 122 -323q1 -209 -133 -348q-134 -138 -328 -138t-327 160q-132 160 -132 380
q0 161 66.5 321t177 285.5t260 213.5t309.5 112v-33q-190 -46 -372 -218t-248 -411z" />
    <glyph glyph-name="seven" unicode="7" 
d="M946 1288h-840v125h951v-8q-178 -301 -337 -695q-157 -389 -237 -710h-161q80 258 255 615q174 354 369 673z" />
    <glyph glyph-name="eight" unicode="8" 
d="M858 1118q0 137 -74 213t-210 76q-142 0 -214 -82q-74 -83 -74 -193t81 -178q81 -69 258 -155l20 -11q213 104 213 330zM592 4q136 0 231 89.5t95 224.5q0 129 -86 206q-86 78 -295 176l-19 9q-92 -51 -171 -127q-77 -75 -77 -232q0 -150 86.5 -248t235.5 -98zM1057 365
q1 -92 -40.5 -169t-109.5 -125.5t-151.5 -75t-171.5 -26.5q-65 1 -129 14t-124.5 42t-106.5 69.5t-74 100t-29 129.5q0 158 131 265q98 82 227 140l-20 12q-231 118 -282 233q-24 55 -23 120q0 151 118 248q120 99 319 100q201 0 309 -96t108 -236t-128 -229
q-88 -61 -200 -109l20 -10q216 -104 287 -195q70 -88 70 -202z" />
    <glyph glyph-name="nine" unicode="9" 
d="M881 715q8 85 8 153q0 76 -19 168q-10 55 -25.5 103t-41.5 96.5t-59 83.5t-81.5 56.5t-105.5 21.5q-128 -1 -208 -105q-79 -103 -79 -284q0 -173 90.5 -276.5t260.5 -102.5q162 0 260 86zM874 676q-130 -127 -317 -127q-185 0 -307 105q-121 106 -121 314q0 207 137 341
q136 133 309 133q200 0 337 -179q135 -177 137 -415q-2 -315 -245 -572q-244 -258 -568 -307v33q205 51 386 204q100 85 165 209t87 261z" />
    <glyph glyph-name="colon" unicode=":" horiz-adv-x="393" 
d="M311 954q0 -46 -34.5 -80t-80.5 -34t-80 34.5t-34 79.5t35 80t80 35t78.5 -34.5t35.5 -80.5zM311 84q0 -46 -34.5 -80.5t-80.5 -34.5t-80 34.5t-34 80.5t34 80.5t81 34.5q46 0 79 -34t35 -81z" />
    <glyph glyph-name="semicolon" unicode=";" horiz-adv-x="393" 
d="M311 954q0 -46 -34.5 -80t-80.5 -34t-80 34.5t-34 79.5t35 80t80 35t78.5 -34.5t35.5 -80.5zM147 -55q1 27 -27 67t-28 84t30.5 72.5t74.5 28.5q47 0 73.5 -34t28.5 -83q0 -90 -77 -193t-165 -163l-6 4q96 123 96 217z" />
    <glyph glyph-name="less" unicode="&#x3c;" horiz-adv-x="1257" 
d="M1008 162v-17l-850 420v25l850 420v-17l-617 -415z" />
    <glyph glyph-name="equal" unicode="=" 
d="M1010 467v-107h-852v107h852zM1010 795v-107h-852v107h852z" />
    <glyph glyph-name="greater" unicode="&#x3e;" horiz-adv-x="1257" 
d="M1008 590v-25l-850 -420v17l616 416l-616 415v17z" />
    <glyph glyph-name="question" unicode="?" horiz-adv-x="964" 
d="M592 84q0 -47 -34 -81t-81 -34t-81 34t-34 81t34 81t81 34t81 -34t34 -81zM487 360h-14q0 196 132 388q132 189 132 334q0 146 -84 222q-82 76 -200 76q-147 0 -242 -129q8 2 46 2q44 0 77 -33t33 -77q0 -48 -32 -79.5t-80 -31.5q-51 0 -81.5 34t-30.5 85q2 96 103 193
q103 98 265 98q164 0 260.5 -90t96.5 -252q0 -91 -54.5 -192.5t-129.5 -182.5q-74 -80 -131.5 -179t-65.5 -186z" />
    <glyph glyph-name="at" unicode="@" horiz-adv-x="1552" 
d="M1407 575q0 237 -170 413q-169 175 -427 175q-257 2 -431 -201q-174 -202 -174 -496t175 -465q176 -171 439 -171q196 0 369 92l6 -10q-180 -141 -424 -141q-285 2 -496 193q-211 192 -211 503q0 157 57 298.5t155 243.5t236.5 162.5t295.5 61.5q282 0 487 -179t203 -454
q0 -178 -94.5 -317.5t-261.5 -205.5q-89 -36 -170 -36q-82 0 -82 51q0 16 8 74l47 254h-16q-111 -220 -183 -300q-72 -79 -131 -79q-88 0 -143 81q-55 80 -55 224q0 233 164 420q164 186 354 186q64 0 145 -22l56 22h20l-90 -460l-47 -351l-2 -37q0 -26 24 -24q92 0 230 149
q137 151 137 346zM965 907q-174 0 -292 -178t-118 -393q0 -97 31 -156q30 -60 70 -59q39 0 95 74q57 76 123 199q64 118 84 149l68 356q-30 8 -61 8z" />
    <glyph glyph-name="A" unicode="A" horiz-adv-x="1384" 
d="M403 571h500l-246 686zM1391 8v-8h-467v8q63 14 94 38.5t30 59.5q-1 69 -126 416h-537q-67 -180 -93 -261q-26 -83 -26 -142q0 -61 30 -79q31 -19 103 -32v-8h-407v8q41 11 71 29t54.5 49t38 54t38.5 72q50 101 142 339l342 893h55l326 -891q95 -260 141 -359
q46 -100 83 -136q35 -33 108 -50z" />
    <glyph glyph-name="B" unicode="B" horiz-adv-x="1275" 
d="M666 0h-570v8q106 28 141 80q35 51 33 191v856q0 139 -33 190q-35 52 -141 80v8h539q46 0 89.5 -3.5t91 -13t87.5 -24t76.5 -39t62.5 -55.5t41 -74.5t15 -96.5q0 -148 -89 -239q-89 -90 -218 -125v-8q172 -18 285 -103q114 -86 114 -262q0 -82 -32 -147t-84 -106
t-122 -68t-140.5 -38t-145.5 -11zM401 1368v-618h207q158 0 255 89t98 246q0 283 -365 283h-195zM401 705v-660h258q171 0 275 85t104 252q0 71 -22 127t-59.5 92.5t-90.5 60t-111.5 33.5t-125.5 10h-228z" />
    <glyph glyph-name="C" unicode="C" horiz-adv-x="1394" 
d="M840 -31q-329 0 -538 199q-210 200 -210 514q0 224 112 400q109 170 276.5 265t367.5 95q90 0 209 -23t196 -57v-270h-8q-139 315 -424 315q-255 0 -413 -201q-158 -203 -158 -502q0 -300 164 -500t428 -200q164 0 271 89t179 253h8l-26 -291q-69 -36 -190 -61
q-129 -26 -244 -25z" />
    <glyph glyph-name="D" unicode="D" horiz-adv-x="1540" 
d="M381 1368v-1323h293q302 0 469.5 182t167.5 487q0 304 -171 479t-442 175h-317zM668 0h-592v8q110 29 142 74q32 46 32 197v856q0 153 -32 197t-142 73v8h612q328 0 549 -169q117 -88 174 -226.5t57 -296.5q0 -173 -62 -311.5t-170.5 -227t-253.5 -135.5t-314 -47z" />
    <glyph glyph-name="E" unicode="E" horiz-adv-x="1136" 
d="M1028 0h-960v8q110 29 142 74q32 46 32 197v856q0 65 -5 102.5t-22.5 73t-52.5 57t-94 37.5v8h901v-289h-8q-41 79 -59 108q-4 7 -15 25t-17 28q-16 27 -25 35l-11 10q-12 10 -22 18q-25 20 -110 20h-329v-618h307q39 0 66 7.5t49.5 29t35 39.5t37.5 59h9v-316h-9
q-51 82 -85 109q-35 27 -103 27h-307v-660h387q67 0 111.5 26.5t82.5 85.5q11 17 32 49t27 42q8 13 24.5 38.5t23.5 35.5h8z" />
    <glyph glyph-name="F" unicode="F" horiz-adv-x="1116" 
d="M588 8v-8h-520v8q110 29 142 74q32 46 32 197v856q0 65 -5 102.5t-22.5 73t-52.5 57t-94 37.5v8h962v-289h-8q-41 79 -59 108q-20 34 -31 53q-16 28 -26 35q-8 6 -25 21q-31 27 -117 27h-391v-618h368q69 0 104 26q32 24 85 109h8v-316h-8q-51 82 -85 109q-35 27 -104 27
h-368v-426q0 -61 5 -98t16.5 -67.5t37.5 -48.5t61.5 -31.5t94.5 -25.5z" />
    <glyph glyph-name="G" unicode="G" horiz-adv-x="1472" 
d="M1169 68v360q0 49 -3 82t-13.5 65.5t-29.5 53.5t-50.5 39t-77.5 30v9h441v-9q-77 -28 -106 -80q-28 -51 -27 -190v-375q-239 -84 -504 -84q-158 0 -291 55t-224 152t-141.5 232t-50.5 292q0 219 109 392q105 167 268.5 258.5t359.5 91.5q95 0 225.5 -21.5t207.5 -54.5
v-274h-9q-79 154 -182.5 234.5t-261.5 80.5q-232 0 -395 -196q-164 -196 -164 -503q0 -308 167 -505t412 -197q77 0 180 17t160 45z" />
    <glyph glyph-name="H" unicode="H" horiz-adv-x="1597" 
d="M1530 8v-8h-479v8q111 29 143 71q32 43 31 179v442h-852v-442q-1 -136 31 -179q32 -42 143 -71v-8h-479v8q110 29 142 71q32 43 32 179v897q0 136 -32 179q-32 42 -142 71v8h479v-8q-111 -29 -143 -71q-32 -43 -31 -179v-399h852v399q0 136 -32 179q-32 42 -142 71v8h479
v-8q-110 -29 -142 -71q-32 -43 -32 -179v-897q0 -136 32 -179q32 -42 142 -71z" />
    <glyph glyph-name="I" unicode="I" horiz-adv-x="614" 
d="M547 8v-8h-479v8q110 29 142 71q32 43 32 179v897q0 136 -32 179q-32 42 -142 71v8h479v-8q-111 -29 -143 -71q-32 -43 -31 -179v-897q-1 -136 31 -179q32 -42 143 -71z" />
    <glyph glyph-name="J" unicode="J" horiz-adv-x="608" 
d="M242 -23v1158q0 154 -31 197q-33 45 -143 73v8h479v-8q-112 -28 -144 -73q-32 -44 -30 -197v-1098q0 -141 -40.5 -237.5t-145.5 -165.5q-38 -25 -117 -62l-4 6q176 122 176 399z" />
    <glyph glyph-name="K" unicode="K" horiz-adv-x="1425" 
d="M1470 8v-8h-505v8q91 16 117 42t-2 92q-28 65 -132 214l-305 432l-270 -272v-258q-1 -136 31 -179q32 -42 143 -71v-8h-479v8q110 29 142 71q32 43 32 179v897q0 136 -32 179q-32 42 -142 71v8h479v-8q-111 -29 -143 -71q-32 -43 -31 -179v-575l461 475q90 94 142 163
q47 62 42 100t-34 54q-30 17 -97 33v8h497v-8q-112 -27 -192 -87q-83 -63 -268 -249l-185 -186l371 -527q158 -222 208 -269q54 -51 152 -79z" />
    <glyph glyph-name="L" unicode="L" horiz-adv-x="1093" 
d="M1008 0h-940v8q109 29 141.5 80t32.5 170v897q0 119 -32.5 170t-141.5 80v8h479v-8q-109 -29 -141.5 -80t-32.5 -170v-1110h385q73 0 123 53q49 51 159 224h9z" />
    <glyph glyph-name="M" unicode="M" horiz-adv-x="1871" 
d="M1823 8v-8h-443v8q120 27 140 86q18 60 2 312l-54 829l-557 -1255h-37l-532 1257h-8l-53 -801q-34 -327 26 -386q29 -28 117 -42v-8h-391v8q80 23 111.5 53t49.5 108q17 80 29 267l43 617q6 79 6 157q0 83 -38 124.5t-123 70.5v8h301l528 -1251l547 1251h274v-8
q-91 -33 -125 -78q-35 -46 -34 -153q0 -37 4 -113l43 -627q18 -272 43 -332q26 -63 131 -94z" />
    <glyph glyph-name="N" unicode="N" horiz-adv-x="1611" 
d="M1417 987v-1007h-59l-1065 1280v-834q0 -164 14 -246q13 -76 43.5 -111.5t104.5 -60.5v-8h-381v8q72 23 102.5 58.5t44.5 111.5q13 78 15 248v780q0 60 -52 118q-53 59 -151 81v8h307l1020 -1218v792q0 164 -14 246q-13 76 -44 112.5t-104 59.5v8h381v-8
q-72 -22 -103 -58t-44 -111q-14 -80 -15 -249z" />
    <glyph glyph-name="O" unicode="O" horiz-adv-x="1617" 
d="M412 207q161 -203 397 -203t397 203q160 202 160 500q0 297 -160 499t-398 201q-239 0 -396 -202q-160 -202 -160 -499t160 -499zM1313 178q-218 -209 -504 -209t-504 209q-217 208 -217 522t222 528q221 214 498 214t500 -214q222 -214 222 -528t-217 -522z" />
    <glyph glyph-name="P" unicode="P" horiz-adv-x="1202" 
d="M588 8v-8h-520v8q110 29 142 74q32 46 32 197v856q0 153 -32 197t-142 73v8h602q81 0 147 -9.5t128 -34t104.5 -64.5t67.5 -104.5t24 -149.5q0 -110 -40.5 -192t-112 -128t-158.5 -68t-191 -22h-266v-362q0 -61 5 -98t16.5 -67.5t37.5 -48.5t61.5 -31.5t94.5 -25.5z
M373 1368v-684h231q391 0 391 356q0 328 -356 328h-266z" />
    <glyph glyph-name="Q" unicode="Q" horiz-adv-x="1617" 
d="M412 207q161 -203 397 -203t397 203q160 202 160 500q0 297 -160 499t-398 201q-239 0 -396 -202q-160 -202 -160 -499t160 -499zM2052 -489q-384 0 -919 327l-228 139q-66 -8 -96 -8q-286 0 -504 209q-217 208 -217 522t222 528q221 214 498 214t500 -214
q222 -214 222 -530q0 -256 -152 -447q-151 -190 -379 -255q158 -79 287 -136t291 -116.5t321 -91t304 -31.5q157 0 292 57v-8q-84 -74 -205 -116.5t-237 -42.5z" />
    <glyph glyph-name="R" unicode="R" horiz-adv-x="1333" 
d="M1393 8v-8h-111q-167 0 -213 25q-49 27 -139 161l-305 455h-252v-362q-1 -151 31 -197q32 -45 143 -74v-8h-479v8q110 29 142 74q32 46 32 197v856q0 153 -32 197t-142 73v8h587q75 0 140 -10t126 -35.5t104 -65t69 -101.5t26 -142q0 -291 -362 -387l313 -434
q93 -130 153 -171q58 -39 169 -59zM373 1368v-684h217q156 0 272 90q116 91 115 258q0 336 -352 336h-252z" />
    <glyph glyph-name="S" unicode="S" horiz-adv-x="1032" 
d="M127 49v340h8q55 -199 159 -291t224 -92q118 0 213 80q94 79 94 207q0 90 -48.5 167.5t-129.5 126.5q-71 43 -166 97q-70 40 -166 98q-81 49 -129.5 128.5t-48.5 170.5q0 164 119 262q120 99 272 99t353 -78v-281h-9q-22 63 -54 117.5t-76 102t-102.5 75t-124.5 27.5
q-110 0 -186.5 -68t-76.5 -176q0 -95 47.5 -169.5t132.5 -122.5q203 -114 334 -194q84 -52 132 -133t48 -177q0 -182 -134 -289q-133 -106 -316 -106t-369 79z" />
    <glyph glyph-name="T" unicode="T" horiz-adv-x="1306" 
d="M893 8v-8h-479v8q110 29 142 74q32 46 32 197v1089h-234q-55 0 -98 -40q-42 -39 -172 -204h-8l41 289h1073l41 -289h-8q-123 162 -167 203t-102 41h-235v-1089q0 -151 32 -197q32 -45 142 -74z" />
    <glyph glyph-name="U" unicode="U" horiz-adv-x="1579" 
d="M1284 387v600q0 228 -31 306q-31 79 -131 112v8h381v-8q-72 -23 -103.5 -62t-44.5 -116q-12 -73 -14 -240v-606q0 -89 -31 -160.5t-83 -117.5t-123 -76.5t-146.5 -43.5t-158.5 -14q-82 0 -158 13t-148.5 44t-125.5 77.5t-85.5 117.5t-31.5 160v774q0 119 -32.5 170
t-141.5 80v8h479v-8q-109 -29 -141.5 -80t-32.5 -170v-803q0 -143 118 -230q119 -87 325 -87q71 0 135.5 11t124.5 37.5t104 66t70 100.5t26 137z" />
    <glyph glyph-name="V" unicode="V" horiz-adv-x="1384" 
d="M-8 1405v8h467v-8q-95 -19 -115 -51q-27 -47 37 -240q3 -9 88 -248l254 -710l266 714q75 195 99 272q26 83 27 148q2 66 -29 83q-32 17 -103 32v8h408v-8q-68 -19 -110 -59q-77 -75 -234 -484l-342 -893h-56l-325 891q-96 263 -142 360q-48 101 -83 135q-34 33 -107 50z
" />
    <glyph glyph-name="W" unicode="W" horiz-adv-x="1947" 
d="M-12 1405v8h450v-8q-72 -15 -96 -27t-32 -68q-10 -82 93 -444l189 -712l233 716q85 266 92 348q7 83 -17 115q-24 31 -54 45q-30 13 -92 27v8h452v-8q-129 -27 -133 -97q-4 -67 103 -442l208 -723l220 727q103 334 96 428q-2 28 -22.5 54.5t-47.5 33.5q-41 11 -78 19v8
h408v-8q-76 -21 -111.5 -64t-72.5 -133q-45 -109 -119 -346l-281 -893h-55l-348 1209l-395 -1209h-56l-246 891q-74 267 -112 364q-41 105 -71 135q-31 29 -105 46z" />
    <glyph glyph-name="X" unicode="X" horiz-adv-x="1388" 
d="M1374 8v-8h-522v10q119 27 139 47q37 37 -41 160l-291 434l-165 -237q-90 -130 -129 -196q-42 -71 -43 -114q-2 -46 26 -62q30 -18 101 -32v-10h-439v8q97 28 161 89q65 64 241 300l219 297l-312 469q-71 109 -130 161t-166 81v8h528v-10q-133 -31 -149 -70
q-17 -39 63 -164l254 -383l153 230q99 147 130 224q30 74 9 107q-22 34 -104 56v10h430v-8q-101 -27 -166 -91q-66 -64 -219 -282l-204 -289l329 -493q86 -130 139 -173q49 -40 158 -69z" />
    <glyph glyph-name="Y" unicode="Y" horiz-adv-x="1292" 
d="M893 8v-8h-479v8q105 27 139 84q35 58 35 187v339l-207 365q-160 283 -235 349q-36 33 -61.5 47t-72.5 26v8h439v-8q-42 -8 -61 -15q-20 -8 -34 -26q-14 -19 -11 -42q3 -22 23 -75q19 -48 140 -258l186 -315l189 338q93 167 117 238t1 103t-106 52v8h385v-8
q-75 -11 -140 -86q-65 -76 -202 -313l-219 -383v-344q0 -128 35 -187q34 -58 139 -84z" />
    <glyph glyph-name="Z" unicode="Z" horiz-adv-x="1159" 
d="M1067 0h-1016v8l862 1360h-538q-79 0 -123 -38q-40 -34 -164 -206h-8l41 289h966v-8l-854 -1360h566q88 0 134 46q47 47 165 231h8z" />
    <glyph glyph-name="bracketleft" unicode="[" horiz-adv-x="776" 
d="M606 -240v-47h-375v1835h375v-47h-254v-1741h254z" />
    <glyph glyph-name="backslash" unicode="\" horiz-adv-x="790" 
d="M84 1442l692 -1473h-69l-693 1473h70z" />
    <glyph glyph-name="bracketright" unicode="]" horiz-adv-x="776" 
d="M545 1548v-1835h-375v47h254v1741h-254v47h375z" />
    <glyph glyph-name="asciicircum" unicode="^" horiz-adv-x="874" 
d="M494 1413l231 -485h-41l-248 372l-246 -372h-40l227 485h117z" />
    <glyph glyph-name="underscore" unicode="_" horiz-adv-x="942" 
d="M866 -168v-127h-790v127h790z" />
    <glyph glyph-name="grave" unicode="`" horiz-adv-x="489" 
d="M393 1163h-10q-211 91 -328 250h172q46 -159 166 -250z" />
    <glyph glyph-name="a" unicode="a" horiz-adv-x="1015" 
d="M555 528q-50 0 -96 -7.5t-90.5 -25.5t-77 -45.5t-52.5 -70.5t-20 -97q-1 -114 63 -171t180 -57t245 75v387q-68 12 -152 12zM817 -16q-101 0 -108 129q-71 -63 -163 -100.5t-184 -37.5q-103 0 -188 67q-86 68 -86 200q0 336 619 329v136q-2 160 -61.5 228.5t-216.5 68.5
t-249 -89q117 -12 117 -94q0 -37 -24.5 -59.5t-62.5 -24.5q-33 0 -62 23t-27 71q0 103 123 170q124 68 280 68q303 0 303 -285v-544q0 -120 55 -154q54 -33 146 -41v-8q-126 -53 -211 -53z" />
    <glyph glyph-name="b" unicode="b" horiz-adv-x="1234" 
d="M178 29v1202q0 131 -32 166t-142 47v8q174 26 293 92h8v-620q49 49 147 97t224 48q193 0 324 -131q130 -130 130 -367q0 -131 -48 -250t-142 -199q-177 -148 -403 -147q-76 0 -180.5 15.5t-178.5 38.5zM557 14q177 0 305 140q127 139 127 368q0 228 -112 350
q-113 123 -275 123q-163 0 -297 -100v-807q142 -74 252 -74z" />
    <glyph glyph-name="c" unicode="c" horiz-adv-x="937" 
d="M555 -25q-192 -1 -319 145q-125 145 -127 385q0 240 145 401q145 162 350 163q41 0 88.5 -8t97.5 -25t82.5 -50.5t32.5 -78.5q1 -45 -29 -77t-73 -32q-44 0 -73 28q-30 26 -30 65q0 76 58 113q-61 24 -152 24q-96 0 -169.5 -42.5t-115.5 -114t-62.5 -154.5t-20.5 -174
q0 -214 116 -338q116 -123 276 -123q159 0 316 131l12 -8q-45 -78 -151 -154t-252 -76z" />
    <glyph glyph-name="d" unicode="d" horiz-adv-x="1249" 
d="M942 -25h-8v172q-157 -172 -362 -172q-203 1 -334 141t-129 365q0 276 166 432q167 156 413 156q121 0 246 -31v193q0 131 -32 166t-142 47v8q174 26 293 92h8v-1272q0 -158 65 -187q28 -13 109 -30v-8q-158 -17 -293 -72zM624 1022q-166 0 -270 -140t-104 -352
q0 -133 43.5 -232t136.5 -157.5t227 -58.5q154 0 277 90v758q-146 92 -310 92z" />
    <glyph glyph-name="e" unicode="e" horiz-adv-x="1028" 
d="M755 937q-70 91 -186 91q-114 0 -206 -108t-111 -277l573 19q0 184 -70 275zM549 -25q-190 -1 -312 139t-122 388q0 247 143 408q143 159 338 159q152 0 260 -96q109 -96 107 -311q0 -22 -2 -56h-713q-2 -26 -2 -59q0 -93 22.5 -174t66.5 -147t118.5 -104t171.5 -38
q176 0 327 125l13 -8q-47 -79 -156 -153q-109 -73 -260 -73z" />
    <glyph glyph-name="f" unicode="f" horiz-adv-x="602" 
d="M524 8v-8h-446v8q90 28 120 77t29 173v737h-202l20 49h182v142q0 358 326 358q87 0 142 -35q55 -34 55 -81q0 -42 -25.5 -70t-67.5 -29q-41 0 -64.5 25.5t-25.5 67.5q0 44 56 83q-29 8 -58 8q-54 0 -93 -17t-61.5 -43t-35.5 -67t-17 -80t-4 -92v-170h236v-49h-236v-737
q0 -126 32 -175q32 -48 138 -75z" />
    <glyph glyph-name="g" unicode="g" horiz-adv-x="1073" 
d="M336 946q-72 -90 -72 -237q0 -148 70 -243q71 -96 182 -95q110 0 182 90t72 237q0 59 -15 117t-44 108.5t-79.5 81.5t-113.5 31q-110 0 -182 -90zM154 -223q0 -53 23.5 -93.5t60 -65t86 -40t95 -21t92.5 -5.5q56 0 113 9t115.5 31t104 53.5t74 82t28.5 112.5
q0 40 -14.5 70t-36.5 47.5t-55 29t-63.5 15.5t-69.5 6l-338 15q-215 -102 -215 -246zM33 -260q0 180 327 285q-110 8 -160 61t-18 134q33 80 156 157q-100 46 -154.5 131t-54.5 194q0 162 110 264q109 101 259 103q148 0 252 -65l325 65h8l-16 -117l-281 27
q119 -98 119 -262q1 -165 -109.5 -273t-275.5 -106q-91 0 -166 31q-119 -113 -58 -190q31 -39 122 -44l309 -16q315 -17 315 -225q0 -64 -28.5 -121.5t-76.5 -100t-103 -73t-116 -49.5q-134 -42 -290 -42q-46 0 -95.5 6.5t-104.5 23t-97.5 41.5t-70.5 67t-27 94z" />
    <glyph glyph-name="h" unicode="h" horiz-adv-x="1210" 
d="M1171 8v-8h-419v8q96 28 122 67q25 37 27 163v477q0 130 -66.5 198.5t-196.5 69.5q-124 0 -290 -96v-649q0 -126 27 -163q28 -39 123 -67v-8h-426v8q95 28 123 67q28 38 26 163v968q0 136 -28 174t-146 64v8q71 4 123 22q13 5 27 10t22 8t12 4q107 46 109 48h8v-633
q206 158 377 158q131 0 214 -84q83 -85 83 -266v-481q0 -126 27 -163q28 -39 122 -67z" />
    <glyph glyph-name="i" unicode="i" horiz-adv-x="550" 
d="M498 8v-8h-420v8q95 28 123 64q27 35 26 155v545q0 158 -65 187q-28 13 -109 30v8q148 17 287 72h8v-842q0 -121 27 -155q26 -34 123 -64zM383 1343q0 -40 -29 -68t-70 -30q-40 0 -69 29.5t-29 69.5t29.5 69t69.5 29q38 0 69 -29t29 -70z" />
    <glyph glyph-name="j" unicode="j" horiz-adv-x="536" 
d="M227 -86v858q0 158 -65 187q-28 13 -109 30v8q158 17 293 72h8v-1075q1 -376 -278 -486l-6 11q58 35 95 107t49.5 143t12.5 145zM383 1343q0 -40 -29 -68t-70 -30q-40 0 -69 29.5t-29 69.5t29.5 69t69.5 29q38 0 69 -29t29 -70z" />
    <glyph glyph-name="k" unicode="k" horiz-adv-x="1173" 
d="M1194 8v-8h-168q-89 0 -110 8q-24 9 -30 10q-11 1 -26 16q-12 12 -22 20q-7 4 -27 29q-18 24 -29 35q-8 8 -37 45q-33 42 -43 54l-278 344l192 178q84 78 125 122q96 103 31 139q-34 19 -119 30v14h498v-8q-167 -39 -399 -239l-207 -181l325 -385q52 -61 116 -117
t120 -78q31 -12 88 -28zM498 8v-8h-426v8q95 28 123 64q27 35 26 153v1006q0 131 -32 166t-142 47v8q174 26 293 92h8v-1319q0 -47 2.5 -74t10.5 -51t25.5 -38.5t43 -27.5t68.5 -26z" />
    <glyph glyph-name="l" unicode="l" horiz-adv-x="536" 
d="M498 8v-8h-426v8q95 28 123 64q27 35 26 153v1006q0 131 -32 166t-142 47v8q174 26 293 92h8v-1319q0 -47 2.5 -74t10.5 -51t25.5 -38.5t43 -27.5t68.5 -26z" />
    <glyph glyph-name="m" unicode="m" horiz-adv-x="1822" 
d="M1784 8v-8h-420v8q95 28 123 67q28 38 26 163v477q1 134 -67 201q-67 65 -186 67q-117 0 -287 -98q26 -68 24 -166v-481q0 -126 27 -163q28 -39 123 -67v-8h-420v8q95 28 123 67q27 37 27 163v477q0 128 -64 197.5t-191 70.5q-119 0 -280 -94v-662q0 -153 54 -182
q30 -16 96 -37v-8h-420v8q66 21 96 37q55 29 53 182v545q0 158 -65 187q-28 13 -109 30v8q148 17 287 72h8v-156q201 156 365 156q193 0 258 -162q215 162 378 162q131 0 211 -84q80 -85 80 -266v-481q0 -126 27 -163q28 -39 123 -67z" />
    <glyph glyph-name="n" unicode="n" horiz-adv-x="1204" 
d="M1165 8v-8h-420v8q95 28 123 67q27 37 27 163v477q0 130 -66.5 198.5t-196.5 69.5q-124 0 -290 -96v-660q0 -153 54 -182q30 -16 96 -37v-8h-420v8q66 21 96 37q55 29 53 182v545q0 158 -65 187q-28 13 -109 30v8q148 17 287 72h8v-158q206 158 377 158q131 0 214 -84
q83 -85 83 -266v-481q0 -125 26 -163q26 -39 123 -67z" />
    <glyph glyph-name="o" unicode="o" horiz-adv-x="1267" 
d="M633 14q77 0 141.5 32t106.5 84t71.5 120.5t42.5 138.5t13 141q0 208 -104 354t-271 146t-271 -146t-104 -354q0 -71 13 -141t42.5 -138.5t71.5 -120.5t106.5 -84t141.5 -32zM1006 136q-155 -161 -372 -161t-372 161q-154 160 -153 390q0 228 155 386q156 157 370 157
t370 -157q156 -158 156 -386q0 -230 -154 -390z" />
    <glyph glyph-name="p" unicode="p" horiz-adv-x="1249" 
d="M571 14q177 0 305 138q128 139 128 372q0 232 -114 352t-276 120q-161 0 -295 -101v-807q142 -74 252 -74zM489 -463v-8h-446v8q43 13 69 26t43.5 27.5t25 39.5t10 51.5t2.5 74.5v1016q0 157 -66 187q-28 13 -109 30v8q158 17 293 72h8v-145q51 52 151 98q103 47 220 47
q197 0 326 -135t129 -363q0 -134 -49.5 -258.5t-147.5 -198.5q-183 -140 -375 -139q-130 0 -254 23v-242q0 -79 13 -117.5t47 -60t110 -41.5z" />
    <glyph glyph-name="q" unicode="q" horiz-adv-x="1239" 
d="M637 1022q-102 0 -180.5 -41t-125 -110.5t-70 -155.5t-23.5 -183q0 -219 112 -334q113 -116 286 -116q172 0 288 72v776q-140 92 -287 92zM1200 -463v-8h-446v8q106 28 138 79q32 50 32 191v320q-74 -66 -177.5 -108.5t-199.5 -43.5q-175 2 -311 135t-138 367
q0 277 165 434q166 158 409 158q104 0 250 -35l120 35h9v-1262q2 -141 29 -190q29 -52 120 -80z" />
    <glyph glyph-name="r" unicode="r" horiz-adv-x="716" 
d="M340 1069h8v-831q0 -160 68 -193q30 -15 116 -37v-8h-454v8q96 28 123 66t26 164v493q0 136 -28 174t-146 64v8q120 8 287 92zM596 858q-45 0 -76 31t-31 76q0 46 30.5 75t76.5 29q45 0 74.5 -30t29.5 -75q0 -44 -30 -75t-74 -31z" />
    <glyph glyph-name="s" unicode="s" horiz-adv-x="870" 
d="M106 59v271h9q53 -157 144 -236q92 -80 191 -80q100 0 160 60q62 60 62 137q0 134 -196 226q-54 25 -162 79q-87 43 -141 114t-54 161q0 128 96.5 203t228.5 75q129 0 273 -59v-248h-10q-33 110 -105 189t-174 79q-81 0 -141.5 -52.5t-60.5 -132.5q0 -134 196 -223
q82 -38 165 -78q89 -44 143 -112.5t54 -159.5q0 -129 -98 -213t-262 -84t-318 84z" />
    <glyph glyph-name="t" unicode="t" horiz-adv-x="649" 
d="M403 -16q-211 0 -210 268v739h-164v8q109 51 155 97t125 194h8v-246h293v-49h-293v-735q0 -180 144 -189q3 0 11 -0.5t11 -0.5q69 0 183 28l8 -10q-151 -104 -271 -104z" />
    <glyph glyph-name="u" unicode="u" horiz-adv-x="1159" 
d="M858 -25h-8v142q-200 -140 -371 -142q-283 0 -282 334v463q0 157 -66 187q-29 13 -108 30v8q146 16 286 72h8v-756q2 -252 255 -253q123 0 278 85v627q0 157 -66 187q-28 13 -108 30v8q148 17 287 72h8v-797q0 -158 65 -187q28 -13 109 -30v-8q-148 -17 -287 -72z" />
    <glyph glyph-name="v" unicode="v" horiz-adv-x="1120" 
d="M8 1036v8h420v-8q-121 -34 -121 -112t96 -322l175 -479l198 545q35 99 57 163q25 75 21 100q-14 65 -64 83q-24 9 -75 22v8h397v-8q-72 -19 -104 -44q-69 -51 -187 -349l-262 -674h-45l-254 674q-106 290 -167 344q-29 26 -85 49z" />
    <glyph glyph-name="w" unicode="w" horiz-adv-x="1771" 
d="M16 1036v8h424v-8q-95 -27 -109 -56q-2 -4 -6.5 -14t-7.5 -15q-8 -14 3 -76q9 -53 34 -128q30 -91 34 -104q4 -12 13 -41l156 -473l313 915h56l319 -907l185 531q79 226 66 277q-14 51 -63 69q-24 9 -75 22v8h397v-8q-75 -29 -103 -50q-65 -49 -177 -343l-252 -674h-45
l-326 905l-313 -905h-45l-236 674q-104 294 -158 342q-27 25 -84 51z" />
    <glyph glyph-name="x" unicode="x" horiz-adv-x="1216" 
d="M1212 8v-8h-522v8q62 13 86 22q74 26 57 81q-24 72 -131 219l-112 153l-105 -139q-97 -129 -125 -189q-28 -63 -3 -97q25 -33 122 -50v-8h-461v8q118 38 195 96q72 55 227 256l123 160l-143 201q-57 81 -129 163t-129 112q-24 11 -103 40v8h521v-8q-105 -19 -128 -45
q-21 -24 -23 -43q-2 -46 130 -233l86 -121l88 115q111 149 132 195q21 47 11 66q-19 43 -118 66v8h432v-8q-83 -27 -116 -43q-93 -44 -269 -264l-135 -168l159 -219q147 -201 211 -256q65 -56 172 -78z" />
    <glyph glyph-name="y" unicode="y" horiz-adv-x="1120" 
d="M8 1036v8h428v-8q-56 -10 -84 -24t-45 -48t18 -153q33 -114 68 -209l187 -557l206 623q13 42 41 126q20 61 22 85q5 75 -11 91q-29 31 -55.5 43.5t-75.5 22.5v8h405v-8q-64 -18 -96 -43q-87 -66 -185 -350l-274 -788q-20 -57 -45.5 -109.5t-64 -109.5t-90.5 -92t-109 -36
q-49 0 -88 28.5t-39 76.5q0 44 28 71.5t72 27.5q47 0 72 -40q25 -38 14 -94q119 32 225 330l33 92h-92l-223 643q-78 226 -120 296q-43 72 -122 97z" />
    <glyph glyph-name="z" unicode="z" horiz-adv-x="954" 
d="M883 0h-832v8l664 991h-375q-59 0 -103 -44q-43 -43 -149 -193h-8l41 282h762v-8l-658 -991h420q65 0 112 42q44 39 158 198h9z" />
    <glyph glyph-name="braceleft" unicode="{" horiz-adv-x="649" 
d="M283 98v158q0 164 -43 254q-44 93 -162 106v17q118 13 162 106q43 90 43 254v158q0 191 76.5 283t263.5 110v-8q-209 -45 -209 -367v-159q0 -302 -248 -385q248 -83 248 -385v-160q0 -322 209 -367v-8q-187 18 -263.5 110t-76.5 283z" />
    <glyph glyph-name="bar" unicode="|" horiz-adv-x="417" 
d="M248 1544v-1780h-78v1780h78z" />
    <glyph glyph-name="braceright" unicode="}" horiz-adv-x="649" 
d="M236 80v160q0 303 247 385q-248 83 -247 385v159q0 322 -209 367v8q187 -18 263.5 -110t76.5 -283v-158q0 -164 43 -254q44 -93 161 -106v-17q-119 -14 -161 -106q-41 -90 -43 -254v-158q0 -191 -76.5 -283t-263.5 -110v8q209 45 209 367z" />
    <glyph glyph-name="asciitilde" unicode="~" 
d="M566 550q-141 58 -208 58q-57 0 -110.5 -30.5t-79.5 -79.5l-35 22q97 185 262 187q74 -2 217 -59q144 -58 204 -58q50 0 108.5 35t79.5 80l28 -21q-100 -194 -258 -192q-67 0 -208 58z" />
    <glyph glyph-name="exclamdown" unicode="&#xa1;" horiz-adv-x="520" 
d="M375 954q0 -47 -34 -80.5t-81 -33.5t-81 33.5t-34 80.5q0 46 34.5 80.5t80.5 34.5t80.5 -34.5t34.5 -80.5zM340 -326q0 -35 -23.5 -56t-58.5 -21t-57.5 21t-22.5 56q0 101 74 992h14q74 -891 74 -992z" />
    <glyph glyph-name="cent" unicode="&#xa2;" 
d="M555 274v936q-86 -9 -150 -54.5t-99 -114.5t-51.5 -145t-16.5 -159q0 -194 89 -315q88 -119 228 -148zM614 162v-182h-59v180q-193 0 -319 145q-125 145 -127 379q0 235 127 393q128 161 319 174v183h59v-181q38 -2 80 -11.5t86 -27t72 -49.5t27 -73q0 -44 -29.5 -76.5
t-73.5 -32.5q-43 0 -73 27q-31 27 -29 65q0 75 57 113q-57 22 -117 24v-946h25q152 0 307 131l12 -8q-39 -67 -130 -139q-91 -71 -214 -88z" />
    <glyph glyph-name="sterling" unicode="&#xa3;" horiz-adv-x="1110" 
d="M793 0h-701v8q66 50 123 110t102 142t45 155q0 103 -55 292h-198v55h180q-43 150 -43 250q0 194 125 310t275 116q151 0 228 -52q78 -52 78 -112q0 -51 -26.5 -85t-76.5 -34q-44 0 -72.5 26t-28.5 69q0 44 28 71t72 27q-80 53 -172 53q-132 0 -212.5 -79t-80.5 -211
q0 -124 68 -349h405v-55h-393q18 -89 18 -177q1 -93 -71 -214.5t-154 -186.5h520q105 1 140 21q34 19 51 83h8q2 -22 2 -65q0 -168 -184 -168z" />
    <glyph glyph-name="currency" unicode="&#xa4;" 
d="M585 307q166 0 280 120.5t112 287.5q0 167 -113 287t-280 120t-280.5 -120t-113.5 -288t114 -287.5t281 -119.5zM1001 195l-110 116q-122 -104 -307 -104t-303 104l-113 -116l-105 104l115 117q-102 120 -102 306t102 296l-115 110l105 107l113 -113q122 100 302 100
t308 -100l110 113l103 -107l-111 -110q99 -111 99 -298t-99 -304l111 -117z" />
    <glyph glyph-name="yen" unicode="&#xa5;" 
d="M831 8v-8h-479v8q104 27 140 84q35 59 34 187v94h-317v65h317v180h-317v66h285l-150 299q-104 210 -182 314q-18 27 -53.5 56.5t-63.5 38.5q-20 7 -53 13v8h438v-8q-86 -18 -100 -47q-20 -44 67 -223l230 -451h10l160 328q85 178 105 246q19 67 5 88q-25 36 -114 59v8
h385v-8q-76 -12 -141 -87q-66 -76 -185 -312l-164 -322h268v-66h-299v-180h299v-65h-299v-94q0 -128 35 -187q34 -58 139 -84z" />
    <glyph glyph-name="brokenbar" unicode="&#xa6;" horiz-adv-x="417" 
d="M248 1544v-756h-78v756h78zM248 520v-756h-78v756h78z" />
    <glyph glyph-name="section" unicode="&#xa7;" horiz-adv-x="1052" 
d="M846 569q0 97 -146 174l-329 172q-4 2 -21 11q-3 2 -7.5 4.5t-7 4t-3.5 1.5q-133 -78 -133 -184q0 -107 133 -174l379 -203q55 27 95 81.5t40 112.5zM84 709q0 135 225 241q-75 44 -113 96.5t-38 131.5q0 65 32 116.5t84 82t111.5 46t120.5 15.5q144 0 226 -58
q83 -59 83 -118q0 -52 -26 -86t-77 -34q-45 0 -73 28q-29 26 -29 68q0 44 28.5 70.5t72.5 26.5q-104 55 -201 55q-54 0 -106 -19t-90 -61.5t-38 -98.5q0 -75 39 -115q38 -39 142 -92l309 -154q190 -94 190 -243t-217 -251q75 -46 107.5 -93.5t32.5 -127.5q0 -92 -56.5 -166
t-141 -111.5t-174.5 -37.5q-141 0 -239 74q-96 74 -96 159q0 45 34.5 76t79.5 31q46 0 75.5 -28.5t31.5 -75.5q1 -46 -29 -76t-77 -41q89 -70 229 -70q48 0 94.5 12.5t87.5 36t66.5 63.5t26.5 91q0 40 -22.5 81t-56.5 66q-43 29 -77 49l-377 215q-85 47 -129.5 96.5
t-44.5 129.5z" />
    <glyph glyph-name="dieresis" unicode="&#xa8;" horiz-adv-x="684" 
d="M291 1331q0 -39 -28.5 -66.5t-68.5 -29.5q-38 0 -67 29.5t-29 67.5q0 39 29 67.5t68 28.5q38 0 66 -29t30 -68zM586 1331q0 -39 -28.5 -66.5t-68.5 -29.5q-39 0 -66.5 28.5t-29.5 68.5q0 38 29.5 67t67.5 29t67 -29.5t29 -67.5z" />
    <glyph glyph-name="copyright" unicode="&#xa9;" horiz-adv-x="1630" 
d="M375 236q178 -199 440 -199t440 199q177 198 179 469q0 270 -178 467q-178 198 -441 198q-261 0 -440 -198q-178 -197 -178 -468t178 -468zM815 -25q-299 0 -503 213q-204 212 -204 516t204 517t503 213t503 -213t204 -516t-204 -517q-204 -215 -503 -213zM371 694
q0 194 152 325q152 130 341 130q143 0 266 -55v-201h-8q-42 106 -104.5 161.5t-165.5 55.5q-110 0 -190 -58.5t-117 -149t-37 -198.5q0 -182 103 -297q104 -114 257 -114q182 0 281 233h8l-16 -204q-45 -29 -128.5 -45t-152.5 -17q-132 0 -241.5 50t-178.5 150.5t-69 233.5z
" />
    <glyph glyph-name="ordfeminine" unicode="&#xaa;" horiz-adv-x="753" 
d="M678 602v-72h-602v72h602zM195 907q0 -64 37.5 -89t105.5 -25q69 0 111 24v248q-31 5 -60 6q-194 6 -194 -164zM688 768v-8q-78 -39 -144 -39t-91 76q-122 -80 -201 -80q-80 0 -128 49q-48 50 -48 108q0 57 12.5 92.5t51.5 67.5q79 66 309 70v96q0 83 -40.5 122.5
t-123.5 39.5q-77 0 -105 -23q56 -20 56 -79t-76 -60q-31 0 -50.5 19.5t-21.5 50.5q0 56 88 99q90 44 183 44q96 0 149 -46q54 -47 53 -138v-340q1 -65 29.5 -89t97.5 -32z" />
    <glyph glyph-name="guillemotleft" unicode="&#xab;" horiz-adv-x="960" 
d="M262 543l289 -338h-19l-462 338l462 340h19zM664 543l217 -271h-9l-374 271l372 272h11z" />
    <glyph glyph-name="logicalnot" unicode="&#xac;" 
d="M1010 631v-500h-115v393h-737v107h852z" />
    <glyph glyph-name="registered" unicode="&#xae;" horiz-adv-x="1630" 
d="M375 236q178 -199 440 -199t440 199q177 198 179 469q0 270 -178 467q-178 198 -441 198q-261 0 -440 -198q-178 -197 -178 -468t178 -468zM815 -25q-299 0 -503 213q-204 212 -204 516t204 517t503 213t503 -213t204 -516t-204 -517q-204 -215 -503 -213zM690 1110v-412
h127q93 0 154 57t61 149q0 94 -58 150t-153 56h-131zM1190 262v-8h-139l-224 397h-137v-231q0 -49 6 -67q4 -13 7 -25q2 -7 13 -18q13 -13 14 -15q2 -1 42 -33v-8h-274v8q35 24 49 36q31 28 33 122v571q0 58 -17.5 92t-64.5 68v8h327q59 0 113.5 -13t102.5 -39.5t77 -74.5
t29 -110q1 -105 -61 -167q-61 -60 -148 -87z" />
    <glyph glyph-name="macron" unicode="&#xaf;" horiz-adv-x="581" 
d="M547 1321v-78h-512v78h512z" />
    <glyph glyph-name="degree" unicode="&#xb0;" horiz-adv-x="835" 
d="M416 850q102 0 168 75q66 76 65 181q0 106 -64.5 181t-168.5 75t-168 -75.5t-64 -180.5t64 -180.5t168 -75.5zM752 1106q0 -139 -97.5 -234.5t-236.5 -95.5t-236.5 96t-97.5 234t97.5 234t236.5 96t236.5 -95.5t97.5 -234.5z" />
    <glyph glyph-name="plusminus" unicode="&#xb1;" 
d="M1010 106v-106h-852v106h852zM641 524v-393h-115v393h-368v107h368v393h115v-393h369v-107h-369z" />
    <glyph glyph-name="twosuperior" unicode="&#xb2;" horiz-adv-x="806" 
d="M705 641v-109h-586v50l246 276q190 214 190 336q0 77 -52.5 131.5t-129.5 54.5q-75 0 -152 -41q44 -2 74.5 -30.5t30.5 -71.5q0 -42 -30 -70.5t-72 -28.5q-41 0 -71 31t-32 72q0 70 86 127q85 57 217 57q132 -2 203 -65q72 -65 71 -156q0 -46 -25 -97t-61 -88
q-38 -38 -94 -90q-70 -65 -96 -91l-191 -197h474z" />
    <glyph glyph-name="threesuperior" unicode="&#xb3;" horiz-adv-x="806" 
d="M519 1292h-398v121h547v-8l-228 -291q124 -18 192 -89.5t68 -194.5q0 -130 -104 -220q-104 -92 -228 -92t-182 37q-57 37 -57 87q0 46 26 75t71 29q42 0 67 -26.5t25 -69.5q0 -45 -50 -95q24 -6 72 -6q96 2 162 65q70 66 70 186t-69 167q-69 45 -159 45q-14 0 -39 -4
l-8 6z" />
    <glyph glyph-name="acute" unicode="&#xb4;" horiz-adv-x="489" 
d="M66 1163h-11q120 91 166 250h172q-115 -159 -327 -250z" />
    <glyph glyph-name="mu" unicode="&#xb5;" horiz-adv-x="1159" 
d="M858 -25h-8v142q-201 -141 -373 -141q-173 0 -237 120q0 -193 101 -400q34 -67 34 -102q0 -36 -26 -61t-62 -25q-40 0 -65 28.5t-25 68.5v1167q0 157 -66 187q-29 13 -108 30v8q146 16 286 72h8v-756q2 -252 255 -253q123 0 278 85v627q0 157 -66 187q-28 13 -108 30v8
q148 17 287 72h8v-797q0 -158 65 -187q28 -13 109 -30v-8q-148 -17 -287 -72z" />
    <glyph glyph-name="paragraph" unicode="&#xb6;" horiz-adv-x="1077" 
d="M885 1270v-1741h-92v1796h-340v-1796h-93v1276q-162 0 -244 88q-82 89 -81 216q0 127 77 216q76 88 224 88h639v-8q-90 -41 -90 -135z" />
    <glyph glyph-name="periodcentered" unicode="&#xb7;" horiz-adv-x="456" 
d="M344 729q0 -45 -35 -80t-80 -35t-78.5 34.5t-35.5 80.5q0 45 35 80t80 35t79.5 -35t34.5 -80z" />
    <glyph glyph-name="cedilla" unicode="&#xb8;" horiz-adv-x="489" 
d="M59 -375l25 23q67 -29 123 -29q58 0 99.5 26t41.5 81q0 30 -21 53t-53.5 34.5t-63 17t-58.5 5.5l122 164h58l-68 -104q71 -7 133 -50q61 -42 61 -118q0 -56 -39.5 -93t-88.5 -50t-104 -13q-94 0 -167 53z" />
    <glyph glyph-name="onesuperior" unicode="&#xb9;" horiz-adv-x="806" 
d="M606 541v-9h-401v9q95 28 123 73q27 44 26 197v436q-105 -20 -190 -26l-6 10q99 32 161.5 75t139.5 126h8v-621q0 -157 25 -200q26 -45 114 -70z" />
    <glyph glyph-name="ordmasculine" unicode="&#xba;" horiz-adv-x="829" 
d="M729 602v-55h-629v55h629zM414 750q108 0 156 95t48 223q0 53 -10 104t-31.5 99.5t-63.5 78.5t-99 30t-99.5 -29.5t-64.5 -78t-32 -99t-11 -104.5q0 -56 9.5 -107.5t31 -101.5t64.5 -80t102 -30zM414 717q-145 0 -239.5 102t-94.5 249q0 146 94.5 245.5t239.5 99.5
q143 0 239.5 -100.5t96.5 -244.5t-96 -247t-240 -104z" />
    <glyph glyph-name="guillemotright" unicode="&#xbb;" horiz-adv-x="960" 
d="M430 883l463 -340l-463 -338h-18l290 338l-290 340h18zM92 815l373 -272l-375 -271h-8l219 271l-219 272h10z" />
    <glyph glyph-name="onequarter" unicode="&#xbc;" horiz-adv-x="1986" 
d="M1870 8v-8h-369v8q94 27 112 59q17 32 17 175h-459v8l529 651h41v-575h149v-84h-149q-2 -137 21 -172t108 -62zM1307 326h323v395zM1536 1499l-1004 -1595h-81l1005 1595h80zM606 541v-9h-401v9q95 28 123 73q27 44 26 197v436q-105 -20 -190 -26l-6 10q99 32 161.5 75
t139.5 126h8v-621q0 -157 25 -200q26 -45 114 -70z" />
    <glyph glyph-name="onehalf" unicode="&#xbd;" horiz-adv-x="1986" 
d="M1839 109v-109h-586v49l246 277q189 213 191 336q0 76 -53.5 131t-129.5 55q-75 0 -151 -41q44 0 74 -30t30 -73q0 -41 -30 -69.5t-71 -28.5q-42 0 -73 30.5t-31 72.5q0 70 86 127q85 57 217 57q130 0 203 -65q72 -64 72 -156q0 -47 -25 -97.5t-62 -88.5q-30 -32 -93 -90
q-64 -59 -97 -91l-191 -196h474zM1536 1499l-1004 -1595h-81l1005 1595h80zM606 541v-9h-401v9q95 28 123 73q27 44 26 197v436q-105 -20 -190 -26l-6 10q99 32 161.5 75t139.5 126h8v-621q0 -157 25 -200q26 -45 114 -70z" />
    <glyph glyph-name="threequarters" unicode="&#xbe;" horiz-adv-x="1986" 
d="M1536 1499l-1004 -1595h-81l1005 1595h80zM1870 8v-8h-369v8q94 27 112 59q17 32 17 175h-459v8l529 651h41v-575h149v-84h-149q-2 -137 21 -172t108 -62zM1307 326h323v395zM519 1292h-398v121h547v-8l-228 -291q124 -18 192 -89.5t68 -194.5q0 -130 -104 -220
q-104 -92 -228 -92t-182 37q-57 37 -57 87q0 46 26 75t71 29q42 0 67 -26.5t25 -69.5q0 -45 -50 -95q24 -6 72 -6q96 2 162 65q70 66 70 186t-69 167q-69 45 -159 45q-14 0 -39 -4l-8 6z" />
    <glyph glyph-name="questiondown" unicode="&#xbf;" horiz-adv-x="964" 
d="M420 956q0 47 34 81t81 34t81 -34q34 -35 33 -81q0 -47 -34 -80.5t-81 -33.5q-46 0 -80 34t-34 80zM524 680h15q0 -98 -36 -200t-96 -188q-56 -79 -94.5 -170.5t-38.5 -172.5q0 -135 84 -212q85 -77 201 -77q148 0 242 129q-8 -2 -46 -2q-44 0 -77 33.5t-33 77.5
q0 47 32.5 78.5t79.5 31.5q49 0 80 -33q32 -34 31 -86q0 -95 -102 -193q-101 -97 -265 -97t-260.5 89.5t-97.5 252.5q0 91 54.5 191.5t130.5 182.5q74 80 132 179.5t64 185.5z" />
    <glyph glyph-name="Agrave" unicode="&#xc0;" horiz-adv-x="1384" 
d="M860 1532h-10q-211 91 -328 250h172q46 -159 166 -250zM403 571h500l-246 686zM1391 8v-8h-467v8q63 14 94 38.5t30 59.5q-1 69 -126 416h-537q-67 -180 -93 -261q-26 -83 -26 -142q0 -61 30 -79q31 -19 103 -32v-8h-407v8q41 11 71 29t54.5 49t38 54t38.5 72
q50 101 142 339l342 893h55l326 -891q95 -260 141 -359q46 -100 83 -136q35 -33 108 -50z" />
    <glyph glyph-name="Aacute" unicode="&#xc1;" horiz-adv-x="1384" 
d="M532 1532h-10q120 91 166 250h172q-117 -159 -328 -250zM403 571h500l-246 686zM1391 8v-8h-467v8q63 14 94 38.5t30 59.5q-1 69 -126 416h-537q-67 -180 -93 -261q-26 -83 -26 -142q0 -61 30 -79q31 -19 103 -32v-8h-407v8q41 11 71 29t54.5 49t38 54t38.5 72
q50 101 142 339l342 893h55l326 -891q95 -260 141 -359q46 -100 83 -136q35 -33 108 -50z" />
    <glyph glyph-name="Acircumflex" unicode="&#xc2;" horiz-adv-x="1384" 
d="M739 1782l189 -250h-17l-221 141l-219 -141h-16l184 250h100zM403 571h500l-246 686zM1391 8v-8h-467v8q63 14 94 38.5t30 59.5q-1 69 -126 416h-537q-67 -180 -93 -261q-26 -83 -26 -142q0 -61 30 -79q31 -19 103 -32v-8h-407v8q41 11 71 29t54.5 49t38 54t38.5 72
q50 101 142 339l342 893h55l326 -891q95 -260 141 -359q46 -100 83 -136q35 -33 108 -50z" />
    <glyph glyph-name="Atilde" unicode="&#xc3;" horiz-adv-x="1384" 
d="M793 1634q-47 0 -139 30t-128 30t-68.5 -23t-45.5 -57l-17 4q13 43 32.5 69.5t56.5 55.5q47 37 102 37q54 0 143 -27q90 -27 125 -27q88 0 117 74l16 -4q-57 -162 -194 -162zM403 571h500l-246 686zM1391 8v-8h-467v8q63 14 94 38.5t30 59.5q-1 69 -126 416h-537
q-67 -180 -93 -261q-26 -83 -26 -142q0 -61 30 -79q31 -19 103 -32v-8h-407v8q41 11 71 29t54.5 49t38 54t38.5 72q50 101 142 339l342 893h55l326 -891q95 -260 141 -359q46 -100 83 -136q35 -33 108 -50z" />
    <glyph glyph-name="Adieresis" unicode="&#xc4;" horiz-adv-x="1384" 
d="M641 1700q0 -40 -28.5 -68t-68.5 -28q-39 0 -67 28q-29 29 -28 68q2 40 29 68t67 28t67 -28t29 -68zM936 1700q0 -39 -28.5 -67.5t-67.5 -28.5q-40 0 -68.5 28t-28.5 68t28.5 68t68.5 28t68 -28t28 -68zM403 571h500l-246 686zM1391 8v-8h-467v8q63 14 94 38.5t30 59.5
q-1 69 -126 416h-537q-67 -180 -93 -261q-26 -83 -26 -142q0 -61 30 -79q31 -19 103 -32v-8h-407v8q41 11 71 29t54.5 49t38 54t38.5 72q50 101 142 339l342 893h55l326 -891q95 -260 141 -359q46 -100 83 -136q35 -33 108 -50z" />
    <glyph glyph-name="Aring" unicode="&#xc5;" horiz-adv-x="1384" 
d="M700 1352q65 0 107.5 45.5t42.5 110.5t-42.5 110t-107.5 45t-108 -45.5t-43 -110.5t43 -110t108 -45zM403 571h500l-246 686zM1391 8v-8h-467v8q63 14 94 38.5t30 59.5q-1 69 -126 416h-537q-67 -180 -93 -261q-26 -83 -26 -142q0 -61 30 -79q31 -19 103 -32v-8h-407v8
q41 11 71 29t54.5 49t38 54t38.5 72q50 101 142 339l291 760q-67 28 -103.5 82t-36.5 125q-1 80 65.5 139t147.5 59q82 0 148 -58.5t65 -138.5q-2 -71 -35.5 -125t-97.5 -81l279 -760q95 -260 141 -359q46 -100 83 -136q35 -33 108 -50z" />
    <glyph glyph-name="AE" unicode="&#xc6;" horiz-adv-x="1878" 
d="M520 571h463v797h-12zM1769 0h-960v8q111 29 143 74q32 46 31 197v243h-491q-174 -308 -198 -389q-24 -80 46 -108q18 -9 59 -17v-8h-407v8q99 28 190 133q89 103 264 410l334 584q85 148 39 197q-21 21 -53 36.5t-55 21.5t-64 15v8h1063v-289h-8q-41 79 -59 108
q-20 34 -31 53q-16 28 -26 35q-8 6 -25 21q-31 27 -117 27h-330v-618h307q69 0 104 26q32 24 85 109h8v-316h-8q-51 82 -85 109q-35 27 -104 27h-307v-660h387q56 0 82 11t71 48q16 13 42 56q55 81 106 162h8z" />
    <glyph glyph-name="Ccedilla" unicode="&#xc7;" horiz-adv-x="1394" 
d="M618 -375l25 23q67 -29 123 -29q58 0 99.5 26t41.5 81q0 30 -21 53t-53.5 34.5t-63 17t-58.5 5.5l100 135q-207 7 -369.5 95t-256 248t-93.5 368q0 224 112 400q109 170 276.5 265t367.5 95q90 0 209 -23t196 -57v-270h-8q-139 315 -424 315q-255 0 -413 -201
q-158 -203 -158 -502q0 -300 164 -500t428 -200q164 0 271 89t179 253h8l-26 -291q-144 -75 -404 -86l-47 -73q77 -8 136 -52t59 -116q0 -56 -39.5 -93t-89 -50t-104.5 -13q-94 0 -167 53z" />
    <glyph glyph-name="Egrave" unicode="&#xc8;" horiz-adv-x="1136" 
d="M737 1532h-10q-211 91 -328 250h172q46 -159 166 -250zM1028 0h-960v8q110 29 142 74q32 46 32 197v856q0 65 -5 102.5t-22.5 73t-52.5 57t-94 37.5v8h901v-289h-8q-41 79 -59 108q-4 7 -15 25t-17 28q-16 27 -25 35l-11 10q-12 10 -22 18q-25 20 -110 20h-329v-618h307
q39 0 66 7.5t49.5 29t35 39.5t37.5 59h9v-316h-9q-51 82 -85 109q-35 27 -103 27h-307v-660h387q67 0 111.5 26.5t82.5 85.5q11 17 32 49t27 42q8 13 24.5 38.5t23.5 35.5h8z" />
    <glyph glyph-name="Eacute" unicode="&#xc9;" horiz-adv-x="1136" 
d="M487 1532h-10q120 91 166 250h172q-117 -159 -328 -250zM1028 0h-960v8q110 29 142 74q32 46 32 197v856q0 65 -5 102.5t-22.5 73t-52.5 57t-94 37.5v8h901v-289h-8q-41 79 -59 108q-4 7 -15 25t-17 28q-16 27 -25 35l-11 10q-12 10 -22 18q-25 20 -110 20h-329v-618h307
q39 0 66 7.5t49.5 29t35 39.5t37.5 59h9v-316h-9q-51 82 -85 109q-35 27 -103 27h-307v-660h387q67 0 111.5 26.5t82.5 85.5q11 17 32 49t27 42q8 13 24.5 38.5t23.5 35.5h8z" />
    <glyph glyph-name="Ecircumflex" unicode="&#xca;" horiz-adv-x="1136" 
d="M616 1782l189 -250h-17l-221 141l-219 -141h-16l184 250h100zM1028 0h-960v8q110 29 142 74q32 46 32 197v856q0 65 -5 102.5t-22.5 73t-52.5 57t-94 37.5v8h901v-289h-8q-41 79 -59 108q-4 7 -15 25t-17 28q-16 27 -25 35l-11 10q-12 10 -22 18q-25 20 -110 20h-329
v-618h307q39 0 66 7.5t49.5 29t35 39.5t37.5 59h9v-316h-9q-51 82 -85 109q-35 27 -103 27h-307v-660h387q67 0 111.5 26.5t82.5 85.5q11 17 32 49t27 42q8 13 24.5 38.5t23.5 35.5h8z" />
    <glyph glyph-name="Edieresis" unicode="&#xcb;" horiz-adv-x="1136" 
d="M535 1700q0 -40 -28.5 -68t-68.5 -28t-68 28t-28 68q0 39 28.5 67.5t67.5 28.5q40 0 68.5 -28t28.5 -68zM829 1700q-2 -40 -29 -68t-67 -28t-67 28t-29 68q0 40 28.5 68t68.5 28q39 0 66 -28t29 -68zM1028 0h-960v8q110 29 142 74q32 46 32 197v856q0 65 -5 102.5
t-22.5 73t-52.5 57t-94 37.5v8h901v-289h-8q-41 79 -59 108q-4 7 -15 25t-17 28q-16 27 -25 35l-11 10q-12 10 -22 18q-25 20 -110 20h-329v-618h307q39 0 66 7.5t49.5 29t35 39.5t37.5 59h9v-316h-9q-51 82 -85 109q-35 27 -103 27h-307v-660h387q67 0 111.5 26.5
t82.5 85.5q11 17 32 49t27 42q8 13 24.5 38.5t23.5 35.5h8z" />
    <glyph glyph-name="Igrave" unicode="&#xcc;" horiz-adv-x="614" 
d="M475 1532h-10q-211 91 -328 250h172q46 -159 166 -250zM547 8v-8h-479v8q110 29 142 71q32 43 32 179v897q0 136 -32 179q-32 42 -142 71v8h479v-8q-111 -29 -143 -71q-32 -43 -31 -179v-897q-1 -136 31 -179q32 -42 143 -71z" />
    <glyph glyph-name="Iacute" unicode="&#xcd;" horiz-adv-x="614" 
d="M147 1532h-10q120 91 166 250h172q-117 -159 -328 -250zM547 8v-8h-479v8q110 29 142 71q32 43 32 179v897q0 136 -32 179q-32 42 -142 71v8h479v-8q-111 -29 -143 -71q-32 -43 -31 -179v-897q-1 -136 31 -179q32 -42 143 -71z" />
    <glyph glyph-name="Icircumflex" unicode="&#xce;" horiz-adv-x="614" 
d="M356 1782l189 -250h-17l-221 141l-219 -141h-16l184 250h100zM547 8v-8h-479v8q110 29 142 71q32 43 32 179v897q0 136 -32 179q-32 42 -142 71v8h479v-8q-111 -29 -143 -71q-32 -43 -31 -179v-897q-1 -136 31 -179q32 -42 143 -71z" />
    <glyph glyph-name="Idieresis" unicode="&#xcf;" horiz-adv-x="614" 
d="M256 1700q0 -39 -28.5 -67.5t-67.5 -28.5q-40 0 -68.5 28t-28.5 68t28.5 68t68.5 28t68 -28t28 -68zM551 1700q0 -40 -28.5 -68t-68.5 -28q-39 0 -67.5 28.5t-28.5 67.5q0 40 28.5 68t68.5 28t67 -28t29 -68zM547 8v-8h-479v8q110 29 142 71q32 43 32 179v897
q0 136 -32 179q-32 42 -142 71v8h479v-8q-111 -29 -143 -71q-32 -43 -31 -179v-897q-1 -136 31 -179q32 -42 143 -71z" />
    <glyph glyph-name="Eth" unicode="&#xd0;" horiz-adv-x="1540" 
d="M381 700v-655h293q302 0 469.5 182t167.5 487q0 304 -171 479t-442 175h-317v-612h348v-56h-348zM668 0h-592v8q110 29 142 74q32 46 32 197v421h-156v56h156v379q0 153 -32 197t-142 73v8h612q328 0 549 -169q117 -88 174 -226.5t57 -296.5q0 -173 -62 -311.5
t-170.5 -227t-253.5 -135.5t-314 -47z" />
    <glyph glyph-name="Ntilde" unicode="&#xd1;" horiz-adv-x="1611" 
d="M907 1634q-47 0 -138 30t-128 30q-36 0 -69 -23t-46 -57l-16 4q17 46 34 70.5t55 54.5q46 37 101 37q54 0 144 -27t125 -27q87 0 116 74l17 -4q-57 -162 -195 -162zM1417 987v-1007h-59l-1065 1280v-834q0 -164 14 -246q13 -76 43.5 -111.5t104.5 -60.5v-8h-381v8
q72 23 102.5 58.5t44.5 111.5q13 78 15 248v780q0 60 -52 118q-53 59 -151 81v8h307l1020 -1218v792q0 164 -14 246q-13 76 -44 112.5t-104 59.5v8h381v-8q-72 -22 -103 -58t-44 -111q-14 -80 -15 -249z" />
    <glyph glyph-name="Ograve" unicode="&#xd2;" horiz-adv-x="1617" 
d="M977 1532h-10q-211 91 -328 250h172q46 -159 166 -250zM412 207q161 -203 397 -203t397 203q160 202 160 500q0 297 -160 499t-398 201q-239 0 -396 -202q-160 -202 -160 -499t160 -499zM1313 178q-218 -209 -504 -209t-504 209q-217 208 -217 522t222 528
q221 214 498 214t500 -214q222 -214 222 -528t-217 -522z" />
    <glyph glyph-name="Oacute" unicode="&#xd3;" horiz-adv-x="1617" 
d="M745 1532h-10q120 91 166 250h172q-117 -159 -328 -250zM412 207q161 -203 397 -203t397 203q160 202 160 500q0 297 -160 499t-398 201q-239 0 -396 -202q-160 -202 -160 -499t160 -499zM1313 178q-218 -209 -504 -209t-504 209q-217 208 -217 522t222 528
q221 214 498 214t500 -214q222 -214 222 -528t-217 -522z" />
    <glyph glyph-name="Ocircumflex" unicode="&#xd4;" horiz-adv-x="1617" 
d="M856 1782l188 -250h-16l-221 141l-219 -141h-17l185 250h100zM412 207q161 -203 397 -203t397 203q160 202 160 500q0 297 -160 499t-398 201q-239 0 -396 -202q-160 -202 -160 -499t160 -499zM1313 178q-218 -209 -504 -209t-504 209q-217 208 -217 522t222 528
q221 214 498 214t500 -214q222 -214 222 -528t-217 -522z" />
    <glyph glyph-name="Otilde" unicode="&#xd5;" horiz-adv-x="1617" 
d="M909 1634q-47 0 -138 30t-128 30q-36 0 -69 -23t-46 -57l-16 4q17 46 34 70.5t55 54.5q46 37 101 37q54 0 144 -27t125 -27q87 0 116 74l17 -4q-57 -162 -195 -162zM412 207q161 -203 397 -203t397 203q160 202 160 500q0 297 -160 499t-398 201q-239 0 -396 -202
q-160 -202 -160 -499t160 -499zM1313 178q-218 -209 -504 -209t-504 209q-217 208 -217 522t222 528q221 214 498 214t500 -214q222 -214 222 -528t-217 -522z" />
    <glyph glyph-name="Odieresis" unicode="&#xd6;" horiz-adv-x="1617" 
d="M758 1700q0 -39 -28.5 -67.5t-67.5 -28.5q-40 0 -68.5 28t-28.5 68t28.5 68t68.5 28t68 -28t28 -68zM1053 1700q0 -40 -28.5 -68t-68.5 -28t-68 28t-28 68q0 39 28.5 67.5t67.5 28.5q40 0 68.5 -28t28.5 -68zM412 207q161 -203 397 -203t397 203q160 202 160 500
q0 297 -160 499t-398 201q-239 0 -396 -202q-160 -202 -160 -499t160 -499zM1313 178q-218 -209 -504 -209t-504 209q-217 208 -217 522t222 528q221 214 498 214t500 -214q222 -214 222 -528t-217 -522z" />
    <glyph glyph-name="multiply" unicode="&#xd7;" 
d="M215 285l293 293l-293 292l76 76l293 -293l293 293l75 -76l-293 -292l293 -293l-75 -76l-293 293l-293 -293z" />
    <glyph glyph-name="Oslash" unicode="&#xd8;" horiz-adv-x="1617" 
d="M406 215l768 1026q-154 166 -378 166t-384 -202t-160 -497q0 -294 154 -493zM1210 1196l-768 -1026q154 -166 380 -166t384 203q160 202 160 495q0 291 -156 494zM223 -31l125 168q-260 219 -260 547t222 544q221 214 499 214q216 0 410 -139l131 174l45 -35l-131 -174
q266 -225 266 -570q0 -312 -217 -520q-218 -209 -504 -209q-225 0 -416 135l-129 -172z" />
    <glyph glyph-name="Ugrave" unicode="&#xd9;" horiz-adv-x="1579" 
d="M958 1532h-10q-212 91 -327 250h172q46 -160 165 -250zM1284 387v600q0 228 -31 306q-31 79 -131 112v8h381v-8q-72 -23 -103.5 -62t-44.5 -116q-12 -73 -14 -240v-606q0 -89 -31 -160.5t-83 -117.5t-123 -76.5t-146.5 -43.5t-158.5 -14q-82 0 -158 13t-148.5 44
t-125.5 77.5t-85.5 117.5t-31.5 160v774q0 119 -32.5 170t-141.5 80v8h479v-8q-109 -29 -141.5 -80t-32.5 -170v-803q0 -143 118 -230q119 -87 325 -87q71 0 135.5 11t124.5 37.5t104 66t70 100.5t26 137z" />
    <glyph glyph-name="Uacute" unicode="&#xda;" horiz-adv-x="1579" 
d="M735 1532h-10q120 91 166 250h172q-117 -159 -328 -250zM1284 387v600q0 228 -31 306q-31 79 -131 112v8h381v-8q-72 -23 -103.5 -62t-44.5 -116q-12 -73 -14 -240v-606q0 -89 -31 -160.5t-83 -117.5t-123 -76.5t-146.5 -43.5t-158.5 -14q-82 0 -158 13t-148.5 44
t-125.5 77.5t-85.5 117.5t-31.5 160v774q0 119 -32.5 170t-141.5 80v8h479v-8q-109 -29 -141.5 -80t-32.5 -170v-803q0 -143 118 -230q119 -87 325 -87q71 0 135.5 11t124.5 37.5t104 66t70 100.5t26 137z" />
    <glyph glyph-name="Ucircumflex" unicode="&#xdb;" horiz-adv-x="1579" 
d="M838 1782l188 -250h-16l-222 141l-219 -141h-16l184 250h101zM1284 387v600q0 228 -31 306q-31 79 -131 112v8h381v-8q-72 -23 -103.5 -62t-44.5 -116q-12 -73 -14 -240v-606q0 -89 -31 -160.5t-83 -117.5t-123 -76.5t-146.5 -43.5t-158.5 -14q-82 0 -158 13t-148.5 44
t-125.5 77.5t-85.5 117.5t-31.5 160v774q0 119 -32.5 170t-141.5 80v8h479v-8q-109 -29 -141.5 -80t-32.5 -170v-803q0 -143 118 -230q119 -87 325 -87q71 0 135.5 11t124.5 37.5t104 66t70 100.5t26 137z" />
    <glyph glyph-name="Udieresis" unicode="&#xdc;" horiz-adv-x="1579" 
d="M737 1700q-2 -40 -29 -68t-67 -28t-68 28q-29 29 -28 68q2 40 29 68t67 28t67 -28t29 -68zM1032 1700q0 -40 -28 -68t-68 -28t-68 28q-29 29 -28 68q0 40 28 68t68 28t68 -28t28 -68zM1284 387v600q0 228 -31 306q-31 79 -131 112v8h381v-8q-72 -23 -103.5 -62
t-44.5 -116q-12 -73 -14 -240v-606q0 -89 -31 -160.5t-83 -117.5t-123 -76.5t-146.5 -43.5t-158.5 -14q-82 0 -158 13t-148.5 44t-125.5 77.5t-85.5 117.5t-31.5 160v774q0 119 -32.5 170t-141.5 80v8h479v-8q-109 -29 -141.5 -80t-32.5 -170v-803q0 -143 118 -230
q119 -87 325 -87q71 0 135.5 11t124.5 37.5t104 66t70 100.5t26 137z" />
    <glyph glyph-name="Yacute" unicode="&#xdd;" horiz-adv-x="1292" 
d="M487 1532h-10q120 91 166 250h172q-117 -159 -328 -250zM893 8v-8h-479v8q105 27 139 84q35 58 35 187v339l-207 365q-160 283 -235 349q-36 33 -61.5 47t-72.5 26v8h439v-8q-42 -8 -61 -15q-20 -8 -34 -26q-14 -19 -11 -42q3 -22 23 -75q19 -48 140 -258l186 -315
l189 338q93 167 117 238t1 103t-106 52v8h385v-8q-75 -11 -140 -86q-65 -76 -202 -313l-219 -383v-344q0 -128 35 -187q34 -58 139 -84z" />
    <glyph glyph-name="Thorn" unicode="&#xde;" horiz-adv-x="1202" 
d="M373 1057v-684h231q184 0 287.5 84.5t103.5 263.5q0 176 -89 256t-267 80h-266zM588 8v-8h-520v8q110 29 142 74q32 46 32 197v876q0 136 -32 179q-32 42 -142 71v8h479v-8q-111 -29 -143 -71q-32 -43 -31 -179v-53h297q80 0 146 -9.5t128 -34.5t104 -64.5t67.5 -104
t25.5 -148.5q0 -233 -162 -328q-143 -83 -340 -83h-266v-51q0 -61 5 -98t16.5 -67.5t37.5 -48.5t61.5 -31.5t94.5 -25.5z" />
    <glyph glyph-name="germandbls" unicode="&#xdf;" horiz-adv-x="1214" 
d="M625 -25v31q113 7 194 42t130.5 111.5t49.5 190.5q-2 69 -31 135.5t-80 112.5q-106 98 -360 190l-6 17q139 66 234.5 175.5t95.5 245.5q0 120 -65 200q-65 79 -154 79q-129 1 -204 -113t-75 -348v-765q0 -141 29 -191t121 -80v-8h-426v8q92 29 121 79q29 51 28 192v411
q0 172 -24 216q-25 44 -150 63v8l174 35q0 169 39 268q53 133 136.5 198.5t224.5 65.5q176 0 269 -90t93 -227q0 -55 -35 -114.5t-83 -102.5q-42 -38 -105 -84q-61 -45 -80 -64v-8q453 -164 453 -448q-1 -106 -43.5 -190t-114.5 -135.5t-163 -78.5t-193 -27z" />
    <glyph glyph-name="agrave" unicode="&#xe0;" horiz-adv-x="1015" 
d="M606 1163h-10q-211 91 -328 250h172q46 -159 166 -250zM555 528q-50 0 -96 -7.5t-90.5 -25.5t-77 -45.5t-52.5 -70.5t-20 -97q-1 -114 63 -171t180 -57t245 75v387q-68 12 -152 12zM817 -16q-101 0 -108 129q-71 -63 -163 -100.5t-184 -37.5q-103 0 -188 67
q-86 68 -86 200q0 336 619 329v136q-2 160 -61.5 228.5t-216.5 68.5t-249 -89q117 -12 117 -94q0 -37 -24.5 -59.5t-62.5 -24.5q-33 0 -62 23t-27 71q0 103 123 170q124 68 280 68q303 0 303 -285v-544q0 -120 55 -154q54 -33 146 -41v-8q-126 -53 -211 -53z" />
    <glyph glyph-name="aacute" unicode="&#xe1;" horiz-adv-x="1015" 
d="M391 1163h-10q120 91 166 250h172q-117 -159 -328 -250zM555 528q-50 0 -96 -7.5t-90.5 -25.5t-77 -45.5t-52.5 -70.5t-20 -97q-1 -114 63 -171t180 -57t245 75v387q-68 12 -152 12zM817 -16q-101 0 -108 129q-71 -63 -163 -100.5t-184 -37.5q-103 0 -188 67
q-86 68 -86 200q0 336 619 329v136q-2 160 -61.5 228.5t-216.5 68.5t-249 -89q117 -12 117 -94q0 -37 -24.5 -59.5t-62.5 -24.5q-33 0 -62 23t-27 71q0 103 123 170q124 68 280 68q303 0 303 -285v-544q0 -120 55 -154q54 -33 146 -41v-8q-126 -53 -211 -53z" />
    <glyph glyph-name="acircumflex" unicode="&#xe2;" horiz-adv-x="1015" 
d="M555 1413l188 -250h-16l-221 142l-219 -142h-17l185 250h100zM555 528q-50 0 -96 -7.5t-90.5 -25.5t-77 -45.5t-52.5 -70.5t-20 -97q-1 -114 63 -171t180 -57t245 75v387q-68 12 -152 12zM817 -16q-101 0 -108 129q-71 -63 -163 -100.5t-184 -37.5q-103 0 -188 67
q-86 68 -86 200q0 336 619 329v136q-2 160 -61.5 228.5t-216.5 68.5t-249 -89q117 -12 117 -94q0 -37 -24.5 -59.5t-62.5 -24.5q-33 0 -62 23t-27 71q0 103 123 170q124 68 280 68q303 0 303 -285v-544q0 -120 55 -154q54 -33 146 -41v-8q-126 -53 -211 -53z" />
    <glyph glyph-name="atilde" unicode="&#xe3;" horiz-adv-x="1015" 
d="M342 1325q-37 0 -69.5 -22.5t-45.5 -57.5l-16 4q17 47 34 71.5t55 53.5q47 35 102 37q54 0 143 -27q89 -26 122 -26q90 0 119 74l17 -5q-57 -162 -195 -161q-46 0 -138 30q-90 29 -126 29h-2zM555 528q-50 0 -96 -7.5t-90.5 -25.5t-77 -45.5t-52.5 -70.5t-20 -97
q-1 -114 63 -171t180 -57t245 75v387q-68 12 -152 12zM817 -16q-101 0 -108 129q-71 -63 -163 -100.5t-184 -37.5q-103 0 -188 67q-86 68 -86 200q0 336 619 329v136q-2 160 -61.5 228.5t-216.5 68.5t-249 -89q117 -12 117 -94q0 -37 -24.5 -59.5t-62.5 -24.5q-33 0 -62 23
t-27 71q0 103 123 170q124 68 280 68q303 0 303 -285v-544q0 -120 55 -154q54 -33 146 -41v-8q-126 -53 -211 -53z" />
    <glyph glyph-name="adieresis" unicode="&#xe4;" horiz-adv-x="1015" 
d="M457 1331q0 -39 -28.5 -66.5t-68.5 -29.5q-40 0 -68 28.5t-28 68.5q0 38 29 67t67 29t67.5 -29.5t29.5 -67.5zM752 1331q0 -39 -28.5 -66.5t-68.5 -29.5q-39 0 -66.5 28.5t-29.5 68.5q0 38 29.5 67t67.5 29t67 -29.5t29 -67.5zM555 528q-50 0 -96 -7.5t-90.5 -25.5
t-77 -45.5t-52.5 -70.5t-20 -97q-1 -114 63 -171t180 -57t245 75v387q-68 12 -152 12zM817 -16q-101 0 -108 129q-71 -63 -163 -100.5t-184 -37.5q-103 0 -188 67q-86 68 -86 200q0 336 619 329v136q-2 160 -61.5 228.5t-216.5 68.5t-249 -89q117 -12 117 -94
q0 -37 -24.5 -59.5t-62.5 -24.5q-33 0 -62 23t-27 71q0 103 123 170q124 68 280 68q303 0 303 -285v-544q0 -120 55 -154q54 -33 146 -41v-8q-126 -53 -211 -53z" />
    <glyph glyph-name="aring" unicode="&#xe5;" horiz-adv-x="1015" 
d="M508 1210q65 0 107 45.5t42 110.5t-42 110.5t-107 45.5t-108.5 -45t-43.5 -111t43.5 -111t108.5 -45zM721 1366q1 -86 -62.5 -147t-150.5 -61q-86 0 -150 60q-65 62 -63 148q0 87 63 147.5t150 60.5q86 0 150 -60q65 -62 63 -148zM555 528q-50 0 -96 -7.5t-90.5 -25.5
t-77 -45.5t-52.5 -70.5t-20 -97q-1 -114 63 -171t180 -57t245 75v387q-68 12 -152 12zM817 -16q-101 0 -108 129q-71 -63 -163 -100.5t-184 -37.5q-103 0 -188 67q-86 68 -86 200q0 336 619 329v136q-2 160 -61.5 228.5t-216.5 68.5t-249 -89q117 -12 117 -94
q0 -37 -24.5 -59.5t-62.5 -24.5q-33 0 -62 23t-27 71q0 103 123 170q124 68 280 68q303 0 303 -285v-544q0 -120 55 -154q54 -33 146 -41v-8q-126 -53 -211 -53z" />
    <glyph glyph-name="ae" unicode="&#xe6;" horiz-adv-x="1599" 
d="M1325 932q-73 96 -187 96t-206 -110q-91 -109 -111 -287l576 18q0 187 -72 283zM707 487v29q-79 12 -152 12q-50 0 -96 -7.5t-90.5 -25.5t-77 -45.5t-52.5 -70.5t-20 -97q-1 -114 63 -171t154 -57q87 0 176.5 39.5t153.5 103.5q-59 123 -59 290zM1120 -25
q-224 0 -336 189q-258 -188 -411 -189q-114 0 -199 67q-86 68 -86 200q0 336 619 329v136q-2 160 -61.5 228.5t-216.5 68.5t-249 -89q117 -12 117 -94q0 -37 -24.5 -59.5t-62.5 -24.5q-33 0 -62 23t-27 71q0 103 123 170q124 68 280 68q246 0 281 -207q62 95 156.5 150.5
t205.5 56.5q151 0 259 -102t108 -318q0 -23 -2 -55h-715v-47q-1 -92 21.5 -174t67.5 -147.5t120 -103.5t171 -38q176 0 327 125l12 -8q-46 -79 -156 -153q-109 -73 -260 -73z" />
    <glyph glyph-name="ccedilla" unicode="&#xe7;" horiz-adv-x="937" 
d="M472 -428q-94 0 -167 53l25 23q67 -29 123 -29q58 0 99.5 26t41.5 81q0 30 -21 53t-53.5 34.5t-63.5 17t-59 5.5l107 144q-174 18 -285 160q-111 143 -111 373q0 232 139 393q138 162 343 163q41 0 86.5 -8t93 -25t78 -51t31.5 -78q0 -44 -29.5 -76.5t-73.5 -32.5t-73 28
q-31 26 -29 65q0 75 57 113q-60 24 -139 24q-77 0 -139 -29t-101.5 -76t-65.5 -111t-37 -130.5t-11 -137.5q0 -215 116 -339q116 -123 276 -123q159 0 316 131l12 -8q-43 -75 -148 -152t-249 -78l-51 -79q71 -7 133 -50q61 -42 61 -118q0 -56 -39.5 -93t-88.5 -50t-104 -13z
" />
    <glyph glyph-name="egrave" unicode="&#xe8;" horiz-adv-x="1028" 
d="M682 1163h-10q-211 91 -328 250h172q46 -159 166 -250zM755 937q-70 91 -186 91q-114 0 -206 -108t-111 -277l573 19q0 184 -70 275zM549 -25q-190 -1 -312 139t-122 388q0 247 143 408q143 159 338 159q152 0 260 -96q109 -96 107 -311q0 -22 -2 -56h-713q-2 -26 -2 -59
q0 -93 22.5 -174t66.5 -147t118.5 -104t171.5 -38q176 0 327 125l13 -8q-47 -79 -156 -153q-109 -73 -260 -73z" />
    <glyph glyph-name="eacute" unicode="&#xe9;" horiz-adv-x="1028" 
d="M446 1163h-10q120 91 166 250h172q-117 -159 -328 -250zM755 937q-70 91 -186 91q-114 0 -206 -108t-111 -277l573 19q0 184 -70 275zM549 -25q-190 -1 -312 139t-122 388q0 247 143 408q143 159 338 159q152 0 260 -96q109 -96 107 -311q0 -22 -2 -56h-713
q-2 -26 -2 -59q0 -93 22.5 -174t66.5 -147t118.5 -104t171.5 -38q176 0 327 125l13 -8q-47 -79 -156 -153q-109 -73 -260 -73z" />
    <glyph glyph-name="ecircumflex" unicode="&#xea;" horiz-adv-x="1028" 
d="M618 1413l189 -250h-16l-222 142l-219 -142h-16l184 250h100zM755 937q-70 91 -186 91q-114 0 -206 -108t-111 -277l573 19q0 184 -70 275zM549 -25q-190 -1 -312 139t-122 388q0 247 143 408q143 159 338 159q152 0 260 -96q109 -96 107 -311q0 -22 -2 -56h-713
q-2 -26 -2 -59q0 -93 22.5 -174t66.5 -147t118.5 -104t171.5 -38q176 0 327 125l13 -8q-47 -79 -156 -153q-109 -73 -260 -73z" />
    <glyph glyph-name="edieresis" unicode="&#xeb;" horiz-adv-x="1028" 
d="M508 1331q0 -39 -28.5 -66.5t-67.5 -29.5q-39 0 -68 29t-29 68t29 67.5t68 28.5t67.5 -29t28.5 -68zM803 1331q0 -39 -28.5 -66.5t-68.5 -29.5q-38 0 -67 29.5t-29 67.5q0 39 29 67.5t68 28.5q38 0 66 -29t30 -68zM755 937q-70 91 -186 91q-114 0 -206 -108t-111 -277
l573 19q0 184 -70 275zM549 -25q-190 -1 -312 139t-122 388q0 247 143 408q143 159 338 159q152 0 260 -96q109 -96 107 -311q0 -22 -2 -56h-713q-2 -26 -2 -59q0 -93 22.5 -174t66.5 -147t118.5 -104t171.5 -38q176 0 327 125l13 -8q-47 -79 -156 -153q-109 -73 -260 -73z
" />
    <glyph glyph-name="igrave" unicode="&#xec;" horiz-adv-x="550" 
d="M444 1163h-10q-211 91 -328 250h173q46 -160 165 -250zM498 8v-8h-420v8q95 28 123 64q27 35 26 155v545q0 158 -65 187q-28 13 -109 30v8q148 17 287 72h8v-842q0 -121 27 -155q26 -34 123 -64z" />
    <glyph glyph-name="iacute" unicode="&#xed;" horiz-adv-x="550" 
d="M117 1163h-11q120 91 166 250h172q-115 -159 -327 -250zM498 8v-8h-420v8q95 28 123 64q27 35 26 155v545q0 158 -65 187q-28 13 -109 30v8q148 17 287 72h8v-842q0 -121 27 -155q26 -34 123 -64z" />
    <glyph glyph-name="icircumflex" unicode="&#xee;" horiz-adv-x="550" 
d="M324 1413l188 -250h-16l-222 142l-219 -142h-16l184 250h101zM498 8v-8h-420v8q95 28 123 64q27 35 26 155v545q0 158 -65 187q-28 13 -109 30v8q148 17 287 72h8v-842q0 -121 27 -155q26 -34 123 -64z" />
    <glyph glyph-name="idieresis" unicode="&#xef;" horiz-adv-x="550" 
d="M225 1331q-1 -40 -28.5 -67.5t-67.5 -28.5q-39 0 -68 29t-29 68t29 67.5t68 28.5q40 0 68 -28.5t28 -68.5zM520 1331q0 -40 -28 -67t-68 -29q-40 0 -68 28.5t-28 68.5q0 39 28.5 67.5t67.5 28.5q40 0 68 -28.5t28 -68.5zM498 8v-8h-420v8q95 28 123 64q27 35 26 155v545
q0 158 -65 187q-28 13 -109 30v8q148 17 287 72h8v-842q0 -121 27 -155q26 -34 123 -64z" />
    <glyph glyph-name="eth" unicode="&#xf0;" horiz-adv-x="1267" 
d="M633 14q77 0 141.5 32t106.5 84t71.5 120.5t42.5 138.5t13 141q0 208 -104 354t-271 146t-271 -146t-104 -354q0 -71 13 -141t42.5 -138.5t71.5 -120.5t106.5 -84t141.5 -32zM1159 526q1 -230 -153 -390q-155 -161 -372 -161t-372 161q-154 160 -153 390q0 228 155 386
q156 157 369 157q114 0 217 -53q-85 157 -281 342l-192 -78l-17 45l170 68l-172 151h13q85 -45 213 -129l219 88l16 -45l-188 -76q528 -382 528 -856z" />
    <glyph glyph-name="ntilde" unicode="&#xf1;" horiz-adv-x="1204" 
d="M436 1325q-37 0 -69 -22.5t-45 -57.5l-17 4q17 47 34 71.5t55 53.5q47 35 102 37q54 0 143 -27q89 -26 122 -26q92 0 120 74l16 -5q-57 -162 -195 -161q-46 0 -138 30q-90 29 -126 29h-2zM1165 8v-8h-420v8q95 28 123 67q27 37 27 163v477q0 130 -66.5 198.5t-196.5 69.5
q-124 0 -290 -96v-660q0 -153 54 -182q30 -16 96 -37v-8h-420v8q66 21 96 37q55 29 53 182v545q0 158 -65 187q-28 13 -109 30v8q148 17 287 72h8v-158q206 158 377 158q131 0 214 -84q83 -85 83 -266v-481q0 -125 26 -163q26 -39 123 -67z" />
    <glyph glyph-name="ograve" unicode="&#xf2;" horiz-adv-x="1267" 
d="M803 1163h-10q-211 91 -328 250h172q46 -159 166 -250zM633 14q77 0 141.5 32t106.5 84t71.5 120.5t42.5 138.5t13 141q0 208 -104 354t-271 146t-271 -146t-104 -354q0 -71 13 -141t42.5 -138.5t71.5 -120.5t106.5 -84t141.5 -32zM1006 136q-155 -161 -372 -161
t-372 161q-154 160 -153 390q0 228 155 386q156 157 370 157t370 -157q156 -158 156 -386q0 -230 -154 -390z" />
    <glyph glyph-name="oacute" unicode="&#xf3;" horiz-adv-x="1267" 
d="M518 1163h-10q120 91 166 250h172q-117 -159 -328 -250zM633 14q77 0 141.5 32t106.5 84t71.5 120.5t42.5 138.5t13 141q0 208 -104 354t-271 146t-271 -146t-104 -354q0 -71 13 -141t42.5 -138.5t71.5 -120.5t106.5 -84t141.5 -32zM1006 136q-155 -161 -372 -161
t-372 161q-154 160 -153 390q0 228 155 386q156 157 370 157t370 -157q156 -158 156 -386q0 -230 -154 -390z" />
    <glyph glyph-name="ocircumflex" unicode="&#xf4;" horiz-adv-x="1267" 
d="M682 1413l188 -250h-16l-221 142l-219 -142h-17l185 250h100zM633 14q77 0 141.5 32t106.5 84t71.5 120.5t42.5 138.5t13 141q0 208 -104 354t-271 146t-271 -146t-104 -354q0 -71 13 -141t42.5 -138.5t71.5 -120.5t106.5 -84t141.5 -32zM1006 136q-155 -161 -372 -161
t-372 161q-154 160 -153 390q0 228 155 386q156 157 370 157t370 -157q156 -158 156 -386q0 -230 -154 -390z" />
    <glyph glyph-name="otilde" unicode="&#xf5;" horiz-adv-x="1267" 
d="M469 1325q-37 0 -69.5 -22.5t-45.5 -57.5l-16 4q17 47 34 71.5t55 53.5q46 35 101 37q54 0 144 -27q89 -26 122 -26q90 0 119 74l17 -5q-57 -162 -195 -161q-47 0 -138 30q-90 29 -126 29h-2zM633 14q77 0 141.5 32t106.5 84t71.5 120.5t42.5 138.5t13 141
q0 208 -104 354t-271 146t-271 -146t-104 -354q0 -71 13 -141t42.5 -138.5t71.5 -120.5t106.5 -84t141.5 -32zM1006 136q-155 -161 -372 -161t-372 161q-154 160 -153 390q0 228 155 386q156 157 370 157t370 -157q156 -158 156 -386q0 -230 -154 -390z" />
    <glyph glyph-name="odieresis" unicode="&#xf6;" horiz-adv-x="1267" 
d="M582 1331q0 -39 -28.5 -66.5t-68.5 -29.5q-39 0 -66.5 28.5t-29.5 68.5q0 38 29.5 67t67.5 29t67 -29.5t29 -67.5zM877 1331q0 -39 -28.5 -66.5t-68.5 -29.5q-40 0 -68 28.5t-28 68.5q0 38 29 67t67 29t67.5 -29.5t29.5 -67.5zM633 14q77 0 141.5 32t106.5 84t71.5 120.5
t42.5 138.5t13 141q0 208 -104 354t-271 146t-271 -146t-104 -354q0 -71 13 -141t42.5 -138.5t71.5 -120.5t106.5 -84t141.5 -32zM1006 136q-155 -161 -372 -161t-372 161q-154 160 -153 390q0 228 155 386q156 157 370 157t370 -157q156 -158 156 -386q0 -230 -154 -390z
" />
    <glyph glyph-name="divide" unicode="&#xf7;" 
d="M1010 631v-107h-852v107h852zM698 1012q0 -46 -34 -80.5t-80 -34.5t-80.5 34.5t-34.5 80.5q0 47 34 80.5t81 33.5t80.5 -33.5t33.5 -80.5zM698 141q0 -47 -33.5 -81t-80.5 -34t-81 34t-34 81t34 81t81 34t80.5 -34t33.5 -81z" />
    <glyph glyph-name="oslash" unicode="&#xf8;" horiz-adv-x="1267" 
d="M1007 528q0 205 -104 353l-497 -772q94 -93 227 -95q77 0 141 32t106.5 83.5t71.5 119.5t42 138t13 141zM633 1030q-167 0 -271 -146t-104 -364t111 -366l497 772q-98 104 -233 104zM109 526q0 228 155 386q156 157 369 157q146 0 274 -80l82 127l47 -31l-84 -129
q207 -160 207 -430q1 -230 -153 -390q-155 -161 -373 -161q-142 0 -264 74l-70 -108l-49 28l72 113q-97 78 -156 194t-57 250z" />
    <glyph glyph-name="ugrave" unicode="&#xf9;" horiz-adv-x="1159" 
d="M748 1163h-11q-212 91 -327 250h172q46 -159 166 -250zM858 -25h-8v142q-200 -140 -371 -142q-283 0 -282 334v463q0 157 -66 187q-29 13 -108 30v8q146 16 286 72h8v-756q2 -252 255 -253q123 0 278 85v627q0 157 -66 187q-28 13 -108 30v8q148 17 287 72h8v-797
q0 -158 65 -187q28 -13 109 -30v-8q-148 -17 -287 -72z" />
    <glyph glyph-name="uacute" unicode="&#xfa;" horiz-adv-x="1159" 
d="M461 1163h-10q119 90 165 250h172q-115 -159 -327 -250zM858 -25h-8v142q-200 -140 -371 -142q-283 0 -282 334v463q0 157 -66 187q-29 13 -108 30v8q146 16 286 72h8v-756q2 -252 255 -253q123 0 278 85v627q0 157 -66 187q-28 13 -108 30v8q148 17 287 72h8v-797
q0 -158 65 -187q28 -13 109 -30v-8q-148 -17 -287 -72z" />
    <glyph glyph-name="ucircumflex" unicode="&#xfb;" horiz-adv-x="1159" 
d="M627 1413l188 -250h-16l-221 142l-220 -142h-16l184 250h101zM858 -25h-8v142q-200 -140 -371 -142q-283 0 -282 334v463q0 157 -66 187q-29 13 -108 30v8q146 16 286 72h8v-756q2 -252 255 -253q123 0 278 85v627q0 157 -66 187q-28 13 -108 30v8q148 17 287 72h8v-797
q0 -158 65 -187q28 -13 109 -30v-8q-148 -17 -287 -72z" />
    <glyph glyph-name="udieresis" unicode="&#xfc;" horiz-adv-x="1159" 
d="M528 1331q0 -40 -28 -67t-68 -29q-40 0 -68 28.5t-28 68.5q0 38 29 67t67 29q39 0 67.5 -29t28.5 -68zM823 1331q-1 -40 -28.5 -67.5t-67.5 -28.5q-39 0 -68 29t-29 68t29 67.5t68 28.5q40 0 68 -28.5t28 -68.5zM858 -25h-8v142q-200 -140 -371 -142q-283 0 -282 334v463
q0 157 -66 187q-29 13 -108 30v8q146 16 286 72h8v-756q2 -252 255 -253q123 0 278 85v627q0 157 -66 187q-28 13 -108 30v8q148 17 287 72h8v-797q0 -158 65 -187q28 -13 109 -30v-8q-148 -17 -287 -72z" />
    <glyph glyph-name="yacute" unicode="&#xfd;" horiz-adv-x="1120" 
d="M401 1163h-10q120 91 166 250h172q-117 -159 -328 -250zM8 1036v8h428v-8q-56 -10 -84 -24t-45 -48t18 -153q33 -114 68 -209l187 -557l206 623q13 42 41 126q20 61 22 85q5 75 -11 91q-29 31 -55.5 43.5t-75.5 22.5v8h405v-8q-64 -18 -96 -43q-87 -66 -185 -350
l-274 -788q-20 -57 -45.5 -109.5t-64 -109.5t-90.5 -92t-109 -36q-49 0 -88 28.5t-39 76.5q0 44 28 71.5t72 27.5q47 0 72 -40q25 -38 14 -94q119 32 225 330l33 92h-92l-223 643q-78 226 -120 296q-43 72 -122 97z" />
    <glyph glyph-name="thorn" unicode="&#xfe;" horiz-adv-x="1234" 
d="M861 152q128 140 128 372q0 231 -113 352q-114 120 -276 120q-161 0 -295 -101v-827q102 -54 265 -54q164 0 291 138zM475 -463v-8h-446v8q95 28 123 64q27 35 26 155v1475q0 131 -32 166t-142 47v8q174 26 293 92h8v-620q51 52 151 98q103 47 220 47q198 0 326 -135
q128 -136 128 -363q0 -133 -50 -257t-147 -200q-181 -140 -374 -139q-130 0 -254 23v-242q0 -79 13 -117.5t47 -60t110 -41.5z" />
    <glyph glyph-name="ydieresis" unicode="&#xff;" horiz-adv-x="1120" 
d="M508 1331q0 -39 -28.5 -66.5t-67.5 -29.5q-39 0 -68 29t-29 68t29 67.5t68 28.5t67.5 -29t28.5 -68zM803 1331q0 -39 -28.5 -66.5t-68.5 -29.5q-38 0 -67 29.5t-29 67.5q0 39 29 67.5t68 28.5q38 0 66 -29t30 -68zM8 1036v8h428v-8q-56 -10 -84 -24t-45 -48t18 -153
q33 -114 68 -209l187 -557l206 623q13 42 41 126q20 61 22 85q5 75 -11 91q-29 31 -55.5 43.5t-75.5 22.5v8h405v-8q-64 -18 -96 -43q-87 -66 -185 -350l-274 -788q-20 -57 -45.5 -109.5t-64 -109.5t-90.5 -92t-109 -36q-49 0 -88 28.5t-39 76.5q0 44 28 71.5t72 27.5
q47 0 72 -40q25 -38 14 -94q119 32 225 330l33 92h-92l-223 643q-78 226 -120 296q-43 72 -122 97z" />
    <glyph glyph-name="Amacron" unicode="&#x100;" horiz-adv-x="1384" 
d="M948 1690v-78h-512v78h512zM403 571h500l-246 686zM1391 8v-8h-467v8q63 14 94 38.5t30 59.5q-1 69 -126 416h-537q-67 -180 -93 -261q-26 -83 -26 -142q0 -61 30 -79q31 -19 103 -32v-8h-407v8q41 11 71 29t54.5 49t38 54t38.5 72q50 101 142 339l342 893h55l326 -891
q95 -260 141 -359q46 -100 83 -136q35 -33 108 -50z" />
    <glyph glyph-name="amacron" unicode="&#x101;" horiz-adv-x="1015" 
d="M764 1321v-78h-512v78h512zM555 528q-50 0 -96 -7.5t-90.5 -25.5t-77 -45.5t-52.5 -70.5t-20 -97q-1 -114 63 -171t180 -57t245 75v387q-68 12 -152 12zM817 -16q-101 0 -108 129q-71 -63 -163 -100.5t-184 -37.5q-103 0 -188 67q-86 68 -86 200q0 336 619 329v136
q-2 160 -61.5 228.5t-216.5 68.5t-249 -89q117 -12 117 -94q0 -37 -24.5 -59.5t-62.5 -24.5q-33 0 -62 23t-27 71q0 103 123 170q124 68 280 68q303 0 303 -285v-544q0 -120 55 -154q54 -33 146 -41v-8q-126 -53 -211 -53z" />
    <glyph glyph-name="Abreve" unicode="&#x102;" horiz-adv-x="1384" 
d="M692 1546q-98 0 -159 67t-80 169h8q31 -60 96 -98q70 -37 135 -36q70 0 137 36.5t95 97.5h8q-20 -102 -81 -169t-159 -67zM403 571h500l-246 686zM1391 8v-8h-467v8q63 14 94 38.5t30 59.5q-1 69 -126 416h-537q-67 -180 -93 -261q-26 -83 -26 -142q0 -61 30 -79
q31 -19 103 -32v-8h-407v8q41 11 71 29t54.5 49t38 54t38.5 72q50 101 142 339l342 893h55l326 -891q95 -260 141 -359q46 -100 83 -136q35 -33 108 -50z" />
    <glyph glyph-name="abreve" unicode="&#x103;" horiz-adv-x="1015" 
d="M508 1280q71 0 137 36t94 97h9q-19 -103 -80 -169t-160 -66q-98 0 -159 66.5t-81 168.5h8q32 -61 96.5 -97t135.5 -36zM555 528q-50 0 -96 -7.5t-90.5 -25.5t-77 -45.5t-52.5 -70.5t-20 -97q-1 -114 63 -171t180 -57t245 75v387q-68 12 -152 12zM817 -16q-101 0 -108 129
q-71 -63 -163 -100.5t-184 -37.5q-103 0 -188 67q-86 68 -86 200q0 336 619 329v136q-2 160 -61.5 228.5t-216.5 68.5t-249 -89q117 -12 117 -94q0 -37 -24.5 -59.5t-62.5 -24.5q-33 0 -62 23t-27 71q0 103 123 170q124 68 280 68q303 0 303 -285v-544q0 -120 55 -154
q54 -33 146 -41v-8q-126 -53 -211 -53z" />
    <glyph glyph-name="Aogonek" unicode="&#x104;" horiz-adv-x="1384" 
d="M403 571h500l-246 686zM1374 -350v-8q-55 -70 -135 -70q-81 0 -121 40q-41 41 -41 93t48.5 110.5t104.5 97.5q47 34 134 87h-440v8q63 14 94 38.5t30 59.5q-1 69 -126 416h-537q-67 -180 -93 -261q-26 -83 -26 -142q0 -61 30 -79q31 -19 103 -32v-8h-407v8q41 11 71 29
t54.5 49t38 54t38.5 72q50 101 142 339l342 893h55l326 -891q95 -260 141 -359q46 -100 83 -136q35 -33 108 -50v-8q-185 -163 -187 -279q0 -81 94 -81q32 0 76 10z" />
    <glyph glyph-name="aogonek" unicode="&#x105;" horiz-adv-x="1015" 
d="M555 528q-50 0 -96 -7.5t-90.5 -25.5t-77 -45.5t-52.5 -70.5t-20 -97q-1 -114 63 -171t180 -57t245 75v387q-68 12 -152 12zM1028 -350v-8q-55 -70 -135 -70q-72 0 -117 36.5t-45 107.5q0 39 29.5 86.5t75 91t87 76.5t78.5 57q-111 -43 -184 -43q-101 0 -108 129
q-71 -63 -163 -100.5t-184 -37.5q-103 0 -188 67q-86 68 -86 200q0 336 619 329v136q-2 160 -61.5 228.5t-216.5 68.5t-249 -89q117 -12 117 -94q0 -37 -24.5 -59.5t-62.5 -24.5q-33 0 -62 23t-27 71q0 103 123 170q124 68 280 68q303 0 303 -285v-544q0 -120 55 -154
q54 -33 146 -41v-8q-56 -56 -113 -154.5t-57 -161.5q0 -81 94 -81q32 0 76 10z" />
    <glyph glyph-name="Cacute" unicode="&#x106;" horiz-adv-x="1394" 
d="M721 1532h-10q120 91 166 250h172q-117 -159 -328 -250zM840 -31q-329 0 -538 199q-210 200 -210 514q0 224 112 400q109 170 276.5 265t367.5 95q90 0 209 -23t196 -57v-270h-8q-139 315 -424 315q-255 0 -413 -201q-158 -203 -158 -502q0 -300 164 -500t428 -200
q164 0 271 89t179 253h8l-26 -291q-69 -36 -190 -61q-129 -26 -244 -25z" />
    <glyph glyph-name="cacute" unicode="&#x107;" horiz-adv-x="937" 
d="M453 1163h-11q120 91 166 250h172q-115 -159 -327 -250zM555 -25q-192 -1 -319 145q-125 145 -127 385q0 240 145 401q145 162 350 163q41 0 88.5 -8t97.5 -25t82.5 -50.5t32.5 -78.5q1 -45 -29 -77t-73 -32q-44 0 -73 28q-30 26 -30 65q0 76 58 113q-61 24 -152 24
q-96 0 -169.5 -42.5t-115.5 -114t-62.5 -154.5t-20.5 -174q0 -214 116 -338q116 -123 276 -123q159 0 316 131l12 -8q-45 -78 -151 -154t-252 -76z" />
    <glyph glyph-name="Ccircumflex" unicode="&#x108;" horiz-adv-x="1394" 
d="M860 1782l189 -250h-17l-221 141l-219 -141h-17l185 250h100zM840 -31q-329 0 -538 199q-210 200 -210 514q0 224 112 400q109 170 276.5 265t367.5 95q90 0 209 -23t196 -57v-270h-8q-139 315 -424 315q-255 0 -413 -201q-158 -203 -158 -502q0 -300 164 -500t428 -200
q164 0 271 89t179 253h8l-26 -291q-69 -36 -190 -61q-129 -26 -244 -25z" />
    <glyph glyph-name="ccircumflex" unicode="&#x109;" horiz-adv-x="937" 
d="M616 1413l189 -250h-17l-221 142l-219 -142h-16l184 250h100zM555 -25q-192 -1 -319 145q-125 145 -127 385q0 240 145 401q145 162 350 163q41 0 88.5 -8t97.5 -25t82.5 -50.5t32.5 -78.5q1 -45 -29 -77t-73 -32q-44 0 -73 28q-30 26 -30 65q0 76 58 113q-61 24 -152 24
q-96 0 -169.5 -42.5t-115.5 -114t-62.5 -154.5t-20.5 -174q0 -214 116 -338q116 -123 276 -123q159 0 316 131l12 -8q-45 -78 -151 -154t-252 -76z" />
    <glyph glyph-name="Cdotaccent" unicode="&#x10a;" horiz-adv-x="1394" 
d="M903 1683q0 -40 -29 -68t-70 -30q-40 0 -69 29.5t-29 69.5t29.5 69t69.5 29q38 0 69 -29t29 -70zM840 -31q-329 0 -538 199q-210 200 -210 514q0 224 112 400q109 170 276.5 265t367.5 95q90 0 209 -23t196 -57v-270h-8q-139 315 -424 315q-255 0 -413 -201
q-158 -203 -158 -502q0 -300 164 -500t428 -200q164 0 271 89t179 253h8l-26 -291q-69 -36 -190 -61q-129 -26 -244 -25z" />
    <glyph glyph-name="cdotaccent" unicode="&#x10b;" horiz-adv-x="937" 
d="M676 1315q0 -41 -29 -70t-69 -29t-69.5 29t-29.5 70t28.5 68.5t70.5 29.5q42 -2 70 -29t28 -69zM555 -25q-192 -1 -319 145q-125 145 -127 385q0 240 145 401q145 162 350 163q41 0 88.5 -8t97.5 -25t82.5 -50.5t32.5 -78.5q1 -45 -29 -77t-73 -32q-44 0 -73 28
q-30 26 -30 65q0 76 58 113q-61 24 -152 24q-96 0 -169.5 -42.5t-115.5 -114t-62.5 -154.5t-20.5 -174q0 -214 116 -338q116 -123 276 -123q159 0 316 131l12 -8q-45 -78 -151 -154t-252 -76z" />
    <glyph glyph-name="Ccaron" unicode="&#x10c;" horiz-adv-x="1394" 
d="M1049 1782l-189 -250h-100l-185 250h17l219 -142l221 142h17zM840 -31q-329 0 -538 199q-210 200 -210 514q0 224 112 400q109 170 276.5 265t367.5 95q90 0 209 -23t196 -57v-270h-8q-139 315 -424 315q-255 0 -413 -201q-158 -203 -158 -502q0 -300 164 -500t428 -200
q164 0 271 89t179 253h8l-26 -291q-69 -36 -190 -61q-129 -26 -244 -25z" />
    <glyph glyph-name="ccaron" unicode="&#x10d;" horiz-adv-x="937" 
d="M809 1413l-188 -250h-101l-184 250h16l219 -141l222 141h16zM555 -25q-192 -1 -319 145q-125 145 -127 385q0 240 145 401q145 162 350 163q41 0 88.5 -8t97.5 -25t82.5 -50.5t32.5 -78.5q1 -45 -29 -77t-73 -32q-44 0 -73 28q-30 26 -30 65q0 76 58 113q-61 24 -152 24
q-96 0 -169.5 -42.5t-115.5 -114t-62.5 -154.5t-20.5 -174q0 -214 116 -338q116 -123 276 -123q159 0 316 131l12 -8q-45 -78 -151 -154t-252 -76z" />
    <glyph glyph-name="Dcaron" unicode="&#x10e;" horiz-adv-x="1540" 
d="M1006 1782l-189 -250h-100l-185 250h17l219 -142l221 142h17zM381 1368v-1323h293q302 0 469.5 182t167.5 487q0 304 -171 479t-442 175h-317zM668 0h-592v8q110 29 142 74q32 46 32 197v856q0 153 -32 197t-142 73v8h612q328 0 549 -169q117 -88 174 -226.5t57 -296.5
q0 -173 -62 -311.5t-170.5 -227t-253.5 -135.5t-314 -47z" />
    <glyph glyph-name="dcaron" unicode="&#x10f;" horiz-adv-x="1359" 
d="M1219 1319q0 24 -26 61t-26 73q0 40 27.5 65.5t68.5 25.5t69 -32t28 -74q0 -81 -67.5 -168t-149.5 -142l-6 5q82 103 82 186zM942 -25h-8v172q-157 -172 -362 -172q-203 1 -334 141t-129 365q0 276 166 432q167 156 413 156q121 0 246 -31v193q0 131 -32 166t-142 47v8
q174 26 293 92h8v-1272q0 -158 65 -187q28 -13 109 -30v-8q-158 -17 -293 -72zM624 1022q-166 0 -270 -140t-104 -352q0 -133 43.5 -232t136.5 -157.5t227 -58.5q154 0 277 90v758q-146 92 -310 92z" />
    <glyph glyph-name="Dcroat" unicode="&#x110;" horiz-adv-x="1540" 
d="M381 700v-655h293q302 0 469.5 182t167.5 487q0 304 -171 479t-442 175h-317v-612h348v-56h-348zM668 0h-592v8q110 29 142 74q32 46 32 197v421h-156v56h156v379q0 153 -32 197t-142 73v8h612q328 0 549 -169q117 -88 174 -226.5t57 -296.5q0 -173 -62 -311.5
t-170.5 -227t-253.5 -135.5t-314 -47z" />
    <glyph glyph-name="dcroat" unicode="&#x111;" horiz-adv-x="1249" 
d="M624 1022q-166 0 -270 -140t-104 -352q0 -133 43.5 -232t136.5 -157.5t227 -58.5q154 0 277 90v758q-146 92 -310 92zM942 -25h-8v172q-157 -172 -362 -172q-203 1 -334 141t-129 365q0 276 166 432q167 156 413 156q121 0 246 -31v164h-373v55h373q-1 107 -34 141
t-140 46v8q174 26 293 92h8v-287h135v-55h-135v-930q0 -158 65 -187q28 -13 109 -30v-8q-158 -17 -293 -72z" />
    <glyph glyph-name="Emacron" unicode="&#x112;" horiz-adv-x="1136" 
d="M823 1690v-78h-512v78h512zM1028 0h-960v8q110 29 142 74q32 46 32 197v856q0 65 -5 102.5t-22.5 73t-52.5 57t-94 37.5v8h901v-289h-8q-41 79 -59 108q-4 7 -15 25t-17 28q-16 27 -25 35l-11 10q-12 10 -22 18q-25 20 -110 20h-329v-618h307q39 0 66 7.5t49.5 29
t35 39.5t37.5 59h9v-316h-9q-51 82 -85 109q-35 27 -103 27h-307v-660h387q67 0 111.5 26.5t82.5 85.5q11 17 32 49t27 42q8 13 24.5 38.5t23.5 35.5h8z" />
    <glyph glyph-name="emacron" unicode="&#x113;" horiz-adv-x="1028" 
d="M813 1321v-78h-512v78h512zM755 937q-70 91 -186 91q-114 0 -206 -108t-111 -277l573 19q0 184 -70 275zM549 -25q-190 -1 -312 139t-122 388q0 247 143 408q143 159 338 159q152 0 260 -96q109 -96 107 -311q0 -22 -2 -56h-713q-2 -26 -2 -59q0 -93 22.5 -174t66.5 -147
t118.5 -104t171.5 -38q176 0 327 125l13 -8q-47 -79 -156 -153q-109 -73 -260 -73z" />
    <glyph glyph-name="Ebreve" unicode="&#x114;" horiz-adv-x="1136" 
d="M568 1546q-97 0 -158.5 67t-81.5 169h8q31 -60 96 -98q70 -37 135 -36q70 0 137 36.5t95 97.5h8q-21 -102 -81.5 -169t-157.5 -67zM1028 0h-960v8q110 29 142 74q32 46 32 197v856q0 65 -5 102.5t-22.5 73t-52.5 57t-94 37.5v8h901v-289h-8q-41 79 -59 108q-4 7 -15 25
t-17 28q-16 27 -25 35l-11 10q-12 10 -22 18q-25 20 -110 20h-329v-618h307q39 0 66 7.5t49.5 29t35 39.5t37.5 59h9v-316h-9q-51 82 -85 109q-35 27 -103 27h-307v-660h387q67 0 111.5 26.5t82.5 85.5q11 17 32 49t27 42q8 13 24.5 38.5t23.5 35.5h8z" />
    <glyph glyph-name="ebreve" unicode="&#x115;" horiz-adv-x="1028" 
d="M574 1280q71 0 137 36t94 97h8q-20 -102 -81 -168.5t-158 -66.5t-158 66.5t-82 168.5h8q30 -61 95.5 -97t136.5 -36zM755 937q-70 91 -186 91q-114 0 -206 -108t-111 -277l573 19q0 184 -70 275zM549 -25q-190 -1 -312 139t-122 388q0 247 143 408q143 159 338 159
q152 0 260 -96q109 -96 107 -311q0 -22 -2 -56h-713q-2 -26 -2 -59q0 -93 22.5 -174t66.5 -147t118.5 -104t171.5 -38q176 0 327 125l13 -8q-47 -79 -156 -153q-109 -73 -260 -73z" />
    <glyph glyph-name="Edotaccent" unicode="&#x116;" horiz-adv-x="1136" 
d="M666 1683q0 -40 -29 -68t-70 -30q-38 0 -69 29q-30 30 -29 70q0 40 29.5 69t69.5 29t69 -29.5t29 -69.5zM1028 0h-960v8q110 29 142 74q32 46 32 197v856q0 65 -5 102.5t-22.5 73t-52.5 57t-94 37.5v8h901v-289h-8q-41 79 -59 108q-4 7 -15 25t-17 28q-16 27 -25 35
l-11 10q-12 10 -22 18q-25 20 -110 20h-329v-618h307q39 0 66 7.5t49.5 29t35 39.5t37.5 59h9v-316h-9q-51 82 -85 109q-35 27 -103 27h-307v-660h387q67 0 111.5 26.5t82.5 85.5q11 17 32 49t27 42q8 13 24.5 38.5t23.5 35.5h8z" />
    <glyph glyph-name="edotaccent" unicode="&#x117;" horiz-adv-x="1028" 
d="M659 1315q-2 -42 -29.5 -70.5t-68.5 -28.5t-68.5 29t-29.5 70q0 41 29 68.5t70 29.5q41 -1 68 -29t29 -69zM755 937q-70 91 -186 91q-114 0 -206 -108t-111 -277l573 19q0 184 -70 275zM549 -25q-190 -1 -312 139t-122 388q0 247 143 408q143 159 338 159q152 0 260 -96
q109 -96 107 -311q0 -22 -2 -56h-713q-2 -26 -2 -59q0 -93 22.5 -174t66.5 -147t118.5 -104t171.5 -38q176 0 327 125l13 -8q-47 -79 -156 -153q-109 -73 -260 -73z" />
    <glyph glyph-name="Eogonek" unicode="&#x118;" horiz-adv-x="1136" 
d="M995 -350v-8q-55 -70 -135 -70q-81 0 -121 40q-41 41 -41 93q0 51 49 110t104 98q47 34 134 87h-917v8q110 29 142 74q32 46 32 197v856q0 65 -5 102.5t-22.5 73t-52.5 57t-94 37.5v8h901v-289h-8q-41 79 -59 108q-4 7 -15 25t-17 28q-16 27 -25 35l-11 10q-12 10 -22 18
q-25 20 -110 20h-329v-618h307q39 0 66 7.5t49.5 29t35 39.5t37.5 59h9v-316h-9q-51 82 -85 109q-35 27 -103 27h-307v-660h387q67 0 111.5 26.5t82.5 85.5q11 17 32 49t27 42q8 13 24.5 38.5t23.5 35.5h8l-41 -322h-33q-170 -185 -170 -279q0 -81 95 -81q31 0 75 10z" />
    <glyph glyph-name="eogonek" unicode="&#x119;" horiz-adv-x="1028" 
d="M754 932q-72 96 -187 96q-114 0 -206 -110q-91 -109 -111 -287l575 18q0 185 -71 283zM965 -350v-8q-55 -70 -135 -70q-68 0 -115 34t-47 99q0 87 131 269q43 60 64 93q33 49 40 56q-147 -147 -345 -147t-321 138q-122 140 -122 388q0 247 143 408q143 159 338 159
q150 0 258 -102q107 -102 109 -318q0 -23 -2 -55h-715v-47q0 -93 22.5 -174.5t66.5 -147t119 -103.5t172 -38q177 0 326 125l13 -8q-48 -79 -109 -243.5t-61 -236.5q0 -81 94 -81q32 0 76 10z" />
    <glyph glyph-name="Ecaron" unicode="&#x11a;" horiz-adv-x="1136" 
d="M827 1782l-188 -250h-100l-185 250h17l219 -142l221 142h16zM1028 0h-960v8q110 29 142 74q32 46 32 197v856q0 65 -5 102.5t-22.5 73t-52.5 57t-94 37.5v8h901v-289h-8q-41 79 -59 108q-4 7 -15 25t-17 28q-16 27 -25 35l-11 10q-12 10 -22 18q-25 20 -110 20h-329v-618
h307q39 0 66 7.5t49.5 29t35 39.5t37.5 59h9v-316h-9q-51 82 -85 109q-35 27 -103 27h-307v-660h387q67 0 111.5 26.5t82.5 85.5q11 17 32 49t27 42q8 13 24.5 38.5t23.5 35.5h8z" />
    <glyph glyph-name="ecaron" unicode="&#x11b;" horiz-adv-x="1028" 
d="M801 1413l-189 -250h-100l-184 250h16l219 -141l221 141h17zM755 937q-70 91 -186 91q-114 0 -206 -108t-111 -277l573 19q0 184 -70 275zM549 -25q-190 -1 -312 139t-122 388q0 247 143 408q143 159 338 159q152 0 260 -96q109 -96 107 -311q0 -22 -2 -56h-713
q-2 -26 -2 -59q0 -93 22.5 -174t66.5 -147t118.5 -104t171.5 -38q176 0 327 125l13 -8q-47 -79 -156 -153q-109 -73 -260 -73z" />
    <glyph glyph-name="Gcircumflex" unicode="&#x11c;" horiz-adv-x="1472" 
d="M840 1782l188 -250h-16l-221 141l-220 -141h-16l184 250h101zM1169 68v360q0 49 -3 82t-13.5 65.5t-29.5 53.5t-50.5 39t-77.5 30v9h441v-9q-77 -28 -106 -80q-28 -51 -27 -190v-375q-239 -84 -504 -84q-158 0 -291 55t-224 152t-141.5 232t-50.5 292q0 219 109 392
q105 167 268.5 258.5t359.5 91.5q95 0 225.5 -21.5t207.5 -54.5v-274h-9q-79 154 -182.5 234.5t-261.5 80.5q-232 0 -395 -196q-164 -196 -164 -503q0 -308 167 -505t412 -197q77 0 180 17t160 45z" />
    <glyph glyph-name="gcircumflex" unicode="&#x11d;" horiz-adv-x="1073" 
d="M584 1413l188 -250h-16l-221 142l-220 -142h-16l184 250h101zM336 946q-72 -90 -72 -237q0 -148 70 -243q71 -96 182 -95q110 0 182 90t72 237q0 59 -15 117t-44 108.5t-79.5 81.5t-113.5 31q-110 0 -182 -90zM154 -223q0 -53 23.5 -93.5t60 -65t86 -40t95 -21t92.5 -5.5
q56 0 113 9t115.5 31t104 53.5t74 82t28.5 112.5q0 40 -14.5 70t-36.5 47.5t-55 29t-63.5 15.5t-69.5 6l-338 15q-215 -102 -215 -246zM33 -260q0 180 327 285q-110 8 -160 61t-18 134q33 80 156 157q-100 46 -154.5 131t-54.5 194q0 162 110 264q109 101 259 103
q148 0 252 -65l325 65h8l-16 -117l-281 27q119 -98 119 -262q1 -165 -109.5 -273t-275.5 -106q-91 0 -166 31q-119 -113 -58 -190q31 -39 122 -44l309 -16q315 -17 315 -225q0 -64 -28.5 -121.5t-76.5 -100t-103 -73t-116 -49.5q-134 -42 -290 -42q-46 0 -95.5 6.5
t-104.5 23t-97.5 41.5t-70.5 67t-27 94z" />
    <glyph glyph-name="Gbreve" unicode="&#x11e;" horiz-adv-x="1472" 
d="M810 1546q-98 0 -159.5 67t-81.5 169h9q31 -60 96 -98q70 -37 135 -36q70 0 136.5 36.5t94.5 97.5h9q-21 -102 -81.5 -169t-157.5 -67zM1169 68v360q0 49 -3 82t-13.5 65.5t-29.5 53.5t-50.5 39t-77.5 30v9h441v-9q-77 -28 -106 -80q-28 -51 -27 -190v-375
q-239 -84 -504 -84q-158 0 -291 55t-224 152t-141.5 232t-50.5 292q0 219 109 392q105 167 268.5 258.5t359.5 91.5q95 0 225.5 -21.5t207.5 -54.5v-274h-9q-79 154 -182.5 234.5t-261.5 80.5q-232 0 -395 -196q-164 -196 -164 -503q0 -308 167 -505t412 -197q77 0 180 17
t160 45z" />
    <glyph glyph-name="gbreve" unicode="&#x11f;" horiz-adv-x="1073" 
d="M537 1280q71 0 137 36t94 97h8q-20 -102 -80.5 -168.5t-158.5 -66.5t-159 66.5t-81 168.5h8q31 -61 96.5 -97t135.5 -36zM336 946q-72 -90 -72 -237q0 -148 70 -243q71 -96 182 -95q110 0 182 90t72 237q0 59 -15 117t-44 108.5t-79.5 81.5t-113.5 31q-110 0 -182 -90z
M154 -223q0 -53 23.5 -93.5t60 -65t86 -40t95 -21t92.5 -5.5q56 0 113 9t115.5 31t104 53.5t74 82t28.5 112.5q0 40 -14.5 70t-36.5 47.5t-55 29t-63.5 15.5t-69.5 6l-338 15q-215 -102 -215 -246zM33 -260q0 180 327 285q-110 8 -160 61t-18 134q33 80 156 157
q-100 46 -154.5 131t-54.5 194q0 162 110 264q109 101 259 103q148 0 252 -65l325 65h8l-16 -117l-281 27q119 -98 119 -262q1 -165 -109.5 -273t-275.5 -106q-91 0 -166 31q-119 -113 -58 -190q31 -39 122 -44l309 -16q315 -17 315 -225q0 -64 -28.5 -121.5t-76.5 -100
t-103 -73t-116 -49.5q-134 -42 -290 -42q-46 0 -95.5 6.5t-104.5 23t-97.5 41.5t-70.5 67t-27 94z" />
    <glyph glyph-name="Gdotaccent" unicode="&#x120;" horiz-adv-x="1472" 
d="M932 1683q0 -40 -29 -68t-69 -30q-40 0 -69.5 29.5t-29.5 69.5t29.5 69t69.5 29t69 -29.5t29 -69.5zM1169 68v360q0 49 -3 82t-13.5 65.5t-29.5 53.5t-50.5 39t-77.5 30v9h441v-9q-77 -28 -106 -80q-28 -51 -27 -190v-375q-239 -84 -504 -84q-158 0 -291 55t-224 152
t-141.5 232t-50.5 292q0 219 109 392q105 167 268.5 258.5t359.5 91.5q95 0 225.5 -21.5t207.5 -54.5v-274h-9q-79 154 -182.5 234.5t-261.5 80.5q-232 0 -395 -196q-164 -196 -164 -503q0 -308 167 -505t412 -197q77 0 180 17t160 45z" />
    <glyph glyph-name="gdotaccent" unicode="&#x121;" horiz-adv-x="1073" 
d="M635 1315q0 -41 -29 -70t-70 -29q-40 0 -69 29.5t-29 69.5q0 41 28.5 68.5t70.5 29.5q42 -1 69.5 -28.5t28.5 -69.5zM336 946q-72 -90 -72 -237q0 -148 70 -243q71 -96 182 -95q110 0 182 90t72 237q0 59 -15 117t-44 108.5t-79.5 81.5t-113.5 31q-110 0 -182 -90z
M154 -223q0 -53 23.5 -93.5t60 -65t86 -40t95 -21t92.5 -5.5q56 0 113 9t115.5 31t104 53.5t74 82t28.5 112.5q0 40 -14.5 70t-36.5 47.5t-55 29t-63.5 15.5t-69.5 6l-338 15q-215 -102 -215 -246zM33 -260q0 180 327 285q-110 8 -160 61t-18 134q33 80 156 157
q-100 46 -154.5 131t-54.5 194q0 162 110 264q109 101 259 103q148 0 252 -65l325 65h8l-16 -117l-281 27q119 -98 119 -262q1 -165 -109.5 -273t-275.5 -106q-91 0 -166 31q-119 -113 -58 -190q31 -39 122 -44l309 -16q315 -17 315 -225q0 -64 -28.5 -121.5t-76.5 -100
t-103 -73t-116 -49.5q-134 -42 -290 -42q-46 0 -95.5 6.5t-104.5 23t-97.5 41.5t-70.5 67t-27 94z" />
    <glyph glyph-name="Gcommaaccent" unicode="&#x122;" horiz-adv-x="1472" 
d="M707 -319q0 24 -26 61t-26 73q0 40 27.5 65.5t68.5 25.5q48 0 72.5 -36t24.5 -86q0 -69 -71.5 -155.5t-145.5 -138.5l-6 4q82 103 82 187zM1169 68v360q0 49 -3 82t-13.5 65.5t-29.5 53.5t-50.5 39t-77.5 30v9h441v-9q-77 -28 -106 -80q-28 -51 -27 -190v-375
q-239 -84 -504 -84q-158 0 -291 55t-224 152t-141.5 232t-50.5 292q0 219 109 392q105 167 268.5 258.5t359.5 91.5q95 0 225.5 -21.5t207.5 -54.5v-274h-9q-79 154 -182.5 234.5t-261.5 80.5q-232 0 -395 -196q-164 -196 -164 -503q0 -308 167 -505t412 -197q77 0 180 17
t160 45z" />
    <glyph glyph-name="gcommaaccent" unicode="&#x123;" horiz-adv-x="1073" 
d="M596 1354q0 -24 26 -61q26 -35 26 -73t-28 -65q-26 -27 -68 -27q-41 0 -70 32q-28 32 -27 75q0 80 67.5 166t149.5 143l6 -4q-82 -103 -82 -186zM336 946q-72 -90 -72 -237q0 -148 70 -243q71 -96 182 -95q110 0 182 90t72 237q0 59 -15 117t-44 108.5t-79.5 81.5
t-113.5 31q-110 0 -182 -90zM154 -223q0 -53 23.5 -93.5t60 -65t86 -40t95 -21t92.5 -5.5q56 0 113 9t115.5 31t104 53.5t74 82t28.5 112.5q0 40 -14.5 70t-36.5 47.5t-55 29t-63.5 15.5t-69.5 6l-338 15q-215 -102 -215 -246zM33 -260q0 180 327 285q-110 8 -160 61
t-18 134q33 80 156 157q-100 46 -154.5 131t-54.5 194q0 162 110 264q109 101 259 103q148 0 252 -65l325 65h8l-16 -117l-281 27q119 -98 119 -262q1 -165 -109.5 -273t-275.5 -106q-91 0 -166 31q-119 -113 -58 -190q31 -39 122 -44l309 -16q315 -17 315 -225
q0 -64 -28.5 -121.5t-76.5 -100t-103 -73t-116 -49.5q-134 -42 -290 -42q-46 0 -95.5 6.5t-104.5 23t-97.5 41.5t-70.5 67t-27 94z" />
    <glyph glyph-name="Hcircumflex" unicode="&#x124;" horiz-adv-x="1597" 
d="M846 1782l188 -250h-16l-221 141l-219 -141h-17l184 250h101zM1530 8v-8h-479v8q111 29 143 71q32 43 31 179v442h-852v-442q-1 -136 31 -179q32 -42 143 -71v-8h-479v8q110 29 142 71q32 43 32 179v897q0 136 -32 179q-32 42 -142 71v8h479v-8q-111 -29 -143 -71
q-32 -43 -31 -179v-399h852v399q0 136 -32 179q-32 42 -142 71v8h479v-8q-110 -29 -142 -71q-32 -43 -32 -179v-897q0 -136 32 -179q32 -42 142 -71z" />
    <glyph glyph-name="hcircumflex" unicode="&#x125;" horiz-adv-x="1210" 
d="M338 1823l188 -250h-16l-221 141l-219 -141h-17l185 250h100zM1171 8v-8h-419v8q96 28 122 67q25 37 27 163v477q0 130 -66.5 198.5t-196.5 69.5q-124 0 -290 -96v-649q0 -126 27 -163q28 -39 123 -67v-8h-426v8q95 28 123 67q28 38 26 163v968q0 136 -28 174t-146 64v8
q71 4 123 22q13 5 27 10t22 8t12 4q107 46 109 48h8v-633q206 158 377 158q131 0 214 -84q83 -85 83 -266v-481q0 -126 27 -163q28 -39 122 -67z" />
    <glyph glyph-name="Hbar" unicode="&#x126;" horiz-adv-x="1597" 
d="M373 756h852v252h-852v-252zM1530 8v-8h-479v8q111 29 143 71q32 43 31 179v442h-852v-442q-1 -136 31 -179q32 -42 143 -71v-8h-479v8q110 29 142 71q32 43 32 179v750h-148v55h148v92q0 136 -32 179q-32 42 -142 71v8h479v-8q-111 -29 -143 -71q-32 -43 -31 -179v-92
h852v92q0 136 -32 179q-32 42 -142 71v8h479v-8q-110 -29 -142 -71q-32 -43 -32 -179v-92h174v-55h-174v-750q0 -136 32 -179q32 -42 142 -71z" />
    <glyph glyph-name="hbar" unicode="&#x127;" horiz-adv-x="1210" 
d="M1171 8v-8h-419v8q96 28 122 67q25 37 27 163v477q0 130 -66.5 198.5t-196.5 69.5q-124 0 -290 -96v-649q0 -126 27 -163q28 -39 123 -67v-8h-426v8q95 28 123 67q28 38 26 163v964h-131v55h129q-1 98 -34 131q-32 32 -138 56v8q71 4 123 22q13 5 27 10t22 8t12 4
q107 46 109 48h8v-287h377v-55h-377v-291q206 158 377 158q131 0 214 -84q83 -85 83 -266v-481q0 -126 27 -163q28 -39 122 -67z" />
    <glyph glyph-name="Itilde" unicode="&#x128;" horiz-adv-x="614" 
d="M410 1634q-46 0 -138 30t-129 30q-36 0 -67.5 -23t-46.5 -57l-17 4q17 46 34 70.5t55 54.5q46 37 101 37q54 0 144 -27t125 -27q88 0 117 74l16 -4q-57 -162 -194 -162zM547 8v-8h-479v8q110 29 142 71q32 43 32 179v897q0 136 -32 179q-32 42 -142 71v8h479v-8
q-111 -29 -143 -71q-32 -43 -31 -179v-897q-1 -136 31 -179q32 -42 143 -71z" />
    <glyph glyph-name="itilde" unicode="&#x129;" horiz-adv-x="550" 
d="M111 1325q-37 0 -69.5 -22.5t-45.5 -57.5l-16 4q18 49 33.5 72.5t54.5 52.5q47 35 102 37q53 0 143 -27q89 -26 122 -26q92 0 120 74l16 -5q-57 -163 -194 -161q-47 0 -138 30q-90 29 -126 29h-2zM498 8v-8h-420v8q95 28 123 64q27 35 26 155v545q0 158 -65 187
q-28 13 -109 30v8q148 17 287 72h8v-842q0 -121 27 -155q26 -34 123 -64z" />
    <glyph glyph-name="Imacron" unicode="&#x12a;" horiz-adv-x="614" 
d="M563 1690v-78h-512v78h512zM547 8v-8h-479v8q110 29 142 71q32 43 32 179v897q0 136 -32 179q-32 42 -142 71v8h479v-8q-111 -29 -143 -71q-32 -43 -31 -179v-897q-1 -136 31 -179q32 -42 143 -71z" />
    <glyph glyph-name="imacron" unicode="&#x12b;" horiz-adv-x="550" 
d="M532 1321v-78h-512v78h512zM498 8v-8h-420v8q95 28 123 64q27 35 26 155v545q0 158 -65 187q-28 13 -109 30v8q148 17 287 72h8v-842q0 -121 27 -155q26 -34 123 -64z" />
    <glyph glyph-name="Ibreve" unicode="&#x12c;" horiz-adv-x="614" 
d="M308 1546q-98 0 -159 67t-81 169h8q31 -60 96 -98q70 -37 135 -36q70 0 137 36.5t95 97.5h8q-21 -102 -81.5 -169t-157.5 -67zM547 8v-8h-479v8q110 29 142 71q32 43 32 179v897q0 136 -32 179q-32 42 -142 71v8h479v-8q-111 -29 -143 -71q-32 -43 -31 -179v-897
q-1 -136 31 -179q32 -42 143 -71z" />
    <glyph glyph-name="ibreve" unicode="&#x12d;" horiz-adv-x="550" 
d="M276 1280q71 0 137.5 36t94.5 97h8q-19 -103 -80 -169t-160 -66q-96 0 -157 66.5t-82 168.5h8q31 -61 96 -97t135 -36zM498 8v-8h-420v8q95 28 123 64q27 35 26 155v545q0 158 -65 187q-28 13 -109 30v8q148 17 287 72h8v-842q0 -121 27 -155q26 -34 123 -64z" />
    <glyph glyph-name="Iogonek" unicode="&#x12e;" horiz-adv-x="614" 
d="M530 -350v-8q-55 -70 -135 -70q-81 0 -121 40q-41 41 -41 93q-2 53 51 113q33 38 75 72t73 54.5t88 55.5h-452v8q110 29 142 71q32 43 32 179v897q0 136 -32 179q-32 42 -142 71v8h479v-8q-111 -29 -143 -71q-32 -43 -31 -179v-897q-1 -136 31 -179q32 -42 143 -71v-8
q-185 -163 -187 -279q0 -81 95 -81q31 0 75 10z" />
    <glyph glyph-name="iogonek" unicode="&#x12f;" horiz-adv-x="550" 
d="M383 1343q0 -40 -29 -68t-70 -30q-40 0 -69 29.5t-29 69.5t29.5 69t69.5 29q38 0 69 -29t29 -70zM479 -350v-8q-55 -70 -135 -70q-81 0 -121 40q-41 41 -41 93q0 51 48.5 110.5t103.5 97.5q50 36 135 87h-391v8q95 28 123 64q27 35 26 155v545q0 158 -65 187
q-28 13 -109 30v8q148 17 287 72h8v-842q0 -121 27 -155q26 -34 123 -64v-8q-188 -162 -189 -279q0 -81 94 -81q32 0 76 10z" />
    <glyph glyph-name="Idotaccent" unicode="&#x130;" horiz-adv-x="614" 
d="M406 1683q0 -41 -28.5 -68.5t-70.5 -29.5q-41 0 -68.5 29t-29.5 70q0 40 29 69t70 29q40 0 69 -29t29 -70zM547 8v-8h-479v8q110 29 142 71q32 43 32 179v897q0 136 -32 179q-32 42 -142 71v8h479v-8q-111 -29 -143 -71q-32 -43 -31 -179v-897q-1 -136 31 -179
q32 -42 143 -71z" />
    <glyph glyph-name="dotlessi" unicode="&#x131;" horiz-adv-x="550" 
d="M498 8v-8h-420v8q95 28 123 64q27 35 26 155v545q0 158 -65 187q-28 13 -109 30v8q148 17 287 72h8v-842q0 -121 27 -155q26 -34 123 -64z" />
    <glyph glyph-name="IJ" unicode="&#x132;" horiz-adv-x="1222" 
d="M856 -23v1158q0 154 -31 197q-33 45 -143 73v8h479v-8q-112 -28 -143 -73q-29 -43 -31 -197v-1098q0 -142 -40 -237.5t-146 -165.5q-38 -25 -117 -62l-4 6q176 122 176 399zM547 8v-8h-479v8q110 29 142 71q32 43 32 179v897q0 136 -32 179q-32 42 -142 71v8h479v-8
q-111 -29 -143 -71q-32 -43 -31 -179v-897q-1 -136 31 -179q32 -42 143 -71z" />
    <glyph glyph-name="ij" unicode="&#x133;" horiz-adv-x="1101" 
d="M778 -86v858q0 158 -65 187q-28 13 -109 30v8q158 17 293 72h8v-1075q1 -376 -278 -486l-6 11q58 35 95 107t49.5 143t12.5 145zM934 1343q0 -41 -28.5 -68.5t-69.5 -29.5q-40 0 -69.5 29.5t-29.5 69.5t29 69t70 29q42 0 70 -28.5t28 -70.5zM498 8v-8h-420v8
q95 28 123 64q27 35 26 155v545q0 158 -65 187q-28 13 -109 30v8q148 17 287 72h8v-842q0 -121 27 -155q26 -34 123 -64zM383 1343q0 -40 -29 -68t-70 -30q-40 0 -69 29.5t-29 69.5t29.5 69t69.5 29q38 0 69 -29t29 -70z" />
    <glyph glyph-name="Jcircumflex" unicode="&#x134;" horiz-adv-x="608" 
d="M352 1782l189 -250h-17l-221 141l-219 -141h-16l184 250h100zM242 -23v1158q0 154 -31 197q-33 45 -143 73v8h479v-8q-112 -28 -144 -73q-32 -44 -30 -197v-1098q0 -141 -40.5 -237.5t-145.5 -165.5q-38 -25 -117 -62l-4 6q176 122 176 399z" />
    <glyph glyph-name="jcircumflex" unicode="&#x135;" horiz-adv-x="550" 
d="M324 1413l188 -250h-16l-222 142l-219 -142h-16l184 250h101zM227 -86v858q0 158 -65 187q-28 13 -109 30v8q158 17 293 72h8v-1075q1 -376 -278 -486l-6 11q58 35 95 107t49.5 143t12.5 145z" />
    <glyph glyph-name="Kcommaaccent" unicode="&#x136;" horiz-adv-x="1425" 
d="M682 -319q0 24 -26 61t-26 73q0 40 28 65q26 26 68 26q41 0 70 -32q28 -32 27 -75q-1 -81 -68.5 -167t-148.5 -142l-6 4q82 103 82 187zM1470 8v-8h-505v8q91 16 117 42t-2 92q-28 65 -132 214l-305 432l-270 -272v-258q-1 -136 31 -179q32 -42 143 -71v-8h-479v8
q110 29 142 71q32 43 32 179v897q0 136 -32 179q-32 42 -142 71v8h479v-8q-111 -29 -143 -71q-32 -43 -31 -179v-575l461 475q90 94 142 163q47 62 42 100t-34 54q-30 17 -97 33v8h497v-8q-112 -27 -192 -87q-83 -63 -268 -249l-185 -186l371 -527q158 -222 208 -269
q54 -51 152 -79z" />
    <glyph glyph-name="kcommaaccent" unicode="&#x137;" horiz-adv-x="1173" 
d="M557 -319q0 24 -26 61q-25 35 -25 73q0 41 27 66t68 25t70 -32t27 -75q0 -80 -67.5 -166t-149.5 -143l-6 4q82 103 82 187zM1194 8v-8h-168q-89 0 -110 8q-24 9 -30 10q-11 1 -26 16q-12 12 -22 20q-7 4 -27 29q-18 24 -29 35q-8 8 -37 45q-33 42 -43 54l-278 344
l192 178q84 78 125 122q96 103 31 139q-34 19 -119 30v14h498v-8q-167 -39 -399 -239l-207 -181l325 -385q52 -61 116 -117t120 -78q31 -12 88 -28zM498 8v-8h-426v8q95 28 123 64q27 35 26 153v1006q0 131 -32 166t-142 47v8q174 26 293 92h8v-1319q0 -47 2.5 -74t10.5 -51
t25.5 -38.5t43 -27.5t68.5 -26z" />
    <glyph glyph-name="kgreenlandic" unicode="&#x138;" horiz-adv-x="1173" 
d="M498 8v-8h-420v8q95 28 123 64q27 35 26 155v545q0 158 -65 187q-28 13 -109 30v8q148 17 287 72h8v-842q0 -121 27 -155q26 -34 123 -64zM1194 8v-8h-168q-89 0 -110 8q-24 9 -30 10q-11 1 -26 16q-12 12 -22 20q-7 4 -27 29q-18 24 -29 35q-8 8 -37 45q-33 42 -43 54
l-278 344l192 178q84 78 125 122q96 103 31 139q-34 19 -119 30v14h498v-8q-167 -39 -399 -239l-207 -181l325 -385q70 -84 136 -133q54 -39 90.5 -57t97.5 -33z" />
    <glyph glyph-name="Lacute" unicode="&#x139;" horiz-adv-x="1093" 
d="M199 1532h-11q120 91 166 250h172q-115 -159 -327 -250zM1008 0h-940v8q109 29 141.5 80t32.5 170v897q0 119 -32.5 170t-141.5 80v8h479v-8q-109 -29 -141.5 -80t-32.5 -170v-1110h385q73 0 123 53q49 51 159 224h9z" />
    <glyph glyph-name="lacute" unicode="&#x13a;" horiz-adv-x="536" 
d="M129 1552h-10q120 91 166 250h172q-117 -159 -328 -250zM498 8v-8h-426v8q95 28 123 64q27 35 26 153v1006q0 131 -32 166t-142 47v8q174 26 293 92h8v-1319q0 -47 2.5 -74t10.5 -51t25.5 -38.5t43 -27.5t68.5 -26z" />
    <glyph glyph-name="Lcommaaccent" unicode="&#x13b;" horiz-adv-x="1093" 
d="M516 -319q0 24 -26 61t-26 73q0 40 28 65q26 26 68 26q41 0 70 -32q28 -32 27 -75q-1 -81 -68.5 -167t-148.5 -142l-6 4q82 103 82 187zM1008 0h-940v8q109 29 141.5 80t32.5 170v897q0 119 -32.5 170t-141.5 80v8h479v-8q-109 -29 -141.5 -80t-32.5 -170v-1110h385
q73 0 123 53q49 51 159 224h9z" />
    <glyph glyph-name="lcommaaccent" unicode="&#x13c;" horiz-adv-x="536" 
d="M238 -319q0 24 -26 61t-26 73q0 40 27.5 65.5t68.5 25.5t70 -32q28 -32 27 -90q-2 -71 -73 -157.5t-144 -136.5l-6 4q82 103 82 187zM498 8v-8h-426v8q95 28 123 64q27 35 26 153v1006q0 131 -32 166t-142 47v8q174 26 293 92h8v-1319q0 -47 2.5 -74t10.5 -51t25.5 -38.5
t43 -27.5t68.5 -26z" />
    <glyph glyph-name="Lcaron" unicode="&#x13d;" horiz-adv-x="1093" 
d="M676 1217q0 24 -26 61t-26 73q0 40 28 65q26 26 68 26q41 0 70 -32q28 -32 27 -75q-1 -81 -68.5 -167t-148.5 -142l-6 4q82 103 82 187zM1008 0h-940v8q109 29 141.5 80t32.5 170v897q0 119 -32.5 170t-141.5 80v8h479v-8q-109 -29 -141.5 -80t-32.5 -170v-1110h385
q73 0 123 53q49 51 159 224h9z" />
    <glyph glyph-name="lcaron" unicode="&#x13e;" horiz-adv-x="647" 
d="M506 1319q0 24 -26 61t-26 73q0 40 27.5 65.5t68.5 25.5t70 -32t27 -74q-1 -81 -68.5 -168.5t-148.5 -141.5l-6 5q82 103 82 186zM498 8v-8h-426v8q95 28 123 64q27 35 26 153v1006q0 131 -32 166t-142 47v8q174 26 293 92h8v-1319q0 -47 2.5 -74t10.5 -51t25.5 -38.5
t43 -27.5t68.5 -26z" />
    <glyph glyph-name="Ldot" unicode="&#x13f;" horiz-adv-x="1093" 
d="M721 731q0 -47 -34.5 -81t-80.5 -34t-80 34q-35 35 -34 81q0 47 33.5 81t80.5 34q46 0 80.5 -34t34.5 -81zM1008 0h-940v8q109 29 141.5 80t32.5 170v897q0 119 -32.5 170t-141.5 80v8h479v-8q-109 -29 -141.5 -80t-32.5 -170v-1110h385q73 0 123 53q49 51 159 224h9z
" />
    <glyph glyph-name="ldot" unicode="&#x140;" horiz-adv-x="647" 
d="M647 729q0 -45 -35 -80t-80 -35q-46 0 -80 34.5t-34 80.5q0 45 34.5 80t79.5 35t80 -35t35 -80zM498 8v-8h-426v8q95 28 123 64q27 35 26 153v1006q0 131 -32 166t-142 47v8q174 26 293 92h8v-1319q0 -47 2.5 -74t10.5 -51t25.5 -38.5t43 -27.5t68.5 -26z" />
    <glyph glyph-name="Lslash" unicode="&#x141;" horiz-adv-x="1093" 
d="M1008 0h-940v8q109 29 141.5 80t32.5 170v328l-183 -62v68l183 61v502q0 119 -32.5 170t-141.5 80v8h479v-8q-109 -29 -141.5 -80t-32.5 -170v-457l280 99v-68l-280 -98v-586h385q73 0 123 53q49 51 159 224h9z" />
    <glyph glyph-name="lslash" unicode="&#x142;" horiz-adv-x="536" 
d="M498 8v-8h-426v8q95 28 123 64q27 35 26 153v643l-203 -77v67l203 78v295q0 131 -32 166t-142 47v8q174 26 293 92h8v-559l203 78v-68l-203 -77v-693q0 -47 2.5 -74t10.5 -51t25.5 -38.5t43 -27.5t68.5 -26z" />
    <glyph glyph-name="Nacute" unicode="&#x143;" horiz-adv-x="1611" 
d="M647 1532h-10q120 91 166 250h172q-117 -159 -328 -250zM1417 987v-1007h-59l-1065 1280v-834q0 -164 14 -246q13 -76 43.5 -111.5t104.5 -60.5v-8h-381v8q72 23 102.5 58.5t44.5 111.5q13 78 15 248v780q0 60 -52 118q-53 59 -151 81v8h307l1020 -1218v792
q0 164 -14 246q-13 76 -44 112.5t-104 59.5v8h381v-8q-72 -22 -103 -58t-44 -111q-14 -80 -15 -249z" />
    <glyph glyph-name="nacute" unicode="&#x144;" horiz-adv-x="1204" 
d="M442 1163h-10q120 91 166 250h172q-117 -159 -328 -250zM1165 8v-8h-420v8q95 28 123 67q27 37 27 163v477q0 130 -66.5 198.5t-196.5 69.5q-124 0 -290 -96v-660q0 -153 54 -182q30 -16 96 -37v-8h-420v8q66 21 96 37q55 29 53 182v545q0 158 -65 187q-28 13 -109 30v8
q148 17 287 72h8v-158q206 158 377 158q131 0 214 -84q83 -85 83 -266v-481q0 -125 26 -163q26 -39 123 -67z" />
    <glyph glyph-name="Ncommaaccent" unicode="&#x145;" horiz-adv-x="1611" 
d="M776 -319q0 24 -26 61t-25 73q0 40 27.5 65.5t67.5 25.5q48 0 73 -35.5t25 -86.5q0 -69 -72 -156t-146 -138l-6 4q82 103 82 187zM1417 987v-1007h-59l-1065 1280v-834q0 -164 14 -246q13 -76 43.5 -111.5t104.5 -60.5v-8h-381v8q72 23 102.5 58.5t44.5 111.5
q13 78 15 248v780q0 60 -52 118q-53 59 -151 81v8h307l1020 -1218v792q0 164 -14 246q-13 76 -44 112.5t-104 59.5v8h381v-8q-72 -22 -103 -58t-44 -111q-14 -80 -15 -249z" />
    <glyph glyph-name="ncommaaccent" unicode="&#x146;" horiz-adv-x="1204" 
d="M571 -319q1 24 -25 61t-26 73q0 40 27.5 65.5t68.5 25.5q48 0 72.5 -36t24.5 -86q-2 -71 -73 -157.5t-144 -136.5l-7 4q82 103 82 187zM1165 8v-8h-420v8q95 28 123 67q27 37 27 163v477q0 130 -66.5 198.5t-196.5 69.5q-124 0 -290 -96v-660q0 -153 54 -182
q30 -16 96 -37v-8h-420v8q66 21 96 37q55 29 53 182v545q0 158 -65 187q-28 13 -109 30v8q148 17 287 72h8v-158q206 158 377 158q131 0 214 -84q83 -85 83 -266v-481q0 -125 26 -163q26 -39 123 -67z" />
    <glyph glyph-name="Ncaron" unicode="&#x147;" horiz-adv-x="1611" 
d="M1042 1782l-188 -250h-100l-185 250h17l219 -142l221 142h16zM1417 987v-1007h-59l-1065 1280v-834q0 -164 14 -246q13 -76 43.5 -111.5t104.5 -60.5v-8h-381v8q72 23 102.5 58.5t44.5 111.5q13 78 15 248v780q0 60 -52 118q-53 59 -151 81v8h307l1020 -1218v792
q0 164 -14 246q-13 76 -44 112.5t-104 59.5v8h381v-8q-72 -22 -103 -58t-44 -111q-14 -80 -15 -249z" />
    <glyph glyph-name="ncaron" unicode="&#x148;" horiz-adv-x="1204" 
d="M838 1413l-189 -250h-100l-184 250h16l219 -141l221 141h17zM1165 8v-8h-420v8q95 28 123 67q27 37 27 163v477q0 130 -66.5 198.5t-196.5 69.5q-124 0 -290 -96v-660q0 -153 54 -182q30 -16 96 -37v-8h-420v8q66 21 96 37q55 29 53 182v545q0 158 -65 187
q-28 13 -109 30v8q148 17 287 72h8v-158q206 158 377 158q131 0 214 -84q83 -85 83 -266v-481q0 -125 26 -163q26 -39 123 -67z" />
    <glyph glyph-name="napostrophe" unicode="&#x149;" horiz-adv-x="1204" 
d="M254 1319q0 24 -26 61t-26 73q0 40 27.5 65.5t68.5 25.5t70 -32t27 -74q-1 -81 -68.5 -168.5t-148.5 -141.5l-6 5q82 103 82 186zM1165 8v-8h-420v8q95 28 123 67q27 37 27 163v477q0 130 -66.5 198.5t-196.5 69.5q-124 0 -290 -96v-660q0 -153 54 -182q30 -16 96 -37v-8
h-420v8q66 21 96 37q55 29 53 182v545q0 158 -65 187q-28 13 -109 30v8q148 17 287 72h8v-158q206 158 377 158q131 0 214 -84q83 -85 83 -266v-481q0 -125 26 -163q26 -39 123 -67z" />
    <glyph glyph-name="Eng" unicode="&#x14a;" horiz-adv-x="1611" 
d="M293 1260v-834q0 -164 14 -246q13 -76 43.5 -111.5t104.5 -60.5v-8h-381v8q72 23 102.5 58.5t44.5 111.5q13 78 15 248v780q0 60 -52 118q-53 59 -151 81v8h307l1020 -1218v792q0 164 -14 246q-13 76 -44 112.5t-104 59.5v8h381v-8q-72 -22 -103 -58t-44 -111
q-14 -80 -15 -249v-762q0 -264 -48 -371q-29 -64 -56.5 -101t-75 -61t-115.5 -24q-100 0 -100 86q0 34 18 68q63 -29 127 -29q67 0 102 34q37 35 47 75q12 47 19 104z" />
    <glyph glyph-name="eng" unicode="&#x14b;" horiz-adv-x="1204" 
d="M895 -86v801q0 130 -66.5 198.5t-196.5 69.5q-124 0 -290 -96v-660q0 -153 54 -182q30 -16 96 -37v-8h-420v8q66 21 96 37q55 29 53 182v545q0 158 -65 187q-28 13 -109 30v8q148 17 287 72h8v-158q206 158 377 158q133 0 218 -85t85 -265v-725q0 -376 -279 -486l-6 11
q58 36 95 107.5t50 142t13 145.5z" />
    <glyph glyph-name="Omacron" unicode="&#x14c;" horiz-adv-x="1617" 
d="M1065 1690v-78h-512v78h512zM412 207q161 -203 397 -203t397 203q160 202 160 500q0 297 -160 499t-398 201q-239 0 -396 -202q-160 -202 -160 -499t160 -499zM1313 178q-218 -209 -504 -209t-504 209q-217 208 -217 522t222 528q221 214 498 214t500 -214
q222 -214 222 -528t-217 -522z" />
    <glyph glyph-name="omacron" unicode="&#x14d;" horiz-adv-x="1267" 
d="M889 1321v-78h-512v78h512zM633 14q77 0 141.5 32t106.5 84t71.5 120.5t42.5 138.5t13 141q0 208 -104 354t-271 146t-271 -146t-104 -354q0 -71 13 -141t42.5 -138.5t71.5 -120.5t106.5 -84t141.5 -32zM1006 136q-155 -161 -372 -161t-372 161q-154 160 -153 390
q0 228 155 386q156 157 370 157t370 -157q156 -158 156 -386q0 -230 -154 -390z" />
    <glyph glyph-name="Obreve" unicode="&#x14e;" horiz-adv-x="1617" 
d="M810 1546q-98 0 -159.5 67t-81.5 169h9q31 -60 96 -98q70 -37 135 -36q70 0 136.5 36.5t94.5 97.5h9q-21 -102 -81.5 -169t-157.5 -67zM412 207q161 -203 397 -203t397 203q160 202 160 500q0 297 -160 499t-398 201q-239 0 -396 -202q-160 -202 -160 -499t160 -499z
M1313 178q-218 -209 -504 -209t-504 209q-217 208 -217 522t222 528q221 214 498 214t500 -214q222 -214 222 -528t-217 -522z" />
    <glyph glyph-name="obreve" unicode="&#x14f;" horiz-adv-x="1267" 
d="M634 1280q70 0 136 36t94 97h8q-19 -102 -80 -168.5t-158 -66.5q-98 0 -159 66t-82 169h8q31 -61 96.5 -97t136.5 -36zM633 14q77 0 141.5 32t106.5 84t71.5 120.5t42.5 138.5t13 141q0 208 -104 354t-271 146t-271 -146t-104 -354q0 -71 13 -141t42.5 -138.5
t71.5 -120.5t106.5 -84t141.5 -32zM1006 136q-155 -161 -372 -161t-372 161q-154 160 -153 390q0 228 155 386q156 157 370 157t370 -157q156 -158 156 -386q0 -230 -154 -390z" />
    <glyph glyph-name="Ohungarumlaut" unicode="&#x150;" horiz-adv-x="1617" 
d="M846 1532h-19q46 149 50 250h155q-63 -133 -186 -250zM602 1532h-18q44 145 49 250h155q-63 -133 -186 -250zM412 207q161 -203 397 -203t397 203q160 202 160 500q0 297 -160 499t-398 201q-239 0 -396 -202q-160 -202 -160 -499t160 -499zM1313 178
q-218 -209 -504 -209t-504 209q-217 208 -217 522t222 528q221 214 498 214t500 -214q222 -214 222 -528t-217 -522z" />
    <glyph glyph-name="ohungarumlaut" unicode="&#x151;" horiz-adv-x="1267" 
d="M672 1163h-19q44 145 49 250h156q-63 -133 -186 -250zM428 1163h-18q44 145 49 250h155q-63 -133 -186 -250zM633 14q77 0 141.5 32t106.5 84t71.5 120.5t42.5 138.5t13 141q0 208 -104 354t-271 146t-271 -146t-104 -354q0 -71 13 -141t42.5 -138.5t71.5 -120.5
t106.5 -84t141.5 -32zM1006 136q-155 -161 -372 -161t-372 161q-154 160 -153 390q0 228 155 386q156 157 370 157t370 -157q156 -158 156 -386q0 -230 -154 -390z" />
    <glyph glyph-name="OE" unicode="&#x152;" horiz-adv-x="2260" 
d="M412 207q161 -203 397 -203t397 203q160 202 160 500q0 297 -160 499t-398 201q-239 0 -396 -202q-160 -202 -160 -499t160 -499zM2152 0h-786v285q-91 -149 -237 -232t-320 -84q-286 0 -504 209q-217 208 -217 522t222 528q221 214 499 214q171 0 318.5 -89.5
t238.5 -240.5v301h727v-289h-8q-41 79 -59 108q-20 34 -31 53q-14 27 -25 35q-3 2 -26 21q-32 27 -117 27h-330v-618h307q69 0 104 26q32 24 85 109h8v-316h-8q-51 82 -85 109t-104 27h-307v-660h387q81 0 119 31q47 39 77 84q41 60 105 162h8z" />
    <glyph glyph-name="oe" unicode="&#x153;" horiz-adv-x="1964" 
d="M1650 937q-70 91 -186 91q-114 0 -206 -108t-111 -277l573 19q0 184 -70 275zM633 14q77 0 141.5 32t106.5 84t71.5 120.5t42.5 138.5t13 141q0 208 -104 354t-271 146t-271 -146t-104 -354q0 -71 13 -141t42.5 -138.5t71.5 -120.5t106.5 -84t141.5 -32zM1457 -25
q-272 0 -390 238q-75 -112 -187.5 -174.5t-246.5 -63.5q-216 0 -371 161q-154 160 -153 390q0 228 155 386q156 157 369 157q136 0 257.5 -71.5t190.5 -190.5q68 124 177 193t248 69q138 0 244 -96q108 -96 108 -311q0 -30 -3 -56h-712q-2 -26 -2 -59q0 -93 22.5 -174
t66.5 -147t118.5 -104t171.5 -38q176 0 327 125l13 -8q-46 -79 -156 -153q-109 -73 -247 -73z" />
    <glyph glyph-name="Racute" unicode="&#x154;" horiz-adv-x="1333" 
d="M508 1532h-10q120 91 166 250h172q-117 -159 -328 -250zM1393 8v-8h-111q-167 0 -213 25q-49 27 -139 161l-305 455h-252v-362q-1 -151 31 -197q32 -45 143 -74v-8h-479v8q110 29 142 74q32 46 32 197v856q0 153 -32 197t-142 73v8h587q75 0 140 -10t126 -35.5t104 -65
t69 -101.5t26 -142q0 -291 -362 -387l313 -434q93 -130 153 -171q58 -39 169 -59zM373 1368v-684h217q156 0 272 90q116 91 115 258q0 336 -352 336h-252z" />
    <glyph glyph-name="racute" unicode="&#x155;" horiz-adv-x="716" 
d="M199 1163h-11q120 91 166 250h172q-115 -159 -327 -250zM340 1069h8v-831q0 -160 68 -193q30 -15 116 -37v-8h-454v8q96 28 123 66t26 164v493q0 136 -28 174t-146 64v8q120 8 287 92zM596 858q-45 0 -76 31t-31 76q0 46 30.5 75t76.5 29q45 0 74.5 -30t29.5 -75
q0 -44 -30 -75t-74 -31z" />
    <glyph glyph-name="Rcommaaccent" unicode="&#x156;" horiz-adv-x="1333" 
d="M637 -319q0 24 -26 61q-25 35 -25 73q0 41 27 66t68 25t70 -32t27 -75q0 -80 -67.5 -166t-149.5 -143l-6 4q82 103 82 187zM1393 8v-8h-111q-167 0 -213 25q-49 27 -139 161l-305 455h-252v-362q-1 -151 31 -197q32 -45 143 -74v-8h-479v8q110 29 142 74q32 46 32 197
v856q0 153 -32 197t-142 73v8h587q75 0 140 -10t126 -35.5t104 -65t69 -101.5t26 -142q0 -291 -362 -387l313 -434q93 -130 153 -171q58 -39 169 -59zM373 1368v-684h217q156 0 272 90q116 91 115 258q0 336 -352 336h-252z" />
    <glyph glyph-name="rcommaaccent" unicode="&#x157;" horiz-adv-x="716" 
d="M328 -319q0 24 -26 61t-26 73q0 40 27.5 65.5t68.5 25.5t70 -32q28 -32 27 -90q-2 -71 -73 -157.5t-144 -136.5l-6 4q82 103 82 187zM340 1069h8v-831q0 -160 68 -193q30 -15 116 -37v-8h-454v8q96 28 123 66t26 164v493q0 136 -28 174t-146 64v8q120 8 287 92zM596 858
q-45 0 -76 31t-31 76q0 46 30.5 75t76.5 29q45 0 74.5 -30t29.5 -75q0 -44 -30 -75t-74 -31z" />
    <glyph glyph-name="Rcaron" unicode="&#x158;" horiz-adv-x="1333" 
d="M903 1782l-188 -250h-101l-184 250h16l220 -142l221 142h16zM1393 8v-8h-111q-167 0 -213 25q-49 27 -139 161l-305 455h-252v-362q-1 -151 31 -197q32 -45 143 -74v-8h-479v8q110 29 142 74q32 46 32 197v856q0 153 -32 197t-142 73v8h587q75 0 140 -10t126 -35.5
t104 -65t69 -101.5t26 -142q0 -291 -362 -387l313 -434q93 -130 153 -171q58 -39 169 -59zM373 1368v-684h217q156 0 272 90q116 91 115 258q0 336 -352 336h-252z" />
    <glyph glyph-name="rcaron" unicode="&#x159;" horiz-adv-x="716" 
d="M594 1413l-188 -250h-101l-184 250h16l219 -141l222 141h16zM340 1069h8v-831q0 -160 68 -193q30 -15 116 -37v-8h-454v8q96 28 123 66t26 164v493q0 136 -28 174t-146 64v8q120 8 287 92zM596 858q-45 0 -76 31t-31 76q0 46 30.5 75t76.5 29q45 0 74.5 -30t29.5 -75
q0 -44 -30 -75t-74 -31z" />
    <glyph glyph-name="Sacute" unicode="&#x15a;" horiz-adv-x="1032" 
d="M463 1532h-10q119 90 165 250h173q-117 -159 -328 -250zM127 49v340h8q55 -199 159 -291t224 -92q118 0 213 80q94 79 94 207q0 90 -48.5 167.5t-129.5 126.5q-71 43 -166 97q-70 40 -166 98q-81 49 -129.5 128.5t-48.5 170.5q0 164 119 262q120 99 272 99t353 -78v-281
h-9q-22 63 -54 117.5t-76 102t-102.5 75t-124.5 27.5q-110 0 -186.5 -68t-76.5 -176q0 -95 47.5 -169.5t132.5 -122.5q203 -114 334 -194q84 -52 132 -133t48 -177q0 -182 -134 -289q-133 -106 -316 -106t-369 79z" />
    <glyph glyph-name="sacute" unicode="&#x15b;" horiz-adv-x="870" 
d="M332 1163h-10q119 90 165 250h172q-115 -159 -327 -250zM106 59v271h9q53 -157 144 -236q92 -80 191 -80q100 0 160 60q62 60 62 137q0 134 -196 226q-54 25 -162 79q-87 43 -141 114t-54 161q0 128 96.5 203t228.5 75q129 0 273 -59v-248h-10q-33 110 -105 189t-174 79
q-81 0 -141.5 -52.5t-60.5 -132.5q0 -134 196 -223q82 -38 165 -78q89 -44 143 -112.5t54 -159.5q0 -129 -98 -213t-262 -84t-318 84z" />
    <glyph glyph-name="Scircumflex" unicode="&#x15c;" horiz-adv-x="1032" 
d="M563 1782l189 -250h-17l-221 141l-219 -141h-16l184 250h100zM127 49v340h8q55 -199 159 -291t224 -92q118 0 213 80q94 79 94 207q0 90 -48.5 167.5t-129.5 126.5q-71 43 -166 97q-70 40 -166 98q-81 49 -129.5 128.5t-48.5 170.5q0 164 119 262q120 99 272 99t353 -78
v-281h-9q-22 63 -54 117.5t-76 102t-102.5 75t-124.5 27.5q-110 0 -186.5 -68t-76.5 -176q0 -95 47.5 -169.5t132.5 -122.5q203 -114 334 -194q84 -52 132 -133t48 -177q0 -182 -134 -289q-133 -106 -316 -106t-369 79z" />
    <glyph glyph-name="scircumflex" unicode="&#x15d;" horiz-adv-x="870" 
d="M483 1413l189 -250h-17l-221 142l-219 -142h-16l184 250h100zM106 59v271h9q53 -157 144 -236q92 -80 191 -80q100 0 160 60q62 60 62 137q0 134 -196 226q-54 25 -162 79q-87 43 -141 114t-54 161q0 128 96.5 203t228.5 75q129 0 273 -59v-248h-10q-33 110 -105 189
t-174 79q-81 0 -141.5 -52.5t-60.5 -132.5q0 -134 196 -223q82 -38 165 -78q89 -44 143 -112.5t54 -159.5q0 -129 -98 -213t-262 -84t-318 84z" />
    <glyph glyph-name="Scedilla" unicode="&#x15e;" horiz-adv-x="1032" 
d="M315 -375l25 23q67 -29 123 -29q58 0 99.5 26t41.5 81q0 30 -21 53t-53.5 34.5t-63 17t-58.5 5.5l98 133q-192 0 -379 80v340h8q55 -199 159 -291t224 -92q118 0 213 80q94 79 94 207q0 90 -48.5 167.5t-129.5 126.5q-71 43 -166 97q-70 40 -166 98q-81 49 -129.5 128.5
t-48.5 170.5q0 164 119 262q120 99 272 99t353 -78v-281h-9q-22 63 -54 117.5t-76 102t-102.5 75t-124.5 27.5q-110 0 -186.5 -68t-76.5 -176q0 -95 47.5 -169.5t132.5 -122.5q203 -114 334 -194q84 -52 132 -133t48 -177q0 -166 -109 -268q-111 -102 -268 -124l-49 -77
q71 -7 133 -50q61 -42 61 -118q0 -56 -39.5 -93t-88.5 -50t-104 -13q-94 0 -167 53z" />
    <glyph glyph-name="scedilla" unicode="&#x15f;" horiz-adv-x="870" 
d="M236 -375l24 23q67 -29 123 -29q58 0 99.5 26t41.5 81q0 30 -21 53t-53.5 34.5t-63 17t-58.5 5.5l104 139q-174 0 -326 84v271h9q53 -157 144 -236q92 -80 191 -80q100 0 160 60q62 60 62 137q0 134 -196 226q-54 25 -162 79q-87 43 -141 114t-54 161q0 128 96.5 203
t228.5 75q129 0 273 -59v-248h-10q-33 110 -105 189t-174 79q-81 0 -141.5 -52.5t-60.5 -132.5q0 -134 196 -223q82 -38 165 -78q197 -97 197 -284q0 -114 -85.5 -189.5t-204.5 -90.5l-54 -84q71 -7 133 -50q61 -42 61 -118q0 -56 -39.5 -93t-88.5 -50t-104 -13
q-93 0 -166 53z" />
    <glyph glyph-name="Scaron" unicode="&#x160;" horiz-adv-x="1032" 
d="M752 1782l-189 -250h-100l-184 250h16l219 -142l221 142h17zM127 49v340h8q55 -199 159 -291t224 -92q118 0 213 80q94 79 94 207q0 90 -48.5 167.5t-129.5 126.5q-71 43 -166 97q-70 40 -166 98q-81 49 -129.5 128.5t-48.5 170.5q0 164 119 262q120 99 272 99t353 -78
v-281h-9q-22 63 -54 117.5t-76 102t-102.5 75t-124.5 27.5q-110 0 -186.5 -68t-76.5 -176q0 -95 47.5 -169.5t132.5 -122.5q203 -114 334 -194q84 -52 132 -133t48 -177q0 -182 -134 -289q-133 -106 -316 -106t-369 79z" />
    <glyph glyph-name="scaron" unicode="&#x161;" horiz-adv-x="870" 
d="M672 1413l-189 -250h-100l-184 250h16l219 -141l221 141h17zM106 59v271h9q53 -157 144 -236q92 -80 191 -80q100 0 160 60q62 60 62 137q0 134 -196 226q-54 25 -162 79q-87 43 -141 114t-54 161q0 128 96.5 203t228.5 75q129 0 273 -59v-248h-10q-33 110 -105 189
t-174 79q-81 0 -141.5 -52.5t-60.5 -132.5q0 -134 196 -223q82 -38 165 -78q89 -44 143 -112.5t54 -159.5q0 -129 -98 -213t-262 -84t-318 84z" />
    <glyph glyph-name="Tcommaaccent" unicode="&#x162;" horiz-adv-x="1306" 
d="M623 -319q0 24 -26 61t-26 73q0 40 27.5 65.5t68.5 25.5q48 0 72.5 -36t24.5 -86q0 -69 -71.5 -155.5t-145.5 -138.5l-6 4q82 103 82 187zM893 8v-8h-479v8q110 29 142 74q32 46 32 197v1089h-234q-55 0 -98 -40q-42 -39 -172 -204h-8l41 289h1073l41 -289h-8
q-123 162 -167 203t-102 41h-235v-1089q0 -151 32 -197q32 -45 142 -74z" />
    <glyph glyph-name="tcommaaccent" unicode="&#x163;" horiz-adv-x="649" 
d="M295 -319q0 24 -26 61q-25 35 -25 73q0 41 27 66t68 25t70 -32t27 -75q0 -80 -67.5 -166t-149.5 -143l-6 4q82 103 82 187zM403 -16q-211 0 -210 268v739h-164v8q109 51 155 97t125 194h8v-246h293v-49h-293v-735q0 -180 144 -189q3 0 11 -0.5t11 -0.5q69 0 183 28l8 -10
q-151 -104 -271 -104z" />
    <glyph glyph-name="Tcaron" unicode="&#x164;" horiz-adv-x="1306" 
d="M889 1782l-189 -250h-100l-184 250h16l219 -142l221 142h17zM893 8v-8h-479v8q110 29 142 74q32 46 32 197v1089h-234q-55 0 -98 -40q-42 -39 -172 -204h-8l41 289h1073l41 -289h-8q-123 162 -167 203t-102 41h-235v-1089q0 -151 32 -197q32 -45 142 -74z" />
    <glyph glyph-name="tcaron" unicode="&#x165;" horiz-adv-x="649" 
d="M438 1453q0 40 27.5 65.5t68.5 25.5q42 0 69.5 -31.5t27.5 -74.5q-1 -81 -68.5 -168.5t-148.5 -141.5l-6 5q82 103 81 186q1 24 -25 61t-26 73zM403 -16q-211 0 -210 268v739h-164v8q109 51 155 97t125 194h8v-246h293v-49h-293v-735q0 -180 144 -189q3 0 11 -0.5
t11 -0.5q69 0 183 28l8 -10q-151 -104 -271 -104z" />
    <glyph glyph-name="Tbar" unicode="&#x166;" horiz-adv-x="1306" 
d="M893 8v-8h-479v8q110 29 142 74q32 46 32 197v421h-246v56h246v612h-234q-55 0 -98 -40q-42 -39 -172 -204h-8l41 289h1073l41 -289h-8q-123 162 -167 203t-102 41h-235v-612h246v-56h-246v-421q0 -151 32 -197q32 -45 142 -74z" />
    <glyph glyph-name="tbar" unicode="&#x167;" horiz-adv-x="649" 
d="M403 -16q-211 0 -210 268v334h-146v49h146v356h-164v8q109 51 155 97t125 194h8v-246h293v-49h-293v-360h283v-49h-283v-326q0 -180 144 -189q3 0 11 -0.5t11 -0.5q69 0 183 28l8 -10q-151 -104 -271 -104z" />
    <glyph glyph-name="Utilde" unicode="&#x168;" horiz-adv-x="1579" 
d="M891 1634q-47 0 -138 30t-128 30q-36 0 -69 -23t-46 -57l-16 4q17 48 33.5 71.5t54.5 53.5q47 37 102 37q53 0 143 -27t125 -27q88 0 117 74l16 -4q-57 -162 -194 -162zM1284 387v600q0 228 -31 306q-31 79 -131 112v8h381v-8q-72 -23 -103.5 -62t-44.5 -116
q-12 -73 -14 -240v-606q0 -89 -31 -160.5t-83 -117.5t-123 -76.5t-146.5 -43.5t-158.5 -14q-82 0 -158 13t-148.5 44t-125.5 77.5t-85.5 117.5t-31.5 160v774q0 119 -32.5 170t-141.5 80v8h479v-8q-109 -29 -141.5 -80t-32.5 -170v-803q0 -143 118 -230q119 -87 325 -87
q71 0 135.5 11t124.5 37.5t104 66t70 100.5t26 137z" />
    <glyph glyph-name="utilde" unicode="&#x169;" horiz-adv-x="1159" 
d="M414 1325q-37 0 -69.5 -22.5t-45.5 -57.5l-16 4q19 50 34.5 73t54.5 52q47 35 101 37q53 0 143 -27q89 -26 122 -26q92 0 120 74l16 -5q-57 -163 -194 -161q-46 0 -138 30q-90 29 -126 29h-2zM858 -25h-8v142q-200 -140 -371 -142q-283 0 -282 334v463q0 157 -66 187
q-29 13 -108 30v8q146 16 286 72h8v-756q2 -252 255 -253q123 0 278 85v627q0 157 -66 187q-28 13 -108 30v8q148 17 287 72h8v-797q0 -158 65 -187q28 -13 109 -30v-8q-148 -17 -287 -72z" />
    <glyph glyph-name="Umacron" unicode="&#x16a;" horiz-adv-x="1579" 
d="M1044 1690v-78h-512v78h512zM1284 387v600q0 228 -31 306q-31 79 -131 112v8h381v-8q-72 -23 -103.5 -62t-44.5 -116q-12 -73 -14 -240v-606q0 -89 -31 -160.5t-83 -117.5t-123 -76.5t-146.5 -43.5t-158.5 -14q-82 0 -158 13t-148.5 44t-125.5 77.5t-85.5 117.5
t-31.5 160v774q0 119 -32.5 170t-141.5 80v8h479v-8q-109 -29 -141.5 -80t-32.5 -170v-803q0 -143 118 -230q119 -87 325 -87q71 0 135.5 11t124.5 37.5t104 66t70 100.5t26 137z" />
    <glyph glyph-name="umacron" unicode="&#x16b;" horiz-adv-x="1159" 
d="M836 1321v-78h-512v78h512zM858 -25h-8v142q-200 -140 -371 -142q-283 0 -282 334v463q0 157 -66 187q-29 13 -108 30v8q146 16 286 72h8v-756q2 -252 255 -253q123 0 278 85v627q0 157 -66 187q-28 13 -108 30v8q148 17 287 72h8v-797q0 -158 65 -187q28 -13 109 -30v-8
q-148 -17 -287 -72z" />
    <glyph glyph-name="Ubreve" unicode="&#x16c;" horiz-adv-x="1579" 
d="M788 1546q-97 0 -157.5 67t-81.5 169h8q31 -60 96 -98q69 -37 135 -36q71 0 137.5 36.5t94.5 97.5h8q-20 -102 -81 -169t-159 -67zM1284 387v600q0 228 -31 306q-31 79 -131 112v8h381v-8q-72 -23 -103.5 -62t-44.5 -116q-12 -73 -14 -240v-606q0 -89 -31 -160.5
t-83 -117.5t-123 -76.5t-146.5 -43.5t-158.5 -14q-82 0 -158 13t-148.5 44t-125.5 77.5t-85.5 117.5t-31.5 160v774q0 119 -32.5 170t-141.5 80v8h479v-8q-109 -29 -141.5 -80t-32.5 -170v-803q0 -143 118 -230q119 -87 325 -87q71 0 135.5 11t124.5 37.5t104 66t70 100.5
t26 137z" />
    <glyph glyph-name="ubreve" unicode="&#x16d;" horiz-adv-x="1159" 
d="M580 1280q71 0 137 36t94 97h8q-20 -102 -81 -168.5t-158 -66.5q-98 0 -159 66.5t-81 168.5h8q30 -61 95.5 -97t136.5 -36zM858 -25h-8v142q-200 -140 -371 -142q-283 0 -282 334v463q0 157 -66 187q-29 13 -108 30v8q146 16 286 72h8v-756q2 -252 255 -253q123 0 278 85
v627q0 157 -66 187q-28 13 -108 30v8q148 17 287 72h8v-797q0 -158 65 -187q28 -13 109 -30v-8q-148 -17 -287 -72z" />
    <glyph glyph-name="Uring" unicode="&#x16e;" horiz-adv-x="1579" 
d="M788 1579q65 0 107.5 45.5t42.5 110.5q0 66 -42 110.5t-108 44.5q-65 0 -108 -45.5t-43 -110.5t43 -110t108 -45zM1001 1735q0 -86 -63 -147.5t-150 -61.5t-149.5 61t-62.5 147q0 87 62.5 148.5t149.5 61.5q86 0 150 -61.5t63 -147.5zM1284 387v600q0 228 -31 306
q-31 79 -131 112v8h381v-8q-72 -23 -103.5 -62t-44.5 -116q-12 -73 -14 -240v-606q0 -89 -31 -160.5t-83 -117.5t-123 -76.5t-146.5 -43.5t-158.5 -14q-82 0 -158 13t-148.5 44t-125.5 77.5t-85.5 117.5t-31.5 160v774q0 119 -32.5 170t-141.5 80v8h479v-8
q-109 -29 -141.5 -80t-32.5 -170v-803q0 -143 118 -230q119 -87 325 -87q71 0 135.5 11t124.5 37.5t104 66t70 100.5t26 137z" />
    <glyph glyph-name="uring" unicode="&#x16f;" horiz-adv-x="1159" 
d="M580 1210q65 0 107 45.5t42 110.5t-42 110.5t-107 45.5t-108.5 -45t-43.5 -111t43.5 -111t108.5 -45zM793 1366q1 -86 -62.5 -147t-150.5 -61q-86 0 -150 60q-65 62 -63 148q0 87 63 147.5t150 60.5q86 0 150 -60q65 -62 63 -148zM858 -25h-8v142q-200 -140 -371 -142
q-283 0 -282 334v463q0 157 -66 187q-29 13 -108 30v8q146 16 286 72h8v-756q2 -252 255 -253q123 0 278 85v627q0 157 -66 187q-28 13 -108 30v8q148 17 287 72h8v-797q0 -158 65 -187q28 -13 109 -30v-8q-148 -17 -287 -72z" />
    <glyph glyph-name="Uhungarumlaut" unicode="&#x170;" horiz-adv-x="1579" 
d="M827 1532h-18q44 145 49 250h156q-64 -133 -187 -250zM584 1532h-19q44 145 49 250h156q-63 -133 -186 -250zM1284 387v600q0 228 -31 306q-31 79 -131 112v8h381v-8q-72 -23 -103.5 -62t-44.5 -116q-12 -73 -14 -240v-606q0 -89 -31 -160.5t-83 -117.5t-123 -76.5
t-146.5 -43.5t-158.5 -14q-82 0 -158 13t-148.5 44t-125.5 77.5t-85.5 117.5t-31.5 160v774q0 119 -32.5 170t-141.5 80v8h479v-8q-109 -29 -141.5 -80t-32.5 -170v-803q0 -143 118 -230q119 -87 325 -87q71 0 135.5 11t124.5 37.5t104 66t70 100.5t26 137z" />
    <glyph glyph-name="uhungarumlaut" unicode="&#x171;" horiz-adv-x="1159" 
d="M616 1163h-18q44 145 49 250h156q-64 -133 -187 -250zM373 1163h-19q44 145 49 250h156q-63 -133 -186 -250zM858 -25h-8v142q-200 -140 -371 -142q-283 0 -282 334v463q0 157 -66 187q-29 13 -108 30v8q146 16 286 72h8v-756q2 -252 255 -253q123 0 278 85v627
q0 157 -66 187q-28 13 -108 30v8q148 17 287 72h8v-797q0 -158 65 -187q28 -13 109 -30v-8q-148 -17 -287 -72z" />
    <glyph glyph-name="Uogonek" unicode="&#x172;" horiz-adv-x="1579" 
d="M250 381v774q0 119 -32.5 170t-141.5 80v8h479v-8q-109 -29 -141.5 -80t-32.5 -170v-803q0 -143 118 -230q119 -87 325 -87q71 0 135.5 11t124.5 37.5t104 66t70 100.5t26 137v600q0 228 -31 306q-31 79 -131 112v8h381v-8q-72 -23 -103.5 -62t-44.5 -116
q-12 -73 -14 -240v-606q0 -77 -23.5 -141t-64 -109.5t-97 -79t-121 -52.5t-138.5 -26q-145 -157 -145 -252q0 -81 94 -81q32 0 76 10v-8q-55 -70 -136 -70q-67 0 -113 34t-48 99q0 117 239 266l-65 -2q-82 0 -158 13t-148.5 44t-125.5 77.5t-85.5 117.5t-31.5 160z" />
    <glyph glyph-name="uogonek" unicode="&#x173;" horiz-adv-x="1159" 
d="M1145 -350v-8q-55 -70 -135 -70q-68 0 -115 34t-47 99q0 45 30 97.5t76.5 98.5t91.5 82t87 62q-134 -13 -275 -70h-8v142q-200 -140 -371 -142q-283 0 -282 334v463q0 157 -66 187q-29 13 -108 30v8q146 16 286 72h8v-756q2 -252 255 -253q123 0 278 85v627
q0 157 -66 187q-28 13 -108 30v8q148 17 287 72h8v-797q0 -158 65 -187q28 -13 109 -30v-8q-60 -68 -115 -164q-56 -99 -55 -162q0 -81 94 -81q32 0 76 10z" />
    <glyph glyph-name="Wcircumflex" unicode="&#x174;" horiz-adv-x="1947" 
d="M1022 1782l188 -250h-16l-221 141l-219 -141h-17l185 250h100zM-12 1405v8h450v-8q-72 -15 -96 -27t-32 -68q-10 -82 93 -444l189 -712l233 716q85 266 92 348q7 83 -17 115q-24 31 -54 45q-30 13 -92 27v8h452v-8q-129 -27 -133 -97q-4 -67 103 -442l208 -723l220 727
q103 334 96 428q-2 28 -22.5 54.5t-47.5 33.5q-41 11 -78 19v8h408v-8q-76 -21 -111.5 -64t-72.5 -133q-45 -109 -119 -346l-281 -893h-55l-348 1209l-395 -1209h-56l-246 891q-74 267 -112 364q-41 105 -71 135q-31 29 -105 46z" />
    <glyph glyph-name="wcircumflex" unicode="&#x175;" horiz-adv-x="1771" 
d="M934 1413l188 -250h-16l-221 142l-219 -142h-17l185 250h100zM16 1036v8h424v-8q-95 -27 -109 -56q-2 -4 -6.5 -14t-7.5 -15q-8 -14 3 -76q9 -53 34 -128q30 -91 34 -104q4 -12 13 -41l156 -473l313 915h56l319 -907l185 531q79 226 66 277q-14 51 -63 69q-24 9 -75 22v8
h397v-8q-75 -29 -103 -50q-65 -49 -177 -343l-252 -674h-45l-326 905l-313 -905h-45l-236 674q-104 294 -158 342q-27 25 -84 51z" />
    <glyph glyph-name="Ycircumflex" unicode="&#x176;" horiz-adv-x="1292" 
d="M694 1782l189 -250h-17l-221 141l-219 -141h-16l184 250h100zM893 8v-8h-479v8q105 27 139 84q35 58 35 187v339l-207 365q-160 283 -235 349q-36 33 -61.5 47t-72.5 26v8h439v-8q-42 -8 -61 -15q-20 -8 -34 -26q-14 -19 -11 -42q3 -22 23 -75q19 -48 140 -258l186 -315
l189 338q93 167 117 238t1 103t-106 52v8h385v-8q-75 -11 -140 -86q-65 -76 -202 -313l-219 -383v-344q0 -128 35 -187q34 -58 139 -84z" />
    <glyph glyph-name="ycircumflex" unicode="&#x177;" horiz-adv-x="1120" 
d="M608 1413l189 -250h-17l-221 142l-219 -142h-16l184 250h100zM8 1036v8h428v-8q-56 -10 -84 -24t-45 -48t18 -153q33 -114 68 -209l187 -557l206 623q13 42 41 126q20 61 22 85q5 75 -11 91q-29 31 -55.5 43.5t-75.5 22.5v8h405v-8q-64 -18 -96 -43q-87 -66 -185 -350
l-274 -788q-20 -57 -45.5 -109.5t-64 -109.5t-90.5 -92t-109 -36q-49 0 -88 28.5t-39 76.5q0 44 28 71.5t72 27.5q47 0 72 -40q25 -38 14 -94q119 32 225 330l33 92h-92l-223 643q-78 226 -120 296q-43 72 -122 97z" />
    <glyph glyph-name="Ydieresis" unicode="&#x178;" horiz-adv-x="1292" 
d="M594 1700q0 -39 -28.5 -67.5t-67.5 -28.5q-40 0 -68.5 28t-28.5 68t28.5 68t68.5 28t68 -28t28 -68zM889 1700q0 -40 -28.5 -68t-68.5 -28q-39 0 -67.5 28.5t-28.5 67.5q0 40 28.5 68t68.5 28t67 -28t29 -68zM893 8v-8h-479v8q105 27 139 84q35 58 35 187v339l-207 365
q-160 283 -235 349q-36 33 -61.5 47t-72.5 26v8h439v-8q-42 -8 -61 -15q-20 -8 -34 -26q-14 -19 -11 -42q3 -22 23 -75q19 -48 140 -258l186 -315l189 338q93 167 117 238t1 103t-106 52v8h385v-8q-75 -11 -140 -86q-65 -76 -202 -313l-219 -383v-344q0 -128 35 -187
q34 -58 139 -84z" />
    <glyph glyph-name="Zacute" unicode="&#x179;" horiz-adv-x="1159" 
d="M420 1532h-10q119 90 165 250h173q-117 -159 -328 -250zM1067 0h-1016v8l862 1360h-538q-79 0 -123 -38q-40 -34 -164 -206h-8l41 289h966v-8l-854 -1360h566q88 0 134 46q47 47 165 231h8z" />
    <glyph glyph-name="zacute" unicode="&#x17a;" horiz-adv-x="954" 
d="M317 1163h-10q120 91 166 250h172q-117 -159 -328 -250zM883 0h-832v8l664 991h-375q-59 0 -103 -44q-43 -43 -149 -193h-8l41 282h762v-8l-658 -991h420q65 0 112 42q44 39 158 198h9z" />
    <glyph glyph-name="Zdotaccent" unicode="&#x17b;" horiz-adv-x="1159" 
d="M678 1683q0 -40 -29 -68t-69 -30q-40 0 -69.5 29.5t-29.5 69.5t29.5 69t69.5 29t69 -29.5t29 -69.5zM1067 0h-1016v8l862 1360h-538q-79 0 -123 -38q-40 -34 -164 -206h-8l41 289h966v-8l-854 -1360h566q88 0 134 46q47 47 165 231h8z" />
    <glyph glyph-name="zdotaccent" unicode="&#x17c;" horiz-adv-x="954" 
d="M575 1315q2 -41 -29 -70t-69 -29q-39 0 -69 30q-30 29 -29 69q0 40 29 68t70 30q39 -2 68 -29q30 -29 29 -69zM883 0h-832v8l664 991h-375q-59 0 -103 -44q-43 -43 -149 -193h-8l41 282h762v-8l-658 -991h420q65 0 112 42q44 39 158 198h9z" />
    <glyph glyph-name="Zcaron" unicode="&#x17d;" horiz-adv-x="1159" 
d="M815 1782l-188 -250h-101l-184 250h16l220 -142l221 142h16zM1067 0h-1016v8l862 1360h-538q-79 0 -123 -38q-40 -34 -164 -206h-8l41 289h966v-8l-854 -1360h566q88 0 134 46q47 47 165 231h8z" />
    <glyph glyph-name="zcaron" unicode="&#x17e;" horiz-adv-x="954" 
d="M713 1413l-189 -250h-100l-184 250h16l219 -141l221 141h17zM883 0h-832v8l664 991h-375q-59 0 -103 -44q-43 -43 -149 -193h-8l41 282h762v-8l-658 -991h420q65 0 112 42q44 39 158 198h9z" />
    <glyph glyph-name="longs" unicode="&#x17f;" horiz-adv-x="602" 
d="M524 8v-8h-446v8q90 28 120 77t29 173v928q0 358 326 358q87 0 142 -35q55 -34 55 -81q0 -42 -25.5 -70t-67.5 -29q-41 0 -64.5 25.5t-25.5 67.5q0 44 56 83q-29 8 -58 8q-54 0 -93 -17t-61.5 -43t-35.5 -67t-17 -80t-4 -92v-956q0 -126 32 -175q32 -48 138 -75z" />
    <glyph glyph-name="uni0180" unicode="&#x180;" horiz-adv-x="1234" 
d="M557 14q177 0 305 140q127 139 127 368q0 228 -112 350q-113 123 -275 123q-163 0 -297 -100v-807q142 -74 252 -74zM178 29v1173h-149v55h149q-1 107 -34 141t-140 46v8q174 26 293 92h8v-287h359v-55h-359v-278q49 49 147 97t224 48q193 0 324 -131q130 -130 130 -367
q0 -131 -48 -250t-142 -199q-177 -148 -403 -147q-76 0 -180.5 15.5t-178.5 38.5z" />
    <glyph glyph-name="uni0181" unicode="&#x181;" horiz-adv-x="1341" 
d="M336 279v901q0 192 -156 192q-72 0 -98 -14v-8q53 -27 53 -99q0 -38 -31 -61t-70 -25q-40 0 -67 30q-27 31 -26 75q0 143 290 143h469q46 0 89.5 -3.5t91 -13t87.5 -24t76.5 -39t62.5 -55.5t41 -74.5t15 -96.5q0 -148 -89 -239q-89 -90 -218 -125v-8q170 -18 285 -103
t115 -262q0 -82 -32.5 -147t-84.5 -106t-122 -68t-140.5 -38t-145.5 -11h-569v8q105 28 140 80q34 50 34 191zM467 1368v-618h207q158 0 255 89.5t97 245.5q0 283 -364 283h-195zM467 705v-660h258q170 0 274.5 85.5t104.5 251.5q0 88 -33.5 152.5t-92 100.5t-129.5 53
t-155 17h-227z" />
    <glyph glyph-name="uni0182" unicode="&#x182;" horiz-adv-x="1228" 
d="M373 713v-668h239q171 0 275 88t104 256q0 89 -33 153.5t-91.5 101t-129 53t-155.5 16.5h-209zM618 0h-550v8q106 27 140 82t34 197v848q0 65 -5 102.5t-22.5 73t-52.5 57t-94 37.5v8h962v-289h-8q-41 79 -59 108q-20 34 -31 53q-16 28 -26 35q-8 6 -25 21
q-31 27 -117 27h-391v-610h217q553 0 553 -346q-2 -212 -145 -312t-380 -100z" />
    <glyph glyph-name="uni0183" unicode="&#x183;" horiz-adv-x="1234" 
d="M178 29v1106q0 138 -35 190q-35 51 -143 80v8h963v-289h-9q-52 100 -61 114q-3 4 -8.5 13t-10.5 17.5t-10 16.5q-16 27 -25 35q-1 1 -9.5 8.5t-15.5 12.5q-31 27 -118 27h-391v-485q49 49 147 97t224 48q193 0 324 -122q130 -121 130 -355q0 -192 -91 -325
q-170 -250 -502 -251q-76 0 -180.5 15.5t-178.5 38.5zM557 14q180 0 306 131t126 357t-111 339q-113 113 -275 113q-164 0 -298 -100v-766q142 -74 252 -74z" />
    <glyph glyph-name="uni0184" unicode="&#x184;" horiz-adv-x="1228" 
d="M618 0h-550v8q106 27 140 82t34 197v698l-203 199v37l315 221h19v-684h217q553 0 553 -346q-2 -212 -145 -312t-380 -100zM373 713v-668h239q171 0 275 88t104 256q0 89 -33 153.5t-91.5 101t-129 53t-155.5 16.5h-209z" />
    <glyph glyph-name="uni0185" unicode="&#x185;" horiz-adv-x="1234" 
d="M295 1544h10v-620q49 49 147 97t224 48q193 0 324 -131q130 -130 130 -367q0 -131 -48 -250t-142 -199q-177 -148 -403 -147q-76 0 -180.5 15.5t-178.5 38.5v1063l-207 194v37zM557 14q177 0 305 140q127 139 127 368q0 228 -112 350q-113 123 -275 123q-163 0 -297 -100
v-807q142 -74 252 -74z" />
    <glyph glyph-name="uni0186" unicode="&#x186;" horiz-adv-x="1394" 
d="M139 49v270h8q139 -315 424 -315q257 0 414 201q158 202 158 502q0 301 -164 501t-428 199q-85 0 -155.5 -24.5t-124.5 -72t-94.5 -107t-76.5 -138.5h-8l27 291q75 40 203 63t231 23q329 0 538 -199q210 -200 209 -514q0 -224 -112 -400q-108 -170 -276 -265.5
t-367 -94.5q-98 -1 -221 25q-115 25 -185 55z" />
    <glyph glyph-name="uni0187" unicode="&#x187;" horiz-adv-x="1394" 
d="M1208 1378q0 154 45.5 230.5t136.5 75.5q90 0 129 -30q40 -30 40 -66q-4 -76 -67 -76q-30 0 -81 39q-50 40 -74 40q-80 0 -84 -221v-278h-8q-139 315 -424 315q-255 0 -413 -201q-158 -203 -158 -502q0 -300 164 -500t428 -200q164 0 271 89t179 253h8l-26 -291
q-69 -36 -190 -61q-129 -26 -244 -25q-329 0 -538 199q-210 200 -210 514q0 224 112 400q107 168 274 264t362 96q183 0 368 -64z" />
    <glyph glyph-name="uni0188" unicode="&#x188;" horiz-adv-x="937" 
d="M555 -25q-192 -1 -319 145q-125 145 -127 385q0 239 138 401t343 163q91 0 164 -29q12 263 184 264q85 0 126 -29q40 -30 40 -66q0 -34 -17 -55t-50 -21q-30 -1 -81 39q-52 40 -80 40t-52 -51q-23 -50 -25 -141q80 -45 80 -113q0 -44 -29.5 -76.5t-73.5 -32.5t-73 28
q-53 47 -13 129q17 35 41 49q-60 24 -139 24q-77 0 -139 -29t-101.5 -76t-65.5 -111t-37 -130.5t-11 -137.5q0 -215 116 -339q116 -123 276 -123q159 0 316 131l12 -8q-45 -78 -151 -154t-252 -76z" />
    <glyph glyph-name="uni0189" unicode="&#x189;" horiz-adv-x="1540" 
d="M381 700v-655h293q302 0 469.5 182t167.5 487q0 304 -171 479t-442 175h-317v-612h348v-56h-348zM668 0h-592v8q110 29 142 74q32 46 32 197v421h-156v56h156v379q0 153 -32 197t-142 73v8h612q328 0 549 -169q117 -88 174 -226.5t57 -296.5q0 -173 -62 -311.5
t-170.5 -227t-253.5 -135.5t-314 -47z" />
    <glyph glyph-name="uni018A" unicode="&#x18a;" horiz-adv-x="1626" 
d="M467 1368v-1323h293q302 0 469.5 182t167.5 487q0 304 -171 479t-442 175h-317zM336 279v901q0 192 -156 192q-72 0 -98 -14v-8q53 -27 53 -99q0 -38 -31 -61t-70 -25q-40 0 -67 30q-27 31 -26 75q0 143 290 143h543q328 0 549 -169q117 -88 174 -226.5t57 -296.5
q0 -173 -62 -311.5t-170.5 -227t-253.5 -135.5t-314 -47h-592v8q110 29 142 74q32 46 32 197z" />
    <glyph glyph-name="uni018B" unicode="&#x18b;" horiz-adv-x="1228" 
d="M616 45h240v668h-227q-175 0 -283 -86t-108 -256q0 -167 102.5 -246.5t275.5 -79.5zM1161 8v-8h-551q-236 0 -369 76q-155 86 -155 301q0 174 130 277q129 102 405 104h235v610h-391q-85 0 -110 -20q-7 -6 -18 -15.5t-14 -12.5q-9 -8 -25 -35q-18 -32 -28 -45
q-9 -14 -63 -116h-8v289h962v-8q-59 -16 -94 -37.5t-52.5 -57t-22.5 -73t-5 -102.5v-848q0 -142 34 -197q35 -57 140 -82z" />
    <glyph glyph-name="uni018C" unicode="&#x18c;" horiz-adv-x="1249" 
d="M942 -25h-8v172q-157 -172 -363 -172q-214 0 -337 135t-125 351q0 274 164 421q166 146 415 146q121 0 246 -31v371h-391q-85 0 -110 -20q-29 -25 -33 -28q-11 -8 -25 -35q-22 -38 -35 -58q-18 -28 -55 -103h-9v289h963v-8q-108 -28 -143 -80q-33 -50 -35 -190v-863
q0 -158 65 -187q28 -13 109 -30v-8q-158 -17 -293 -72zM623 981q-165 0 -269 -131t-104 -341q0 -203 103 -315.5t304 -111.5q154 0 277 90v717q-146 92 -311 92z" />
    <glyph glyph-name="uni018D" unicode="&#x18d;" horiz-adv-x="1243" 
d="M983 558q0 199 -97 335q-98 137 -254 137q-158 0 -266 -136t-108 -345q0 -131 86 -241q87 -111 236 -226q177 40 290 159q111 117 113 317zM703 -12q223 -163 223 -260q0 -57 -33 -99.5t-85 -65t-105.5 -33.5t-105.5 -11q-137 0 -257 44q-119 44 -119 113q0 70 76 70
q31 0 79 -42q144 -126 279 -126q70 0 119 32t49 99q0 104 -251 251q-100 60 -211 136q-112 79 -182.5 192t-69.5 238q0 252 153 398q154 145 364 145q209 0 360 -143q150 -143 149 -356q0 -214 -164 -349t-367 -158q44 -35 99 -75z" />
    <glyph glyph-name="uni018E" unicode="&#x18e;" horiz-adv-x="1136" 
d="M1069 8v-8h-960l-41 322h8q24 -38 48 -74q4 -6 55 -84q41 -63 84 -91t114 -28h387v660h-307q-70 0 -104 -27t-85 -109h-8v316h8q51 -82 85 -109q34 -26 104 -26h307v618h-330q-85 0 -110 -20q-7 -6 -18 -15.5t-14 -12.5q-10 -7 -26 -35q-52 -89 -90 -161h-8v289h901v-8
q-59 -16 -94 -37.5t-52.5 -57t-22.5 -73t-5 -102.5v-856q0 -151 32 -197q32 -45 142 -74z" />
    <glyph glyph-name="uni018F" unicode="&#x18f;" horiz-adv-x="1488" 
d="M739 4q134 0 261 91q152 107 218 311q36 117 35 253l-2 37l-1003 -28q0 -312 146 -488t345 -176zM1051 1188q-178 160 -441 160t-510 -187l-12 10q112 113 270 192q157 79 337 79q188 0 339.5 -80.5t251.5 -237.5q104 -164 104 -364q0 -166 -44.5 -305.5t-145 -254
t-251.5 -180.5q-119 -51 -231 -51q-224 0 -407 171q-99 92 -146.5 234.5t-47.5 293.5q0 38 4 63h1130q-19 296 -200 457z" />
    <glyph glyph-name="uni0190" unicode="&#x190;" horiz-adv-x="1208" 
d="M778 725h-125q-374 0 -374 -343q1 -90 35.5 -162.5t93.5 -119t136 -71.5t164 -25q189 0 290 91q104 91 120 186q-41 -41 -90 -41q-52 0 -85.5 28.5t-33.5 79.5q0 54 35 85.5t90 31.5q61 0 96 -46.5t35 -109.5q0 -126 -122 -233q-121 -106 -367 -106q-247 0 -398 112
q-152 112 -153 291q0 179 114 276q114 98 283 111v12q-338 89 -338 334q0 154 136 245t358 91q105 0 223 -20.5t199 -59.5v-270h-8q-140 315 -430 315q-149 0 -239.5 -79.5t-90.5 -225.5q0 -149 103.5 -239.5t254.5 -90.5h88v-47z" />
    <glyph glyph-name="uni0191" unicode="&#x191;" horiz-adv-x="1116" 
d="M242 -176v1311q0 65 -5 102.5t-22.5 73t-52.5 57t-94 37.5v8h962v-289h-8q-41 79 -59 108q-20 34 -31 53q-16 28 -26 35q-8 6 -25 21q-31 27 -117 27h-391v-618h368q69 0 104 26q32 24 85 109h8v-316h-8q-51 82 -85 109q-35 27 -104 27h-368l-2 -766q0 -66 -8.5 -124.5
t-30.5 -116t-56 -98.5t-90 -66.5t-127 -25.5q-48 0 -96.5 20t-48.5 60q0 31 16.5 52.5t47.5 21.5q28 0 39 -6q7 -4 59 -45q50 -39 71 -39q95 0 95 252z" />
    <glyph glyph-name="florin" unicode="&#x192;" 
d="M934 707h-346v-840q0 -357 -326 -359q-87 0 -142 35q-54 35 -54 81q0 42 25.5 71t66.5 29t65.5 -25.5t24.5 -66.5q0 -45 -55 -85q29 -8 57 -8q54 1 93 18t61.5 42.5t35.5 66.5t17 80t4 92v869h-275v55h275v321q0 358 325 359q87 0 142 -35q53 -34 55 -81q0 -42 -25.5 -71
t-67.5 -29q-41 0 -65.5 26t-24.5 67q0 45 56 84q-29 8 -57 8q-95 0 -153 -58t-58 -241v-350h346v-55z" />
    <glyph glyph-name="uni0193" unicode="&#x193;" horiz-adv-x="1472" 
d="M1169 68v360q0 49 -3 82t-13.5 65.5t-29.5 53.5t-50.5 39t-77.5 30v9h441v-9q-77 -28 -106 -80q-28 -51 -27 -190v-375q-239 -84 -504 -84q-158 0 -291 55t-224 152t-141.5 232t-50.5 292q0 219 109 392q107 169 270.5 259.5t362.5 90.5q192 0 383 -60q5 302 181 302
q88 0 129 -30q40 -30 40 -66q-4 -76 -67 -76q-30 0 -81 39q-50 40 -73 40q-40 0 -62 -58q-23 -61 -22 -163v-278h-9q-79 154 -182.5 234.5t-261.5 80.5q-232 0 -395 -196q-164 -196 -164 -503q0 -308 167 -505t412 -197q77 0 180 17t160 45z" />
    <glyph glyph-name="uni0194" unicode="&#x194;" horiz-adv-x="1394" 
d="M614 -276q0 -119 70 -125h10q41 0 62.5 34.5t21.5 78.5q0 48 -14 81l-76 191l-47 -127q-27 -71 -27 -133zM-8 1405v8h467v-8q-95 -19 -115 -55q-23 -50 49 -246q21 -62 90 -238l256 -661l250 665q75 195 99 272q26 83 27 148q2 66 -29 83q-32 17 -103 32v8h408v-8
q-68 -19 -110 -59q-77 -75 -234 -484l-279 -729l78 -196q41 -102 41 -195q0 -88 -49 -156t-134 -68q-73 0 -115 53.5t-44 128.5q0 70 43 181l69 176l-319 803q-129 322 -198 446q-14 25 -40.5 51t-50.5 33q-19 8 -57 15z" />
    <glyph glyph-name="uni0195" unicode="&#x195;" horiz-adv-x="1818" 
d="M1548 262v504q0 93 -4 134q-3 36 -20.5 67t-47.5 44q-18 8 -77 25v8h270v-759q0 -82 -32 -143.5t-87 -96.5t-122.5 -52t-145.5 -16q-381 0 -381 308v430q0 130 -66.5 198.5t-196.5 69.5q-124 0 -290 -96v-649q0 -126 27 -163q28 -39 123 -67v-8h-426v8q95 28 123 67
q28 38 26 163v968q0 136 -28 174t-146 64v8q71 4 123 22q13 5 27 10t22 8t12 4q107 46 109 48h8v-633q206 158 377 158q131 0 214 -84q83 -85 83 -266v-430q0 -131 51 -195t207 -63q157 2 212 63q56 62 56 168z" />
    <glyph glyph-name="uni0196" unicode="&#x196;" horiz-adv-x="536" 
d="M221 225v1006q0 131 -32 166t-142 47v8q174 26 293 92h8v-1323q0 -104 18 -142t60 -38q88 0 115 158h20q-18 -226 -182 -228q-42 -1 -72 15t-46.5 40t-25.5 61t-11.5 67.5t-2.5 70.5z" />
    <glyph glyph-name="uni0197" unicode="&#x197;" horiz-adv-x="614" 
d="M547 8v-8h-479v8q110 29 142 71q32 43 32 179v442h-201v56h201v399q0 136 -32 179q-32 42 -142 71v8h479v-8q-111 -29 -143 -71q-32 -43 -31 -179v-399h200v-56h-200v-442q-1 -136 31 -179q32 -42 143 -71z" />
    <glyph glyph-name="uni0198" unicode="&#x198;" horiz-adv-x="1425" 
d="M1470 8v-8h-505v8q91 16 117 42t-2 92q-28 65 -132 214l-305 432l-270 -272v-258q-1 -136 31 -179q32 -42 143 -71v-8h-479v8q110 29 142 71q32 43 32 179v739q0 196 88 320q89 125 225 125q41 0 86 -13.5t82 -45.5t37 -74q0 -28 -21.5 -45.5t-49.5 -17.5t-56 21t-43 49
q-39 71 -102 71q-62 -2 -89 -87q-27 -87 -26 -296v-424l461 475q90 94 142 163q47 62 42 100t-34 54q-30 17 -97 33v8h497v-8q-112 -27 -192 -87q-83 -63 -268 -249l-185 -186l371 -527q158 -222 208 -269q54 -51 152 -79z" />
    <glyph glyph-name="uni0199" unicode="&#x199;" horiz-adv-x="1173" 
d="M1194 8v-8h-168q-89 0 -110 8q-24 9 -30 10q-11 1 -26 16q-12 12 -22 20q-7 4 -27 29q-18 24 -29 35q-8 8 -37 45q-33 42 -43 54l-278 344l192 178q84 78 125 122q96 103 31 139q-34 19 -119 30v14h498v-8q-167 -39 -399 -239l-207 -181l325 -385q70 -84 136 -133
q54 -39 90.5 -57t97.5 -33zM498 8v-8h-426v8q95 28 123 64q27 35 26 153v875q0 193 97 318q98 126 237 126q41 0 86 -13.5t82 -45.5t37 -74q0 -28 -21.5 -45.5t-49.5 -17.5t-56 21t-43 49q-39 71 -101 71q-141 0 -141 -383v-881q0 -47 2.5 -74t10.5 -51t25.5 -38.5t43 -27.5
t68.5 -26z" />
    <glyph glyph-name="uni019A" unicode="&#x19a;" horiz-adv-x="536" 
d="M498 8v-8h-426v8q95 28 123 64q27 35 26 153v475h-180v56h180v475q0 131 -32 166t-142 47v8q174 26 293 92h8v-788h148v-56h-148v-475q0 -47 2.5 -74t10.5 -51t25.5 -38.5t43 -27.5t68.5 -26z" />
    <glyph glyph-name="uni019B" unicode="&#x19b;" horiz-adv-x="999" 
d="M1040 70h31v-9q-85 -81 -149 -81q-63 0 -99 57t-69 170q-34 116 -63 229q-19 76 -50 191l-80 288l-354 -749q-37 -75 -64 -166h-155l518 1024q-13 51 -41 129l-328 -217v76l307 202q-40 100 -77 162q-68 -24 -115 -24q-46 0 -75.5 24.5t-29.5 69.5q0 47 38 72.5t87 25.5
q38 0 68 -16.5t50.5 -47.5t33 -58.5t25.5 -67.5l38 -113l271 180v-75l-250 -166l135 -389q35 -101 89 -271q60 -189 102 -293q41 -102 77 -129q39 -29 129 -28z" />
    <glyph glyph-name="uni019C" unicode="&#x19c;" horiz-adv-x="1822" 
d="M1497 -25h-8v155q-203 -155 -365 -155q-91 0 -158.5 41t-101.5 121q-212 -161 -377 -162q-131 0 -211 84q-80 85 -79 267v850q0 124 -27 162q-28 39 -123 67v8h420v-8q-95 -28 -123 -67q-27 -38 -27 -162v-846q0 -127 64 -198t189 -71q118 0 287 97q-23 72 -23 168v850
q0 124 -27 162q-28 39 -123 67v8h420v-8q-95 -28 -123 -67q-27 -38 -27 -162v-846q0 -127 64 -198t190 -71q118 0 281 94v1031q0 154 -54 182q-30 16 -96 37v8h420v-8q-65 -21 -95 -37q-54 -28 -54 -182v-914q0 -158 65 -187q28 -13 109 -30v-8q-148 -17 -287 -72z" />
    <glyph glyph-name="uni019D" unicode="&#x19d;" horiz-adv-x="1611" 
d="M1417 987v-1007h-59l-1065 1280v-1360q0 -223 -50 -308q-49 -84 -190 -84q-48 0 -96.5 20t-48.5 60q0 31 16.5 52.5t47.5 21.5q27 0 38 -6q7 -4 59 -45q49 -39 72 -39q93 0 95 252v1382q0 60 -52 118q-53 59 -151 81v8h307l1020 -1218v792q0 164 -14 246
q-13 76 -44 112.5t-104 59.5v8h381v-8q-72 -22 -103 -58t-44 -111q-14 -80 -15 -249z" />
    <glyph glyph-name="uni019E" unicode="&#x19e;" horiz-adv-x="1204" 
d="M1016 719v-1190h-121v1186q0 130 -66.5 198.5t-196.5 69.5q-124 0 -290 -96v-660q0 -153 54 -182q30 -16 96 -37v-8h-420v8q66 21 96 37q55 29 53 182v545q0 158 -65 187q-28 13 -109 30v8q148 17 287 72h8v-158q206 158 377 158q131 0 214 -84q83 -85 83 -266z" />
    <glyph glyph-name="uni019F" unicode="&#x19f;" horiz-adv-x="1617" 
d="M1194 1219q-158 188 -386 188t-386 -188t-170 -469h1112q-12 281 -170 469zM1366 705h-1114q0 -297 160 -499t396 -202t396 202q161 203 162 499zM1313 178q-218 -209 -504 -209t-504 209q-217 208 -217 522t222 528q221 214 498 214t500 -214q222 -214 222 -528
t-217 -522z" />
    <glyph glyph-name="Ohorn" unicode="&#x1a0;" horiz-adv-x="1617" 
d="M412 207q161 -203 397 -203t397 203q160 202 160 500q0 297 -160 499t-398 201q-239 0 -396 -202q-160 -202 -160 -499t160 -499zM1530 698q0 -312 -217 -520q-218 -209 -504 -209t-504 209q-217 208 -217 522t222 528q221 214 499 214q80 0 207 -16q118 -15 190 -15
q164 0 164 70q0 23 -42 55t-42 68q0 38 25 62t63 24t76 -32q37 -31 37 -87q0 -199 -281 -199q-73 0 -123 8q194 -85 321 -268q126 -182 126 -414z" />
    <glyph glyph-name="ohorn" unicode="&#x1a1;" horiz-adv-x="1267" 
d="M633 14q77 0 141.5 32t106.5 84t71.5 120.5t42.5 138.5t13 141q0 208 -104 354t-271 146t-271 -146t-104 -354q0 -71 13 -141t42.5 -138.5t71.5 -120.5t106.5 -84t141.5 -32zM1159 526q1 -230 -153 -390q-155 -161 -372 -161t-372 161q-154 160 -153 390q0 228 155 386
q156 157 369 157q75 0 173 -15q94 -14 157 -16q82 0 123 17.5t40 52.5q0 22 -42 54t-42 69q0 38 25 61t63 25q38 0 76 -32q37 -31 37 -87q0 -199 -280 -199q-46 0 -76 2q128 -72 199 -199t73 -276z" />
    <glyph glyph-name="uni01A2" unicode="&#x1a2;" horiz-adv-x="1884" 
d="M811 1407q-232 0 -396 -200q-163 -199 -163 -504q0 -303 171 -501t417 -198q196 1 290 64v1282q-141 57 -319 57zM1817 -463v-8h-480v8q111 29 143 71q32 43 31 179v1317q0 138 -24 188q-25 49 -90 49h-133v-1278q-192 -67 -267 -79q-69 -11 -233 -13q-294 0 -484 205
q-192 206 -192 513q0 308 200 531q200 222 507 222q84 0 258 -27q170 -26 226 -26q160 0 349 53h14v-1655q0 -136 32 -179q32 -42 143 -71z" />
    <glyph glyph-name="uni01A3" unicode="&#x1a3;" horiz-adv-x="1585" 
d="M961 483v471q-155 76 -325 76q-168 0 -272 -140t-104 -354q0 -213 104 -368q103 -154 259 -154q60 0 110.5 20t86.5 55.5t64 81t44.5 99t24.5 107t8 106.5zM1546 -463v-8h-446v8q106 28 138 79q32 50 32 191v1039q0 55 -20 83t-60 27h-113v-471q0 -153 -47 -265
t-150.5 -178.5t-257.5 -66.5q-212 0 -363 151t-151 402t154 396t371 145q111 0 252 -43t221 -43q155 0 283 86h8v-1262q2 -141 29 -190q29 -52 120 -80z" />
    <glyph glyph-name="uni01A4" unicode="&#x1a4;" horiz-adv-x="1296" 
d="M336 279v901q0 192 -156 192q-72 0 -98 -14v-8q53 -27 53 -99q0 -38 -31 -61t-70 -25q-40 0 -67 30q-27 31 -26 75q0 143 290 143h533q81 0 147 -9.5t128 -34t104.5 -64.5t67.5 -104.5t24 -149.5q0 -110 -40.5 -192t-112 -128t-158.5 -68t-191 -22h-266v-362q0 -61 5 -98
t16.5 -67.5t37.5 -48.5t61.5 -31.5t94.5 -25.5v-8h-520v8q110 29 142 74q32 46 32 197zM467 1368v-684h231q390 0 392 356q0 328 -357 328h-266z" />
    <glyph glyph-name="uni01A5" unicode="&#x1a5;" horiz-adv-x="1249" 
d="M571 14q177 0 305 138q128 139 128 372q0 232 -114 352t-276 120q-161 0 -295 -101v-807q142 -74 252 -74zM489 -463v-8h-446v8q43 13 69 26t43.5 27.5t25 39.5t10 51.5t2.5 74.5v1344q0 193 97 318q97 126 236 126q41 0 86.5 -13.5t82.5 -45.5t36 -74q0 -28 -21 -45.5
t-49 -17.5q-29 0 -57 21t-43 49q-38 69 -100 71q-140 0 -142 -383v-182q51 52 151 98q103 47 220 47q197 0 326 -135t129 -363q0 -134 -49.5 -258.5t-147.5 -198.5q-183 -140 -375 -139q-130 0 -254 23v-242q0 -79 13 -117.5t47 -60t110 -41.5z" />
    <glyph glyph-name="uni01A6" unicode="&#x1a6;" horiz-adv-x="1333" 
d="M373 1122v-643h217q148 0 261 72q64 41 95 113.5t31 156.5q0 301 -352 301h-252zM1440 -311v-8h-111q-170 0 -219 25q-50 25 -133 161l-352 569h-252v-157q-1 -151 31 -197q32 -45 143 -74v-8h-479v8q110 29 142 74q32 46 32 197v856q0 153 -32 197t-142 73v8h479v-8
q-58 -15 -91 -31.5t-52 -45.5t-24.5 -64t-6.5 -97h282q465 0 465 -333q0 -160 -96 -241t-266 -126l360 -549q41 -62 67.5 -95t63.5 -63t81 -45t110 -26z" />
    <glyph glyph-name="uni01A7" unicode="&#x1a7;" horiz-adv-x="1032" 
d="M938 389h8v-340q-187 -80 -368 -80q-182 -2 -317 105q-134 107 -134 291q0 96 48 177t132 133q131 80 334 194q86 47 133 122.5t47 170.5q0 107 -77 174t-186 69q-66 0 -124.5 -27.5t-102.5 -75t-76 -102t-54 -117.5h-8v281q201 78 331 78q111 0 203.5 -40.5t150.5 -124
t58 -196.5q0 -91 -48.5 -170.5t-129.5 -128.5q-96 -58 -166 -98q-95 -54 -166 -97q-81 -49 -129.5 -126.5t-48.5 -167.5q0 -128 94 -207q95 -80 213 -80q119 0 223 92q105 93 160 291z" />
    <glyph glyph-name="uni01A8" unicode="&#x1a8;" horiz-adv-x="870" 
d="M776 330h8v-271q-154 -84 -318 -84t-261 84t-99 213q0 90 55 159.5t143 112.5q82 40 165 78q195 90 197 218q0 83 -59.5 136.5t-143.5 53.5q-53 0 -100 -24t-81 -64t-58.5 -85t-39.5 -95h-10v248q144 59 273 59q130 0 227.5 -76t97.5 -202q0 -90 -54 -161t-141 -114
q-108 -54 -162 -79q-196 -91 -196 -222q-1 -82 61 -141q62 -60 161 -60t191 80q91 79 144 236z" />
    <glyph glyph-name="uni01A9" unicode="&#x1a9;" 
d="M1036 0h-1013v8l636 701l-620 694v10h1018v-289h-8q-97 178 -141 211t-179 33h-475l539 -594v-14l-611 -664h559q124 0 180 40q55 40 162 216h9z" />
    <glyph glyph-name="uni01AA" unicode="&#x1aa;" horiz-adv-x="800" 
d="M324 1355q0 55 -36.5 91.5t-91.5 36.5q-54 0 -92 -38q-38 -37 -36 -90q0 -53 38 -90.5t90 -37.5q53 0 90.5 37.5t37.5 90.5zM317 -61v1267q-50 -43 -129 -43q-77 0 -130.5 56.5t-53.5 134.5q0 85 58 137.5t143 52.5q131 0 185 -90t54 -270v-1360q0 -252 97 -252
q27 0 74 38q12 10 26 21.5t21 17t10 7.5q10 6 38 6q32 0 48 -20.5t16 -53.5q0 -29 -27.5 -48.5t-58 -25.5t-59.5 -6q-71 0 -126.5 25.5t-90 66.5t-56.5 98.5t-30.5 116t-8.5 124.5z" />
    <glyph glyph-name="uni01AB" unicode="&#x1ab;" horiz-adv-x="649" 
d="M520 -176v180q-58 -20 -117 -20q-211 0 -210 268v739h-164v8q109 51 155 97t125 194h8v-246h293v-49h-293v-735q0 -102 45 -149q46 -47 120 -43t169 24l-2 -153q0 -65 -9 -123.5t-31 -116t-56 -99t-89 -67t-126 -25.5q-48 0 -96.5 20t-48.5 60q0 31 16.5 52.5t47.5 21.5
q27 0 38 -6q7 -4 59 -45q50 -39 72 -39q94 0 94 252z" />
    <glyph glyph-name="uni01AC" unicode="&#x1ac;" horiz-adv-x="1306" 
d="M893 8v-8h-479v8q110 29 142 74q32 46 32 197v1089h-338q-69 0 -86 -10v-8q53 -27 53 -99q0 -38 -31 -61t-70 -25q-40 0 -67 30q-27 31 -26 75q0 143 290 143h877l41 -289h-8q-123 162 -167 203t-102 41h-235v-1089q0 -151 32 -197q32 -45 142 -74z" />
    <glyph glyph-name="uni01AD" unicode="&#x1ad;" horiz-adv-x="649" 
d="M403 -16q-211 0 -210 268v739h-164v8q120 33 161 52v49q0 191 98 318q98 126 236 126q41 0 86.5 -13.5t82.5 -45.5t36 -74q0 -28 -21 -45.5t-49 -17.5q-29 0 -57 21t-43 49q-38 69 -100 71q-140 0 -142 -383v-62h293v-49h-293v-735q0 -180 144 -189q3 0 11 -0.5t11 -0.5
q69 0 183 28l8 -10q-151 -104 -271 -104z" />
    <glyph glyph-name="uni01AE" unicode="&#x1ae;" horiz-adv-x="1306" 
d="M588 -61v1429h-234q-55 0 -98 -40q-42 -39 -172 -204h-8l41 289h1073l41 -289h-8q-123 162 -167 203t-102 41h-235v-1544q0 -252 92 -252q27 0 74 38q12 10 26 21.5t21 17t10 7.5q10 6 38 6q32 0 48 -20.5t16 -53.5q0 -29 -27.5 -48.5t-58 -25.5t-59.5 -6
q-88 0 -151.5 37.5t-97 102t-48 136t-14.5 155.5z" />
    <glyph glyph-name="Uhorn" unicode="&#x1af;" horiz-adv-x="1579" 
d="M1284 387v600q0 228 -31 306q-31 79 -131 112v8h275q141 0 141 68q0 23 -42 55t-42 68q0 38 25 62t63 24t76 -32q37 -31 37 -87q0 -175 -219 -197q-55 -35 -74 -117q-20 -83 -21 -270v-606q0 -89 -31 -160.5t-83 -117.5t-123 -76.5t-146.5 -43.5t-158.5 -14
q-82 0 -158 13t-148.5 44t-125.5 77.5t-85.5 117.5t-31.5 160v774q0 119 -32.5 170t-141.5 80v8h479v-8q-109 -29 -141.5 -80t-32.5 -170v-803q0 -143 118 -230q119 -87 325 -87q71 0 135.5 11t124.5 37.5t104 66t70 100.5t26 137z" />
    <glyph glyph-name="uhorn" unicode="&#x1b0;" horiz-adv-x="1159" 
d="M858 -25h-8v142q-200 -140 -371 -142q-283 0 -282 334v463q0 157 -66 187q-29 13 -108 30v8q146 16 286 72h8v-756q2 -252 255 -253q123 0 278 85v627q0 157 -66 187q-28 13 -108 30v8q382 19 431 70q19 19 19 42q0 21 -42 53t-42 69q0 38 25 61t63 25q38 0 76 -32
q37 -31 37 -87q0 -194 -272 -199v-727q0 -158 65 -187q28 -13 109 -30v-8q-148 -17 -287 -72z" />
    <glyph glyph-name="uni01B1" unicode="&#x1b1;" horiz-adv-x="1601" 
d="M1243 1311h-166q54 -84 180 -232q127 -151 193 -267q65 -114 63 -245q2 -131 -69 -248q-124 -211 -406 -306q-124 -42 -238 -42t-237 42q-277 95 -405 306q-70 116 -70 248q0 131 64 246q63 115 192 267t180 231h-166q-89 0 -127 -23q-37 -22 -112 -129h-8l41 254h497v-8
q-65 -85 -107.5 -144.5t-99.5 -145.5t-97.5 -167t-62.5 -155q-36 -115 -36 -224q0 -239 163 -401t392 -162q114 0 216.5 43.5t177 117.5t118 177t43.5 216q0 231 -148 472q-85 139 -121 190q-45 64 -135 183v8h498l41 -254h-8q-77 108 -113 129q-38 23 -127 23z" />
    <glyph glyph-name="uni01B2" unicode="&#x1b2;" horiz-adv-x="1533" 
d="M68 1405v8h479v-8q-111 -29 -143 -71q-32 -43 -31 -179v-782q0 -95 30.5 -161.5t87.5 -103.5t128 -53t163 -16q171 0 280 101t150 274q44 186 45 669q0 121 -60 191t-118 69q-11 -2 -68 -35q-58 -34 -90 -34t-53 21q-20 23 -20 55q0 92 170 92q311 0 311 -369
q0 -505 -64 -707q-60 -191 -189.5 -293.5t-325.5 -103.5q-104 -1 -193.5 22.5t-161.5 72t-113.5 131t-41.5 190.5l2 770q0 136 -32 179q-32 42 -142 71z" />
    <glyph glyph-name="uni01B3" unicode="&#x1b3;" horiz-adv-x="1292" 
d="M893 8v-8h-479v8q105 27 139 84q35 58 35 187v339l-266 467q-126 217 -161 263q-41 54 -78 53q-39 0 -58 -10v-9q27 -16 47 -45t20 -57q0 -36 -30.5 -59t-67.5 -23q-44 0 -68 32.5t-24 77.5q0 50 55 92t145 42t150 -62q61 -62 197 -290l245 -416l189 338q93 167 117 238
t1 103t-106 52v8h385v-8q-75 -11 -140 -86q-65 -76 -202 -313l-219 -383v-344q0 -128 35 -187q34 -58 139 -84z" />
    <glyph glyph-name="uni01B4" unicode="&#x1b4;" horiz-adv-x="1226" 
d="M8 1036v8h428v-8q-56 -10 -84 -24t-45 -48t18 -153q33 -114 68 -209l187 -557l192 584q85 258 160 350q73 90 188 90q50 0 89.5 -32.5t39.5 -81.5q0 -45 -34 -79t-79 -34q-50 0 -82.5 41.5t-37.5 93.5q-100 -94 -193 -361l-266 -761q-20 -57 -45.5 -109.5t-64 -109.5
t-90.5 -92t-109 -36q-49 0 -88 28.5t-39 76.5q0 44 28 71.5t72 27.5q47 0 72 -40q25 -38 14 -94q119 32 225 330l33 92h-92l-223 643q-78 226 -120 296q-43 72 -122 97z" />
    <glyph glyph-name="uni01B5" unicode="&#x1b5;" horiz-adv-x="1159" 
d="M1067 0h-1016v8l438 692h-395v56h430l389 612h-538q-79 0 -123 -38q-40 -34 -164 -206h-8l41 289h966v-8l-407 -649h424v-56h-459l-412 -655h566q88 0 134 46q47 47 165 231h8z" />
    <glyph glyph-name="uni01B6" unicode="&#x1b6;" horiz-adv-x="954" 
d="M883 0h-832v8l330 494h-287v55h324l297 442h-375q-59 0 -103 -44q-43 -43 -149 -193h-8l41 282h762v-8l-318 -479h334v-55h-371l-303 -457h420q65 0 112 42q44 39 158 198h9z" />
    <glyph glyph-name="uni01B7" unicode="&#x1b7;" horiz-adv-x="1032" 
d="M707 1288h-617v125h762v-8l-363 -528q191 -23 327 -129t136 -306q0 -199 -146 -336q-144 -135 -364 -137q-156 0 -262 69t-106 148q0 50 34 83.5t84 33.5q48 0 80 -30q32 -29 31 -75q0 -45 -29 -79t-73 -45q79 -66 225 -66q145 0 264 104q117 103 119 286q0 96 -34 168.5
t-94 115.5t-137.5 64t-170.5 20h-13l-4 6z" />
    <glyph glyph-name="uni01B8" unicode="&#x1b8;" horiz-adv-x="1032" 
d="M258 398q0 -181 119 -285q119 -105 265 -105t224 66q-44 11 -73 45t-29 79q0 48 32 76.5t80 28.5q50 0 83.5 -33.5t33.5 -83.5q0 -81 -106 -148q-107 -68 -262 -69q-218 0 -364 136q-146 137 -146 336q0 201 136 307q137 106 327 129l-363 528v8h762v-125h-617l351 -516
l-4 -6h-13q-92 1 -169.5 -20t-138 -64t-94.5 -115.5t-34 -168.5z" />
    <glyph glyph-name="uni01B9" unicode="&#x1b9;" horiz-adv-x="1032" 
d="M378 306q-120 -94 -120 -276t119 -286t265 -104q145 0 224 65q-44 11 -73 45t-29 79q0 47 32 76t80 29q50 0 83.5 -33t33.5 -83q0 -80 -106 -149q-107 -69 -262 -68q-218 0 -364 136q-146 135 -146 335t136 306t327 130l-363 528v8h762v-124h-617l351 -517l-4 -6
q-208 4 -329 -91z" />
    <glyph glyph-name="uni01BA" unicode="&#x1ba;" horiz-adv-x="1005" 
d="M53 -86q2 155 107 234q106 80 315 108q39 5 78.5 14t91 26.5t83.5 47t32 66.5q0 82 -106 112q-105 29 -339 31v41l402 350h-639v100h846v-22l-443 -408q393 -34 393 -211q0 -86 -82 -128t-309 -66q-51 -5 -103.5 -22.5t-101 -46t-79.5 -74t-31 -99.5q0 -301 367 -301
q59 0 116.5 27.5t103 72.5t80.5 97t58 106h14q-34 -177 -158 -294t-299 -117q-106 0 -195.5 42t-145.5 124.5t-56 189.5z" />
    <glyph glyph-name="uni01BB" unicode="&#x1bb;" 
d="M1001 127v-127h-860v12l428 482q107 120 166 206h-641v56h678q92 152 92 302t-102 232q-103 80 -224 80q-122 0 -202 -47q-81 -47 -115 -111q7 1 37 5q51 0 88 -30.5t37 -80.5q0 -48 -32 -79.5t-80 -31.5t-83 35t-34 86q0 101 119 214q121 112 311 112q86 0 161 -21
t135.5 -62.5t96 -111.5t35.5 -159q0 -165 -131 -332h217v-56h-262q-4 -4 -162 -174l-373 -399h700z" />
    <glyph glyph-name="uni01BC" unicode="&#x1bc;" 
d="M537 731h-306l-6 2v422q0 138 -31 179q-32 42 -143 71v8h871v-125h-639v-463h329q171 0 278.5 -104.5t107.5 -274.5q0 -171 -82 -278q-148 -199 -431 -199q-144 0 -247 73q-104 74 -105 159q0 48 34.5 81.5t82.5 33.5t79 -30q32 -31 31 -77q0 -87 -92 -125
q71 -80 226 -80t264 101q106 100 106 287t-94 263t-233 76z" />
    <glyph glyph-name="uni01BD" unicode="&#x1bd;" horiz-adv-x="921" 
d="M401 547h-270v239q0 137 -32 180q-31 41 -142 70v8h793v-124h-553v-306h266q73 0 136.5 -18t113.5 -53t79 -93.5t29 -134.5q0 -88 -39.5 -160.5t-115.5 -112.5q-132 -70 -285 -72q-154 0 -248 52t-94 136q0 48 32 79t80 31q46 0 82.5 -30t36.5 -75q0 -43 -27.5 -77.5
t-68.5 -48.5q61 -31 184 -31q122 0 220 77q96 76 96 208q0 127 -72 190.5t-201 65.5z" />
    <glyph glyph-name="uni01BE" unicode="&#x1be;" horiz-adv-x="944" 
d="M180 59v271h8q53 -157 144 -236q92 -80 191 -80t161 60q62 61 61 137q0 135 -195 226q-54 25 -162 79q-87 43 -141 114t-54 161v200h-164v8q109 51 155 97t125 194h8v-246h293v-49h-293v-155q0 -61 40 -110t101 -80q36 -18 130 -66q72 -37 130 -73q66 -40 103 -102
t37 -137q0 -129 -98 -213t-262 -84t-318 84z" />
    <glyph glyph-name="uni01BF" unicode="&#x1bf;" horiz-adv-x="1144" 
d="M193 -205v932q0 158 -26 196q-25 37 -149 66v10q129 7 299 70v-238q67 97 196 167q131 71 224 71q179 0 265 -104.5t88 -288.5q0 -488 -773 -721v-315l-292 -121v16l26 12q82 37 112 94.5t30 153.5zM948 664q0 311 -237 311q-192 -2 -394 -187v-788q227 64 411 210
q105 84 162.5 202.5t57.5 251.5z" />
    <glyph glyph-name="clickdental" unicode="&#x1c0;" horiz-adv-x="409" 
d="M248 1544v-1780h-78v1780h78z" />
    <glyph glyph-name="clicklateral" unicode="&#x1c1;" horiz-adv-x="819" 
d="M657 1544v-1780h-77v1780h77zM248 1544v-1780h-78v1780h78z" />
    <glyph glyph-name="uni01C2" unicode="&#x1c2;" horiz-adv-x="571" 
d="M340 467v-467h-109v467h-211v111h211v196h-211v109h211v503h109v-503h213v-109h-213v-196h213v-111h-213z" />
    <glyph glyph-name="uni01C3" unicode="&#x1c3;" horiz-adv-x="520" 
d="M375 84q0 -47 -34 -81t-81 -34t-81 34t-34 81t34 81t81 34t81 -34t34 -81zM178 1364q0 35 23.5 56.5t58.5 21.5t57.5 -21.5t22.5 -56.5q0 -100 -74 -991h-14q-74 891 -74 991z" />
    <glyph glyph-name="uni01C4" unicode="&#x1c4;" horiz-adv-x="2699" 
d="M2361 1782l-188 -250h-100l-185 250h17l219 -142l221 142h16zM2607 0h-1016v8l863 1360h-539q-79 0 -123 -38q-40 -34 -164 -206h-8l41 289h967v-8l-854 -1360h565q88 0 134 46q47 47 165 231h8zM381 1368v-1323h293q302 0 469.5 182t167.5 487q0 304 -171 479t-442 175
h-317zM668 0h-592v8q110 29 142 74q32 46 32 197v856q0 153 -32 197t-142 73v8h612q328 0 549 -169q117 -88 174 -226.5t57 -296.5q0 -173 -62 -311.5t-170.5 -227t-253.5 -135.5t-314 -47z" />
    <glyph glyph-name="uni01C5" unicode="&#x1c5;" horiz-adv-x="2494" 
d="M2271 1413l-188 -250h-101l-184 250h17l219 -141l221 141h16zM2423 0h-832v8l664 991h-375q-59 0 -103 -44q-43 -43 -149 -193h-8l41 282h762v-8l-658 -991h420q65 0 112 42t159 198h8zM381 1368v-1323h293q302 0 469.5 182t167.5 487q0 304 -171 479t-442 175h-317z
M668 0h-592v8q110 29 142 74q32 46 32 197v856q0 153 -32 197t-142 73v8h612q328 0 549 -169q117 -88 174 -226.5t57 -296.5q0 -173 -62 -311.5t-170.5 -227t-253.5 -135.5t-314 -47z" />
    <glyph glyph-name="uni01C6" unicode="&#x1c6;" horiz-adv-x="2183" 
d="M1946 1413l-189 -250h-100l-184 250h16l219 -141l221 141h17zM2111 0h-831v8l664 991h-375q-59 0 -103 -44q-43 -43 -149 -193h-8l41 282h761v-8l-657 -991h420q66 0 112 42q44 39 158 198h8zM942 -25h-8v172q-157 -172 -362 -172q-203 1 -334 141t-129 365
q0 276 166 432q167 156 413 156q121 0 246 -31v193q0 131 -32 166t-142 47v8q174 26 293 92h8v-1272q0 -158 65 -187q28 -13 109 -30v-8q-158 -17 -293 -72zM624 1022q-166 0 -270 -140t-104 -352q0 -133 43.5 -232t136.5 -157.5t227 -58.5q154 0 277 90v758
q-146 92 -310 92z" />
    <glyph glyph-name="uni01C7" unicode="&#x1c7;" horiz-adv-x="1701" 
d="M1335 -23v1158q-2 154 -31 197q-31 45 -143 73v8h479v-8q-113 -28 -144 -73q-30 -44 -30 -197v-1098q0 -142 -40 -237.5t-146 -165.5q-38 -25 -117 -62l-4 6q176 122 176 399zM1008 0h-940v8q109 29 141.5 80t32.5 170v897q0 119 -32.5 170t-141.5 80v8h479v-8
q-109 -29 -141.5 -80t-32.5 -170v-1110h385q73 0 123 53q49 51 159 224h9z" />
    <glyph glyph-name="uni01C8" unicode="&#x1c8;" horiz-adv-x="1630" 
d="M1321 -86v858q0 158 -66 187q-29 13 -108 30v8q158 17 293 72h8v-1075q0 -376 -279 -486l-6 11q58 36 95 107.5t50 142t13 145.5zM1477 1343q0 -40 -29 -68t-70 -30q-40 0 -69 29.5t-29 69.5q0 39 29.5 68.5t68.5 29.5q40 0 69.5 -29.5t29.5 -69.5zM1008 0h-940v8
q109 29 141.5 80t32.5 170v897q0 119 -32.5 170t-141.5 80v8h479v-8q-109 -29 -141.5 -80t-32.5 -170v-1110h385q73 0 123 53q49 51 159 224h9z" />
    <glyph glyph-name="uni01C9" unicode="&#x1c9;" horiz-adv-x="1073" 
d="M764 -86v858q0 157 -66 187q-28 13 -108 30v8q158 17 293 72h8v-1075q0 -376 -279 -486l-6 11q58 36 95 107.5t50 142t13 145.5zM920 1343q0 -40 -29 -68t-70 -30q-38 0 -69 29q-30 30 -29 70q0 40 29.5 69t69.5 29t69 -29.5t29 -69.5zM498 8v-8h-426v8q95 28 123 64
q27 35 26 153v1006q0 131 -32 166t-142 47v8q174 26 293 92h8v-1319q0 -47 2.5 -74t10.5 -51t25.5 -38.5t43 -27.5t68.5 -26z" />
    <glyph glyph-name="uni01CA" unicode="&#x1ca;" horiz-adv-x="2220" 
d="M1853 -23v1158q-2 154 -31 197q-31 45 -143 73v8h480v-8q-112 -28 -144 -73q-32 -44 -30 -197v-1098q0 -140 -41 -237t-146 -166q-38 -25 -117 -62l-4 6q176 122 176 399zM1417 987v-1007h-59l-1065 1280v-834q0 -164 14 -246q13 -76 43.5 -111.5t104.5 -60.5v-8h-381v8
q72 23 102.5 58.5t44.5 111.5q13 78 15 248v780q0 60 -52 118q-53 59 -151 81v8h307l1020 -1218v792q0 164 -14 246q-13 76 -44 112.5t-104 59.5v8h381v-8q-72 -22 -103 -58t-44 -111q-14 -80 -15 -249z" />
    <glyph glyph-name="uni01CB" unicode="&#x1cb;" horiz-adv-x="2148" 
d="M1839 -86v858q0 158 -65 187q-28 13 -109 30v8q158 17 293 72h8v-1075q1 -376 -278 -486l-7 11q58 36 95 107.5t50 142t13 145.5zM1995 1343q0 -41 -28.5 -68.5t-70.5 -29.5q-42 0 -70 28.5t-28 70.5q0 40 29 69t69 29q41 0 70 -29t29 -70zM1417 987v-1007h-59
l-1065 1280v-834q0 -164 14 -246q13 -76 43.5 -111.5t104.5 -60.5v-8h-381v8q72 23 102.5 58.5t44.5 111.5q13 78 15 248v780q0 60 -52 118q-53 59 -151 81v8h307l1020 -1218v792q0 164 -14 246q-13 76 -44 112.5t-104 59.5v8h381v-8q-72 -22 -103 -58t-44 -111
q-14 -80 -15 -249z" />
    <glyph glyph-name="uni01CC" unicode="&#x1cc;" horiz-adv-x="1740" 
d="M1432 -86v858q0 157 -66 187q-28 13 -109 30v8q158 17 293 72h9v-1075q0 -376 -279 -486l-6 11q58 36 95 107.5t50 142t13 145.5zM1587 1343q1 -40 -29 -69q-29 -27 -69 -29q-40 0 -69.5 29.5t-29.5 69.5t29.5 69t69.5 29q38 0 69 -29t29 -70zM1165 8v-8h-420v8
q95 28 123 67q27 37 27 163v477q0 130 -66.5 198.5t-196.5 69.5q-124 0 -290 -96v-660q0 -153 54 -182q30 -16 96 -37v-8h-420v8q66 21 96 37q55 29 53 182v545q0 158 -65 187q-28 13 -109 30v8q148 17 287 72h8v-158q206 158 377 158q131 0 214 -84q83 -85 83 -266v-481
q0 -125 26 -163q26 -39 123 -67z" />
    <glyph glyph-name="uni01CD" unicode="&#x1cd;" horiz-adv-x="1384" 
d="M928 1782l-189 -250h-100l-184 250h16l219 -142l221 142h17zM403 571h500l-246 686zM1391 8v-8h-467v8q63 14 94 38.5t30 59.5q-1 69 -126 416h-537q-67 -180 -93 -261q-26 -83 -26 -142q0 -61 30 -79q31 -19 103 -32v-8h-407v8q41 11 71 29t54.5 49t38 54t38.5 72
q50 101 142 339l342 893h55l326 -891q95 -260 141 -359q46 -100 83 -136q35 -33 108 -50z" />
    <glyph glyph-name="uni01CE" unicode="&#x1ce;" horiz-adv-x="1015" 
d="M743 1413l-188 -250h-100l-185 250h17l219 -141l221 141h16zM555 528q-50 0 -96 -7.5t-90.5 -25.5t-77 -45.5t-52.5 -70.5t-20 -97q-1 -114 63 -171t180 -57t245 75v387q-68 12 -152 12zM817 -16q-101 0 -108 129q-71 -63 -163 -100.5t-184 -37.5q-103 0 -188 67
q-86 68 -86 200q0 336 619 329v136q-2 160 -61.5 228.5t-216.5 68.5t-249 -89q117 -12 117 -94q0 -37 -24.5 -59.5t-62.5 -24.5q-33 0 -62 23t-27 71q0 103 123 170q124 68 280 68q303 0 303 -285v-544q0 -120 55 -154q54 -33 146 -41v-8q-126 -53 -211 -53z" />
    <glyph glyph-name="uni01CF" unicode="&#x1cf;" horiz-adv-x="614" 
d="M545 1782l-189 -250h-100l-184 250h16l219 -142l221 142h17zM547 8v-8h-479v8q110 29 142 71q32 43 32 179v897q0 136 -32 179q-32 42 -142 71v8h479v-8q-111 -29 -143 -71q-32 -43 -31 -179v-897q-1 -136 31 -179q32 -42 143 -71z" />
    <glyph glyph-name="uni01D0" unicode="&#x1d0;" horiz-adv-x="550" 
d="M512 1413l-188 -250h-101l-184 250h16l219 -141l222 141h16zM498 8v-8h-420v8q95 28 123 64q27 35 26 155v545q0 158 -65 187q-28 13 -109 30v8q148 17 287 72h8v-842q0 -121 27 -155q26 -34 123 -64z" />
    <glyph glyph-name="uni01D1" unicode="&#x1d1;" horiz-adv-x="1617" 
d="M1044 1782l-188 -250h-100l-185 250h17l219 -142l221 142h16zM412 207q161 -203 397 -203t397 203q160 202 160 500q0 297 -160 499t-398 201q-239 0 -396 -202q-160 -202 -160 -499t160 -499zM1313 178q-218 -209 -504 -209t-504 209q-217 208 -217 522t222 528
q221 214 498 214t500 -214q222 -214 222 -528t-217 -522z" />
    <glyph glyph-name="uni01D2" unicode="&#x1d2;" horiz-adv-x="1267" 
d="M870 1413l-188 -250h-100l-185 250h17l219 -141l221 141h16zM633 14q77 0 141.5 32t106.5 84t71.5 120.5t42.5 138.5t13 141q0 208 -104 354t-271 146t-271 -146t-104 -354q0 -71 13 -141t42.5 -138.5t71.5 -120.5t106.5 -84t141.5 -32zM1006 136q-155 -161 -372 -161
t-372 161q-154 160 -153 390q0 228 155 386q156 157 370 157t370 -157q156 -158 156 -386q0 -230 -154 -390z" />
    <glyph glyph-name="uni01D3" unicode="&#x1d3;" horiz-adv-x="1579" 
d="M1026 1782l-188 -250h-101l-184 250h16l219 -142l222 142h16zM1284 387v600q0 228 -31 306q-31 79 -131 112v8h381v-8q-72 -23 -103.5 -62t-44.5 -116q-12 -73 -14 -240v-606q0 -89 -31 -160.5t-83 -117.5t-123 -76.5t-146.5 -43.5t-158.5 -14q-82 0 -158 13t-148.5 44
t-125.5 77.5t-85.5 117.5t-31.5 160v774q0 119 -32.5 170t-141.5 80v8h479v-8q-109 -29 -141.5 -80t-32.5 -170v-803q0 -143 118 -230q119 -87 325 -87q71 0 135.5 11t124.5 37.5t104 66t70 100.5t26 137z" />
    <glyph glyph-name="uni01D4" unicode="&#x1d4;" horiz-adv-x="1159" 
d="M815 1413l-188 -250h-101l-184 250h16l220 -141l221 141h16zM858 -25h-8v142q-200 -140 -371 -142q-283 0 -282 334v463q0 157 -66 187q-29 13 -108 30v8q146 16 286 72h8v-756q2 -252 255 -253q123 0 278 85v627q0 157 -66 187q-28 13 -108 30v8q148 17 287 72h8v-797
q0 -158 65 -187q28 -13 109 -30v-8q-148 -17 -287 -72z" />
    <glyph glyph-name="uni01D5" unicode="&#x1d5;" horiz-adv-x="1579" 
d="M1044 1853v-77h-512v77h512zM737 1618q-2 -40 -29 -68t-67 -28t-68 28q-29 29 -28 68q0 40 27.5 68t68.5 28t68.5 -28t27.5 -68zM1032 1618q0 -40 -28 -68t-68 -28t-68 28q-29 29 -28 68q0 40 28 68t68 28t68 -28t28 -68zM1284 387v600q0 228 -31 306q-31 79 -131 112v8
h381v-8q-72 -23 -103.5 -62t-44.5 -116q-12 -73 -14 -240v-606q0 -89 -31 -160.5t-83 -117.5t-123 -76.5t-146.5 -43.5t-158.5 -14q-82 0 -158 13t-148.5 44t-125.5 77.5t-85.5 117.5t-31.5 160v774q0 119 -32.5 170t-141.5 80v8h479v-8q-109 -29 -141.5 -80t-32.5 -170
v-803q0 -143 118 -230q119 -87 325 -87q71 0 135.5 11t124.5 37.5t104 66t70 100.5t26 137z" />
    <glyph glyph-name="uni01D6" unicode="&#x1d6;" horiz-adv-x="1159" 
d="M836 1526v-78h-512v78h512zM528 1270q0 -40 -28 -68t-68 -28t-68 28t-28 68q0 39 28.5 67.5t67.5 28.5q40 0 68 -28t28 -68zM823 1270q-2 -40 -29 -68t-67 -28t-68 28q-29 29 -28 68q2 40 29 68t67 28t67 -28t29 -68zM858 -25h-8v142q-200 -140 -371 -142
q-283 0 -282 334v463q0 157 -66 187q-29 13 -108 30v8q146 16 286 72h8v-756q2 -252 255 -253q123 0 278 85v627q0 157 -66 187q-28 13 -108 30v8q148 17 287 72h8v-797q0 -158 65 -187q28 -13 109 -30v-8q-148 -17 -287 -72z" />
    <glyph glyph-name="uni01D7" unicode="&#x1d7;" horiz-adv-x="1579" 
d="M631 1769h-10q119 90 165 250h172q-115 -159 -327 -250zM737 1618q-2 -40 -29 -68t-67 -28t-68 28q-29 29 -28 68q0 40 27.5 68t68.5 28t68.5 -28t27.5 -68zM1032 1618q0 -40 -28 -68t-68 -28t-68 28q-29 29 -28 68q0 40 28 68t68 28t68 -28t28 -68zM1284 387v600
q0 228 -31 306q-31 79 -131 112v8h381v-8q-72 -23 -103.5 -62t-44.5 -116q-12 -73 -14 -240v-606q0 -89 -31 -160.5t-83 -117.5t-123 -76.5t-146.5 -43.5t-158.5 -14q-82 0 -158 13t-148.5 44t-125.5 77.5t-85.5 117.5t-31.5 160v774q0 119 -32.5 170t-141.5 80v8h479v-8
q-109 -29 -141.5 -80t-32.5 -170v-803q0 -143 118 -230q119 -87 325 -87q71 0 135.5 11t124.5 37.5t104 66t70 100.5t26 137z" />
    <glyph glyph-name="uni01D8" unicode="&#x1d8;" horiz-adv-x="1159" 
d="M420 1389h-10q118 90 165 249h173q-116 -158 -328 -249zM528 1249q0 -40 -28 -67t-68 -29q-40 0 -68 28.5t-28 68.5q0 38 29 67t67 29q39 0 67.5 -29t28.5 -68zM823 1249q-1 -40 -28.5 -67.5t-67.5 -28.5q-39 0 -68 29t-29 68t29 67.5t68 28.5t66.5 -28.5t29.5 -68.5z
M858 -25h-8v142q-200 -140 -371 -142q-283 0 -282 334v463q0 157 -66 187q-29 13 -108 30v8q146 16 286 72h8v-756q2 -252 255 -253q123 0 278 85v627q0 157 -66 187q-28 13 -108 30v8q148 17 287 72h8v-797q0 -158 65 -187q28 -13 109 -30v-8q-148 -17 -287 -72z" />
    <glyph glyph-name="uni01D9" unicode="&#x1d9;" horiz-adv-x="1579" 
d="M1026 1982l-188 -249h-101l-184 249h16l219 -141l222 141h16zM737 1618q-2 -40 -29 -68t-67 -28t-68 28q-29 29 -28 68q0 40 27.5 68t68.5 28t68.5 -28t27.5 -68zM1032 1618q0 -40 -28 -68t-68 -28t-68 28q-29 29 -28 68q0 40 28 68t68 28t68 -28t28 -68zM1284 387v600
q0 228 -31 306q-31 79 -131 112v8h381v-8q-72 -23 -103.5 -62t-44.5 -116q-12 -73 -14 -240v-606q0 -89 -31 -160.5t-83 -117.5t-123 -76.5t-146.5 -43.5t-158.5 -14q-82 0 -158 13t-148.5 44t-125.5 77.5t-85.5 117.5t-31.5 160v774q0 119 -32.5 170t-141.5 80v8h479v-8
q-109 -29 -141.5 -80t-32.5 -170v-803q0 -143 118 -230q119 -87 325 -87q71 0 135.5 11t124.5 37.5t104 66t70 100.5t26 137z" />
    <glyph glyph-name="uni01DA" unicode="&#x1da;" horiz-adv-x="1159" 
d="M817 1610l-188 -250h-101l-184 250h16l220 -142l221 142h16zM528 1249q0 -40 -28 -67t-68 -29q-40 0 -68 28.5t-28 68.5q0 38 29 67t67 29q39 0 67.5 -29t28.5 -68zM823 1249q-1 -40 -28.5 -67.5t-67.5 -28.5q-39 0 -68 29t-29 68t29 67.5t68 28.5t66.5 -28.5t29.5 -68.5
zM858 -25h-8v142q-200 -140 -371 -142q-283 0 -282 334v463q0 157 -66 187q-29 13 -108 30v8q146 16 286 72h8v-756q2 -252 255 -253q123 0 278 85v627q0 157 -66 187q-28 13 -108 30v8q148 17 287 72h8v-797q0 -158 65 -187q28 -13 109 -30v-8q-148 -17 -287 -72z" />
    <glyph glyph-name="uni01DB" unicode="&#x1db;" horiz-adv-x="1579" 
d="M958 1749h-10q-212 91 -327 250h172q46 -160 165 -250zM737 1618q-2 -40 -29 -68t-67 -28t-68 28q-29 29 -28 68q0 40 27.5 68t68.5 28t68.5 -28t27.5 -68zM1032 1618q0 -40 -28 -68t-68 -28t-68 28q-29 29 -28 68q0 40 28 68t68 28t68 -28t28 -68zM1284 387v600
q0 228 -31 306q-31 79 -131 112v8h381v-8q-72 -23 -103.5 -62t-44.5 -116q-12 -73 -14 -240v-606q0 -89 -31 -160.5t-83 -117.5t-123 -76.5t-146.5 -43.5t-158.5 -14q-82 0 -158 13t-148.5 44t-125.5 77.5t-85.5 117.5t-31.5 160v774q0 119 -32.5 170t-141.5 80v8h479v-8
q-109 -29 -141.5 -80t-32.5 -170v-803q0 -143 118 -230q119 -87 325 -87q71 0 135.5 11t124.5 37.5t104 66t70 100.5t26 137z" />
    <glyph glyph-name="uni01DC" unicode="&#x1dc;" horiz-adv-x="1159" 
d="M748 1386h-11q-212 91 -327 250h172q46 -159 166 -250zM528 1249q0 -40 -28 -67t-68 -29q-40 0 -68 28.5t-28 68.5q0 38 29 67t67 29q39 0 67.5 -29t28.5 -68zM823 1249q-1 -40 -28.5 -67.5t-67.5 -28.5q-39 0 -68 29t-29 68t29 67.5t68 28.5t66.5 -28.5t29.5 -68.5z
M858 -25h-8v142q-200 -140 -371 -142q-283 0 -282 334v463q0 157 -66 187q-29 13 -108 30v8q146 16 286 72h8v-756q2 -252 255 -253q123 0 278 85v627q0 157 -66 187q-28 13 -108 30v8q148 17 287 72h8v-797q0 -158 65 -187q28 -13 109 -30v-8q-148 -17 -287 -72z" />
    <glyph glyph-name="uni01DD" unicode="&#x1dd;" horiz-adv-x="1028" 
d="M797 414l-576 -19q0 -186 72 -282q73 -97 187 -97t206 111q91 111 111 287zM86 451h715v47q1 92 -21.5 174t-67.5 147.5t-120 103.5t-171 38q-176 0 -327 -125l-12 8q47 80 156 152t260 73q191 0 312 -139q122 -140 122 -388q0 -249 -144 -408t-337 -159q-152 2 -259 103
q-108 102 -108 317q0 22 2 56z" />
    <glyph glyph-name="uni01DE" unicode="&#x1de;" horiz-adv-x="1384" 
d="M948 1853v-77h-512v77h512zM641 1618q0 -40 -28.5 -68t-68.5 -28q-39 0 -67 28q-29 29 -28 68q0 40 27.5 68t68.5 28q40 0 67 -28t29 -68zM936 1618q0 -39 -28.5 -67.5t-67.5 -28.5q-40 0 -68.5 28t-28.5 68t28.5 68t68.5 28t68 -28t28 -68zM403 571h500l-246 686z
M1391 8v-8h-467v8q63 14 94 38.5t30 59.5q-1 69 -126 416h-537q-67 -180 -93 -261q-26 -83 -26 -142q0 -61 30 -79q31 -19 103 -32v-8h-407v8q41 11 71 29t54.5 49t38 54t38.5 72q50 101 142 339l342 893h55l326 -891q95 -260 141 -359q46 -100 83 -136q35 -33 108 -50z" />
    <glyph glyph-name="uni01DF" unicode="&#x1df;" horiz-adv-x="1015" 
d="M764 1485v-78h-512v78h512zM457 1249q0 -39 -28.5 -66.5t-68.5 -29.5q-40 0 -68 28.5t-28 68.5q0 38 29 67t67 29q39 0 68 -29t29 -68zM752 1249q0 -39 -28.5 -66.5t-68.5 -29.5q-39 0 -66.5 28.5t-29.5 68.5q0 38 29.5 67t67.5 29q39 0 67.5 -29t28.5 -68zM555 528
q-50 0 -96 -7.5t-90.5 -25.5t-77 -45.5t-52.5 -70.5t-20 -97q-1 -114 63 -171t180 -57t245 75v387q-68 12 -152 12zM817 -16q-101 0 -108 129q-71 -63 -163 -100.5t-184 -37.5q-103 0 -188 67q-86 68 -86 200q0 336 619 329v136q-2 160 -61.5 228.5t-216.5 68.5t-249 -89
q117 -12 117 -94q0 -37 -24.5 -59.5t-62.5 -24.5q-33 0 -62 23t-27 71q0 103 123 170q124 68 280 68q303 0 303 -285v-544q0 -120 55 -154q54 -33 146 -41v-8q-126 -53 -211 -53z" />
    <glyph glyph-name="uni01E0" unicode="&#x1e0;" horiz-adv-x="1384" 
d="M948 1833v-78h-512v78h512zM791 1602q0 -41 -29 -70t-70 -29q-42 0 -70 28.5t-28 70.5q0 41 28.5 69.5t69.5 28.5q42 0 70.5 -28t28.5 -70zM403 571h500l-246 686zM1391 8v-8h-467v8q63 14 94 38.5t30 59.5q-1 69 -126 416h-537q-67 -180 -93 -261q-26 -83 -26 -142
q0 -61 30 -79q31 -19 103 -32v-8h-407v8q41 11 71 29t54.5 49t38 54t38.5 72q50 101 142 339l342 893h55l326 -891q95 -260 141 -359q46 -100 83 -136q35 -33 108 -50z" />
    <glyph glyph-name="uni01E1" unicode="&#x1e1;" horiz-adv-x="1015" 
d="M764 1505v-78h-512v78h512zM606 1253q0 -42 -28 -69t-70 -29q-42 0 -70 28.5t-28 70.5q0 41 28.5 69.5t69.5 28.5q42 0 70 -28.5t28 -70.5zM555 528q-50 0 -96 -7.5t-90.5 -25.5t-77 -45.5t-52.5 -70.5t-20 -97q-1 -114 63 -171t180 -57t245 75v387q-68 12 -152 12z
M817 -16q-101 0 -108 129q-71 -63 -163 -100.5t-184 -37.5q-103 0 -188 67q-86 68 -86 200q0 336 619 329v136q-2 160 -61.5 228.5t-216.5 68.5t-249 -89q117 -12 117 -94q0 -37 -24.5 -59.5t-62.5 -24.5q-33 0 -62 23t-27 71q0 103 123 170q124 68 280 68q303 0 303 -285
v-544q0 -120 55 -154q54 -33 146 -41v-8q-126 -53 -211 -53z" />
    <glyph glyph-name="uni01E2" unicode="&#x1e2;" horiz-adv-x="1878" 
d="M1323 1614v-78h-512v78h512zM520 571h463v797h-12zM1769 0h-960v8q111 29 143 74q32 46 31 197v243h-491q-174 -308 -198 -389q-24 -80 46 -108q18 -9 59 -17v-8h-407v8q99 28 190 133q89 103 264 410l334 584q85 148 39 197q-21 21 -53 36.5t-55 21.5t-64 15v8h1063
v-289h-8q-41 79 -59 108q-20 34 -31 53q-16 28 -26 35q-8 6 -25 21q-31 27 -117 27h-330v-618h307q69 0 104 26q32 24 85 109h8v-316h-8q-51 82 -85 109q-35 27 -104 27h-307v-660h387q56 0 82 11t71 48q16 13 42 56q55 81 106 162h8z" />
    <glyph glyph-name="uni01E3" unicode="&#x1e3;" horiz-adv-x="1599" 
d="M1325 932q-73 96 -187 96t-206 -110q-91 -109 -111 -287l576 18q0 187 -72 283zM707 487v29q-79 12 -152 12q-50 0 -96 -7.5t-90.5 -25.5t-77 -45.5t-52.5 -70.5t-20 -97q-1 -114 63 -171t154 -57q87 0 176.5 39.5t153.5 103.5q-59 123 -59 290zM1120 -25
q-224 0 -336 189q-258 -188 -411 -189q-114 0 -199 67q-86 68 -86 200q0 336 619 329v136q-2 160 -61.5 228.5t-216.5 68.5t-249 -89q117 -12 117 -94q0 -37 -24.5 -59.5t-62.5 -24.5q-33 0 -62 23t-27 71q0 103 123 170q124 68 280 68q246 0 281 -207q62 95 156.5 150.5
t205.5 56.5q151 0 259 -102t108 -318q0 -23 -2 -55h-715v-47q-1 -92 21.5 -174t67.5 -147.5t120 -103.5t171 -38q176 0 327 125l12 -8q-46 -79 -156 -153q-109 -73 -260 -73zM1055 1321v-78h-512v78h512z" />
    <glyph glyph-name="uni01E4" unicode="&#x1e4;" horiz-adv-x="1472" 
d="M1452 387v-55h-149v-279q-239 -84 -504 -84q-158 0 -291 55t-224 152t-141.5 232t-50.5 292q0 219 109 392q105 167 268.5 258.5t359.5 91.5q95 0 225.5 -21.5t207.5 -54.5v-274h-9q-79 154 -182.5 234.5t-261.5 80.5q-232 0 -395 -196q-164 -196 -164 -503
q0 -308 167 -505t412 -197q76 0 183 17t157 45v264h-317v55h317v41q0 49 -3 82t-13.5 65.5t-29.5 53.5t-50.5 39t-77.5 30v9h441v-9q-77 -28 -106 -80q-28 -51 -27 -190v-41h149z" />
    <glyph glyph-name="uni01E5" unicode="&#x1e5;" horiz-adv-x="1073" 
d="M336 946q-72 -90 -72 -237q0 -148 70 -243q71 -96 182 -95q110 0 182 90t72 237q0 59 -15 117t-44 108.5t-79.5 81.5t-113.5 31q-110 0 -182 -90zM154 -223q0 -50 22 -90t56.5 -65t81 -41t91 -22.5t89.5 -6.5q62 0 124 10t126 32t114 63.5t72 98.5h-297v56h311l2 28
q0 40 -14.5 70t-36.5 47.5t-55 29t-63.5 15.5t-69.5 6l-332 15h-6q-215 -102 -215 -246zM33 -260q0 181 327 283q-110 8 -160 62t-18 135q33 80 156 157q-100 46 -154.5 131t-54.5 194q0 162 110 264q109 101 259 103q148 0 252 -65l325 65h8l-16 -117l-281 27
q119 -98 119 -262q1 -165 -109.5 -273t-275.5 -106q-91 0 -166 31q-51 -49 -70 -101q-20 -52 12 -90q31 -38 122 -43l309 -16q315 -17 315 -225q0 -42 -12 -82h203v-56h-227q-36 -63 -102.5 -112.5t-145.5 -78t-159 -43t-155 -14.5q-48 0 -98 5.5t-108.5 21.5t-102.5 41
t-73.5 67.5t-28.5 96.5z" />
    <glyph glyph-name="Gcaron" unicode="&#x1e6;" horiz-adv-x="1472" 
d="M1040 1782l-188 -250h-100l-185 250h17l219 -142l221 142h16zM1169 68v360q0 49 -3 82t-13.5 65.5t-29.5 53.5t-50.5 39t-77.5 30v9h441v-9q-77 -28 -106 -80q-28 -51 -27 -190v-375q-239 -84 -504 -84q-158 0 -291 55t-224 152t-141.5 232t-50.5 292q0 219 109 392
q105 167 268.5 258.5t359.5 91.5q95 0 225.5 -21.5t207.5 -54.5v-274h-9q-79 154 -182.5 234.5t-261.5 80.5q-232 0 -395 -196q-164 -196 -164 -503q0 -308 167 -505t412 -197q77 0 180 17t160 45z" />
    <glyph glyph-name="gcaron" unicode="&#x1e7;" horiz-adv-x="1073" 
d="M772 1413l-188 -250h-101l-184 250h16l220 -141l221 141h16zM336 946q-72 -90 -72 -237q0 -148 70 -243q71 -96 182 -95q110 0 182 90t72 237q0 59 -15 117t-44 108.5t-79.5 81.5t-113.5 31q-110 0 -182 -90zM154 -223q0 -53 23.5 -93.5t60 -65t86 -40t95 -21t92.5 -5.5
q56 0 113 9t115.5 31t104 53.5t74 82t28.5 112.5q0 40 -14.5 70t-36.5 47.5t-55 29t-63.5 15.5t-69.5 6l-338 15q-215 -102 -215 -246zM33 -260q0 180 327 285q-110 8 -160 61t-18 134q33 80 156 157q-100 46 -154.5 131t-54.5 194q0 162 110 264q109 101 259 103
q148 0 252 -65l325 65h8l-16 -117l-281 27q119 -98 119 -262q1 -165 -109.5 -273t-275.5 -106q-91 0 -166 31q-119 -113 -58 -190q31 -39 122 -44l309 -16q315 -17 315 -225q0 -64 -28.5 -121.5t-76.5 -100t-103 -73t-116 -49.5q-134 -42 -290 -42q-46 0 -95.5 6.5
t-104.5 23t-97.5 41.5t-70.5 67t-27 94z" />
    <glyph glyph-name="uni01E8" unicode="&#x1e8;" horiz-adv-x="1425" 
d="M948 1782l-188 -250h-101l-184 250h17l219 -142l221 142h16zM1470 8v-8h-505v8q91 16 117 42t-2 92q-28 65 -132 214l-305 432l-270 -272v-258q-1 -136 31 -179q32 -42 143 -71v-8h-479v8q110 29 142 71q32 43 32 179v897q0 136 -32 179q-32 42 -142 71v8h479v-8
q-111 -29 -143 -71q-32 -43 -31 -179v-575l461 475q90 94 142 163q47 62 42 100t-34 54q-30 17 -97 33v8h497v-8q-112 -27 -192 -87q-83 -63 -268 -249l-185 -186l371 -527q158 -222 208 -269q54 -51 152 -79z" />
    <glyph glyph-name="uni01E9" unicode="&#x1e9;" horiz-adv-x="1173" 
d="M823 1823l-188 -250h-100l-185 250h17l219 -142l221 142h16zM1194 8v-8h-168q-89 0 -110 8q-24 9 -30 10q-11 1 -26 16q-12 12 -22 20q-7 4 -27 29q-18 24 -29 35q-8 8 -37 45q-33 42 -43 54l-278 344l192 178q84 78 125 122q96 103 31 139q-34 19 -119 30v14h498v-8
q-167 -39 -399 -239l-207 -181l325 -385q52 -61 116 -117t120 -78q31 -12 88 -28zM498 8v-8h-426v8q95 28 123 64q27 35 26 153v1006q0 131 -32 166t-142 47v8q174 26 293 92h8v-1319q0 -47 2.5 -74t10.5 -51t25.5 -38.5t43 -27.5t68.5 -26z" />
    <glyph glyph-name="uni01EA" unicode="&#x1ea;" horiz-adv-x="1617" 
d="M412 207q161 -203 397 -203t397 203q160 202 160 500q0 297 -160 499t-398 201q-239 0 -396 -202q-160 -202 -160 -499t160 -499zM950 -350v-8q-55 -70 -135 -70q-81 0 -121 40q-41 41 -41 93q0 117 246 270q-43 -6 -90 -6q-286 0 -504 209q-217 208 -217 522t222 528
q221 214 498 214t500 -214q222 -214 222 -530q0 -276 -174 -475t-424 -241q-152 -170 -152 -261q0 -81 94 -81q32 0 76 10z" />
    <glyph glyph-name="uni01EB" unicode="&#x1eb;" horiz-adv-x="1267" 
d="M633 14q77 0 141.5 32t106.5 84t71.5 120.5t42.5 138.5t13 141q0 208 -104 354t-271 146t-271 -146t-104 -354q0 -71 13 -141t42.5 -138.5t71.5 -120.5t106.5 -84t141.5 -32zM737 -350v-8q-55 -70 -135 -70q-71 0 -116.5 36t-45.5 106q0 62 70 128q73 68 182 138
q-20 -2 -59 -5q-216 0 -371 161q-154 160 -153 390q0 228 155 386q156 157 370 157q142 0 263.5 -72t192 -194.5t70.5 -264.5q0 -218 -126 -370q-125 -152 -313 -184q-154 -167 -154 -263q0 -81 95 -81q31 0 75 10z" />
    <glyph glyph-name="uni01EC" unicode="&#x1ec;" horiz-adv-x="1617" 
d="M1085 1690v-78h-512v78h512zM412 207q161 -203 397 -203t397 203q160 202 160 500q0 297 -160 499t-398 201q-239 0 -396 -202q-160 -202 -160 -499t160 -499zM950 -350v-8q-55 -70 -135 -70q-81 0 -121 40q-41 41 -41 93q0 117 246 270q-43 -6 -90 -6q-286 0 -504 209
q-217 208 -217 522t222 528q221 214 498 214t500 -214q222 -214 222 -530q0 -276 -174 -475t-424 -241q-152 -170 -152 -261q0 -81 94 -81q32 0 76 10z" />
    <glyph glyph-name="uni01ED" unicode="&#x1ed;" horiz-adv-x="1267" 
d="M877 1321v-78h-512v78h512zM633 14q77 0 141.5 32t106.5 84t71.5 120.5t42.5 138.5t13 141q0 208 -104 354t-271 146t-271 -146t-104 -354q0 -71 13 -141t42.5 -138.5t71.5 -120.5t106.5 -84t141.5 -32zM737 -350v-8q-55 -70 -135 -70q-71 0 -116.5 36t-45.5 106
q0 62 70 128q73 68 182 138q-20 -2 -59 -5q-216 0 -371 161q-154 160 -153 390q0 228 155 386q156 157 370 157q142 0 263.5 -72t192 -194.5t70.5 -264.5q0 -218 -126 -370q-125 -152 -313 -184q-154 -167 -154 -263q0 -81 95 -81q31 0 75 10z" />
    <glyph glyph-name="uni01EE" unicode="&#x1ee;" horiz-adv-x="1032" 
d="M752 1782l-189 -250h-100l-184 250h16l219 -142l221 142h17zM707 1288h-617v125h762v-8l-363 -528q191 -23 327 -129t136 -306q0 -199 -146 -336q-144 -135 -364 -137q-156 0 -262 69t-106 148q0 50 34 83.5t84 33.5q48 0 80 -30q32 -29 31 -75q0 -45 -29 -79t-73 -45
q79 -66 225 -66q145 0 264 104q117 103 119 286q0 96 -34 168.5t-94 115.5t-137.5 64t-170.5 20h-13l-4 6z" />
    <glyph glyph-name="uni01EF" unicode="&#x1ef;" horiz-adv-x="1032" 
d="M754 1413l-189 -250h-100l-184 250h16l219 -141l221 141h17zM707 920h-617v124h762v-8l-363 -528q191 -22 327 -129q136 -106 136 -306q0 -199 -146 -336q-145 -136 -364 -136q-155 1 -262 69q-106 67 -106 148q0 50 34 83t84 33q48 0 80 -30q32 -31 31 -75
q0 -45 -29 -79t-73 -45q80 -65 225 -65t264 104q117 103 119 286q0 182 -120 276q-121 95 -329 91l-4 6z" />
    <glyph glyph-name="jcaron" unicode="&#x1f0;" horiz-adv-x="536" 
d="M506 1413l-189 -250h-100l-184 250h16l219 -141l221 141h17zM227 -86v858q0 158 -65 187q-28 13 -109 30v8q158 17 293 72h8v-1075q1 -376 -278 -486l-6 11q58 35 95 107t49.5 143t12.5 145z" />
    <glyph glyph-name="uni01F1" unicode="&#x1f1;" horiz-adv-x="2699" 
d="M2607 0h-1016v8l863 1360h-539q-79 0 -123 -38q-40 -34 -164 -206h-8l41 289h967v-8l-854 -1360h565q88 0 134 46q47 47 165 231h8zM381 1368v-1323h293q302 0 469.5 182t167.5 487q0 304 -171 479t-442 175h-317zM668 0h-592v8q110 29 142 74q32 46 32 197v856
q0 153 -32 197t-142 73v8h612q328 0 549 -169q117 -88 174 -226.5t57 -296.5q0 -173 -62 -311.5t-170.5 -227t-253.5 -135.5t-314 -47z" />
    <glyph glyph-name="uni01F2" unicode="&#x1f2;" horiz-adv-x="2494" 
d="M2423 0h-832v8l664 991h-375q-59 0 -103 -44q-43 -43 -149 -193h-8l41 282h762v-8l-658 -991h420q65 0 112 42t159 198h8zM381 1368v-1323h293q302 0 469.5 182t167.5 487q0 304 -171 479t-442 175h-317zM668 0h-592v8q110 29 142 74q32 46 32 197v856q0 153 -32 197
t-142 73v8h612q328 0 549 -169q117 -88 174 -226.5t57 -296.5q0 -173 -62 -311.5t-170.5 -227t-253.5 -135.5t-314 -47z" />
    <glyph glyph-name="uni01F3" unicode="&#x1f3;" horiz-adv-x="2183" 
d="M2111 0h-831v8l664 991h-375q-59 0 -103 -44q-43 -43 -149 -193h-8l41 282h761v-8l-657 -991h420q66 0 112 42q44 39 158 198h8zM942 -25h-8v172q-157 -172 -362 -172q-203 1 -334 141t-129 365q0 276 166 432q167 156 413 156q121 0 246 -31v193q0 131 -32 166t-142 47
v8q174 26 293 92h8v-1272q0 -158 65 -187q28 -13 109 -30v-8q-158 -17 -293 -72zM624 1022q-166 0 -270 -140t-104 -352q0 -133 43.5 -232t136.5 -157.5t227 -58.5q154 0 277 90v758q-146 92 -310 92z" />
    <glyph glyph-name="uni01F4" unicode="&#x1f4;" horiz-adv-x="1472" 
d="M578 1532h-11q120 91 166 250h172q-115 -159 -327 -250zM1169 68v360q0 49 -3 82t-13.5 65.5t-29.5 53.5t-50.5 39t-77.5 30v9h441v-9q-77 -28 -106 -80q-28 -51 -27 -190v-375q-239 -84 -504 -84q-158 0 -291 55t-224 152t-141.5 232t-50.5 292q0 219 109 392
q105 167 268.5 258.5t359.5 91.5q95 0 225.5 -21.5t207.5 -54.5v-274h-9q-79 154 -182.5 234.5t-261.5 80.5q-232 0 -395 -196q-164 -196 -164 -503q0 -308 167 -505t412 -197q77 0 180 17t160 45z" />
    <glyph glyph-name="uni01F5" unicode="&#x1f5;" horiz-adv-x="1073" 
d="M377 1163h-10q119 90 165 250h173q-117 -159 -328 -250zM336 946q-72 -90 -72 -237q0 -148 70 -243q71 -96 182 -95q110 0 182 90t72 237q0 59 -15 117t-44 108.5t-79.5 81.5t-113.5 31q-110 0 -182 -90zM154 -223q0 -53 23.5 -93.5t60 -65t86 -40t95 -21t92.5 -5.5
q56 0 113 9t115.5 31t104 53.5t74 82t28.5 112.5q0 40 -14.5 70t-36.5 47.5t-55 29t-63.5 15.5t-69.5 6l-338 15q-215 -102 -215 -246zM33 -260q0 180 327 285q-110 8 -160 61t-18 134q33 80 156 157q-100 46 -154.5 131t-54.5 194q0 162 110 264q109 101 259 103
q148 0 252 -65l325 65h8l-16 -117l-281 27q119 -98 119 -262q1 -165 -109.5 -273t-275.5 -106q-91 0 -166 31q-119 -113 -58 -190q31 -39 122 -44l309 -16q315 -17 315 -225q0 -64 -28.5 -121.5t-76.5 -100t-103 -73t-116 -49.5q-134 -42 -290 -42q-46 0 -95.5 6.5
t-104.5 23t-97.5 41.5t-70.5 67t-27 94z" />
    <glyph glyph-name="uni01F6" unicode="&#x1f6;" horiz-adv-x="2234" 
d="M1964 262v504q0 93 -4 134q-3 35 -21.5 66t-47.5 45q-17 8 -76 25v8h270v-759q0 -141 -121 -225t-312 -83q-81 0 -152 15t-135.5 48.5t-102.5 96t-37 148.5v415h-852v-442q-1 -136 31 -179q32 -42 143 -71v-8h-479v8q110 29 142 71q32 43 32 179v897q0 136 -32 179
q-32 42 -142 71v8h479v-8q-111 -29 -143 -71q-32 -43 -31 -179v-399h852v399q0 136 -32 179q-32 42 -142 71v8h479v-8q-110 -29 -142 -71q-32 -43 -32 -179v-866q0 -258 299 -258q161 -2 235 65q74 66 74 166z" />
    <glyph glyph-name="uni01F7" unicode="&#x1f7;" horiz-adv-x="1335" 
d="M238 -246v1348q0 127 -27 166t-133 75v13q119 13 169 33q50 21 122 55v-238q63 94 211 166t247 72q109 0 192 -38.5t133 -107t75 -157t24 -193.5q0 -172 -81 -334t-217 -288q-260 -242 -584 -371v-315l-299 -121v28l26 13q82 37 112 74.5t30 119.5zM1118 976
q0 154 -89 264t-257 110q-62 0 -196 -60q-135 -60 -207 -127v-1163q381 196 584 472q165 224 165 504z" />
    <glyph glyph-name="uni01F8" unicode="&#x1f8;" horiz-adv-x="1611" 
d="M975 1532h-10q-211 91 -328 250h172q46 -159 166 -250zM1417 987v-1007h-59l-1065 1280v-834q0 -164 14 -246q13 -76 43.5 -111.5t104.5 -60.5v-8h-381v8q72 23 102.5 58.5t44.5 111.5q13 78 15 248v780q0 60 -52 118q-53 59 -151 81v8h307l1020 -1218v792q0 164 -14 246
q-13 76 -44 112.5t-104 59.5v8h381v-8q-72 -22 -103 -58t-44 -111q-14 -80 -15 -249z" />
    <glyph glyph-name="uni01F9" unicode="&#x1f9;" horiz-adv-x="1204" 
d="M770 1163h-10q-211 91 -328 250h172q46 -159 166 -250zM1165 8v-8h-420v8q95 28 123 67q27 37 27 163v477q0 130 -66.5 198.5t-196.5 69.5q-124 0 -290 -96v-660q0 -153 54 -182q30 -16 96 -37v-8h-420v8q66 21 96 37q55 29 53 182v545q0 158 -65 187q-28 13 -109 30v8
q148 17 287 72h8v-158q206 158 377 158q131 0 214 -84q83 -85 83 -266v-481q0 -125 26 -163q26 -39 123 -67z" />
    <glyph glyph-name="Aringacute" unicode="&#x1fa;" horiz-adv-x="1384" 
d="M532 1696h-10q120 91 166 250h172q-117 -159 -328 -250zM700 1352q65 0 107.5 45.5t42.5 110.5t-42.5 110t-107.5 45t-108 -45.5t-43 -110.5t43 -110t108 -45zM403 571h500l-246 686zM1391 8v-8h-467v8q63 14 94 38.5t30 59.5q-1 69 -126 416h-537q-67 -180 -93 -261
q-26 -83 -26 -142q0 -61 30 -79q31 -19 103 -32v-8h-407v8q41 11 71 29t54.5 49t38 54t38.5 72q50 101 142 339l291 760q-67 28 -103.5 82t-36.5 125q-1 80 65.5 139t147.5 59q82 0 148 -58.5t65 -138.5q-2 -71 -35.5 -125t-97.5 -81l279 -760q95 -260 141 -359
q46 -100 83 -136q35 -33 108 -50z" />
    <glyph glyph-name="aringacute" unicode="&#x1fb;" horiz-adv-x="1015" 
d="M348 1614h-10q120 91 166 250h172q-117 -159 -328 -250zM508 1210q65 0 107 45.5t42 110.5t-42 110.5t-107 45.5t-108.5 -45t-43.5 -111t43.5 -111t108.5 -45zM721 1366q1 -86 -62.5 -147t-150.5 -61q-86 0 -150 60q-65 62 -63 148q0 87 63 147.5t150 60.5q86 0 150 -60
q65 -62 63 -148zM555 528q-50 0 -96 -7.5t-90.5 -25.5t-77 -45.5t-52.5 -70.5t-20 -97q-1 -114 63 -171t180 -57t245 75v387q-68 12 -152 12zM817 -16q-101 0 -108 129q-71 -63 -163 -100.5t-184 -37.5q-103 0 -188 67q-86 68 -86 200q0 336 619 329v136q-2 160 -61.5 228.5
t-216.5 68.5t-249 -89q117 -12 117 -94q0 -37 -24.5 -59.5t-62.5 -24.5q-33 0 -62 23t-27 71q0 103 123 170q124 68 280 68q303 0 303 -285v-544q0 -120 55 -154q54 -33 146 -41v-8q-126 -53 -211 -53z" />
    <glyph glyph-name="AEacute" unicode="&#x1fc;" horiz-adv-x="1878" 
d="M883 1511h-11q120 91 166 250h172q-115 -159 -327 -250zM520 571h463v797h-12zM1769 0h-960v8q111 29 143 74q32 46 31 197v243h-491q-174 -308 -198 -389q-24 -80 46 -108q18 -9 59 -17v-8h-407v8q99 28 190 133q89 103 264 410l334 584q85 148 39 197q-21 21 -53 36.5
t-55 21.5t-64 15v8h1063v-289h-8q-41 79 -59 108q-20 34 -31 53q-16 28 -26 35q-8 6 -25 21q-31 27 -117 27h-330v-618h307q69 0 104 26q32 24 85 109h8v-316h-8q-51 82 -85 109q-35 27 -104 27h-307v-660h387q56 0 82 11t71 48q16 13 42 56q55 81 106 162h8z" />
    <glyph glyph-name="aeacute" unicode="&#x1fd;" horiz-adv-x="1599" 
d="M1325 932q-73 96 -187 96t-206 -110q-91 -109 -111 -287l576 18q0 187 -72 283zM707 487v29q-79 12 -152 12q-50 0 -96 -7.5t-90.5 -25.5t-77 -45.5t-52.5 -70.5t-20 -97q-1 -114 63 -171t154 -57q87 0 176.5 39.5t153.5 103.5q-59 123 -59 290zM1120 -25
q-224 0 -336 189q-258 -188 -411 -189q-114 0 -199 67q-86 68 -86 200q0 336 619 329v136q-2 160 -61.5 228.5t-216.5 68.5t-249 -89q117 -12 117 -94q0 -37 -24.5 -59.5t-62.5 -24.5q-33 0 -62 23t-27 71q0 103 123 170q124 68 280 68q246 0 281 -207q62 95 156.5 150.5
t205.5 56.5q151 0 259 -102t108 -318q0 -23 -2 -55h-715v-47q-1 -92 21.5 -174t67.5 -147.5t120 -103.5t171 -38q176 0 327 125l12 -8q-46 -79 -156 -153q-109 -73 -260 -73zM641 1163h-10q120 91 166 250h172q-117 -159 -328 -250z" />
    <glyph glyph-name="Oslashacute" unicode="&#x1fe;" horiz-adv-x="1617" 
d="M649 1511h-10q120 91 166 250h172q-117 -159 -328 -250zM406 215l768 1026q-154 166 -378 166t-384 -202t-160 -497q0 -294 154 -493zM1210 1196l-768 -1026q154 -166 380 -166t384 203q160 202 160 495q0 291 -156 494zM223 -31l125 168q-260 219 -260 547t222 544
q221 214 499 214q216 0 410 -139l131 174l45 -35l-131 -174q266 -225 266 -570q0 -312 -217 -520q-218 -209 -504 -209q-225 0 -416 135l-129 -172z" />
    </font>
</defs>
</svg>
