<svg width="17" height="17" viewBox="0 0 17 17" fill="none" xmlns="http://www.w3.org/2000/svg">
<path d="M0.336063 2.05475C0.117987 1.82934 -0.00268364 1.52746 4.57764e-05 1.2141C0.00277328 0.900746 0.128677 0.600997 0.350645 0.379413C0.572613 0.157829 0.872881 0.0321395 1.18678 0.0294165C1.50068 0.0266935 1.80309 0.147154 2.02888 0.364854L8.48529 6.81011L14.9417 0.364854C15.0521 0.250708 15.1842 0.159662 15.3303 0.0970276C15.4764 0.0343928 15.6335 0.00142407 15.7924 4.5124e-05C15.9514 -0.00133382 16.109 0.0289044 16.2561 0.0889958C16.4033 0.149087 16.5369 0.237828 16.6494 0.350041C16.7618 0.462253 16.8507 0.59569 16.9109 0.742566C16.971 0.889441 17.0013 1.04681 17 1.2055C16.9986 1.36419 16.9655 1.52101 16.9028 1.66682C16.8401 1.81263 16.7489 1.9445 16.6345 2.05475L10.1781 8.5L16.6345 14.9453C16.7489 15.0555 16.8401 15.1874 16.9028 15.3332C16.9655 15.479 16.9986 15.6358 17 15.7945C17.0013 15.9532 16.971 16.1106 16.9109 16.2574C16.8507 16.4043 16.7618 16.5377 16.6494 16.65C16.5369 16.7622 16.4033 16.8509 16.2561 16.911C16.109 16.9711 15.9514 17.0013 15.7924 17C15.6335 16.9986 15.4764 16.9656 15.3303 16.903C15.1842 16.8403 15.0521 16.7493 14.9417 16.6351L8.48529 10.1899L2.02888 16.6351C1.80309 16.8528 1.50068 16.9733 1.18678 16.9706C0.872881 16.9679 0.572613 16.8422 0.350645 16.6206C0.128677 16.399 0.00277328 16.0993 4.57764e-05 15.7859C-0.00268364 15.4725 0.117987 15.1707 0.336063 14.9453L6.79247 8.5L0.336063 2.05475Z" fill="white"/>
</svg>
