<svg width="68" height="68" viewBox="0 0 68 68" fill="none" xmlns="http://www.w3.org/2000/svg">
<g filter="url(#filter0_b_1_212)">
<circle cx="34" cy="34" r="34" fill="#D9D9D9" fill-opacity="0.3"/>
</g>
<path d="M38.5846 50.4516C38.4624 50.4516 38.3403 50.4267 38.2242 50.3833C35.549 49.6875 33.3135 48.3022 31.5789 46.2584C29.8199 44.1897 28.9281 41.6489 28.9281 38.7043C28.9281 37.3252 29.4351 36.1511 30.4245 35.2131C31.4079 34.2875 32.5928 33.8215 33.9549 33.8215C35.3169 33.8215 36.5018 34.2937 37.4852 35.2131C38.4808 36.1511 38.9816 37.3252 38.9816 38.7043C38.9816 39.4809 39.2748 40.1145 39.8672 40.655C40.4536 41.1954 41.2171 41.4936 42.0111 41.4812C42.799 41.4812 43.477 41.2141 44.0694 40.6612C44.6497 40.1269 44.9245 39.4871 44.9245 38.7043C44.9245 35.7473 43.874 33.337 41.7057 31.3367C39.5496 29.3488 36.9416 28.3424 33.9487 28.3424C30.9559 28.3424 28.3479 29.3488 26.1918 31.3367C24.0296 33.337 22.973 35.7473 22.973 38.7043C22.973 39.2821 23.0402 40.0524 23.1745 40.9966C23.3028 41.9222 23.5899 42.997 24.0174 44.1897C24.2007 44.6556 24.0357 44.9724 23.9197 45.1215C23.822 45.2396 23.712 45.3452 23.5838 45.4321L23.5471 45.457L23.5105 45.4756C23.3578 45.5564 23.1868 45.5937 23.0157 45.5937C22.9302 45.5937 22.8508 45.5812 22.7653 45.5626C22.4416 45.488 22.179 45.252 22.0629 44.9414L22.0568 44.9289L22.0507 44.9103C21.7148 43.9164 21.4521 42.8976 21.2567 41.8663C21.0612 40.8289 20.9635 39.7728 20.9635 38.7105C20.9635 35.2566 22.2706 32.2685 24.842 29.8271C27.4012 27.3981 30.4612 26.1619 33.9365 26.1619C37.4852 26.1619 40.5757 27.3733 43.1227 29.765C45.688 32.1691 46.9829 35.182 46.9829 38.7105C46.9829 40.0648 46.4881 41.2203 45.5048 42.1583C44.5336 43.0839 43.3548 43.5561 41.9928 43.5561C40.6063 43.5561 39.403 43.0901 38.4075 42.1645C37.3997 41.2265 36.8866 40.0648 36.8866 38.7105C36.8866 37.903 36.6057 37.2507 36.0315 36.7164C35.4635 36.176 34.7122 35.884 33.9365 35.8964C33.1547 35.884 32.3974 36.176 31.8232 36.7226C31.2369 37.2569 30.9498 37.9092 30.9498 38.7105C30.9498 41.1706 31.6889 43.2517 33.1425 44.8855C34.6267 46.5565 36.5079 47.7431 38.7312 48.414L38.7495 48.4202C39.0671 48.5258 39.287 48.6998 39.403 48.942C39.6168 49.4266 39.4702 49.9981 39.0549 50.3149C38.9266 50.4019 38.7556 50.4516 38.5846 50.4516ZM30.449 50.141C30.168 50.1348 29.8993 50.0043 29.7282 49.7745C28.2501 48.2152 27.0774 46.5503 26.2407 44.8233C25.3856 43.0653 24.958 41.0028 24.958 38.7043C24.958 36.2629 25.8559 34.1756 27.621 32.5046C29.374 30.8459 31.5056 30.001 33.961 30.001C36.4163 30.001 38.5602 30.8397 40.3375 32.4983C42.1332 34.1694 43.0372 36.2567 43.0372 38.6981C43.0677 39.2448 42.6524 39.7045 42.121 39.7356H42.0172C41.7607 39.7418 41.5041 39.6548 41.3026 39.4871C41.0766 39.2883 40.9483 39.0025 40.9605 38.6981C40.9605 36.8158 40.2887 35.2752 38.9022 34.0017C37.4974 32.7033 35.8849 32.0759 33.9549 32.0759C32.0248 32.0759 30.4245 32.7033 29.0503 34.0017C27.6882 35.2814 27.0286 36.822 27.0286 38.7043C27.0286 40.7544 27.3767 42.5186 28.0669 43.9412C28.7693 45.3949 29.8321 46.8796 31.2308 48.3457C31.5362 48.6625 31.5667 48.9731 31.5423 49.1843C31.5056 49.4204 31.3957 49.6378 31.2308 49.8055C31.0903 49.9422 30.9193 50.0416 30.736 50.0975C30.6383 50.1286 30.5406 50.141 30.449 50.141ZM41.6752 47.2088C39.3236 47.2088 37.2531 46.4012 35.5246 44.8109C33.7777 43.202 32.8982 41.1457 32.8982 38.7043C32.8921 38.4434 32.9776 38.1825 33.1425 37.9775C33.5334 37.5426 34.1931 37.5116 34.6206 37.903L34.6939 37.9775C34.8588 38.1825 34.9443 38.4372 34.9382 38.7043C34.9382 40.5804 35.5979 42.09 36.9477 43.3014C38.3281 44.5376 39.8733 45.1402 41.6752 45.1402C41.8523 45.1402 42.0722 45.1277 42.3287 45.1029C42.5852 45.078 42.8723 45.0408 43.1777 44.9973C43.2449 44.9849 43.3182 44.9786 43.3915 44.9786C43.6113 44.9786 43.8312 45.0532 44.0022 45.1961C44.161 45.3265 44.2832 45.5067 44.3504 45.6993L44.3626 45.749C44.4237 45.9912 44.4053 46.2459 44.2954 46.4696C44.2221 46.6187 44.0389 46.8734 43.6297 46.9666C43.2021 47.0908 42.7623 47.1716 42.3226 47.1964C41.8523 47.2088 41.7301 47.2088 41.6752 47.2088ZM20.7314 31.2932C20.5665 31.2932 20.4016 31.2497 20.2489 31.1751C19.9374 31.0198 19.7419 30.6968 19.7419 30.3427C19.7419 30.1315 19.7908 29.9203 19.8824 29.7277L19.9069 29.678L19.9374 29.6345C21.5193 27.3919 23.6204 25.578 26.0574 24.3604C28.5128 23.1241 31.2124 22.4905 33.9487 22.5029C36.6851 22.4905 39.3908 23.1117 41.8584 24.3169C44.3137 25.5158 46.4393 27.3112 48.0395 29.5538L48.0578 29.5786L48.07 29.6035C48.2288 29.8706 48.2838 30.1129 48.2472 30.3551C48.2044 30.5788 48.1006 30.7838 47.9357 30.9391C47.7402 31.1379 47.4776 31.2497 47.1966 31.2435C46.9767 31.2435 46.6591 31.1689 46.3721 30.8086L46.3476 30.7838C44.9612 28.8145 43.1044 27.2304 40.9483 26.1867C38.7617 25.1183 36.3674 24.5654 33.9365 24.5716C31.4751 24.5716 29.1358 25.1183 26.9858 26.1992C24.8542 27.2677 23.0035 28.8394 21.5987 30.7838L21.5926 30.7962L21.5865 30.8024C21.3972 31.0385 21.2017 31.1876 20.9818 31.2497C20.9085 31.2745 20.8169 31.287 20.7314 31.2932ZM25.0069 23.0123C24.8542 23.0123 24.7076 22.975 24.5793 22.8943C24.445 22.8073 24.3289 22.7017 24.2373 22.565C24.0907 22.3849 24.0174 22.1612 24.0235 21.9314C24.0174 21.6208 24.1701 21.3288 24.4205 21.1549L24.445 21.1362L24.4694 21.1238C25.9292 20.3162 27.4867 19.695 29.0991 19.2726C30.6811 18.8626 32.318 18.6451 33.9549 18.6451C35.6223 18.6451 37.2775 18.8564 38.8961 19.2726C40.4841 19.6826 42.0233 20.2727 43.4892 21.0306C43.8129 21.1735 44.0206 21.4406 44.0633 21.7761C44.1 22.0246 44.0389 22.2793 43.9045 22.4905C43.7946 22.652 43.6541 22.7887 43.4831 22.8881C43.3426 22.9688 43.1838 23.0123 43.0189 23.0123C42.8784 23.0123 42.7379 22.9813 42.6035 22.9253L42.5547 22.9005C41.2171 22.2358 39.8123 21.7078 38.3647 21.3288C36.9233 20.9499 35.4391 20.7573 33.9549 20.7573C32.4768 20.7573 31.0109 20.9312 29.5755 21.2915C28.1524 21.6456 26.7782 22.1861 25.4894 22.8943L25.4589 22.9129L25.4222 22.9253C25.2879 22.975 25.1474 23.0061 25.0069 23.0123Z" fill="white"/>
<defs>
<filter id="filter0_b_1_212" x="-15.7935" y="-15.7935" width="99.5871" height="99.5871" filterUnits="userSpaceOnUse" color-interpolation-filters="sRGB">
<feFlood flood-opacity="0" result="BackgroundImageFix"/>
<feGaussianBlur in="BackgroundImageFix" stdDeviation="7.89677"/>
<feComposite in2="SourceAlpha" operator="in" result="effect1_backgroundBlur_1_212"/>
<feBlend mode="normal" in="SourceGraphic" in2="effect1_backgroundBlur_1_212" result="shape"/>
</filter>
</defs>
</svg>
